solid Created by surf2stl.m 09-Mar-2012 10:07:07
facet normal 0.0000000E+00 1.5643447E-01 9.8768834E-01
outer loop
vertex -0.0000000E+00 0.0000000E+00 5.0000000E-02
vertex -0.0000000E+00 1.5450850E-02 4.7552826E-02
vertex -1.0000000E+00 1.5450850E-02 4.7552826E-02
endloop
endfacet
facet normal 0.0000000E+00 1.5643447E-01 9.8768834E-01
outer loop
vertex -1.0000000E+00 1.5450850E-02 4.7552826E-02
vertex -1.0000000E+00 0.0000000E+00 5.0000000E-02
vertex -0.0000000E+00 0.0000000E+00 5.0000000E-02
endloop
endfacet
facet normal 0.0000000E+00 4.5399050E-01 8.9100652E-01
outer loop
vertex -0.0000000E+00 1.5450850E-02 4.7552826E-02
vertex -0.0000000E+00 2.9389263E-02 4.0450850E-02
vertex -1.0000000E+00 2.9389263E-02 4.0450850E-02
endloop
endfacet
facet normal 0.0000000E+00 4.5399050E-01 8.9100652E-01
outer loop
vertex -1.0000000E+00 2.9389263E-02 4.0450850E-02
vertex -1.0000000E+00 1.5450850E-02 4.7552826E-02
vertex -0.0000000E+00 1.5450850E-02 4.7552826E-02
endloop
endfacet
facet normal 0.0000000E+00 7.0710678E-01 7.0710678E-01
outer loop
vertex -0.0000000E+00 2.9389263E-02 4.0450850E-02
vertex -0.0000000E+00 4.0450850E-02 2.9389263E-02
vertex -1.0000000E+00 4.0450850E-02 2.9389263E-02
endloop
endfacet
facet normal 0.0000000E+00 7.0710678E-01 7.0710678E-01
outer loop
vertex -1.0000000E+00 4.0450850E-02 2.9389263E-02
vertex -1.0000000E+00 2.9389263E-02 4.0450850E-02
vertex -0.0000000E+00 2.9389263E-02 4.0450850E-02
endloop
endfacet
facet normal 0.0000000E+00 8.9100652E-01 4.5399050E-01
outer loop
vertex -0.0000000E+00 4.0450850E-02 2.9389263E-02
vertex -0.0000000E+00 4.7552826E-02 1.5450850E-02
vertex -1.0000000E+00 4.7552826E-02 1.5450850E-02
endloop
endfacet
facet normal 0.0000000E+00 8.9100652E-01 4.5399050E-01
outer loop
vertex -1.0000000E+00 4.7552826E-02 1.5450850E-02
vertex -1.0000000E+00 4.0450850E-02 2.9389263E-02
vertex -0.0000000E+00 4.0450850E-02 2.9389263E-02
endloop
endfacet
facet normal 0.0000000E+00 9.8768834E-01 1.5643447E-01
outer loop
vertex -0.0000000E+00 4.7552826E-02 1.5450850E-02
vertex -0.0000000E+00 5.0000000E-02 3.0616170E-18
vertex -1.0000000E+00 5.0000000E-02 3.0616170E-18
endloop
endfacet
facet normal 0.0000000E+00 9.8768834E-01 1.5643447E-01
outer loop
vertex -1.0000000E+00 5.0000000E-02 3.0616170E-18
vertex -1.0000000E+00 4.7552826E-02 1.5450850E-02
vertex -0.0000000E+00 4.7552826E-02 1.5450850E-02
endloop
endfacet
facet normal 0.0000000E+00 9.8768834E-01 -1.5643447E-01
outer loop
vertex -0.0000000E+00 5.0000000E-02 3.0616170E-18
vertex -0.0000000E+00 4.7552826E-02 -1.5450850E-02
vertex -1.0000000E+00 4.7552826E-02 -1.5450850E-02
endloop
endfacet
facet normal 0.0000000E+00 9.8768834E-01 -1.5643447E-01
outer loop
vertex -1.0000000E+00 4.7552826E-02 -1.5450850E-02
vertex -1.0000000E+00 5.0000000E-02 3.0616170E-18
vertex -0.0000000E+00 5.0000000E-02 3.0616170E-18
endloop
endfacet
facet normal 0.0000000E+00 8.9100652E-01 -4.5399050E-01
outer loop
vertex -0.0000000E+00 4.7552826E-02 -1.5450850E-02
vertex -0.0000000E+00 4.0450850E-02 -2.9389263E-02
vertex -1.0000000E+00 4.0450850E-02 -2.9389263E-02
endloop
endfacet
facet normal 0.0000000E+00 8.9100652E-01 -4.5399050E-01
outer loop
vertex -1.0000000E+00 4.0450850E-02 -2.9389263E-02
vertex -1.0000000E+00 4.7552826E-02 -1.5450850E-02
vertex -0.0000000E+00 4.7552826E-02 -1.5450850E-02
endloop
endfacet
facet normal 0.0000000E+00 7.0710678E-01 -7.0710678E-01
outer loop
vertex -0.0000000E+00 4.0450850E-02 -2.9389263E-02
vertex -0.0000000E+00 2.9389263E-02 -4.0450850E-02
vertex -1.0000000E+00 2.9389263E-02 -4.0450850E-02
endloop
endfacet
facet normal 0.0000000E+00 7.0710678E-01 -7.0710678E-01
outer loop
vertex -1.0000000E+00 2.9389263E-02 -4.0450850E-02
vertex -1.0000000E+00 4.0450850E-02 -2.9389263E-02
vertex -0.0000000E+00 4.0450850E-02 -2.9389263E-02
endloop
endfacet
facet normal 0.0000000E+00 4.5399050E-01 -8.9100652E-01
outer loop
vertex -0.0000000E+00 2.9389263E-02 -4.0450850E-02
vertex -0.0000000E+00 1.5450850E-02 -4.7552826E-02
vertex -1.0000000E+00 1.5450850E-02 -4.7552826E-02
endloop
endfacet
facet normal 0.0000000E+00 4.5399050E-01 -8.9100652E-01
outer loop
vertex -1.0000000E+00 1.5450850E-02 -4.7552826E-02
vertex -1.0000000E+00 2.9389263E-02 -4.0450850E-02
vertex -0.0000000E+00 2.9389263E-02 -4.0450850E-02
endloop
endfacet
facet normal 0.0000000E+00 1.5643447E-01 -9.8768834E-01
outer loop
vertex -0.0000000E+00 1.5450850E-02 -4.7552826E-02
vertex -0.0000000E+00 6.1232340E-18 -5.0000000E-02
vertex -1.0000000E+00 6.1232340E-18 -5.0000000E-02
endloop
endfacet
facet normal 0.0000000E+00 1.5643447E-01 -9.8768834E-01
outer loop
vertex -1.0000000E+00 6.1232340E-18 -5.0000000E-02
vertex -1.0000000E+00 1.5450850E-02 -4.7552826E-02
vertex -0.0000000E+00 1.5450850E-02 -4.7552826E-02
endloop
endfacet
facet normal 0.0000000E+00 -1.5643447E-01 -9.8768834E-01
outer loop
vertex -0.0000000E+00 6.1232340E-18 -5.0000000E-02
vertex -0.0000000E+00 -1.5450850E-02 -4.7552826E-02
vertex -1.0000000E+00 -1.5450850E-02 -4.7552826E-02
endloop
endfacet
facet normal 0.0000000E+00 -1.5643447E-01 -9.8768834E-01
outer loop
vertex -1.0000000E+00 -1.5450850E-02 -4.7552826E-02
vertex -1.0000000E+00 6.1232340E-18 -5.0000000E-02
vertex -0.0000000E+00 6.1232340E-18 -5.0000000E-02
endloop
endfacet
facet normal 0.0000000E+00 -4.5399050E-01 -8.9100652E-01
outer loop
vertex -0.0000000E+00 -1.5450850E-02 -4.7552826E-02
vertex -0.0000000E+00 -2.9389263E-02 -4.0450850E-02
vertex -1.0000000E+00 -2.9389263E-02 -4.0450850E-02
endloop
endfacet
facet normal 0.0000000E+00 -4.5399050E-01 -8.9100652E-01
outer loop
vertex -1.0000000E+00 -2.9389263E-02 -4.0450850E-02
vertex -1.0000000E+00 -1.5450850E-02 -4.7552826E-02
vertex -0.0000000E+00 -1.5450850E-02 -4.7552826E-02
endloop
endfacet
facet normal 0.0000000E+00 -7.0710678E-01 -7.0710678E-01
outer loop
vertex -0.0000000E+00 -2.9389263E-02 -4.0450850E-02
vertex -0.0000000E+00 -4.0450850E-02 -2.9389263E-02
vertex -1.0000000E+00 -4.0450850E-02 -2.9389263E-02
endloop
endfacet
facet normal 0.0000000E+00 -7.0710678E-01 -7.0710678E-01
outer loop
vertex -1.0000000E+00 -4.0450850E-02 -2.9389263E-02
vertex -1.0000000E+00 -2.9389263E-02 -4.0450850E-02
vertex -0.0000000E+00 -2.9389263E-02 -4.0450850E-02
endloop
endfacet
facet normal 0.0000000E+00 -8.9100652E-01 -4.5399050E-01
outer loop
vertex -0.0000000E+00 -4.0450850E-02 -2.9389263E-02
vertex -0.0000000E+00 -4.7552826E-02 -1.5450850E-02
vertex -1.0000000E+00 -4.7552826E-02 -1.5450850E-02
endloop
endfacet
facet normal 0.0000000E+00 -8.9100652E-01 -4.5399050E-01
outer loop
vertex -1.0000000E+00 -4.7552826E-02 -1.5450850E-02
vertex -1.0000000E+00 -4.0450850E-02 -2.9389263E-02
vertex -0.0000000E+00 -4.0450850E-02 -2.9389263E-02
endloop
endfacet
facet normal 0.0000000E+00 -9.8768834E-01 -1.5643447E-01
outer loop
vertex -0.0000000E+00 -4.7552826E-02 -1.5450850E-02
vertex -0.0000000E+00 -5.0000000E-02 -9.1848510E-18
vertex -1.0000000E+00 -5.0000000E-02 -9.1848510E-18
endloop
endfacet
facet normal 0.0000000E+00 -9.8768834E-01 -1.5643447E-01
outer loop
vertex -1.0000000E+00 -5.0000000E-02 -9.1848510E-18
vertex -1.0000000E+00 -4.7552826E-02 -1.5450850E-02
vertex -0.0000000E+00 -4.7552826E-02 -1.5450850E-02
endloop
endfacet
facet normal 0.0000000E+00 -9.8768834E-01 1.5643447E-01
outer loop
vertex -0.0000000E+00 -5.0000000E-02 -9.1848510E-18
vertex -0.0000000E+00 -4.7552826E-02 1.5450850E-02
vertex -1.0000000E+00 -4.7552826E-02 1.5450850E-02
endloop
endfacet
facet normal 0.0000000E+00 -9.8768834E-01 1.5643447E-01
outer loop
vertex -1.0000000E+00 -4.7552826E-02 1.5450850E-02
vertex -1.0000000E+00 -5.0000000E-02 -9.1848510E-18
vertex -0.0000000E+00 -5.0000000E-02 -9.1848510E-18
endloop
endfacet
facet normal 0.0000000E+00 -8.9100652E-01 4.5399050E-01
outer loop
vertex -0.0000000E+00 -4.7552826E-02 1.5450850E-02
vertex -0.0000000E+00 -4.0450850E-02 2.9389263E-02
vertex -1.0000000E+00 -4.0450850E-02 2.9389263E-02
endloop
endfacet
facet normal 0.0000000E+00 -8.9100652E-01 4.5399050E-01
outer loop
vertex -1.0000000E+00 -4.0450850E-02 2.9389263E-02
vertex -1.0000000E+00 -4.7552826E-02 1.5450850E-02
vertex -0.0000000E+00 -4.7552826E-02 1.5450850E-02
endloop
endfacet
facet normal 0.0000000E+00 -7.0710678E-01 7.0710678E-01
outer loop
vertex -0.0000000E+00 -4.0450850E-02 2.9389263E-02
vertex -0.0000000E+00 -2.9389263E-02 4.0450850E-02
vertex -1.0000000E+00 -2.9389263E-02 4.0450850E-02
endloop
endfacet
facet normal 0.0000000E+00 -7.0710678E-01 7.0710678E-01
outer loop
vertex -1.0000000E+00 -2.9389263E-02 4.0450850E-02
vertex -1.0000000E+00 -4.0450850E-02 2.9389263E-02
vertex -0.0000000E+00 -4.0450850E-02 2.9389263E-02
endloop
endfacet
facet normal 0.0000000E+00 -4.5399050E-01 8.9100652E-01
outer loop
vertex -0.0000000E+00 -2.9389263E-02 4.0450850E-02
vertex -0.0000000E+00 -1.5450850E-02 4.7552826E-02
vertex -1.0000000E+00 -1.5450850E-02 4.7552826E-02
endloop
endfacet
facet normal 0.0000000E+00 -4.5399050E-01 8.9100652E-01
outer loop
vertex -1.0000000E+00 -1.5450850E-02 4.7552826E-02
vertex -1.0000000E+00 -2.9389263E-02 4.0450850E-02
vertex -0.0000000E+00 -2.9389263E-02 4.0450850E-02
endloop
endfacet
facet normal 0.0000000E+00 -1.5643447E-01 9.8768834E-01
outer loop
vertex -0.0000000E+00 -1.5450850E-02 4.7552826E-02
vertex -0.0000000E+00 0.0000000E+00 5.0000000E-02
vertex -1.0000000E+00 0.0000000E+00 5.0000000E-02
endloop
endfacet
facet normal 0.0000000E+00 -1.5643447E-01 9.8768834E-01
outer loop
vertex -1.0000000E+00 0.0000000E+00 5.0000000E-02
vertex -1.0000000E+00 -1.5450850E-02 4.7552826E-02
vertex -0.0000000E+00 -1.5450850E-02 4.7552826E-02
endloop
endfacet
endsolid Created by surf2stl.m 09-Mar-2012 10:07:07
