solid Created by surf2stl.m 04-Jan-2012 13:02:11
facet normal 9.8768834E-01 1.5643447E-01 0.0000000E+00
outer loop
vertex 4.0000000E+01 0.0000000E+00 0.0000000E+00
vertex 3.8042261E+01 1.2360680E+01 0.0000000E+00
vertex 3.8042261E+01 1.2360680E+01 1.0000000E+00
endloop
endfacet
facet normal 9.8768834E-01 1.5643447E-01 0.0000000E+00
outer loop
vertex 3.8042261E+01 1.2360680E+01 1.0000000E+00
vertex 4.0000000E+01 0.0000000E+00 1.0000000E+00
vertex 4.0000000E+01 0.0000000E+00 0.0000000E+00
endloop
endfacet
facet normal 8.9100652E-01 4.5399050E-01 0.0000000E+00
outer loop
vertex 3.8042261E+01 1.2360680E+01 0.0000000E+00
vertex 3.2360680E+01 2.3511410E+01 0.0000000E+00
vertex 3.2360680E+01 2.3511410E+01 1.0000000E+00
endloop
endfacet
facet normal 8.9100652E-01 4.5399050E-01 0.0000000E+00
outer loop
vertex 3.2360680E+01 2.3511410E+01 1.0000000E+00
vertex 3.8042261E+01 1.2360680E+01 1.0000000E+00
vertex 3.8042261E+01 1.2360680E+01 0.0000000E+00
endloop
endfacet
facet normal 7.0710678E-01 7.0710678E-01 0.0000000E+00
outer loop
vertex 3.2360680E+01 2.3511410E+01 0.0000000E+00
vertex 2.3511410E+01 3.2360680E+01 0.0000000E+00
vertex 2.3511410E+01 3.2360680E+01 1.0000000E+00
endloop
endfacet
facet normal 7.0710678E-01 7.0710678E-01 0.0000000E+00
outer loop
vertex 2.3511410E+01 3.2360680E+01 1.0000000E+00
vertex 3.2360680E+01 2.3511410E+01 1.0000000E+00
vertex 3.2360680E+01 2.3511410E+01 0.0000000E+00
endloop
endfacet
facet normal 4.5399050E-01 8.9100652E-01 0.0000000E+00
outer loop
vertex 2.3511410E+01 3.2360680E+01 0.0000000E+00
vertex 1.2360680E+01 3.8042261E+01 0.0000000E+00
vertex 1.2360680E+01 3.8042261E+01 1.0000000E+00
endloop
endfacet
facet normal 4.5399050E-01 8.9100652E-01 0.0000000E+00
outer loop
vertex 1.2360680E+01 3.8042261E+01 1.0000000E+00
vertex 2.3511410E+01 3.2360680E+01 1.0000000E+00
vertex 2.3511410E+01 3.2360680E+01 0.0000000E+00
endloop
endfacet
facet normal 1.5643447E-01 9.8768834E-01 0.0000000E+00
outer loop
vertex 1.2360680E+01 3.8042261E+01 0.0000000E+00
vertex 2.4492936E-15 4.0000000E+01 0.0000000E+00
vertex 2.4492936E-15 4.0000000E+01 1.0000000E+00
endloop
endfacet
facet normal 1.5643447E-01 9.8768834E-01 0.0000000E+00
outer loop
vertex 2.4492936E-15 4.0000000E+01 1.0000000E+00
vertex 1.2360680E+01 3.8042261E+01 1.0000000E+00
vertex 1.2360680E+01 3.8042261E+01 0.0000000E+00
endloop
endfacet
facet normal -1.5643447E-01 9.8768834E-01 0.0000000E+00
outer loop
vertex 2.4492936E-15 4.0000000E+01 0.0000000E+00
vertex -1.2360680E+01 3.8042261E+01 0.0000000E+00
vertex -1.2360680E+01 3.8042261E+01 1.0000000E+00
endloop
endfacet
facet normal -1.5643447E-01 9.8768834E-01 0.0000000E+00
outer loop
vertex -1.2360680E+01 3.8042261E+01 1.0000000E+00
vertex 2.4492936E-15 4.0000000E+01 1.0000000E+00
vertex 2.4492936E-15 4.0000000E+01 0.0000000E+00
endloop
endfacet
facet normal -4.5399050E-01 8.9100652E-01 0.0000000E+00
outer loop
vertex -1.2360680E+01 3.8042261E+01 0.0000000E+00
vertex -2.3511410E+01 3.2360680E+01 0.0000000E+00
vertex -2.3511410E+01 3.2360680E+01 1.0000000E+00
endloop
endfacet
facet normal -4.5399050E-01 8.9100652E-01 0.0000000E+00
outer loop
vertex -2.3511410E+01 3.2360680E+01 1.0000000E+00
vertex -1.2360680E+01 3.8042261E+01 1.0000000E+00
vertex -1.2360680E+01 3.8042261E+01 0.0000000E+00
endloop
endfacet
facet normal -7.0710678E-01 7.0710678E-01 0.0000000E+00
outer loop
vertex -2.3511410E+01 3.2360680E+01 0.0000000E+00
vertex -3.2360680E+01 2.3511410E+01 0.0000000E+00
vertex -3.2360680E+01 2.3511410E+01 1.0000000E+00
endloop
endfacet
facet normal -7.0710678E-01 7.0710678E-01 0.0000000E+00
outer loop
vertex -3.2360680E+01 2.3511410E+01 1.0000000E+00
vertex -2.3511410E+01 3.2360680E+01 1.0000000E+00
vertex -2.3511410E+01 3.2360680E+01 0.0000000E+00
endloop
endfacet
facet normal -8.9100652E-01 4.5399050E-01 0.0000000E+00
outer loop
vertex -3.2360680E+01 2.3511410E+01 0.0000000E+00
vertex -3.8042261E+01 1.2360680E+01 0.0000000E+00
vertex -3.8042261E+01 1.2360680E+01 1.0000000E+00
endloop
endfacet
facet normal -8.9100652E-01 4.5399050E-01 0.0000000E+00
outer loop
vertex -3.8042261E+01 1.2360680E+01 1.0000000E+00
vertex -3.2360680E+01 2.3511410E+01 1.0000000E+00
vertex -3.2360680E+01 2.3511410E+01 0.0000000E+00
endloop
endfacet
facet normal -9.8768834E-01 1.5643447E-01 0.0000000E+00
outer loop
vertex -3.8042261E+01 1.2360680E+01 0.0000000E+00
vertex -4.0000000E+01 4.8985872E-15 0.0000000E+00
vertex -4.0000000E+01 4.8985872E-15 1.0000000E+00
endloop
endfacet
facet normal -9.8768834E-01 1.5643447E-01 0.0000000E+00
outer loop
vertex -4.0000000E+01 4.8985872E-15 1.0000000E+00
vertex -3.8042261E+01 1.2360680E+01 1.0000000E+00
vertex -3.8042261E+01 1.2360680E+01 0.0000000E+00
endloop
endfacet
facet normal -9.8768834E-01 -1.5643447E-01 0.0000000E+00
outer loop
vertex -4.0000000E+01 4.8985872E-15 0.0000000E+00
vertex -3.8042261E+01 -1.2360680E+01 0.0000000E+00
vertex -3.8042261E+01 -1.2360680E+01 1.0000000E+00
endloop
endfacet
facet normal -9.8768834E-01 -1.5643447E-01 0.0000000E+00
outer loop
vertex -3.8042261E+01 -1.2360680E+01 1.0000000E+00
vertex -4.0000000E+01 4.8985872E-15 1.0000000E+00
vertex -4.0000000E+01 4.8985872E-15 0.0000000E+00
endloop
endfacet
facet normal -8.9100652E-01 -4.5399050E-01 0.0000000E+00
outer loop
vertex -3.8042261E+01 -1.2360680E+01 0.0000000E+00
vertex -3.2360680E+01 -2.3511410E+01 0.0000000E+00
vertex -3.2360680E+01 -2.3511410E+01 1.0000000E+00
endloop
endfacet
facet normal -8.9100652E-01 -4.5399050E-01 0.0000000E+00
outer loop
vertex -3.2360680E+01 -2.3511410E+01 1.0000000E+00
vertex -3.8042261E+01 -1.2360680E+01 1.0000000E+00
vertex -3.8042261E+01 -1.2360680E+01 0.0000000E+00
endloop
endfacet
facet normal -7.0710678E-01 -7.0710678E-01 0.0000000E+00
outer loop
vertex -3.2360680E+01 -2.3511410E+01 0.0000000E+00
vertex -2.3511410E+01 -3.2360680E+01 0.0000000E+00
vertex -2.3511410E+01 -3.2360680E+01 1.0000000E+00
endloop
endfacet
facet normal -7.0710678E-01 -7.0710678E-01 0.0000000E+00
outer loop
vertex -2.3511410E+01 -3.2360680E+01 1.0000000E+00
vertex -3.2360680E+01 -2.3511410E+01 1.0000000E+00
vertex -3.2360680E+01 -2.3511410E+01 0.0000000E+00
endloop
endfacet
facet normal -4.5399050E-01 -8.9100652E-01 0.0000000E+00
outer loop
vertex -2.3511410E+01 -3.2360680E+01 0.0000000E+00
vertex -1.2360680E+01 -3.8042261E+01 0.0000000E+00
vertex -1.2360680E+01 -3.8042261E+01 1.0000000E+00
endloop
endfacet
facet normal -4.5399050E-01 -8.9100652E-01 0.0000000E+00
outer loop
vertex -1.2360680E+01 -3.8042261E+01 1.0000000E+00
vertex -2.3511410E+01 -3.2360680E+01 1.0000000E+00
vertex -2.3511410E+01 -3.2360680E+01 0.0000000E+00
endloop
endfacet
facet normal -1.5643447E-01 -9.8768834E-01 0.0000000E+00
outer loop
vertex -1.2360680E+01 -3.8042261E+01 0.0000000E+00
vertex -7.3478808E-15 -4.0000000E+01 0.0000000E+00
vertex -7.3478808E-15 -4.0000000E+01 1.0000000E+00
endloop
endfacet
facet normal -1.5643447E-01 -9.8768834E-01 0.0000000E+00
outer loop
vertex -7.3478808E-15 -4.0000000E+01 1.0000000E+00
vertex -1.2360680E+01 -3.8042261E+01 1.0000000E+00
vertex -1.2360680E+01 -3.8042261E+01 0.0000000E+00
endloop
endfacet
facet normal 1.5643447E-01 -9.8768834E-01 0.0000000E+00
outer loop
vertex -7.3478808E-15 -4.0000000E+01 0.0000000E+00
vertex 1.2360680E+01 -3.8042261E+01 0.0000000E+00
vertex 1.2360680E+01 -3.8042261E+01 1.0000000E+00
endloop
endfacet
facet normal 1.5643447E-01 -9.8768834E-01 0.0000000E+00
outer loop
vertex 1.2360680E+01 -3.8042261E+01 1.0000000E+00
vertex -7.3478808E-15 -4.0000000E+01 1.0000000E+00
vertex -7.3478808E-15 -4.0000000E+01 0.0000000E+00
endloop
endfacet
facet normal 4.5399050E-01 -8.9100652E-01 0.0000000E+00
outer loop
vertex 1.2360680E+01 -3.8042261E+01 0.0000000E+00
vertex 2.3511410E+01 -3.2360680E+01 0.0000000E+00
vertex 2.3511410E+01 -3.2360680E+01 1.0000000E+00
endloop
endfacet
facet normal 4.5399050E-01 -8.9100652E-01 0.0000000E+00
outer loop
vertex 2.3511410E+01 -3.2360680E+01 1.0000000E+00
vertex 1.2360680E+01 -3.8042261E+01 1.0000000E+00
vertex 1.2360680E+01 -3.8042261E+01 0.0000000E+00
endloop
endfacet
facet normal 7.0710678E-01 -7.0710678E-01 0.0000000E+00
outer loop
vertex 2.3511410E+01 -3.2360680E+01 0.0000000E+00
vertex 3.2360680E+01 -2.3511410E+01 0.0000000E+00
vertex 3.2360680E+01 -2.3511410E+01 1.0000000E+00
endloop
endfacet
facet normal 7.0710678E-01 -7.0710678E-01 0.0000000E+00
outer loop
vertex 3.2360680E+01 -2.3511410E+01 1.0000000E+00
vertex 2.3511410E+01 -3.2360680E+01 1.0000000E+00
vertex 2.3511410E+01 -3.2360680E+01 0.0000000E+00
endloop
endfacet
facet normal 8.9100652E-01 -4.5399050E-01 0.0000000E+00
outer loop
vertex 3.2360680E+01 -2.3511410E+01 0.0000000E+00
vertex 3.8042261E+01 -1.2360680E+01 0.0000000E+00
vertex 3.8042261E+01 -1.2360680E+01 1.0000000E+00
endloop
endfacet
facet normal 8.9100652E-01 -4.5399050E-01 0.0000000E+00
outer loop
vertex 3.8042261E+01 -1.2360680E+01 1.0000000E+00
vertex 3.2360680E+01 -2.3511410E+01 1.0000000E+00
vertex 3.2360680E+01 -2.3511410E+01 0.0000000E+00
endloop
endfacet
facet normal 9.8768834E-01 -1.5643447E-01 0.0000000E+00
outer loop
vertex 3.8042261E+01 -1.2360680E+01 0.0000000E+00
vertex 4.0000000E+01 0.0000000E+00 0.0000000E+00
vertex 4.0000000E+01 0.0000000E+00 1.0000000E+00
endloop
endfacet
facet normal 9.8768834E-01 -1.5643447E-01 0.0000000E+00
outer loop
vertex 4.0000000E+01 0.0000000E+00 1.0000000E+00
vertex 3.8042261E+01 -1.2360680E+01 1.0000000E+00
vertex 3.8042261E+01 -1.2360680E+01 0.0000000E+00
endloop
endfacet
endsolid Created by surf2stl.m 04-Jan-2012 13:02:11
