solid Created by stlwrite.m 07-Jun-2019 02:36:59
facet normal 0.0000000E+00 0.0000000E+00 -9.9999994E-01
outer loop
vertex -6.8699998E-01 -4.4999998E-03 -8.9300001E-01
vertex -1.5300000E-01 -4.4999998E-03 -8.9300001E-01
vertex -6.8699998E-01 -1.1000000E-02 -8.9300001E-01
endloop
endfacet
facet normal 0.0000000E+00 -0.0000000E+00 -9.9999994E-01
outer loop
vertex -1.5300000E-01 -4.4999998E-03 -8.9300001E-01
vertex -1.5300000E-01 -1.1000000E-02 -8.9300001E-01
vertex -6.8699998E-01 -1.1000000E-02 -8.9300001E-01
endloop
endfacet
facet normal 0.0000000E+00 -1.0000000E+00 0.0000000E+00
outer loop
vertex -7.5300002E-01 -1.1000000E-02 -8.8115770E-01
vertex -6.8699998E-01 -1.1000000E-02 -8.9300001E-01
vertex -7.4415767E-01 -1.1000000E-02 -8.6584234E-01
endloop
endfacet
facet normal 0.0000000E+00 -1.0000000E+00 0.0000000E+00
outer loop
vertex -7.5300002E-01 -1.1000000E-02 -8.9884233E-01
vertex -6.8699998E-01 -1.1000000E-02 -8.9300001E-01
vertex -7.5300002E-01 -1.1000000E-02 -8.8115770E-01
endloop
endfacet
facet normal 0.0000000E+00 -1.0000000E+00 0.0000000E+00
outer loop
vertex -7.4415767E-01 -1.1000000E-02 -9.1415769E-01
vertex -6.8699998E-01 -1.1000000E-02 -8.9300001E-01
vertex -7.5300002E-01 -1.1000000E-02 -8.9884233E-01
endloop
endfacet
facet normal 0.0000000E+00 -1.0000000E+00 0.0000000E+00
outer loop
vertex -7.2884232E-01 -1.1000000E-02 -9.2299998E-01
vertex -6.8699998E-01 -1.1000000E-02 -8.9300001E-01
vertex -7.4415767E-01 -1.1000000E-02 -9.1415769E-01
endloop
endfacet
facet normal 0.0000000E+00 -9.9999994E-01 0.0000000E+00
outer loop
vertex -7.4415767E-01 -1.1000000E-02 -8.6584234E-01
vertex -6.8699998E-01 -1.1000000E-02 -8.9300001E-01
vertex -7.2884232E-01 -1.1000000E-02 -8.5699999E-01
endloop
endfacet
facet normal -0.0000000E+00 -1.0000000E+00 0.0000000E+00
outer loop
vertex -6.8699998E-01 -1.1000000E-02 -9.1299999E-01
vertex -6.8699998E-01 -1.1000000E-02 -8.9300001E-01
vertex -7.2884232E-01 -1.1000000E-02 -9.2299998E-01
endloop
endfacet
facet normal 0.0000000E+00 -1.0000000E+00 0.0000000E+00
outer loop
vertex -6.8699998E-01 -1.1000000E-02 -8.9300001E-01
vertex -7.1115768E-01 -1.1000000E-02 -8.5699999E-01
vertex -7.2884232E-01 -1.1000000E-02 -8.5699999E-01
endloop
endfacet
facet normal -0.0000000E+00 -1.0000000E+00 -0.0000000E+00
outer loop
vertex -6.8699998E-01 -1.1000000E-02 -8.8115770E-01
vertex -6.9584233E-01 -1.1000000E-02 -8.6584234E-01
vertex -6.8699998E-01 -1.1000000E-02 -8.8300002E-01
endloop
endfacet
facet normal 0.0000000E+00 -1.0000000E+00 0.0000000E+00
outer loop
vertex -6.8699998E-01 -1.1000000E-02 -8.9300001E-01
vertex -6.9584233E-01 -1.1000000E-02 -8.6584234E-01
vertex -7.1115768E-01 -1.1000000E-02 -8.5699999E-01
endloop
endfacet
facet normal -0.0000000E+00 -1.0000000E+00 -0.0000000E+00
outer loop
vertex -6.8699998E-01 -1.1000000E-02 -8.8300002E-01
vertex -6.9584233E-01 -1.1000000E-02 -8.6584234E-01
vertex -6.8699998E-01 -1.1000000E-02 -8.9300001E-01
endloop
endfacet
facet normal 0.0000000E+00 -1.0000000E+00 0.0000000E+00
outer loop
vertex -6.8699998E-01 -1.1000000E-02 -8.9300001E-01
vertex -1.5300000E-01 -1.1000000E-02 -8.9300001E-01
vertex -6.8699998E-01 -1.1000000E-02 -8.8300002E-01
endloop
endfacet
facet normal 0.0000000E+00 -1.0000000E+00 0.0000000E+00
outer loop
vertex -1.5300000E-01 -1.1000000E-02 -8.9300001E-01
vertex -1.5300000E-01 -1.1000000E-02 -8.8300002E-01
vertex -6.8699998E-01 -1.1000000E-02 -8.8300002E-01
endloop
endfacet
facet normal 0.0000000E+00 -9.9999994E-01 0.0000000E+00
outer loop
vertex -1.5300000E-01 -1.1000000E-02 -9.1299999E-01
vertex -1.1115800E-01 -1.1000000E-02 -9.2299998E-01
vertex -1.5300000E-01 -1.1000000E-02 -8.9300001E-01
endloop
endfacet
facet normal 0.0000000E+00 -1.0000000E+00 0.0000000E+00
outer loop
vertex -6.8699998E-01 -1.1000000E-02 -9.1299999E-01
vertex -1.1115800E-01 -1.1000000E-02 -9.2299998E-01
vertex -1.5300000E-01 -1.1000000E-02 -9.1299999E-01
endloop
endfacet
facet normal 0.0000000E+00 -1.0000000E+00 0.0000000E+00
outer loop
vertex -7.2884232E-01 -1.1000000E-02 -9.2299998E-01
vertex -1.1115800E-01 -1.1000000E-02 -9.2299998E-01
vertex -6.8699998E-01 -1.1000000E-02 -9.1299999E-01
endloop
endfacet
facet normal 0.0000000E+00 -1.0000000E+00 0.0000000E+00
outer loop
vertex -1.1115800E-01 -1.1000000E-02 -9.2299998E-01
vertex -9.5841996E-02 -1.1000000E-02 -9.1415769E-01
vertex -1.5300000E-01 -1.1000000E-02 -8.9300001E-01
endloop
endfacet
facet normal 0.0000000E+00 -1.0000000E+00 0.0000000E+00
outer loop
vertex -1.5300000E-01 -1.1000000E-02 -8.8300002E-01
vertex -1.4415801E-01 -1.1000000E-02 -8.6584234E-01
vertex -1.5300000E-01 -1.1000000E-02 -8.8115770E-01
endloop
endfacet
facet normal 0.0000000E+00 -9.9999994E-01 0.0000000E+00
outer loop
vertex -1.5300000E-01 -1.1000000E-02 -8.9300001E-01
vertex -1.4415801E-01 -1.1000000E-02 -8.6584234E-01
vertex -1.5300000E-01 -1.1000000E-02 -8.8300002E-01
endloop
endfacet
facet normal 0.0000000E+00 -9.9999994E-01 0.0000000E+00
outer loop
vertex -9.5841996E-02 -1.1000000E-02 -9.1415769E-01
vertex -8.6999997E-02 -1.1000000E-02 -8.9884233E-01
vertex -1.5300000E-01 -1.1000000E-02 -8.9300001E-01
endloop
endfacet
facet normal 0.0000000E+00 -9.9999994E-01 0.0000000E+00
outer loop
vertex -1.5300000E-01 -1.1000000E-02 -8.9300001E-01
vertex -1.2884200E-01 -1.1000000E-02 -8.5699999E-01
vertex -1.4415801E-01 -1.1000000E-02 -8.6584234E-01
endloop
endfacet
facet normal 0.0000000E+00 -1.0000000E+00 0.0000000E+00
outer loop
vertex -1.5300000E-01 -1.1000000E-02 -8.9300001E-01
vertex -1.1115800E-01 -1.1000000E-02 -8.5699999E-01
vertex -1.2884200E-01 -1.1000000E-02 -8.5699999E-01
endloop
endfacet
facet normal 0.0000000E+00 -1.0000000E+00 0.0000000E+00
outer loop
vertex -8.6999997E-02 -1.1000000E-02 -8.9884233E-01
vertex -8.6999997E-02 -1.1000000E-02 -8.8115770E-01
vertex -1.5300000E-01 -1.1000000E-02 -8.9300001E-01
endloop
endfacet
facet normal 0.0000000E+00 -1.0000000E+00 0.0000000E+00
outer loop
vertex -1.5300000E-01 -1.1000000E-02 -8.9300001E-01
vertex -9.5841996E-02 -1.1000000E-02 -8.6584234E-01
vertex -1.1115800E-01 -1.1000000E-02 -8.5699999E-01
endloop
endfacet
facet normal -0.0000000E+00 -1.0000000E+00 0.0000000E+00
outer loop
vertex -8.6999997E-02 -1.1000000E-02 -8.8115770E-01
vertex -9.5841996E-02 -1.1000000E-02 -8.6584234E-01
vertex -1.5300000E-01 -1.1000000E-02 -8.9300001E-01
endloop
endfacet
facet normal 0.0000000E+00 -1.0000000E+00 0.0000000E+00
outer loop
vertex -1.5300000E-01 -4.4999998E-03 -9.1299999E-01
vertex -1.5300000E-01 -4.4999998E-03 -8.9300001E-01
vertex -6.8699998E-01 -4.4999998E-03 -9.1299999E-01
endloop
endfacet
facet normal 0.0000000E+00 -1.0000000E+00 0.0000000E+00
outer loop
vertex -6.8699998E-01 -4.4999998E-03 -9.1299999E-01
vertex -1.5300000E-01 -4.4999998E-03 -8.9300001E-01
vertex -6.8699998E-01 -4.4999998E-03 -8.9300001E-01
endloop
endfacet
facet normal 1.0000000E+00 0.0000000E+00 0.0000000E+00
outer loop
vertex -6.8699998E-01 -4.4999998E-03 -8.9300001E-01
vertex -6.8699998E-01 -1.1000000E-02 -8.9300001E-01
vertex -6.8699998E-01 -4.4999998E-03 -9.1299999E-01
endloop
endfacet
facet normal 1.0000000E+00 0.0000000E+00 0.0000000E+00
outer loop
vertex -6.8699998E-01 -4.4999998E-03 -9.1299999E-01
vertex -6.8699998E-01 -1.1000000E-02 -8.9300001E-01
vertex -6.8699998E-01 -1.1000000E-02 -9.1299999E-01
endloop
endfacet
facet normal -1.0000000E+00 0.0000000E+00 0.0000000E+00
outer loop
vertex -1.5300000E-01 -4.4999998E-03 -9.1299999E-01
vertex -1.5300000E-01 -1.1000000E-02 -9.1299999E-01
vertex -1.5300000E-01 -4.4999998E-03 -8.9300001E-01
endloop
endfacet
facet normal -1.0000000E+00 -0.0000000E+00 0.0000000E+00
outer loop
vertex -1.5300000E-01 -4.4999998E-03 -8.9300001E-01
vertex -1.5300000E-01 -1.1000000E-02 -9.1299999E-01
vertex -1.5300000E-01 -1.1000000E-02 -8.9300001E-01
endloop
endfacet
facet normal 8.6602479E-01 0.0000000E+00 5.0000107E-01
outer loop
vertex -6.8699998E-01 1.1000000E-02 -8.8115770E-01
vertex -6.9584233E-01 1.1000000E-02 -8.6584234E-01
vertex -6.8699998E-01 -1.1000000E-02 -8.8115770E-01
endloop
endfacet
facet normal 8.6602479E-01 0.0000000E+00 5.0000107E-01
outer loop
vertex -6.9584233E-01 1.1000000E-02 -8.6584234E-01
vertex -6.9584233E-01 -1.1000000E-02 -8.6584234E-01
vertex -6.8699998E-01 -1.1000000E-02 -8.8115770E-01
endloop
endfacet
facet normal 0.0000000E+00 0.0000000E+00 1.0000000E+00
outer loop
vertex -1.1115800E-01 1.1000000E-02 -8.5699999E-01
vertex -1.2884200E-01 1.1000000E-02 -8.5699999E-01
vertex -1.2884200E-01 -1.1000000E-02 -8.5699999E-01
endloop
endfacet
facet normal 0.0000000E+00 0.0000000E+00 1.0000000E+00
outer loop
vertex -1.1115800E-01 1.1000000E-02 -8.5699999E-01
vertex -1.2884200E-01 -1.1000000E-02 -8.5699999E-01
vertex -1.1115800E-01 -1.1000000E-02 -8.5699999E-01
endloop
endfacet
facet normal 4.9998522E-01 0.0000000E+00 8.6603397E-01
outer loop
vertex -9.5841996E-02 1.1000000E-02 -8.6584234E-01
vertex -1.1115800E-01 1.1000000E-02 -8.5699999E-01
vertex -1.1115800E-01 -1.1000000E-02 -8.5699999E-01
endloop
endfacet
facet normal 4.9998522E-01 0.0000000E+00 8.6603397E-01
outer loop
vertex -9.5841996E-02 1.1000000E-02 -8.6584234E-01
vertex -1.1115800E-01 -1.1000000E-02 -8.5699999E-01
vertex -9.5841996E-02 -1.1000000E-02 -8.6584234E-01
endloop
endfacet
facet normal 0.0000000E+00 0.0000000E+00 9.9999994E-01
outer loop
vertex -1.5300000E-01 -4.4999998E-03 -9.1299999E-01
vertex -6.8699998E-01 -4.4999998E-03 -9.1299999E-01
vertex -1.5300000E-01 -1.1000000E-02 -9.1299999E-01
endloop
endfacet
facet normal 0.0000000E+00 0.0000000E+00 9.9999994E-01
outer loop
vertex -6.8699998E-01 -4.4999998E-03 -9.1299999E-01
vertex -6.8699998E-01 -1.1000000E-02 -9.1299999E-01
vertex -1.5300000E-01 -1.1000000E-02 -9.1299999E-01
endloop
endfacet
facet normal 8.6603343E-01 0.0000000E+00 4.9998626E-01
outer loop
vertex -8.6999997E-02 1.1000000E-02 -8.8115770E-01
vertex -9.5841996E-02 1.1000000E-02 -8.6584234E-01
vertex -8.6999997E-02 -1.1000000E-02 -8.8115770E-01
endloop
endfacet
facet normal 8.6603343E-01 0.0000000E+00 4.9998626E-01
outer loop
vertex -9.5841996E-02 1.1000000E-02 -8.6584234E-01
vertex -9.5841996E-02 -1.1000000E-02 -8.6584234E-01
vertex -8.6999997E-02 -1.1000000E-02 -8.8115770E-01
endloop
endfacet
facet normal 1.0000000E+00 0.0000000E+00 -0.0000000E+00
outer loop
vertex -8.6999997E-02 1.1000000E-02 -8.9884233E-01
vertex -8.6999997E-02 1.1000000E-02 -8.8115770E-01
vertex -8.6999997E-02 -1.1000000E-02 -8.8115770E-01
endloop
endfacet
facet normal 1.0000000E+00 0.0000000E+00 0.0000000E+00
outer loop
vertex -8.6999997E-02 1.1000000E-02 -8.9884233E-01
vertex -8.6999997E-02 -1.1000000E-02 -8.8115770E-01
vertex -8.6999997E-02 -1.1000000E-02 -8.9884233E-01
endloop
endfacet
facet normal -1.0000000E+00 -0.0000000E+00 -0.0000000E+00
outer loop
vertex -1.5300000E-01 1.1000000E-02 -8.8115770E-01
vertex -1.5300000E-01 1.1000000E-02 -8.8300002E-01
vertex -1.5300000E-01 -1.1000000E-02 -8.8115770E-01
endloop
endfacet
facet normal -1.0000000E+00 0.0000000E+00 0.0000000E+00
outer loop
vertex -1.5300000E-01 1.1000000E-02 -8.8300002E-01
vertex -1.5300000E-01 -1.1000000E-02 -8.8300002E-01
vertex -1.5300000E-01 -1.1000000E-02 -8.8115770E-01
endloop
endfacet
facet normal 5.0000107E-01 0.0000000E+00 8.6602479E-01
outer loop
vertex -6.9584233E-01 1.1000000E-02 -8.6584234E-01
vertex -7.1115768E-01 1.1000000E-02 -8.5699999E-01
vertex -6.9584233E-01 -1.1000000E-02 -8.6584234E-01
endloop
endfacet
facet normal 5.0000107E-01 0.0000000E+00 8.6602479E-01
outer loop
vertex -7.1115768E-01 1.1000000E-02 -8.5699999E-01
vertex -7.1115768E-01 -1.1000000E-02 -8.5699999E-01
vertex -6.9584233E-01 -1.1000000E-02 -8.6584234E-01
endloop
endfacet
facet normal -4.9998501E-01 0.0000000E+00 8.6603409E-01
outer loop
vertex -1.2884200E-01 1.1000000E-02 -8.5699999E-01
vertex -1.4415801E-01 1.1000000E-02 -8.6584234E-01
vertex -1.2884200E-01 -1.1000000E-02 -8.5699999E-01
endloop
endfacet
facet normal -4.9998501E-01 0.0000000E+00 8.6603409E-01
outer loop
vertex -1.4415801E-01 1.1000000E-02 -8.6584234E-01
vertex -1.4415801E-01 -1.1000000E-02 -8.6584234E-01
vertex -1.2884200E-01 -1.1000000E-02 -8.5699999E-01
endloop
endfacet
facet normal 4.9998268E-01 0.0000000E+00 -8.6603546E-01
outer loop
vertex -1.1115800E-01 1.1000000E-02 -9.2299998E-01
vertex -9.5841996E-02 1.1000000E-02 -9.1415769E-01
vertex -1.1115800E-01 -1.1000000E-02 -9.2299998E-01
endloop
endfacet
facet normal 4.9998268E-01 0.0000000E+00 -8.6603546E-01
outer loop
vertex -9.5841996E-02 1.1000000E-02 -9.1415769E-01
vertex -9.5841996E-02 -1.1000000E-02 -9.1415769E-01
vertex -1.1115800E-01 -1.1000000E-02 -9.2299998E-01
endloop
endfacet
facet normal 8.6603343E-01 0.0000000E+00 -4.9998626E-01
outer loop
vertex -9.5841996E-02 1.1000000E-02 -9.1415769E-01
vertex -8.6999997E-02 1.1000000E-02 -8.9884233E-01
vertex -9.5841996E-02 -1.1000000E-02 -9.1415769E-01
endloop
endfacet
facet normal 8.6603343E-01 0.0000000E+00 -4.9998626E-01
outer loop
vertex -8.6999997E-02 1.1000000E-02 -8.9884233E-01
vertex -8.6999997E-02 -1.1000000E-02 -8.9884233E-01
vertex -9.5841996E-02 -1.1000000E-02 -9.1415769E-01
endloop
endfacet
facet normal -1.0000000E+00 0.0000000E+00 -0.0000000E+00
outer loop
vertex -7.5300002E-01 1.1000000E-02 -8.8115770E-01
vertex -7.5300002E-01 1.1000000E-02 -8.9884233E-01
vertex -7.5300002E-01 -1.1000000E-02 -8.9884233E-01
endloop
endfacet
facet normal -1.0000000E+00 -0.0000000E+00 0.0000000E+00
outer loop
vertex -7.5300002E-01 1.1000000E-02 -8.8115770E-01
vertex -7.5300002E-01 -1.1000000E-02 -8.9884233E-01
vertex -7.5300002E-01 -1.1000000E-02 -8.8115770E-01
endloop
endfacet
facet normal 0.0000000E+00 0.0000000E+00 1.0000000E+00
outer loop
vertex -1.5300000E-01 1.1000000E-02 -8.8300002E-01
vertex -6.8699998E-01 1.1000000E-02 -8.8300002E-01
vertex -1.5300000E-01 -1.1000000E-02 -8.8300002E-01
endloop
endfacet
facet normal 0.0000000E+00 0.0000000E+00 1.0000000E+00
outer loop
vertex -6.8699998E-01 1.1000000E-02 -8.8300002E-01
vertex -6.8699998E-01 -1.1000000E-02 -8.8300002E-01
vertex -1.5300000E-01 -1.1000000E-02 -8.8300002E-01
endloop
endfacet
facet normal 0.0000000E+00 0.0000000E+00 1.0000000E+00
outer loop
vertex -7.1115768E-01 1.1000000E-02 -8.5699999E-01
vertex -7.2884232E-01 1.1000000E-02 -8.5699999E-01
vertex -7.1115768E-01 -1.1000000E-02 -8.5699999E-01
endloop
endfacet
facet normal 0.0000000E+00 0.0000000E+00 1.0000000E+00
outer loop
vertex -7.2884232E-01 1.1000000E-02 -8.5699999E-01
vertex -7.2884232E-01 -1.1000000E-02 -8.5699999E-01
vertex -7.1115768E-01 -1.1000000E-02 -8.5699999E-01
endloop
endfacet
facet normal -8.6602479E-01 0.0000000E+00 5.0000107E-01
outer loop
vertex -7.4415767E-01 1.1000000E-02 -8.6584234E-01
vertex -7.5300002E-01 1.1000000E-02 -8.8115770E-01
vertex -7.5300002E-01 -1.1000000E-02 -8.8115770E-01
endloop
endfacet
facet normal -8.6602479E-01 0.0000000E+00 5.0000107E-01
outer loop
vertex -7.4415767E-01 1.1000000E-02 -8.6584234E-01
vertex -7.5300002E-01 -1.1000000E-02 -8.8115770E-01
vertex -7.4415767E-01 -1.1000000E-02 -8.6584234E-01
endloop
endfacet
facet normal -5.0000107E-01 0.0000000E+00 8.6602479E-01
outer loop
vertex -7.2884232E-01 1.1000000E-02 -8.5699999E-01
vertex -7.4415767E-01 1.1000000E-02 -8.6584234E-01
vertex -7.2884232E-01 -1.1000000E-02 -8.5699999E-01
endloop
endfacet
facet normal -5.0000107E-01 0.0000000E+00 8.6602479E-01
outer loop
vertex -7.4415767E-01 1.1000000E-02 -8.6584234E-01
vertex -7.4415767E-01 -1.1000000E-02 -8.6584234E-01
vertex -7.2884232E-01 -1.1000000E-02 -8.5699999E-01
endloop
endfacet
facet normal -8.6603355E-01 0.0000000E+00 4.9998593E-01
outer loop
vertex -1.4415801E-01 1.1000000E-02 -8.6584234E-01
vertex -1.5300000E-01 1.1000000E-02 -8.8115770E-01
vertex -1.5300000E-01 -1.1000000E-02 -8.8115770E-01
endloop
endfacet
facet normal -8.6603355E-01 0.0000000E+00 4.9998593E-01
outer loop
vertex -1.4415801E-01 1.1000000E-02 -8.6584234E-01
vertex -1.5300000E-01 -1.1000000E-02 -8.8115770E-01
vertex -1.4415801E-01 -1.1000000E-02 -8.6584234E-01
endloop
endfacet
facet normal 0.0000000E+00 0.0000000E+00 -1.0000000E+00
outer loop
vertex -7.2884232E-01 1.1000000E-02 -9.2299998E-01
vertex -1.1115800E-01 1.1000000E-02 -9.2299998E-01
vertex -7.2884232E-01 -1.1000000E-02 -9.2299998E-01
endloop
endfacet
facet normal 0.0000000E+00 -0.0000000E+00 -1.0000000E+00
outer loop
vertex -1.1115800E-01 1.1000000E-02 -9.2299998E-01
vertex -1.1115800E-01 -1.1000000E-02 -9.2299998E-01
vertex -7.2884232E-01 -1.1000000E-02 -9.2299998E-01
endloop
endfacet
facet normal -4.9999857E-01 -0.0000000E+00 -8.6602628E-01
outer loop
vertex -7.4415767E-01 1.1000000E-02 -9.1415769E-01
vertex -7.2884232E-01 1.1000000E-02 -9.2299998E-01
vertex -7.4415767E-01 -1.1000000E-02 -9.1415769E-01
endloop
endfacet
facet normal -4.9999857E-01 -0.0000000E+00 -8.6602628E-01
outer loop
vertex -7.2884232E-01 1.1000000E-02 -9.2299998E-01
vertex -7.2884232E-01 -1.1000000E-02 -9.2299998E-01
vertex -7.4415767E-01 -1.1000000E-02 -9.1415769E-01
endloop
endfacet
facet normal -8.6602479E-01 -0.0000000E+00 -5.0000107E-01
outer loop
vertex -7.5300002E-01 1.1000000E-02 -8.9884233E-01
vertex -7.4415767E-01 1.1000000E-02 -9.1415769E-01
vertex -7.5300002E-01 -1.1000000E-02 -8.9884233E-01
endloop
endfacet
facet normal -8.6602479E-01 -0.0000000E+00 -5.0000107E-01
outer loop
vertex -7.4415767E-01 1.1000000E-02 -9.1415769E-01
vertex -7.4415767E-01 -1.1000000E-02 -9.1415769E-01
vertex -7.5300002E-01 -1.1000000E-02 -8.9884233E-01
endloop
endfacet
facet normal 1.0000000E+00 0.0000000E+00 -0.0000000E+00
outer loop
vertex -6.8699998E-01 1.1000000E-02 -8.8300002E-01
vertex -6.8699998E-01 1.1000000E-02 -8.8115770E-01
vertex -6.8699998E-01 -1.1000000E-02 -8.8300002E-01
endloop
endfacet
facet normal 1.0000000E+00 0.0000000E+00 0.0000000E+00
outer loop
vertex -6.8699998E-01 1.1000000E-02 -8.8115770E-01
vertex -6.8699998E-01 -1.1000000E-02 -8.8115770E-01
vertex -6.8699998E-01 -1.1000000E-02 -8.8300002E-01
endloop
endfacet
facet normal -0.0000000E+00 1.0000000E+00 0.0000000E+00
outer loop
vertex -7.5300002E-01 1.1000000E-02 -8.8115770E-01
vertex -7.4415767E-01 1.1000000E-02 -8.6584234E-01
vertex -6.8699998E-01 1.1000000E-02 -8.9300001E-01
endloop
endfacet
facet normal -0.0000000E+00 9.9999994E-01 0.0000000E+00
outer loop
vertex -7.4415767E-01 1.1000000E-02 -8.6584234E-01
vertex -7.2884232E-01 1.1000000E-02 -8.5699999E-01
vertex -6.8699998E-01 1.1000000E-02 -8.9300001E-01
endloop
endfacet
facet normal 0.0000000E+00 1.0000000E+00 -0.0000000E+00
outer loop
vertex -7.2884232E-01 1.1000000E-02 -9.2299998E-01
vertex -7.4415767E-01 1.1000000E-02 -9.1415769E-01
vertex -6.8699998E-01 1.1000000E-02 -8.9300001E-01
endloop
endfacet
facet normal 0.0000000E+00 1.0000000E+00 -0.0000000E+00
outer loop
vertex -7.4415767E-01 1.1000000E-02 -9.1415769E-01
vertex -7.5300002E-01 1.1000000E-02 -8.9884233E-01
vertex -6.8699998E-01 1.1000000E-02 -8.9300001E-01
endloop
endfacet
facet normal 0.0000000E+00 1.0000000E+00 0.0000000E+00
outer loop
vertex -7.5300002E-01 1.1000000E-02 -8.9884233E-01
vertex -7.5300002E-01 1.1000000E-02 -8.8115770E-01
vertex -6.8699998E-01 1.1000000E-02 -8.9300001E-01
endloop
endfacet
facet normal 0.0000000E+00 1.0000000E+00 -0.0000000E+00
outer loop
vertex -6.8699998E-01 1.1000000E-02 -9.1299999E-01
vertex -7.2884232E-01 1.1000000E-02 -9.2299998E-01
vertex -6.8699998E-01 1.1000000E-02 -8.9300001E-01
endloop
endfacet
facet normal 0.0000000E+00 1.0000000E+00 0.0000000E+00
outer loop
vertex -6.8699998E-01 1.1000000E-02 -8.9300001E-01
vertex -7.2884232E-01 1.1000000E-02 -8.5699999E-01
vertex -7.1115768E-01 1.1000000E-02 -8.5699999E-01
endloop
endfacet
facet normal 0.0000000E+00 1.0000000E+00 0.0000000E+00
outer loop
vertex -6.8699998E-01 1.1000000E-02 -8.8115770E-01
vertex -6.8699998E-01 1.1000000E-02 -8.8300002E-01
vertex -6.9584233E-01 1.1000000E-02 -8.6584234E-01
endloop
endfacet
facet normal 0.0000000E+00 1.0000000E+00 0.0000000E+00
outer loop
vertex -6.8699998E-01 1.1000000E-02 -8.9300001E-01
vertex -7.1115768E-01 1.1000000E-02 -8.5699999E-01
vertex -6.9584233E-01 1.1000000E-02 -8.6584234E-01
endloop
endfacet
facet normal 0.0000000E+00 1.0000000E+00 0.0000000E+00
outer loop
vertex -6.8699998E-01 1.1000000E-02 -8.8300002E-01
vertex -6.8699998E-01 1.1000000E-02 -8.9300001E-01
vertex -6.9584233E-01 1.1000000E-02 -8.6584234E-01
endloop
endfacet
facet normal 0.0000000E+00 1.0000000E+00 0.0000000E+00
outer loop
vertex -6.8699998E-01 1.1000000E-02 -8.9300001E-01
vertex -6.8699998E-01 1.1000000E-02 -8.8300002E-01
vertex -1.5300000E-01 1.1000000E-02 -8.9300001E-01
endloop
endfacet
facet normal 0.0000000E+00 1.0000000E+00 -0.0000000E+00
outer loop
vertex -1.5300000E-01 1.1000000E-02 -8.9300001E-01
vertex -6.8699998E-01 1.1000000E-02 -8.8300002E-01
vertex -1.5300000E-01 1.1000000E-02 -8.8300002E-01
endloop
endfacet
facet normal -0.0000000E+00 1.0000000E+00 0.0000000E+00
outer loop
vertex -6.8699998E-01 1.1000000E-02 -9.1299999E-01
vertex -1.5300000E-01 1.1000000E-02 -9.1299999E-01
vertex -1.1115800E-01 1.1000000E-02 -9.2299998E-01
endloop
endfacet
facet normal -0.0000000E+00 9.9999994E-01 0.0000000E+00
outer loop
vertex -1.5300000E-01 1.1000000E-02 -9.1299999E-01
vertex -1.5300000E-01 1.1000000E-02 -8.9300001E-01
vertex -1.1115800E-01 1.1000000E-02 -9.2299998E-01
endloop
endfacet
facet normal 0.0000000E+00 1.0000000E+00 0.0000000E+00
outer loop
vertex -7.2884232E-01 1.1000000E-02 -9.2299998E-01
vertex -6.8699998E-01 1.1000000E-02 -9.1299999E-01
vertex -1.1115800E-01 1.1000000E-02 -9.2299998E-01
endloop
endfacet
facet normal 0.0000000E+00 1.0000000E+00 -0.0000000E+00
outer loop
vertex -1.1115800E-01 1.1000000E-02 -9.2299998E-01
vertex -1.5300000E-01 1.1000000E-02 -8.9300001E-01
vertex -9.5841996E-02 1.1000000E-02 -9.1415769E-01
endloop
endfacet
facet normal 0.0000000E+00 1.0000000E+00 0.0000000E+00
outer loop
vertex -1.5300000E-01 1.1000000E-02 -8.8300002E-01
vertex -1.5300000E-01 1.1000000E-02 -8.8115770E-01
vertex -1.4415801E-01 1.1000000E-02 -8.6584234E-01
endloop
endfacet
facet normal 0.0000000E+00 9.9999994E-01 0.0000000E+00
outer loop
vertex -1.5300000E-01 1.1000000E-02 -8.9300001E-01
vertex -1.5300000E-01 1.1000000E-02 -8.8300002E-01
vertex -1.4415801E-01 1.1000000E-02 -8.6584234E-01
endloop
endfacet
facet normal 0.0000000E+00 9.9999994E-01 0.0000000E+00
outer loop
vertex -1.5300000E-01 1.1000000E-02 -8.9300001E-01
vertex -1.4415801E-01 1.1000000E-02 -8.6584234E-01
vertex -1.2884200E-01 1.1000000E-02 -8.5699999E-01
endloop
endfacet
facet normal 0.0000000E+00 9.9999994E-01 -0.0000000E+00
outer loop
vertex -9.5841996E-02 1.1000000E-02 -9.1415769E-01
vertex -1.5300000E-01 1.1000000E-02 -8.9300001E-01
vertex -8.6999997E-02 1.1000000E-02 -8.9884233E-01
endloop
endfacet
facet normal 0.0000000E+00 1.0000000E+00 0.0000000E+00
outer loop
vertex -1.5300000E-01 1.1000000E-02 -8.9300001E-01
vertex -1.2884200E-01 1.1000000E-02 -8.5699999E-01
vertex -1.1115800E-01 1.1000000E-02 -8.5699999E-01
endloop
endfacet
facet normal 0.0000000E+00 1.0000000E+00 -0.0000000E+00
outer loop
vertex -8.6999997E-02 1.1000000E-02 -8.9884233E-01
vertex -1.5300000E-01 1.1000000E-02 -8.9300001E-01
vertex -8.6999997E-02 1.1000000E-02 -8.8115770E-01
endloop
endfacet
facet normal 0.0000000E+00 1.0000000E+00 0.0000000E+00
outer loop
vertex -1.5300000E-01 1.1000000E-02 -8.9300001E-01
vertex -1.1115800E-01 1.1000000E-02 -8.5699999E-01
vertex -9.5841996E-02 1.1000000E-02 -8.6584234E-01
endloop
endfacet
facet normal 0.0000000E+00 1.0000000E+00 0.0000000E+00
outer loop
vertex -8.6999997E-02 1.1000000E-02 -8.8115770E-01
vertex -1.5300000E-01 1.1000000E-02 -8.9300001E-01
vertex -9.5841996E-02 1.1000000E-02 -8.6584234E-01
endloop
endfacet
facet normal 1.0000000E+00 0.0000000E+00 0.0000000E+00
outer loop
vertex -6.8699998E-01 1.1000000E-02 -8.9300001E-01
vertex -6.8699998E-01 4.4999998E-03 -8.9300001E-01
vertex -6.8699998E-01 1.1000000E-02 -9.1299999E-01
endloop
endfacet
facet normal 1.0000000E+00 0.0000000E+00 0.0000000E+00
outer loop
vertex -6.8699998E-01 1.1000000E-02 -9.1299999E-01
vertex -6.8699998E-01 4.4999998E-03 -8.9300001E-01
vertex -6.8699998E-01 4.4999998E-03 -9.1299999E-01
endloop
endfacet
facet normal 0.0000000E+00 0.0000000E+00 -9.9999994E-01
outer loop
vertex -6.8699998E-01 1.1000000E-02 -8.9300001E-01
vertex -1.5300000E-01 1.1000000E-02 -8.9300001E-01
vertex -6.8699998E-01 4.4999998E-03 -8.9300001E-01
endloop
endfacet
facet normal 0.0000000E+00 -0.0000000E+00 -9.9999994E-01
outer loop
vertex -1.5300000E-01 1.1000000E-02 -8.9300001E-01
vertex -1.5300000E-01 4.4999998E-03 -8.9300001E-01
vertex -6.8699998E-01 4.4999998E-03 -8.9300001E-01
endloop
endfacet
facet normal 0.0000000E+00 0.0000000E+00 9.9999994E-01
outer loop
vertex -1.5300000E-01 1.1000000E-02 -9.1299999E-01
vertex -6.8699998E-01 1.1000000E-02 -9.1299999E-01
vertex -1.5300000E-01 4.4999998E-03 -9.1299999E-01
endloop
endfacet
facet normal 0.0000000E+00 0.0000000E+00 9.9999994E-01
outer loop
vertex -6.8699998E-01 1.1000000E-02 -9.1299999E-01
vertex -6.8699998E-01 4.4999998E-03 -9.1299999E-01
vertex -1.5300000E-01 4.4999998E-03 -9.1299999E-01
endloop
endfacet
facet normal -1.0000000E+00 0.0000000E+00 0.0000000E+00
outer loop
vertex -1.5300000E-01 1.1000000E-02 -9.1299999E-01
vertex -1.5300000E-01 4.4999998E-03 -9.1299999E-01
vertex -1.5300000E-01 1.1000000E-02 -8.9300001E-01
endloop
endfacet
facet normal -1.0000000E+00 -0.0000000E+00 0.0000000E+00
outer loop
vertex -1.5300000E-01 1.1000000E-02 -8.9300001E-01
vertex -1.5300000E-01 4.4999998E-03 -9.1299999E-01
vertex -1.5300000E-01 4.4999998E-03 -8.9300001E-01
endloop
endfacet
facet normal 0.0000000E+00 1.0000000E+00 0.0000000E+00
outer loop
vertex -6.8699998E-01 4.4999998E-03 -9.1299999E-01
vertex -6.8699998E-01 4.4999998E-03 -8.9300001E-01
vertex -1.5300000E-01 4.4999998E-03 -9.1299999E-01
endloop
endfacet
facet normal 0.0000000E+00 1.0000000E+00 -0.0000000E+00
outer loop
vertex -1.5300000E-01 4.4999998E-03 -9.1299999E-01
vertex -6.8699998E-01 4.4999998E-03 -8.9300001E-01
vertex -1.5300000E-01 4.4999998E-03 -8.9300001E-01
endloop
endfacet
endsolid Created by stlwrite.m 07-Jun-2019 02:36:59
