solid Created by stlwrite.m 07-Jun-2019 02:36:59
facet normal -1.0000000E+00 0.0000000E+00 0.0000000E+00
outer loop
vertex -5.7637811E-01 -7.2590309E-01 -1.7250000E-02
vertex -5.7637811E-01 -7.2590309E-01 -1.5250000E-02
vertex -5.7637811E-01 -7.1250558E-01 -1.5250000E-02
endloop
endfacet
facet normal -1.0000000E+00 0.0000000E+00 0.0000000E+00
outer loop
vertex -5.7637811E-01 -7.1250558E-01 -1.7250000E-02
vertex -5.7637811E-01 -7.2590309E-01 -1.7250000E-02
vertex -5.7637811E-01 -7.1250558E-01 -1.5250000E-02
endloop
endfacet
facet normal 0.0000000E+00 0.0000000E+00 1.0000000E+00
outer loop
vertex -5.6967932E-01 -7.3750561E-01 -1.7250000E-02
vertex -5.7637811E-01 -7.2590309E-01 -1.7250000E-02
vertex -5.9653592E-01 -7.2200000E-01 -1.7250000E-02
endloop
endfacet
facet normal 0.0000000E+00 -0.0000000E+00 1.0000000E+00
outer loop
vertex -5.7637811E-01 -7.2590309E-01 -1.7250000E-02
vertex -5.7637811E-01 -7.1250558E-01 -1.7250000E-02
vertex -5.9653592E-01 -7.2200000E-01 -1.7250000E-02
endloop
endfacet
facet normal 0.0000000E+00 -0.0000000E+00 1.0000000E+00
outer loop
vertex -6.0351318E-01 -7.2200000E-01 -1.7250000E-02
vertex -5.9699488E-01 -6.6399997E-01 -1.7250000E-02
vertex -6.1905420E-01 -6.6399997E-01 -1.7250000E-02
endloop
endfacet
facet normal 0.0000000E+00 0.0000000E+00 9.9999994E-01
outer loop
vertex -5.9653592E-01 -7.2200000E-01 -1.7250000E-02
vertex -5.9699488E-01 -6.6399997E-01 -1.7250000E-02
vertex -6.0351318E-01 -7.2200000E-01 -1.7250000E-02
endloop
endfacet
facet normal 0.0000000E+00 0.0000000E+00 1.0000000E+00
outer loop
vertex -5.6967932E-01 -7.0090312E-01 -1.7250000E-02
vertex -5.9699488E-01 -6.6399997E-01 -1.7250000E-02
vertex -5.7637811E-01 -7.1250558E-01 -1.7250000E-02
endloop
endfacet
facet normal 0.0000000E+00 0.0000000E+00 1.0000000E+00
outer loop
vertex -5.7637811E-01 -7.1250558E-01 -1.7250000E-02
vertex -5.9699488E-01 -6.6399997E-01 -1.7250000E-02
vertex -5.9653592E-01 -7.2200000E-01 -1.7250000E-02
endloop
endfacet
facet normal 0.0000000E+00 -0.0000000E+00 1.0000000E+00
outer loop
vertex -5.6967932E-01 -7.0090312E-01 -1.7250000E-02
vertex -5.5807680E-01 -6.9420439E-01 -1.7250000E-02
vertex -5.9699488E-01 -6.6399997E-01 -1.7250000E-02
endloop
endfacet
facet normal 0.0000000E+00 -0.0000000E+00 1.0000000E+00
outer loop
vertex -5.5807680E-01 -6.9420439E-01 -1.7250000E-02
vertex -5.4467928E-01 -6.9420439E-01 -1.7250000E-02
vertex -5.9699488E-01 -6.6399997E-01 -1.7250000E-02
endloop
endfacet
facet normal 0.0000000E+00 0.0000000E+00 1.0000000E+00
outer loop
vertex -5.4330128E-01 -7.4500000E-01 -1.5250000E-02
vertex -5.3169870E-01 -7.3830128E-01 -1.5250000E-02
vertex -5.4084939E-01 -7.2915059E-01 -1.5250000E-02
endloop
endfacet
facet normal 0.0000000E+00 -0.0000000E+00 1.0000000E+00
outer loop
vertex -5.3169870E-01 -7.3830128E-01 -1.5250000E-02
vertex -5.2499998E-01 -7.2669870E-01 -1.5250000E-02
vertex -5.4084939E-01 -7.2915059E-01 -1.5250000E-02
endloop
endfacet
facet normal 0.0000000E+00 0.0000000E+00 1.0000000E+00
outer loop
vertex -5.4084939E-01 -7.2915059E-01 -1.5250000E-02
vertex -5.2499998E-01 -7.2669870E-01 -1.5250000E-02
vertex -5.3750002E-01 -7.2334939E-01 -1.5250000E-02
endloop
endfacet
facet normal 0.0000000E+00 -0.0000000E+00 9.9999994E-01
outer loop
vertex -5.4330128E-01 -7.4500000E-01 -1.5250000E-02
vertex -5.4084939E-01 -7.2915059E-01 -1.5250000E-02
vertex -5.4665059E-01 -7.3250002E-01 -1.5250000E-02
endloop
endfacet
facet normal 0.0000000E+00 0.0000000E+00 9.9999994E-01
outer loop
vertex -5.5669868E-01 -7.4500000E-01 -1.5250000E-02
vertex -5.4330128E-01 -7.4500000E-01 -1.5250000E-02
vertex -5.5334938E-01 -7.3250002E-01 -1.5250000E-02
endloop
endfacet
facet normal 0.0000000E+00 0.0000000E+00 1.0000000E+00
outer loop
vertex -5.4330128E-01 -7.4500000E-01 -1.5250000E-02
vertex -5.4665059E-01 -7.3250002E-01 -1.5250000E-02
vertex -5.5334938E-01 -7.3250002E-01 -1.5250000E-02
endloop
endfacet
facet normal 0.0000000E+00 -0.0000000E+00 1.0000000E+00
outer loop
vertex -5.2499998E-01 -7.2669870E-01 -1.5250000E-02
vertex -5.2499998E-01 -7.1330130E-01 -1.5250000E-02
vertex -5.3750002E-01 -7.1665061E-01 -1.5250000E-02
endloop
endfacet
facet normal -0.0000000E+00 0.0000000E+00 1.0000000E+00
outer loop
vertex -5.3750002E-01 -7.2334939E-01 -1.5250000E-02
vertex -5.2499998E-01 -7.2669870E-01 -1.5250000E-02
vertex -5.3750002E-01 -7.1665061E-01 -1.5250000E-02
endloop
endfacet
facet normal 0.0000000E+00 -0.0000000E+00 1.0000000E+00
outer loop
vertex -5.3750002E-01 -7.1665061E-01 -1.5250000E-02
vertex -5.2499998E-01 -7.1330130E-01 -1.5250000E-02
vertex -5.4084939E-01 -7.1084940E-01 -1.5250000E-02
endloop
endfacet
facet normal -0.0000000E+00 0.0000000E+00 1.0000000E+00
outer loop
vertex -5.4084939E-01 -7.1084940E-01 -1.5250000E-02
vertex -5.2499998E-01 -7.1330130E-01 -1.5250000E-02
vertex -5.3169870E-01 -7.0169872E-01 -1.5250000E-02
endloop
endfacet
facet normal 0.0000000E+00 -0.0000000E+00 9.9999994E-01
outer loop
vertex -5.5669868E-01 -7.4500000E-01 -1.5250000E-02
vertex -5.5334938E-01 -7.3250002E-01 -1.5250000E-02
vertex -5.5915058E-01 -7.2915059E-01 -1.5250000E-02
endloop
endfacet
facet normal 0.0000000E+00 0.0000000E+00 1.0000000E+00
outer loop
vertex -5.5669868E-01 -7.4500000E-01 -1.5250000E-02
vertex -5.5915058E-01 -7.2915059E-01 -1.5250000E-02
vertex -5.6967932E-01 -7.3750561E-01 -1.5250000E-02
endloop
endfacet
facet normal 0.0000000E+00 0.0000000E+00 1.0000000E+00
outer loop
vertex -5.6967932E-01 -7.3750561E-01 -1.5250000E-02
vertex -5.5915058E-01 -7.2915059E-01 -1.5250000E-02
vertex -5.6250000E-01 -7.2334939E-01 -1.5250000E-02
endloop
endfacet
facet normal 0.0000000E+00 -0.0000000E+00 1.0000000E+00
outer loop
vertex -5.4084939E-01 -7.1084940E-01 -1.5250000E-02
vertex -5.3169870E-01 -7.0169872E-01 -1.5250000E-02
vertex -5.4665059E-01 -7.0749998E-01 -1.5250000E-02
endloop
endfacet
facet normal 0.0000000E+00 -0.0000000E+00 1.0000000E+00
outer loop
vertex -5.6250000E-01 -7.2334939E-01 -1.5250000E-02
vertex -5.6250000E-01 -7.1665061E-01 -1.5250000E-02
vertex -5.7637811E-01 -7.2590309E-01 -1.5250000E-02
endloop
endfacet
facet normal 0.0000000E+00 -0.0000000E+00 1.0000000E+00
outer loop
vertex -5.6967932E-01 -7.3750561E-01 -1.5250000E-02
vertex -5.6250000E-01 -7.2334939E-01 -1.5250000E-02
vertex -5.7637811E-01 -7.2590309E-01 -1.5250000E-02
endloop
endfacet
facet normal 0.0000000E+00 0.0000000E+00 1.0000000E+00
outer loop
vertex -5.5334938E-01 -7.0749998E-01 -1.5250000E-02
vertex -5.4665059E-01 -7.0749998E-01 -1.5250000E-02
vertex -5.4467928E-01 -6.9420439E-01 -1.5250000E-02
endloop
endfacet
facet normal 0.0000000E+00 0.0000000E+00 1.0000000E+00
outer loop
vertex -5.4665059E-01 -7.0749998E-01 -1.5250000E-02
vertex -5.3169870E-01 -7.0169872E-01 -1.5250000E-02
vertex -5.4467928E-01 -6.9420439E-01 -1.5250000E-02
endloop
endfacet
facet normal 0.0000000E+00 0.0000000E+00 1.0000000E+00
outer loop
vertex -5.5915058E-01 -7.1084940E-01 -1.5250000E-02
vertex -5.5334938E-01 -7.0749998E-01 -1.5250000E-02
vertex -5.5807680E-01 -6.9420439E-01 -1.5250000E-02
endloop
endfacet
facet normal 0.0000000E+00 -0.0000000E+00 1.0000000E+00
outer loop
vertex -5.5334938E-01 -7.0749998E-01 -1.5250000E-02
vertex -5.4467928E-01 -6.9420439E-01 -1.5250000E-02
vertex -5.5807680E-01 -6.9420439E-01 -1.5250000E-02
endloop
endfacet
facet normal 0.0000000E+00 0.0000000E+00 1.0000000E+00
outer loop
vertex -5.7637811E-01 -7.2590309E-01 -1.5250000E-02
vertex -5.6250000E-01 -7.1665061E-01 -1.5250000E-02
vertex -5.7637811E-01 -7.1250558E-01 -1.5250000E-02
endloop
endfacet
facet normal 0.0000000E+00 -0.0000000E+00 9.9999994E-01
outer loop
vertex -5.6250000E-01 -7.1665061E-01 -1.5250000E-02
vertex -5.5915058E-01 -7.1084940E-01 -1.5250000E-02
vertex -5.6967932E-01 -7.0090312E-01 -1.5250000E-02
endloop
endfacet
facet normal 0.0000000E+00 -0.0000000E+00 1.0000000E+00
outer loop
vertex -5.5915058E-01 -7.1084940E-01 -1.5250000E-02
vertex -5.5807680E-01 -6.9420439E-01 -1.5250000E-02
vertex -5.6967932E-01 -7.0090312E-01 -1.5250000E-02
endloop
endfacet
facet normal -0.0000000E+00 0.0000000E+00 1.0000000E+00
outer loop
vertex -5.7637811E-01 -7.1250558E-01 -1.5250000E-02
vertex -5.6250000E-01 -7.1665061E-01 -1.5250000E-02
vertex -5.6967932E-01 -7.0090312E-01 -1.5250000E-02
endloop
endfacet
facet normal -8.6602211E-01 5.0000578E-01 0.0000000E+00
outer loop
vertex -5.7637811E-01 -7.1250558E-01 -1.7250000E-02
vertex -5.7637811E-01 -7.1250558E-01 -1.5250000E-02
vertex -5.6967932E-01 -7.0090312E-01 -1.5250000E-02
endloop
endfacet
facet normal -8.6602211E-01 5.0000578E-01 0.0000000E+00
outer loop
vertex -5.6967932E-01 -7.0090312E-01 -1.7250000E-02
vertex -5.7637811E-01 -7.1250558E-01 -1.7250000E-02
vertex -5.6967932E-01 -7.0090312E-01 -1.5250000E-02
endloop
endfacet
facet normal -8.6602324E-01 -5.0000387E-01 0.0000000E+00
outer loop
vertex -5.6967932E-01 -7.3750561E-01 -1.7250000E-02
vertex -5.6967932E-01 -7.3750561E-01 -1.5250000E-02
vertex -5.7637811E-01 -7.2590309E-01 -1.5250000E-02
endloop
endfacet
facet normal -8.6602324E-01 -5.0000387E-01 0.0000000E+00
outer loop
vertex -5.7637811E-01 -7.2590309E-01 -1.7250000E-02
vertex -5.6967932E-01 -7.3750561E-01 -1.7250000E-02
vertex -5.7637811E-01 -7.2590309E-01 -1.5250000E-02
endloop
endfacet
facet normal 8.7542611E-01 2.3456995E-01 4.2261827E-01
outer loop
vertex -6.1847860E-01 -7.2200000E-01 1.3750000E-02
vertex -6.1905420E-01 -6.6399997E-01 -1.7250000E-02
vertex -6.3401967E-01 -6.6399997E-01 1.3750000E-02
endloop
endfacet
facet normal 8.7542689E-01 2.3456925E-01 4.2261699E-01
outer loop
vertex -6.0351318E-01 -7.2200000E-01 -1.7250000E-02
vertex -6.1905420E-01 -6.6399997E-01 -1.7250000E-02
vertex -6.1847860E-01 -7.2200000E-01 1.3750000E-02
endloop
endfacet
facet normal -5.0000048E-01 8.6602503E-01 0.0000000E+00
outer loop
vertex -5.6967932E-01 -7.0090312E-01 -1.7250000E-02
vertex -5.6967932E-01 -7.0090312E-01 -1.5250000E-02
vertex -5.5807680E-01 -6.9420439E-01 -1.7250000E-02
endloop
endfacet
facet normal -5.0000048E-01 8.6602503E-01 0.0000000E+00
outer loop
vertex -5.5807680E-01 -6.9420439E-01 -1.7250000E-02
vertex -5.6967932E-01 -7.0090312E-01 -1.5250000E-02
vertex -5.5807680E-01 -6.9420439E-01 -1.5250000E-02
endloop
endfacet
facet normal 0.0000000E+00 1.0000000E+00 0.0000000E+00
outer loop
vertex -5.5807680E-01 -6.9420439E-01 -1.7250000E-02
vertex -5.5807680E-01 -6.9420439E-01 -1.5250000E-02
vertex -5.4467928E-01 -6.9420439E-01 -1.5250000E-02
endloop
endfacet
facet normal 0.0000000E+00 1.0000000E+00 -0.0000000E+00
outer loop
vertex -5.4467928E-01 -6.9420439E-01 -1.7250000E-02
vertex -5.5807680E-01 -6.9420439E-01 -1.7250000E-02
vertex -5.4467928E-01 -6.9420439E-01 -1.5250000E-02
endloop
endfacet
facet normal 0.0000000E+00 -1.0000000E+00 0.0000000E+00
outer loop
vertex -6.2628919E-01 -7.2200000E-01 -1.2750000E-02
vertex -6.4147443E-01 -7.2200000E-01 1.3750000E-02
vertex -6.4147443E-01 -7.2200000E-01 -1.2750000E-02
endloop
endfacet
facet normal 0.0000000E+00 -1.0000000E+00 0.0000000E+00
outer loop
vertex -6.1132377E-01 -7.2200000E-01 -4.3749999E-02
vertex -6.0351318E-01 -7.2200000E-01 -1.7250000E-02
vertex -6.2628919E-01 -7.2200000E-01 -1.2750000E-02
endloop
endfacet
facet normal 0.0000000E+00 -1.0000000E+00 0.0000000E+00
outer loop
vertex -5.9653592E-01 -7.2200000E-01 -4.3749999E-02
vertex -6.0351318E-01 -7.2200000E-01 -1.7250000E-02
vertex -6.1132377E-01 -7.2200000E-01 -4.3749999E-02
endloop
endfacet
facet normal 0.0000000E+00 -1.0000000E+00 0.0000000E+00
outer loop
vertex -5.9653592E-01 -7.2200000E-01 -4.3749999E-02
vertex -5.9653592E-01 -7.2200000E-01 -1.7250000E-02
vertex -6.0351318E-01 -7.2200000E-01 -1.7250000E-02
endloop
endfacet
facet normal 0.0000000E+00 -1.0000000E+00 0.0000000E+00
outer loop
vertex -6.2628919E-01 -7.2200000E-01 -1.2750000E-02
vertex -6.1847860E-01 -7.2200000E-01 1.3750000E-02
vertex -6.4147443E-01 -7.2200000E-01 1.3750000E-02
endloop
endfacet
facet normal 0.0000000E+00 -1.0000000E+00 0.0000000E+00
outer loop
vertex -6.0351318E-01 -7.2200000E-01 -1.7250000E-02
vertex -6.1847860E-01 -7.2200000E-01 1.3750000E-02
vertex -6.2628919E-01 -7.2200000E-01 -1.2750000E-02
endloop
endfacet
facet normal 0.0000000E+00 1.0000000E+00 -0.0000000E+00
outer loop
vertex -5.9699488E-01 -6.6399997E-01 -4.3749999E-02
vertex -6.1905420E-01 -6.6399997E-01 -1.7250000E-02
vertex -5.9699488E-01 -6.6399997E-01 -1.7250000E-02
endloop
endfacet
facet normal 0.0000000E+00 1.0000000E+00 0.0000000E+00
outer loop
vertex -6.2686479E-01 -6.6399997E-01 -4.3749999E-02
vertex -6.1905420E-01 -6.6399997E-01 -1.7250000E-02
vertex -5.9699488E-01 -6.6399997E-01 -4.3749999E-02
endloop
endfacet
facet normal 0.0000000E+00 1.0000000E+00 -0.0000000E+00
outer loop
vertex -6.2686479E-01 -6.6399997E-01 -4.3749999E-02
vertex -6.4183033E-01 -6.6399997E-01 -1.2750000E-02
vertex -6.1905420E-01 -6.6399997E-01 -1.7250000E-02
endloop
endfacet
facet normal -0.0000000E+00 1.0000000E+00 0.0000000E+00
outer loop
vertex -6.4183033E-01 -6.6399997E-01 -1.2750000E-02
vertex -6.3401967E-01 -6.6399997E-01 1.3750000E-02
vertex -6.1905420E-01 -6.6399997E-01 -1.7250000E-02
endloop
endfacet
facet normal 0.0000000E+00 1.0000000E+00 -0.0000000E+00
outer loop
vertex -6.4183033E-01 -6.6399997E-01 -1.2750000E-02
vertex -7.0499480E-01 -6.6399997E-01 -1.2750000E-02
vertex -6.3401967E-01 -6.6399997E-01 1.3750000E-02
endloop
endfacet
facet normal 0.0000000E+00 1.0000000E+00 -0.0000000E+00
outer loop
vertex -7.0499480E-01 -6.6399997E-01 -2.3750000E-02
vertex -7.3500520E-01 -6.6399997E-01 -2.3750000E-02
vertex -7.0499480E-01 -6.6399997E-01 -1.2750000E-02
endloop
endfacet
facet normal 0.0000000E+00 1.0000000E+00 0.0000000E+00
outer loop
vertex -7.3500520E-01 -6.6399997E-01 -2.3750000E-02
vertex -7.3500520E-01 -6.6399997E-01 1.3750000E-02
vertex -7.0499480E-01 -6.6399997E-01 -1.2750000E-02
endloop
endfacet
facet normal 0.0000000E+00 1.0000000E+00 -0.0000000E+00
outer loop
vertex -7.0499480E-01 -6.6399997E-01 -1.2750000E-02
vertex -7.3500520E-01 -6.6399997E-01 1.3750000E-02
vertex -6.3401967E-01 -6.6399997E-01 1.3750000E-02
endloop
endfacet
facet normal 4.9999943E-01 8.6602569E-01 -0.0000000E+00
outer loop
vertex -5.3169870E-01 -7.0169872E-01 -4.3749999E-02
vertex -5.4467928E-01 -6.9420439E-01 -1.7250000E-02
vertex -5.3169870E-01 -7.0169872E-01 -1.5250000E-02
endloop
endfacet
facet normal 4.9999943E-01 8.6602575E-01 -0.0000000E+00
outer loop
vertex -5.4467928E-01 -6.9420439E-01 -1.7250000E-02
vertex -5.4467928E-01 -6.9420439E-01 -1.5250000E-02
vertex -5.3169870E-01 -7.0169872E-01 -1.5250000E-02
endloop
endfacet
facet normal 4.9999988E-01 8.6602557E-01 2.3305974E-07
outer loop
vertex -5.3169870E-01 -7.0169872E-01 -4.3749999E-02
vertex -5.9699488E-01 -6.6399997E-01 -4.3749999E-02
vertex -5.4467928E-01 -6.9420439E-01 -1.7250000E-02
endloop
endfacet
facet normal 4.9999994E-01 8.6602545E-01 -0.0000000E+00
outer loop
vertex -5.9699488E-01 -6.6399997E-01 -4.3749999E-02
vertex -5.9699488E-01 -6.6399997E-01 -1.7250000E-02
vertex -5.4467928E-01 -6.9420439E-01 -1.7250000E-02
endloop
endfacet
facet normal -4.9999866E-01 -8.6602616E-01 0.0000000E+00
outer loop
vertex -5.9653592E-01 -7.2200000E-01 -4.3749999E-02
vertex -5.6967932E-01 -7.3750561E-01 -1.7250000E-02
vertex -5.9653592E-01 -7.2200000E-01 -1.7250000E-02
endloop
endfacet
facet normal -4.9999937E-01 -8.6602581E-01 8.8338004E-07
outer loop
vertex -5.5669868E-01 -7.4500000E-01 -4.3749999E-02
vertex -5.6967932E-01 -7.3750561E-01 -1.7250000E-02
vertex -5.9653592E-01 -7.2200000E-01 -4.3749999E-02
endloop
endfacet
facet normal -5.0000066E-01 -8.6602491E-01 0.0000000E+00
outer loop
vertex -5.6967932E-01 -7.3750561E-01 -1.7250000E-02
vertex -5.5669868E-01 -7.4500000E-01 -1.5250000E-02
vertex -5.6967932E-01 -7.3750561E-01 -1.5250000E-02
endloop
endfacet
facet normal -5.0000072E-01 -8.6602503E-01 0.0000000E+00
outer loop
vertex -5.5669868E-01 -7.4500000E-01 -4.3749999E-02
vertex -5.5669868E-01 -7.4500000E-01 -1.5250000E-02
vertex -5.6967932E-01 -7.3750561E-01 -1.7250000E-02
endloop
endfacet
facet normal 4.9999860E-01 -8.6602628E-01 0.0000000E+00
outer loop
vertex -5.4330128E-01 -7.4500000E-01 -4.3749999E-02
vertex -5.3169870E-01 -7.3830128E-01 -1.5250000E-02
vertex -5.4330128E-01 -7.4500000E-01 -1.5250000E-02
endloop
endfacet
facet normal 4.9999860E-01 -8.6602628E-01 0.0000000E+00
outer loop
vertex -5.3169870E-01 -7.3830128E-01 -4.3749999E-02
vertex -5.3169870E-01 -7.3830128E-01 -1.5250000E-02
vertex -5.4330128E-01 -7.4500000E-01 -4.3749999E-02
endloop
endfacet
facet normal 1.0000000E+00 0.0000000E+00 0.0000000E+00
outer loop
vertex -5.3750002E-01 -7.2334939E-01 -1.5250000E-02
vertex -5.3750002E-01 -7.1665061E-01 -1.5250000E-02
vertex -5.3750002E-01 -7.2334939E-01 1.3750000E-02
endloop
endfacet
facet normal 1.0000000E+00 0.0000000E+00 -0.0000000E+00
outer loop
vertex -5.3750002E-01 -7.1665061E-01 -1.5250000E-02
vertex -5.3750002E-01 -7.1665061E-01 1.3750000E-02
vertex -5.3750002E-01 -7.2334939E-01 1.3750000E-02
endloop
endfacet
facet normal -8.6601895E-01 -5.0001103E-01 0.0000000E+00
outer loop
vertex -5.6250000E-01 -7.2334939E-01 -1.5250000E-02
vertex -5.5915058E-01 -7.2915059E-01 -1.5250000E-02
vertex -5.5915058E-01 -7.2915059E-01 1.3750000E-02
endloop
endfacet
facet normal -8.6601895E-01 -5.0001103E-01 0.0000000E+00
outer loop
vertex -5.6250000E-01 -7.2334939E-01 -1.5250000E-02
vertex -5.5915058E-01 -7.2915059E-01 1.3750000E-02
vertex -5.6250000E-01 -7.2334939E-01 1.3750000E-02
endloop
endfacet
facet normal -8.6601895E-01 5.0001103E-01 0.0000000E+00
outer loop
vertex -5.5915058E-01 -7.1084940E-01 -1.5250000E-02
vertex -5.6250000E-01 -7.1665061E-01 -1.5250000E-02
vertex -5.6250000E-01 -7.1665061E-01 1.3750000E-02
endloop
endfacet
facet normal -8.6601895E-01 5.0001103E-01 0.0000000E+00
outer loop
vertex -5.5915058E-01 -7.1084940E-01 -1.5250000E-02
vertex -5.6250000E-01 -7.1665061E-01 1.3750000E-02
vertex -5.5915058E-01 -7.1084940E-01 1.3750000E-02
endloop
endfacet
facet normal -5.0001103E-01 -8.6601895E-01 0.0000000E+00
outer loop
vertex -5.5915058E-01 -7.2915059E-01 -1.5250000E-02
vertex -5.5334938E-01 -7.3250002E-01 -1.5250000E-02
vertex -5.5915058E-01 -7.2915059E-01 1.3750000E-02
endloop
endfacet
facet normal -5.0001103E-01 -8.6601895E-01 0.0000000E+00
outer loop
vertex -5.5334938E-01 -7.3250002E-01 -1.5250000E-02
vertex -5.5334938E-01 -7.3250002E-01 1.3750000E-02
vertex -5.5915058E-01 -7.2915059E-01 1.3750000E-02
endloop
endfacet
facet normal 0.0000000E+00 -1.0000000E+00 0.0000000E+00
outer loop
vertex -5.5334938E-01 -7.3250002E-01 -1.5250000E-02
vertex -5.4665059E-01 -7.3250002E-01 -1.5250000E-02
vertex -5.5334938E-01 -7.3250002E-01 1.3750000E-02
endloop
endfacet
facet normal 0.0000000E+00 -1.0000000E+00 0.0000000E+00
outer loop
vertex -5.4665059E-01 -7.3250002E-01 -1.5250000E-02
vertex -5.4665059E-01 -7.3250002E-01 1.3750000E-02
vertex -5.5334938E-01 -7.3250002E-01 1.3750000E-02
endloop
endfacet
facet normal 8.6602294E-01 -5.0000435E-01 0.0000000E+00
outer loop
vertex -5.4084939E-01 -7.2915059E-01 -1.5250000E-02
vertex -5.3750002E-01 -7.2334939E-01 -1.5250000E-02
vertex -5.3750002E-01 -7.2334939E-01 1.3750000E-02
endloop
endfacet
facet normal 8.6602294E-01 -5.0000435E-01 0.0000000E+00
outer loop
vertex -5.4084939E-01 -7.2915059E-01 -1.5250000E-02
vertex -5.3750002E-01 -7.2334939E-01 1.3750000E-02
vertex -5.4084939E-01 -7.2915059E-01 1.3750000E-02
endloop
endfacet
facet normal 0.0000000E+00 1.0000000E+00 -0.0000000E+00
outer loop
vertex -5.4665059E-01 -7.0749998E-01 -1.5250000E-02
vertex -5.5334938E-01 -7.0749998E-01 -1.5250000E-02
vertex -5.4665059E-01 -7.0749998E-01 1.3750000E-02
endloop
endfacet
facet normal 0.0000000E+00 1.0000000E+00 0.0000000E+00
outer loop
vertex -5.5334938E-01 -7.0749998E-01 -1.5250000E-02
vertex -5.5334938E-01 -7.0749998E-01 1.3750000E-02
vertex -5.4665059E-01 -7.0749998E-01 1.3750000E-02
endloop
endfacet
facet normal 1.0000000E+00 0.0000000E+00 0.0000000E+00
outer loop
vertex -5.2499998E-01 -7.2669870E-01 -4.3749999E-02
vertex -5.2499998E-01 -7.1330130E-01 -1.5250000E-02
vertex -5.2499998E-01 -7.2669870E-01 -1.5250000E-02
endloop
endfacet
facet normal 1.0000000E+00 0.0000000E+00 -0.0000000E+00
outer loop
vertex -5.2499998E-01 -7.1330130E-01 -4.3749999E-02
vertex -5.2499998E-01 -7.1330130E-01 -1.5250000E-02
vertex -5.2499998E-01 -7.2669870E-01 -4.3749999E-02
endloop
endfacet
facet normal -1.0000000E+00 0.0000000E+00 0.0000000E+00
outer loop
vertex -5.6250000E-01 -7.1665061E-01 -1.5250000E-02
vertex -5.6250000E-01 -7.2334939E-01 -1.5250000E-02
vertex -5.6250000E-01 -7.1665061E-01 1.3750000E-02
endloop
endfacet
facet normal -1.0000000E+00 0.0000000E+00 0.0000000E+00
outer loop
vertex -5.6250000E-01 -7.2334939E-01 -1.5250000E-02
vertex -5.6250000E-01 -7.2334939E-01 1.3750000E-02
vertex -5.6250000E-01 -7.1665061E-01 1.3750000E-02
endloop
endfacet
facet normal 5.0001103E-01 -8.6601895E-01 0.0000000E+00
outer loop
vertex -5.4665059E-01 -7.3250002E-01 -1.5250000E-02
vertex -5.4084939E-01 -7.2915059E-01 -1.5250000E-02
vertex -5.4665059E-01 -7.3250002E-01 1.3750000E-02
endloop
endfacet
facet normal 5.0001103E-01 -8.6601895E-01 0.0000000E+00
outer loop
vertex -5.4084939E-01 -7.2915059E-01 -1.5250000E-02
vertex -5.4084939E-01 -7.2915059E-01 1.3750000E-02
vertex -5.4665059E-01 -7.3250002E-01 1.3750000E-02
endloop
endfacet
facet normal 8.6602294E-01 5.0000435E-01 -0.0000000E+00
outer loop
vertex -5.3750002E-01 -7.1665061E-01 -1.5250000E-02
vertex -5.4084939E-01 -7.1084940E-01 -1.5250000E-02
vertex -5.3750002E-01 -7.1665061E-01 1.3750000E-02
endloop
endfacet
facet normal 8.6602294E-01 5.0000435E-01 -0.0000000E+00
outer loop
vertex -5.4084939E-01 -7.1084940E-01 -1.5250000E-02
vertex -5.4084939E-01 -7.1084940E-01 1.3750000E-02
vertex -5.3750002E-01 -7.1665061E-01 1.3750000E-02
endloop
endfacet
facet normal 8.6602628E-01 -4.9999860E-01 0.0000000E+00
outer loop
vertex -5.2499998E-01 -7.2669870E-01 -4.3749999E-02
vertex -5.3169870E-01 -7.3830128E-01 -1.5250000E-02
vertex -5.3169870E-01 -7.3830128E-01 -4.3749999E-02
endloop
endfacet
facet normal 8.6602628E-01 -4.9999860E-01 0.0000000E+00
outer loop
vertex -5.2499998E-01 -7.2669870E-01 -4.3749999E-02
vertex -5.2499998E-01 -7.2669870E-01 -1.5250000E-02
vertex -5.3169870E-01 -7.3830128E-01 -1.5250000E-02
endloop
endfacet
facet normal 0.0000000E+00 -1.0000000E+00 0.0000000E+00
outer loop
vertex -5.5669868E-01 -7.4500000E-01 -4.3749999E-02
vertex -5.4330128E-01 -7.4500000E-01 -1.5250000E-02
vertex -5.5669868E-01 -7.4500000E-01 -1.5250000E-02
endloop
endfacet
facet normal 0.0000000E+00 -1.0000000E+00 0.0000000E+00
outer loop
vertex -5.4330128E-01 -7.4500000E-01 -4.3749999E-02
vertex -5.4330128E-01 -7.4500000E-01 -1.5250000E-02
vertex -5.5669868E-01 -7.4500000E-01 -4.3749999E-02
endloop
endfacet
facet normal 5.0001103E-01 8.6601895E-01 -0.0000000E+00
outer loop
vertex -5.4084939E-01 -7.1084940E-01 -1.5250000E-02
vertex -5.4665059E-01 -7.0749998E-01 -1.5250000E-02
vertex -5.4084939E-01 -7.1084940E-01 1.3750000E-02
endloop
endfacet
facet normal 5.0001103E-01 8.6601895E-01 -0.0000000E+00
outer loop
vertex -5.4665059E-01 -7.0749998E-01 -1.5250000E-02
vertex -5.4665059E-01 -7.0749998E-01 1.3750000E-02
vertex -5.4084939E-01 -7.1084940E-01 1.3750000E-02
endloop
endfacet
facet normal 8.6602628E-01 4.9999860E-01 -0.0000000E+00
outer loop
vertex -5.2499998E-01 -7.1330130E-01 -4.3749999E-02
vertex -5.3169870E-01 -7.0169872E-01 -1.5250000E-02
vertex -5.2499998E-01 -7.1330130E-01 -1.5250000E-02
endloop
endfacet
facet normal 8.6602628E-01 4.9999860E-01 -0.0000000E+00
outer loop
vertex -5.3169870E-01 -7.0169872E-01 -4.3749999E-02
vertex -5.3169870E-01 -7.0169872E-01 -1.5250000E-02
vertex -5.2499998E-01 -7.1330130E-01 -4.3749999E-02
endloop
endfacet
facet normal -5.0001103E-01 8.6601895E-01 0.0000000E+00
outer loop
vertex -5.5334938E-01 -7.0749998E-01 -1.5250000E-02
vertex -5.5915058E-01 -7.1084940E-01 -1.5250000E-02
vertex -5.5334938E-01 -7.0749998E-01 1.3750000E-02
endloop
endfacet
facet normal -5.0001103E-01 8.6601895E-01 0.0000000E+00
outer loop
vertex -5.5915058E-01 -7.1084940E-01 -1.5250000E-02
vertex -5.5915058E-01 -7.1084940E-01 1.3750000E-02
vertex -5.5334938E-01 -7.0749998E-01 1.3750000E-02
endloop
endfacet
facet normal 0.0000000E+00 0.0000000E+00 9.9999994E-01
outer loop
vertex -7.6099479E-01 -7.6099479E-01 1.3750000E-02
vertex -7.7600002E-01 -7.0499480E-01 1.3750000E-02
vertex -7.7600002E-01 -7.3500520E-01 1.3750000E-02
endloop
endfacet
facet normal 0.0000000E+00 -0.0000000E+00 1.0000000E+00
outer loop
vertex -7.6099479E-01 -7.6099479E-01 1.3750000E-02
vertex -7.6099479E-01 -6.7900521E-01 1.3750000E-02
vertex -7.7600002E-01 -7.0499480E-01 1.3750000E-02
endloop
endfacet
facet normal 0.0000000E+00 -0.0000000E+00 9.9999994E-01
outer loop
vertex -7.0499480E-01 -7.7600002E-01 1.3750000E-02
vertex -6.7900509E-01 -7.6099479E-01 1.3750000E-02
vertex -7.3500520E-01 -7.7600002E-01 1.3750000E-02
endloop
endfacet
facet normal 0.0000000E+00 -0.0000000E+00 9.9999994E-01
outer loop
vertex -7.3500520E-01 -7.7600002E-01 1.3750000E-02
vertex -7.3500520E-01 -6.6399997E-01 1.3750000E-02
vertex -7.6099479E-01 -7.6099479E-01 1.3750000E-02
endloop
endfacet
facet normal 0.0000000E+00 0.0000000E+00 1.0000000E+00
outer loop
vertex -6.7900509E-01 -7.6099479E-01 1.3750000E-02
vertex -7.3500520E-01 -6.6399997E-01 1.3750000E-02
vertex -7.3500520E-01 -7.7600002E-01 1.3750000E-02
endloop
endfacet
facet normal 0.0000000E+00 0.0000000E+00 1.0000000E+00
outer loop
vertex -7.6099479E-01 -7.6099479E-01 1.3750000E-02
vertex -7.3500520E-01 -6.6399997E-01 1.3750000E-02
vertex -7.6099479E-01 -6.7900521E-01 1.3750000E-02
endloop
endfacet
facet normal 0.0000000E+00 -0.0000000E+00 9.9999994E-01
outer loop
vertex -6.7900509E-01 -7.6099479E-01 1.3750000E-02
vertex -6.6399997E-01 -7.3500520E-01 1.3750000E-02
vertex -7.3500520E-01 -6.6399997E-01 1.3750000E-02
endloop
endfacet
facet normal 0.0000000E+00 -0.0000000E+00 1.0000000E+00
outer loop
vertex -6.4147443E-01 -7.2200000E-01 1.3750000E-02
vertex -6.3401967E-01 -6.6399997E-01 1.3750000E-02
vertex -6.6399997E-01 -7.3500520E-01 1.3750000E-02
endloop
endfacet
facet normal 0.0000000E+00 0.0000000E+00 1.0000000E+00
outer loop
vertex -6.1847860E-01 -7.2200000E-01 1.3750000E-02
vertex -6.3401967E-01 -6.6399997E-01 1.3750000E-02
vertex -6.4147443E-01 -7.2200000E-01 1.3750000E-02
endloop
endfacet
facet normal 0.0000000E+00 -0.0000000E+00 1.0000000E+00
outer loop
vertex -6.6399997E-01 -7.3500520E-01 1.3750000E-02
vertex -6.3401967E-01 -6.6399997E-01 1.3750000E-02
vertex -7.3500520E-01 -6.6399997E-01 1.3750000E-02
endloop
endfacet
facet normal 0.0000000E+00 0.0000000E+00 -1.0000000E+00
outer loop
vertex -6.6399997E-01 -7.3500520E-01 -1.2750000E-02
vertex -6.6399997E-01 -7.0499480E-01 -1.2750000E-02
vertex -6.4147443E-01 -7.2200000E-01 -1.2750000E-02
endloop
endfacet
facet normal 0.0000000E+00 0.0000000E+00 -1.0000000E+00
outer loop
vertex -6.2628919E-01 -7.2200000E-01 -1.2750000E-02
vertex -6.4147443E-01 -7.2200000E-01 -1.2750000E-02
vertex -6.4183033E-01 -6.6399997E-01 -1.2750000E-02
endloop
endfacet
facet normal 0.0000000E+00 0.0000000E+00 -1.0000000E+00
outer loop
vertex -6.6399997E-01 -7.0499480E-01 -1.2750000E-02
vertex -6.7900509E-01 -6.7900521E-01 -1.2750000E-02
vertex -6.4183033E-01 -6.6399997E-01 -1.2750000E-02
endloop
endfacet
facet normal 0.0000000E+00 0.0000000E+00 -9.9999994E-01
outer loop
vertex -6.7900509E-01 -6.7900521E-01 -1.2750000E-02
vertex -7.0499480E-01 -6.6399997E-01 -1.2750000E-02
vertex -6.4183033E-01 -6.6399997E-01 -1.2750000E-02
endloop
endfacet
facet normal 0.0000000E+00 0.0000000E+00 -1.0000000E+00
outer loop
vertex -6.4147443E-01 -7.2200000E-01 -1.2750000E-02
vertex -6.6399997E-01 -7.0499480E-01 -1.2750000E-02
vertex -6.4183033E-01 -6.6399997E-01 -1.2750000E-02
endloop
endfacet
facet normal -8.7542689E-01 -2.3456927E-01 -4.2261699E-01
outer loop
vertex -6.2628919E-01 -7.2200000E-01 -1.2750000E-02
vertex -6.2686479E-01 -6.6399997E-01 -4.3749999E-02
vertex -6.1132377E-01 -7.2200000E-01 -4.3749999E-02
endloop
endfacet
facet normal -8.7542522E-01 -2.3457061E-01 -4.2261952E-01
outer loop
vertex -6.2628919E-01 -7.2200000E-01 -1.2750000E-02
vertex -6.4183033E-01 -6.6399997E-01 -1.2750000E-02
vertex -6.2686479E-01 -6.6399997E-01 -4.3749999E-02
endloop
endfacet
facet normal 0.0000000E+00 0.0000000E+00 -1.0000000E+00
outer loop
vertex -5.9653592E-01 -7.2200000E-01 -4.3749999E-02
vertex -6.1132377E-01 -7.2200000E-01 -4.3749999E-02
vertex -5.9699488E-01 -6.6399997E-01 -4.3749999E-02
endloop
endfacet
facet normal 0.0000000E+00 0.0000000E+00 -1.0000000E+00
outer loop
vertex -6.1132377E-01 -7.2200000E-01 -4.3749999E-02
vertex -6.2686479E-01 -6.6399997E-01 -4.3749999E-02
vertex -5.9699488E-01 -6.6399997E-01 -4.3749999E-02
endloop
endfacet
facet normal -0.0000000E+00 0.0000000E+00 -1.0000000E+00
outer loop
vertex -5.3169870E-01 -7.3830128E-01 -4.3749999E-02
vertex -5.4330128E-01 -7.4500000E-01 -4.3749999E-02
vertex -5.2499998E-01 -7.2669870E-01 -4.3749999E-02
endloop
endfacet
facet normal 0.0000000E+00 0.0000000E+00 -1.0000000E+00
outer loop
vertex -5.4330128E-01 -7.4500000E-01 -4.3749999E-02
vertex -5.5669868E-01 -7.4500000E-01 -4.3749999E-02
vertex -5.2499998E-01 -7.2669870E-01 -4.3749999E-02
endloop
endfacet
facet normal -0.0000000E+00 0.0000000E+00 -1.0000000E+00
outer loop
vertex -5.2499998E-01 -7.2669870E-01 -4.3749999E-02
vertex -5.5669868E-01 -7.4500000E-01 -4.3749999E-02
vertex -5.2499998E-01 -7.1330130E-01 -4.3749999E-02
endloop
endfacet
facet normal 0.0000000E+00 0.0000000E+00 -9.9999994E-01
outer loop
vertex -5.5669868E-01 -7.4500000E-01 -4.3749999E-02
vertex -5.9653592E-01 -7.2200000E-01 -4.3749999E-02
vertex -5.3169870E-01 -7.0169872E-01 -4.3749999E-02
endloop
endfacet
facet normal 0.0000000E+00 0.0000000E+00 -1.0000000E+00
outer loop
vertex -5.9653592E-01 -7.2200000E-01 -4.3749999E-02
vertex -5.9699488E-01 -6.6399997E-01 -4.3749999E-02
vertex -5.3169870E-01 -7.0169872E-01 -4.3749999E-02
endloop
endfacet
facet normal -0.0000000E+00 0.0000000E+00 -9.9999994E-01
outer loop
vertex -5.2499998E-01 -7.1330130E-01 -4.3749999E-02
vertex -5.5669868E-01 -7.4500000E-01 -4.3749999E-02
vertex -5.3169870E-01 -7.0169872E-01 -4.3749999E-02
endloop
endfacet
facet normal 5.0000191E-01 -8.6602432E-01 0.0000000E+00
outer loop
vertex -6.4147443E-01 -7.2200000E-01 -1.2750000E-02
vertex -6.4147443E-01 -7.2200000E-01 1.3750000E-02
vertex -6.6399997E-01 -7.3500520E-01 -1.2750000E-02
endloop
endfacet
facet normal 5.0000191E-01 -8.6602432E-01 0.0000000E+00
outer loop
vertex -6.6399997E-01 -7.3500520E-01 -1.2750000E-02
vertex -6.4147443E-01 -7.2200000E-01 1.3750000E-02
vertex -6.6399997E-01 -7.3500520E-01 1.3750000E-02
endloop
endfacet
facet normal 5.0000167E-01 8.6602449E-01 -0.0000000E+00
outer loop
vertex -6.7900509E-01 -6.7900521E-01 -2.3750000E-02
vertex -7.0499480E-01 -6.6399997E-01 -2.3750000E-02
vertex -6.7900509E-01 -6.7900521E-01 -1.2750000E-02
endloop
endfacet
facet normal 5.0000167E-01 8.6602449E-01 -0.0000000E+00
outer loop
vertex -7.0499480E-01 -6.6399997E-01 -2.3750000E-02
vertex -7.0499480E-01 -6.6399997E-01 -1.2750000E-02
vertex -6.7900509E-01 -6.7900521E-01 -1.2750000E-02
endloop
endfacet
facet normal -0.0000000E+00 0.0000000E+00 -1.0000000E+00
outer loop
vertex -6.7900509E-01 -7.6099479E-01 -2.3750000E-02
vertex -7.0499480E-01 -7.7600002E-01 -2.3750000E-02
vertex -6.8156731E-01 -7.5843269E-01 -2.3750000E-02
endloop
endfacet
facet normal 0.0000000E+00 0.0000000E+00 -1.0000000E+00
outer loop
vertex -6.8156731E-01 -7.5843269E-01 -2.3750000E-02
vertex -6.6399997E-01 -7.3500520E-01 -2.3750000E-02
vertex -6.7900509E-01 -7.6099479E-01 -2.3750000E-02
endloop
endfacet
facet normal 0.0000000E+00 0.0000000E+00 -9.9999994E-01
outer loop
vertex -7.0499480E-01 -7.7600002E-01 -2.3750000E-02
vertex -7.0593268E-01 -7.7249998E-01 -2.3750000E-02
vertex -6.8156731E-01 -7.5843269E-01 -2.3750000E-02
endloop
endfacet
facet normal 0.0000000E+00 0.0000000E+00 -9.9999994E-01
outer loop
vertex -6.8156731E-01 -7.5843269E-01 -2.3750000E-02
vertex -6.6750002E-01 -7.3406732E-01 -2.3750000E-02
vertex -6.6399997E-01 -7.3500520E-01 -2.3750000E-02
endloop
endfacet
facet normal 0.0000000E+00 0.0000000E+00 -1.0000000E+00
outer loop
vertex -6.6750002E-01 -7.3406732E-01 -2.3750000E-02
vertex -6.6399997E-01 -7.0499480E-01 -2.3750000E-02
vertex -6.6399997E-01 -7.3500520E-01 -2.3750000E-02
endloop
endfacet
facet normal 0.0000000E+00 0.0000000E+00 -1.0000000E+00
outer loop
vertex -7.3500520E-01 -7.7600002E-01 -2.3750000E-02
vertex -7.3406732E-01 -7.7249998E-01 -2.3750000E-02
vertex -7.0499480E-01 -7.7600002E-01 -2.3750000E-02
endloop
endfacet
facet normal 0.0000000E+00 0.0000000E+00 -1.0000000E+00
outer loop
vertex -7.0499480E-01 -7.7600002E-01 -2.3750000E-02
vertex -7.3406732E-01 -7.7249998E-01 -2.3750000E-02
vertex -7.0593268E-01 -7.7249998E-01 -2.3750000E-02
endloop
endfacet
facet normal 0.0000000E+00 0.0000000E+00 -1.0000000E+00
outer loop
vertex -6.6750002E-01 -7.3406732E-01 -2.3750000E-02
vertex -6.6750002E-01 -7.0593268E-01 -2.3750000E-02
vertex -6.6399997E-01 -7.0499480E-01 -2.3750000E-02
endloop
endfacet
facet normal 0.0000000E+00 0.0000000E+00 -9.9999994E-01
outer loop
vertex -7.3500520E-01 -7.7600002E-01 -2.3750000E-02
vertex -7.5843269E-01 -7.5843269E-01 -2.3750000E-02
vertex -7.3406732E-01 -7.7249998E-01 -2.3750000E-02
endloop
endfacet
facet normal 0.0000000E+00 0.0000000E+00 -1.0000000E+00
outer loop
vertex -7.3500520E-01 -7.7600002E-01 -2.3750000E-02
vertex -7.6099479E-01 -7.6099479E-01 -2.3750000E-02
vertex -7.5843269E-01 -7.5843269E-01 -2.3750000E-02
endloop
endfacet
facet normal 0.0000000E+00 0.0000000E+00 -9.9999994E-01
outer loop
vertex -6.6750002E-01 -7.0593268E-01 -2.3750000E-02
vertex -6.7900509E-01 -6.7900521E-01 -2.3750000E-02
vertex -6.6399997E-01 -7.0499480E-01 -2.3750000E-02
endloop
endfacet
facet normal 0.0000000E+00 0.0000000E+00 -1.0000000E+00
outer loop
vertex -6.6750002E-01 -7.0593268E-01 -2.3750000E-02
vertex -6.8156731E-01 -6.8156731E-01 -2.3750000E-02
vertex -6.7900509E-01 -6.7900521E-01 -2.3750000E-02
endloop
endfacet
facet normal 0.0000000E+00 0.0000000E+00 -1.0000000E+00
outer loop
vertex -7.0593268E-01 -6.6750002E-01 -2.3750000E-02
vertex -7.0499480E-01 -6.6399997E-01 -2.3750000E-02
vertex -6.8156731E-01 -6.8156731E-01 -2.3750000E-02
endloop
endfacet
facet normal 0.0000000E+00 0.0000000E+00 -1.0000000E+00
outer loop
vertex -6.8156731E-01 -6.8156731E-01 -2.3750000E-02
vertex -7.0499480E-01 -6.6399997E-01 -2.3750000E-02
vertex -6.7900509E-01 -6.7900521E-01 -2.3750000E-02
endloop
endfacet
facet normal 0.0000000E+00 0.0000000E+00 -9.9999994E-01
outer loop
vertex -7.5843269E-01 -7.5843269E-01 -2.3750000E-02
vertex -7.7600002E-01 -7.3500520E-01 -2.3750000E-02
vertex -7.7249998E-01 -7.3406732E-01 -2.3750000E-02
endloop
endfacet
facet normal 0.0000000E+00 0.0000000E+00 -1.0000000E+00
outer loop
vertex -7.6099479E-01 -7.6099479E-01 -2.3750000E-02
vertex -7.7600002E-01 -7.3500520E-01 -2.3750000E-02
vertex -7.5843269E-01 -7.5843269E-01 -2.3750000E-02
endloop
endfacet
facet normal 0.0000000E+00 0.0000000E+00 -1.0000000E+00
outer loop
vertex -7.7249998E-01 -7.3406732E-01 -2.3750000E-02
vertex -7.7600002E-01 -7.0499480E-01 -2.3750000E-02
vertex -7.7249998E-01 -7.0593268E-01 -2.3750000E-02
endloop
endfacet
facet normal 0.0000000E+00 0.0000000E+00 -1.0000000E+00
outer loop
vertex -7.7600002E-01 -7.3500520E-01 -2.3750000E-02
vertex -7.7600002E-01 -7.0499480E-01 -2.3750000E-02
vertex -7.7249998E-01 -7.3406732E-01 -2.3750000E-02
endloop
endfacet
facet normal 0.0000000E+00 0.0000000E+00 -1.0000000E+00
outer loop
vertex -7.3406732E-01 -6.6750002E-01 -2.3750000E-02
vertex -7.3500520E-01 -6.6399997E-01 -2.3750000E-02
vertex -7.0593268E-01 -6.6750002E-01 -2.3750000E-02
endloop
endfacet
facet normal 0.0000000E+00 0.0000000E+00 -1.0000000E+00
outer loop
vertex -7.0593268E-01 -6.6750002E-01 -2.3750000E-02
vertex -7.3500520E-01 -6.6399997E-01 -2.3750000E-02
vertex -7.0499480E-01 -6.6399997E-01 -2.3750000E-02
endloop
endfacet
facet normal 0.0000000E+00 0.0000000E+00 -9.9999994E-01
outer loop
vertex -7.7600002E-01 -7.0499480E-01 -2.3750000E-02
vertex -7.5843269E-01 -6.8156731E-01 -2.3750000E-02
vertex -7.7249998E-01 -7.0593268E-01 -2.3750000E-02
endloop
endfacet
facet normal 0.0000000E+00 0.0000000E+00 -9.9999994E-01
outer loop
vertex -7.5843269E-01 -6.8156731E-01 -2.3750000E-02
vertex -7.6099479E-01 -6.7900521E-01 -2.3750000E-02
vertex -7.3406732E-01 -6.6750002E-01 -2.3750000E-02
endloop
endfacet
facet normal 0.0000000E+00 0.0000000E+00 -1.0000000E+00
outer loop
vertex -7.7600002E-01 -7.0499480E-01 -2.3750000E-02
vertex -7.6099479E-01 -6.7900521E-01 -2.3750000E-02
vertex -7.5843269E-01 -6.8156731E-01 -2.3750000E-02
endloop
endfacet
facet normal -0.0000000E+00 0.0000000E+00 -1.0000000E+00
outer loop
vertex -7.3406732E-01 -6.6750002E-01 -2.3750000E-02
vertex -7.6099479E-01 -6.7900521E-01 -2.3750000E-02
vertex -7.3500520E-01 -6.6399997E-01 -2.3750000E-02
endloop
endfacet
facet normal -5.0000328E-01 8.6602342E-01 0.0000000E+00
outer loop
vertex -7.3500520E-01 -6.6399997E-01 -2.3750000E-02
vertex -7.6099479E-01 -6.7900521E-01 1.3750000E-02
vertex -7.3500520E-01 -6.6399997E-01 1.3750000E-02
endloop
endfacet
facet normal -5.0000328E-01 8.6602342E-01 0.0000000E+00
outer loop
vertex -7.6099479E-01 -6.7900521E-01 -2.3750000E-02
vertex -7.6099479E-01 -6.7900521E-01 1.3750000E-02
vertex -7.3500520E-01 -6.6399997E-01 -2.3750000E-02
endloop
endfacet
facet normal -0.0000000E+00 -0.0000000E+00 1.0000000E+00
outer loop
vertex -5.5915058E-01 -7.2915059E-01 1.3750000E-02
vertex -5.5334938E-01 -7.3250002E-01 1.3750000E-02
vertex -5.6250000E-01 -7.2334939E-01 1.3750000E-02
endloop
endfacet
facet normal 0.0000000E+00 0.0000000E+00 1.0000000E+00
outer loop
vertex -5.6250000E-01 -7.1665061E-01 1.3750000E-02
vertex -5.5334938E-01 -7.0749998E-01 1.3750000E-02
vertex -5.5915058E-01 -7.1084940E-01 1.3750000E-02
endloop
endfacet
facet normal 0.0000000E+00 0.0000000E+00 1.0000000E+00
outer loop
vertex -5.6250000E-01 -7.2334939E-01 1.3750000E-02
vertex -5.5334938E-01 -7.0749998E-01 1.3750000E-02
vertex -5.6250000E-01 -7.1665061E-01 1.3750000E-02
endloop
endfacet
facet normal 0.0000000E+00 -0.0000000E+00 1.0000000E+00
outer loop
vertex -5.5334938E-01 -7.3250002E-01 1.3750000E-02
vertex -5.5334938E-01 -7.0749998E-01 1.3750000E-02
vertex -5.6250000E-01 -7.2334939E-01 1.3750000E-02
endloop
endfacet
facet normal 0.0000000E+00 -0.0000000E+00 1.0000000E+00
outer loop
vertex -5.4084939E-01 -7.2915059E-01 1.3750000E-02
vertex -5.3750002E-01 -7.2334939E-01 1.3750000E-02
vertex -5.4665059E-01 -7.3250002E-01 1.3750000E-02
endloop
endfacet
facet normal 0.0000000E+00 -0.0000000E+00 1.0000000E+00
outer loop
vertex -5.4665059E-01 -7.3250002E-01 1.3750000E-02
vertex -5.4665059E-01 -7.0749998E-01 1.3750000E-02
vertex -5.5334938E-01 -7.3250002E-01 1.3750000E-02
endloop
endfacet
facet normal 0.0000000E+00 0.0000000E+00 1.0000000E+00
outer loop
vertex -5.5334938E-01 -7.3250002E-01 1.3750000E-02
vertex -5.4665059E-01 -7.0749998E-01 1.3750000E-02
vertex -5.5334938E-01 -7.0749998E-01 1.3750000E-02
endloop
endfacet
facet normal 0.0000000E+00 0.0000000E+00 1.0000000E+00
outer loop
vertex -5.3750002E-01 -7.1665061E-01 1.3750000E-02
vertex -5.4084939E-01 -7.1084940E-01 1.3750000E-02
vertex -5.3750002E-01 -7.2334939E-01 1.3750000E-02
endloop
endfacet
facet normal 0.0000000E+00 0.0000000E+00 1.0000000E+00
outer loop
vertex -5.4665059E-01 -7.3250002E-01 1.3750000E-02
vertex -5.4084939E-01 -7.1084940E-01 1.3750000E-02
vertex -5.4665059E-01 -7.0749998E-01 1.3750000E-02
endloop
endfacet
facet normal 0.0000000E+00 0.0000000E+00 9.9999994E-01
outer loop
vertex -5.3750002E-01 -7.2334939E-01 1.3750000E-02
vertex -5.4084939E-01 -7.1084940E-01 1.3750000E-02
vertex -5.4665059E-01 -7.3250002E-01 1.3750000E-02
endloop
endfacet
facet normal 0.0000000E+00 -1.0000000E+00 0.0000000E+00
outer loop
vertex -7.3500520E-01 -7.7600002E-01 -2.3750000E-02
vertex -7.0499480E-01 -7.7600002E-01 1.3750000E-02
vertex -7.3500520E-01 -7.7600002E-01 1.3750000E-02
endloop
endfacet
facet normal 0.0000000E+00 -1.0000000E+00 0.0000000E+00
outer loop
vertex -7.0499480E-01 -7.7600002E-01 -2.3750000E-02
vertex -7.0499480E-01 -7.7600002E-01 1.3750000E-02
vertex -7.3500520E-01 -7.7600002E-01 -2.3750000E-02
endloop
endfacet
facet normal -5.0000328E-01 -8.6602342E-01 0.0000000E+00
outer loop
vertex -7.6099479E-01 -7.6099479E-01 -2.3750000E-02
vertex -7.3500520E-01 -7.7600002E-01 1.3750000E-02
vertex -7.6099479E-01 -7.6099479E-01 1.3750000E-02
endloop
endfacet
facet normal -5.0000328E-01 -8.6602342E-01 0.0000000E+00
outer loop
vertex -7.3500520E-01 -7.7600002E-01 -2.3750000E-02
vertex -7.3500520E-01 -7.7600002E-01 1.3750000E-02
vertex -7.6099479E-01 -7.6099479E-01 -2.3750000E-02
endloop
endfacet
facet normal -8.6602342E-01 -5.0000328E-01 0.0000000E+00
outer loop
vertex -7.7600002E-01 -7.3500520E-01 -2.3750000E-02
vertex -7.6099479E-01 -7.6099479E-01 1.3750000E-02
vertex -7.7600002E-01 -7.3500520E-01 1.3750000E-02
endloop
endfacet
facet normal -8.6602342E-01 -5.0000328E-01 0.0000000E+00
outer loop
vertex -7.6099479E-01 -7.6099479E-01 -2.3750000E-02
vertex -7.6099479E-01 -7.6099479E-01 1.3750000E-02
vertex -7.7600002E-01 -7.3500520E-01 -2.3750000E-02
endloop
endfacet
facet normal -1.0000000E+00 0.0000000E+00 0.0000000E+00
outer loop
vertex -7.7600002E-01 -7.0499480E-01 -2.3750000E-02
vertex -7.7600002E-01 -7.3500520E-01 1.3750000E-02
vertex -7.7600002E-01 -7.0499480E-01 1.3750000E-02
endloop
endfacet
facet normal -1.0000000E+00 0.0000000E+00 0.0000000E+00
outer loop
vertex -7.7600002E-01 -7.3500520E-01 -2.3750000E-02
vertex -7.7600002E-01 -7.3500520E-01 1.3750000E-02
vertex -7.7600002E-01 -7.0499480E-01 -2.3750000E-02
endloop
endfacet
facet normal 8.6602515E-01 -5.0000030E-01 0.0000000E+00
outer loop
vertex -6.7900509E-01 -7.6099479E-01 -2.3750000E-02
vertex -6.6399997E-01 -7.3500520E-01 -1.2750000E-02
vertex -6.7900509E-01 -7.6099479E-01 1.3750000E-02
endloop
endfacet
facet normal 8.6602515E-01 -5.0000036E-01 0.0000000E+00
outer loop
vertex -6.6399997E-01 -7.3500520E-01 -2.3750000E-02
vertex -6.6399997E-01 -7.3500520E-01 -1.2750000E-02
vertex -6.7900509E-01 -7.6099479E-01 -2.3750000E-02
endloop
endfacet
facet normal 8.6602521E-01 -5.0000036E-01 0.0000000E+00
outer loop
vertex -6.6399997E-01 -7.3500520E-01 -1.2750000E-02
vertex -6.6399997E-01 -7.3500520E-01 1.3750000E-02
vertex -6.7900509E-01 -7.6099479E-01 1.3750000E-02
endloop
endfacet
facet normal 5.0000161E-01 -8.6602443E-01 0.0000000E+00
outer loop
vertex -7.0499480E-01 -7.7600002E-01 -2.3750000E-02
vertex -6.7900509E-01 -7.6099479E-01 1.3750000E-02
vertex -7.0499480E-01 -7.7600002E-01 1.3750000E-02
endloop
endfacet
facet normal 5.0000161E-01 -8.6602443E-01 0.0000000E+00
outer loop
vertex -6.7900509E-01 -7.6099479E-01 -2.3750000E-02
vertex -6.7900509E-01 -7.6099479E-01 1.3750000E-02
vertex -7.0499480E-01 -7.7600002E-01 -2.3750000E-02
endloop
endfacet
facet normal -8.6602342E-01 5.0000328E-01 0.0000000E+00
outer loop
vertex -7.6099479E-01 -6.7900521E-01 -2.3750000E-02
vertex -7.7600002E-01 -7.0499480E-01 1.3750000E-02
vertex -7.6099479E-01 -6.7900521E-01 1.3750000E-02
endloop
endfacet
facet normal -8.6602342E-01 5.0000328E-01 0.0000000E+00
outer loop
vertex -7.7600002E-01 -7.0499480E-01 -2.3750000E-02
vertex -7.7600002E-01 -7.0499480E-01 1.3750000E-02
vertex -7.6099479E-01 -6.7900521E-01 -2.3750000E-02
endloop
endfacet
facet normal 8.6602515E-01 5.0000036E-01 -0.0000000E+00
outer loop
vertex -6.6399997E-01 -7.0499480E-01 -2.3750000E-02
vertex -6.7900509E-01 -6.7900521E-01 -2.3750000E-02
vertex -6.6399997E-01 -7.0499480E-01 -1.2750000E-02
endloop
endfacet
facet normal 8.6602515E-01 5.0000036E-01 -0.0000000E+00
outer loop
vertex -6.7900509E-01 -6.7900521E-01 -2.3750000E-02
vertex -6.7900509E-01 -6.7900521E-01 -1.2750000E-02
vertex -6.6399997E-01 -7.0499480E-01 -1.2750000E-02
endloop
endfacet
facet normal 1.0000000E+00 0.0000000E+00 0.0000000E+00
outer loop
vertex -6.6399997E-01 -7.3500520E-01 -2.3750000E-02
vertex -6.6399997E-01 -7.0499480E-01 -2.3750000E-02
vertex -6.6399997E-01 -7.3500520E-01 -1.2750000E-02
endloop
endfacet
facet normal 1.0000000E+00 0.0000000E+00 -0.0000000E+00
outer loop
vertex -6.6399997E-01 -7.0499480E-01 -2.3750000E-02
vertex -6.6399997E-01 -7.0499480E-01 -1.2750000E-02
vertex -6.6399997E-01 -7.3500520E-01 -1.2750000E-02
endloop
endfacet
facet normal -8.6602634E-01 -4.9999845E-01 0.0000000E+00
outer loop
vertex -7.7249998E-01 -7.3406732E-01 -4.3749999E-02
vertex -7.5843269E-01 -7.5843269E-01 -4.3749999E-02
vertex -7.7249998E-01 -7.3406732E-01 -2.3750000E-02
endloop
endfacet
facet normal -8.6602634E-01 -4.9999845E-01 0.0000000E+00
outer loop
vertex -7.5843269E-01 -7.5843269E-01 -4.3749999E-02
vertex -7.5843269E-01 -7.5843269E-01 -2.3750000E-02
vertex -7.7249998E-01 -7.3406732E-01 -2.3750000E-02
endloop
endfacet
facet normal 1.0000000E+00 0.0000000E+00 0.0000000E+00
outer loop
vertex -6.6750002E-01 -7.3406732E-01 -4.3749999E-02
vertex -6.6750002E-01 -7.0593268E-01 -4.3749999E-02
vertex -6.6750002E-01 -7.3406732E-01 -2.3750000E-02
endloop
endfacet
facet normal 1.0000000E+00 0.0000000E+00 -0.0000000E+00
outer loop
vertex -6.6750002E-01 -7.0593268E-01 -4.3749999E-02
vertex -6.6750002E-01 -7.0593268E-01 -2.3750000E-02
vertex -6.6750002E-01 -7.3406732E-01 -2.3750000E-02
endloop
endfacet
facet normal 8.6602634E-01 -4.9999845E-01 0.0000000E+00
outer loop
vertex -6.8156731E-01 -7.5843269E-01 -4.3749999E-02
vertex -6.6750002E-01 -7.3406732E-01 -4.3749999E-02
vertex -6.8156731E-01 -7.5843269E-01 -2.3750000E-02
endloop
endfacet
facet normal 8.6602634E-01 -4.9999845E-01 0.0000000E+00
outer loop
vertex -6.6750002E-01 -7.3406732E-01 -4.3749999E-02
vertex -6.6750002E-01 -7.3406732E-01 -2.3750000E-02
vertex -6.8156731E-01 -7.5843269E-01 -2.3750000E-02
endloop
endfacet
facet normal 0.0000000E+00 -1.0000000E+00 0.0000000E+00
outer loop
vertex -7.3406732E-01 -7.7249998E-01 -4.3749999E-02
vertex -7.0593268E-01 -7.7249998E-01 -4.3749999E-02
vertex -7.3406732E-01 -7.7249998E-01 -2.3750000E-02
endloop
endfacet
facet normal 0.0000000E+00 -1.0000000E+00 0.0000000E+00
outer loop
vertex -7.0593268E-01 -7.7249998E-01 -4.3749999E-02
vertex -7.0593268E-01 -7.7249998E-01 -2.3750000E-02
vertex -7.3406732E-01 -7.7249998E-01 -2.3750000E-02
endloop
endfacet
facet normal 4.9999845E-01 -8.6602634E-01 0.0000000E+00
outer loop
vertex -7.0593268E-01 -7.7249998E-01 -4.3749999E-02
vertex -6.8156731E-01 -7.5843269E-01 -4.3749999E-02
vertex -7.0593268E-01 -7.7249998E-01 -2.3750000E-02
endloop
endfacet
facet normal 4.9999845E-01 -8.6602634E-01 0.0000000E+00
outer loop
vertex -6.8156731E-01 -7.5843269E-01 -4.3749999E-02
vertex -6.8156731E-01 -7.5843269E-01 -2.3750000E-02
vertex -7.0593268E-01 -7.7249998E-01 -2.3750000E-02
endloop
endfacet
facet normal -4.9999845E-01 -8.6602634E-01 0.0000000E+00
outer loop
vertex -7.5843269E-01 -7.5843269E-01 -4.3749999E-02
vertex -7.3406732E-01 -7.7249998E-01 -4.3749999E-02
vertex -7.5843269E-01 -7.5843269E-01 -2.3750000E-02
endloop
endfacet
facet normal -4.9999845E-01 -8.6602634E-01 0.0000000E+00
outer loop
vertex -7.3406732E-01 -7.7249998E-01 -4.3749999E-02
vertex -7.3406732E-01 -7.7249998E-01 -2.3750000E-02
vertex -7.5843269E-01 -7.5843269E-01 -2.3750000E-02
endloop
endfacet
facet normal -8.6602634E-01 4.9999845E-01 0.0000000E+00
outer loop
vertex -7.5843269E-01 -6.8156731E-01 -4.3749999E-02
vertex -7.7249998E-01 -7.0593268E-01 -4.3749999E-02
vertex -7.5843269E-01 -6.8156731E-01 -2.3750000E-02
endloop
endfacet
facet normal -8.6602634E-01 4.9999845E-01 0.0000000E+00
outer loop
vertex -7.7249998E-01 -7.0593268E-01 -4.3749999E-02
vertex -7.7249998E-01 -7.0593268E-01 -2.3750000E-02
vertex -7.5843269E-01 -6.8156731E-01 -2.3750000E-02
endloop
endfacet
facet normal 0.0000000E+00 1.0000000E+00 -0.0000000E+00
outer loop
vertex -7.0593268E-01 -6.6750002E-01 -4.3749999E-02
vertex -7.3406732E-01 -6.6750002E-01 -4.3749999E-02
vertex -7.0593268E-01 -6.6750002E-01 -2.3750000E-02
endloop
endfacet
facet normal 0.0000000E+00 1.0000000E+00 0.0000000E+00
outer loop
vertex -7.3406732E-01 -6.6750002E-01 -4.3749999E-02
vertex -7.3406732E-01 -6.6750002E-01 -2.3750000E-02
vertex -7.0593268E-01 -6.6750002E-01 -2.3750000E-02
endloop
endfacet
facet normal -4.9999845E-01 8.6602634E-01 0.0000000E+00
outer loop
vertex -7.3406732E-01 -6.6750002E-01 -4.3749999E-02
vertex -7.5843269E-01 -6.8156731E-01 -4.3749999E-02
vertex -7.3406732E-01 -6.6750002E-01 -2.3750000E-02
endloop
endfacet
facet normal -4.9999845E-01 8.6602634E-01 0.0000000E+00
outer loop
vertex -7.5843269E-01 -6.8156731E-01 -4.3749999E-02
vertex -7.5843269E-01 -6.8156731E-01 -2.3750000E-02
vertex -7.3406732E-01 -6.6750002E-01 -2.3750000E-02
endloop
endfacet
facet normal 4.9999845E-01 8.6602634E-01 -0.0000000E+00
outer loop
vertex -6.8156731E-01 -6.8156731E-01 -4.3749999E-02
vertex -7.0593268E-01 -6.6750002E-01 -4.3749999E-02
vertex -6.8156731E-01 -6.8156731E-01 -2.3750000E-02
endloop
endfacet
facet normal 4.9999845E-01 8.6602634E-01 -0.0000000E+00
outer loop
vertex -7.0593268E-01 -6.6750002E-01 -4.3749999E-02
vertex -7.0593268E-01 -6.6750002E-01 -2.3750000E-02
vertex -6.8156731E-01 -6.8156731E-01 -2.3750000E-02
endloop
endfacet
facet normal -1.0000000E+00 0.0000000E+00 0.0000000E+00
outer loop
vertex -7.7249998E-01 -7.0593268E-01 -4.3749999E-02
vertex -7.7249998E-01 -7.3406732E-01 -4.3749999E-02
vertex -7.7249998E-01 -7.0593268E-01 -2.3750000E-02
endloop
endfacet
facet normal -1.0000000E+00 0.0000000E+00 0.0000000E+00
outer loop
vertex -7.7249998E-01 -7.3406732E-01 -4.3749999E-02
vertex -7.7249998E-01 -7.3406732E-01 -2.3750000E-02
vertex -7.7249998E-01 -7.0593268E-01 -2.3750000E-02
endloop
endfacet
facet normal 8.6602634E-01 4.9999845E-01 -0.0000000E+00
outer loop
vertex -6.6750002E-01 -7.0593268E-01 -4.3749999E-02
vertex -6.8156731E-01 -6.8156731E-01 -4.3749999E-02
vertex -6.6750002E-01 -7.0593268E-01 -2.3750000E-02
endloop
endfacet
facet normal 8.6602634E-01 4.9999845E-01 -0.0000000E+00
outer loop
vertex -6.8156731E-01 -6.8156731E-01 -4.3749999E-02
vertex -6.8156731E-01 -6.8156731E-01 -2.3750000E-02
vertex -6.6750002E-01 -7.0593268E-01 -2.3750000E-02
endloop
endfacet
facet normal 0.0000000E+00 0.0000000E+00 -1.0000000E+00
outer loop
vertex -7.5843269E-01 -7.5843269E-01 -4.3749999E-02
vertex -7.7249998E-01 -7.3406732E-01 -4.3749999E-02
vertex -7.7249998E-01 -7.0593268E-01 -4.3749999E-02
endloop
endfacet
facet normal -0.0000000E+00 0.0000000E+00 -9.9999994E-01
outer loop
vertex -6.8156731E-01 -7.5843269E-01 -4.3749999E-02
vertex -7.0593268E-01 -7.7249998E-01 -4.3749999E-02
vertex -6.6750002E-01 -7.3406732E-01 -4.3749999E-02
endloop
endfacet
facet normal 0.0000000E+00 0.0000000E+00 -1.0000000E+00
outer loop
vertex -7.0593268E-01 -7.7249998E-01 -4.3749999E-02
vertex -7.3406732E-01 -7.7249998E-01 -4.3749999E-02
vertex -6.6750002E-01 -7.3406732E-01 -4.3749999E-02
endloop
endfacet
facet normal 0.0000000E+00 0.0000000E+00 -1.0000000E+00
outer loop
vertex -7.3406732E-01 -7.7249998E-01 -4.3749999E-02
vertex -7.5843269E-01 -7.5843269E-01 -4.3749999E-02
vertex -7.0593268E-01 -6.6750002E-01 -4.3749999E-02
endloop
endfacet
facet normal 0.0000000E+00 0.0000000E+00 -1.0000000E+00
outer loop
vertex -7.7249998E-01 -7.0593268E-01 -4.3749999E-02
vertex -7.5843269E-01 -6.8156731E-01 -4.3749999E-02
vertex -7.0593268E-01 -6.6750002E-01 -4.3749999E-02
endloop
endfacet
facet normal 0.0000000E+00 0.0000000E+00 -1.0000000E+00
outer loop
vertex -7.5843269E-01 -6.8156731E-01 -4.3749999E-02
vertex -7.3406732E-01 -6.6750002E-01 -4.3749999E-02
vertex -7.0593268E-01 -6.6750002E-01 -4.3749999E-02
endloop
endfacet
facet normal 0.0000000E+00 0.0000000E+00 -1.0000000E+00
outer loop
vertex -7.5843269E-01 -7.5843269E-01 -4.3749999E-02
vertex -7.7249998E-01 -7.0593268E-01 -4.3749999E-02
vertex -7.0593268E-01 -6.6750002E-01 -4.3749999E-02
endloop
endfacet
facet normal -0.0000000E+00 0.0000000E+00 -1.0000000E+00
outer loop
vertex -6.6750002E-01 -7.3406732E-01 -4.3749999E-02
vertex -7.3406732E-01 -7.7249998E-01 -4.3749999E-02
vertex -7.0593268E-01 -6.6750002E-01 -4.3749999E-02
endloop
endfacet
facet normal 0.0000000E+00 0.0000000E+00 -1.0000000E+00
outer loop
vertex -6.6750002E-01 -7.3406732E-01 -4.3749999E-02
vertex -7.0593268E-01 -6.6750002E-01 -4.3749999E-02
vertex -6.6750002E-01 -7.0593268E-01 -4.3749999E-02
endloop
endfacet
facet normal 0.0000000E+00 0.0000000E+00 -9.9999994E-01
outer loop
vertex -6.6750002E-01 -7.0593268E-01 -4.3749999E-02
vertex -7.0593268E-01 -6.6750002E-01 -4.3749999E-02
vertex -6.8156731E-01 -6.8156731E-01 -4.3749999E-02
endloop
endfacet
endsolid Created by stlwrite.m 07-Jun-2019 02:36:59
