solid Created by stlwrite.m 07-Jun-2019 02:36:58
facet normal 0.0000000E+00 1.0000000E+00 -0.0000000E+00
outer loop
vertex 4.9100001E-03 3.0999999E-02 5.5000000E-02
vertex -4.9100001E-03 3.0999999E-02 5.5000000E-02
vertex 4.9100001E-03 3.0999999E-02 5.6000002E-02
endloop
endfacet
facet normal 0.0000000E+00 1.0000000E+00 0.0000000E+00
outer loop
vertex -4.9100001E-03 3.0999999E-02 5.5000000E-02
vertex -4.9100001E-03 3.0999999E-02 5.6000002E-02
vertex 4.9100001E-03 3.0999999E-02 5.6000002E-02
endloop
endfacet
facet normal 3.0902180E-01 9.5105493E-01 -0.0000000E+00
outer loop
vertex 4.9100001E-03 3.0999999E-02 -5.6000002E-02
vertex 4.9100001E-03 3.0999999E-02 -5.5000000E-02
vertex 1.3945000E-02 2.8064299E-02 -5.5000000E-02
endloop
endfacet
facet normal 3.0902398E-01 9.5105428E-01 -2.1296786E-05
outer loop
vertex 1.4249000E-02 2.7965499E-02 -5.6000002E-02
vertex 4.9100001E-03 3.0999999E-02 -5.6000002E-02
vertex 1.3945000E-02 2.8064299E-02 -5.5000000E-02
endloop
endfacet
facet normal 3.0902180E-01 9.5105493E-01 -0.0000000E+00
outer loop
vertex 4.9100001E-03 3.0999999E-02 5.5000000E-02
vertex 4.9100001E-03 3.0999999E-02 5.6000002E-02
vertex 1.3945000E-02 2.8064299E-02 5.5000000E-02
endloop
endfacet
facet normal 3.0902392E-01 9.5105428E-01 2.1302572E-05
outer loop
vertex 1.3945000E-02 2.8064299E-02 5.5000000E-02
vertex 4.9100001E-03 3.0999999E-02 5.6000002E-02
vertex 1.4249000E-02 2.7965499E-02 5.6000002E-02
endloop
endfacet
facet normal 3.0908734E-01 9.5103377E-01 0.0000000E+00
outer loop
vertex 1.3945000E-02 2.8064299E-02 -5.5000000E-02
vertex 1.4249000E-02 2.7965499E-02 5.6000002E-02
vertex 1.4249000E-02 2.7965499E-02 -5.6000002E-02
endloop
endfacet
facet normal 3.0908734E-01 9.5103371E-01 0.0000000E+00
outer loop
vertex 1.3945000E-02 2.8064299E-02 5.5000000E-02
vertex 1.4249000E-02 2.7965499E-02 5.6000002E-02
vertex 1.3945000E-02 2.8064299E-02 -5.5000000E-02
endloop
endfacet
facet normal 0.0000000E+00 -0.0000000E+00 1.0000000E+00
outer loop
vertex 1.4249000E-02 -2.7965499E-02 5.6000002E-02
vertex 2.2194000E-02 -2.2193599E-02 5.6000002E-02
vertex 4.9100001E-03 -3.0999999E-02 5.6000002E-02
endloop
endfacet
facet normal 0.0000000E+00 0.0000000E+00 9.9999994E-01
outer loop
vertex 2.2194000E-02 -2.2193599E-02 5.6000002E-02
vertex 2.7966000E-02 -1.4249100E-02 5.6000002E-02
vertex 3.0999999E-02 -4.9099000E-03 5.6000002E-02
endloop
endfacet
facet normal 0.0000000E+00 0.0000000E+00 1.0000000E+00
outer loop
vertex 2.2194000E-02 -2.2193599E-02 5.6000002E-02
vertex 3.0999999E-02 -4.9099000E-03 5.6000002E-02
vertex 3.0999999E-02 4.9099000E-03 5.6000002E-02
endloop
endfacet
facet normal 0.0000000E+00 0.0000000E+00 9.9999994E-01
outer loop
vertex 3.0999999E-02 4.9099000E-03 5.6000002E-02
vertex 2.7966000E-02 1.4249100E-02 5.6000002E-02
vertex 2.2194000E-02 2.2193501E-02 5.6000002E-02
endloop
endfacet
facet normal 0.0000000E+00 0.0000000E+00 9.9999994E-01
outer loop
vertex 2.2194000E-02 -2.2193599E-02 5.6000002E-02
vertex 3.0999999E-02 4.9099000E-03 5.6000002E-02
vertex 2.2194000E-02 2.2193501E-02 5.6000002E-02
endloop
endfacet
facet normal -0.0000000E+00 -0.0000000E+00 1.0000000E+00
outer loop
vertex -2.2194000E-02 -2.2193599E-02 5.6000002E-02
vertex -1.4249000E-02 -2.7965499E-02 5.6000002E-02
vertex -2.7966000E-02 -1.4249100E-02 5.6000002E-02
endloop
endfacet
facet normal -0.0000000E+00 -0.0000000E+00 1.0000000E+00
outer loop
vertex -1.4249000E-02 -2.7965499E-02 5.6000002E-02
vertex -4.9100001E-03 -3.0999999E-02 5.6000002E-02
vertex -2.7966000E-02 -1.4249100E-02 5.6000002E-02
endloop
endfacet
facet normal 0.0000000E+00 -0.0000000E+00 1.0000000E+00
outer loop
vertex -4.9100001E-03 -3.0999999E-02 5.6000002E-02
vertex 4.9100001E-03 -3.0999999E-02 5.6000002E-02
vertex -2.7966000E-02 -1.4249100E-02 5.6000002E-02
endloop
endfacet
facet normal 0.0000000E+00 -0.0000000E+00 1.0000000E+00
outer loop
vertex 4.9100001E-03 -3.0999999E-02 5.6000002E-02
vertex 2.2194000E-02 -2.2193599E-02 5.6000002E-02
vertex -2.7966000E-02 -1.4249100E-02 5.6000002E-02
endloop
endfacet
facet normal 0.0000000E+00 -0.0000000E+00 9.9999994E-01
outer loop
vertex 2.2194000E-02 -2.2193599E-02 5.6000002E-02
vertex 2.2194000E-02 2.2193501E-02 5.6000002E-02
vertex -2.7966000E-02 -1.4249100E-02 5.6000002E-02
endloop
endfacet
facet normal 0.0000000E+00 0.0000000E+00 1.0000000E+00
outer loop
vertex -2.7966000E-02 -1.4249100E-02 5.6000002E-02
vertex 2.2194000E-02 2.2193501E-02 5.6000002E-02
vertex 1.4249000E-02 2.7965499E-02 5.6000002E-02
endloop
endfacet
facet normal -0.0000000E+00 0.0000000E+00 9.9999994E-01
outer loop
vertex -3.0999999E-02 -4.9099000E-03 5.6000002E-02
vertex -2.7966000E-02 -1.4249100E-02 5.6000002E-02
vertex -3.0999999E-02 4.9099000E-03 5.6000002E-02
endloop
endfacet
facet normal 0.0000000E+00 0.0000000E+00 1.0000000E+00
outer loop
vertex 1.4249000E-02 2.7965499E-02 5.6000002E-02
vertex 4.9100001E-03 3.0999999E-02 5.6000002E-02
vertex -1.4249000E-02 2.7965499E-02 5.6000002E-02
endloop
endfacet
facet normal 0.0000000E+00 0.0000000E+00 9.9999994E-01
outer loop
vertex 4.9100001E-03 3.0999999E-02 5.6000002E-02
vertex -4.9100001E-03 3.0999999E-02 5.6000002E-02
vertex -1.4249000E-02 2.7965499E-02 5.6000002E-02
endloop
endfacet
facet normal -0.0000000E+00 0.0000000E+00 9.9999994E-01
outer loop
vertex -2.7966000E-02 1.4249100E-02 5.6000002E-02
vertex -3.0999999E-02 4.9099000E-03 5.6000002E-02
vertex -2.2194000E-02 2.2193501E-02 5.6000002E-02
endloop
endfacet
facet normal 0.0000000E+00 0.0000000E+00 1.0000000E+00
outer loop
vertex -2.7966000E-02 -1.4249100E-02 5.6000002E-02
vertex 1.4249000E-02 2.7965499E-02 5.6000002E-02
vertex -2.2194000E-02 2.2193501E-02 5.6000002E-02
endloop
endfacet
facet normal 0.0000000E+00 0.0000000E+00 1.0000000E+00
outer loop
vertex 1.4249000E-02 2.7965499E-02 5.6000002E-02
vertex -1.4249000E-02 2.7965499E-02 5.6000002E-02
vertex -2.2194000E-02 2.2193501E-02 5.6000002E-02
endloop
endfacet
facet normal -0.0000000E+00 0.0000000E+00 9.9999994E-01
outer loop
vertex -3.0999999E-02 4.9099000E-03 5.6000002E-02
vertex -2.7966000E-02 -1.4249100E-02 5.6000002E-02
vertex -2.2194000E-02 2.2193501E-02 5.6000002E-02
endloop
endfacet
facet normal -3.0902398E-01 9.5105428E-01 0.0000000E+00
outer loop
vertex -4.9100001E-03 3.0999999E-02 5.5000000E-02
vertex -1.4249000E-02 2.7965499E-02 5.5000000E-02
vertex -4.9100001E-03 3.0999999E-02 5.6000002E-02
endloop
endfacet
facet normal -3.0902398E-01 9.5105428E-01 0.0000000E+00
outer loop
vertex -1.4249000E-02 2.7965499E-02 5.5000000E-02
vertex -1.4249000E-02 2.7965499E-02 5.6000002E-02
vertex -4.9100001E-03 3.0999999E-02 5.6000002E-02
endloop
endfacet
facet normal 0.0000000E+00 -0.0000000E+00 1.0000000E+00
outer loop
vertex -4.9896330E-01 5.1480699E-02 5.5000000E-02
vertex -1.4500000E-01 8.5000001E-02 5.5000000E-02
vertex -5.1981682E-01 8.0183104E-02 5.5000000E-02
endloop
endfacet
facet normal 0.0000000E+00 -0.0000000E+00 1.0000000E+00
outer loop
vertex -4.8800001E-01 1.7739100E-02 5.5000000E-02
vertex -1.4500000E-01 8.5000001E-02 5.5000000E-02
vertex -4.9896330E-01 5.1480699E-02 5.5000000E-02
endloop
endfacet
facet normal 0.0000000E+00 0.0000000E+00 1.0000000E+00
outer loop
vertex -4.8800001E-01 -1.7739100E-02 5.5000000E-02
vertex -1.4500000E-01 8.5000001E-02 5.5000000E-02
vertex -4.8800001E-01 1.7739100E-02 5.5000000E-02
endloop
endfacet
facet normal 0.0000000E+00 0.0000000E+00 1.0000000E+00
outer loop
vertex -4.8938450E-01 -2.2000000E-02 5.5000000E-02
vertex -1.4500000E-01 8.5000001E-02 5.5000000E-02
vertex -4.8800001E-01 -1.7739100E-02 5.5000000E-02
endloop
endfacet
facet normal 0.0000000E+00 0.0000000E+00 1.0000000E+00
outer loop
vertex -2.2334000E-02 -2.2000000E-02 5.5000000E-02
vertex -2.7966000E-02 -1.4249100E-02 5.5000000E-02
vertex -4.8938450E-01 -2.2000000E-02 5.5000000E-02
endloop
endfacet
facet normal 0.0000000E+00 0.0000000E+00 9.9999994E-01
outer loop
vertex -4.8938450E-01 -2.2000000E-02 5.5000000E-02
vertex -2.7966000E-02 -1.4249100E-02 5.5000000E-02
vertex -1.4500000E-01 8.5000001E-02 5.5000000E-02
endloop
endfacet
facet normal 0.0000000E+00 0.0000000E+00 9.9999994E-01
outer loop
vertex -2.7966000E-02 -1.4249100E-02 5.5000000E-02
vertex -3.0999999E-02 -4.9099000E-03 5.5000000E-02
vertex -1.4500000E-01 8.5000001E-02 5.5000000E-02
endloop
endfacet
facet normal 0.0000000E+00 -0.0000000E+00 1.0000000E+00
outer loop
vertex -3.0999999E-02 -4.9099000E-03 5.5000000E-02
vertex -3.0999999E-02 4.9099000E-03 5.5000000E-02
vertex -1.4500000E-01 8.5000001E-02 5.5000000E-02
endloop
endfacet
facet normal 0.0000000E+00 -0.0000000E+00 9.9999994E-01
outer loop
vertex -3.0999999E-02 4.9099000E-03 5.5000000E-02
vertex -2.7966000E-02 1.4249100E-02 5.5000000E-02
vertex -1.4500000E-01 8.5000001E-02 5.5000000E-02
endloop
endfacet
facet normal 0.0000000E+00 -0.0000000E+00 9.9999994E-01
outer loop
vertex -2.2194000E-02 2.2193501E-02 5.5000000E-02
vertex -1.8999999E-02 5.0999999E-02 5.5000000E-02
vertex -2.7966000E-02 1.4249100E-02 5.5000000E-02
endloop
endfacet
facet normal 0.0000000E+00 0.0000000E+00 1.0000000E+00
outer loop
vertex -1.4249000E-02 2.7965499E-02 5.5000000E-02
vertex -1.8999999E-02 5.0999999E-02 5.5000000E-02
vertex -2.2194000E-02 2.2193501E-02 5.5000000E-02
endloop
endfacet
facet normal 0.0000000E+00 0.0000000E+00 1.0000000E+00
outer loop
vertex -4.9100001E-03 3.0999999E-02 5.5000000E-02
vertex -1.8999999E-02 5.0999999E-02 5.5000000E-02
vertex -1.4249000E-02 2.7965499E-02 5.5000000E-02
endloop
endfacet
facet normal 0.0000000E+00 -0.0000000E+00 9.9999994E-01
outer loop
vertex -2.7966000E-02 1.4249100E-02 5.5000000E-02
vertex -1.8999999E-02 5.0999999E-02 5.5000000E-02
vertex -1.4500000E-01 8.5000001E-02 5.5000000E-02
endloop
endfacet
facet normal 0.0000000E+00 -0.0000000E+00 1.0000000E+00
outer loop
vertex -4.9100001E-03 3.0999999E-02 5.5000000E-02
vertex 4.9100001E-03 3.0999999E-02 5.5000000E-02
vertex -1.8999999E-02 5.0999999E-02 5.5000000E-02
endloop
endfacet
facet normal -0.0000000E+00 -0.0000000E+00 1.0000000E+00
outer loop
vertex 4.9100001E-03 3.0999999E-02 5.5000000E-02
vertex 1.3945000E-02 2.8064299E-02 5.5000000E-02
vertex -1.8999999E-02 5.0999999E-02 5.5000000E-02
endloop
endfacet
facet normal 0.0000000E+00 -0.0000000E+00 1.0000000E+00
outer loop
vertex -5.1981682E-01 8.0183104E-02 5.5000000E-02
vertex -1.4500000E-01 8.5000001E-02 5.5000000E-02
vertex -5.2644670E-01 8.5000001E-02 5.5000000E-02
endloop
endfacet
facet normal -0.0000000E+00 0.0000000E+00 -1.0000000E+00
outer loop
vertex 1.4249000E-02 -2.7965499E-02 -5.6000002E-02
vertex 4.9100001E-03 -3.0999999E-02 -5.6000002E-02
vertex 2.2194000E-02 -2.2193599E-02 -5.6000002E-02
endloop
endfacet
facet normal 0.0000000E+00 0.0000000E+00 -9.9999994E-01
outer loop
vertex 2.2194000E-02 -2.2193599E-02 -5.6000002E-02
vertex 3.0999999E-02 -4.9099000E-03 -5.6000002E-02
vertex 2.7966000E-02 -1.4249100E-02 -5.6000002E-02
endloop
endfacet
facet normal 0.0000000E+00 0.0000000E+00 -1.0000000E+00
outer loop
vertex 2.2194000E-02 -2.2193599E-02 -5.6000002E-02
vertex 3.0999999E-02 4.9099000E-03 -5.6000002E-02
vertex 3.0999999E-02 -4.9099000E-03 -5.6000002E-02
endloop
endfacet
facet normal 0.0000000E+00 0.0000000E+00 -9.9999994E-01
outer loop
vertex 3.0999999E-02 4.9099000E-03 -5.6000002E-02
vertex 2.2194000E-02 2.2193501E-02 -5.6000002E-02
vertex 2.7966000E-02 1.4249100E-02 -5.6000002E-02
endloop
endfacet
facet normal 0.0000000E+00 0.0000000E+00 -9.9999994E-01
outer loop
vertex 2.2194000E-02 -2.2193599E-02 -5.6000002E-02
vertex 2.2194000E-02 2.2193501E-02 -5.6000002E-02
vertex 3.0999999E-02 4.9099000E-03 -5.6000002E-02
endloop
endfacet
facet normal 0.0000000E+00 0.0000000E+00 -1.0000000E+00
outer loop
vertex -4.9100001E-03 -3.0999999E-02 -5.6000002E-02
vertex -2.7966000E-02 -1.4249100E-02 -5.6000002E-02
vertex 4.9100001E-03 -3.0999999E-02 -5.6000002E-02
endloop
endfacet
facet normal 0.0000000E+00 0.0000000E+00 -1.0000000E+00
outer loop
vertex -1.4249000E-02 -2.7965499E-02 -5.6000002E-02
vertex -2.7966000E-02 -1.4249100E-02 -5.6000002E-02
vertex -4.9100001E-03 -3.0999999E-02 -5.6000002E-02
endloop
endfacet
facet normal 0.0000000E+00 0.0000000E+00 -1.0000000E+00
outer loop
vertex -2.2194000E-02 -2.2193599E-02 -5.6000002E-02
vertex -2.7966000E-02 -1.4249100E-02 -5.6000002E-02
vertex -1.4249000E-02 -2.7965499E-02 -5.6000002E-02
endloop
endfacet
facet normal 0.0000000E+00 0.0000000E+00 -1.0000000E+00
outer loop
vertex 4.9100001E-03 -3.0999999E-02 -5.6000002E-02
vertex -2.7966000E-02 -1.4249100E-02 -5.6000002E-02
vertex 2.2194000E-02 -2.2193599E-02 -5.6000002E-02
endloop
endfacet
facet normal 0.0000000E+00 0.0000000E+00 -9.9999994E-01
outer loop
vertex 2.2194000E-02 -2.2193599E-02 -5.6000002E-02
vertex -2.7966000E-02 -1.4249100E-02 -5.6000002E-02
vertex 2.2194000E-02 2.2193501E-02 -5.6000002E-02
endloop
endfacet
facet normal 0.0000000E+00 0.0000000E+00 -1.0000000E+00
outer loop
vertex -2.7966000E-02 -1.4249100E-02 -5.6000002E-02
vertex 1.4249000E-02 2.7965499E-02 -5.6000002E-02
vertex 2.2194000E-02 2.2193501E-02 -5.6000002E-02
endloop
endfacet
facet normal 0.0000000E+00 0.0000000E+00 -9.9999994E-01
outer loop
vertex -3.0999999E-02 -4.9099000E-03 -5.6000002E-02
vertex -3.0999999E-02 4.9099000E-03 -5.6000002E-02
vertex -2.7966000E-02 -1.4249100E-02 -5.6000002E-02
endloop
endfacet
facet normal -0.0000000E+00 0.0000000E+00 -9.9999994E-01
outer loop
vertex 4.9100001E-03 3.0999999E-02 -5.6000002E-02
vertex -1.4249000E-02 2.7965499E-02 -5.6000002E-02
vertex -4.9100001E-03 3.0999999E-02 -5.6000002E-02
endloop
endfacet
facet normal 0.0000000E+00 0.0000000E+00 -1.0000000E+00
outer loop
vertex 1.4249000E-02 2.7965499E-02 -5.6000002E-02
vertex -1.4249000E-02 2.7965499E-02 -5.6000002E-02
vertex 4.9100001E-03 3.0999999E-02 -5.6000002E-02
endloop
endfacet
facet normal 0.0000000E+00 -0.0000000E+00 -9.9999994E-01
outer loop
vertex -2.7966000E-02 1.4249100E-02 -5.6000002E-02
vertex -2.2194000E-02 2.2193501E-02 -5.6000002E-02
vertex -3.0999999E-02 4.9099000E-03 -5.6000002E-02
endloop
endfacet
facet normal 0.0000000E+00 0.0000000E+00 -1.0000000E+00
outer loop
vertex -2.7966000E-02 -1.4249100E-02 -5.6000002E-02
vertex -2.2194000E-02 2.2193501E-02 -5.6000002E-02
vertex 1.4249000E-02 2.7965499E-02 -5.6000002E-02
endloop
endfacet
facet normal 0.0000000E+00 0.0000000E+00 -9.9999994E-01
outer loop
vertex -3.0999999E-02 4.9099000E-03 -5.6000002E-02
vertex -2.2194000E-02 2.2193501E-02 -5.6000002E-02
vertex -2.7966000E-02 -1.4249100E-02 -5.6000002E-02
endloop
endfacet
facet normal -0.0000000E+00 0.0000000E+00 -1.0000000E+00
outer loop
vertex 1.4249000E-02 2.7965499E-02 -5.6000002E-02
vertex -2.2194000E-02 2.2193501E-02 -5.6000002E-02
vertex -1.4249000E-02 2.7965499E-02 -5.6000002E-02
endloop
endfacet
facet normal 5.7135719E-01 8.2070142E-01 -0.0000000E+00
outer loop
vertex 1.3945000E-02 2.8064299E-02 -5.5000000E-02
vertex -1.8999999E-02 5.0999999E-02 -5.5000000E-02
vertex 1.3945000E-02 2.8064299E-02 5.5000000E-02
endloop
endfacet
facet normal 5.7135719E-01 8.2070142E-01 -0.0000000E+00
outer loop
vertex -1.8999999E-02 5.0999999E-02 -5.5000000E-02
vertex -1.8999999E-02 5.0999999E-02 5.5000000E-02
vertex 1.3945000E-02 2.8064299E-02 5.5000000E-02
endloop
endfacet
facet normal 0.0000000E+00 0.0000000E+00 -1.0000000E+00
outer loop
vertex -4.8800001E-01 -1.6000001E-02 -5.5000000E-02
vertex -4.8800001E-01 1.7739100E-02 -5.5000000E-02
vertex -3.7599999E-01 -1.6000001E-02 -5.5000000E-02
endloop
endfacet
facet normal 0.0000000E+00 0.0000000E+00 -1.0000000E+00
outer loop
vertex -4.8800001E-01 1.7739100E-02 -5.5000000E-02
vertex -4.9896330E-01 5.1480699E-02 -5.5000000E-02
vertex -3.7599999E-01 -1.6000001E-02 -5.5000000E-02
endloop
endfacet
facet normal 0.0000000E+00 0.0000000E+00 -1.0000000E+00
outer loop
vertex -4.9896330E-01 5.1480699E-02 -5.5000000E-02
vertex -5.1981682E-01 8.0183104E-02 -5.5000000E-02
vertex -3.7599999E-01 -1.6000001E-02 -5.5000000E-02
endloop
endfacet
facet normal 0.0000000E+00 0.0000000E+00 -1.0000000E+00
outer loop
vertex -3.7599999E-01 -2.2000000E-02 -5.5000000E-02
vertex -3.7599999E-01 -1.6000001E-02 -5.5000000E-02
vertex -1.4500000E-01 8.5000001E-02 -5.5000000E-02
endloop
endfacet
facet normal 0.0000000E+00 0.0000000E+00 -1.0000000E+00
outer loop
vertex -3.7599999E-01 -1.6000001E-02 -5.5000000E-02
vertex -5.1981682E-01 8.0183104E-02 -5.5000000E-02
vertex -1.4500000E-01 8.5000001E-02 -5.5000000E-02
endloop
endfacet
facet normal 0.0000000E+00 0.0000000E+00 -1.0000000E+00
outer loop
vertex -2.2334000E-02 -2.2000000E-02 -5.5000000E-02
vertex -3.7599999E-01 -2.2000000E-02 -5.5000000E-02
vertex -2.7966000E-02 -1.4249100E-02 -5.5000000E-02
endloop
endfacet
facet normal 0.0000000E+00 0.0000000E+00 -1.0000000E+00
outer loop
vertex -3.7599999E-01 -2.2000000E-02 -5.5000000E-02
vertex -1.4500000E-01 8.5000001E-02 -5.5000000E-02
vertex -2.7966000E-02 -1.4249100E-02 -5.5000000E-02
endloop
endfacet
facet normal 0.0000000E+00 0.0000000E+00 -9.9999994E-01
outer loop
vertex -2.7966000E-02 -1.4249100E-02 -5.5000000E-02
vertex -1.4500000E-01 8.5000001E-02 -5.5000000E-02
vertex -3.0999999E-02 -4.9099000E-03 -5.5000000E-02
endloop
endfacet
facet normal 0.0000000E+00 0.0000000E+00 -1.0000000E+00
outer loop
vertex -3.0999999E-02 -4.9099000E-03 -5.5000000E-02
vertex -1.4500000E-01 8.5000001E-02 -5.5000000E-02
vertex -3.0999999E-02 4.9099000E-03 -5.5000000E-02
endloop
endfacet
facet normal 0.0000000E+00 0.0000000E+00 -9.9999994E-01
outer loop
vertex -3.0999999E-02 4.9099000E-03 -5.5000000E-02
vertex -1.4500000E-01 8.5000001E-02 -5.5000000E-02
vertex -2.7966000E-02 1.4249100E-02 -5.5000000E-02
endloop
endfacet
facet normal -0.0000000E+00 0.0000000E+00 -1.0000000E+00
outer loop
vertex -4.9100001E-03 3.0999999E-02 -5.5000000E-02
vertex -1.4249000E-02 2.7965499E-02 -5.5000000E-02
vertex -1.8999999E-02 5.0999999E-02 -5.5000000E-02
endloop
endfacet
facet normal -0.0000000E+00 0.0000000E+00 -1.0000000E+00
outer loop
vertex -1.4249000E-02 2.7965499E-02 -5.5000000E-02
vertex -2.2194000E-02 2.2193501E-02 -5.5000000E-02
vertex -1.8999999E-02 5.0999999E-02 -5.5000000E-02
endloop
endfacet
facet normal -0.0000000E+00 0.0000000E+00 -9.9999994E-01
outer loop
vertex -2.2194000E-02 2.2193501E-02 -5.5000000E-02
vertex -2.7966000E-02 1.4249100E-02 -5.5000000E-02
vertex -1.8999999E-02 5.0999999E-02 -5.5000000E-02
endloop
endfacet
facet normal 0.0000000E+00 0.0000000E+00 -9.9999994E-01
outer loop
vertex -2.7966000E-02 1.4249100E-02 -5.5000000E-02
vertex -1.4500000E-01 8.5000001E-02 -5.5000000E-02
vertex -1.8999999E-02 5.0999999E-02 -5.5000000E-02
endloop
endfacet
facet normal 0.0000000E+00 0.0000000E+00 -1.0000000E+00
outer loop
vertex -4.9100001E-03 3.0999999E-02 -5.5000000E-02
vertex -1.8999999E-02 5.0999999E-02 -5.5000000E-02
vertex 4.9100001E-03 3.0999999E-02 -5.5000000E-02
endloop
endfacet
facet normal 0.0000000E+00 0.0000000E+00 -1.0000000E+00
outer loop
vertex 4.9100001E-03 3.0999999E-02 -5.5000000E-02
vertex -1.8999999E-02 5.0999999E-02 -5.5000000E-02
vertex 1.3945000E-02 2.8064299E-02 -5.5000000E-02
endloop
endfacet
facet normal 0.0000000E+00 0.0000000E+00 -1.0000000E+00
outer loop
vertex -5.1981682E-01 8.0183104E-02 -5.5000000E-02
vertex -5.2644670E-01 8.5000001E-02 -5.5000000E-02
vertex -1.4500000E-01 8.5000001E-02 -5.5000000E-02
endloop
endfacet
facet normal 0.0000000E+00 1.0000000E+00 0.0000000E+00
outer loop
vertex -4.9100001E-03 3.0999999E-02 -5.6000002E-02
vertex -4.9100001E-03 3.0999999E-02 -5.5000000E-02
vertex 4.9100001E-03 3.0999999E-02 -5.5000000E-02
endloop
endfacet
facet normal 0.0000000E+00 1.0000000E+00 -0.0000000E+00
outer loop
vertex 4.9100001E-03 3.0999999E-02 -5.6000002E-02
vertex -4.9100001E-03 3.0999999E-02 -5.6000002E-02
vertex 4.9100001E-03 3.0999999E-02 -5.5000000E-02
endloop
endfacet
facet normal 5.8775973E-01 8.0903548E-01 -0.0000000E+00
outer loop
vertex 2.2194000E-02 2.2193501E-02 -5.6000002E-02
vertex 1.4249000E-02 2.7965499E-02 -5.6000002E-02
vertex 2.2194000E-02 2.2193501E-02 5.6000002E-02
endloop
endfacet
facet normal 5.8775973E-01 8.0903548E-01 -0.0000000E+00
outer loop
vertex 1.4249000E-02 2.7965499E-02 -5.6000002E-02
vertex 1.4249000E-02 2.7965499E-02 5.6000002E-02
vertex 2.2194000E-02 2.2193501E-02 5.6000002E-02
endloop
endfacet
facet normal 8.0901432E-01 5.8778894E-01 0.0000000E+00
outer loop
vertex 2.7966000E-02 1.4249100E-02 -5.6000002E-02
vertex 2.2194000E-02 2.2193501E-02 -5.6000002E-02
vertex 2.2194000E-02 2.2193501E-02 5.6000002E-02
endloop
endfacet
facet normal 8.0901432E-01 5.8778894E-01 -0.0000000E+00
outer loop
vertex 2.7966000E-02 1.4249100E-02 -5.6000002E-02
vertex 2.2194000E-02 2.2193501E-02 5.6000002E-02
vertex 2.7966000E-02 1.4249100E-02 5.6000002E-02
endloop
endfacet
facet normal 0.0000000E+00 -1.0000000E+00 0.0000000E+00
outer loop
vertex -4.9100001E-03 -3.0999999E-02 -5.6000002E-02
vertex 4.9100001E-03 -3.0999999E-02 -5.6000002E-02
vertex 4.9100001E-03 -3.0999999E-02 5.6000002E-02
endloop
endfacet
facet normal 0.0000000E+00 -1.0000000E+00 0.0000000E+00
outer loop
vertex -4.9100001E-03 -3.0999999E-02 -5.6000002E-02
vertex 4.9100001E-03 -3.0999999E-02 5.6000002E-02
vertex -4.9100001E-03 -3.0999999E-02 5.6000002E-02
endloop
endfacet
facet normal 9.5107114E-01 3.0897176E-01 -0.0000000E+00
outer loop
vertex 3.0999999E-02 4.9099000E-03 -5.6000002E-02
vertex 2.7966000E-02 1.4249100E-02 -5.6000002E-02
vertex 3.0999999E-02 4.9099000E-03 5.6000002E-02
endloop
endfacet
facet normal 9.5107114E-01 3.0897176E-01 -0.0000000E+00
outer loop
vertex 2.7966000E-02 1.4249100E-02 -5.6000002E-02
vertex 2.7966000E-02 1.4249100E-02 5.6000002E-02
vertex 3.0999999E-02 4.9099000E-03 5.6000002E-02
endloop
endfacet
facet normal 5.8775324E-01 -8.0904031E-01 0.0000000E+00
outer loop
vertex 1.4249000E-02 -2.7965499E-02 -5.6000002E-02
vertex 2.2194000E-02 -2.2193599E-02 -5.6000002E-02
vertex 1.4249000E-02 -2.7965499E-02 5.6000002E-02
endloop
endfacet
facet normal 5.8775324E-01 -8.0904031E-01 0.0000000E+00
outer loop
vertex 2.2194000E-02 -2.2193599E-02 -5.6000002E-02
vertex 2.2194000E-02 -2.2193599E-02 5.6000002E-02
vertex 1.4249000E-02 -2.7965499E-02 5.6000002E-02
endloop
endfacet
facet normal -9.5107120E-01 -3.0897179E-01 0.0000000E+00
outer loop
vertex -3.0999999E-02 -4.9099000E-03 5.5000000E-02
vertex -2.7966000E-02 -1.4249100E-02 5.5000000E-02
vertex -3.0999999E-02 -4.9099000E-03 5.6000002E-02
endloop
endfacet
facet normal -9.5107120E-01 -3.0897179E-01 0.0000000E+00
outer loop
vertex -2.7966000E-02 -1.4249100E-02 5.5000000E-02
vertex -2.7966000E-02 -1.4249100E-02 5.6000002E-02
vertex -3.0999999E-02 -4.9099000E-03 5.6000002E-02
endloop
endfacet
facet normal -3.0902398E-01 -9.5105428E-01 0.0000000E+00
outer loop
vertex -1.4249000E-02 -2.7965499E-02 -5.6000002E-02
vertex -4.9100001E-03 -3.0999999E-02 -5.6000002E-02
vertex -1.4249000E-02 -2.7965499E-02 5.6000002E-02
endloop
endfacet
facet normal -3.0902398E-01 -9.5105428E-01 0.0000000E+00
outer loop
vertex -4.9100001E-03 -3.0999999E-02 -5.6000002E-02
vertex -4.9100001E-03 -3.0999999E-02 5.6000002E-02
vertex -1.4249000E-02 -2.7965499E-02 5.6000002E-02
endloop
endfacet
facet normal -8.0901766E-01 -5.8778405E-01 5.3218892E-04
outer loop
vertex -2.2194000E-02 -2.2193599E-02 -5.6000002E-02
vertex -2.2334000E-02 -2.2000000E-02 -5.5000000E-02
vertex -2.7966000E-02 -1.4249100E-02 -5.6000002E-02
endloop
endfacet
facet normal -8.0898517E-01 -5.8782911E-01 0.0000000E+00
outer loop
vertex -2.7966000E-02 -1.4249100E-02 -5.6000002E-02
vertex -2.2334000E-02 -2.2000000E-02 -5.5000000E-02
vertex -2.7966000E-02 -1.4249100E-02 -5.5000000E-02
endloop
endfacet
facet normal -8.0898517E-01 -5.8782911E-01 0.0000000E+00
outer loop
vertex -2.7966000E-02 -1.4249100E-02 5.5000000E-02
vertex -2.2334000E-02 -2.2000000E-02 5.5000000E-02
vertex -2.7966000E-02 -1.4249100E-02 5.6000002E-02
endloop
endfacet
facet normal -8.0901760E-01 -5.8778405E-01 -5.3218892E-04
outer loop
vertex -2.2334000E-02 -2.2000000E-02 5.5000000E-02
vertex -2.2194000E-02 -2.2193599E-02 5.6000002E-02
vertex -2.7966000E-02 -1.4249100E-02 5.6000002E-02
endloop
endfacet
facet normal -8.1032509E-01 -5.8598065E-01 0.0000000E+00
outer loop
vertex -2.2334000E-02 -2.2000000E-02 -5.5000000E-02
vertex -2.2194000E-02 -2.2193599E-02 -5.6000002E-02
vertex -2.2194000E-02 -2.2193599E-02 5.6000002E-02
endloop
endfacet
facet normal -8.1032503E-01 -5.8598065E-01 -0.0000000E+00
outer loop
vertex -2.2334000E-02 -2.2000000E-02 5.5000000E-02
vertex -2.2334000E-02 -2.2000000E-02 -5.5000000E-02
vertex -2.2194000E-02 -2.2193599E-02 5.6000002E-02
endloop
endfacet
facet normal 3.0902398E-01 -9.5105428E-01 0.0000000E+00
outer loop
vertex 4.9100001E-03 -3.0999999E-02 -5.6000002E-02
vertex 1.4249000E-02 -2.7965499E-02 -5.6000002E-02
vertex 1.4249000E-02 -2.7965499E-02 5.6000002E-02
endloop
endfacet
facet normal 3.0902398E-01 -9.5105428E-01 0.0000000E+00
outer loop
vertex 4.9100001E-03 -3.0999999E-02 -5.6000002E-02
vertex 1.4249000E-02 -2.7965499E-02 5.6000002E-02
vertex 4.9100001E-03 -3.0999999E-02 5.6000002E-02
endloop
endfacet
facet normal -5.8775324E-01 -8.0904031E-01 0.0000000E+00
outer loop
vertex -2.2194000E-02 -2.2193599E-02 -5.6000002E-02
vertex -1.4249000E-02 -2.7965499E-02 -5.6000002E-02
vertex -1.4249000E-02 -2.7965499E-02 5.6000002E-02
endloop
endfacet
facet normal -5.8775324E-01 -8.0904031E-01 0.0000000E+00
outer loop
vertex -2.2194000E-02 -2.2193599E-02 -5.6000002E-02
vertex -1.4249000E-02 -2.7965499E-02 5.6000002E-02
vertex -2.2194000E-02 -2.2193599E-02 5.6000002E-02
endloop
endfacet
facet normal -5.8775973E-01 8.0903548E-01 0.0000000E+00
outer loop
vertex -1.4249000E-02 2.7965499E-02 5.5000000E-02
vertex -2.2194000E-02 2.2193501E-02 5.5000000E-02
vertex -1.4249000E-02 2.7965499E-02 5.6000002E-02
endloop
endfacet
facet normal -5.8775973E-01 8.0903548E-01 0.0000000E+00
outer loop
vertex -2.2194000E-02 2.2193501E-02 5.5000000E-02
vertex -2.2194000E-02 2.2193501E-02 5.6000002E-02
vertex -1.4249000E-02 2.7965499E-02 5.6000002E-02
endloop
endfacet
facet normal 9.9999994E-01 0.0000000E+00 0.0000000E+00
outer loop
vertex 3.0999999E-02 -4.9099000E-03 -5.6000002E-02
vertex 3.0999999E-02 4.9099000E-03 -5.6000002E-02
vertex 3.0999999E-02 4.9099000E-03 5.6000002E-02
endloop
endfacet
facet normal 9.9999994E-01 0.0000000E+00 0.0000000E+00
outer loop
vertex 3.0999999E-02 -4.9099000E-03 -5.6000002E-02
vertex 3.0999999E-02 4.9099000E-03 5.6000002E-02
vertex 3.0999999E-02 -4.9099000E-03 5.6000002E-02
endloop
endfacet
facet normal 9.5107114E-01 -3.0897176E-01 0.0000000E+00
outer loop
vertex 2.7966000E-02 -1.4249100E-02 -5.6000002E-02
vertex 3.0999999E-02 -4.9099000E-03 -5.6000002E-02
vertex 2.7966000E-02 -1.4249100E-02 5.6000002E-02
endloop
endfacet
facet normal 9.5107114E-01 -3.0897176E-01 0.0000000E+00
outer loop
vertex 3.0999999E-02 -4.9099000E-03 -5.6000002E-02
vertex 3.0999999E-02 -4.9099000E-03 5.6000002E-02
vertex 2.7966000E-02 -1.4249100E-02 5.6000002E-02
endloop
endfacet
facet normal -9.9999994E-01 0.0000000E+00 0.0000000E+00
outer loop
vertex -3.0999999E-02 4.9099000E-03 5.5000000E-02
vertex -3.0999999E-02 -4.9099000E-03 5.5000000E-02
vertex -3.0999999E-02 4.9099000E-03 5.6000002E-02
endloop
endfacet
facet normal -9.9999994E-01 0.0000000E+00 0.0000000E+00
outer loop
vertex -3.0999999E-02 -4.9099000E-03 5.5000000E-02
vertex -3.0999999E-02 -4.9099000E-03 5.6000002E-02
vertex -3.0999999E-02 4.9099000E-03 5.6000002E-02
endloop
endfacet
facet normal -9.5107120E-01 3.0897179E-01 0.0000000E+00
outer loop
vertex -2.7966000E-02 1.4249100E-02 5.5000000E-02
vertex -3.0999999E-02 4.9099000E-03 5.5000000E-02
vertex -2.7966000E-02 1.4249100E-02 5.6000002E-02
endloop
endfacet
facet normal -9.5107120E-01 3.0897179E-01 0.0000000E+00
outer loop
vertex -3.0999999E-02 4.9099000E-03 5.5000000E-02
vertex -3.0999999E-02 4.9099000E-03 5.6000002E-02
vertex -2.7966000E-02 1.4249100E-02 5.6000002E-02
endloop
endfacet
facet normal 8.0901784E-01 -5.8778417E-01 0.0000000E+00
outer loop
vertex 2.2194000E-02 -2.2193599E-02 -5.6000002E-02
vertex 2.7966000E-02 -1.4249100E-02 -5.6000002E-02
vertex 2.7966000E-02 -1.4249100E-02 5.6000002E-02
endloop
endfacet
facet normal 8.0901784E-01 -5.8778417E-01 0.0000000E+00
outer loop
vertex 2.2194000E-02 -2.2193599E-02 -5.6000002E-02
vertex 2.7966000E-02 -1.4249100E-02 5.6000002E-02
vertex 2.2194000E-02 -2.2193599E-02 5.6000002E-02
endloop
endfacet
facet normal -8.0901426E-01 5.8778894E-01 0.0000000E+00
outer loop
vertex -2.7966000E-02 1.4249100E-02 5.5000000E-02
vertex -2.7966000E-02 1.4249100E-02 5.6000002E-02
vertex -2.2194000E-02 2.2193501E-02 5.5000000E-02
endloop
endfacet
facet normal -8.0901426E-01 5.8778894E-01 0.0000000E+00
outer loop
vertex -2.2194000E-02 2.2193501E-02 5.5000000E-02
vertex -2.7966000E-02 1.4249100E-02 5.6000002E-02
vertex -2.2194000E-02 2.2193501E-02 5.6000002E-02
endloop
endfacet
facet normal 0.0000000E+00 -1.0000000E+00 0.0000000E+00
outer loop
vertex -3.7599999E-01 -2.2000000E-02 -5.5000000E-02
vertex -2.2334000E-02 -2.2000000E-02 -5.5000000E-02
vertex -3.7599999E-01 -2.2000000E-02 -4.0000002E-03
endloop
endfacet
facet normal 0.0000000E+00 -1.0000000E+00 0.0000000E+00
outer loop
vertex -2.2334000E-02 -2.2000000E-02 -5.5000000E-02
vertex -2.2334000E-02 -2.2000000E-02 5.5000000E-02
vertex -3.7599999E-01 -2.2000000E-02 -4.0000002E-03
endloop
endfacet
facet normal 0.0000000E+00 -9.9999994E-01 0.0000000E+00
outer loop
vertex -5.1251662E-01 -2.2000000E-02 -4.0000002E-03
vertex -3.7599999E-01 -2.2000000E-02 -4.0000002E-03
vertex -4.8938450E-01 -2.2000000E-02 4.5000002E-02
endloop
endfacet
facet normal 0.0000000E+00 -9.9999994E-01 0.0000000E+00
outer loop
vertex -4.8938450E-01 -2.2000000E-02 4.5000002E-02
vertex -3.7599999E-01 -2.2000000E-02 -4.0000002E-03
vertex -4.8938450E-01 -2.2000000E-02 5.5000000E-02
endloop
endfacet
facet normal 0.0000000E+00 -9.9999994E-01 0.0000000E+00
outer loop
vertex -5.1251662E-01 -2.2000000E-02 -4.5000002E-02
vertex -5.1251662E-01 -2.2000000E-02 -4.0000002E-03
vertex -6.0000002E-01 -2.2000000E-02 -4.5000002E-02
endloop
endfacet
facet normal 0.0000000E+00 -1.0000000E+00 0.0000000E+00
outer loop
vertex -6.0000002E-01 -2.2000000E-02 -4.5000002E-02
vertex -5.1251662E-01 -2.2000000E-02 -4.0000002E-03
vertex -6.0000002E-01 -2.2000000E-02 4.5000002E-02
endloop
endfacet
facet normal 0.0000000E+00 -1.0000000E+00 0.0000000E+00
outer loop
vertex -5.1251662E-01 -2.2000000E-02 -4.0000002E-03
vertex -4.8938450E-01 -2.2000000E-02 4.5000002E-02
vertex -6.0000002E-01 -2.2000000E-02 4.5000002E-02
endloop
endfacet
facet normal 0.0000000E+00 -1.0000000E+00 0.0000000E+00
outer loop
vertex -3.7599999E-01 -2.2000000E-02 -4.0000002E-03
vertex -2.2334000E-02 -2.2000000E-02 5.5000000E-02
vertex -4.8938450E-01 -2.2000000E-02 5.5000000E-02
endloop
endfacet
facet normal 0.0000000E+00 1.0000000E+00 -0.0000000E+00
outer loop
vertex -5.2644670E-01 8.5000001E-02 -4.5000002E-02
vertex -6.0000002E-01 8.5000001E-02 -4.5000002E-02
vertex -5.2644670E-01 8.5000001E-02 4.5000002E-02
endloop
endfacet
facet normal 0.0000000E+00 1.0000000E+00 0.0000000E+00
outer loop
vertex -6.0000002E-01 8.5000001E-02 -4.5000002E-02
vertex -6.0000002E-01 8.5000001E-02 4.5000002E-02
vertex -5.2644670E-01 8.5000001E-02 4.5000002E-02
endloop
endfacet
facet normal 0.0000000E+00 1.0000000E+00 0.0000000E+00
outer loop
vertex -5.2644670E-01 8.5000001E-02 -5.5000000E-02
vertex -5.2644670E-01 8.5000001E-02 -4.5000002E-02
vertex -1.4500000E-01 8.5000001E-02 -5.5000000E-02
endloop
endfacet
facet normal 0.0000000E+00 1.0000000E+00 0.0000000E+00
outer loop
vertex -5.2644670E-01 8.5000001E-02 4.5000002E-02
vertex -5.2644670E-01 8.5000001E-02 5.5000000E-02
vertex -1.4500000E-01 8.5000001E-02 5.5000000E-02
endloop
endfacet
facet normal 0.0000000E+00 1.0000000E+00 0.0000000E+00
outer loop
vertex -5.2644670E-01 8.5000001E-02 -4.5000002E-02
vertex -5.2644670E-01 8.5000001E-02 4.5000002E-02
vertex -1.4500000E-01 8.5000001E-02 5.5000000E-02
endloop
endfacet
facet normal 0.0000000E+00 1.0000000E+00 -0.0000000E+00
outer loop
vertex -1.4500000E-01 8.5000001E-02 -5.5000000E-02
vertex -5.2644670E-01 8.5000001E-02 -4.5000002E-02
vertex -1.4500000E-01 8.5000001E-02 5.5000000E-02
endloop
endfacet
facet normal 2.6052299E-01 9.6546757E-01 -0.0000000E+00
outer loop
vertex -1.8999999E-02 5.0999999E-02 -5.5000000E-02
vertex -1.4500000E-01 8.5000001E-02 -5.5000000E-02
vertex -1.8999999E-02 5.0999999E-02 5.5000000E-02
endloop
endfacet
facet normal 2.6052299E-01 9.6546757E-01 -0.0000000E+00
outer loop
vertex -1.4500000E-01 8.5000001E-02 -5.5000000E-02
vertex -1.4500000E-01 8.5000001E-02 5.5000000E-02
vertex -1.8999999E-02 5.0999999E-02 5.5000000E-02
endloop
endfacet
facet normal 1.0000000E+00 0.0000000E+00 0.0000000E+00
outer loop
vertex -4.8800001E-01 -1.7739100E-02 5.5000000E-02
vertex -4.8800001E-01 1.7739100E-02 5.7500001E-02
vertex -4.8800001E-01 -1.7739100E-02 5.7500001E-02
endloop
endfacet
facet normal 1.0000000E+00 0.0000000E+00 -0.0000000E+00
outer loop
vertex -4.8800001E-01 1.7739100E-02 5.5000000E-02
vertex -4.8800001E-01 1.7739100E-02 5.7500001E-02
vertex -4.8800001E-01 -1.7739100E-02 5.5000000E-02
endloop
endfacet
facet normal 9.5105660E-01 3.0901647E-01 -0.0000000E+00
outer loop
vertex -4.8800001E-01 1.7739100E-02 5.5000000E-02
vertex -4.9896330E-01 5.1480699E-02 5.7500001E-02
vertex -4.8800001E-01 1.7739100E-02 5.7500001E-02
endloop
endfacet
facet normal 9.5105660E-01 3.0901647E-01 -0.0000000E+00
outer loop
vertex -4.9896330E-01 5.1480699E-02 5.5000000E-02
vertex -4.9896330E-01 5.1480699E-02 5.7500001E-02
vertex -4.8800001E-01 1.7739100E-02 5.5000000E-02
endloop
endfacet
facet normal 8.0901700E-01 5.8778530E-01 -0.0000000E+00
outer loop
vertex -4.9896330E-01 5.1480699E-02 5.5000000E-02
vertex -5.1981682E-01 8.0183104E-02 5.7500001E-02
vertex -4.9896330E-01 5.1480699E-02 5.7500001E-02
endloop
endfacet
facet normal 8.0901700E-01 5.8778530E-01 -0.0000000E+00
outer loop
vertex -5.1981682E-01 8.0183104E-02 5.5000000E-02
vertex -5.1981682E-01 8.0183104E-02 5.7500001E-02
vertex -4.9896330E-01 5.1480699E-02 5.5000000E-02
endloop
endfacet
facet normal 9.5105731E-01 -3.0901459E-01 0.0000000E+00
outer loop
vertex -4.9896330E-01 -5.1480751E-02 4.5000002E-02
vertex -4.8938450E-01 -2.2000000E-02 5.5000000E-02
vertex -4.9896330E-01 -5.1480751E-02 5.7500001E-02
endloop
endfacet
facet normal 9.5105731E-01 -3.0901459E-01 0.0000000E+00
outer loop
vertex -4.8938450E-01 -2.2000000E-02 4.5000002E-02
vertex -4.8938450E-01 -2.2000000E-02 5.5000000E-02
vertex -4.9896330E-01 -5.1480751E-02 4.5000002E-02
endloop
endfacet
facet normal 9.5105356E-01 -3.0902639E-01 0.0000000E+00
outer loop
vertex -4.8800001E-01 -1.7739100E-02 5.5000000E-02
vertex -4.8800001E-01 -1.7739100E-02 5.7500001E-02
vertex -4.8938450E-01 -2.2000000E-02 5.5000000E-02
endloop
endfacet
facet normal 9.5105678E-01 -3.0901605E-01 -1.9400868E-05
outer loop
vertex -4.8938450E-01 -2.2000000E-02 5.5000000E-02
vertex -4.8800001E-01 -1.7739100E-02 5.7500001E-02
vertex -4.9896330E-01 -5.1480751E-02 5.7500001E-02
endloop
endfacet
facet normal 5.8778560E-01 8.0901676E-01 -0.0000000E+00
outer loop
vertex -5.1981682E-01 8.0183104E-02 5.5000000E-02
vertex -5.2644670E-01 8.5000001E-02 5.5000000E-02
vertex -5.1981682E-01 8.0183104E-02 5.7500001E-02
endloop
endfacet
facet normal 5.8778745E-01 8.0901539E-01 -0.0000000E+00
outer loop
vertex -5.2644670E-01 8.5000001E-02 4.5000002E-02
vertex -5.4851919E-01 1.0103670E-01 4.5000002E-02
vertex -5.2644670E-01 8.5000001E-02 5.5000000E-02
endloop
endfacet
facet normal 5.8778751E-01 8.0901545E-01 -0.0000000E+00
outer loop
vertex -5.4851919E-01 1.0103670E-01 4.5000002E-02
vertex -5.4851919E-01 1.0103670E-01 5.7500001E-02
vertex -5.2644670E-01 8.5000001E-02 5.5000000E-02
endloop
endfacet
facet normal 5.8778697E-01 8.0901575E-01 -5.7423154E-06
outer loop
vertex -5.2644670E-01 8.5000001E-02 5.5000000E-02
vertex -5.4851919E-01 1.0103670E-01 5.7500001E-02
vertex -5.1981682E-01 8.0183104E-02 5.7500001E-02
endloop
endfacet
facet normal -8.0901426E-01 5.8778894E-01 0.0000000E+00
outer loop
vertex -2.7966000E-02 1.4249100E-02 -5.6000002E-02
vertex -2.7966000E-02 1.4249100E-02 -5.5000000E-02
vertex -2.2194000E-02 2.2193501E-02 -5.5000000E-02
endloop
endfacet
facet normal -8.0901426E-01 5.8778894E-01 0.0000000E+00
outer loop
vertex -2.2194000E-02 2.2193501E-02 -5.6000002E-02
vertex -2.7966000E-02 1.4249100E-02 -5.6000002E-02
vertex -2.2194000E-02 2.2193501E-02 -5.5000000E-02
endloop
endfacet
facet normal -3.0902398E-01 9.5105428E-01 0.0000000E+00
outer loop
vertex -1.4249000E-02 2.7965499E-02 -5.6000002E-02
vertex -1.4249000E-02 2.7965499E-02 -5.5000000E-02
vertex -4.9100001E-03 3.0999999E-02 -5.5000000E-02
endloop
endfacet
facet normal -3.0902398E-01 9.5105428E-01 0.0000000E+00
outer loop
vertex -4.9100001E-03 3.0999999E-02 -5.6000002E-02
vertex -1.4249000E-02 2.7965499E-02 -5.6000002E-02
vertex -4.9100001E-03 3.0999999E-02 -5.5000000E-02
endloop
endfacet
facet normal -5.8775973E-01 8.0903548E-01 0.0000000E+00
outer loop
vertex -2.2194000E-02 2.2193501E-02 -5.6000002E-02
vertex -2.2194000E-02 2.2193501E-02 -5.5000000E-02
vertex -1.4249000E-02 2.7965499E-02 -5.5000000E-02
endloop
endfacet
facet normal -5.8775973E-01 8.0903548E-01 0.0000000E+00
outer loop
vertex -1.4249000E-02 2.7965499E-02 -5.6000002E-02
vertex -2.2194000E-02 2.2193501E-02 -5.6000002E-02
vertex -1.4249000E-02 2.7965499E-02 -5.5000000E-02
endloop
endfacet
facet normal -9.9999994E-01 0.0000000E+00 0.0000000E+00
outer loop
vertex -3.0999999E-02 -4.9099000E-03 -5.6000002E-02
vertex -3.0999999E-02 -4.9099000E-03 -5.5000000E-02
vertex -3.0999999E-02 4.9099000E-03 -5.5000000E-02
endloop
endfacet
facet normal -9.9999994E-01 0.0000000E+00 0.0000000E+00
outer loop
vertex -3.0999999E-02 4.9099000E-03 -5.6000002E-02
vertex -3.0999999E-02 -4.9099000E-03 -5.6000002E-02
vertex -3.0999999E-02 4.9099000E-03 -5.5000000E-02
endloop
endfacet
facet normal -9.5107120E-01 -3.0897179E-01 0.0000000E+00
outer loop
vertex -2.7966000E-02 -1.4249100E-02 -5.6000002E-02
vertex -2.7966000E-02 -1.4249100E-02 -5.5000000E-02
vertex -3.0999999E-02 -4.9099000E-03 -5.5000000E-02
endloop
endfacet
facet normal -9.5107120E-01 -3.0897179E-01 0.0000000E+00
outer loop
vertex -3.0999999E-02 -4.9099000E-03 -5.6000002E-02
vertex -2.7966000E-02 -1.4249100E-02 -5.6000002E-02
vertex -3.0999999E-02 -4.9099000E-03 -5.5000000E-02
endloop
endfacet
facet normal -9.5107120E-01 3.0897179E-01 0.0000000E+00
outer loop
vertex -3.0999999E-02 4.9099000E-03 -5.6000002E-02
vertex -3.0999999E-02 4.9099000E-03 -5.5000000E-02
vertex -2.7966000E-02 1.4249100E-02 -5.5000000E-02
endloop
endfacet
facet normal -9.5107120E-01 3.0897179E-01 0.0000000E+00
outer loop
vertex -2.7966000E-02 1.4249100E-02 -5.6000002E-02
vertex -3.0999999E-02 4.9099000E-03 -5.6000002E-02
vertex -2.7966000E-02 1.4249100E-02 -5.5000000E-02
endloop
endfacet
facet normal 5.8778739E-01 8.0901539E-01 -0.0000000E+00
outer loop
vertex -5.4851919E-01 1.0103670E-01 -5.9000000E-02
vertex -5.4851919E-01 1.0103670E-01 -4.5000002E-02
vertex -5.2644670E-01 8.5000001E-02 -5.5000000E-02
endloop
endfacet
facet normal 5.8778703E-01 8.0901575E-01 3.6914898E-06
outer loop
vertex -5.4851919E-01 1.0103670E-01 -5.9000000E-02
vertex -5.2644670E-01 8.5000001E-02 -5.5000000E-02
vertex -5.1981682E-01 8.0183104E-02 -5.9000000E-02
endloop
endfacet
facet normal 5.8778554E-01 8.0901670E-01 -0.0000000E+00
outer loop
vertex -5.1981682E-01 8.0183104E-02 -5.9000000E-02
vertex -5.2644670E-01 8.5000001E-02 -5.5000000E-02
vertex -5.1981682E-01 8.0183104E-02 -5.5000000E-02
endloop
endfacet
facet normal 5.8778745E-01 8.0901539E-01 -0.0000000E+00
outer loop
vertex -5.2644670E-01 8.5000001E-02 -5.5000000E-02
vertex -5.4851919E-01 1.0103670E-01 -4.5000002E-02
vertex -5.2644670E-01 8.5000001E-02 -4.5000002E-02
endloop
endfacet
facet normal 9.5105672E-01 3.0901653E-01 -0.0000000E+00
outer loop
vertex -4.9896330E-01 5.1480699E-02 -5.9000000E-02
vertex -4.9896330E-01 5.1480699E-02 -5.5000000E-02
vertex -4.8800001E-01 1.7739100E-02 -5.9000000E-02
endloop
endfacet
facet normal 9.5105672E-01 3.0901653E-01 -0.0000000E+00
outer loop
vertex -4.8800001E-01 1.7739100E-02 -5.9000000E-02
vertex -4.9896330E-01 5.1480699E-02 -5.5000000E-02
vertex -4.8800001E-01 1.7739100E-02 -5.5000000E-02
endloop
endfacet
facet normal 0.0000000E+00 -1.0000000E+00 0.0000000E+00
outer loop
vertex -3.7599999E-01 -1.6000001E-02 -5.5000000E-02
vertex -3.7599999E-01 -1.6000001E-02 -4.0000002E-03
vertex -4.8800001E-01 -1.6000001E-02 -5.5000000E-02
endloop
endfacet
facet normal 0.0000000E+00 -1.0000000E+00 0.0000000E+00
outer loop
vertex -4.8800001E-01 -1.6000001E-02 -5.9000000E-02
vertex -4.8800001E-01 -1.6000001E-02 -5.5000000E-02
vertex -5.1056713E-01 -1.6000001E-02 -5.9000000E-02
endloop
endfacet
facet normal 0.0000000E+00 -1.0000000E+00 0.0000000E+00
outer loop
vertex -5.1056713E-01 -1.6000001E-02 -5.9000000E-02
vertex -4.8800001E-01 -1.6000001E-02 -5.5000000E-02
vertex -5.1056713E-01 -1.6000001E-02 -4.0000002E-03
endloop
endfacet
facet normal 0.0000000E+00 -1.0000000E+00 0.0000000E+00
outer loop
vertex -4.8800001E-01 -1.6000001E-02 -5.5000000E-02
vertex -3.7599999E-01 -1.6000001E-02 -4.0000002E-03
vertex -5.1056713E-01 -1.6000001E-02 -4.0000002E-03
endloop
endfacet
facet normal 8.0901694E-01 5.8778530E-01 -0.0000000E+00
outer loop
vertex -5.1981682E-01 8.0183104E-02 -5.9000000E-02
vertex -5.1981682E-01 8.0183104E-02 -5.5000000E-02
vertex -4.9896330E-01 5.1480699E-02 -5.5000000E-02
endloop
endfacet
facet normal 8.0901694E-01 5.8778530E-01 -0.0000000E+00
outer loop
vertex -4.9896330E-01 5.1480699E-02 -5.9000000E-02
vertex -5.1981682E-01 8.0183104E-02 -5.9000000E-02
vertex -4.9896330E-01 5.1480699E-02 -5.5000000E-02
endloop
endfacet
facet normal 9.9999994E-01 0.0000000E+00 0.0000000E+00
outer loop
vertex -4.8800001E-01 -1.6000001E-02 -5.9000000E-02
vertex -4.8800001E-01 1.7739100E-02 -5.9000000E-02
vertex -4.8800001E-01 -1.6000001E-02 -5.5000000E-02
endloop
endfacet
facet normal 9.9999994E-01 0.0000000E+00 -0.0000000E+00
outer loop
vertex -4.8800001E-01 1.7739100E-02 -5.9000000E-02
vertex -4.8800001E-01 1.7739100E-02 -5.5000000E-02
vertex -4.8800001E-01 -1.6000001E-02 -5.5000000E-02
endloop
endfacet
facet normal -1.0000000E+00 0.0000000E+00 0.0000000E+00
outer loop
vertex -3.7599999E-01 -2.2000000E-02 -5.5000000E-02
vertex -3.7599999E-01 -2.2000000E-02 -4.0000002E-03
vertex -3.7599999E-01 -1.6000001E-02 -4.0000002E-03
endloop
endfacet
facet normal -1.0000000E+00 0.0000000E+00 0.0000000E+00
outer loop
vertex -3.7599999E-01 -1.6000001E-02 -5.5000000E-02
vertex -3.7599999E-01 -2.2000000E-02 -5.5000000E-02
vertex -3.7599999E-01 -1.6000001E-02 -4.0000002E-03
endloop
endfacet
facet normal 0.0000000E+00 0.0000000E+00 -1.0000000E+00
outer loop
vertex -4.9896330E-01 -5.1480751E-02 4.5000002E-02
vertex -6.0000002E-01 -2.2000000E-02 4.5000002E-02
vertex -4.8938450E-01 -2.2000000E-02 4.5000002E-02
endloop
endfacet
facet normal 0.0000000E+00 0.0000000E+00 -1.0000000E+00
outer loop
vertex -5.1981682E-01 -8.0183141E-02 4.5000002E-02
vertex -6.0000002E-01 -2.2000000E-02 4.5000002E-02
vertex -4.9896330E-01 -5.1480751E-02 4.5000002E-02
endloop
endfacet
facet normal 0.0000000E+00 0.0000000E+00 -1.0000000E+00
outer loop
vertex -5.4851919E-01 -1.0103666E-01 4.5000002E-02
vertex -6.0000002E-01 -2.2000000E-02 4.5000002E-02
vertex -5.1981682E-01 -8.0183141E-02 4.5000002E-02
endloop
endfacet
facet normal 0.0000000E+00 0.0000000E+00 -1.0000000E+00
outer loop
vertex -5.8226103E-01 -1.1200000E-01 4.5000002E-02
vertex -6.0000002E-01 -2.2000000E-02 4.5000002E-02
vertex -5.4851919E-01 -1.0103666E-01 4.5000002E-02
endloop
endfacet
facet normal 0.0000000E+00 0.0000000E+00 -1.0000000E+00
outer loop
vertex -6.1773902E-01 -1.1200000E-01 4.5000002E-02
vertex -6.0000002E-01 -2.2000000E-02 4.5000002E-02
vertex -5.8226103E-01 -1.1200000E-01 4.5000002E-02
endloop
endfacet
facet normal 0.0000000E+00 0.0000000E+00 -9.9999994E-01
outer loop
vertex -6.5148067E-01 -1.0103666E-01 4.5000002E-02
vertex -6.0000002E-01 -2.2000000E-02 4.5000002E-02
vertex -6.1773902E-01 -1.1200000E-01 4.5000002E-02
endloop
endfacet
facet normal 0.0000000E+00 0.0000000E+00 -1.0000000E+00
outer loop
vertex -6.5148067E-01 -1.0103666E-01 4.5000002E-02
vertex -6.8018311E-01 -8.0183141E-02 4.5000002E-02
vertex -6.0000002E-01 -2.2000000E-02 4.5000002E-02
endloop
endfacet
facet normal 0.0000000E+00 0.0000000E+00 -1.0000000E+00
outer loop
vertex -6.8018311E-01 -8.0183141E-02 4.5000002E-02
vertex -7.0103669E-01 -5.1480751E-02 4.5000002E-02
vertex -6.0000002E-01 -2.2000000E-02 4.5000002E-02
endloop
endfacet
facet normal 0.0000000E+00 0.0000000E+00 -1.0000000E+00
outer loop
vertex -5.2644670E-01 8.5000001E-02 4.5000002E-02
vertex -6.0000002E-01 8.5000001E-02 4.5000002E-02
vertex -5.4851919E-01 1.0103670E-01 4.5000002E-02
endloop
endfacet
facet normal 0.0000000E+00 0.0000000E+00 -1.0000000E+00
outer loop
vertex -7.0103669E-01 -5.1480751E-02 4.5000002E-02
vertex -7.1200001E-01 -1.7739100E-02 4.5000002E-02
vertex -6.0000002E-01 -2.2000000E-02 4.5000002E-02
endloop
endfacet
facet normal 0.0000000E+00 0.0000000E+00 -1.0000000E+00
outer loop
vertex -6.0000002E-01 8.5000001E-02 4.5000002E-02
vertex -5.8226103E-01 1.1200000E-01 4.5000002E-02
vertex -5.4851919E-01 1.0103670E-01 4.5000002E-02
endloop
endfacet
facet normal 0.0000000E+00 0.0000000E+00 -1.0000000E+00
outer loop
vertex -6.0000002E-01 8.5000001E-02 4.5000002E-02
vertex -6.1773902E-01 1.1200000E-01 4.5000002E-02
vertex -5.8226103E-01 1.1200000E-01 4.5000002E-02
endloop
endfacet
facet normal 0.0000000E+00 0.0000000E+00 -1.0000000E+00
outer loop
vertex -7.1200001E-01 -1.7739100E-02 4.5000002E-02
vertex -7.1200001E-01 1.7739100E-02 4.5000002E-02
vertex -6.0000002E-01 -2.2000000E-02 4.5000002E-02
endloop
endfacet
facet normal 0.0000000E+00 0.0000000E+00 -1.0000000E+00
outer loop
vertex -6.0000002E-01 8.5000001E-02 4.5000002E-02
vertex -6.5148067E-01 1.0103670E-01 4.5000002E-02
vertex -6.1773902E-01 1.1200000E-01 4.5000002E-02
endloop
endfacet
facet normal 0.0000000E+00 0.0000000E+00 -1.0000000E+00
outer loop
vertex -7.1200001E-01 1.7739100E-02 4.5000002E-02
vertex -7.0103669E-01 5.1480699E-02 4.5000002E-02
vertex -6.0000002E-01 -2.2000000E-02 4.5000002E-02
endloop
endfacet
facet normal 0.0000000E+00 0.0000000E+00 -1.0000000E+00
outer loop
vertex -6.0000002E-01 -2.2000000E-02 4.5000002E-02
vertex -6.8018311E-01 8.0183104E-02 4.5000002E-02
vertex -6.0000002E-01 8.5000001E-02 4.5000002E-02
endloop
endfacet
facet normal -0.0000000E+00 0.0000000E+00 -9.9999994E-01
outer loop
vertex -6.0000002E-01 8.5000001E-02 4.5000002E-02
vertex -6.8018311E-01 8.0183104E-02 4.5000002E-02
vertex -6.5148067E-01 1.0103670E-01 4.5000002E-02
endloop
endfacet
facet normal 0.0000000E+00 0.0000000E+00 -1.0000000E+00
outer loop
vertex -7.0103669E-01 5.1480699E-02 4.5000002E-02
vertex -6.8018311E-01 8.0183104E-02 4.5000002E-02
vertex -6.0000002E-01 -2.2000000E-02 4.5000002E-02
endloop
endfacet
facet normal 9.5105720E-01 -3.0901504E-01 -1.0229004E-06
outer loop
vertex -5.1056713E-01 -1.6000001E-02 -5.9000000E-02
vertex -5.1251662E-01 -2.2000000E-02 -4.5000002E-02
vertex -5.1880980E-01 -4.1368499E-02 -5.9000000E-02
endloop
endfacet
facet normal 9.5105690E-01 -3.0901566E-01 0.0000000E+00
outer loop
vertex -5.1880980E-01 -4.1368499E-02 -5.9000000E-02
vertex -5.1251662E-01 -2.2000000E-02 -4.5000002E-02
vertex -5.1880980E-01 -4.1368499E-02 -4.5000002E-02
endloop
endfacet
facet normal 9.5105785E-01 -3.0901286E-01 0.0000000E+00
outer loop
vertex -5.1251662E-01 -2.2000000E-02 -4.5000002E-02
vertex -5.1056713E-01 -1.6000001E-02 -5.9000000E-02
vertex -5.1056713E-01 -1.6000001E-02 -4.0000002E-03
endloop
endfacet
facet normal 9.5105785E-01 -3.0901286E-01 0.0000000E+00
outer loop
vertex -5.1251662E-01 -2.2000000E-02 -4.5000002E-02
vertex -5.1056713E-01 -1.6000001E-02 -4.0000002E-03
vertex -5.1251662E-01 -2.2000000E-02 -4.0000002E-03
endloop
endfacet
facet normal -0.0000000E+00 0.0000000E+00 1.0000000E+00
outer loop
vertex -6.4136851E-01 -8.1190169E-02 -4.5000002E-02
vertex -6.1425459E-01 -9.0000004E-02 -4.5000002E-02
vertex -6.0000002E-01 -2.2000000E-02 -4.5000002E-02
endloop
endfacet
facet normal 0.0000000E+00 0.0000000E+00 1.0000000E+00
outer loop
vertex -6.1425459E-01 -9.0000004E-02 -4.5000002E-02
vertex -5.8574539E-01 -9.0000004E-02 -4.5000002E-02
vertex -6.0000002E-01 -2.2000000E-02 -4.5000002E-02
endloop
endfacet
facet normal 0.0000000E+00 -0.0000000E+00 1.0000000E+00
outer loop
vertex -5.8574539E-01 -9.0000004E-02 -4.5000002E-02
vertex -5.5863148E-01 -8.1190169E-02 -4.5000002E-02
vertex -6.0000002E-01 -2.2000000E-02 -4.5000002E-02
endloop
endfacet
facet normal 0.0000000E+00 -0.0000000E+00 1.0000000E+00
outer loop
vertex -5.5863148E-01 -8.1190169E-02 -4.5000002E-02
vertex -5.3556710E-01 -6.4432882E-02 -4.5000002E-02
vertex -6.0000002E-01 -2.2000000E-02 -4.5000002E-02
endloop
endfacet
facet normal 0.0000000E+00 -0.0000000E+00 1.0000000E+00
outer loop
vertex -5.3556710E-01 -6.4432882E-02 -4.5000002E-02
vertex -5.1880980E-01 -4.1368499E-02 -4.5000002E-02
vertex -6.0000002E-01 -2.2000000E-02 -4.5000002E-02
endloop
endfacet
facet normal 0.0000000E+00 -0.0000000E+00 1.0000000E+00
outer loop
vertex -5.1880980E-01 -4.1368499E-02 -4.5000002E-02
vertex -5.1251662E-01 -2.2000000E-02 -4.5000002E-02
vertex -6.0000002E-01 -2.2000000E-02 -4.5000002E-02
endloop
endfacet
facet normal 0.0000000E+00 -0.0000000E+00 1.0000000E+00
outer loop
vertex -6.4136851E-01 -8.1190169E-02 -4.5000002E-02
vertex -6.0000002E-01 -2.2000000E-02 -4.5000002E-02
vertex -6.6443288E-01 -6.4432882E-02 -4.5000002E-02
endloop
endfacet
facet normal 0.0000000E+00 -0.0000000E+00 1.0000000E+00
outer loop
vertex -6.6443288E-01 -6.4432882E-02 -4.5000002E-02
vertex -6.0000002E-01 -2.2000000E-02 -4.5000002E-02
vertex -6.8119019E-01 -4.1368499E-02 -4.5000002E-02
endloop
endfacet
facet normal 0.0000000E+00 -0.0000000E+00 1.0000000E+00
outer loop
vertex -6.8119019E-01 -4.1368499E-02 -4.5000002E-02
vertex -6.0000002E-01 -2.2000000E-02 -4.5000002E-02
vertex -6.9000000E-01 -1.4254600E-02 -4.5000002E-02
endloop
endfacet
facet normal 0.0000000E+00 0.0000000E+00 1.0000000E+00
outer loop
vertex -5.2644670E-01 8.5000001E-02 -4.5000002E-02
vertex -5.4851919E-01 1.0103670E-01 -4.5000002E-02
vertex -6.0000002E-01 8.5000001E-02 -4.5000002E-02
endloop
endfacet
facet normal 0.0000000E+00 0.0000000E+00 1.0000000E+00
outer loop
vertex -6.0000002E-01 8.5000001E-02 -4.5000002E-02
vertex -5.4851919E-01 1.0103670E-01 -4.5000002E-02
vertex -5.8226103E-01 1.1200000E-01 -4.5000002E-02
endloop
endfacet
facet normal 0.0000000E+00 -0.0000000E+00 1.0000000E+00
outer loop
vertex -6.0000002E-01 8.5000001E-02 -4.5000002E-02
vertex -5.8226103E-01 1.1200000E-01 -4.5000002E-02
vertex -6.1773902E-01 1.1200000E-01 -4.5000002E-02
endloop
endfacet
facet normal 0.0000000E+00 0.0000000E+00 1.0000000E+00
outer loop
vertex -6.0000002E-01 8.5000001E-02 -4.5000002E-02
vertex -6.1773902E-01 1.1200000E-01 -4.5000002E-02
vertex -6.5148067E-01 1.0103670E-01 -4.5000002E-02
endloop
endfacet
facet normal 0.0000000E+00 -0.0000000E+00 1.0000000E+00
outer loop
vertex -6.0000002E-01 -2.2000000E-02 -4.5000002E-02
vertex -6.0000002E-01 8.5000001E-02 -4.5000002E-02
vertex -6.9000000E-01 6.6671401E-02 -4.5000002E-02
endloop
endfacet
facet normal -0.0000000E+00 0.0000000E+00 1.0000000E+00
outer loop
vertex -6.9000000E-01 -1.4254600E-02 -4.5000002E-02
vertex -6.0000002E-01 -2.2000000E-02 -4.5000002E-02
vertex -6.9000000E-01 6.6671401E-02 -4.5000002E-02
endloop
endfacet
facet normal 0.0000000E+00 0.0000000E+00 1.0000000E+00
outer loop
vertex -6.9000000E-01 6.6671401E-02 -4.5000002E-02
vertex -6.0000002E-01 8.5000001E-02 -4.5000002E-02
vertex -6.8018311E-01 8.0183104E-02 -4.5000002E-02
endloop
endfacet
facet normal 0.0000000E+00 0.0000000E+00 9.9999994E-01
outer loop
vertex -6.0000002E-01 8.5000001E-02 -4.5000002E-02
vertex -6.5148067E-01 1.0103670E-01 -4.5000002E-02
vertex -6.8018311E-01 8.0183104E-02 -4.5000002E-02
endloop
endfacet
facet normal -1.0000000E+00 0.0000000E+00 0.0000000E+00
outer loop
vertex -6.0000002E-01 8.5000001E-02 -4.5000002E-02
vertex -6.0000002E-01 -2.2000000E-02 -4.5000002E-02
vertex -6.0000002E-01 8.5000001E-02 4.5000002E-02
endloop
endfacet
facet normal -1.0000000E+00 0.0000000E+00 0.0000000E+00
outer loop
vertex -6.0000002E-01 -2.2000000E-02 -4.5000002E-02
vertex -6.0000002E-01 -2.2000000E-02 4.5000002E-02
vertex -6.0000002E-01 8.5000001E-02 4.5000002E-02
endloop
endfacet
facet normal 0.0000000E+00 0.0000000E+00 -1.0000000E+00
outer loop
vertex -5.1251662E-01 -2.2000000E-02 -4.0000002E-03
vertex -5.1056713E-01 -1.6000001E-02 -4.0000002E-03
vertex -3.7599999E-01 -2.2000000E-02 -4.0000002E-03
endloop
endfacet
facet normal 0.0000000E+00 0.0000000E+00 -1.0000000E+00
outer loop
vertex -3.7599999E-01 -2.2000000E-02 -4.0000002E-03
vertex -5.1056713E-01 -1.6000001E-02 -4.0000002E-03
vertex -3.7599999E-01 -1.6000001E-02 -4.0000002E-03
endloop
endfacet
facet normal 0.0000000E+00 -0.0000000E+00 9.9999994E-01
outer loop
vertex -5.4851919E-01 -1.0103666E-01 5.7500001E-02
vertex -5.1981682E-01 -8.0183141E-02 5.7500001E-02
vertex -5.8226103E-01 -1.1200000E-01 5.7500001E-02
endloop
endfacet
facet normal 0.0000000E+00 -0.0000000E+00 1.0000000E+00
outer loop
vertex -5.1981682E-01 -8.0183141E-02 5.7500001E-02
vertex -4.9896330E-01 -5.1480751E-02 5.7500001E-02
vertex -5.8226103E-01 -1.1200000E-01 5.7500001E-02
endloop
endfacet
facet normal 0.0000000E+00 -0.0000000E+00 1.0000000E+00
outer loop
vertex -4.9896330E-01 -5.1480751E-02 5.7500001E-02
vertex -4.8800001E-01 -1.7739100E-02 5.7500001E-02
vertex -5.8226103E-01 -1.1200000E-01 5.7500001E-02
endloop
endfacet
facet normal 0.0000000E+00 0.0000000E+00 1.0000000E+00
outer loop
vertex -5.8226103E-01 -1.1200000E-01 5.7500001E-02
vertex -4.8800001E-01 -1.7739100E-02 5.7500001E-02
vertex -4.8800001E-01 1.7739100E-02 5.7500001E-02
endloop
endfacet
facet normal 0.0000000E+00 0.0000000E+00 1.0000000E+00
outer loop
vertex -6.1773902E-01 -1.1200000E-01 5.7500001E-02
vertex -5.8226103E-01 -1.1200000E-01 5.7500001E-02
vertex -5.4851919E-01 1.0103670E-01 5.7500001E-02
endloop
endfacet
facet normal 0.0000000E+00 0.0000000E+00 1.0000000E+00
outer loop
vertex -4.8800001E-01 1.7739100E-02 5.7500001E-02
vertex -4.9896330E-01 5.1480699E-02 5.7500001E-02
vertex -5.4851919E-01 1.0103670E-01 5.7500001E-02
endloop
endfacet
facet normal 0.0000000E+00 0.0000000E+00 1.0000000E+00
outer loop
vertex -4.9896330E-01 5.1480699E-02 5.7500001E-02
vertex -5.1981682E-01 8.0183104E-02 5.7500001E-02
vertex -5.4851919E-01 1.0103670E-01 5.7500001E-02
endloop
endfacet
facet normal 0.0000000E+00 0.0000000E+00 1.0000000E+00
outer loop
vertex -5.8226103E-01 -1.1200000E-01 5.7500001E-02
vertex -4.8800001E-01 1.7739100E-02 5.7500001E-02
vertex -5.4851919E-01 1.0103670E-01 5.7500001E-02
endloop
endfacet
facet normal -0.0000000E+00 -0.0000000E+00 9.9999994E-01
outer loop
vertex -6.8018311E-01 -8.0183141E-02 5.7500001E-02
vertex -6.5148067E-01 -1.0103666E-01 5.7500001E-02
vertex -7.0103669E-01 -5.1480751E-02 5.7500001E-02
endloop
endfacet
facet normal -0.0000000E+00 -0.0000000E+00 9.9999994E-01
outer loop
vertex -6.5148067E-01 -1.0103666E-01 5.7500001E-02
vertex -6.1773902E-01 -1.1200000E-01 5.7500001E-02
vertex -7.1200001E-01 -1.7739100E-02 5.7500001E-02
endloop
endfacet
facet normal -0.0000000E+00 -0.0000000E+00 1.0000000E+00
outer loop
vertex -7.0103669E-01 -5.1480751E-02 5.7500001E-02
vertex -6.5148067E-01 -1.0103666E-01 5.7500001E-02
vertex -7.1200001E-01 -1.7739100E-02 5.7500001E-02
endloop
endfacet
facet normal 0.0000000E+00 0.0000000E+00 1.0000000E+00
outer loop
vertex -5.4851919E-01 1.0103670E-01 5.7500001E-02
vertex -5.8226103E-01 1.1200000E-01 5.7500001E-02
vertex -6.1773902E-01 1.1200000E-01 5.7500001E-02
endloop
endfacet
facet normal -0.0000000E+00 0.0000000E+00 1.0000000E+00
outer loop
vertex -7.1200001E-01 1.7739100E-02 5.7500001E-02
vertex -7.1200001E-01 -1.7739100E-02 5.7500001E-02
vertex -6.5148067E-01 1.0103670E-01 5.7500001E-02
endloop
endfacet
facet normal 0.0000000E+00 -0.0000000E+00 1.0000000E+00
outer loop
vertex -6.1773902E-01 -1.1200000E-01 5.7500001E-02
vertex -5.4851919E-01 1.0103670E-01 5.7500001E-02
vertex -6.5148067E-01 1.0103670E-01 5.7500001E-02
endloop
endfacet
facet normal -0.0000000E+00 0.0000000E+00 1.0000000E+00
outer loop
vertex -7.1200001E-01 -1.7739100E-02 5.7500001E-02
vertex -6.1773902E-01 -1.1200000E-01 5.7500001E-02
vertex -6.5148067E-01 1.0103670E-01 5.7500001E-02
endloop
endfacet
facet normal 0.0000000E+00 0.0000000E+00 1.0000000E+00
outer loop
vertex -5.4851919E-01 1.0103670E-01 5.7500001E-02
vertex -6.1773902E-01 1.1200000E-01 5.7500001E-02
vertex -6.5148067E-01 1.0103670E-01 5.7500001E-02
endloop
endfacet
facet normal -0.0000000E+00 0.0000000E+00 1.0000000E+00
outer loop
vertex -7.0103669E-01 5.1480699E-02 5.7500001E-02
vertex -7.1200001E-01 1.7739100E-02 5.7500001E-02
vertex -6.8018311E-01 8.0183104E-02 5.7500001E-02
endloop
endfacet
facet normal 0.0000000E+00 0.0000000E+00 1.0000000E+00
outer loop
vertex -7.1200001E-01 1.7739100E-02 5.7500001E-02
vertex -6.5148067E-01 1.0103670E-01 5.7500001E-02
vertex -6.8018311E-01 8.0183104E-02 5.7500001E-02
endloop
endfacet
facet normal 8.0901676E-01 -5.8778542E-01 0.0000000E+00
outer loop
vertex -5.1981682E-01 -8.0183141E-02 4.5000002E-02
vertex -4.9896330E-01 -5.1480751E-02 5.7500001E-02
vertex -5.1981682E-01 -8.0183141E-02 5.7500001E-02
endloop
endfacet
facet normal 8.0901676E-01 -5.8778542E-01 0.0000000E+00
outer loop
vertex -4.9896330E-01 -5.1480751E-02 4.5000002E-02
vertex -4.9896330E-01 -5.1480751E-02 5.7500001E-02
vertex -5.1981682E-01 -8.0183141E-02 4.5000002E-02
endloop
endfacet
facet normal 3.0901495E-01 9.5105720E-01 -0.0000000E+00
outer loop
vertex -5.4851919E-01 1.0103670E-01 4.5000002E-02
vertex -5.8226103E-01 1.1200000E-01 5.7500001E-02
vertex -5.4851919E-01 1.0103670E-01 5.7500001E-02
endloop
endfacet
facet normal 3.0901495E-01 9.5105720E-01 -0.0000000E+00
outer loop
vertex -5.8226103E-01 1.1200000E-01 4.5000002E-02
vertex -5.8226103E-01 1.1200000E-01 5.7500001E-02
vertex -5.4851919E-01 1.0103670E-01 4.5000002E-02
endloop
endfacet
facet normal 3.0901495E-01 9.5105714E-01 -0.0000000E+00
outer loop
vertex -5.8226103E-01 1.1200000E-01 -5.9000000E-02
vertex -5.8226103E-01 1.1200000E-01 -4.5000002E-02
vertex -5.4851919E-01 1.0103670E-01 -4.5000002E-02
endloop
endfacet
facet normal 3.0901495E-01 9.5105714E-01 -0.0000000E+00
outer loop
vertex -5.4851919E-01 1.0103670E-01 -5.9000000E-02
vertex -5.8226103E-01 1.1200000E-01 -5.9000000E-02
vertex -5.4851919E-01 1.0103670E-01 -4.5000002E-02
endloop
endfacet
facet normal 0.0000000E+00 0.0000000E+00 -1.0000000E+00
outer loop
vertex -5.3556710E-01 -6.4432882E-02 -5.9000000E-02
vertex -5.1056713E-01 -1.6000001E-02 -5.9000000E-02
vertex -5.1880980E-01 -4.1368499E-02 -5.9000000E-02
endloop
endfacet
facet normal 0.0000000E+00 0.0000000E+00 -1.0000000E+00
outer loop
vertex -5.5863148E-01 -8.1190169E-02 -5.9000000E-02
vertex -5.1056713E-01 -1.6000001E-02 -5.9000000E-02
vertex -5.3556710E-01 -6.4432882E-02 -5.9000000E-02
endloop
endfacet
facet normal -0.0000000E+00 0.0000000E+00 -1.0000000E+00
outer loop
vertex -5.5863148E-01 -8.1190169E-02 -5.9000000E-02
vertex -5.8574539E-01 -9.0000004E-02 -5.9000000E-02
vertex -5.1056713E-01 -1.6000001E-02 -5.9000000E-02
endloop
endfacet
facet normal 0.0000000E+00 0.0000000E+00 -9.9999994E-01
outer loop
vertex -5.1056713E-01 -1.6000001E-02 -5.9000000E-02
vertex -4.8800001E-01 1.7739100E-02 -5.9000000E-02
vertex -4.8800001E-01 -1.6000001E-02 -5.9000000E-02
endloop
endfacet
facet normal 0.0000000E+00 0.0000000E+00 -1.0000000E+00
outer loop
vertex -5.8574539E-01 -9.0000004E-02 -5.9000000E-02
vertex -6.1425459E-01 -9.0000004E-02 -5.9000000E-02
vertex -5.1056713E-01 -1.6000001E-02 -5.9000000E-02
endloop
endfacet
facet normal 0.0000000E+00 0.0000000E+00 -1.0000000E+00
outer loop
vertex -5.1056713E-01 -1.6000001E-02 -5.9000000E-02
vertex -4.9896330E-01 5.1480699E-02 -5.9000000E-02
vertex -4.8800001E-01 1.7739100E-02 -5.9000000E-02
endloop
endfacet
facet normal 0.0000000E+00 0.0000000E+00 -1.0000000E+00
outer loop
vertex -6.1425459E-01 -9.0000004E-02 -5.9000000E-02
vertex -6.4136851E-01 -8.1190169E-02 -5.9000000E-02
vertex -5.1056713E-01 -1.6000001E-02 -5.9000000E-02
endloop
endfacet
facet normal 0.0000000E+00 0.0000000E+00 -1.0000000E+00
outer loop
vertex -5.1056713E-01 -1.6000001E-02 -5.9000000E-02
vertex -5.1981682E-01 8.0183104E-02 -5.9000000E-02
vertex -4.9896330E-01 5.1480699E-02 -5.9000000E-02
endloop
endfacet
facet normal 0.0000000E+00 0.0000000E+00 -1.0000000E+00
outer loop
vertex -6.4136851E-01 -8.1190169E-02 -5.9000000E-02
vertex -6.6443288E-01 -6.4432882E-02 -5.9000000E-02
vertex -5.1056713E-01 -1.6000001E-02 -5.9000000E-02
endloop
endfacet
facet normal 0.0000000E+00 0.0000000E+00 -1.0000000E+00
outer loop
vertex -6.6443288E-01 -6.4432882E-02 -5.9000000E-02
vertex -6.8119019E-01 -4.1368499E-02 -5.9000000E-02
vertex -5.1056713E-01 -1.6000001E-02 -5.9000000E-02
endloop
endfacet
facet normal 0.0000000E+00 0.0000000E+00 -1.0000000E+00
outer loop
vertex -5.1056713E-01 -1.6000001E-02 -5.9000000E-02
vertex -5.4851919E-01 1.0103670E-01 -5.9000000E-02
vertex -5.1981682E-01 8.0183104E-02 -5.9000000E-02
endloop
endfacet
facet normal 0.0000000E+00 0.0000000E+00 -1.0000000E+00
outer loop
vertex -6.8119019E-01 -4.1368499E-02 -5.9000000E-02
vertex -6.9000000E-01 -1.4254600E-02 -5.9000000E-02
vertex -5.1056713E-01 -1.6000001E-02 -5.9000000E-02
endloop
endfacet
facet normal 0.0000000E+00 0.0000000E+00 -1.0000000E+00
outer loop
vertex -5.1056713E-01 -1.6000001E-02 -5.9000000E-02
vertex -5.8226103E-01 1.1200000E-01 -5.9000000E-02
vertex -5.4851919E-01 1.0103670E-01 -5.9000000E-02
endloop
endfacet
facet normal 0.0000000E+00 0.0000000E+00 -1.0000000E+00
outer loop
vertex -6.9000000E-01 -1.4254600E-02 -5.9000000E-02
vertex -5.8226103E-01 1.1200000E-01 -5.9000000E-02
vertex -5.1056713E-01 -1.6000001E-02 -5.9000000E-02
endloop
endfacet
facet normal 0.0000000E+00 0.0000000E+00 -1.0000000E+00
outer loop
vertex -6.9000000E-01 -1.4254600E-02 -5.9000000E-02
vertex -6.1773902E-01 1.1200000E-01 -5.9000000E-02
vertex -5.8226103E-01 1.1200000E-01 -5.9000000E-02
endloop
endfacet
facet normal 0.0000000E+00 0.0000000E+00 -1.0000000E+00
outer loop
vertex -6.9000000E-01 -1.4254600E-02 -5.9000000E-02
vertex -6.5148067E-01 1.0103670E-01 -5.9000000E-02
vertex -6.1773902E-01 1.1200000E-01 -5.9000000E-02
endloop
endfacet
facet normal 0.0000000E+00 0.0000000E+00 -1.0000000E+00
outer loop
vertex -6.9000000E-01 6.6671401E-02 -5.9000000E-02
vertex -6.8018311E-01 8.0183104E-02 -5.9000000E-02
vertex -6.9000000E-01 -1.4254600E-02 -5.9000000E-02
endloop
endfacet
facet normal 0.0000000E+00 0.0000000E+00 -1.0000000E+00
outer loop
vertex -6.9000000E-01 -1.4254600E-02 -5.9000000E-02
vertex -6.8018311E-01 8.0183104E-02 -5.9000000E-02
vertex -6.5148067E-01 1.0103670E-01 -5.9000000E-02
endloop
endfacet
facet normal 0.0000000E+00 1.0000000E+00 -0.0000000E+00
outer loop
vertex -5.8226103E-01 1.1200000E-01 4.5000002E-02
vertex -6.1773902E-01 1.1200000E-01 5.7500001E-02
vertex -5.8226103E-01 1.1200000E-01 5.7500001E-02
endloop
endfacet
facet normal 0.0000000E+00 1.0000000E+00 0.0000000E+00
outer loop
vertex -6.1773902E-01 1.1200000E-01 4.5000002E-02
vertex -6.1773902E-01 1.1200000E-01 5.7500001E-02
vertex -5.8226103E-01 1.1200000E-01 4.5000002E-02
endloop
endfacet
facet normal 0.0000000E+00 -1.0000000E+00 0.0000000E+00
outer loop
vertex -6.1773902E-01 -1.1200000E-01 4.5000002E-02
vertex -5.8226103E-01 -1.1200000E-01 5.7500001E-02
vertex -6.1773902E-01 -1.1200000E-01 5.7500001E-02
endloop
endfacet
facet normal 0.0000000E+00 -1.0000000E+00 0.0000000E+00
outer loop
vertex -5.8226103E-01 -1.1200000E-01 4.5000002E-02
vertex -5.8226103E-01 -1.1200000E-01 5.7500001E-02
vertex -6.1773902E-01 -1.1200000E-01 4.5000002E-02
endloop
endfacet
facet normal -8.0901623E-01 5.8778638E-01 0.0000000E+00
outer loop
vertex -6.8018311E-01 8.0183104E-02 4.5000002E-02
vertex -7.0103669E-01 5.1480699E-02 5.7500001E-02
vertex -6.8018311E-01 8.0183104E-02 5.7500001E-02
endloop
endfacet
facet normal -8.0901623E-01 5.8778638E-01 0.0000000E+00
outer loop
vertex -7.0103669E-01 5.1480699E-02 4.5000002E-02
vertex -7.0103669E-01 5.1480699E-02 5.7500001E-02
vertex -6.8018311E-01 8.0183104E-02 4.5000002E-02
endloop
endfacet
facet normal -9.5105636E-01 3.0901724E-01 0.0000000E+00
outer loop
vertex -7.0103669E-01 5.1480699E-02 4.5000002E-02
vertex -7.1200001E-01 1.7739100E-02 5.7500001E-02
vertex -7.0103669E-01 5.1480699E-02 5.7500001E-02
endloop
endfacet
facet normal -9.5105636E-01 3.0901724E-01 0.0000000E+00
outer loop
vertex -7.1200001E-01 1.7739100E-02 4.5000002E-02
vertex -7.1200001E-01 1.7739100E-02 5.7500001E-02
vertex -7.0103669E-01 5.1480699E-02 4.5000002E-02
endloop
endfacet
facet normal -9.5105654E-01 -3.0901679E-01 0.0000000E+00
outer loop
vertex -7.1200001E-01 -1.7739100E-02 4.5000002E-02
vertex -7.0103669E-01 -5.1480751E-02 5.7500001E-02
vertex -7.1200001E-01 -1.7739100E-02 5.7500001E-02
endloop
endfacet
facet normal -9.5105654E-01 -3.0901679E-01 0.0000000E+00
outer loop
vertex -7.0103669E-01 -5.1480751E-02 4.5000002E-02
vertex -7.0103669E-01 -5.1480751E-02 5.7500001E-02
vertex -7.1200001E-01 -1.7739100E-02 4.5000002E-02
endloop
endfacet
facet normal -5.8778489E-01 -8.0901730E-01 0.0000000E+00
outer loop
vertex -6.8018311E-01 -8.0183141E-02 4.5000002E-02
vertex -6.5148067E-01 -1.0103666E-01 5.7500001E-02
vertex -6.8018311E-01 -8.0183141E-02 5.7500001E-02
endloop
endfacet
facet normal -5.8778489E-01 -8.0901730E-01 0.0000000E+00
outer loop
vertex -6.5148067E-01 -1.0103666E-01 4.5000002E-02
vertex -6.5148067E-01 -1.0103666E-01 5.7500001E-02
vertex -6.8018311E-01 -8.0183141E-02 4.5000002E-02
endloop
endfacet
facet normal 5.8778566E-01 -8.0901670E-01 0.0000000E+00
outer loop
vertex -5.4851919E-01 -1.0103666E-01 4.5000002E-02
vertex -5.1981682E-01 -8.0183141E-02 5.7500001E-02
vertex -5.4851919E-01 -1.0103666E-01 5.7500001E-02
endloop
endfacet
facet normal 5.8778566E-01 -8.0901670E-01 0.0000000E+00
outer loop
vertex -5.1981682E-01 -8.0183141E-02 4.5000002E-02
vertex -5.1981682E-01 -8.0183141E-02 5.7500001E-02
vertex -5.4851919E-01 -1.0103666E-01 4.5000002E-02
endloop
endfacet
facet normal -1.0000000E+00 0.0000000E+00 0.0000000E+00
outer loop
vertex -7.1200001E-01 1.7739100E-02 4.5000002E-02
vertex -7.1200001E-01 -1.7739100E-02 5.7500001E-02
vertex -7.1200001E-01 1.7739100E-02 5.7500001E-02
endloop
endfacet
facet normal -1.0000000E+00 0.0000000E+00 0.0000000E+00
outer loop
vertex -7.1200001E-01 -1.7739100E-02 4.5000002E-02
vertex -7.1200001E-01 -1.7739100E-02 5.7500001E-02
vertex -7.1200001E-01 1.7739100E-02 4.5000002E-02
endloop
endfacet
facet normal -3.0901736E-01 -9.5105636E-01 0.0000000E+00
outer loop
vertex -6.5148067E-01 -1.0103666E-01 4.5000002E-02
vertex -6.1773902E-01 -1.1200000E-01 5.7500001E-02
vertex -6.5148067E-01 -1.0103666E-01 5.7500001E-02
endloop
endfacet
facet normal -3.0901736E-01 -9.5105636E-01 0.0000000E+00
outer loop
vertex -6.1773902E-01 -1.1200000E-01 4.5000002E-02
vertex -6.1773902E-01 -1.1200000E-01 5.7500001E-02
vertex -6.5148067E-01 -1.0103666E-01 4.5000002E-02
endloop
endfacet
facet normal -5.8778626E-01 8.0901635E-01 0.0000000E+00
outer loop
vertex -6.5148067E-01 1.0103670E-01 4.5000002E-02
vertex -6.8018311E-01 8.0183104E-02 5.7500001E-02
vertex -6.5148067E-01 1.0103670E-01 5.7500001E-02
endloop
endfacet
facet normal -5.8778626E-01 8.0901635E-01 0.0000000E+00
outer loop
vertex -6.8018311E-01 8.0183104E-02 4.5000002E-02
vertex -6.8018311E-01 8.0183104E-02 5.7500001E-02
vertex -6.5148067E-01 1.0103670E-01 4.5000002E-02
endloop
endfacet
facet normal 3.0901587E-01 -9.5105690E-01 0.0000000E+00
outer loop
vertex -5.8226103E-01 -1.1200000E-01 4.5000002E-02
vertex -5.4851919E-01 -1.0103666E-01 4.5000002E-02
vertex -5.8226103E-01 -1.1200000E-01 5.7500001E-02
endloop
endfacet
facet normal 3.0901587E-01 -9.5105690E-01 0.0000000E+00
outer loop
vertex -5.4851919E-01 -1.0103666E-01 4.5000002E-02
vertex -5.4851919E-01 -1.0103666E-01 5.7500001E-02
vertex -5.8226103E-01 -1.1200000E-01 5.7500001E-02
endloop
endfacet
facet normal -8.0901599E-01 -5.8778650E-01 0.0000000E+00
outer loop
vertex -7.0103669E-01 -5.1480751E-02 4.5000002E-02
vertex -6.8018311E-01 -8.0183141E-02 5.7500001E-02
vertex -7.0103669E-01 -5.1480751E-02 5.7500001E-02
endloop
endfacet
facet normal -8.0901599E-01 -5.8778650E-01 0.0000000E+00
outer loop
vertex -6.8018311E-01 -8.0183141E-02 4.5000002E-02
vertex -6.8018311E-01 -8.0183141E-02 5.7500001E-02
vertex -7.0103669E-01 -5.1480751E-02 4.5000002E-02
endloop
endfacet
facet normal -3.0901644E-01 9.5105678E-01 0.0000000E+00
outer loop
vertex -6.1773902E-01 1.1200000E-01 4.5000002E-02
vertex -6.5148067E-01 1.0103670E-01 5.7500001E-02
vertex -6.1773902E-01 1.1200000E-01 5.7500001E-02
endloop
endfacet
facet normal -3.0901644E-01 9.5105678E-01 0.0000000E+00
outer loop
vertex -6.5148067E-01 1.0103670E-01 4.5000002E-02
vertex -6.5148067E-01 1.0103670E-01 5.7500001E-02
vertex -6.1773902E-01 1.1200000E-01 4.5000002E-02
endloop
endfacet
facet normal 8.0901605E-01 -5.8778650E-01 0.0000000E+00
outer loop
vertex -5.1880980E-01 -4.1368499E-02 -5.9000000E-02
vertex -5.1880980E-01 -4.1368499E-02 -4.5000002E-02
vertex -5.3556710E-01 -6.4432882E-02 -5.9000000E-02
endloop
endfacet
facet normal 8.0901605E-01 -5.8778650E-01 0.0000000E+00
outer loop
vertex -5.3556710E-01 -6.4432882E-02 -5.9000000E-02
vertex -5.1880980E-01 -4.1368499E-02 -4.5000002E-02
vertex -5.3556710E-01 -6.4432882E-02 -4.5000002E-02
endloop
endfacet
facet normal 0.0000000E+00 -1.0000000E+00 0.0000000E+00
outer loop
vertex -5.8574539E-01 -9.0000004E-02 -5.9000000E-02
vertex -5.8574539E-01 -9.0000004E-02 -4.5000002E-02
vertex -6.1425459E-01 -9.0000004E-02 -5.9000000E-02
endloop
endfacet
facet normal 0.0000000E+00 -1.0000000E+00 0.0000000E+00
outer loop
vertex -6.1425459E-01 -9.0000004E-02 -5.9000000E-02
vertex -5.8574539E-01 -9.0000004E-02 -4.5000002E-02
vertex -6.1425459E-01 -9.0000004E-02 -4.5000002E-02
endloop
endfacet
facet normal -8.0901527E-01 5.8778757E-01 0.0000000E+00
outer loop
vertex -6.9000000E-01 6.6671401E-02 -5.9000000E-02
vertex -6.9000000E-01 6.6671401E-02 -4.5000002E-02
vertex -6.8018311E-01 8.0183104E-02 -4.5000002E-02
endloop
endfacet
facet normal -8.0901527E-01 5.8778757E-01 0.0000000E+00
outer loop
vertex -6.8018311E-01 8.0183104E-02 -5.9000000E-02
vertex -6.9000000E-01 6.6671401E-02 -5.9000000E-02
vertex -6.8018311E-01 8.0183104E-02 -4.5000002E-02
endloop
endfacet
facet normal -3.0901667E-01 -9.5105672E-01 0.0000000E+00
outer loop
vertex -6.1425459E-01 -9.0000004E-02 -5.9000000E-02
vertex -6.1425459E-01 -9.0000004E-02 -4.5000002E-02
vertex -6.4136851E-01 -8.1190169E-02 -4.5000002E-02
endloop
endfacet
facet normal -3.0901667E-01 -9.5105672E-01 0.0000000E+00
outer loop
vertex -6.4136851E-01 -8.1190169E-02 -5.9000000E-02
vertex -6.1425459E-01 -9.0000004E-02 -5.9000000E-02
vertex -6.4136851E-01 -8.1190169E-02 -4.5000002E-02
endloop
endfacet
facet normal -5.8778614E-01 -8.0901635E-01 0.0000000E+00
outer loop
vertex -6.4136851E-01 -8.1190169E-02 -5.9000000E-02
vertex -6.4136851E-01 -8.1190169E-02 -4.5000002E-02
vertex -6.6443288E-01 -6.4432882E-02 -4.5000002E-02
endloop
endfacet
facet normal -5.8778614E-01 -8.0901635E-01 0.0000000E+00
outer loop
vertex -6.6443288E-01 -6.4432882E-02 -5.9000000E-02
vertex -6.4136851E-01 -8.1190169E-02 -5.9000000E-02
vertex -6.6443288E-01 -6.4432882E-02 -4.5000002E-02
endloop
endfacet
facet normal -1.0000000E+00 0.0000000E+00 0.0000000E+00
outer loop
vertex -6.9000000E-01 -1.4254600E-02 -5.9000000E-02
vertex -6.9000000E-01 -1.4254600E-02 -4.5000002E-02
vertex -6.9000000E-01 6.6671401E-02 -4.5000002E-02
endloop
endfacet
facet normal -1.0000000E+00 0.0000000E+00 0.0000000E+00
outer loop
vertex -6.9000000E-01 6.6671401E-02 -5.9000000E-02
vertex -6.9000000E-01 -1.4254600E-02 -5.9000000E-02
vertex -6.9000000E-01 6.6671401E-02 -4.5000002E-02
endloop
endfacet
facet normal 5.8778614E-01 -8.0901635E-01 0.0000000E+00
outer loop
vertex -5.3556710E-01 -6.4432882E-02 -5.9000000E-02
vertex -5.3556710E-01 -6.4432882E-02 -4.5000002E-02
vertex -5.5863148E-01 -8.1190169E-02 -4.5000002E-02
endloop
endfacet
facet normal 5.8778614E-01 -8.0901635E-01 0.0000000E+00
outer loop
vertex -5.5863148E-01 -8.1190169E-02 -5.9000000E-02
vertex -5.3556710E-01 -6.4432882E-02 -5.9000000E-02
vertex -5.5863148E-01 -8.1190169E-02 -4.5000002E-02
endloop
endfacet
facet normal -8.0901605E-01 -5.8778650E-01 0.0000000E+00
outer loop
vertex -6.6443288E-01 -6.4432882E-02 -5.9000000E-02
vertex -6.6443288E-01 -6.4432882E-02 -4.5000002E-02
vertex -6.8119019E-01 -4.1368499E-02 -4.5000002E-02
endloop
endfacet
facet normal -8.0901605E-01 -5.8778650E-01 0.0000000E+00
outer loop
vertex -6.8119019E-01 -4.1368499E-02 -5.9000000E-02
vertex -6.6443288E-01 -6.4432882E-02 -5.9000000E-02
vertex -6.8119019E-01 -4.1368499E-02 -4.5000002E-02
endloop
endfacet
facet normal -9.5105684E-01 -3.0901587E-01 0.0000000E+00
outer loop
vertex -6.8119019E-01 -4.1368499E-02 -5.9000000E-02
vertex -6.8119019E-01 -4.1368499E-02 -4.5000002E-02
vertex -6.9000000E-01 -1.4254600E-02 -5.9000000E-02
endloop
endfacet
facet normal -9.5105684E-01 -3.0901587E-01 0.0000000E+00
outer loop
vertex -6.9000000E-01 -1.4254600E-02 -5.9000000E-02
vertex -6.8119019E-01 -4.1368499E-02 -4.5000002E-02
vertex -6.9000000E-01 -1.4254600E-02 -4.5000002E-02
endloop
endfacet
facet normal -5.8778620E-01 8.0901629E-01 0.0000000E+00
outer loop
vertex -6.8018311E-01 8.0183104E-02 -5.9000000E-02
vertex -6.8018311E-01 8.0183104E-02 -4.5000002E-02
vertex -6.5148067E-01 1.0103670E-01 -5.9000000E-02
endloop
endfacet
facet normal -5.8778620E-01 8.0901629E-01 0.0000000E+00
outer loop
vertex -6.5148067E-01 1.0103670E-01 -5.9000000E-02
vertex -6.8018311E-01 8.0183104E-02 -4.5000002E-02
vertex -6.5148067E-01 1.0103670E-01 -4.5000002E-02
endloop
endfacet
facet normal 3.0901667E-01 -9.5105672E-01 0.0000000E+00
outer loop
vertex -5.5863148E-01 -8.1190169E-02 -5.9000000E-02
vertex -5.5863148E-01 -8.1190169E-02 -4.5000002E-02
vertex -5.8574539E-01 -9.0000004E-02 -4.5000002E-02
endloop
endfacet
facet normal 3.0901667E-01 -9.5105672E-01 0.0000000E+00
outer loop
vertex -5.8574539E-01 -9.0000004E-02 -5.9000000E-02
vertex -5.5863148E-01 -8.1190169E-02 -5.9000000E-02
vertex -5.8574539E-01 -9.0000004E-02 -4.5000002E-02
endloop
endfacet
facet normal 0.0000000E+00 1.0000000E+00 0.0000000E+00
outer loop
vertex -6.1773902E-01 1.1200000E-01 -5.9000000E-02
vertex -6.1773902E-01 1.1200000E-01 -4.5000002E-02
vertex -5.8226103E-01 1.1200000E-01 -4.5000002E-02
endloop
endfacet
facet normal 0.0000000E+00 1.0000000E+00 -0.0000000E+00
outer loop
vertex -5.8226103E-01 1.1200000E-01 -5.9000000E-02
vertex -6.1773902E-01 1.1200000E-01 -5.9000000E-02
vertex -5.8226103E-01 1.1200000E-01 -4.5000002E-02
endloop
endfacet
facet normal -3.0901644E-01 9.5105666E-01 0.0000000E+00
outer loop
vertex -6.5148067E-01 1.0103670E-01 -5.9000000E-02
vertex -6.5148067E-01 1.0103670E-01 -4.5000002E-02
vertex -6.1773902E-01 1.1200000E-01 -4.5000002E-02
endloop
endfacet
facet normal -3.0901644E-01 9.5105666E-01 0.0000000E+00
outer loop
vertex -6.1773902E-01 1.1200000E-01 -5.9000000E-02
vertex -6.5148067E-01 1.0103670E-01 -5.9000000E-02
vertex -6.1773902E-01 1.1200000E-01 -4.5000002E-02
endloop
endfacet
endsolid Created by stlwrite.m 07-Jun-2019 02:36:58
