solid Created by stlwrite.m 04-Dec-2015 19:02:08
facet normal 2.1376260E-01 -9.6600306E-01 -1.4540832E-01
outer loop
vertex 3.4731000E-03 -1.9852551E-02 -8.6500001E-04
vertex -1.2246000E-03 -2.0269660E-02 -4.9999999E-03
vertex 9.3614003E-03 -1.7927131E-02 -4.9999999E-03
endloop
endfacet
facet normal 3.4193337E-01 -9.3839496E-01 4.9964175E-02
outer loop
vertex 1.0021900E-02 -1.7420379E-02 -2.7000001E-06
vertex 3.4731000E-03 -1.9852551E-02 -8.6500001E-04
vertex 9.3614003E-03 -1.7927131E-02 -4.9999999E-03
endloop
endfacet
facet normal 6.6794974E-01 -7.4215585E-01 -5.5207092E-02
outer loop
vertex 1.6073501E-02 -1.2251010E-02 -9.5199997E-05
vertex 9.3614003E-03 -1.7927131E-02 -4.9999999E-03
vertex 1.7283600E-02 -1.0797050E-02 -4.9999999E-03
endloop
endfacet
facet normal 6.4940536E-01 -7.6039243E-01 -8.7250741E-03
outer loop
vertex 1.6073501E-02 -1.2251010E-02 -9.5199997E-05
vertex 1.0021900E-02 -1.7420379E-02 -2.7000001E-06
vertex 9.3614003E-03 -1.7927131E-02 -4.9999999E-03
endloop
endfacet
facet normal 8.9936346E-01 -4.2666411E-01 9.5409825E-02
outer loop
vertex 1.9578099E-02 -4.8439149E-03 -6.7999999E-06
vertex 1.6073501E-02 -1.2251010E-02 -9.5199997E-05
vertex 1.7283600E-02 -1.0797050E-02 -4.9999999E-03
endloop
endfacet
facet normal 9.5382172E-01 -2.8286117E-01 -1.0106396E-01
outer loop
vertex 1.9578099E-02 -4.8439149E-03 -6.7999999E-06
vertex 1.7283600E-02 -1.0797050E-02 -4.9999999E-03
vertex 2.0183200E-02 -1.0209570E-03 -4.9958001E-03
endloop
endfacet
facet normal 9.9538749E-01 -6.1909158E-02 7.3287956E-02
outer loop
vertex 1.9996300E-02 1.6752060E-03 -1.7980000E-04
vertex 1.9578099E-02 -4.8439149E-03 -6.7999999E-06
vertex 2.0183200E-02 -1.0209570E-03 -4.9958001E-03
endloop
endfacet
facet normal 9.9000728E-01 1.3589470E-01 -3.7658274E-02
outer loop
vertex 1.9996300E-02 1.6752060E-03 -1.7980000E-04
vertex 2.0183200E-02 -1.0209570E-03 -4.9958001E-03
vertex 1.9153699E-02 6.4779008E-03 -4.9999999E-03
endloop
endfacet
facet normal 9.8123598E-01 1.9181299E-01 1.9590238E-02
outer loop
vertex 1.8978899E-02 6.8620988E-03 -6.4000001E-06
vertex 1.9996300E-02 1.6752060E-03 -1.7980000E-04
vertex 1.9153699E-02 6.4779008E-03 -4.9999999E-03
endloop
endfacet
facet normal 8.7936413E-01 4.7611389E-01 -5.8493339E-03
outer loop
vertex 1.8978899E-02 6.8620988E-03 -6.4000001E-06
vertex 1.9153699E-02 6.4779008E-03 -4.9999999E-03
vertex 1.6206199E-02 1.1921820E-02 -4.9999999E-03
endloop
endfacet
facet normal 8.6781353E-01 4.9643943E-01 2.1158798E-02
outer loop
vertex 1.5774500E-02 1.2466900E-02 -8.3100000E-05
vertex 1.8978899E-02 6.8620988E-03 -6.4000001E-06
vertex 1.6206199E-02 1.1921820E-02 -4.9999999E-03
endloop
endfacet
facet normal 6.9730055E-01 7.1654743E-01 -1.8212924E-02
outer loop
vertex 1.5774500E-02 1.2466900E-02 -8.3100000E-05
vertex 1.6206199E-02 1.1921820E-02 -4.9999999E-03
vertex 1.0860100E-02 1.7124319E-02 -4.9999999E-03
endloop
endfacet
facet normal 6.9662476E-01 7.1723700E-01 -1.6884394E-02
outer loop
vertex 1.1846600E-02 1.6263500E-02 -8.6550001E-04
vertex 1.5774500E-02 1.2466900E-02 -8.3100000E-05
vertex 1.0860100E-02 1.7124319E-02 -4.9999999E-03
endloop
endfacet
facet normal 4.6612114E-01 8.8175625E-01 7.2367832E-02
outer loop
vertex 6.7208000E-03 1.8902371E-02 -3.2000000E-06
vertex 1.1846600E-02 1.6263500E-02 -8.6550001E-04
vertex 1.0860100E-02 1.7124319E-02 -4.9999999E-03
endloop
endfacet
facet normal 2.7154499E-01 9.5552248E-01 -1.1506596E-01
outer loop
vertex 6.7208000E-03 1.8902371E-02 -3.2000000E-06
vertex 1.0860100E-02 1.7124319E-02 -4.9999999E-03
vertex -4.7080001E-04 2.0344390E-02 -4.9999999E-03
endloop
endfacet
facet normal 1.8168809E-01 9.8310518E-01 2.2219868E-02
outer loop
vertex 5.0979998E-04 2.0050310E-02 -6.7999999E-06
vertex 6.7208000E-03 1.8902371E-02 -3.2000000E-06
vertex -4.7080001E-04 2.0344390E-02 -4.9999999E-03
endloop
endfacet
facet normal 4.1441023E-01 5.7424426E-01 7.0605075E-01
outer loop
vertex 1.1846600E-02 1.6263500E-02 -8.6550001E-04
vertex 6.7208000E-03 1.8902371E-02 -3.2000000E-06
vertex 1.5774500E-02 1.2466900E-02 -8.3100000E-05
endloop
endfacet
facet normal 5.4990102E-02 -4.6191019E-01 8.8522035E-01
outer loop
vertex 3.4731000E-03 -1.9852551E-02 -8.6500001E-04
vertex 1.0021900E-02 -1.7420379E-02 -2.7000001E-06
vertex -3.1955999E-03 -1.8988740E-02 0.0000000E+00
endloop
endfacet
facet normal 6.6598397E-01 -7.4566603E-01 -2.1155018E-02
outer loop
vertex 1.3112300E-02 3.6042891E-04 -4.9999999E-03
vertex 1.5608600E-02 2.5899741E-03 -4.9999999E-03
vertex 1.6105000E-02 2.8914751E-03 0.0000000E+00
endloop
endfacet
facet normal 7.0516163E-01 -7.0609444E-01 -6.4635858E-02
outer loop
vertex 1.3112300E-02 3.6042891E-04 -4.9999999E-03
vertex 1.6105000E-02 2.8914751E-03 0.0000000E+00
vertex 1.3209700E-02 3.9945089E-18 0.0000000E+00
endloop
endfacet
facet normal 7.4274915E-01 6.6863102E-01 3.5444032E-02
outer loop
vertex 1.5969301E-02 -2.8132719E-03 -4.9999999E-03
vertex 1.3112300E-02 3.6042891E-04 -4.9999999E-03
vertex 1.5730700E-02 -2.8132710E-03 0.0000000E+00
endloop
endfacet
facet normal 7.4431288E-01 6.6698617E-01 3.3581067E-02
outer loop
vertex 1.3112300E-02 3.6042891E-04 -4.9999999E-03
vertex 1.3209700E-02 3.9945089E-18 0.0000000E+00
vertex 1.5730700E-02 -2.8132710E-03 0.0000000E+00
endloop
endfacet
facet normal 7.9426616E-01 -5.6656420E-01 2.1942240E-01
outer loop
vertex -1.3232400E-02 -1.2404460E-02 -4.9999999E-03
vertex -1.0615200E-02 -8.7354090E-03 -4.9999999E-03
vertex -1.2422000E-02 -9.3319314E-03 0.0000000E+00
endloop
endfacet
facet normal 9.9024379E-01 -4.8758484E-02 -1.3053629E-01
outer loop
vertex -1.3232400E-02 -1.2404460E-02 -4.9999999E-03
vertex -1.2422000E-02 -9.3319314E-03 0.0000000E+00
vertex -1.2602900E-02 -1.3005860E-02 0.0000000E+00
endloop
endfacet
facet normal 6.5991002E-01 -7.3887497E-01 -1.3631761E-01
outer loop
vertex -1.3336600E-02 1.1439710E-02 -4.9999999E-03
vertex -1.1239700E-02 1.3312510E-02 -4.9999999E-03
vertex -1.0094000E-02 1.3413300E-02 0.0000000E+00
endloop
endfacet
facet normal 5.6911153E-01 -8.2102770E-01 -4.5005813E-02
outer loop
vertex -1.3336600E-02 1.1439710E-02 -4.9999999E-03
vertex -1.0094000E-02 1.3413300E-02 0.0000000E+00
vertex -1.3378000E-02 1.1136930E-02 0.0000000E+00
endloop
endfacet
facet normal 7.0403767E-01 7.0848852E-01 4.8732594E-02
outer loop
vertex -1.0615200E-02 8.7354062E-03 -4.9999999E-03
vertex -1.3336600E-02 1.1439710E-02 -4.9999999E-03
vertex -1.3378000E-02 1.1136930E-02 0.0000000E+00
endloop
endfacet
facet normal 5.3350359E-01 8.3885932E-01 -1.0811542E-01
outer loop
vertex -1.0615200E-02 8.7354062E-03 -4.9999999E-03
vertex -1.3378000E-02 1.1136930E-02 0.0000000E+00
vertex -9.8767998E-03 8.9102127E-03 0.0000000E+00
endloop
endfacet
facet normal 5.1223594E-01 -8.5705090E-01 5.5478673E-02
outer loop
vertex 8.9373002E-03 1.1439690E-02 -4.9999999E-03
vertex 1.2160300E-02 1.3365990E-02 -4.9999999E-03
vertex 1.1751800E-02 1.3445500E-02 0.0000000E+00
endloop
endfacet
facet normal 5.4642153E-01 -8.3703512E-01 2.8206015E-02
outer loop
vertex 8.9373002E-03 1.1439690E-02 -4.9999999E-03
vertex 1.1751800E-02 1.3445500E-02 0.0000000E+00
vertex 9.0947002E-03 1.1710930E-02 0.0000000E+00
endloop
endfacet
facet normal 8.6442137E-01 4.9982429E-01 -5.4326393E-02
outer loop
vertex 8.9373002E-03 1.1439690E-02 -4.9999999E-03
vertex 9.0947002E-03 1.1710930E-02 0.0000000E+00
vertex 1.0815200E-02 8.7354099E-03 0.0000000E+00
endloop
endfacet
facet normal 6.0276318E-01 7.7436757E-01 1.9243555E-01
outer loop
vertex 1.2325200E-02 8.8025685E-03 -4.9999999E-03
vertex 8.9373002E-03 1.1439690E-02 -4.9999999E-03
vertex 1.0815200E-02 8.7354099E-03 0.0000000E+00
endloop
endfacet
facet normal 8.6159043E-02 -9.8704147E-01 -1.3537253E-01
outer loop
vertex 1.1631100E-02 -8.8741938E-03 -4.9999999E-03
vertex 1.2927100E-02 -9.4468147E-03 0.0000000E+00
vertex 9.4319005E-03 -9.7519113E-03 0.0000000E+00
endloop
endfacet
facet normal 6.6428280E-01 -7.2923094E-01 1.6416638E-01
outer loop
vertex 8.7941000E-03 -1.1458520E-02 -4.9999999E-03
vertex 1.1631100E-02 -8.8741938E-03 -4.9999999E-03
vertex 9.4319005E-03 -9.7519113E-03 0.0000000E+00
endloop
endfacet
facet normal 9.7210288E-01 1.5429106E-01 -1.7666443E-01
outer loop
vertex 8.7941000E-03 -1.1458520E-02 -4.9999999E-03
vertex 9.4319005E-03 -9.7519113E-03 0.0000000E+00
vertex 9.9686002E-03 -1.3133360E-02 0.0000000E+00
endloop
endfacet
facet normal 4.9670634E-01 8.5140187E-01 1.6851610E-01
outer loop
vertex 1.1902200E-02 -1.3271780E-02 -4.9999999E-03
vertex 8.7941000E-03 -1.1458520E-02 -4.9999999E-03
vertex 9.9686002E-03 -1.3133360E-02 0.0000000E+00
endloop
endfacet
facet normal 9.9470758E-01 9.5794767E-02 -3.7152875E-02
outer loop
vertex -8.8788001E-03 -5.3254608E-03 -2.0000000E-06
vertex -9.1799004E-03 -4.1373302E-03 -4.9999999E-03
vertex -9.8074004E-03 2.3784640E-03 -4.9999999E-03
endloop
endfacet
facet normal 1.1744861E-01 -9.8779780E-01 -1.0228097E-01
outer loop
vertex 1.9749000E-03 9.9200942E-03 -2.1000001E-06
vertex -4.8766001E-03 9.1054961E-03 -2.4999999E-06
vertex -1.8848000E-03 9.9786827E-03 -4.9999999E-03
endloop
endfacet
facet normal 9.9476838E-01 9.4082698E-02 -3.9803140E-02
outer loop
vertex -9.6548004E-03 2.8797919E-03 -1.2000000E-06
vertex -8.8788001E-03 -5.3254608E-03 -2.0000000E-06
vertex -9.8074004E-03 2.3784640E-03 -4.9999999E-03
endloop
endfacet
facet normal 1.4533253E-01 9.8078871E-01 1.3012332E-01
outer loop
vertex -1.9624000E-03 -9.9711083E-03 -1.7000000E-06
vertex 2.6342000E-03 -9.9890940E-03 -4.9999999E-03
vertex -4.8713000E-03 -8.8769346E-03 -4.9999999E-03
endloop
endfacet
facet normal 5.5198747E-01 8.2178497E-01 -1.4134823E-01
outer loop
vertex -8.8788001E-03 -5.3254608E-03 -2.0000000E-06
vertex -1.9624000E-03 -9.9711083E-03 -1.7000000E-06
vertex -4.8713000E-03 -8.8769346E-03 -4.9999999E-03
endloop
endfacet
facet normal 7.8976923E-01 -6.0616404E-01 -9.3965769E-02
outer loop
vertex -4.8766001E-03 9.1054961E-03 -2.4999999E-06
vertex -9.6548004E-03 2.8797919E-03 -1.2000000E-06
vertex -6.8382998E-03 7.3243012E-03 -4.9999999E-03
endloop
endfacet
facet normal 8.5709321E-01 -5.1453286E-01 2.5437564E-02
outer loop
vertex -9.6548004E-03 2.8797919E-03 -1.2000000E-06
vertex -9.8074004E-03 2.3784640E-03 -4.9999999E-03
vertex -6.8382998E-03 7.3243012E-03 -4.9999999E-03
endloop
endfacet
facet normal 7.3507792E-01 6.6823232E-01 1.1456886E-01
outer loop
vertex -8.8788001E-03 -5.3254608E-03 -2.0000000E-06
vertex -4.8713000E-03 -8.8769346E-03 -4.9999999E-03
vertex -9.1799004E-03 -4.1373302E-03 -4.9999999E-03
endloop
endfacet
facet normal 4.6845418E-01 -8.7421030E-01 1.2769838E-01
outer loop
vertex -4.8766001E-03 9.1054961E-03 -2.4999999E-06
vertex -6.8382998E-03 7.3243012E-03 -4.9999999E-03
vertex -1.8848000E-03 9.9786827E-03 -4.9999999E-03
endloop
endfacet
facet normal -1.4103273E-01 9.8628122E-01 8.5785121E-02
outer loop
vertex -5.4437001E-03 1.9272350E-02 -8.5020001E-04
vertex 5.0979998E-04 2.0050310E-02 -6.7999999E-06
vertex -4.7080001E-04 2.0344390E-02 -4.9999999E-03
endloop
endfacet
facet normal -2.9536331E-01 9.4917631E-01 -1.0874199E-01
outer loop
vertex -5.4437001E-03 1.9272350E-02 -8.5020001E-04
vertex -4.7080001E-04 2.0344390E-02 -4.9999999E-03
vertex -9.9568004E-03 1.7392550E-02 -4.9999999E-03
endloop
endfacet
facet normal -4.0394682E-01 9.1443849E-01 2.5083357E-02
outer loop
vertex -1.0593300E-02 1.6974300E-02 -2.6000000E-06
vertex -5.4437001E-03 1.9272350E-02 -8.5020001E-04
vertex -9.9568004E-03 1.7392550E-02 -4.9999999E-03
endloop
endfacet
facet normal -6.3841420E-01 7.6950717E-01 -1.6909638E-02
outer loop
vertex -1.0593300E-02 1.6974300E-02 -2.6000000E-06
vertex -9.9568004E-03 1.7392550E-02 -4.9999999E-03
vertex -1.5136900E-02 1.3094930E-02 -4.9999999E-03
endloop
endfacet
facet normal -6.5987062E-01 7.5119114E-01 1.6816827E-02
outer loop
vertex -1.5212200E-02 1.2936470E-02 -8.7639998E-04
vertex -1.0593300E-02 1.6974300E-02 -2.6000000E-06
vertex -1.5136900E-02 1.3094930E-02 -4.9999999E-03
endloop
endfacet
facet normal -8.5197103E-01 5.2343535E-01 -1.2670223E-02
outer loop
vertex -1.8010700E-02 8.5383216E-03 -3.7000000E-06
vertex -1.5136900E-02 1.3094930E-02 -4.9999999E-03
vertex -1.8369401E-02 7.8335414E-03 -4.9999999E-03
endloop
endfacet
facet normal -8.4320468E-01 5.3756684E-01 5.2599842E-03
outer loop
vertex -1.8010700E-02 8.5383216E-03 -3.7000000E-06
vertex -1.5212200E-02 1.2936470E-02 -8.7639998E-04
vertex -1.5136900E-02 1.3094930E-02 -4.9999999E-03
endloop
endfacet
facet normal -9.6294838E-01 2.6785764E-01 3.1349123E-02
outer loop
vertex -1.9970300E-02 1.4939340E-03 -6.8999998E-06
vertex -1.8010700E-02 8.5383216E-03 -3.7000000E-06
vertex -1.8369401E-02 7.8335414E-03 -4.9999999E-03
endloop
endfacet
facet normal -9.7283399E-01 2.3072591E-01 -1.8965591E-02
outer loop
vertex -1.9970300E-02 1.4939340E-03 -6.8999998E-06
vertex -1.8369401E-02 7.8335414E-03 -4.9999999E-03
vertex -2.0050200E-02 7.4661197E-04 -4.9999999E-03
endloop
endfacet
facet normal -9.8035032E-01 -1.9549185E-01 -2.6386281E-02
outer loop
vertex -1.8460400E-02 -7.9001980E-03 -4.2000001E-06
vertex -2.0050200E-02 7.4661197E-04 -4.9999999E-03
vertex -1.8185800E-02 -8.6029591E-03 -4.9999999E-03
endloop
endfacet
facet normal -9.8655874E-01 -1.5855618E-01 3.9518215E-02
outer loop
vertex -1.8460400E-02 -7.9001980E-03 -4.2000001E-06
vertex -1.9970300E-02 1.4939340E-03 -6.8999998E-06
vertex -2.0050200E-02 7.4661197E-04 -4.9999999E-03
endloop
endfacet
facet normal -8.1692183E-01 -5.7561940E-01 3.6069501E-02
outer loop
vertex -1.4551300E-02 -1.3741610E-02 -4.6895999E-03
vertex -1.8460400E-02 -7.9001980E-03 -4.2000001E-06
vertex -1.8185800E-02 -8.6029591E-03 -4.9999999E-03
endloop
endfacet
facet normal -6.2783706E-01 -7.7803659E-01 2.1902114E-02
outer loop
vertex -9.6364003E-03 -1.7599409E-02 -8.4310002E-04
vertex -1.4551300E-02 -1.3741610E-02 -4.6895999E-03
vertex -1.0257800E-02 -1.7214989E-02 -4.9999999E-03
endloop
endfacet
facet normal -3.2008785E-01 -9.4655621E-01 -3.9686486E-02
outer loop
vertex -9.6364003E-03 -1.7599409E-02 -8.4310002E-04
vertex -1.0257800E-02 -1.7214989E-02 -4.9999999E-03
vertex -1.2246000E-03 -2.0269660E-02 -4.9999999E-03
endloop
endfacet
facet normal -3.2687634E-01 -9.4344050E-01 -5.5424869E-02
outer loop
vertex -3.4268000E-03 -1.9749550E-02 -8.6550001E-04
vertex -9.6364003E-03 -1.7599409E-02 -8.4310002E-04
vertex -1.2246000E-03 -2.0269660E-02 -4.9999999E-03
endloop
endfacet
facet normal -1.4832098E-02 -9.9301881E-01 1.1701921E-01
outer loop
vertex 3.4731000E-03 -1.9852551E-02 -8.6500001E-04
vertex -3.4268000E-03 -1.9749550E-02 -8.6550001E-04
vertex -1.2246000E-03 -2.0269660E-02 -4.9999999E-03
endloop
endfacet
facet normal -1.1236861E-02 -7.4953264E-01 6.6187203E-01
outer loop
vertex -3.4268000E-03 -1.9749550E-02 -8.6550001E-04
vertex 3.4731000E-03 -1.9852551E-02 -8.6500001E-04
vertex -3.1955999E-03 -1.8988740E-02 0.0000000E+00
endloop
endfacet
facet normal -2.3883773E-01 -6.9680858E-01 6.7632419E-01
outer loop
vertex -9.6364003E-03 -1.7599409E-02 -8.4310002E-04
vertex -3.4268000E-03 -1.9749550E-02 -8.6550001E-04
vertex -3.1955999E-03 -1.8988740E-02 0.0000000E+00
endloop
endfacet
facet normal -2.2105984E-01 -5.2672619E-01 8.2078737E-01
outer loop
vertex -1.2956400E-02 -1.4891640E-02 4.0000000E-07
vertex -9.6364003E-03 -1.7599409E-02 -8.4310002E-04
vertex -3.1955999E-03 -1.8988740E-02 0.0000000E+00
endloop
endfacet
facet normal -6.2835115E-01 -7.7758944E-01 2.3007467E-02
outer loop
vertex -1.4551300E-02 -1.3741610E-02 -4.6895999E-03
vertex -9.6364003E-03 -1.7599409E-02 -8.4310002E-04
vertex -1.2956400E-02 -1.4891640E-02 4.0000000E-07
endloop
endfacet
facet normal -7.8057611E-01 -6.1443162E-01 1.1478146E-01
outer loop
vertex -1.8460400E-02 -7.9001980E-03 -4.2000001E-06
vertex -1.4551300E-02 -1.3741610E-02 -4.6895999E-03
vertex -1.2956400E-02 -1.4891640E-02 4.0000000E-07
endloop
endfacet
facet normal -5.5298412E-01 4.8612738E-01 6.7667472E-01
outer loop
vertex -1.0593300E-02 1.6974300E-02 -2.6000000E-06
vertex -1.5212200E-02 1.2936470E-02 -8.7639998E-04
vertex -1.8010700E-02 8.5383216E-03 -3.7000000E-06
endloop
endfacet
facet normal -1.8918705E-01 6.8384790E-01 7.0467049E-01
outer loop
vertex 5.0979998E-04 2.0050310E-02 -6.7999999E-06
vertex -5.4437001E-03 1.9272350E-02 -8.5020001E-04
vertex -1.0593300E-02 1.6974300E-02 -2.6000000E-06
endloop
endfacet
facet normal -4.4503907E-04 -2.1537441E-04 9.9999988E-01
outer loop
vertex -1.8010700E-02 8.5383216E-03 -3.7000000E-06
vertex -9.6548004E-03 2.8797919E-03 -1.2000000E-06
vertex -9.8767998E-03 8.9102127E-03 0.0000000E+00
endloop
endfacet
facet normal -4.2437771E-04 -6.6727417E-04 9.9999976E-01
outer loop
vertex -1.3378000E-02 1.1136930E-02 0.0000000E+00
vertex -1.8010700E-02 8.5383216E-03 -3.7000000E-06
vertex -9.8767998E-03 8.9102127E-03 0.0000000E+00
endloop
endfacet
facet normal -5.8959372E-04 -6.3713826E-04 9.9999958E-01
outer loop
vertex 3.6362000E-03 -9.4708204E-03 -1.4000000E-06
vertex 1.0021900E-02 -1.7420379E-02 -2.7000001E-06
vertex 9.9686002E-03 -1.3133360E-02 0.0000000E+00
endloop
endfacet
facet normal 8.8595830E-02 2.0743815E-02 9.9585158E-01
outer loop
vertex 1.8447600E-02 -3.4205720E-04 0.0000000E+00
vertex 1.9578099E-02 -4.8439149E-03 -6.7999999E-06
vertex 1.9996300E-02 1.6752060E-03 -1.7980000E-04
endloop
endfacet
facet normal -3.7776813E-04 -5.3156144E-04 9.9999982E-01
outer loop
vertex 6.8981000E-03 7.5685759E-03 -2.1000001E-06
vertex 1.0046100E-02 2.1332421E-03 -3.8000001E-06
vertex 1.0815200E-02 8.7354099E-03 0.0000000E+00
endloop
endfacet
facet normal -4.5733841E-04 -2.6444151E-04 9.9999982E-01
outer loop
vertex 6.8981000E-03 7.5685759E-03 -2.1000001E-06
vertex 1.0815200E-02 8.7354099E-03 0.0000000E+00
vertex 9.0947002E-03 1.1710930E-02 0.0000000E+00
endloop
endfacet
facet normal 5.0702255E-04 -1.8032592E-04 9.9999982E-01
outer loop
vertex -9.6548004E-03 2.8797919E-03 -1.2000000E-06
vertex -4.8766001E-03 9.1054961E-03 -2.4999999E-06
vertex -9.8767998E-03 8.9102127E-03 0.0000000E+00
endloop
endfacet
facet normal -2.4343228E-04 -3.8637285E-05 1.0000000E+00
outer loop
vertex 3.6362000E-03 -9.4708204E-03 -1.4000000E-06
vertex 9.9686002E-03 -1.3133360E-02 0.0000000E+00
vertex 9.4319005E-03 -9.7519113E-03 0.0000000E+00
endloop
endfacet
facet normal 5.9569445E-02 4.3156333E-02 9.9729085E-01
outer loop
vertex 1.6105000E-02 2.8914751E-03 0.0000000E+00
vertex 1.8447600E-02 -3.4205720E-04 0.0000000E+00
vertex 1.9996300E-02 1.6752060E-03 -1.7980000E-04
endloop
endfacet
facet normal -5.6336052E-04 -5.0994131E-04 9.9999970E-01
outer loop
vertex 1.0046100E-02 2.1332421E-03 -3.8000001E-06
vertex 1.6105000E-02 2.8914751E-03 0.0000000E+00
vertex 1.0815200E-02 8.7354099E-03 0.0000000E+00
endloop
endfacet
facet normal 1.2808148E-04 -6.2821573E-04 9.9999976E-01
outer loop
vertex 9.9686002E-03 -1.3133360E-02 0.0000000E+00
vertex 1.0021900E-02 -1.7420379E-02 -2.7000001E-06
vertex 1.2918700E-02 -1.2531890E-02 0.0000000E+00
endloop
endfacet
facet normal -1.7770742E-04 1.3165129E-03 9.9999923E-01
outer loop
vertex 8.9820996E-03 -5.2551362E-03 -6.0000002E-06
vertex 3.6362000E-03 -9.4708204E-03 -1.4000000E-06
vertex 9.4319005E-03 -9.7519113E-03 0.0000000E+00
endloop
endfacet
facet normal -1.4315854E-03 1.1283391E-03 9.9999839E-01
outer loop
vertex -1.8010700E-02 8.5383216E-03 -3.7000000E-06
vertex -1.3378000E-02 1.1136930E-02 0.0000000E+00
vertex -1.0593300E-02 1.6974300E-02 -2.6000000E-06
endloop
endfacet
facet normal 3.1886611E-02 -1.9447166E-02 9.9930233E-01
outer loop
vertex 1.2918700E-02 -1.2531890E-02 0.0000000E+00
vertex 1.0021900E-02 -1.7420379E-02 -2.7000001E-06
vertex 1.6073501E-02 -1.2251010E-02 -9.5199997E-05
endloop
endfacet
facet normal -5.0743006E-04 3.9057047E-04 9.9999976E-01
outer loop
vertex 5.0979998E-04 2.0050310E-02 -6.7999999E-06
vertex 1.9749000E-03 9.9200942E-03 -2.1000001E-06
vertex 6.7208000E-03 1.8902371E-02 -3.2000000E-06
endloop
endfacet
facet normal 3.8051538E-02 -2.5931209E-02 9.9893928E-01
outer loop
vertex 1.6105000E-02 2.8914751E-03 0.0000000E+00
vertex 1.9996300E-02 1.6752060E-03 -1.7980000E-04
vertex 1.8978899E-02 6.8620988E-03 -6.4000001E-06
endloop
endfacet
facet normal 1.5346432E-03 -7.5564094E-05 9.9999881E-01
outer loop
vertex -1.2956400E-02 -1.4891640E-02 4.0000000E-07
vertex -1.2602900E-02 -1.3005860E-02 0.0000000E+00
vertex -1.2422000E-02 -9.3319314E-03 0.0000000E+00
endloop
endfacet
facet normal -5.9047838E-05 2.2318267E-04 1.0000000E+00
outer loop
vertex -1.2602900E-02 -1.3005860E-02 0.0000000E+00
vertex -1.2956400E-02 -1.4891640E-02 4.0000000E-07
vertex -8.8940002E-03 -1.2024590E-02 0.0000000E+00
endloop
endfacet
facet normal -4.6127322E-04 6.6545501E-04 9.9999958E-01
outer loop
vertex -1.0593300E-02 1.6974300E-02 -2.6000000E-06
vertex -1.3378000E-02 1.1136930E-02 0.0000000E+00
vertex -1.0094000E-02 1.3413300E-02 0.0000000E+00
endloop
endfacet
facet normal -6.6337100E-04 1.3570952E-04 9.9999982E-01
outer loop
vertex -1.8460400E-02 -7.9001980E-03 -4.2000001E-06
vertex -1.2956400E-02 -1.4891640E-02 4.0000000E-07
vertex -1.2422000E-02 -9.3319314E-03 0.0000000E+00
endloop
endfacet
facet normal -1.1064088E-03 7.9746715E-05 9.9999934E-01
outer loop
vertex 6.8981000E-03 7.5685759E-03 -2.1000001E-06
vertex 9.0947002E-03 1.1710930E-02 0.0000000E+00
vertex 6.7208000E-03 1.8902371E-02 -3.2000000E-06
endloop
endfacet
facet normal 4.6706296E-05 9.7785531E-05 1.0000000E+00
outer loop
vertex 1.9749000E-03 9.9200942E-03 -2.1000001E-06
vertex 6.8981000E-03 7.5685759E-03 -2.1000001E-06
vertex 6.7208000E-03 1.8902371E-02 -3.2000000E-06
endloop
endfacet
facet normal 6.2418483E-05 5.1073788E-05 1.0000000E+00
outer loop
vertex -1.2956400E-02 -1.4891640E-02 4.0000000E-07
vertex -3.1955999E-03 -1.8988740E-02 0.0000000E+00
vertex -8.8940002E-03 -1.2024590E-02 0.0000000E+00
endloop
endfacet
facet normal 9.8948285E-04 8.9565793E-04 9.9999917E-01
outer loop
vertex 1.0815200E-02 8.7354099E-03 0.0000000E+00
vertex 1.6105000E-02 2.8914751E-03 0.0000000E+00
vertex 1.8978899E-02 6.8620988E-03 -6.4000001E-06
endloop
endfacet
facet normal -2.3898254E-04 3.6608503E-04 9.9999988E-01
outer loop
vertex 9.0947002E-03 1.1710930E-02 0.0000000E+00
vertex 1.1751800E-02 1.3445500E-02 0.0000000E+00
vertex 6.7208000E-03 1.8902371E-02 -3.2000000E-06
endloop
endfacet
facet normal 6.1122893E-04 -7.5273577E-04 9.9999958E-01
outer loop
vertex 1.3418900E-02 1.0849640E-02 0.0000000E+00
vertex 1.0815200E-02 8.7354099E-03 0.0000000E+00
vertex 1.8978899E-02 6.8620988E-03 -6.4000001E-06
endloop
endfacet
facet normal 3.0169811E-02 -8.2142025E-05 9.9954480E-01
outer loop
vertex 1.2927100E-02 -9.4468147E-03 0.0000000E+00
vertex 1.2918700E-02 -1.2531890E-02 0.0000000E+00
vertex 1.6073501E-02 -1.2251010E-02 -9.5199997E-05
endloop
endfacet
facet normal -1.1546213E-04 1.3227389E-03 9.9999905E-01
outer loop
vertex 9.4319005E-03 -9.7519113E-03 0.0000000E+00
vertex 1.2927100E-02 -9.4468147E-03 0.0000000E+00
vertex 8.9820996E-03 -5.2551362E-03 -6.0000002E-06
endloop
endfacet
facet normal 2.6796278E-02 2.5291033E-02 9.9932098E-01
outer loop
vertex 6.7208000E-03 1.8902371E-02 -3.2000000E-06
vertex 1.1751800E-02 1.3445500E-02 0.0000000E+00
vertex 1.5774500E-02 1.2466900E-02 -8.3100000E-05
endloop
endfacet
facet normal 4.9903983E-04 2.4070507E-05 9.9999988E-01
outer loop
vertex -1.0094000E-02 1.3413300E-02 0.0000000E+00
vertex -9.8767998E-03 8.9102127E-03 0.0000000E+00
vertex -4.8766001E-03 9.1054961E-03 -2.4999999E-06
endloop
endfacet
facet normal 1.8577911E-02 2.4299730E-02 9.9953204E-01
outer loop
vertex 1.3418900E-02 1.0849640E-02 0.0000000E+00
vertex 1.8978899E-02 6.8620988E-03 -6.4000001E-06
vertex 1.5774500E-02 1.2466900E-02 -8.3100000E-05
endloop
endfacet
facet normal 2.4472382E-02 1.5716525E-02 9.9957693E-01
outer loop
vertex 1.1751800E-02 1.3445500E-02 0.0000000E+00
vertex 1.3418900E-02 1.0849640E-02 0.0000000E+00
vertex 1.5774500E-02 1.2466900E-02 -8.3100000E-05
endloop
endfacet
facet normal 2.2344891E-04 7.3602510E-05 9.9999994E-01
outer loop
vertex -9.7735999E-03 -9.3542244E-03 0.0000000E+00
vertex -8.8940002E-03 -1.2024590E-02 0.0000000E+00
vertex -1.9624000E-03 -9.9711083E-03 -1.7000000E-06
endloop
endfacet
facet normal 2.5241397E-04 4.4036831E-04 9.9999988E-01
outer loop
vertex -8.8788001E-03 -5.3254608E-03 -2.0000000E-06
vertex -9.7735999E-03 -9.3542244E-03 0.0000000E+00
vertex -1.9624000E-03 -9.9711083E-03 -1.7000000E-06
endloop
endfacet
facet normal 4.1709332E-06 4.9550377E-04 9.9999988E-01
outer loop
vertex -1.2422000E-02 -9.3319314E-03 0.0000000E+00
vertex -9.7735999E-03 -9.3542244E-03 0.0000000E+00
vertex -8.8788001E-03 -5.3254608E-03 -2.0000000E-06
endloop
endfacet
facet normal 1.3797103E-02 -1.8459303E-02 9.9973446E-01
outer loop
vertex 1.2927100E-02 -9.4468147E-03 0.0000000E+00
vertex 1.6073501E-02 -1.2251010E-02 -9.5199997E-05
vertex 1.9578099E-02 -4.8439149E-03 -6.7999999E-06
endloop
endfacet
facet normal 1.2236687E-03 9.0170576E-04 9.9999887E-01
outer loop
vertex -1.0094000E-02 1.3413300E-02 0.0000000E+00
vertex -4.8766001E-03 9.1054961E-03 -2.4999999E-06
vertex -1.0593300E-02 1.6974300E-02 -2.6000000E-06
endloop
endfacet
facet normal -4.7713725E-04 9.2115777E-04 9.9999946E-01
outer loop
vertex -1.8460400E-02 -7.9001980E-03 -4.2000001E-06
vertex -1.2422000E-02 -9.3319314E-03 0.0000000E+00
vertex -8.8788001E-03 -5.3254608E-03 -2.0000000E-06
endloop
endfacet
facet normal 1.9740226E-04 1.6152397E-04 1.0000000E+00
outer loop
vertex -8.8940002E-03 -1.2024590E-02 0.0000000E+00
vertex -3.1955999E-03 -1.8988740E-02 0.0000000E+00
vertex -1.9624000E-03 -9.9711083E-03 -1.7000000E-06
endloop
endfacet
facet normal -1.0495797E-03 4.4359412E-04 9.9999934E-01
outer loop
vertex 8.9820996E-03 -5.2551362E-03 -6.0000002E-06
vertex 1.2927100E-02 -9.4468147E-03 0.0000000E+00
vertex 1.5730700E-02 -2.8132710E-03 0.0000000E+00
endloop
endfacet
facet normal -6.7138259E-04 -6.0163258E-04 9.9999970E-01
outer loop
vertex 8.9820996E-03 -5.2551362E-03 -6.0000002E-06
vertex 1.5730700E-02 -2.8132710E-03 0.0000000E+00
vertex 1.3209700E-02 3.9945089E-18 0.0000000E+00
endloop
endfacet
facet normal 1.4450754E-03 -6.1074639E-04 9.9999875E-01
outer loop
vertex 1.2927100E-02 -9.4468147E-03 0.0000000E+00
vertex 1.9578099E-02 -4.8439149E-03 -6.7999999E-06
vertex 1.5730700E-02 -2.8132710E-03 0.0000000E+00
endloop
endfacet
facet normal -1.2778586E-03 -1.1374026E-04 9.9999923E-01
outer loop
vertex 1.0046100E-02 2.1332421E-03 -3.8000001E-06
vertex 8.9820996E-03 -5.2551362E-03 -6.0000002E-06
vertex 1.3209700E-02 3.9945089E-18 0.0000000E+00
endloop
endfacet
facet normal -2.9413580E-04 2.4013760E-04 1.0000000E+00
outer loop
vertex -1.9970300E-02 1.4939340E-03 -6.8999998E-06
vertex -1.8460400E-02 -7.9001980E-03 -4.2000001E-06
vertex -8.8788001E-03 -5.3254608E-03 -2.0000000E-06
endloop
endfacet
facet normal -5.3269952E-04 -1.4787776E-04 9.9999988E-01
outer loop
vertex -1.9970300E-02 1.4939340E-03 -6.8999998E-06
vertex -8.8788001E-03 -5.3254608E-03 -2.0000000E-06
vertex -9.6548004E-03 2.8797919E-03 -1.2000000E-06
endloop
endfacet
facet normal -7.1702630E-04 7.1797491E-04 9.9999952E-01
outer loop
vertex 1.0046100E-02 2.1332421E-03 -3.8000001E-06
vertex 1.3209700E-02 3.9945089E-18 0.0000000E+00
vertex 1.6105000E-02 2.8914751E-03 0.0000000E+00
endloop
endfacet
facet normal 1.8490576E-04 1.6323289E-04 9.9999988E-01
outer loop
vertex -3.1955999E-03 -1.8988740E-02 0.0000000E+00
vertex 1.0021900E-02 -1.7420379E-02 -2.7000001E-06
vertex -1.9624000E-03 -9.9711083E-03 -1.7000000E-06
endloop
endfacet
facet normal -5.5130349E-05 -2.7343871E-05 1.0000000E+00
outer loop
vertex -4.8766001E-03 9.1054961E-03 -2.4999999E-06
vertex 1.9749000E-03 9.9200942E-03 -2.1000001E-06
vertex -1.0593300E-02 1.6974300E-02 -2.6000000E-06
endloop
endfacet
facet normal -5.1062077E-04 -3.1221833E-04 9.9999982E-01
outer loop
vertex -1.8010700E-02 8.5383216E-03 -3.7000000E-06
vertex -1.9970300E-02 1.4939340E-03 -6.8999998E-06
vertex -9.6548004E-03 2.8797919E-03 -1.2000000E-06
endloop
endfacet
facet normal 2.4011648E-04 4.9868575E-04 9.9999982E-01
outer loop
vertex -1.0593300E-02 1.6974300E-02 -2.6000000E-06
vertex 1.9749000E-03 9.9200942E-03 -2.1000001E-06
vertex 5.0979998E-04 2.0050310E-02 -6.7999999E-06
endloop
endfacet
facet normal 1.1184324E-03 -1.2296265E-03 9.9999857E-01
outer loop
vertex 1.8447600E-02 -3.4205720E-04 0.0000000E+00
vertex 1.5730700E-02 -2.8132710E-03 0.0000000E+00
vertex 1.9578099E-02 -4.8439149E-03 -6.7999999E-06
endloop
endfacet
facet normal -3.6361715E-05 -1.9273964E-04 1.0000000E+00
outer loop
vertex -1.9624000E-03 -9.9711083E-03 -1.7000000E-06
vertex 1.0021900E-02 -1.7420379E-02 -2.7000001E-06
vertex 3.6362000E-03 -9.4708204E-03 -1.4000000E-06
endloop
endfacet
facet normal -8.0366683E-01 5.8496898E-01 1.0922866E-01
outer loop
vertex 1.8541999E-02 7.2126160E-04 -4.9999999E-03
vertex 1.5969301E-02 -2.8132719E-03 -4.9999999E-03
vertex 1.8447600E-02 -3.4205720E-04 0.0000000E+00
endloop
endfacet
facet normal -6.7252052E-01 7.3938227E-01 -3.2092970E-02
outer loop
vertex 1.5969301E-02 -2.8132719E-03 -4.9999999E-03
vertex 1.5730700E-02 -2.8132710E-03 0.0000000E+00
vertex 1.8447600E-02 -3.4205720E-04 0.0000000E+00
endloop
endfacet
facet normal -8.0198640E-01 -5.8101588E-01 -1.3870233E-01
outer loop
vertex 1.8541999E-02 7.2126160E-04 -4.9999999E-03
vertex 1.8447600E-02 -3.4205720E-04 0.0000000E+00
vertex 1.6105000E-02 2.8914751E-03 0.0000000E+00
endloop
endfacet
facet normal -5.3439230E-01 -8.3885872E-01 1.0363778E-01
outer loop
vertex 1.5608600E-02 2.5899741E-03 -4.9999999E-03
vertex 1.8541999E-02 7.2126160E-04 -4.9999999E-03
vertex 1.6105000E-02 2.8914751E-03 0.0000000E+00
endloop
endfacet
facet normal -2.2791803E-02 9.9224174E-01 1.2221626E-01
outer loop
vertex -9.0095000E-03 -1.2307460E-02 -4.9999999E-03
vertex -1.3232400E-02 -1.2404460E-02 -4.9999999E-03
vertex -1.2602900E-02 -1.3005860E-02 0.0000000E+00
endloop
endfacet
facet normal -2.5546759E-01 9.6558893E-01 -4.8726056E-02
outer loop
vertex -9.0095000E-03 -1.2307460E-02 -4.9999999E-03
vertex -1.2602900E-02 -1.3005860E-02 0.0000000E+00
vertex -8.8940002E-03 -1.2024590E-02 0.0000000E+00
endloop
endfacet
facet normal -9.1119391E-01 -4.0959764E-01 4.4221178E-02
outer loop
vertex -1.0615200E-02 -8.7354090E-03 -4.9999999E-03
vertex -9.0095000E-03 -1.2307460E-02 -4.9999999E-03
vertex -8.8940002E-03 -1.2024590E-02 0.0000000E+00
endloop
endfacet
facet normal -9.4290566E-01 -3.1058657E-01 1.2027072E-01
outer loop
vertex -1.0615200E-02 -8.7354090E-03 -4.9999999E-03
vertex -8.8940002E-03 -1.2024590E-02 0.0000000E+00
vertex -9.7735999E-03 -9.3542244E-03 0.0000000E+00
endloop
endfacet
facet normal -8.3549721E-03 -9.9256402E-01 -1.2143649E-01
outer loop
vertex -1.0615200E-02 -8.7354090E-03 -4.9999999E-03
vertex -9.7735999E-03 -9.3542244E-03 0.0000000E+00
vertex -1.2422000E-02 -9.3319314E-03 0.0000000E+00
endloop
endfacet
facet normal -8.8370669E-01 4.5378405E-01 1.1464094E-01
outer loop
vertex -8.9349002E-03 1.2007650E-02 -4.9999999E-03
vertex -1.0615200E-02 8.7354062E-03 -4.9999999E-03
vertex -9.8767998E-03 8.9102127E-03 0.0000000E+00
endloop
endfacet
facet normal -9.7591680E-01 -4.7072012E-02 -2.1300364E-01
outer loop
vertex -8.9349002E-03 1.2007650E-02 -4.9999999E-03
vertex -9.8767998E-03 8.9102127E-03 0.0000000E+00
vertex -1.0094000E-02 1.3413300E-02 0.0000000E+00
endloop
endfacet
facet normal -4.8853350E-01 -8.6290616E-01 1.2933697E-01
outer loop
vertex -1.1239700E-02 1.3312510E-02 -4.9999999E-03
vertex -8.9349002E-03 1.2007650E-02 -4.9999999E-03
vertex -1.0094000E-02 1.3413300E-02 0.0000000E+00
endloop
endfacet
facet normal -6.2039936E-01 7.6402926E-01 -1.7709836E-01
outer loop
vertex 1.2325200E-02 8.8025685E-03 -4.9999999E-03
vertex 1.0815200E-02 8.7354099E-03 0.0000000E+00
vertex 1.3418900E-02 1.0849640E-02 0.0000000E+00
endloop
endfacet
facet normal -9.7319567E-01 -3.5166588E-02 2.2727445E-01
outer loop
vertex 1.2160300E-02 1.3365990E-02 -4.9999999E-03
vertex 1.2325200E-02 8.8025685E-03 -4.9999999E-03
vertex 1.3418900E-02 1.0849640E-02 0.0000000E+00
endloop
endfacet
facet normal -8.3990616E-01 -5.3940010E-01 -6.0042787E-02
outer loop
vertex 1.2160300E-02 1.3365990E-02 -4.9999999E-03
vertex 1.3418900E-02 1.0849640E-02 0.0000000E+00
vertex 1.1751800E-02 1.3445500E-02 0.0000000E+00
endloop
endfacet
facet normal -1.9869211E-01 9.7454774E-01 -1.0381753E-01
outer loop
vertex 1.1902200E-02 -1.3271780E-02 -4.9999999E-03
vertex 9.9686002E-03 -1.3133360E-02 0.0000000E+00
vertex 1.2918700E-02 -1.2531890E-02 0.0000000E+00
endloop
endfacet
facet normal -8.0632639E-01 5.8641773E-01 7.7149287E-02
outer loop
vertex 1.3454800E-02 -1.1136950E-02 -4.9999999E-03
vertex 1.1902200E-02 -1.3271780E-02 -4.9999999E-03
vertex 1.2918700E-02 -1.2531890E-02 0.0000000E+00
endloop
endfacet
facet normal -9.9437708E-01 2.7073452E-03 -1.0586161E-01
outer loop
vertex 1.3454800E-02 -1.1136950E-02 -4.9999999E-03
vertex 1.2918700E-02 -1.2531890E-02 0.0000000E+00
vertex 1.2927100E-02 -9.4468147E-03 0.0000000E+00
endloop
endfacet
facet normal -7.7210706E-01 -6.2229019E-01 1.2886283E-01
outer loop
vertex 1.1631100E-02 -8.8741938E-03 -4.9999999E-03
vertex 1.3454800E-02 -1.1136950E-02 -4.9999999E-03
vertex 1.2927100E-02 -9.4468147E-03 0.0000000E+00
endloop
endfacet
facet normal -8.8677242E-02 9.9241656E-01 -8.5121572E-02
outer loop
vertex -1.9624000E-03 -9.9711083E-03 -1.7000000E-06
vertex 3.6362000E-03 -9.4708204E-03 -1.4000000E-06
vertex 2.6342000E-03 -9.9890940E-03 -4.9999999E-03
endloop
endfacet
facet normal -9.8978496E-01 1.4253810E-01 2.9233037E-03
outer loop
vertex 8.9820996E-03 -5.2551362E-03 -6.0000002E-06
vertex 1.0046100E-02 2.1332421E-03 -3.8000001E-06
vertex 1.0089100E-02 2.5343020E-03 -4.9999999E-03
endloop
endfacet
facet normal -1.4759754E-01 -9.8372686E-01 1.0245245E-01
outer loop
vertex 1.9749000E-03 9.9200942E-03 -2.1000001E-06
vertex -1.8848000E-03 9.9786827E-03 -4.9999999E-03
vertex 5.1014000E-03 8.9304792E-03 -4.9999999E-03
endloop
endfacet
facet normal -9.8753107E-01 1.5561262E-01 2.3816027E-02
outer loop
vertex 8.9820996E-03 -5.2551362E-03 -6.0000002E-06
vertex 1.0089100E-02 2.5343020E-03 -4.9999999E-03
vertex 8.8670999E-03 -5.2206181E-03 -4.9999999E-03
endloop
endfacet
facet normal -4.2922816E-01 -8.9864331E-01 -9.0572238E-02
outer loop
vertex 6.8981000E-03 7.5685759E-03 -2.1000001E-06
vertex 1.9749000E-03 9.9200942E-03 -2.1000001E-06
vertex 5.1014000E-03 8.9304792E-03 -4.9999999E-03
endloop
endfacet
facet normal -7.8333539E-01 -6.1084026E-01 1.1515107E-01
outer loop
vertex 6.8981000E-03 7.5685759E-03 -2.1000001E-06
vertex 5.1014000E-03 8.9304792E-03 -4.9999999E-03
vertex 1.0089100E-02 2.5343020E-03 -4.9999999E-03
endloop
endfacet
facet normal -6.0750699E-01 7.9407549E-01 1.9477990E-02
outer loop
vertex 8.9820996E-03 -5.2551362E-03 -6.0000002E-06
vertex 8.8670999E-03 -5.2206181E-03 -4.9999999E-03
vertex 2.6342000E-03 -9.9890940E-03 -4.9999999E-03
endloop
endfacet
facet normal -6.1862671E-01 7.8452569E-01 4.2664945E-02
outer loop
vertex 3.6362000E-03 -9.4708204E-03 -1.4000000E-06
vertex 8.9820996E-03 -5.2551362E-03 -6.0000002E-06
vertex 2.6342000E-03 -9.9890940E-03 -4.9999999E-03
endloop
endfacet
facet normal -8.6436605E-01 -5.0060284E-01 -4.7624100E-02
outer loop
vertex 1.0046100E-02 2.1332421E-03 -3.8000001E-06
vertex 6.8981000E-03 7.5685759E-03 -2.1000001E-06
vertex 1.0089100E-02 2.5343020E-03 -4.9999999E-03
endloop
endfacet
facet normal 0.0000000E+00 0.0000000E+00 -1.0000000E+00
outer loop
vertex 5.1014000E-03 8.9304792E-03 -4.9999999E-03
vertex 1.0860100E-02 1.7124319E-02 -4.9999999E-03
vertex 8.9373002E-03 1.1439690E-02 -4.9999999E-03
endloop
endfacet
facet normal 0.0000000E+00 0.0000000E+00 -9.9999994E-01
outer loop
vertex 8.9373002E-03 1.1439690E-02 -4.9999999E-03
vertex 1.0860100E-02 1.7124319E-02 -4.9999999E-03
vertex 1.2160300E-02 1.3365990E-02 -4.9999999E-03
endloop
endfacet
facet normal 0.0000000E+00 0.0000000E+00 -1.0000000E+00
outer loop
vertex -1.8185800E-02 -8.6029591E-03 -4.9999999E-03
vertex -1.0615200E-02 -8.7354090E-03 -4.9999999E-03
vertex -1.3232400E-02 -1.2404460E-02 -4.9999999E-03
endloop
endfacet
facet normal 0.0000000E+00 0.0000000E+00 -1.0000000E+00
outer loop
vertex -1.8185800E-02 -8.6029591E-03 -4.9999999E-03
vertex -9.1799004E-03 -4.1373302E-03 -4.9999999E-03
vertex -1.0615200E-02 -8.7354090E-03 -4.9999999E-03
endloop
endfacet
facet normal 0.0000000E+00 0.0000000E+00 -1.0000000E+00
outer loop
vertex 2.6342000E-03 -9.9890940E-03 -4.9999999E-03
vertex 8.8670999E-03 -5.2206181E-03 -4.9999999E-03
vertex 8.7941000E-03 -1.1458520E-02 -4.9999999E-03
endloop
endfacet
facet normal 0.0000000E+00 0.0000000E+00 -1.0000000E+00
outer loop
vertex 8.7941000E-03 -1.1458520E-02 -4.9999999E-03
vertex 8.8670999E-03 -5.2206181E-03 -4.9999999E-03
vertex 1.1631100E-02 -8.8741938E-03 -4.9999999E-03
endloop
endfacet
facet normal 0.0000000E+00 0.0000000E+00 -9.9999994E-01
outer loop
vertex -1.3336600E-02 1.1439710E-02 -4.9999999E-03
vertex -1.5136900E-02 1.3094930E-02 -4.9999999E-03
vertex -1.1239700E-02 1.3312510E-02 -4.9999999E-03
endloop
endfacet
facet normal 0.0000000E+00 0.0000000E+00 -1.0000000E+00
outer loop
vertex -1.5136900E-02 1.3094930E-02 -4.9999999E-03
vertex -9.9568004E-03 1.7392550E-02 -4.9999999E-03
vertex -1.1239700E-02 1.3312510E-02 -4.9999999E-03
endloop
endfacet
facet normal -1.0001979E-01 -1.3032694E-01 -9.8641312E-01
outer loop
vertex -1.4551300E-02 -1.3741610E-02 -4.6895999E-03
vertex -1.8185800E-02 -8.6029591E-03 -4.9999999E-03
vertex -1.3232400E-02 -1.2404460E-02 -4.9999999E-03
endloop
endfacet
facet normal 0.0000000E+00 0.0000000E+00 -1.0000000E+00
outer loop
vertex 8.8670999E-03 -5.2206181E-03 -4.9999999E-03
vertex 1.5969301E-02 -2.8132719E-03 -4.9999999E-03
vertex 1.1631100E-02 -8.8741938E-03 -4.9999999E-03
endloop
endfacet
facet normal 0.0000000E+00 0.0000000E+00 -1.0000000E+00
outer loop
vertex 5.1014000E-03 8.9304792E-03 -4.9999999E-03
vertex 8.9373002E-03 1.1439690E-02 -4.9999999E-03
vertex 1.2325200E-02 8.8025685E-03 -4.9999999E-03
endloop
endfacet
facet normal 1.4435657E-03 -1.0507354E-03 -9.9999839E-01
outer loop
vertex 1.5969301E-02 -2.8132719E-03 -4.9999999E-03
vertex 1.8541999E-02 7.2126160E-04 -4.9999999E-03
vertex 2.0183200E-02 -1.0209570E-03 -4.9958001E-03
endloop
endfacet
facet normal 0.0000000E+00 -0.0000000E+00 -1.0000000E+00
outer loop
vertex -9.1799004E-03 -4.1373302E-03 -4.9999999E-03
vertex -4.8713000E-03 -8.8769346E-03 -4.9999999E-03
vertex -1.0615200E-02 -8.7354090E-03 -4.9999999E-03
endloop
endfacet
facet normal 0.0000000E+00 0.0000000E+00 -1.0000000E+00
outer loop
vertex -1.8369401E-02 7.8335414E-03 -4.9999999E-03
vertex -1.5136900E-02 1.3094930E-02 -4.9999999E-03
vertex -1.3336600E-02 1.1439710E-02 -4.9999999E-03
endloop
endfacet
facet normal 0.0000000E+00 0.0000000E+00 -1.0000000E+00
outer loop
vertex -1.1239700E-02 1.3312510E-02 -4.9999999E-03
vertex -9.9568004E-03 1.7392550E-02 -4.9999999E-03
vertex -8.9349002E-03 1.2007650E-02 -4.9999999E-03
endloop
endfacet
facet normal 0.0000000E+00 0.0000000E+00 -1.0000000E+00
outer loop
vertex -1.8369401E-02 7.8335414E-03 -4.9999999E-03
vertex -1.3336600E-02 1.1439710E-02 -4.9999999E-03
vertex -1.0615200E-02 8.7354062E-03 -4.9999999E-03
endloop
endfacet
facet normal 0.0000000E+00 0.0000000E+00 -1.0000000E+00
outer loop
vertex -9.9568004E-03 1.7392550E-02 -4.9999999E-03
vertex -4.7080001E-04 2.0344390E-02 -4.9999999E-03
vertex -8.9349002E-03 1.2007650E-02 -4.9999999E-03
endloop
endfacet
facet normal 0.0000000E+00 0.0000000E+00 -1.0000000E+00
outer loop
vertex -1.2246000E-03 -2.0269660E-02 -4.9999999E-03
vertex 2.6342000E-03 -9.9890940E-03 -4.9999999E-03
vertex 9.3614003E-03 -1.7927131E-02 -4.9999999E-03
endloop
endfacet
facet normal 0.0000000E+00 0.0000000E+00 -1.0000000E+00
outer loop
vertex 1.2160300E-02 1.3365990E-02 -4.9999999E-03
vertex 1.0860100E-02 1.7124319E-02 -4.9999999E-03
vertex 1.6206199E-02 1.1921820E-02 -4.9999999E-03
endloop
endfacet
facet normal 9.3143532E-04 1.5333401E-04 -9.9999964E-01
outer loop
vertex 1.5969301E-02 -2.8132719E-03 -4.9999999E-03
vertex 2.0183200E-02 -1.0209570E-03 -4.9958001E-03
vertex 1.7283600E-02 -1.0797050E-02 -4.9999999E-03
endloop
endfacet
facet normal 0.0000000E+00 0.0000000E+00 -1.0000000E+00
outer loop
vertex -9.0095000E-03 -1.2307460E-02 -4.9999999E-03
vertex -1.0615200E-02 -8.7354090E-03 -4.9999999E-03
vertex -4.8713000E-03 -8.8769346E-03 -4.9999999E-03
endloop
endfacet
facet normal 0.0000000E+00 0.0000000E+00 -9.9999994E-01
outer loop
vertex 5.1014000E-03 8.9304792E-03 -4.9999999E-03
vertex 1.2325200E-02 8.8025685E-03 -4.9999999E-03
vertex 1.0089100E-02 2.5343020E-03 -4.9999999E-03
endloop
endfacet
facet normal 0.0000000E+00 0.0000000E+00 -1.0000000E+00
outer loop
vertex 2.6342000E-03 -9.9890940E-03 -4.9999999E-03
vertex 8.7941000E-03 -1.1458520E-02 -4.9999999E-03
vertex 9.3614003E-03 -1.7927131E-02 -4.9999999E-03
endloop
endfacet
facet normal 0.0000000E+00 0.0000000E+00 -1.0000000E+00
outer loop
vertex 1.1631100E-02 -8.8741938E-03 -4.9999999E-03
vertex 1.5969301E-02 -2.8132719E-03 -4.9999999E-03
vertex 1.7283600E-02 -1.0797050E-02 -4.9999999E-03
endloop
endfacet
facet normal -1.4261149E-01 -8.8184081E-02 -9.8584259E-01
outer loop
vertex -1.4551300E-02 -1.3741610E-02 -4.6895999E-03
vertex -1.3232400E-02 -1.2404460E-02 -4.9999999E-03
vertex -1.0257800E-02 -1.7214989E-02 -4.9999999E-03
endloop
endfacet
facet normal 0.0000000E+00 0.0000000E+00 -1.0000000E+00
outer loop
vertex 1.2325200E-02 8.8025685E-03 -4.9999999E-03
vertex 1.2160300E-02 1.3365990E-02 -4.9999999E-03
vertex 1.6206199E-02 1.1921820E-02 -4.9999999E-03
endloop
endfacet
facet normal 0.0000000E+00 0.0000000E+00 -1.0000000E+00
outer loop
vertex 1.3454800E-02 -1.1136950E-02 -4.9999999E-03
vertex 1.1631100E-02 -8.8741938E-03 -4.9999999E-03
vertex 1.7283600E-02 -1.0797050E-02 -4.9999999E-03
endloop
endfacet
facet normal 0.0000000E+00 0.0000000E+00 -1.0000000E+00
outer loop
vertex 8.7941000E-03 -1.1458520E-02 -4.9999999E-03
vertex 1.1902200E-02 -1.3271780E-02 -4.9999999E-03
vertex 9.3614003E-03 -1.7927131E-02 -4.9999999E-03
endloop
endfacet
facet normal 0.0000000E+00 0.0000000E+00 -1.0000000E+00
outer loop
vertex -1.3232400E-02 -1.2404460E-02 -4.9999999E-03
vertex -9.0095000E-03 -1.2307460E-02 -4.9999999E-03
vertex -1.0257800E-02 -1.7214989E-02 -4.9999999E-03
endloop
endfacet
facet normal 0.0000000E+00 0.0000000E+00 -1.0000000E+00
outer loop
vertex 9.3614003E-03 -1.7927131E-02 -4.9999999E-03
vertex 1.1902200E-02 -1.3271780E-02 -4.9999999E-03
vertex 1.7283600E-02 -1.0797050E-02 -4.9999999E-03
endloop
endfacet
facet normal 0.0000000E+00 0.0000000E+00 -1.0000000E+00
outer loop
vertex 1.1902200E-02 -1.3271780E-02 -4.9999999E-03
vertex 1.3454800E-02 -1.1136950E-02 -4.9999999E-03
vertex 1.7283600E-02 -1.0797050E-02 -4.9999999E-03
endloop
endfacet
facet normal 0.0000000E+00 0.0000000E+00 -1.0000000E+00
outer loop
vertex -1.0615200E-02 8.7354062E-03 -4.9999999E-03
vertex -8.9349002E-03 1.2007650E-02 -4.9999999E-03
vertex -6.8382998E-03 7.3243012E-03 -4.9999999E-03
endloop
endfacet
facet normal 0.0000000E+00 0.0000000E+00 -1.0000000E+00
outer loop
vertex -1.0615200E-02 8.7354062E-03 -4.9999999E-03
vertex -6.8382998E-03 7.3243012E-03 -4.9999999E-03
vertex -9.8074004E-03 2.3784640E-03 -4.9999999E-03
endloop
endfacet
facet normal 0.0000000E+00 0.0000000E+00 -9.9999994E-01
outer loop
vertex 1.2325200E-02 8.8025685E-03 -4.9999999E-03
vertex 1.6206199E-02 1.1921820E-02 -4.9999999E-03
vertex 1.9153699E-02 6.4779008E-03 -4.9999999E-03
endloop
endfacet
facet normal 0.0000000E+00 0.0000000E+00 -1.0000000E+00
outer loop
vertex -6.8382998E-03 7.3243012E-03 -4.9999999E-03
vertex -8.9349002E-03 1.2007650E-02 -4.9999999E-03
vertex -1.8848000E-03 9.9786827E-03 -4.9999999E-03
endloop
endfacet
facet normal 0.0000000E+00 0.0000000E+00 -9.9999994E-01
outer loop
vertex -1.8369401E-02 7.8335414E-03 -4.9999999E-03
vertex -1.0615200E-02 8.7354062E-03 -4.9999999E-03
vertex -9.8074004E-03 2.3784640E-03 -4.9999999E-03
endloop
endfacet
facet normal 0.0000000E+00 0.0000000E+00 -1.0000000E+00
outer loop
vertex -1.0257800E-02 -1.7214989E-02 -4.9999999E-03
vertex -9.0095000E-03 -1.2307460E-02 -4.9999999E-03
vertex -1.2246000E-03 -2.0269660E-02 -4.9999999E-03
endloop
endfacet
facet normal 0.0000000E+00 0.0000000E+00 -1.0000000E+00
outer loop
vertex -8.9349002E-03 1.2007650E-02 -4.9999999E-03
vertex -4.7080001E-04 2.0344390E-02 -4.9999999E-03
vertex -1.8848000E-03 9.9786827E-03 -4.9999999E-03
endloop
endfacet
facet normal 0.0000000E+00 0.0000000E+00 -1.0000000E+00
outer loop
vertex -9.0095000E-03 -1.2307460E-02 -4.9999999E-03
vertex -4.8713000E-03 -8.8769346E-03 -4.9999999E-03
vertex -1.2246000E-03 -2.0269660E-02 -4.9999999E-03
endloop
endfacet
facet normal 0.0000000E+00 0.0000000E+00 -1.0000000E+00
outer loop
vertex -2.0050200E-02 7.4661197E-04 -4.9999999E-03
vertex -1.8369401E-02 7.8335414E-03 -4.9999999E-03
vertex -9.8074004E-03 2.3784640E-03 -4.9999999E-03
endloop
endfacet
facet normal 0.0000000E+00 0.0000000E+00 -1.0000000E+00
outer loop
vertex 1.3112300E-02 3.6042891E-04 -4.9999999E-03
vertex 1.0089100E-02 2.5343020E-03 -4.9999999E-03
vertex 1.5608600E-02 2.5899741E-03 -4.9999999E-03
endloop
endfacet
facet normal 0.0000000E+00 0.0000000E+00 -1.0000000E+00
outer loop
vertex 1.0089100E-02 2.5343020E-03 -4.9999999E-03
vertex 1.2325200E-02 8.8025685E-03 -4.9999999E-03
vertex 1.5608600E-02 2.5899741E-03 -4.9999999E-03
endloop
endfacet
facet normal 0.0000000E+00 0.0000000E+00 -9.9999994E-01
outer loop
vertex 1.2325200E-02 8.8025685E-03 -4.9999999E-03
vertex 1.9153699E-02 6.4779008E-03 -4.9999999E-03
vertex 1.5608600E-02 2.5899741E-03 -4.9999999E-03
endloop
endfacet
facet normal 0.0000000E+00 0.0000000E+00 -1.0000000E+00
outer loop
vertex 8.8670999E-03 -5.2206181E-03 -4.9999999E-03
vertex 1.0089100E-02 2.5343020E-03 -4.9999999E-03
vertex 1.3112300E-02 3.6042891E-04 -4.9999999E-03
endloop
endfacet
facet normal 0.0000000E+00 0.0000000E+00 -1.0000000E+00
outer loop
vertex -2.0050200E-02 7.4661197E-04 -4.9999999E-03
vertex -9.8074004E-03 2.3784640E-03 -4.9999999E-03
vertex -9.1799004E-03 -4.1373302E-03 -4.9999999E-03
endloop
endfacet
facet normal 0.0000000E+00 0.0000000E+00 -1.0000000E+00
outer loop
vertex -4.8713000E-03 -8.8769346E-03 -4.9999999E-03
vertex 2.6342000E-03 -9.9890940E-03 -4.9999999E-03
vertex -1.2246000E-03 -2.0269660E-02 -4.9999999E-03
endloop
endfacet
facet normal 0.0000000E+00 0.0000000E+00 -9.9999994E-01
outer loop
vertex -1.8848000E-03 9.9786827E-03 -4.9999999E-03
vertex -4.7080001E-04 2.0344390E-02 -4.9999999E-03
vertex 5.1014000E-03 8.9304792E-03 -4.9999999E-03
endloop
endfacet
facet normal 0.0000000E+00 0.0000000E+00 -1.0000000E+00
outer loop
vertex 1.8541999E-02 7.2126160E-04 -4.9999999E-03
vertex 1.5608600E-02 2.5899741E-03 -4.9999999E-03
vertex 1.9153699E-02 6.4779008E-03 -4.9999999E-03
endloop
endfacet
facet normal 0.0000000E+00 0.0000000E+00 -1.0000000E+00
outer loop
vertex 8.8670999E-03 -5.2206181E-03 -4.9999999E-03
vertex 1.3112300E-02 3.6042891E-04 -4.9999999E-03
vertex 1.5969301E-02 -2.8132719E-03 -4.9999999E-03
endloop
endfacet
facet normal 0.0000000E+00 0.0000000E+00 -1.0000000E+00
outer loop
vertex -1.8185800E-02 -8.6029591E-03 -4.9999999E-03
vertex -2.0050200E-02 7.4661197E-04 -4.9999999E-03
vertex -9.1799004E-03 -4.1373302E-03 -4.9999999E-03
endloop
endfacet
facet normal 0.0000000E+00 0.0000000E+00 -1.0000000E+00
outer loop
vertex -4.7080001E-04 2.0344390E-02 -4.9999999E-03
vertex 1.0860100E-02 1.7124319E-02 -4.9999999E-03
vertex 5.1014000E-03 8.9304792E-03 -4.9999999E-03
endloop
endfacet
facet normal 2.2995793E-03 -2.4435317E-04 -9.9999732E-01
outer loop
vertex 1.8541999E-02 7.2126160E-04 -4.9999999E-03
vertex 1.9153699E-02 6.4779008E-03 -4.9999999E-03
vertex 2.0183200E-02 -1.0209570E-03 -4.9958001E-03
endloop
endfacet
endsolid Created by stlwrite.m 04-Dec-2015 19:02:08
