solid IRB6650S_90-390_M2005_REV1_01-10
   facet normal 7.260555e-018 -6.384053e-014 -1.000000e+000
      outer loop
         vertex 4.924300e+002 1.985581e+002 2.008500e+003
         vertex 7.254300e+002 1.985581e+002 2.008500e+003
         vertex 4.924300e+002 1.879820e+002 2.008500e+003
      endloop
   endfacet
   facet normal 7.260555e-018 -6.384053e-014 -1.000000e+000
      outer loop
         vertex 4.924300e+002 1.879820e+002 2.008500e+003
         vertex 7.254300e+002 1.985581e+002 2.008500e+003
         vertex 7.254300e+002 1.879820e+002 2.008500e+003
      endloop
   endfacet
   facet normal 4.321991e-017 -7.071068e-001 -7.071068e-001
      outer loop
         vertex 4.924300e+002 2.074820e+002 1.999576e+003
         vertex 7.254300e+002 2.074820e+002 1.999576e+003
         vertex 4.924300e+002 1.985581e+002 2.008500e+003
      endloop
   endfacet
   facet normal 4.321991e-017 -7.071068e-001 -7.071068e-001
      outer loop
         vertex 4.924300e+002 1.985581e+002 2.008500e+003
         vertex 7.254300e+002 2.074820e+002 1.999576e+003
         vertex 7.254300e+002 1.985581e+002 2.008500e+003
      endloop
   endfacet
   facet normal 5.386162e-017 -1.000000e+000 -1.098579e-015
      outer loop
         vertex 4.924300e+002 2.074820e+002 1.989000e+003
         vertex 7.254300e+002 2.074820e+002 1.989000e+003
         vertex 4.924300e+002 2.074820e+002 1.999576e+003
      endloop
   endfacet
   facet normal 5.386162e-017 -1.000000e+000 -1.098579e-015
      outer loop
         vertex 4.924300e+002 2.074820e+002 1.999576e+003
         vertex 7.254300e+002 2.074820e+002 1.989000e+003
         vertex 7.254300e+002 2.074820e+002 1.999576e+003
      endloop
   endfacet
   facet normal 7.260555e-018 6.475326e-014 -1.000000e+000
      outer loop
         vertex 4.924300e+002 3.099820e+002 2.008500e+003
         vertex 7.254300e+002 3.099820e+002 2.008500e+003
         vertex 4.924300e+002 2.994059e+002 2.008500e+003
      endloop
   endfacet
   facet normal 7.260555e-018 6.475326e-014 -1.000000e+000
      outer loop
         vertex 4.924300e+002 2.994059e+002 2.008500e+003
         vertex 7.254300e+002 3.099820e+002 2.008500e+003
         vertex 7.254300e+002 2.994059e+002 2.008500e+003
      endloop
   endfacet
   facet normal -3.295193e-017 7.071068e-001 -7.071068e-001
      outer loop
         vertex 4.924300e+002 2.994059e+002 2.008500e+003
         vertex 7.254300e+002 2.994059e+002 2.008500e+003
         vertex 4.924300e+002 2.904820e+002 1.999576e+003
      endloop
   endfacet
   facet normal -3.295193e-017 7.071068e-001 -7.071068e-001
      outer loop
         vertex 4.924300e+002 2.904820e+002 1.999576e+003
         vertex 7.254300e+002 2.994059e+002 2.008500e+003
         vertex 7.254300e+002 2.904820e+002 1.999576e+003
      endloop
   endfacet
   facet normal 0.000000e+000 1.000000e+000 -2.136028e-016
      outer loop
         vertex 4.924300e+002 2.904820e+002 1.999576e+003
         vertex 7.254300e+002 2.904820e+002 1.999576e+003
         vertex 4.924300e+002 2.904820e+002 1.989000e+003
      endloop
   endfacet
   facet normal 0.000000e+000 1.000000e+000 -2.136028e-016
      outer loop
         vertex 4.924300e+002 2.904820e+002 1.989000e+003
         vertex 7.254300e+002 2.904820e+002 1.999576e+003
         vertex 7.254300e+002 2.904820e+002 1.989000e+003
      endloop
   endfacet
   facet normal -1.000000e+000 -1.387779e-017 -3.248540e-017
      outer loop
         vertex 4.674300e+002 2.566016e+002 2.003115e+003
         vertex 4.674300e+002 2.489820e+002 2.002500e+003
         vertex 4.674300e+002 2.413625e+002 2.003115e+003
      endloop
   endfacet
   facet normal -1.000000e+000 -1.387779e-017 -3.248540e-017
      outer loop
         vertex 4.674300e+002 2.710564e+002 2.007941e+003
         vertex 4.674300e+002 2.640237e+002 2.004945e+003
         vertex 4.674300e+002 2.566016e+002 2.003115e+003
      endloop
   endfacet
   facet normal -1.000000e+000 -1.387779e-017 -3.248540e-017
      outer loop
         vertex 4.674300e+002 2.269077e+002 2.007941e+003
         vertex 4.674300e+002 2.204468e+002 2.012026e+003
         vertex 4.674300e+002 2.743691e+002 2.090147e+003
      endloop
   endfacet
   facet normal -1.000000e+000 -1.387779e-017 -3.248540e-017
      outer loop
         vertex 4.674300e+002 2.743691e+002 2.090146e+003
         vertex 4.674300e+002 2.204468e+002 2.012026e+003
         vertex 4.674300e+002 2.147249e+002 2.017096e+003
      endloop
   endfacet
   facet normal -1.000000e+000 -1.387779e-017 -3.248540e-017
      outer loop
         vertex 4.674300e+002 2.098903e+002 2.023017e+003
         vertex 4.674300e+002 2.060681e+002 2.029637e+003
         vertex 4.674300e+002 2.033574e+002 2.036785e+003
      endloop
   endfacet
   facet normal -1.000000e+000 -1.387779e-017 -3.248540e-017
      outer loop
         vertex 4.674300e+002 2.147249e+002 2.017096e+003
         vertex 4.674300e+002 2.174837e+002 2.085554e+003
         vertex 4.674300e+002 2.235949e+002 2.090147e+003
      endloop
   endfacet
   facet normal -1.000000e+000 -1.387779e-017 -3.248540e-017
      outer loop
         vertex 4.674300e+002 2.946066e+002 2.036785e+003
         vertex 4.674300e+002 2.918959e+002 2.029637e+003
         vertex 4.674300e+002 2.880738e+002 2.023017e+003
      endloop
   endfacet
   facet normal -1.000000e+000 -1.387779e-017 -3.248540e-017
      outer loop
         vertex 4.674300e+002 2.964435e+002 2.051913e+003
         vertex 4.674300e+002 2.961357e+002 2.044275e+003
         vertex 4.674300e+002 2.946066e+002 2.036785e+003
      endloop
   endfacet
   facet normal -1.000000e+000 -1.387779e-017 -3.248540e-017
      outer loop
         vertex 4.674300e+002 2.147249e+002 2.017096e+003
         vertex 4.674300e+002 2.098903e+002 2.023017e+003
         vertex 4.674300e+002 2.174837e+002 2.085554e+003
      endloop
   endfacet
   facet normal -1.000000e+000 -1.387779e-017 -3.248540e-017
      outer loop
         vertex 4.674300e+002 2.174837e+002 2.085554e+003
         vertex 4.674300e+002 2.098903e+002 2.023017e+003
         vertex 4.674300e+002 2.033574e+002 2.036785e+003
      endloop
   endfacet
   facet normal -1.000000e+000 -1.387779e-017 -3.248540e-017
      outer loop
         vertex 4.674300e+002 2.174837e+002 2.085554e+003
         vertex 4.674300e+002 2.033574e+002 2.036785e+003
         vertex 4.674300e+002 2.121883e+002 2.080041e+003
      endloop
   endfacet
   facet normal -1.000000e+000 -1.387779e-017 -3.248540e-017
      outer loop
         vertex 4.674300e+002 2.121883e+002 2.080041e+003
         vertex 4.674300e+002 2.033574e+002 2.036785e+003
         vertex 4.674300e+002 2.018283e+002 2.044275e+003
      endloop
   endfacet
   facet normal -1.000000e+000 -1.387779e-017 -3.248540e-017
      outer loop
         vertex 4.674300e+002 2.121883e+002 2.080041e+003
         vertex 4.674300e+002 2.018283e+002 2.044275e+003
         vertex 4.674300e+002 2.078458e+002 2.073750e+003
      endloop
   endfacet
   facet normal -1.000000e+000 -1.387779e-017 -3.248540e-017
      outer loop
         vertex 4.674300e+002 2.078458e+002 2.073750e+003
         vertex 4.674300e+002 2.018283e+002 2.044275e+003
         vertex 4.674300e+002 2.015206e+002 2.051913e+003
      endloop
   endfacet
   facet normal -1.000000e+000 -1.387779e-017 -3.248540e-017
      outer loop
         vertex 4.674300e+002 2.078458e+002 2.073750e+003
         vertex 4.674300e+002 2.015206e+002 2.051913e+003
         vertex 4.674300e+002 2.045687e+002 2.066844e+003
      endloop
   endfacet
   facet normal -1.000000e+000 -1.387779e-017 -3.248540e-017
      outer loop
         vertex 4.674300e+002 2.045687e+002 2.066844e+003
         vertex 4.674300e+002 2.015206e+002 2.051913e+003
         vertex 4.674300e+002 2.024420e+002 2.059501e+003
      endloop
   endfacet
   facet normal -1.000000e+000 -1.387779e-017 -3.248540e-017
      outer loop
         vertex 4.674300e+002 2.303636e+002 2.093699e+003
         vertex 4.674300e+002 2.376145e+002 2.096120e+003
         vertex 4.674300e+002 2.235949e+002 2.090147e+003
      endloop
   endfacet
   facet normal -1.000000e+000 -1.387779e-017 -3.248540e-017
      outer loop
         vertex 4.674300e+002 2.235949e+002 2.090146e+003
         vertex 4.674300e+002 2.376145e+002 2.096120e+003
         vertex 4.674300e+002 2.451599e+002 2.097346e+003
      endloop
   endfacet
   facet normal -1.000000e+000 -1.387779e-017 -3.248540e-017
      outer loop
         vertex 4.674300e+002 2.235949e+002 2.090146e+003
         vertex 4.674300e+002 2.451599e+002 2.097346e+003
         vertex 4.674300e+002 2.147249e+002 2.017096e+003
      endloop
   endfacet
   facet normal -1.000000e+000 -1.387779e-017 -3.248540e-017
      outer loop
         vertex 4.674300e+002 2.946066e+002 2.036785e+003
         vertex 4.674300e+002 2.804803e+002 2.085554e+003
         vertex 4.674300e+002 2.857758e+002 2.080041e+003
      endloop
   endfacet
   facet normal -1.000000e+000 -1.387779e-017 -3.248540e-017
      outer loop
         vertex 4.674300e+002 2.946066e+002 2.036785e+003
         vertex 4.674300e+002 2.880738e+002 2.023017e+003
         vertex 4.674300e+002 2.804803e+002 2.085554e+003
      endloop
   endfacet
   facet normal -1.000000e+000 -1.387779e-017 -3.248540e-017
      outer loop
         vertex 4.674300e+002 2.804803e+002 2.085554e+003
         vertex 4.674300e+002 2.880738e+002 2.023017e+003
         vertex 4.674300e+002 2.832391e+002 2.017096e+003
      endloop
   endfacet
   facet normal -1.000000e+000 -1.387779e-017 -3.248540e-017
      outer loop
         vertex 4.674300e+002 2.804803e+002 2.085554e+003
         vertex 4.674300e+002 2.832391e+002 2.017096e+003
         vertex 4.674300e+002 2.775173e+002 2.012027e+003
      endloop
   endfacet
   facet normal -1.000000e+000 -1.387779e-017 -3.248540e-017
      outer loop
         vertex 4.674300e+002 2.676004e+002 2.093699e+003
         vertex 4.674300e+002 2.743691e+002 2.090146e+003
         vertex 4.674300e+002 2.603495e+002 2.096120e+003
      endloop
   endfacet
   facet normal -1.000000e+000 -1.387779e-017 -3.248540e-017
      outer loop
         vertex 4.674300e+002 2.603495e+002 2.096120e+003
         vertex 4.674300e+002 2.743691e+002 2.090146e+003
         vertex 4.674300e+002 2.147249e+002 2.017096e+003
      endloop
   endfacet
   facet normal -1.000000e+000 -1.387779e-017 -3.248540e-017
      outer loop
         vertex 4.674300e+002 2.603495e+002 2.096120e+003
         vertex 4.674300e+002 2.147249e+002 2.017096e+003
         vertex 4.674300e+002 2.528042e+002 2.097346e+003
      endloop
   endfacet
   facet normal -1.000000e+000 -1.387779e-017 -3.248540e-017
      outer loop
         vertex 4.674300e+002 2.528042e+002 2.097346e+003
         vertex 4.674300e+002 2.147249e+002 2.017096e+003
         vertex 4.674300e+002 2.451599e+002 2.097346e+003
      endloop
   endfacet
   facet normal -1.000000e+000 -1.387779e-017 -3.248540e-017
      outer loop
         vertex 4.674300e+002 2.775173e+002 2.012026e+003
         vertex 4.674300e+002 2.710564e+002 2.007941e+003
         vertex 4.674300e+002 2.804803e+002 2.085554e+003
      endloop
   endfacet
   facet normal -1.000000e+000 -1.387779e-017 -3.248540e-017
      outer loop
         vertex 4.674300e+002 2.804803e+002 2.085554e+003
         vertex 4.674300e+002 2.710564e+002 2.007941e+003
         vertex 4.674300e+002 2.566016e+002 2.003115e+003
      endloop
   endfacet
   facet normal -1.000000e+000 -1.387779e-017 -3.248540e-017
      outer loop
         vertex 4.674300e+002 2.804803e+002 2.085554e+003
         vertex 4.674300e+002 2.566016e+002 2.003115e+003
         vertex 4.674300e+002 2.743691e+002 2.090147e+003
      endloop
   endfacet
   facet normal -1.000000e+000 -1.387779e-017 -3.248540e-017
      outer loop
         vertex 4.674300e+002 2.743691e+002 2.090146e+003
         vertex 4.674300e+002 2.566016e+002 2.003115e+003
         vertex 4.674300e+002 2.413625e+002 2.003115e+003
      endloop
   endfacet
   facet normal -1.000000e+000 -1.387779e-017 -3.248540e-017
      outer loop
         vertex 4.674300e+002 2.743691e+002 2.090146e+003
         vertex 4.674300e+002 2.413625e+002 2.003115e+003
         vertex 4.674300e+002 2.269077e+002 2.007941e+003
      endloop
   endfacet
   facet normal -1.000000e+000 -1.387779e-017 -3.248540e-017
      outer loop
         vertex 4.674300e+002 2.269077e+002 2.007941e+003
         vertex 4.674300e+002 2.413625e+002 2.003115e+003
         vertex 4.674300e+002 2.339403e+002 2.004945e+003
      endloop
   endfacet
   facet normal -1.000000e+000 -1.387779e-017 -3.248540e-017
      outer loop
         vertex 4.674300e+002 2.955221e+002 2.059501e+003
         vertex 4.674300e+002 2.964435e+002 2.051913e+003
         vertex 4.674300e+002 2.933953e+002 2.066844e+003
      endloop
   endfacet
   facet normal -1.000000e+000 -1.387779e-017 -3.248540e-017
      outer loop
         vertex 4.674300e+002 2.933953e+002 2.066844e+003
         vertex 4.674300e+002 2.964435e+002 2.051913e+003
         vertex 4.674300e+002 2.946066e+002 2.036785e+003
      endloop
   endfacet
   facet normal -1.000000e+000 -1.387779e-017 -3.248540e-017
      outer loop
         vertex 4.674300e+002 2.933953e+002 2.066844e+003
         vertex 4.674300e+002 2.946066e+002 2.036785e+003
         vertex 4.674300e+002 2.901182e+002 2.073750e+003
      endloop
   endfacet
   facet normal -1.000000e+000 -1.387779e-017 -3.248540e-017
      outer loop
         vertex 4.674300e+002 2.901182e+002 2.073750e+003
         vertex 4.674300e+002 2.946066e+002 2.036785e+003
         vertex 4.674300e+002 2.857758e+002 2.080041e+003
      endloop
   endfacet
   facet normal -3.295193e-017 7.071068e-001 -7.071068e-001
      outer loop
         vertex 4.924300e+002 2.904820e+002 1.989000e+003
         vertex 7.254300e+002 2.904820e+002 1.989000e+003
         vertex 4.924300e+002 2.864820e+002 1.985000e+003
      endloop
   endfacet
   facet normal -3.295193e-017 7.071068e-001 -7.071068e-001
      outer loop
         vertex 4.924300e+002 2.864820e+002 1.985000e+003
         vertex 7.254300e+002 2.904820e+002 1.989000e+003
         vertex 7.254300e+002 2.864820e+002 1.985000e+003
      endloop
   endfacet
   facet normal 4.321991e-017 -7.071068e-001 -7.071068e-001
      outer loop
         vertex 4.924300e+002 2.114820e+002 1.985000e+003
         vertex 7.254300e+002 2.114820e+002 1.985000e+003
         vertex 4.924300e+002 2.074820e+002 1.989000e+003
      endloop
   endfacet
   facet normal 4.321991e-017 -7.071068e-001 -7.071068e-001
      outer loop
         vertex 4.924300e+002 2.074820e+002 1.989000e+003
         vertex 7.254300e+002 2.114820e+002 1.985000e+003
         vertex 7.254300e+002 2.074820e+002 1.989000e+003
      endloop
   endfacet
   facet normal 1.000000e+000 0.000000e+000 0.000000e+000
      outer loop
         vertex 4.924300e+002 1.968693e+002 1.985000e+003
         vertex 4.924300e+002 2.114820e+002 1.985000e+003
         vertex 4.924300e+002 2.074820e+002 1.989000e+003
      endloop
   endfacet
   facet normal 1.000000e+000 0.000000e+000 0.000000e+000
      outer loop
         vertex 4.924300e+002 2.074820e+002 1.989000e+003
         vertex 4.924300e+002 2.074820e+002 1.999576e+003
         vertex 4.924300e+002 1.968693e+002 1.985000e+003
      endloop
   endfacet
   facet normal 1.000000e+000 0.000000e+000 0.000000e+000
      outer loop
         vertex 4.924300e+002 1.968693e+002 1.985000e+003
         vertex 4.924300e+002 2.074820e+002 1.999576e+003
         vertex 4.924300e+002 1.985581e+002 2.008500e+003
      endloop
   endfacet
   facet normal 1.000000e+000 0.000000e+000 0.000000e+000
      outer loop
         vertex 4.924300e+002 1.968693e+002 1.985000e+003
         vertex 4.924300e+002 1.985581e+002 2.008500e+003
         vertex 4.924300e+002 1.839820e+002 1.997887e+003
      endloop
   endfacet
   facet normal 1.000000e+000 0.000000e+000 0.000000e+000
      outer loop
         vertex 4.924300e+002 1.839820e+002 1.997887e+003
         vertex 4.924300e+002 1.985581e+002 2.008500e+003
         vertex 4.924300e+002 1.879820e+002 2.008500e+003
      endloop
   endfacet
   facet normal 1.000000e+000 0.000000e+000 0.000000e+000
      outer loop
         vertex 4.924300e+002 1.839820e+002 1.997887e+003
         vertex 4.924300e+002 1.879820e+002 2.008500e+003
         vertex 4.924300e+002 1.839820e+002 2.012500e+003
      endloop
   endfacet
   facet normal 4.321991e-017 -7.071068e-001 -7.071068e-001
      outer loop
         vertex 4.924300e+002 1.879820e+002 2.008500e+003
         vertex 7.254300e+002 1.879820e+002 2.008500e+003
         vertex 4.924300e+002 1.839820e+002 2.012500e+003
      endloop
   endfacet
   facet normal 4.321991e-017 -7.071068e-001 -7.071068e-001
      outer loop
         vertex 4.924300e+002 1.839820e+002 2.012500e+003
         vertex 7.254300e+002 1.879820e+002 2.008500e+003
         vertex 7.254300e+002 1.839820e+002 2.012500e+003
      endloop
   endfacet
   facet normal 7.071068e-001 -7.071068e-001 3.249811e-016
      outer loop
         vertex 7.254300e+002 2.074820e+002 2.100424e+003
         vertex 7.274300e+002 2.094820e+002 2.099595e+003
         vertex 7.254300e+002 2.074820e+002 2.111000e+003
      endloop
   endfacet
   facet normal 7.071068e-001 -7.071068e-001 3.249811e-016
      outer loop
         vertex 7.254300e+002 2.074820e+002 2.111000e+003
         vertex 7.274300e+002 2.094820e+002 2.099595e+003
         vertex 7.274300e+002 2.094820e+002 2.110172e+003
      endloop
   endfacet
   facet normal 7.071068e-001 -5.000000e-001 5.000000e-001
      outer loop
         vertex 7.254300e+002 1.985581e+002 2.091500e+003
         vertex 7.274300e+002 1.993866e+002 2.089500e+003
         vertex 7.254300e+002 2.074820e+002 2.100424e+003
      endloop
   endfacet
   facet normal 7.071068e-001 -5.000000e-001 5.000000e-001
      outer loop
         vertex 7.254300e+002 2.074820e+002 2.100424e+003
         vertex 7.274300e+002 1.993866e+002 2.089500e+003
         vertex 7.274300e+002 2.094820e+002 2.099596e+003
      endloop
   endfacet
   facet normal 7.071068e-001 -4.562669e-014 7.071068e-001
      outer loop
         vertex 7.254300e+002 1.879820e+002 2.091500e+003
         vertex 7.274300e+002 1.888105e+002 2.089500e+003
         vertex 7.254300e+002 1.985581e+002 2.091500e+003
      endloop
   endfacet
   facet normal 7.071068e-001 -4.562669e-014 7.071068e-001
      outer loop
         vertex 7.254300e+002 1.985581e+002 2.091500e+003
         vertex 7.274300e+002 1.888105e+002 2.089500e+003
         vertex 7.274300e+002 1.993866e+002 2.089500e+003
      endloop
   endfacet
   facet normal 7.071068e-001 -5.000000e-001 5.000000e-001
      outer loop
         vertex 7.254300e+002 1.839820e+002 2.087500e+003
         vertex 7.274300e+002 1.859820e+002 2.086672e+003
         vertex 7.254300e+002 1.879820e+002 2.091500e+003
      endloop
   endfacet
   facet normal 7.071068e-001 -5.000000e-001 5.000000e-001
      outer loop
         vertex 7.254300e+002 1.879820e+002 2.091500e+003
         vertex 7.274300e+002 1.859820e+002 2.086672e+003
         vertex 7.274300e+002 1.888105e+002 2.089500e+003
      endloop
   endfacet
   facet normal 7.071068e-001 -7.071068e-001 -1.389451e-016
      outer loop
         vertex 7.254300e+002 1.839820e+002 2.012500e+003
         vertex 7.274300e+002 1.859820e+002 2.013328e+003
         vertex 7.254300e+002 1.839820e+002 2.087500e+003
      endloop
   endfacet
   facet normal 7.071068e-001 -7.071068e-001 -1.389451e-016
      outer loop
         vertex 7.254300e+002 1.839820e+002 2.087500e+003
         vertex 7.274300e+002 1.859820e+002 2.013328e+003
         vertex 7.274300e+002 1.859820e+002 2.086672e+003
      endloop
   endfacet
   facet normal 7.071068e-001 -5.000000e-001 -5.000000e-001
      outer loop
         vertex 7.254300e+002 1.879820e+002 2.008500e+003
         vertex 7.274300e+002 1.888105e+002 2.010500e+003
         vertex 7.254300e+002 1.839820e+002 2.012500e+003
      endloop
   endfacet
   facet normal 7.071068e-001 -5.000000e-001 -5.000000e-001
      outer loop
         vertex 7.254300e+002 1.839820e+002 2.012500e+003
         vertex 7.274300e+002 1.888105e+002 2.010500e+003
         vertex 7.274300e+002 1.859820e+002 2.013328e+003
      endloop
   endfacet
   facet normal 7.071068e-001 -4.513226e-014 -7.071068e-001
      outer loop
         vertex 7.254300e+002 1.985581e+002 2.008500e+003
         vertex 7.274300e+002 1.993866e+002 2.010500e+003
         vertex 7.254300e+002 1.879820e+002 2.008500e+003
      endloop
   endfacet
   facet normal 7.071068e-001 -4.513226e-014 -7.071068e-001
      outer loop
         vertex 7.254300e+002 1.879820e+002 2.008500e+003
         vertex 7.274300e+002 1.993866e+002 2.010500e+003
         vertex 7.274300e+002 1.888105e+002 2.010500e+003
      endloop
   endfacet
   facet normal 7.071068e-001 -5.000000e-001 -5.000000e-001
      outer loop
         vertex 7.254300e+002 2.074820e+002 1.999576e+003
         vertex 7.274300e+002 2.094820e+002 2.000405e+003
         vertex 7.254300e+002 1.985581e+002 2.008500e+003
      endloop
   endfacet
   facet normal 7.071068e-001 -5.000000e-001 -5.000000e-001
      outer loop
         vertex 7.254300e+002 1.985581e+002 2.008500e+003
         vertex 7.274300e+002 2.094820e+002 2.000405e+003
         vertex 7.274300e+002 1.993866e+002 2.010500e+003
      endloop
   endfacet
   facet normal 7.071068e-001 -7.071068e-001 -7.538418e-016
      outer loop
         vertex 7.254300e+002 2.074820e+002 1.989000e+003
         vertex 7.274300e+002 2.094820e+002 1.989828e+003
         vertex 7.254300e+002 2.074820e+002 1.999576e+003
      endloop
   endfacet
   facet normal 7.071068e-001 -7.071068e-001 -7.538418e-016
      outer loop
         vertex 7.254300e+002 2.074820e+002 1.999576e+003
         vertex 7.274300e+002 2.094820e+002 1.989828e+003
         vertex 7.274300e+002 2.094820e+002 2.000405e+003
      endloop
   endfacet
   facet normal 7.071068e-001 -5.000000e-001 -5.000000e-001
      outer loop
         vertex 7.254300e+002 2.114820e+002 1.985000e+003
         vertex 7.274300e+002 2.123105e+002 1.987000e+003
         vertex 7.254300e+002 2.074820e+002 1.989000e+003
      endloop
   endfacet
   facet normal 7.071068e-001 -5.000000e-001 -5.000000e-001
      outer loop
         vertex 7.254300e+002 2.074820e+002 1.989000e+003
         vertex 7.274300e+002 2.123105e+002 1.987000e+003
         vertex 7.274300e+002 2.094820e+002 1.989828e+003
      endloop
   endfacet
   facet normal 7.071068e-001 3.325124e-016 -7.071068e-001
      outer loop
         vertex 7.274300e+002 2.123105e+002 1.987000e+003
         vertex 7.254300e+002 2.114820e+002 1.985000e+003
         vertex 7.274300e+002 2.856536e+002 1.987000e+003
      endloop
   endfacet
   facet normal 7.071068e-001 3.325124e-016 -7.071068e-001
      outer loop
         vertex 7.274300e+002 2.856536e+002 1.987000e+003
         vertex 7.254300e+002 2.114820e+002 1.985000e+003
         vertex 7.254300e+002 2.864820e+002 1.985000e+003
      endloop
   endfacet
   facet normal 7.071068e-001 5.000000e-001 -5.000000e-001
      outer loop
         vertex 7.274300e+002 2.856536e+002 1.987000e+003
         vertex 7.254300e+002 2.864820e+002 1.985000e+003
         vertex 7.274300e+002 2.884820e+002 1.989828e+003
      endloop
   endfacet
   facet normal 7.071068e-001 5.000000e-001 -5.000000e-001
      outer loop
         vertex 7.274300e+002 2.884820e+002 1.989828e+003
         vertex 7.254300e+002 2.864820e+002 1.985000e+003
         vertex 7.254300e+002 2.904820e+002 1.989000e+003
      endloop
   endfacet
   facet normal 7.071068e-001 7.071068e-001 -1.280694e-016
      outer loop
         vertex 7.274300e+002 2.884820e+002 1.989828e+003
         vertex 7.254300e+002 2.904820e+002 1.989000e+003
         vertex 7.274300e+002 2.884820e+002 2.000405e+003
      endloop
   endfacet
   facet normal 7.071068e-001 7.071068e-001 -1.280694e-016
      outer loop
         vertex 7.274300e+002 2.884820e+002 2.000405e+003
         vertex 7.254300e+002 2.904820e+002 1.989000e+003
         vertex 7.254300e+002 2.904820e+002 1.999576e+003
      endloop
   endfacet
   facet normal 7.071068e-001 5.000000e-001 -5.000000e-001
      outer loop
         vertex 7.274300e+002 2.884820e+002 2.000405e+003
         vertex 7.254300e+002 2.904820e+002 1.999576e+003
         vertex 7.274300e+002 2.985775e+002 2.010500e+003
      endloop
   endfacet
   facet normal 7.071068e-001 5.000000e-001 -5.000000e-001
      outer loop
         vertex 7.274300e+002 2.985775e+002 2.010500e+003
         vertex 7.254300e+002 2.904820e+002 1.999576e+003
         vertex 7.254300e+002 2.994059e+002 2.008500e+003
      endloop
   endfacet
   facet normal 7.071068e-001 4.579729e-014 -7.071068e-001
      outer loop
         vertex 7.274300e+002 2.985775e+002 2.010500e+003
         vertex 7.254300e+002 2.994059e+002 2.008500e+003
         vertex 7.274300e+002 3.091536e+002 2.010500e+003
      endloop
   endfacet
   facet normal 7.071068e-001 4.579729e-014 -7.071068e-001
      outer loop
         vertex 7.274300e+002 3.091536e+002 2.010500e+003
         vertex 7.254300e+002 2.994059e+002 2.008500e+003
         vertex 7.254300e+002 3.099820e+002 2.008500e+003
      endloop
   endfacet
   facet normal 7.071068e-001 5.000000e-001 -5.000000e-001
      outer loop
         vertex 7.274300e+002 3.091536e+002 2.010500e+003
         vertex 7.254300e+002 3.099820e+002 2.008500e+003
         vertex 7.274300e+002 3.119820e+002 2.013328e+003
      endloop
   endfacet
   facet normal 7.071068e-001 5.000000e-001 -5.000000e-001
      outer loop
         vertex 7.274300e+002 3.119820e+002 2.013328e+003
         vertex 7.254300e+002 3.099820e+002 2.008500e+003
         vertex 7.254300e+002 3.139820e+002 2.012500e+003
      endloop
   endfacet
   facet normal 7.071068e-001 7.071068e-001 1.848864e-016
      outer loop
         vertex 7.274300e+002 3.119820e+002 2.013328e+003
         vertex 7.254300e+002 3.139820e+002 2.012500e+003
         vertex 7.274300e+002 3.119820e+002 2.086672e+003
      endloop
   endfacet
   facet normal 7.071068e-001 7.071068e-001 1.848864e-016
      outer loop
         vertex 7.274300e+002 3.119820e+002 2.086672e+003
         vertex 7.254300e+002 3.139820e+002 2.012500e+003
         vertex 7.254300e+002 3.139820e+002 2.087500e+003
      endloop
   endfacet
   facet normal -3.295193e-017 7.071068e-001 -7.071068e-001
      outer loop
         vertex 4.924300e+002 3.139820e+002 2.012500e+003
         vertex 7.254300e+002 3.139820e+002 2.012500e+003
         vertex 4.924300e+002 3.099820e+002 2.008500e+003
      endloop
   endfacet
   facet normal -3.295193e-017 7.071068e-001 -7.071068e-001
      outer loop
         vertex 4.924300e+002 3.099820e+002 2.008500e+003
         vertex 7.254300e+002 3.139820e+002 2.012500e+003
         vertex 7.254300e+002 3.099820e+002 2.008500e+003
      endloop
   endfacet
   facet normal 1.000000e+000 0.000000e+000 0.000000e+000
      outer loop
         vertex 4.924300e+002 2.904820e+002 1.989000e+003
         vertex 4.924300e+002 2.864820e+002 1.985000e+003
         vertex 4.924300e+002 3.010947e+002 1.985000e+003
      endloop
   endfacet
   facet normal 1.000000e+000 0.000000e+000 0.000000e+000
      outer loop
         vertex 4.924300e+002 2.904820e+002 1.999576e+003
         vertex 4.924300e+002 2.904820e+002 1.989000e+003
         vertex 4.924300e+002 2.994059e+002 2.008500e+003
      endloop
   endfacet
   facet normal 1.000000e+000 0.000000e+000 0.000000e+000
      outer loop
         vertex 4.924300e+002 2.994059e+002 2.008500e+003
         vertex 4.924300e+002 2.904820e+002 1.989000e+003
         vertex 4.924300e+002 3.010947e+002 1.985000e+003
      endloop
   endfacet
   facet normal 1.000000e+000 0.000000e+000 0.000000e+000
      outer loop
         vertex 4.924300e+002 2.994059e+002 2.008500e+003
         vertex 4.924300e+002 3.010947e+002 1.985000e+003
         vertex 4.924300e+002 3.099820e+002 2.008500e+003
      endloop
   endfacet
   facet normal 1.000000e+000 0.000000e+000 0.000000e+000
      outer loop
         vertex 4.924300e+002 3.099820e+002 2.008500e+003
         vertex 4.924300e+002 3.010947e+002 1.985000e+003
         vertex 4.924300e+002 3.139820e+002 1.997887e+003
      endloop
   endfacet
   facet normal 1.000000e+000 0.000000e+000 0.000000e+000
      outer loop
         vertex 4.924300e+002 3.099820e+002 2.008500e+003
         vertex 4.924300e+002 3.139820e+002 1.997887e+003
         vertex 4.924300e+002 3.139820e+002 2.012500e+003
      endloop
   endfacet
   facet normal 7.071068e-001 7.071068e-001 6.488127e-016
      outer loop
         vertex 7.274300e+002 2.884820e+002 2.099595e+003
         vertex 7.254300e+002 2.904820e+002 2.100424e+003
         vertex 7.274300e+002 2.884820e+002 2.110172e+003
      endloop
   endfacet
   facet normal 7.071068e-001 7.071068e-001 6.488127e-016
      outer loop
         vertex 7.274300e+002 2.884820e+002 2.110172e+003
         vertex 7.254300e+002 2.904820e+002 2.100424e+003
         vertex 7.254300e+002 2.904820e+002 2.111000e+003
      endloop
   endfacet
   facet normal 7.071068e-001 5.000000e-001 5.000000e-001
      outer loop
         vertex 7.274300e+002 2.985775e+002 2.089500e+003
         vertex 7.254300e+002 2.994059e+002 2.091500e+003
         vertex 7.274300e+002 2.884820e+002 2.099596e+003
      endloop
   endfacet
   facet normal 7.071068e-001 5.000000e-001 5.000000e-001
      outer loop
         vertex 7.274300e+002 2.884820e+002 2.099595e+003
         vertex 7.254300e+002 2.994059e+002 2.091500e+003
         vertex 7.254300e+002 2.904820e+002 2.100424e+003
      endloop
   endfacet
   facet normal 7.071068e-001 4.530286e-014 7.071068e-001
      outer loop
         vertex 7.274300e+002 3.091536e+002 2.089500e+003
         vertex 7.254300e+002 3.099820e+002 2.091500e+003
         vertex 7.274300e+002 2.985775e+002 2.089500e+003
      endloop
   endfacet
   facet normal 7.071068e-001 4.530286e-014 7.071068e-001
      outer loop
         vertex 7.274300e+002 2.985775e+002 2.089500e+003
         vertex 7.254300e+002 3.099820e+002 2.091500e+003
         vertex 7.254300e+002 2.994059e+002 2.091500e+003
      endloop
   endfacet
   facet normal 7.071068e-001 5.000000e-001 5.000000e-001
      outer loop
         vertex 7.274300e+002 3.119820e+002 2.086672e+003
         vertex 7.254300e+002 3.139820e+002 2.087500e+003
         vertex 7.274300e+002 3.091536e+002 2.089500e+003
      endloop
   endfacet
   facet normal 7.071068e-001 5.000000e-001 5.000000e-001
      outer loop
         vertex 7.274300e+002 3.091536e+002 2.089500e+003
         vertex 7.254300e+002 3.139820e+002 2.087500e+003
         vertex 7.254300e+002 3.099820e+002 2.091500e+003
      endloop
   endfacet
   facet normal 0.000000e+000 5.362497e-002 -9.985611e-001
      outer loop
         vertex 4.674300e+002 2.566016e+002 2.003115e+003
         vertex 4.774300e+002 2.489820e+002 2.002500e+003
         vertex 4.674300e+002 2.489820e+002 2.002500e+003
      endloop
   endfacet
   facet normal 0.000000e+000 -5.362497e-002 -9.985611e-001
      outer loop
         vertex 4.674300e+002 2.489820e+002 2.002500e+003
         vertex 4.774300e+002 2.489820e+002 2.002500e+003
         vertex 4.774300e+002 2.413625e+002 2.003115e+003
      endloop
   endfacet
   facet normal 0.000000e+000 -1.072499e-001 -9.942321e-001
      outer loop
         vertex 4.674300e+002 2.489820e+002 2.002500e+003
         vertex 4.774300e+002 2.413625e+002 2.003115e+003
         vertex 4.674300e+002 2.413625e+002 2.003115e+003
      endloop
   endfacet
   facet normal 0.000000e+000 -2.131110e-001 -9.770280e-001
      outer loop
         vertex 4.674300e+002 2.413625e+002 2.003115e+003
         vertex 4.774300e+002 2.413625e+002 2.003115e+003
         vertex 4.774300e+002 2.339403e+002 2.004945e+003
      endloop
   endfacet
   facet normal 0.000000e+000 -2.653471e-001 -9.641529e-001
      outer loop
         vertex 4.674300e+002 2.413625e+002 2.003115e+003
         vertex 4.774300e+002 2.339403e+002 2.004945e+003
         vertex 4.674300e+002 2.339403e+002 2.004945e+003
      endloop
   endfacet
   facet normal 0.000000e+000 -3.670776e-001 -9.301903e-001
      outer loop
         vertex 4.674300e+002 2.339403e+002 2.004945e+003
         vertex 4.774300e+002 2.339403e+002 2.004945e+003
         vertex 4.774300e+002 2.269077e+002 2.007941e+003
      endloop
   endfacet
   facet normal 0.000000e+000 -4.165719e-001 -9.091027e-001
      outer loop
         vertex 4.674300e+002 2.339403e+002 2.004945e+003
         vertex 4.774300e+002 2.269077e+002 2.007941e+003
         vertex 4.674300e+002 2.269077e+002 2.007941e+003
      endloop
   endfacet
   facet normal 0.000000e+000 -5.115371e-001 -8.592612e-001
      outer loop
         vertex 4.674300e+002 2.269077e+002 2.007941e+003
         vertex 4.774300e+002 2.269077e+002 2.007941e+003
         vertex 4.774300e+002 2.204468e+002 2.012027e+003
      endloop
   endfacet
   facet normal 0.000000e+000 -5.570078e-001 -8.305072e-001
      outer loop
         vertex 4.674300e+002 2.269077e+002 2.007941e+003
         vertex 4.774300e+002 2.204468e+002 2.012026e+003
         vertex 4.674300e+002 2.204468e+002 2.012027e+003
      endloop
   endfacet
   facet normal 0.000000e+000 -6.427480e-001 -7.660777e-001
      outer loop
         vertex 4.674300e+002 2.204468e+002 2.012026e+003
         vertex 4.774300e+002 2.204468e+002 2.012026e+003
         vertex 4.774300e+002 2.147249e+002 2.017096e+003
      endloop
   endfacet
   facet normal 0.000000e+000 -6.830174e-001 -7.304021e-001
      outer loop
         vertex 4.674300e+002 2.204468e+002 2.012026e+003
         vertex 4.774300e+002 2.147249e+002 2.017096e+003
         vertex 4.674300e+002 2.147249e+002 2.017096e+003
      endloop
   endfacet
   facet normal 0.000000e+000 -7.573121e-001 -6.530532e-001
      outer loop
         vertex 4.674300e+002 2.147249e+002 2.017096e+003
         vertex 4.774300e+002 2.147249e+002 2.017096e+003
         vertex 4.774300e+002 2.098903e+002 2.023017e+003
      endloop
   endfacet
   facet normal 0.000000e+000 -7.913373e-001 -6.113799e-001
      outer loop
         vertex 4.674300e+002 2.147249e+002 2.017096e+003
         vertex 4.774300e+002 2.098903e+002 2.023017e+003
         vertex 4.674300e+002 2.098903e+002 2.023017e+003
      endloop
   endfacet
   facet normal 0.000000e+000 -8.522622e-001 -5.231149e-001
      outer loop
         vertex 4.674300e+002 2.098903e+002 2.023017e+003
         vertex 4.774300e+002 2.098903e+002 2.023017e+003
         vertex 4.774300e+002 2.060681e+002 2.029637e+003
      endloop
   endfacet
   facet normal 0.000000e+000 -8.791619e-001 -4.765232e-001
      outer loop
         vertex 4.674300e+002 2.098903e+002 2.023017e+003
         vertex 4.774300e+002 2.060681e+002 2.029637e+003
         vertex 4.674300e+002 2.060681e+002 2.029637e+003
      endloop
   endfacet
   facet normal 0.000000e+000 -9.251391e-001 -3.796282e-001
      outer loop
         vertex 4.674300e+002 2.060681e+002 2.029637e+003
         vertex 4.774300e+002 2.060681e+002 2.029637e+003
         vertex 4.774300e+002 2.033574e+002 2.036785e+003
      endloop
   endfacet
   facet normal 0.000000e+000 -9.442167e-001 -3.293249e-001
      outer loop
         vertex 4.674300e+002 2.060681e+002 2.029637e+003
         vertex 4.774300e+002 2.033574e+002 2.036785e+003
         vertex 4.674300e+002 2.033574e+002 2.036785e+003
      endloop
   endfacet
   facet normal 0.000000e+000 -9.740555e-001 -2.263094e-001
      outer loop
         vertex 4.674300e+002 2.033574e+002 2.036785e+003
         vertex 4.774300e+002 2.033574e+002 2.036785e+003
         vertex 4.774300e+002 2.018283e+002 2.044275e+003
      endloop
   endfacet
   facet normal 0.000000e+000 -9.848167e-001 -1.735972e-001
      outer loop
         vertex 4.674300e+002 2.033574e+002 2.036785e+003
         vertex 4.774300e+002 2.018283e+002 2.044275e+003
         vertex 4.674300e+002 2.018283e+002 2.044275e+003
      endloop
   endfacet
   facet normal 0.000000e+000 -9.977443e-001 -6.712926e-002
      outer loop
         vertex 4.674300e+002 2.018283e+002 2.044275e+003
         vertex 4.774300e+002 2.018283e+002 2.044275e+003
         vertex 4.774300e+002 2.015206e+002 2.051913e+003
      endloop
   endfacet
   facet normal 0.000000e+000 -9.999106e-001 -1.337347e-002
      outer loop
         vertex 4.674300e+002 2.018283e+002 2.044275e+003
         vertex 4.774300e+002 2.015206e+002 2.051913e+003
         vertex 4.674300e+002 2.015206e+002 2.051913e+003
      endloop
   endfacet
   facet normal 0.000000e+000 -9.955921e-001 9.378948e-002
      outer loop
         vertex 4.674300e+002 2.015206e+002 2.051913e+003
         vertex 4.774300e+002 2.015206e+002 2.051913e+003
         vertex 4.774300e+002 2.024420e+002 2.059501e+003
      endloop
   endfacet
   facet normal 0.000000e+000 -9.891073e-001 1.471967e-001
      outer loop
         vertex 4.674300e+002 2.015206e+002 2.051913e+003
         vertex 4.774300e+002 2.024420e+002 2.059501e+003
         vertex 4.674300e+002 2.024420e+002 2.059501e+003
      endloop
   endfacet
   facet normal 0.000000e+000 -9.676545e-001 2.522791e-001
      outer loop
         vertex 4.674300e+002 2.024420e+002 2.059501e+003
         vertex 4.774300e+002 2.024420e+002 2.059501e+003
         vertex 4.774300e+002 2.045687e+002 2.066844e+003
      endloop
   endfacet
   facet normal 0.000000e+000 -9.526865e-001 3.039545e-001
      outer loop
         vertex 4.674300e+002 2.024420e+002 2.059501e+003
         vertex 4.774300e+002 2.045687e+002 2.066844e+003
         vertex 4.674300e+002 2.045687e+002 2.066844e+003
      endloop
   endfacet
   facet normal 0.000000e+000 -9.146552e-001 4.042349e-001
      outer loop
         vertex 4.674300e+002 2.045687e+002 2.066844e+003
         vertex 4.774300e+002 2.045687e+002 2.066844e+003
         vertex 4.774300e+002 2.078458e+002 2.073750e+003
      endloop
   endfacet
   facet normal 0.000000e+000 -8.915918e-001 4.528400e-001
      outer loop
         vertex 4.674300e+002 2.045687e+002 2.066844e+003
         vertex 4.774300e+002 2.078458e+002 2.073750e+003
         vertex 4.674300e+002 2.078458e+002 2.073750e+003
      endloop
   endfacet
   facet normal 0.000000e+000 -8.379668e-001 5.457212e-001
      outer loop
         vertex 4.674300e+002 2.078458e+002 2.073750e+003
         vertex 4.774300e+002 2.078458e+002 2.073750e+003
         vertex 4.774300e+002 2.121883e+002 2.080041e+003
      endloop
   endfacet
   facet normal 0.000000e+000 -8.074053e-001 5.899972e-001
      outer loop
         vertex 4.674300e+002 2.078458e+002 2.073750e+003
         vertex 4.774300e+002 2.121883e+002 2.080041e+003
         vertex 4.674300e+002 2.121883e+002 2.080041e+003
      endloop
   endfacet
   facet normal 0.000000e+000 -7.395756e-001 6.730736e-001
      outer loop
         vertex 4.674300e+002 2.121883e+002 2.080041e+003
         vertex 4.774300e+002 2.121883e+002 2.080041e+003
         vertex 4.774300e+002 2.174837e+002 2.085554e+003
      endloop
   endfacet
   facet normal 0.000000e+000 -7.023073e-001 7.118738e-001
      outer loop
         vertex 4.674300e+002 2.121883e+002 2.080041e+003
         vertex 4.774300e+002 2.174837e+002 2.085554e+003
         vertex 4.674300e+002 2.174837e+002 2.085554e+003
      endloop
   endfacet
   facet normal 0.000000e+000 -6.220297e-001 7.829937e-001
      outer loop
         vertex 4.674300e+002 2.174837e+002 2.085554e+003
         vertex 4.774300e+002 2.174837e+002 2.085554e+003
         vertex 4.774300e+002 2.235949e+002 2.090147e+003
      endloop
   endfacet
   facet normal 0.000000e+000 -5.790201e-001 8.153133e-001
      outer loop
         vertex 4.674300e+002 2.174837e+002 2.085554e+003
         vertex 4.774300e+002 2.235949e+002 2.090146e+003
         vertex 4.674300e+002 2.235949e+002 2.090147e+003
      endloop
   endfacet
   facet normal 0.000000e+000 -4.883735e-001 8.726347e-001
      outer loop
         vertex 4.674300e+002 2.235949e+002 2.090146e+003
         vertex 4.774300e+002 2.235949e+002 2.090146e+003
         vertex 4.774300e+002 2.303636e+002 2.093699e+003
      endloop
   endfacet
   facet normal 0.000000e+000 -4.407365e-001 8.976365e-001
      outer loop
         vertex 4.674300e+002 2.235949e+002 2.090146e+003
         vertex 4.774300e+002 2.303636e+002 2.093699e+003
         vertex 4.674300e+002 2.303636e+002 2.093699e+003
      endloop
   endfacet
   facet normal 0.000000e+000 -3.420688e-001 9.396750e-001
      outer loop
         vertex 4.674300e+002 2.303636e+002 2.093699e+003
         vertex 4.774300e+002 2.303636e+002 2.093699e+003
         vertex 4.774300e+002 2.376145e+002 2.096120e+003
      endloop
   endfacet
   facet normal 0.000000e+000 -2.910380e-001 9.567115e-001
      outer loop
         vertex 4.674300e+002 2.303636e+002 2.093699e+003
         vertex 4.774300e+002 2.376145e+002 2.096120e+003
         vertex 4.674300e+002 2.376145e+002 2.096120e+003
      endloop
   endfacet
   facet normal 0.000000e+000 -1.869046e-001 9.823781e-001
      outer loop
         vertex 4.674300e+002 2.376145e+002 2.096120e+003
         vertex 4.774300e+002 2.376145e+002 2.096120e+003
         vertex 4.774300e+002 2.451599e+002 2.097346e+003
      endloop
   endfacet
   facet normal 0.000000e+000 -1.338019e-001 9.910081e-001
      outer loop
         vertex 4.674300e+002 2.376145e+002 2.096120e+003
         vertex 4.774300e+002 2.451599e+002 2.097346e+003
         vertex 4.674300e+002 2.451599e+002 2.097346e+003
      endloop
   endfacet
   facet normal 0.000000e+000 -2.689971e-002 9.996381e-001
      outer loop
         vertex 4.674300e+002 2.451599e+002 2.097346e+003
         vertex 4.774300e+002 2.451599e+002 2.097346e+003
         vertex 4.774300e+002 2.528042e+002 2.097346e+003
      endloop
   endfacet
   facet normal 0.000000e+000 2.689971e-002 9.996381e-001
      outer loop
         vertex 4.674300e+002 2.451599e+002 2.097346e+003
         vertex 4.774300e+002 2.528042e+002 2.097346e+003
         vertex 4.674300e+002 2.528042e+002 2.097346e+003
      endloop
   endfacet
   facet normal 0.000000e+000 1.338019e-001 9.910081e-001
      outer loop
         vertex 4.674300e+002 2.528042e+002 2.097346e+003
         vertex 4.774300e+002 2.528042e+002 2.097346e+003
         vertex 4.774300e+002 2.603495e+002 2.096120e+003
      endloop
   endfacet
   facet normal 0.000000e+000 1.869046e-001 9.823781e-001
      outer loop
         vertex 4.674300e+002 2.528042e+002 2.097346e+003
         vertex 4.774300e+002 2.603495e+002 2.096120e+003
         vertex 4.674300e+002 2.603495e+002 2.096120e+003
      endloop
   endfacet
   facet normal 0.000000e+000 2.910380e-001 9.567115e-001
      outer loop
         vertex 4.674300e+002 2.603495e+002 2.096120e+003
         vertex 4.774300e+002 2.603495e+002 2.096120e+003
         vertex 4.774300e+002 2.676004e+002 2.093699e+003
      endloop
   endfacet
   facet normal 0.000000e+000 3.420688e-001 9.396750e-001
      outer loop
         vertex 4.674300e+002 2.603495e+002 2.096120e+003
         vertex 4.774300e+002 2.676004e+002 2.093699e+003
         vertex 4.674300e+002 2.676004e+002 2.093699e+003
      endloop
   endfacet
   facet normal 0.000000e+000 4.407365e-001 8.976365e-001
      outer loop
         vertex 4.674300e+002 2.676004e+002 2.093699e+003
         vertex 4.774300e+002 2.676004e+002 2.093699e+003
         vertex 4.774300e+002 2.743691e+002 2.090147e+003
      endloop
   endfacet
   facet normal 0.000000e+000 4.883735e-001 8.726347e-001
      outer loop
         vertex 4.674300e+002 2.676004e+002 2.093699e+003
         vertex 4.774300e+002 2.743691e+002 2.090146e+003
         vertex 4.674300e+002 2.743691e+002 2.090147e+003
      endloop
   endfacet
   facet normal 0.000000e+000 5.790201e-001 8.153133e-001
      outer loop
         vertex 4.674300e+002 2.743691e+002 2.090146e+003
         vertex 4.774300e+002 2.743691e+002 2.090146e+003
         vertex 4.774300e+002 2.804803e+002 2.085554e+003
      endloop
   endfacet
   facet normal 0.000000e+000 6.220297e-001 7.829937e-001
      outer loop
         vertex 4.674300e+002 2.743691e+002 2.090146e+003
         vertex 4.774300e+002 2.804803e+002 2.085554e+003
         vertex 4.674300e+002 2.804803e+002 2.085554e+003
      endloop
   endfacet
   facet normal 0.000000e+000 7.023073e-001 7.118738e-001
      outer loop
         vertex 4.674300e+002 2.804803e+002 2.085554e+003
         vertex 4.774300e+002 2.804803e+002 2.085554e+003
         vertex 4.774300e+002 2.857758e+002 2.080041e+003
      endloop
   endfacet
   facet normal 0.000000e+000 7.395756e-001 6.730736e-001
      outer loop
         vertex 4.674300e+002 2.804803e+002 2.085554e+003
         vertex 4.774300e+002 2.857758e+002 2.080041e+003
         vertex 4.674300e+002 2.857758e+002 2.080041e+003
      endloop
   endfacet
   facet normal 0.000000e+000 8.074053e-001 5.899972e-001
      outer loop
         vertex 4.674300e+002 2.857758e+002 2.080041e+003
         vertex 4.774300e+002 2.857758e+002 2.080041e+003
         vertex 4.774300e+002 2.901182e+002 2.073750e+003
      endloop
   endfacet
   facet normal 0.000000e+000 8.379668e-001 5.457212e-001
      outer loop
         vertex 4.674300e+002 2.857758e+002 2.080041e+003
         vertex 4.774300e+002 2.901182e+002 2.073750e+003
         vertex 4.674300e+002 2.901182e+002 2.073750e+003
      endloop
   endfacet
   facet normal 0.000000e+000 8.915918e-001 4.528400e-001
      outer loop
         vertex 4.674300e+002 2.901182e+002 2.073750e+003
         vertex 4.774300e+002 2.901182e+002 2.073750e+003
         vertex 4.774300e+002 2.933953e+002 2.066844e+003
      endloop
   endfacet
   facet normal 0.000000e+000 9.146552e-001 4.042349e-001
      outer loop
         vertex 4.674300e+002 2.901182e+002 2.073750e+003
         vertex 4.774300e+002 2.933953e+002 2.066844e+003
         vertex 4.674300e+002 2.933953e+002 2.066844e+003
      endloop
   endfacet
   facet normal 0.000000e+000 9.526865e-001 3.039545e-001
      outer loop
         vertex 4.674300e+002 2.933953e+002 2.066844e+003
         vertex 4.774300e+002 2.933953e+002 2.066844e+003
         vertex 4.774300e+002 2.955221e+002 2.059501e+003
      endloop
   endfacet
   facet normal 0.000000e+000 9.676545e-001 2.522791e-001
      outer loop
         vertex 4.674300e+002 2.933953e+002 2.066844e+003
         vertex 4.774300e+002 2.955221e+002 2.059501e+003
         vertex 4.674300e+002 2.955221e+002 2.059501e+003
      endloop
   endfacet
   facet normal 0.000000e+000 9.891073e-001 1.471967e-001
      outer loop
         vertex 4.674300e+002 2.955221e+002 2.059501e+003
         vertex 4.774300e+002 2.955221e+002 2.059501e+003
         vertex 4.774300e+002 2.964435e+002 2.051913e+003
      endloop
   endfacet
   facet normal 0.000000e+000 9.955921e-001 9.378948e-002
      outer loop
         vertex 4.674300e+002 2.955221e+002 2.059501e+003
         vertex 4.774300e+002 2.964435e+002 2.051913e+003
         vertex 4.674300e+002 2.964435e+002 2.051913e+003
      endloop
   endfacet
   facet normal 0.000000e+000 9.999106e-001 -1.337347e-002
      outer loop
         vertex 4.674300e+002 2.964435e+002 2.051913e+003
         vertex 4.774300e+002 2.964435e+002 2.051913e+003
         vertex 4.774300e+002 2.961357e+002 2.044275e+003
      endloop
   endfacet
   facet normal 0.000000e+000 9.977443e-001 -6.712926e-002
      outer loop
         vertex 4.674300e+002 2.964435e+002 2.051913e+003
         vertex 4.774300e+002 2.961357e+002 2.044275e+003
         vertex 4.674300e+002 2.961357e+002 2.044275e+003
      endloop
   endfacet
   facet normal 0.000000e+000 9.848167e-001 -1.735972e-001
      outer loop
         vertex 4.674300e+002 2.961357e+002 2.044275e+003
         vertex 4.774300e+002 2.961357e+002 2.044275e+003
         vertex 4.774300e+002 2.946066e+002 2.036785e+003
      endloop
   endfacet
   facet normal 0.000000e+000 9.740555e-001 -2.263094e-001
      outer loop
         vertex 4.674300e+002 2.961357e+002 2.044275e+003
         vertex 4.774300e+002 2.946066e+002 2.036785e+003
         vertex 4.674300e+002 2.946066e+002 2.036785e+003
      endloop
   endfacet
   facet normal 0.000000e+000 9.442167e-001 -3.293249e-001
      outer loop
         vertex 4.674300e+002 2.946066e+002 2.036785e+003
         vertex 4.774300e+002 2.946066e+002 2.036785e+003
         vertex 4.774300e+002 2.918959e+002 2.029637e+003
      endloop
   endfacet
   facet normal 0.000000e+000 9.251391e-001 -3.796282e-001
      outer loop
         vertex 4.674300e+002 2.946066e+002 2.036785e+003
         vertex 4.774300e+002 2.918959e+002 2.029637e+003
         vertex 4.674300e+002 2.918959e+002 2.029637e+003
      endloop
   endfacet
   facet normal 0.000000e+000 8.791619e-001 -4.765232e-001
      outer loop
         vertex 4.674300e+002 2.918959e+002 2.029637e+003
         vertex 4.774300e+002 2.918959e+002 2.029637e+003
         vertex 4.774300e+002 2.880738e+002 2.023017e+003
      endloop
   endfacet
   facet normal 0.000000e+000 8.522622e-001 -5.231149e-001
      outer loop
         vertex 4.674300e+002 2.918959e+002 2.029637e+003
         vertex 4.774300e+002 2.880738e+002 2.023017e+003
         vertex 4.674300e+002 2.880738e+002 2.023017e+003
      endloop
   endfacet
   facet normal 0.000000e+000 7.913373e-001 -6.113799e-001
      outer loop
         vertex 4.674300e+002 2.880738e+002 2.023017e+003
         vertex 4.774300e+002 2.880738e+002 2.023017e+003
         vertex 4.774300e+002 2.832391e+002 2.017096e+003
      endloop
   endfacet
   facet normal 0.000000e+000 7.573121e-001 -6.530532e-001
      outer loop
         vertex 4.674300e+002 2.880738e+002 2.023017e+003
         vertex 4.774300e+002 2.832391e+002 2.017096e+003
         vertex 4.674300e+002 2.832391e+002 2.017096e+003
      endloop
   endfacet
   facet normal 0.000000e+000 6.830174e-001 -7.304021e-001
      outer loop
         vertex 4.674300e+002 2.832391e+002 2.017096e+003
         vertex 4.774300e+002 2.832391e+002 2.017096e+003
         vertex 4.774300e+002 2.775173e+002 2.012027e+003
      endloop
   endfacet
   facet normal 0.000000e+000 6.427480e-001 -7.660777e-001
      outer loop
         vertex 4.674300e+002 2.832391e+002 2.017096e+003
         vertex 4.774300e+002 2.775173e+002 2.012026e+003
         vertex 4.674300e+002 2.775173e+002 2.012027e+003
      endloop
   endfacet
   facet normal 0.000000e+000 5.570078e-001 -8.305072e-001
      outer loop
         vertex 4.674300e+002 2.775173e+002 2.012026e+003
         vertex 4.774300e+002 2.775173e+002 2.012026e+003
         vertex 4.774300e+002 2.710564e+002 2.007941e+003
      endloop
   endfacet
   facet normal 0.000000e+000 5.115371e-001 -8.592612e-001
      outer loop
         vertex 4.674300e+002 2.775173e+002 2.012026e+003
         vertex 4.774300e+002 2.710564e+002 2.007941e+003
         vertex 4.674300e+002 2.710564e+002 2.007941e+003
      endloop
   endfacet
   facet normal 0.000000e+000 4.165719e-001 -9.091027e-001
      outer loop
         vertex 4.674300e+002 2.710564e+002 2.007941e+003
         vertex 4.774300e+002 2.710564e+002 2.007941e+003
         vertex 4.774300e+002 2.640237e+002 2.004945e+003
      endloop
   endfacet
   facet normal 0.000000e+000 3.670776e-001 -9.301903e-001
      outer loop
         vertex 4.674300e+002 2.710564e+002 2.007941e+003
         vertex 4.774300e+002 2.640237e+002 2.004945e+003
         vertex 4.674300e+002 2.640237e+002 2.004945e+003
      endloop
   endfacet
   facet normal 0.000000e+000 2.653471e-001 -9.641529e-001
      outer loop
         vertex 4.674300e+002 2.640237e+002 2.004945e+003
         vertex 4.774300e+002 2.640237e+002 2.004945e+003
         vertex 4.774300e+002 2.566016e+002 2.003115e+003
      endloop
   endfacet
   facet normal 0.000000e+000 2.131110e-001 -9.770280e-001
      outer loop
         vertex 4.674300e+002 2.640237e+002 2.004945e+003
         vertex 4.774300e+002 2.566016e+002 2.003115e+003
         vertex 4.674300e+002 2.566016e+002 2.003115e+003
      endloop
   endfacet
   facet normal 0.000000e+000 1.072499e-001 -9.942321e-001
      outer loop
         vertex 4.674300e+002 2.566016e+002 2.003115e+003
         vertex 4.774300e+002 2.566016e+002 2.003115e+003
         vertex 4.774300e+002 2.489820e+002 2.002500e+003
      endloop
   endfacet
   facet normal 7.260555e-018 4.563657e-016 -1.000000e+000
      outer loop
         vertex 4.924300e+002 2.114820e+002 1.985000e+003
         vertex 4.924300e+002 1.968693e+002 1.985000e+003
         vertex 4.774300e+002 1.968693e+002 1.985000e+003
      endloop
   endfacet
   facet normal 7.260555e-018 4.563657e-016 -1.000000e+000
      outer loop
         vertex 4.774300e+002 3.010947e+002 1.985000e+003
         vertex 4.924300e+002 3.010947e+002 1.985000e+003
         vertex 4.924300e+002 2.864820e+002 1.985000e+003
      endloop
   endfacet
   facet normal 7.260555e-018 4.563657e-016 -1.000000e+000
      outer loop
         vertex 7.254300e+002 2.864820e+002 1.985000e+003
         vertex 7.254300e+002 2.114820e+002 1.985000e+003
         vertex 4.924300e+002 2.864820e+002 1.985000e+003
      endloop
   endfacet
   facet normal 7.260555e-018 4.563657e-016 -1.000000e+000
      outer loop
         vertex 4.924300e+002 2.864820e+002 1.985000e+003
         vertex 7.254300e+002 2.114820e+002 1.985000e+003
         vertex 4.924300e+002 2.114820e+002 1.985000e+003
      endloop
   endfacet
   facet normal 7.260555e-018 4.563657e-016 -1.000000e+000
      outer loop
         vertex 4.924300e+002 2.864820e+002 1.985000e+003
         vertex 4.924300e+002 2.114820e+002 1.985000e+003
         vertex 4.774300e+002 3.010947e+002 1.985000e+003
      endloop
   endfacet
   facet normal 7.260555e-018 4.563657e-016 -1.000000e+000
      outer loop
         vertex 4.774300e+002 3.010947e+002 1.985000e+003
         vertex 4.924300e+002 2.114820e+002 1.985000e+003
         vertex 4.774300e+002 1.968693e+002 1.985000e+003
      endloop
   endfacet
   facet normal 4.321991e-017 -7.071068e-001 -7.071068e-001
      outer loop
         vertex 4.774300e+002 1.839820e+002 1.997887e+003
         vertex 4.774300e+002 1.968693e+002 1.985000e+003
         vertex 4.924300e+002 1.839820e+002 1.997887e+003
      endloop
   endfacet
   facet normal 4.321991e-017 -7.071068e-001 -7.071068e-001
      outer loop
         vertex 4.924300e+002 1.839820e+002 1.997887e+003
         vertex 4.774300e+002 1.968693e+002 1.985000e+003
         vertex 4.924300e+002 1.968693e+002 1.985000e+003
      endloop
   endfacet
   facet normal -3.295193e-017 7.071068e-001 -7.071068e-001
      outer loop
         vertex 4.774300e+002 3.010947e+002 1.985000e+003
         vertex 4.774300e+002 3.139820e+002 1.997887e+003
         vertex 4.924300e+002 3.010947e+002 1.985000e+003
      endloop
   endfacet
   facet normal -3.295193e-017 7.071068e-001 -7.071068e-001
      outer loop
         vertex 4.924300e+002 3.010947e+002 1.985000e+003
         vertex 4.774300e+002 3.139820e+002 1.997887e+003
         vertex 4.924300e+002 3.139820e+002 1.997887e+003
      endloop
   endfacet
   facet normal 5.386162e-017 -1.000000e+000 -2.289835e-016
      outer loop
         vertex 4.924300e+002 1.839820e+002 2.087500e+003
         vertex 4.924300e+002 1.839820e+002 2.102113e+003
         vertex 4.774300e+002 1.839820e+002 2.102113e+003
      endloop
   endfacet
   facet normal 5.386162e-017 -1.000000e+000 -2.289835e-016
      outer loop
         vertex 4.774300e+002 1.839820e+002 1.997887e+003
         vertex 4.924300e+002 1.839820e+002 1.997887e+003
         vertex 4.924300e+002 1.839820e+002 2.012500e+003
      endloop
   endfacet
   facet normal 5.386162e-017 -1.000000e+000 -2.289835e-016
      outer loop
         vertex 7.254300e+002 1.839820e+002 2.012500e+003
         vertex 7.254300e+002 1.839820e+002 2.087500e+003
         vertex 4.924300e+002 1.839820e+002 2.012500e+003
      endloop
   endfacet
   facet normal 5.386162e-017 -1.000000e+000 -2.289835e-016
      outer loop
         vertex 4.924300e+002 1.839820e+002 2.012500e+003
         vertex 7.254300e+002 1.839820e+002 2.087500e+003
         vertex 4.924300e+002 1.839820e+002 2.087500e+003
      endloop
   endfacet
   facet normal 5.386162e-017 -1.000000e+000 -2.289835e-016
      outer loop
         vertex 4.924300e+002 1.839820e+002 2.012500e+003
         vertex 4.924300e+002 1.839820e+002 2.087500e+003
         vertex 4.774300e+002 1.839820e+002 1.997887e+003
      endloop
   endfacet
   facet normal 5.386162e-017 -1.000000e+000 -2.289835e-016
      outer loop
         vertex 4.774300e+002 1.839820e+002 1.997887e+003
         vertex 4.924300e+002 1.839820e+002 2.087500e+003
         vertex 4.774300e+002 1.839820e+002 2.102113e+003
      endloop
   endfacet
   facet normal 3.295193e-017 -7.071068e-001 7.071068e-001
      outer loop
         vertex 4.924300e+002 1.839820e+002 2.087500e+003
         vertex 7.254300e+002 1.839820e+002 2.087500e+003
         vertex 4.924300e+002 1.879820e+002 2.091500e+003
      endloop
   endfacet
   facet normal 3.295193e-017 -7.071068e-001 7.071068e-001
      outer loop
         vertex 4.924300e+002 1.879820e+002 2.091500e+003
         vertex 7.254300e+002 1.839820e+002 2.087500e+003
         vertex 7.254300e+002 1.879820e+002 2.091500e+003
      endloop
   endfacet
   facet normal 0.000000e+000 -6.453976e-014 1.000000e+000
      outer loop
         vertex 4.924300e+002 1.879820e+002 2.091500e+003
         vertex 7.254300e+002 1.879820e+002 2.091500e+003
         vertex 4.924300e+002 1.985581e+002 2.091500e+003
      endloop
   endfacet
   facet normal 0.000000e+000 -6.453976e-014 1.000000e+000
      outer loop
         vertex 4.924300e+002 1.985581e+002 2.091500e+003
         vertex 7.254300e+002 1.879820e+002 2.091500e+003
         vertex 7.254300e+002 1.985581e+002 2.091500e+003
      endloop
   endfacet
   facet normal 3.295193e-017 -7.071068e-001 7.071068e-001
      outer loop
         vertex 4.924300e+002 1.985581e+002 2.091500e+003
         vertex 7.254300e+002 1.985581e+002 2.091500e+003
         vertex 4.924300e+002 2.074820e+002 2.100424e+003
      endloop
   endfacet
   facet normal 3.295193e-017 -7.071068e-001 7.071068e-001
      outer loop
         vertex 4.924300e+002 2.074820e+002 2.100424e+003
         vertex 7.254300e+002 1.985581e+002 2.091500e+003
         vertex 7.254300e+002 2.074820e+002 2.100424e+003
      endloop
   endfacet
   facet normal 5.386162e-017 -1.000000e+000 4.271073e-016
      outer loop
         vertex 4.924300e+002 2.074820e+002 2.100424e+003
         vertex 7.254300e+002 2.074820e+002 2.100424e+003
         vertex 4.924300e+002 2.074820e+002 2.111000e+003
      endloop
   endfacet
   facet normal 5.386162e-017 -1.000000e+000 4.271073e-016
      outer loop
         vertex 4.924300e+002 2.074820e+002 2.111000e+003
         vertex 7.254300e+002 2.074820e+002 2.100424e+003
         vertex 7.254300e+002 2.074820e+002 2.111000e+003
      endloop
   endfacet
   facet normal 7.071068e-001 -5.000000e-001 5.000000e-001
      outer loop
         vertex 7.254300e+002 2.074820e+002 2.111000e+003
         vertex 7.274300e+002 2.094820e+002 2.110172e+003
         vertex 7.254300e+002 2.114820e+002 2.115000e+003
      endloop
   endfacet
   facet normal 7.071068e-001 -5.000000e-001 5.000000e-001
      outer loop
         vertex 7.254300e+002 2.114820e+002 2.115000e+003
         vertex 7.274300e+002 2.094820e+002 2.110172e+003
         vertex 7.274300e+002 2.123105e+002 2.113000e+003
      endloop
   endfacet
   facet normal 1.000000e+000 0.000000e+000 0.000000e+000
      outer loop
         vertex 7.274300e+002 2.985775e+002 2.089500e+003
         vertex 7.274300e+002 2.884820e+002 2.099595e+003
         vertex 7.274300e+002 2.985775e+002 2.010500e+003
      endloop
   endfacet
   facet normal 1.000000e+000 0.000000e+000 0.000000e+000
      outer loop
         vertex 7.274300e+002 2.856536e+002 1.987000e+003
         vertex 7.274300e+002 2.884820e+002 1.989828e+003
         vertex 7.274300e+002 2.884820e+002 2.000405e+003
      endloop
   endfacet
   facet normal 1.000000e+000 0.000000e+000 0.000000e+000
      outer loop
         vertex 7.274300e+002 2.123105e+002 2.113000e+003
         vertex 7.274300e+002 2.094820e+002 2.110172e+003
         vertex 7.274300e+002 2.094820e+002 2.099596e+003
      endloop
   endfacet
   facet normal 1.000000e+000 0.000000e+000 0.000000e+000
      outer loop
         vertex 7.274300e+002 2.884820e+002 2.099595e+003
         vertex 7.274300e+002 1.859820e+002 2.086672e+003
         vertex 7.274300e+002 2.985775e+002 2.010500e+003
      endloop
   endfacet
   facet normal 1.000000e+000 0.000000e+000 0.000000e+000
      outer loop
         vertex 7.274300e+002 2.985775e+002 2.010500e+003
         vertex 7.274300e+002 1.859820e+002 2.086672e+003
         vertex 7.274300e+002 1.859820e+002 2.013328e+003
      endloop
   endfacet
   facet normal 1.000000e+000 0.000000e+000 0.000000e+000
      outer loop
         vertex 7.274300e+002 2.985775e+002 2.010500e+003
         vertex 7.274300e+002 1.859820e+002 2.013328e+003
         vertex 7.274300e+002 2.884820e+002 2.000405e+003
      endloop
   endfacet
   facet normal 1.000000e+000 0.000000e+000 0.000000e+000
      outer loop
         vertex 7.274300e+002 1.888105e+002 2.089500e+003
         vertex 7.274300e+002 1.859820e+002 2.086672e+003
         vertex 7.274300e+002 1.993866e+002 2.089500e+003
      endloop
   endfacet
   facet normal 1.000000e+000 0.000000e+000 0.000000e+000
      outer loop
         vertex 7.274300e+002 1.993866e+002 2.089500e+003
         vertex 7.274300e+002 1.859820e+002 2.086672e+003
         vertex 7.274300e+002 2.884820e+002 2.099596e+003
      endloop
   endfacet
   facet normal 1.000000e+000 0.000000e+000 0.000000e+000
      outer loop
         vertex 7.274300e+002 1.993866e+002 2.089500e+003
         vertex 7.274300e+002 2.884820e+002 2.099595e+003
         vertex 7.274300e+002 2.094820e+002 2.099596e+003
      endloop
   endfacet
   facet normal 1.000000e+000 0.000000e+000 0.000000e+000
      outer loop
         vertex 7.274300e+002 2.094820e+002 2.099595e+003
         vertex 7.274300e+002 2.884820e+002 2.099595e+003
         vertex 7.274300e+002 2.884820e+002 2.110172e+003
      endloop
   endfacet
   facet normal 1.000000e+000 0.000000e+000 0.000000e+000
      outer loop
         vertex 7.274300e+002 2.094820e+002 2.099595e+003
         vertex 7.274300e+002 2.884820e+002 2.110172e+003
         vertex 7.274300e+002 2.123105e+002 2.113000e+003
      endloop
   endfacet
   facet normal 1.000000e+000 0.000000e+000 0.000000e+000
      outer loop
         vertex 7.274300e+002 2.123105e+002 2.113000e+003
         vertex 7.274300e+002 2.884820e+002 2.110172e+003
         vertex 7.274300e+002 2.856536e+002 2.113000e+003
      endloop
   endfacet
   facet normal 1.000000e+000 0.000000e+000 0.000000e+000
      outer loop
         vertex 7.274300e+002 2.094820e+002 2.000405e+003
         vertex 7.274300e+002 2.094820e+002 1.989828e+003
         vertex 7.274300e+002 2.123105e+002 1.987000e+003
      endloop
   endfacet
   facet normal 1.000000e+000 0.000000e+000 0.000000e+000
      outer loop
         vertex 7.274300e+002 3.091536e+002 2.089500e+003
         vertex 7.274300e+002 2.985775e+002 2.089500e+003
         vertex 7.274300e+002 3.119820e+002 2.086672e+003
      endloop
   endfacet
   facet normal 1.000000e+000 0.000000e+000 0.000000e+000
      outer loop
         vertex 7.274300e+002 3.119820e+002 2.086672e+003
         vertex 7.274300e+002 2.985775e+002 2.089500e+003
         vertex 7.274300e+002 2.985775e+002 2.010500e+003
      endloop
   endfacet
   facet normal 1.000000e+000 0.000000e+000 0.000000e+000
      outer loop
         vertex 7.274300e+002 3.119820e+002 2.086672e+003
         vertex 7.274300e+002 2.985775e+002 2.010500e+003
         vertex 7.274300e+002 3.119820e+002 2.013328e+003
      endloop
   endfacet
   facet normal 1.000000e+000 0.000000e+000 0.000000e+000
      outer loop
         vertex 7.274300e+002 3.119820e+002 2.013328e+003
         vertex 7.274300e+002 2.985775e+002 2.010500e+003
         vertex 7.274300e+002 3.091536e+002 2.010500e+003
      endloop
   endfacet
   facet normal 1.000000e+000 0.000000e+000 0.000000e+000
      outer loop
         vertex 7.274300e+002 2.123105e+002 1.987000e+003
         vertex 7.274300e+002 2.856536e+002 1.987000e+003
         vertex 7.274300e+002 2.094820e+002 2.000405e+003
      endloop
   endfacet
   facet normal 1.000000e+000 0.000000e+000 0.000000e+000
      outer loop
         vertex 7.274300e+002 2.094820e+002 2.000405e+003
         vertex 7.274300e+002 2.856536e+002 1.987000e+003
         vertex 7.274300e+002 2.884820e+002 2.000405e+003
      endloop
   endfacet
   facet normal 1.000000e+000 0.000000e+000 0.000000e+000
      outer loop
         vertex 7.274300e+002 2.094820e+002 2.000405e+003
         vertex 7.274300e+002 2.884820e+002 2.000405e+003
         vertex 7.274300e+002 1.993866e+002 2.010500e+003
      endloop
   endfacet
   facet normal 1.000000e+000 0.000000e+000 0.000000e+000
      outer loop
         vertex 7.274300e+002 1.993866e+002 2.010500e+003
         vertex 7.274300e+002 2.884820e+002 2.000405e+003
         vertex 7.274300e+002 1.859820e+002 2.013328e+003
      endloop
   endfacet
   facet normal 1.000000e+000 0.000000e+000 0.000000e+000
      outer loop
         vertex 7.274300e+002 1.993866e+002 2.010500e+003
         vertex 7.274300e+002 1.859820e+002 2.013328e+003
         vertex 7.274300e+002 1.888105e+002 2.010500e+003
      endloop
   endfacet
   facet normal 7.071068e-001 5.000000e-001 5.000000e-001
      outer loop
         vertex 7.274300e+002 2.884820e+002 2.110172e+003
         vertex 7.254300e+002 2.904820e+002 2.111000e+003
         vertex 7.274300e+002 2.856536e+002 2.113000e+003
      endloop
   endfacet
   facet normal 7.071068e-001 5.000000e-001 5.000000e-001
      outer loop
         vertex 7.274300e+002 2.856536e+002 2.113000e+003
         vertex 7.254300e+002 2.904820e+002 2.111000e+003
         vertex 7.254300e+002 2.864820e+002 2.115000e+003
      endloop
   endfacet
   facet normal 0.000000e+000 1.000000e+000 2.289835e-016
      outer loop
         vertex 4.924300e+002 3.139820e+002 2.012500e+003
         vertex 4.924300e+002 3.139820e+002 1.997887e+003
         vertex 4.774300e+002 3.139820e+002 1.997887e+003
      endloop
   endfacet
   facet normal 0.000000e+000 1.000000e+000 2.289835e-016
      outer loop
         vertex 4.774300e+002 3.139820e+002 2.102113e+003
         vertex 4.924300e+002 3.139820e+002 2.102113e+003
         vertex 4.924300e+002 3.139820e+002 2.087500e+003
      endloop
   endfacet
   facet normal 0.000000e+000 1.000000e+000 2.289835e-016
      outer loop
         vertex 7.254300e+002 3.139820e+002 2.087500e+003
         vertex 7.254300e+002 3.139820e+002 2.012500e+003
         vertex 4.924300e+002 3.139820e+002 2.087500e+003
      endloop
   endfacet
   facet normal 0.000000e+000 1.000000e+000 2.289835e-016
      outer loop
         vertex 4.924300e+002 3.139820e+002 2.087500e+003
         vertex 7.254300e+002 3.139820e+002 2.012500e+003
         vertex 4.924300e+002 3.139820e+002 2.012500e+003
      endloop
   endfacet
   facet normal 0.000000e+000 1.000000e+000 2.289835e-016
      outer loop
         vertex 4.924300e+002 3.139820e+002 2.087500e+003
         vertex 4.924300e+002 3.139820e+002 2.012500e+003
         vertex 4.774300e+002 3.139820e+002 2.102113e+003
      endloop
   endfacet
   facet normal 0.000000e+000 1.000000e+000 2.289835e-016
      outer loop
         vertex 4.774300e+002 3.139820e+002 2.102113e+003
         vertex 4.924300e+002 3.139820e+002 2.012500e+003
         vertex 4.774300e+002 3.139820e+002 1.997887e+003
      endloop
   endfacet
   facet normal 0.000000e+000 1.000000e+000 8.850743e-016
      outer loop
         vertex 4.924300e+002 2.904820e+002 2.111000e+003
         vertex 7.254300e+002 2.904820e+002 2.111000e+003
         vertex 4.924300e+002 2.904820e+002 2.100424e+003
      endloop
   endfacet
   facet normal 0.000000e+000 1.000000e+000 8.850743e-016
      outer loop
         vertex 4.924300e+002 2.904820e+002 2.100424e+003
         vertex 7.254300e+002 2.904820e+002 2.111000e+003
         vertex 7.254300e+002 2.904820e+002 2.100424e+003
      endloop
   endfacet
   facet normal -4.321991e-017 7.071068e-001 7.071068e-001
      outer loop
         vertex 4.924300e+002 2.904820e+002 2.100424e+003
         vertex 7.254300e+002 2.904820e+002 2.100424e+003
         vertex 4.924300e+002 2.994059e+002 2.091500e+003
      endloop
   endfacet
   facet normal -4.321991e-017 7.071068e-001 7.071068e-001
      outer loop
         vertex 4.924300e+002 2.994059e+002 2.091500e+003
         vertex 7.254300e+002 2.904820e+002 2.100424e+003
         vertex 7.254300e+002 2.994059e+002 2.091500e+003
      endloop
   endfacet
   facet normal 0.000000e+000 6.405403e-014 1.000000e+000
      outer loop
         vertex 4.924300e+002 2.994059e+002 2.091500e+003
         vertex 7.254300e+002 2.994059e+002 2.091500e+003
         vertex 4.924300e+002 3.099820e+002 2.091500e+003
      endloop
   endfacet
   facet normal 0.000000e+000 6.405403e-014 1.000000e+000
      outer loop
         vertex 4.924300e+002 3.099820e+002 2.091500e+003
         vertex 7.254300e+002 2.994059e+002 2.091500e+003
         vertex 7.254300e+002 3.099820e+002 2.091500e+003
      endloop
   endfacet
   facet normal -4.321991e-017 7.071068e-001 7.071068e-001
      outer loop
         vertex 4.924300e+002 3.099820e+002 2.091500e+003
         vertex 7.254300e+002 3.099820e+002 2.091500e+003
         vertex 4.924300e+002 3.139820e+002 2.087500e+003
      endloop
   endfacet
   facet normal -4.321991e-017 7.071068e-001 7.071068e-001
      outer loop
         vertex 4.924300e+002 3.139820e+002 2.087500e+003
         vertex 7.254300e+002 3.099820e+002 2.091500e+003
         vertex 7.254300e+002 3.139820e+002 2.087500e+003
      endloop
   endfacet
   facet normal -4.321991e-017 7.071068e-001 7.071068e-001
      outer loop
         vertex 4.774300e+002 3.139820e+002 2.102113e+003
         vertex 4.774300e+002 3.010947e+002 2.115000e+003
         vertex 4.924300e+002 3.139820e+002 2.102113e+003
      endloop
   endfacet
   facet normal -4.321991e-017 7.071068e-001 7.071068e-001
      outer loop
         vertex 4.924300e+002 3.139820e+002 2.102113e+003
         vertex 4.774300e+002 3.010947e+002 2.115000e+003
         vertex 4.924300e+002 3.010947e+002 2.115000e+003
      endloop
   endfacet
   facet normal -1.000000e+000 -1.387779e-017 -3.248540e-017
      outer loop
         vertex 4.774300e+002 2.269077e+002 2.007941e+003
         vertex 4.774300e+002 2.339403e+002 2.004945e+003
         vertex 4.774300e+002 1.968693e+002 1.985000e+003
      endloop
   endfacet
   facet normal -1.000000e+000 -1.387779e-017 -3.248540e-017
      outer loop
         vertex 4.774300e+002 2.376145e+002 2.096120e+003
         vertex 4.774300e+002 2.303636e+002 2.093699e+003
         vertex 4.774300e+002 1.968693e+002 2.115000e+003
      endloop
   endfacet
   facet normal -1.000000e+000 -1.387779e-017 -3.248540e-017
      outer loop
         vertex 4.774300e+002 2.743691e+002 2.090146e+003
         vertex 4.774300e+002 2.676004e+002 2.093699e+003
         vertex 4.774300e+002 3.010947e+002 2.115000e+003
      endloop
   endfacet
   facet normal -1.000000e+000 -1.387779e-017 -3.248540e-017
      outer loop
         vertex 4.774300e+002 2.033574e+002 2.036785e+003
         vertex 4.774300e+002 2.060681e+002 2.029637e+003
         vertex 4.774300e+002 1.839820e+002 1.997887e+003
      endloop
   endfacet
   facet normal -1.000000e+000 -1.387779e-017 -3.248540e-017
      outer loop
         vertex 4.774300e+002 2.880738e+002 2.023017e+003
         vertex 4.774300e+002 2.918959e+002 2.029637e+003
         vertex 4.774300e+002 3.139820e+002 1.997887e+003
      endloop
   endfacet
   facet normal -1.000000e+000 -1.387779e-017 -3.248540e-017
      outer loop
         vertex 4.774300e+002 2.078458e+002 2.073750e+003
         vertex 4.774300e+002 2.045687e+002 2.066844e+003
         vertex 4.774300e+002 1.839820e+002 2.102113e+003
      endloop
   endfacet
   facet normal -1.000000e+000 -1.387779e-017 -3.248540e-017
      outer loop
         vertex 4.774300e+002 2.339403e+002 2.004945e+003
         vertex 4.774300e+002 2.413625e+002 2.003115e+003
         vertex 4.774300e+002 1.968693e+002 1.985000e+003
      endloop
   endfacet
   facet normal -1.000000e+000 -1.387779e-017 -3.248540e-017
      outer loop
         vertex 4.774300e+002 1.968693e+002 1.985000e+003
         vertex 4.774300e+002 2.413625e+002 2.003115e+003
         vertex 4.774300e+002 2.489820e+002 2.002500e+003
      endloop
   endfacet
   facet normal -1.000000e+000 -1.387779e-017 -3.248540e-017
      outer loop
         vertex 4.774300e+002 1.968693e+002 1.985000e+003
         vertex 4.774300e+002 2.489820e+002 2.002500e+003
         vertex 4.774300e+002 3.010947e+002 1.985000e+003
      endloop
   endfacet
   facet normal -1.000000e+000 -1.387779e-017 -3.248540e-017
      outer loop
         vertex 4.774300e+002 3.010947e+002 1.985000e+003
         vertex 4.774300e+002 2.489820e+002 2.002500e+003
         vertex 4.774300e+002 2.566016e+002 2.003115e+003
      endloop
   endfacet
   facet normal -1.000000e+000 -1.387779e-017 -3.248540e-017
      outer loop
         vertex 4.774300e+002 3.010947e+002 1.985000e+003
         vertex 4.774300e+002 2.566016e+002 2.003115e+003
         vertex 4.774300e+002 2.640237e+002 2.004945e+003
      endloop
   endfacet
   facet normal -1.000000e+000 -1.387779e-017 -3.248540e-017
      outer loop
         vertex 4.774300e+002 2.676004e+002 2.093699e+003
         vertex 4.774300e+002 2.603495e+002 2.096120e+003
         vertex 4.774300e+002 3.010947e+002 2.115000e+003
      endloop
   endfacet
   facet normal -1.000000e+000 -1.387779e-017 -3.248540e-017
      outer loop
         vertex 4.774300e+002 3.010947e+002 2.115000e+003
         vertex 4.774300e+002 2.603495e+002 2.096120e+003
         vertex 4.774300e+002 2.528042e+002 2.097346e+003
      endloop
   endfacet
   facet normal -1.000000e+000 -1.387779e-017 -3.248540e-017
      outer loop
         vertex 4.774300e+002 3.010947e+002 2.115000e+003
         vertex 4.774300e+002 2.528042e+002 2.097346e+003
         vertex 4.774300e+002 1.968693e+002 2.115000e+003
      endloop
   endfacet
   facet normal -1.000000e+000 -1.387779e-017 -3.248540e-017
      outer loop
         vertex 4.774300e+002 1.968693e+002 2.115000e+003
         vertex 4.774300e+002 2.528042e+002 2.097346e+003
         vertex 4.774300e+002 2.451599e+002 2.097346e+003
      endloop
   endfacet
   facet normal -1.000000e+000 -1.387779e-017 -3.248540e-017
      outer loop
         vertex 4.774300e+002 1.968693e+002 2.115000e+003
         vertex 4.774300e+002 2.451599e+002 2.097346e+003
         vertex 4.774300e+002 2.376145e+002 2.096120e+003
      endloop
   endfacet
   facet normal -1.000000e+000 -1.387779e-017 -3.248540e-017
      outer loop
         vertex 4.774300e+002 2.060681e+002 2.029637e+003
         vertex 4.774300e+002 2.098903e+002 2.023017e+003
         vertex 4.774300e+002 1.839820e+002 1.997887e+003
      endloop
   endfacet
   facet normal -1.000000e+000 -1.387779e-017 -3.248540e-017
      outer loop
         vertex 4.774300e+002 1.839820e+002 1.997887e+003
         vertex 4.774300e+002 2.098903e+002 2.023017e+003
         vertex 4.774300e+002 2.147249e+002 2.017096e+003
      endloop
   endfacet
   facet normal -1.000000e+000 -1.387779e-017 -3.248540e-017
      outer loop
         vertex 4.774300e+002 1.839820e+002 1.997887e+003
         vertex 4.774300e+002 2.147249e+002 2.017096e+003
         vertex 4.774300e+002 1.968693e+002 1.985000e+003
      endloop
   endfacet
   facet normal -1.000000e+000 -1.387779e-017 -3.248540e-017
      outer loop
         vertex 4.774300e+002 1.968693e+002 1.985000e+003
         vertex 4.774300e+002 2.147249e+002 2.017096e+003
         vertex 4.774300e+002 2.204468e+002 2.012027e+003
      endloop
   endfacet
   facet normal -1.000000e+000 -1.387779e-017 -3.248540e-017
      outer loop
         vertex 4.774300e+002 1.968693e+002 1.985000e+003
         vertex 4.774300e+002 2.204468e+002 2.012026e+003
         vertex 4.774300e+002 2.269077e+002 2.007941e+003
      endloop
   endfacet
   facet normal -1.000000e+000 -1.387779e-017 -3.248540e-017
      outer loop
         vertex 4.774300e+002 2.918959e+002 2.029637e+003
         vertex 4.774300e+002 2.946066e+002 2.036785e+003
         vertex 4.774300e+002 3.139820e+002 1.997887e+003
      endloop
   endfacet
   facet normal -1.000000e+000 -1.387779e-017 -3.248540e-017
      outer loop
         vertex 4.774300e+002 3.139820e+002 1.997887e+003
         vertex 4.774300e+002 2.946066e+002 2.036785e+003
         vertex 4.774300e+002 2.961357e+002 2.044275e+003
      endloop
   endfacet
   facet normal -1.000000e+000 -1.387779e-017 -3.248540e-017
      outer loop
         vertex 4.774300e+002 3.139820e+002 1.997887e+003
         vertex 4.774300e+002 2.961357e+002 2.044275e+003
         vertex 4.774300e+002 3.139820e+002 2.102113e+003
      endloop
   endfacet
   facet normal -1.000000e+000 -1.387779e-017 -3.248540e-017
      outer loop
         vertex 4.774300e+002 2.045687e+002 2.066844e+003
         vertex 4.774300e+002 2.024420e+002 2.059501e+003
         vertex 4.774300e+002 1.839820e+002 2.102113e+003
      endloop
   endfacet
   facet normal -1.000000e+000 -1.387779e-017 -3.248540e-017
      outer loop
         vertex 4.774300e+002 1.839820e+002 2.102113e+003
         vertex 4.774300e+002 2.024420e+002 2.059501e+003
         vertex 4.774300e+002 2.015206e+002 2.051913e+003
      endloop
   endfacet
   facet normal -1.000000e+000 -1.387779e-017 -3.248540e-017
      outer loop
         vertex 4.774300e+002 1.839820e+002 2.102113e+003
         vertex 4.774300e+002 2.015206e+002 2.051913e+003
         vertex 4.774300e+002 1.839820e+002 1.997887e+003
      endloop
   endfacet
   facet normal -1.000000e+000 -1.387779e-017 -3.248540e-017
      outer loop
         vertex 4.774300e+002 1.839820e+002 1.997887e+003
         vertex 4.774300e+002 2.015206e+002 2.051913e+003
         vertex 4.774300e+002 2.018283e+002 2.044275e+003
      endloop
   endfacet
   facet normal -1.000000e+000 -1.387779e-017 -3.248540e-017
      outer loop
         vertex 4.774300e+002 1.839820e+002 1.997887e+003
         vertex 4.774300e+002 2.018283e+002 2.044275e+003
         vertex 4.774300e+002 2.033574e+002 2.036785e+003
      endloop
   endfacet
   facet normal -1.000000e+000 -1.387779e-017 -3.248540e-017
      outer loop
         vertex 4.774300e+002 2.640237e+002 2.004945e+003
         vertex 4.774300e+002 2.710564e+002 2.007941e+003
         vertex 4.774300e+002 3.010947e+002 1.985000e+003
      endloop
   endfacet
   facet normal -1.000000e+000 -1.387779e-017 -3.248540e-017
      outer loop
         vertex 4.774300e+002 3.010947e+002 1.985000e+003
         vertex 4.774300e+002 2.710564e+002 2.007941e+003
         vertex 4.774300e+002 2.775173e+002 2.012027e+003
      endloop
   endfacet
   facet normal -1.000000e+000 -1.387779e-017 -3.248540e-017
      outer loop
         vertex 4.774300e+002 3.010947e+002 1.985000e+003
         vertex 4.774300e+002 2.775173e+002 2.012026e+003
         vertex 4.774300e+002 3.139820e+002 1.997887e+003
      endloop
   endfacet
   facet normal -1.000000e+000 -1.387779e-017 -3.248540e-017
      outer loop
         vertex 4.774300e+002 3.139820e+002 1.997887e+003
         vertex 4.774300e+002 2.775173e+002 2.012026e+003
         vertex 4.774300e+002 2.832391e+002 2.017096e+003
      endloop
   endfacet
   facet normal -1.000000e+000 -1.387779e-017 -3.248540e-017
      outer loop
         vertex 4.774300e+002 3.139820e+002 1.997887e+003
         vertex 4.774300e+002 2.832391e+002 2.017096e+003
         vertex 4.774300e+002 2.880738e+002 2.023017e+003
      endloop
   endfacet
   facet normal -1.000000e+000 -1.387779e-017 -3.248540e-017
      outer loop
         vertex 4.774300e+002 2.961357e+002 2.044275e+003
         vertex 4.774300e+002 2.964435e+002 2.051913e+003
         vertex 4.774300e+002 3.139820e+002 2.102113e+003
      endloop
   endfacet
   facet normal -1.000000e+000 -1.387779e-017 -3.248540e-017
      outer loop
         vertex 4.774300e+002 3.139820e+002 2.102113e+003
         vertex 4.774300e+002 2.964435e+002 2.051913e+003
         vertex 4.774300e+002 2.955221e+002 2.059501e+003
      endloop
   endfacet
   facet normal -1.000000e+000 -1.387779e-017 -3.248540e-017
      outer loop
         vertex 4.774300e+002 3.139820e+002 2.102113e+003
         vertex 4.774300e+002 2.955221e+002 2.059501e+003
         vertex 4.774300e+002 2.933953e+002 2.066844e+003
      endloop
   endfacet
   facet normal -1.000000e+000 -1.387779e-017 -3.248540e-017
      outer loop
         vertex 4.774300e+002 2.933953e+002 2.066844e+003
         vertex 4.774300e+002 2.901182e+002 2.073750e+003
         vertex 4.774300e+002 3.139820e+002 2.102113e+003
      endloop
   endfacet
   facet normal -1.000000e+000 -1.387779e-017 -3.248540e-017
      outer loop
         vertex 4.774300e+002 3.139820e+002 2.102113e+003
         vertex 4.774300e+002 2.901182e+002 2.073750e+003
         vertex 4.774300e+002 2.857758e+002 2.080041e+003
      endloop
   endfacet
   facet normal -1.000000e+000 -1.387779e-017 -3.248540e-017
      outer loop
         vertex 4.774300e+002 3.139820e+002 2.102113e+003
         vertex 4.774300e+002 2.857758e+002 2.080041e+003
         vertex 4.774300e+002 3.010947e+002 2.115000e+003
      endloop
   endfacet
   facet normal -1.000000e+000 -1.387779e-017 -3.248540e-017
      outer loop
         vertex 4.774300e+002 3.010947e+002 2.115000e+003
         vertex 4.774300e+002 2.857758e+002 2.080041e+003
         vertex 4.774300e+002 2.804803e+002 2.085554e+003
      endloop
   endfacet
   facet normal -1.000000e+000 -1.387779e-017 -3.248540e-017
      outer loop
         vertex 4.774300e+002 3.010947e+002 2.115000e+003
         vertex 4.774300e+002 2.804803e+002 2.085554e+003
         vertex 4.774300e+002 2.743691e+002 2.090147e+003
      endloop
   endfacet
   facet normal -1.000000e+000 -1.387779e-017 -3.248540e-017
      outer loop
         vertex 4.774300e+002 2.303636e+002 2.093699e+003
         vertex 4.774300e+002 2.235949e+002 2.090146e+003
         vertex 4.774300e+002 1.968693e+002 2.115000e+003
      endloop
   endfacet
   facet normal -1.000000e+000 -1.387779e-017 -3.248540e-017
      outer loop
         vertex 4.774300e+002 1.968693e+002 2.115000e+003
         vertex 4.774300e+002 2.235949e+002 2.090146e+003
         vertex 4.774300e+002 2.174837e+002 2.085554e+003
      endloop
   endfacet
   facet normal -1.000000e+000 -1.387779e-017 -3.248540e-017
      outer loop
         vertex 4.774300e+002 1.968693e+002 2.115000e+003
         vertex 4.774300e+002 2.174837e+002 2.085554e+003
         vertex 4.774300e+002 1.839820e+002 2.102113e+003
      endloop
   endfacet
   facet normal -1.000000e+000 -1.387779e-017 -3.248540e-017
      outer loop
         vertex 4.774300e+002 1.839820e+002 2.102113e+003
         vertex 4.774300e+002 2.174837e+002 2.085554e+003
         vertex 4.774300e+002 2.121883e+002 2.080041e+003
      endloop
   endfacet
   facet normal -1.000000e+000 -1.387779e-017 -3.248540e-017
      outer loop
         vertex 4.774300e+002 1.839820e+002 2.102113e+003
         vertex 4.774300e+002 2.121883e+002 2.080041e+003
         vertex 4.774300e+002 2.078458e+002 2.073750e+003
      endloop
   endfacet
   facet normal 3.295193e-017 -7.071068e-001 7.071068e-001
      outer loop
         vertex 4.774300e+002 1.968693e+002 2.115000e+003
         vertex 4.774300e+002 1.839820e+002 2.102113e+003
         vertex 4.924300e+002 1.968693e+002 2.115000e+003
      endloop
   endfacet
   facet normal 3.295193e-017 -7.071068e-001 7.071068e-001
      outer loop
         vertex 4.924300e+002 1.968693e+002 2.115000e+003
         vertex 4.774300e+002 1.839820e+002 2.102113e+003
         vertex 4.924300e+002 1.839820e+002 2.102113e+003
      endloop
   endfacet
   facet normal 1.000000e+000 0.000000e+000 0.000000e+000
      outer loop
         vertex 4.924300e+002 2.074820e+002 2.111000e+003
         vertex 4.924300e+002 2.114820e+002 2.115000e+003
         vertex 4.924300e+002 1.968693e+002 2.115000e+003
      endloop
   endfacet
   facet normal 1.000000e+000 0.000000e+000 0.000000e+000
      outer loop
         vertex 4.924300e+002 2.074820e+002 2.100424e+003
         vertex 4.924300e+002 2.074820e+002 2.111000e+003
         vertex 4.924300e+002 1.985581e+002 2.091500e+003
      endloop
   endfacet
   facet normal 1.000000e+000 0.000000e+000 0.000000e+000
      outer loop
         vertex 4.924300e+002 1.985581e+002 2.091500e+003
         vertex 4.924300e+002 2.074820e+002 2.111000e+003
         vertex 4.924300e+002 1.968693e+002 2.115000e+003
      endloop
   endfacet
   facet normal 1.000000e+000 0.000000e+000 0.000000e+000
      outer loop
         vertex 4.924300e+002 1.985581e+002 2.091500e+003
         vertex 4.924300e+002 1.968693e+002 2.115000e+003
         vertex 4.924300e+002 1.879820e+002 2.091500e+003
      endloop
   endfacet
   facet normal 1.000000e+000 0.000000e+000 0.000000e+000
      outer loop
         vertex 4.924300e+002 1.879820e+002 2.091500e+003
         vertex 4.924300e+002 1.968693e+002 2.115000e+003
         vertex 4.924300e+002 1.839820e+002 2.102113e+003
      endloop
   endfacet
   facet normal 1.000000e+000 0.000000e+000 0.000000e+000
      outer loop
         vertex 4.924300e+002 1.879820e+002 2.091500e+003
         vertex 4.924300e+002 1.839820e+002 2.102113e+003
         vertex 4.924300e+002 1.839820e+002 2.087500e+003
      endloop
   endfacet
   facet normal 3.295193e-017 -7.071068e-001 7.071068e-001
      outer loop
         vertex 4.924300e+002 2.074820e+002 2.111000e+003
         vertex 7.254300e+002 2.074820e+002 2.111000e+003
         vertex 4.924300e+002 2.114820e+002 2.115000e+003
      endloop
   endfacet
   facet normal 3.295193e-017 -7.071068e-001 7.071068e-001
      outer loop
         vertex 4.924300e+002 2.114820e+002 2.115000e+003
         vertex 7.254300e+002 2.074820e+002 2.111000e+003
         vertex 7.254300e+002 2.114820e+002 2.115000e+003
      endloop
   endfacet
   facet normal 7.071068e-001 -1.619158e-016 7.071068e-001
      outer loop
         vertex 7.274300e+002 2.856536e+002 2.113000e+003
         vertex 7.254300e+002 2.864820e+002 2.115000e+003
         vertex 7.274300e+002 2.123105e+002 2.113000e+003
      endloop
   endfacet
   facet normal 7.071068e-001 -1.619158e-016 7.071068e-001
      outer loop
         vertex 7.274300e+002 2.123105e+002 2.113000e+003
         vertex 7.254300e+002 2.864820e+002 2.115000e+003
         vertex 7.254300e+002 2.114820e+002 2.115000e+003
      endloop
   endfacet
   facet normal -4.321991e-017 7.071068e-001 7.071068e-001
      outer loop
         vertex 4.924300e+002 2.864820e+002 2.115000e+003
         vertex 7.254300e+002 2.864820e+002 2.115000e+003
         vertex 4.924300e+002 2.904820e+002 2.111000e+003
      endloop
   endfacet
   facet normal -4.321991e-017 7.071068e-001 7.071068e-001
      outer loop
         vertex 4.924300e+002 2.904820e+002 2.111000e+003
         vertex 7.254300e+002 2.864820e+002 2.115000e+003
         vertex 7.254300e+002 2.904820e+002 2.111000e+003
      endloop
   endfacet
   facet normal 1.000000e+000 0.000000e+000 0.000000e+000
      outer loop
         vertex 4.924300e+002 3.010947e+002 2.115000e+003
         vertex 4.924300e+002 2.864820e+002 2.115000e+003
         vertex 4.924300e+002 2.904820e+002 2.111000e+003
      endloop
   endfacet
   facet normal 1.000000e+000 0.000000e+000 0.000000e+000
      outer loop
         vertex 4.924300e+002 2.904820e+002 2.111000e+003
         vertex 4.924300e+002 2.904820e+002 2.100424e+003
         vertex 4.924300e+002 3.010947e+002 2.115000e+003
      endloop
   endfacet
   facet normal 1.000000e+000 0.000000e+000 0.000000e+000
      outer loop
         vertex 4.924300e+002 3.010947e+002 2.115000e+003
         vertex 4.924300e+002 2.904820e+002 2.100424e+003
         vertex 4.924300e+002 2.994059e+002 2.091500e+003
      endloop
   endfacet
   facet normal 1.000000e+000 0.000000e+000 0.000000e+000
      outer loop
         vertex 4.924300e+002 3.010947e+002 2.115000e+003
         vertex 4.924300e+002 2.994059e+002 2.091500e+003
         vertex 4.924300e+002 3.139820e+002 2.102113e+003
      endloop
   endfacet
   facet normal 1.000000e+000 0.000000e+000 0.000000e+000
      outer loop
         vertex 4.924300e+002 3.139820e+002 2.102113e+003
         vertex 4.924300e+002 2.994059e+002 2.091500e+003
         vertex 4.924300e+002 3.099820e+002 2.091500e+003
      endloop
   endfacet
   facet normal 1.000000e+000 0.000000e+000 0.000000e+000
      outer loop
         vertex 4.924300e+002 3.139820e+002 2.102113e+003
         vertex 4.924300e+002 3.099820e+002 2.091500e+003
         vertex 4.924300e+002 3.139820e+002 2.087500e+003
      endloop
   endfacet
   facet normal 0.000000e+000 -2.428613e-016 1.000000e+000
      outer loop
         vertex 4.924300e+002 2.864820e+002 2.115000e+003
         vertex 4.924300e+002 3.010947e+002 2.115000e+003
         vertex 4.774300e+002 3.010947e+002 2.115000e+003
      endloop
   endfacet
   facet normal 0.000000e+000 -2.428613e-016 1.000000e+000
      outer loop
         vertex 4.774300e+002 1.968693e+002 2.115000e+003
         vertex 4.924300e+002 1.968693e+002 2.115000e+003
         vertex 4.924300e+002 2.114820e+002 2.115000e+003
      endloop
   endfacet
   facet normal 0.000000e+000 -2.428613e-016 1.000000e+000
      outer loop
         vertex 7.254300e+002 2.114820e+002 2.115000e+003
         vertex 7.254300e+002 2.864820e+002 2.115000e+003
         vertex 4.924300e+002 2.114820e+002 2.115000e+003
      endloop
   endfacet
   facet normal 0.000000e+000 -2.428613e-016 1.000000e+000
      outer loop
         vertex 4.924300e+002 2.114820e+002 2.115000e+003
         vertex 7.254300e+002 2.864820e+002 2.115000e+003
         vertex 4.924300e+002 2.864820e+002 2.115000e+003
      endloop
   endfacet
   facet normal 0.000000e+000 -2.428613e-016 1.000000e+000
      outer loop
         vertex 4.924300e+002 2.114820e+002 2.115000e+003
         vertex 4.924300e+002 2.864820e+002 2.115000e+003
         vertex 4.774300e+002 1.968693e+002 2.115000e+003
      endloop
   endfacet
   facet normal 0.000000e+000 -2.428613e-016 1.000000e+000
      outer loop
         vertex 4.774300e+002 1.968693e+002 2.115000e+003
         vertex 4.924300e+002 2.864820e+002 2.115000e+003
         vertex 4.774300e+002 3.010947e+002 2.115000e+003
      endloop
   endfacet
endsolid