solid vcg
  facet normal 1.000000e+000 0.000000e+000 0.000000e+000
    outer loop
      vertex  1.174750e+003 1.296385e+001 1.752302e+003
      vertex  1.174750e+003 -3.125000e+001 1.755000e+003
      vertex  1.174750e+003 1.170544e+001 1.750570e+003
    endloop
  endfacet
  facet normal 1.000000e+000 0.000000e+000 0.000000e+000
    outer loop
      vertex  1.174750e+003 1.170544e+001 1.750570e+003
      vertex  1.174750e+003 -3.125000e+001 1.755000e+003
      vertex  1.174750e+003 -1.099366e+001 1.736827e+003
    endloop
  endfacet
  facet normal 1.000000e+000 0.000000e+000 0.000000e+000
    outer loop
      vertex  1.174750e+003 1.170544e+001 1.750570e+003
      vertex  1.174750e+003 -1.099366e+001 1.736827e+003
      vertex  1.174750e+003 1.170544e+001 1.748430e+003
    endloop
  endfacet
  facet normal 1.000000e+000 0.000000e+000 0.000000e+000
    outer loop
      vertex  1.174750e+003 1.170544e+001 1.748430e+003
      vertex  1.174750e+003 -1.099366e+001 1.736827e+003
      vertex  1.174750e+003 -4.934258e+000 1.739485e+003
    endloop
  endfacet
  facet normal 1.000000e+000 0.000000e+000 0.000000e+000
    outer loop
      vertex  1.174750e+003 1.170544e+001 1.748430e+003
      vertex  1.174750e+003 -4.934258e+000 1.739485e+003
      vertex  1.174750e+003 1.296385e+001 1.746697e+003
    endloop
  endfacet
  facet normal 1.000000e+000 0.000000e+000 0.000000e+000
    outer loop
      vertex  1.174750e+003 1.296385e+001 1.746697e+003
      vertex  1.174750e+003 -4.934258e+000 1.739485e+003
      vertex  1.174750e+003 1.659845e+000 1.740031e+003
    endloop
  endfacet
  facet normal 1.000000e+000 0.000000e+000 0.000000e+000
    outer loop
      vertex  1.174750e+003 1.296385e+001 1.746697e+003
      vertex  1.174750e+003 1.659845e+000 1.740031e+003
      vertex  1.174750e+003 8.074078e+000 1.738407e+003
    endloop
  endfacet
  facet normal 1.000000e+000 0.000000e+000 0.000000e+000
    outer loop
      vertex  1.174750e+003 -1.099366e+001 1.703173e+003
      vertex  1.174750e+003 -1.586172e+001 1.707654e+003
      vertex  1.174750e+003 -3.125000e+001 1.685000e+003
    endloop
  endfacet
  facet normal 1.000000e+000 0.000000e+000 0.000000e+000
    outer loop
      vertex  1.174750e+003 -3.125000e+001 1.685000e+003
      vertex  1.174750e+003 -1.586172e+001 1.707654e+003
      vertex  1.174750e+003 -1.901093e+001 1.713474e+003
    endloop
  endfacet
  facet normal 1.000000e+000 0.000000e+000 0.000000e+000
    outer loop
      vertex  1.174750e+003 -3.125000e+001 1.685000e+003
      vertex  1.174750e+003 -1.901093e+001 1.713474e+003
      vertex  1.174750e+003 -3.125000e+001 1.755000e+003
    endloop
  endfacet
  facet normal 1.000000e+000 0.000000e+000 0.000000e+000
    outer loop
      vertex  1.174750e+003 -3.125000e+001 1.755000e+003
      vertex  1.174750e+003 -1.901093e+001 1.713474e+003
      vertex  1.174750e+003 -2.010000e+001 1.720000e+003
    endloop
  endfacet
  facet normal 1.000000e+000 0.000000e+000 0.000000e+000
    outer loop
      vertex  1.174750e+003 -3.125000e+001 1.755000e+003
      vertex  1.174750e+003 -2.010000e+001 1.720000e+003
      vertex  1.174750e+003 -1.901093e+001 1.726526e+003
    endloop
  endfacet
  facet normal 1.000000e+000 0.000000e+000 0.000000e+000
    outer loop
      vertex  1.174750e+003 1.296385e+001 1.687697e+003
      vertex  1.174750e+003 1.659845e+000 1.699969e+003
      vertex  1.174750e+003 -3.125000e+001 1.685000e+003
    endloop
  endfacet
  facet normal 1.000000e+000 0.000000e+000 0.000000e+000
    outer loop
      vertex  1.174750e+003 -3.125000e+001 1.685000e+003
      vertex  1.174750e+003 1.659845e+000 1.699969e+003
      vertex  1.174750e+003 -4.934258e+000 1.700515e+003
    endloop
  endfacet
  facet normal 1.000000e+000 0.000000e+000 0.000000e+000
    outer loop
      vertex  1.174750e+003 -3.125000e+001 1.685000e+003
      vertex  1.174750e+003 -4.934258e+000 1.700515e+003
      vertex  1.174750e+003 -1.099366e+001 1.703173e+003
    endloop
  endfacet
  facet normal 1.000000e+000 -0.000000e+000 0.000000e+000
    outer loop
      vertex  1.174750e+003 1.703615e+001 1.693302e+003
      vertex  1.174750e+003 1.829456e+001 1.691570e+003
      vertex  1.174750e+003 1.982586e+001 1.716692e+003
    endloop
  endfacet
  facet normal 1.000000e+000 0.000000e+000 0.000000e+000
    outer loop
      vertex  1.174750e+003 1.982586e+001 1.716692e+003
      vertex  1.174750e+003 1.829456e+001 1.691570e+003
      vertex  1.174750e+003 3.125000e+001 1.685000e+003
    endloop
  endfacet
  facet normal 1.000000e+000 -0.000000e+000 0.000000e+000
    outer loop
      vertex  1.174750e+003 1.982586e+001 1.716692e+003
      vertex  1.174750e+003 3.125000e+001 1.685000e+003
      vertex  1.174750e+003 1.982586e+001 1.723308e+003
    endloop
  endfacet
  facet normal 1.000000e+000 -0.000000e+000 -0.000000e+000
    outer loop
      vertex  1.174750e+003 1.982586e+001 1.723308e+003
      vertex  1.174750e+003 3.125000e+001 1.685000e+003
      vertex  1.174750e+003 1.703615e+001 1.746697e+003
    endloop
  endfacet
  facet normal 1.000000e+000 0.000000e+000 0.000000e+000
    outer loop
      vertex  1.174750e+003 1.982586e+001 1.723308e+003
      vertex  1.174750e+003 1.703615e+001 1.746697e+003
      vertex  1.174750e+003 1.767742e+001 1.729567e+003
    endloop
  endfacet
  facet normal 1.000000e+000 0.000000e+000 0.000000e+000
    outer loop
      vertex  1.174750e+003 1.767742e+001 1.729567e+003
      vertex  1.174750e+003 1.703615e+001 1.746697e+003
      vertex  1.174750e+003 1.500000e+001 1.746036e+003
    endloop
  endfacet
  facet normal 1.000000e+000 0.000000e+000 0.000000e+000
    outer loop
      vertex  1.174750e+003 1.767742e+001 1.729567e+003
      vertex  1.174750e+003 1.500000e+001 1.746036e+003
      vertex  1.174750e+003 1.361336e+001 1.734788e+003
    endloop
  endfacet
  facet normal 1.000000e+000 0.000000e+000 -0.000000e+000
    outer loop
      vertex  1.174750e+003 1.361336e+001 1.734788e+003
      vertex  1.174750e+003 1.500000e+001 1.746036e+003
      vertex  1.174750e+003 8.074078e+000 1.738407e+003
    endloop
  endfacet
  facet normal 1.000000e+000 0.000000e+000 -0.000000e+000
    outer loop
      vertex  1.174750e+003 -1.901093e+001 1.726526e+003
      vertex  1.174750e+003 -1.586172e+001 1.732346e+003
      vertex  1.174750e+003 -3.125000e+001 1.755000e+003
    endloop
  endfacet
  facet normal 1.000000e+000 0.000000e+000 0.000000e+000
    outer loop
      vertex  1.174750e+003 -3.125000e+001 1.755000e+003
      vertex  1.174750e+003 -1.586172e+001 1.732346e+003
      vertex  1.174750e+003 -1.099366e+001 1.736827e+003
    endloop
  endfacet
  facet normal 1.000000e+000 0.000000e+000 0.000000e+000
    outer loop
      vertex  1.174750e+003 1.829456e+001 1.691570e+003
      vertex  1.174750e+003 1.829456e+001 1.689430e+003
      vertex  1.174750e+003 3.125000e+001 1.685000e+003
    endloop
  endfacet
  facet normal 1.000000e+000 0.000000e+000 0.000000e+000
    outer loop
      vertex  1.174750e+003 3.125000e+001 1.685000e+003
      vertex  1.174750e+003 1.829456e+001 1.689430e+003
      vertex  1.174750e+003 1.703615e+001 1.687697e+003
    endloop
  endfacet
  facet normal 1.000000e+000 0.000000e+000 0.000000e+000
    outer loop
      vertex  1.174750e+003 3.125000e+001 1.685000e+003
      vertex  1.174750e+003 1.703615e+001 1.687697e+003
      vertex  1.174750e+003 1.500000e+001 1.687036e+003
    endloop
  endfacet
  facet normal 1.000000e+000 0.000000e+000 0.000000e+000
    outer loop
      vertex  1.174750e+003 1.296385e+001 1.687697e+003
      vertex  1.174750e+003 -3.125000e+001 1.685000e+003
      vertex  1.174750e+003 1.500000e+001 1.687036e+003
    endloop
  endfacet
  facet normal 1.000000e+000 0.000000e+000 0.000000e+000
    outer loop
      vertex  1.174750e+003 1.500000e+001 1.687036e+003
      vertex  1.174750e+003 -3.125000e+001 1.685000e+003
      vertex  1.174750e+003 3.125000e+001 1.685000e+003
    endloop
  endfacet
  facet normal 1.000000e+000 -0.000000e+000 0.000000e+000
    outer loop
      vertex  1.174750e+003 1.703615e+001 1.746697e+003
      vertex  1.174750e+003 3.125000e+001 1.685000e+003
      vertex  1.174750e+003 1.829456e+001 1.748430e+003
    endloop
  endfacet
  facet normal 1.000000e+000 -0.000000e+000 0.000000e+000
    outer loop
      vertex  1.174750e+003 1.829456e+001 1.748430e+003
      vertex  1.174750e+003 3.125000e+001 1.685000e+003
      vertex  1.174750e+003 3.125000e+001 1.755000e+003
    endloop
  endfacet
  facet normal 1.000000e+000 0.000000e+000 0.000000e+000
    outer loop
      vertex  1.174750e+003 1.829456e+001 1.748430e+003
      vertex  1.174750e+003 3.125000e+001 1.755000e+003
      vertex  1.174750e+003 1.829456e+001 1.750570e+003
    endloop
  endfacet
  facet normal 1.000000e+000 0.000000e+000 -0.000000e+000
    outer loop
      vertex  1.174750e+003 1.829456e+001 1.750570e+003
      vertex  1.174750e+003 3.125000e+001 1.755000e+003
      vertex  1.174750e+003 1.703615e+001 1.752302e+003
    endloop
  endfacet
  facet normal 1.000000e+000 0.000000e+000 0.000000e+000
    outer loop
      vertex  1.174750e+003 1.170544e+001 1.691570e+003
      vertex  1.174750e+003 1.296385e+001 1.693302e+003
      vertex  1.174750e+003 1.982586e+001 1.716692e+003
    endloop
  endfacet
  facet normal 1.000000e+000 0.000000e+000 0.000000e+000
    outer loop
      vertex  1.174750e+003 1.982586e+001 1.716692e+003
      vertex  1.174750e+003 1.296385e+001 1.693302e+003
      vertex  1.174750e+003 1.500000e+001 1.693964e+003
    endloop
  endfacet
  facet normal 1.000000e+000 0.000000e+000 0.000000e+000
    outer loop
      vertex  1.174750e+003 1.982586e+001 1.716692e+003
      vertex  1.174750e+003 1.500000e+001 1.693964e+003
      vertex  1.174750e+003 1.703615e+001 1.693302e+003
    endloop
  endfacet
  facet normal 1.000000e+000 0.000000e+000 0.000000e+000
    outer loop
      vertex  1.174750e+003 1.767742e+001 1.710433e+003
      vertex  1.174750e+003 1.361336e+001 1.705212e+003
      vertex  1.174750e+003 1.170544e+001 1.691570e+003
    endloop
  endfacet
  facet normal 1.000000e+000 0.000000e+000 -0.000000e+000
    outer loop
      vertex  1.174750e+003 1.170544e+001 1.691570e+003
      vertex  1.174750e+003 1.361336e+001 1.705212e+003
      vertex  1.174750e+003 8.074078e+000 1.701593e+003
    endloop
  endfacet
  facet normal 1.000000e+000 0.000000e+000 0.000000e+000
    outer loop
      vertex  1.174750e+003 1.170544e+001 1.691570e+003
      vertex  1.174750e+003 8.074078e+000 1.701593e+003
      vertex  1.174750e+003 1.170544e+001 1.689430e+003
    endloop
  endfacet
  facet normal 1.000000e+000 0.000000e+000 0.000000e+000
    outer loop
      vertex  1.174750e+003 1.170544e+001 1.689430e+003
      vertex  1.174750e+003 8.074078e+000 1.701593e+003
      vertex  1.174750e+003 1.659845e+000 1.699969e+003
    endloop
  endfacet
  facet normal 1.000000e+000 0.000000e+000 0.000000e+000
    outer loop
      vertex  1.174750e+003 1.170544e+001 1.689430e+003
      vertex  1.174750e+003 1.659845e+000 1.699969e+003
      vertex  1.174750e+003 1.296385e+001 1.687697e+003
    endloop
  endfacet
  facet normal 1.000000e+000 0.000000e+000 -0.000000e+000
    outer loop
      vertex  1.174750e+003 1.703615e+001 1.752302e+003
      vertex  1.174750e+003 3.125000e+001 1.755000e+003
      vertex  1.174750e+003 1.500000e+001 1.752964e+003
    endloop
  endfacet
  facet normal 1.000000e+000 0.000000e+000 -0.000000e+000
    outer loop
      vertex  1.174750e+003 1.500000e+001 1.752964e+003
      vertex  1.174750e+003 3.125000e+001 1.755000e+003
      vertex  1.174750e+003 -3.125000e+001 1.755000e+003
    endloop
  endfacet
  facet normal 1.000000e+000 0.000000e+000 0.000000e+000
    outer loop
      vertex  1.174750e+003 1.500000e+001 1.752964e+003
      vertex  1.174750e+003 -3.125000e+001 1.755000e+003
      vertex  1.174750e+003 1.296385e+001 1.752302e+003
    endloop
  endfacet
  facet normal 1.000000e+000 0.000000e+000 0.000000e+000
    outer loop
      vertex  1.174750e+003 1.500000e+001 1.746036e+003
      vertex  1.174750e+003 1.296385e+001 1.746697e+003
      vertex  1.174750e+003 8.074078e+000 1.738407e+003
    endloop
  endfacet
  facet normal 1.000000e+000 0.000000e+000 0.000000e+000
    outer loop
      vertex  1.174750e+003 1.170544e+001 1.691570e+003
      vertex  1.174750e+003 1.982586e+001 1.716692e+003
      vertex  1.174750e+003 1.767742e+001 1.710433e+003
    endloop
  endfacet
  facet normal 1.000000e+000 0.000000e+000 -0.000000e+000
    outer loop
      vertex  1.155000e+003 3.125000e+001 1.760000e+003
      vertex  1.155000e+003 3.325000e+001 1.763301e+003
      vertex  1.155000e+003 -3.125000e+001 1.760000e+003
    endloop
  endfacet
  facet normal 1.000000e+000 0.000000e+000 -0.000000e+000
    outer loop
      vertex  1.155000e+003 -3.125000e+001 1.760000e+003
      vertex  1.155000e+003 3.325000e+001 1.763301e+003
      vertex  1.155000e+003 -3.325000e+001 1.763301e+003
    endloop
  endfacet
  facet normal 1.000000e+000 0.000000e+000 0.000000e+000
    outer loop
      vertex  1.155000e+003 -3.125000e+001 1.760000e+003
      vertex  1.155000e+003 -3.325000e+001 1.763301e+003
      vertex  1.155000e+003 -3.125000e+001 1.680000e+003
    endloop
  endfacet
  facet normal 1.000000e+000 0.000000e+000 0.000000e+000
    outer loop
      vertex  1.155000e+003 -3.125000e+001 1.680000e+003
      vertex  1.155000e+003 -3.325000e+001 1.763301e+003
      vertex  1.155000e+003 -3.325000e+001 1.676699e+003
    endloop
  endfacet
  facet normal 1.000000e+000 -0.000000e+000 0.000000e+000
    outer loop
      vertex  1.155000e+003 -3.125000e+001 1.680000e+003
      vertex  1.155000e+003 -3.325000e+001 1.676699e+003
      vertex  1.155000e+003 3.125000e+001 1.680000e+003
    endloop
  endfacet
  facet normal 1.000000e+000 0.000000e+000 0.000000e+000
    outer loop
      vertex  1.155000e+003 3.125000e+001 1.680000e+003
      vertex  1.155000e+003 -3.325000e+001 1.676699e+003
      vertex  1.155000e+003 3.325000e+001 1.676699e+003
    endloop
  endfacet
  facet normal 1.000000e+000 -0.000000e+000 0.000000e+000
    outer loop
      vertex  1.155000e+003 3.125000e+001 1.680000e+003
      vertex  1.155000e+003 3.325000e+001 1.676699e+003
      vertex  1.155000e+003 3.125000e+001 1.760000e+003
    endloop
  endfacet
  facet normal 1.000000e+000 -0.000000e+000 0.000000e+000
    outer loop
      vertex  1.155000e+003 3.125000e+001 1.760000e+003
      vertex  1.155000e+003 3.325000e+001 1.676699e+003
      vertex  1.155000e+003 3.325000e+001 1.763301e+003
    endloop
  endfacet
  facet normal -1.000000e+000 -0.000000e+000 -0.000000e+000
    outer loop
      vertex  1.005000e+003 3.125000e+001 1.680000e+003
      vertex  1.005000e+003 3.325000e+001 1.676699e+003
      vertex  1.005000e+003 -3.125000e+001 1.680000e+003
    endloop
  endfacet
  facet normal -1.000000e+000 0.000000e+000 -0.000000e+000
    outer loop
      vertex  1.005000e+003 -3.125000e+001 1.680000e+003
      vertex  1.005000e+003 3.325000e+001 1.676699e+003
      vertex  1.005000e+003 -3.325000e+001 1.676699e+003
    endloop
  endfacet
  facet normal -1.000000e+000 -0.000000e+000 0.000000e+000
    outer loop
      vertex  1.005000e+003 -3.125000e+001 1.680000e+003
      vertex  1.005000e+003 -3.325000e+001 1.676699e+003
      vertex  1.005000e+003 -3.125000e+001 1.760000e+003
    endloop
  endfacet
  facet normal -1.000000e+000 -0.000000e+000 0.000000e+000
    outer loop
      vertex  1.005000e+003 -3.125000e+001 1.760000e+003
      vertex  1.005000e+003 -3.325000e+001 1.676699e+003
      vertex  1.005000e+003 -3.325000e+001 1.763301e+003
    endloop
  endfacet
  facet normal -1.000000e+000 0.000000e+000 0.000000e+000
    outer loop
      vertex  1.005000e+003 -3.125000e+001 1.760000e+003
      vertex  1.005000e+003 -3.325000e+001 1.763301e+003
      vertex  1.005000e+003 3.125000e+001 1.760000e+003
    endloop
  endfacet
  facet normal -1.000000e+000 0.000000e+000 0.000000e+000
    outer loop
      vertex  1.005000e+003 3.125000e+001 1.760000e+003
      vertex  1.005000e+003 -3.325000e+001 1.763301e+003
      vertex  1.005000e+003 3.325000e+001 1.763301e+003
    endloop
  endfacet
  facet normal -1.000000e+000 0.000000e+000 0.000000e+000
    outer loop
      vertex  1.005000e+003 3.125000e+001 1.760000e+003
      vertex  1.005000e+003 3.325000e+001 1.763301e+003
      vertex  1.005000e+003 3.125000e+001 1.680000e+003
    endloop
  endfacet
  facet normal -1.000000e+000 0.000000e+000 0.000000e+000
    outer loop
      vertex  1.005000e+003 3.125000e+001 1.680000e+003
      vertex  1.005000e+003 3.325000e+001 1.763301e+003
      vertex  1.005000e+003 3.325000e+001 1.676699e+003
    endloop
  endfacet
  facet normal -5.000046e-001 0.000000e+000 8.660228e-001
    outer loop
      vertex  1.062680e+003 3.325000e+001 1.796603e+003
      vertex  1.005000e+003 3.325000e+001 1.763301e+003
      vertex  1.062680e+003 -3.325000e+001 1.796603e+003
    endloop
  endfacet
  facet normal -5.000046e-001 0.000000e+000 8.660228e-001
    outer loop
      vertex  1.062680e+003 -3.325000e+001 1.796603e+003
      vertex  1.005000e+003 3.325000e+001 1.763301e+003
      vertex  1.005000e+003 -3.325000e+001 1.763301e+003
    endloop
  endfacet
  facet normal 5.000117e-001 -0.000000e+000 8.660187e-001
    outer loop
      vertex  1.097321e+003 -3.325000e+001 1.796603e+003
      vertex  1.155000e+003 -3.325000e+001 1.763301e+003
      vertex  1.097321e+003 3.325000e+001 1.796603e+003
    endloop
  endfacet
  facet normal 5.000117e-001 0.000000e+000 8.660187e-001
    outer loop
      vertex  1.097321e+003 3.325000e+001 1.796603e+003
      vertex  1.155000e+003 -3.325000e+001 1.763301e+003
      vertex  1.155000e+003 3.325000e+001 1.763301e+003
    endloop
  endfacet
  facet normal 5.000046e-001 0.000000e+000 -8.660228e-001
    outer loop
      vertex  1.097320e+003 3.325000e+001 1.643397e+003
      vertex  1.155000e+003 3.325000e+001 1.676699e+003
      vertex  1.097320e+003 -3.325000e+001 1.643397e+003
    endloop
  endfacet
  facet normal 5.000046e-001 0.000000e+000 -8.660228e-001
    outer loop
      vertex  1.097320e+003 -3.325000e+001 1.643397e+003
      vertex  1.155000e+003 3.325000e+001 1.676699e+003
      vertex  1.155000e+003 -3.325000e+001 1.676699e+003
    endloop
  endfacet
  facet normal -5.000046e-001 0.000000e+000 -8.660228e-001
    outer loop
      vertex  1.062680e+003 -3.325000e+001 1.643397e+003
      vertex  1.005000e+003 -3.325000e+001 1.676699e+003
      vertex  1.062680e+003 3.325000e+001 1.643397e+003
    endloop
  endfacet
  facet normal -5.000046e-001 0.000000e+000 -8.660228e-001
    outer loop
      vertex  1.062680e+003 3.325000e+001 1.643397e+003
      vertex  1.005000e+003 -3.325000e+001 1.676699e+003
      vertex  1.005000e+003 3.325000e+001 1.676699e+003
    endloop
  endfacet
  facet normal 0.000000e+000 1.000000e+000 -0.000000e+000
    outer loop
      vertex  1.062680e+003 3.325000e+001 1.643397e+003
      vertex  1.005000e+003 3.325000e+001 1.676699e+003
      vertex  1.097320e+003 3.325000e+001 1.643397e+003
    endloop
  endfacet
  facet normal 0.000000e+000 1.000000e+000 0.000000e+000
    outer loop
      vertex  1.097320e+003 3.325000e+001 1.643397e+003
      vertex  1.005000e+003 3.325000e+001 1.676699e+003
      vertex  1.005000e+003 3.325000e+001 1.763301e+003
    endloop
  endfacet
  facet normal 0.000000e+000 1.000000e+000 -0.000000e+000
    outer loop
      vertex  1.097320e+003 3.325000e+001 1.643397e+003
      vertex  1.005000e+003 3.325000e+001 1.763301e+003
      vertex  1.155000e+003 3.325000e+001 1.676699e+003
    endloop
  endfacet
  facet normal 0.000000e+000 1.000000e+000 0.000000e+000
    outer loop
      vertex  1.155000e+003 3.325000e+001 1.676699e+003
      vertex  1.005000e+003 3.325000e+001 1.763301e+003
      vertex  1.062680e+003 3.325000e+001 1.796603e+003
    endloop
  endfacet
  facet normal 0.000000e+000 1.000000e+000 -0.000000e+000
    outer loop
      vertex  1.155000e+003 3.325000e+001 1.676699e+003
      vertex  1.062680e+003 3.325000e+001 1.796603e+003
      vertex  1.155000e+003 3.325000e+001 1.763301e+003
    endloop
  endfacet
  facet normal 0.000000e+000 1.000000e+000 0.000000e+000
    outer loop
      vertex  1.155000e+003 3.325000e+001 1.763301e+003
      vertex  1.062680e+003 3.325000e+001 1.796603e+003
      vertex  1.097321e+003 3.325000e+001 1.796603e+003
    endloop
  endfacet
  facet normal -0.000000e+000 -1.000000e+000 0.000000e+000
    outer loop
      vertex  1.155000e+003 -3.325000e+001 1.676699e+003
      vertex  1.155000e+003 -3.325000e+001 1.763301e+003
      vertex  1.097320e+003 -3.325000e+001 1.643397e+003
    endloop
  endfacet
  facet normal 0.000000e+000 -1.000000e+000 0.000000e+000
    outer loop
      vertex  1.097320e+003 -3.325000e+001 1.643397e+003
      vertex  1.155000e+003 -3.325000e+001 1.763301e+003
      vertex  1.097321e+003 -3.325000e+001 1.796603e+003
    endloop
  endfacet
  facet normal 0.000000e+000 -1.000000e+000 0.000000e+000
    outer loop
      vertex  1.097320e+003 -3.325000e+001 1.643397e+003
      vertex  1.097321e+003 -3.325000e+001 1.796603e+003
      vertex  1.062680e+003 -3.325000e+001 1.643397e+003
    endloop
  endfacet
  facet normal 0.000000e+000 -1.000000e+000 0.000000e+000
    outer loop
      vertex  1.062680e+003 -3.325000e+001 1.643397e+003
      vertex  1.097321e+003 -3.325000e+001 1.796603e+003
      vertex  1.062680e+003 -3.325000e+001 1.796603e+003
    endloop
  endfacet
  facet normal 0.000000e+000 -1.000000e+000 0.000000e+000
    outer loop
      vertex  1.062680e+003 -3.325000e+001 1.643397e+003
      vertex  1.062680e+003 -3.325000e+001 1.796603e+003
      vertex  1.005000e+003 -3.325000e+001 1.676699e+003
    endloop
  endfacet
  facet normal 0.000000e+000 -1.000000e+000 0.000000e+000
    outer loop
      vertex  1.005000e+003 -3.325000e+001 1.676699e+003
      vertex  1.062680e+003 -3.325000e+001 1.796603e+003
      vertex  1.005000e+003 -3.325000e+001 1.763301e+003
    endloop
  endfacet
  facet normal -1.000000e+000 0.000000e+000 0.000000e+000
    outer loop
      vertex  9.852500e+002 1.361336e+001 1.705212e+003
      vertex  9.852500e+002 1.767742e+001 1.710433e+003
      vertex  9.852500e+002 3.125000e+001 1.685000e+003
    endloop
  endfacet
  facet normal -1.000000e+000 0.000000e+000 0.000000e+000
    outer loop
      vertex  9.852500e+002 3.125000e+001 1.685000e+003
      vertex  9.852500e+002 1.767742e+001 1.710433e+003
      vertex  9.852500e+002 1.982586e+001 1.716692e+003
    endloop
  endfacet
  facet normal -1.000000e+000 0.000000e+000 0.000000e+000
    outer loop
      vertex  9.852500e+002 3.125000e+001 1.685000e+003
      vertex  9.852500e+002 1.982586e+001 1.716692e+003
      vertex  9.852500e+002 3.125000e+001 1.755000e+003
    endloop
  endfacet
  facet normal -1.000000e+000 0.000000e+000 0.000000e+000
    outer loop
      vertex  9.852500e+002 3.125000e+001 1.755000e+003
      vertex  9.852500e+002 1.982586e+001 1.716692e+003
      vertex  9.852500e+002 1.982586e+001 1.723308e+003
    endloop
  endfacet
  facet normal -1.000000e+000 0.000000e+000 0.000000e+000
    outer loop
      vertex  9.852500e+002 3.125000e+001 1.755000e+003
      vertex  9.852500e+002 1.982586e+001 1.723308e+003
      vertex  9.852500e+002 1.767742e+001 1.729567e+003
    endloop
  endfacet
  facet normal -1.000000e+000 -0.000000e+000 0.000000e+000
    outer loop
      vertex  9.852500e+002 -1.099366e+001 1.736827e+003
      vertex  9.852500e+002 -1.586172e+001 1.732346e+003
      vertex  9.852500e+002 -3.125000e+001 1.755000e+003
    endloop
  endfacet
  facet normal -1.000000e+000 0.000000e+000 0.000000e+000
    outer loop
      vertex  9.852500e+002 -3.125000e+001 1.755000e+003
      vertex  9.852500e+002 -1.586172e+001 1.732346e+003
      vertex  9.852500e+002 -1.901093e+001 1.726526e+003
    endloop
  endfacet
  facet normal -1.000000e+000 0.000000e+000 0.000000e+000
    outer loop
      vertex  9.852500e+002 -3.125000e+001 1.755000e+003
      vertex  9.852500e+002 -1.901093e+001 1.726526e+003
      vertex  9.852500e+002 -3.125000e+001 1.685000e+003
    endloop
  endfacet
  facet normal -1.000000e+000 0.000000e+000 0.000000e+000
    outer loop
      vertex  9.852500e+002 -3.125000e+001 1.685000e+003
      vertex  9.852500e+002 -1.901093e+001 1.726526e+003
      vertex  9.852500e+002 -2.010000e+001 1.720000e+003
    endloop
  endfacet
  facet normal -1.000000e+000 0.000000e+000 0.000000e+000
    outer loop
      vertex  9.852500e+002 -3.125000e+001 1.685000e+003
      vertex  9.852500e+002 -2.010000e+001 1.720000e+003
      vertex  9.852500e+002 -1.901093e+001 1.713474e+003
    endloop
  endfacet
  facet normal -1.000000e+000 0.000000e+000 -0.000000e+000
    outer loop
      vertex  9.852500e+002 -1.586172e+001 1.707654e+003
      vertex  9.852500e+002 -1.099366e+001 1.703173e+003
      vertex  9.852500e+002 -3.125000e+001 1.685000e+003
    endloop
  endfacet
  facet normal -1.000000e+000 0.000000e+000 0.000000e+000
    outer loop
      vertex  9.852500e+002 -3.125000e+001 1.685000e+003
      vertex  9.852500e+002 -1.099366e+001 1.703173e+003
      vertex  9.852500e+002 -4.934258e+000 1.700515e+003
    endloop
  endfacet
  facet normal -1.000000e+000 0.000000e+000 0.000000e+000
    outer loop
      vertex  9.852500e+002 -3.125000e+001 1.685000e+003
      vertex  9.852500e+002 -4.934258e+000 1.700515e+003
      vertex  9.852500e+002 3.125000e+001 1.685000e+003
    endloop
  endfacet
  facet normal -1.000000e+000 0.000000e+000 0.000000e+000
    outer loop
      vertex  9.852500e+002 3.125000e+001 1.685000e+003
      vertex  9.852500e+002 -4.934258e+000 1.700515e+003
      vertex  9.852500e+002 1.659845e+000 1.699969e+003
    endloop
  endfacet
  facet normal -1.000000e+000 0.000000e+000 0.000000e+000
    outer loop
      vertex  9.852500e+002 3.125000e+001 1.685000e+003
      vertex  9.852500e+002 1.659845e+000 1.699969e+003
      vertex  9.852500e+002 8.074078e+000 1.701593e+003
    endloop
  endfacet
  facet normal -1.000000e+000 0.000000e+000 0.000000e+000
    outer loop
      vertex  9.852500e+002 1.361336e+001 1.734788e+003
      vertex  9.852500e+002 8.074078e+000 1.738407e+003
      vertex  9.852500e+002 3.125000e+001 1.755000e+003
    endloop
  endfacet
  facet normal -1.000000e+000 0.000000e+000 0.000000e+000
    outer loop
      vertex  9.852500e+002 3.125000e+001 1.755000e+003
      vertex  9.852500e+002 8.074078e+000 1.738407e+003
      vertex  9.852500e+002 1.659845e+000 1.740031e+003
    endloop
  endfacet
  facet normal -1.000000e+000 -0.000000e+000 0.000000e+000
    outer loop
      vertex  9.852500e+002 3.125000e+001 1.755000e+003
      vertex  9.852500e+002 1.659845e+000 1.740031e+003
      vertex  9.852500e+002 -3.125000e+001 1.755000e+003
    endloop
  endfacet
  facet normal -1.000000e+000 0.000000e+000 0.000000e+000
    outer loop
      vertex  9.852500e+002 -3.125000e+001 1.755000e+003
      vertex  9.852500e+002 1.659845e+000 1.740031e+003
      vertex  9.852500e+002 -4.934258e+000 1.739485e+003
    endloop
  endfacet
  facet normal -1.000000e+000 0.000000e+000 0.000000e+000
    outer loop
      vertex  9.852500e+002 -3.125000e+001 1.755000e+003
      vertex  9.852500e+002 -4.934258e+000 1.739485e+003
      vertex  9.852500e+002 -1.099366e+001 1.736827e+003
    endloop
  endfacet
  facet normal -1.000000e+000 0.000000e+000 -0.000000e+000
    outer loop
      vertex  9.852500e+002 -1.901093e+001 1.713474e+003
      vertex  9.852500e+002 -1.586172e+001 1.707654e+003
      vertex  9.852500e+002 -3.125000e+001 1.685000e+003
    endloop
  endfacet
  facet normal -1.000000e+000 0.000000e+000 0.000000e+000
    outer loop
      vertex  9.852500e+002 1.767742e+001 1.729567e+003
      vertex  9.852500e+002 1.361336e+001 1.734788e+003
      vertex  9.852500e+002 3.125000e+001 1.755000e+003
    endloop
  endfacet
  facet normal -1.000000e+000 0.000000e+000 0.000000e+000
    outer loop
      vertex  9.852500e+002 8.074078e+000 1.701593e+003
      vertex  9.852500e+002 1.361336e+001 1.705212e+003
      vertex  9.852500e+002 3.125000e+001 1.685000e+003
    endloop
  endfacet
  facet normal 0.000000e+000 0.000000e+000 1.000000e+000
    outer loop
      vertex  9.902500e+002 -3.125000e+001 1.760000e+003
      vertex  1.005000e+003 -3.125000e+001 1.760000e+003
      vertex  9.902500e+002 3.125000e+001 1.760000e+003
    endloop
  endfacet
  facet normal -0.000000e+000 0.000000e+000 1.000000e+000
    outer loop
      vertex  9.902500e+002 3.125000e+001 1.760000e+003
      vertex  1.005000e+003 -3.125000e+001 1.760000e+003
      vertex  1.005000e+003 3.125000e+001 1.760000e+003
    endloop
  endfacet
  facet normal -0.000000e+000 1.000000e+000 0.000000e+000
    outer loop
      vertex  9.852500e+002 3.125000e+001 1.685000e+003
      vertex  9.852500e+002 3.125000e+001 1.755000e+003
      vertex  9.902500e+002 3.125000e+001 1.680000e+003
    endloop
  endfacet
  facet normal 0.000000e+000 1.000000e+000 -0.000000e+000
    outer loop
      vertex  9.902500e+002 3.125000e+001 1.680000e+003
      vertex  9.852500e+002 3.125000e+001 1.755000e+003
      vertex  9.902500e+002 3.125000e+001 1.760000e+003
    endloop
  endfacet
  facet normal 0.000000e+000 1.000000e+000 0.000000e+000
    outer loop
      vertex  9.902500e+002 3.125000e+001 1.680000e+003
      vertex  9.902500e+002 3.125000e+001 1.760000e+003
      vertex  1.005000e+003 3.125000e+001 1.680000e+003
    endloop
  endfacet
  facet normal 0.000000e+000 1.000000e+000 -0.000000e+000
    outer loop
      vertex  1.005000e+003 3.125000e+001 1.680000e+003
      vertex  9.902500e+002 3.125000e+001 1.760000e+003
      vertex  1.005000e+003 3.125000e+001 1.760000e+003
    endloop
  endfacet
  facet normal 0.000000e+000 0.000000e+000 -1.000000e+000
    outer loop
      vertex  9.902500e+002 3.125000e+001 1.680000e+003
      vertex  1.005000e+003 3.125000e+001 1.680000e+003
      vertex  9.902500e+002 -3.125000e+001 1.680000e+003
    endloop
  endfacet
  facet normal 0.000000e+000 0.000000e+000 -1.000000e+000
    outer loop
      vertex  9.902500e+002 -3.125000e+001 1.680000e+003
      vertex  1.005000e+003 3.125000e+001 1.680000e+003
      vertex  1.005000e+003 -3.125000e+001 1.680000e+003
    endloop
  endfacet
  facet normal 0.000000e+000 -1.000000e+000 0.000000e+000
    outer loop
      vertex  1.005000e+003 -3.125000e+001 1.680000e+003
      vertex  1.005000e+003 -3.125000e+001 1.760000e+003
      vertex  9.902500e+002 -3.125000e+001 1.680000e+003
    endloop
  endfacet
  facet normal 0.000000e+000 -1.000000e+000 0.000000e+000
    outer loop
      vertex  9.902500e+002 -3.125000e+001 1.680000e+003
      vertex  1.005000e+003 -3.125000e+001 1.760000e+003
      vertex  9.902500e+002 -3.125000e+001 1.760000e+003
    endloop
  endfacet
  facet normal 0.000000e+000 -1.000000e+000 0.000000e+000
    outer loop
      vertex  9.902500e+002 -3.125000e+001 1.680000e+003
      vertex  9.902500e+002 -3.125000e+001 1.760000e+003
      vertex  9.852500e+002 -3.125000e+001 1.685000e+003
    endloop
  endfacet
  facet normal 0.000000e+000 -1.000000e+000 0.000000e+000
    outer loop
      vertex  9.852500e+002 -3.125000e+001 1.685000e+003
      vertex  9.902500e+002 -3.125000e+001 1.760000e+003
      vertex  9.852500e+002 -3.125000e+001 1.755000e+003
    endloop
  endfacet
  facet normal 0.000000e+000 -1.000000e+000 0.000000e+000
    outer loop
      vertex  1.155000e+003 -3.125000e+001 1.760000e+003
      vertex  1.155000e+003 -3.125000e+001 1.680000e+003
      vertex  1.169750e+003 -3.125000e+001 1.760000e+003
    endloop
  endfacet
  facet normal 0.000000e+000 -1.000000e+000 -0.000000e+000
    outer loop
      vertex  1.169750e+003 -3.125000e+001 1.760000e+003
      vertex  1.155000e+003 -3.125000e+001 1.680000e+003
      vertex  1.169750e+003 -3.125000e+001 1.680000e+003
    endloop
  endfacet
  facet normal 0.000000e+000 -1.000000e+000 0.000000e+000
    outer loop
      vertex  1.169750e+003 -3.125000e+001 1.760000e+003
      vertex  1.169750e+003 -3.125000e+001 1.680000e+003
      vertex  1.174750e+003 -3.125000e+001 1.755000e+003
    endloop
  endfacet
  facet normal 0.000000e+000 -1.000000e+000 -0.000000e+000
    outer loop
      vertex  1.174750e+003 -3.125000e+001 1.755000e+003
      vertex  1.169750e+003 -3.125000e+001 1.680000e+003
      vertex  1.174750e+003 -3.125000e+001 1.685000e+003
    endloop
  endfacet
  facet normal 0.000000e+000 0.000000e+000 -1.000000e+000
    outer loop
      vertex  1.169750e+003 -3.125000e+001 1.680000e+003
      vertex  1.155000e+003 -3.125000e+001 1.680000e+003
      vertex  1.169750e+003 3.125000e+001 1.680000e+003
    endloop
  endfacet
  facet normal -0.000000e+000 0.000000e+000 -1.000000e+000
    outer loop
      vertex  1.169750e+003 3.125000e+001 1.680000e+003
      vertex  1.155000e+003 -3.125000e+001 1.680000e+003
      vertex  1.155000e+003 3.125000e+001 1.680000e+003
    endloop
  endfacet
  facet normal 0.000000e+000 1.000000e+000 0.000000e+000
    outer loop
      vertex  1.174750e+003 3.125000e+001 1.755000e+003
      vertex  1.174750e+003 3.125000e+001 1.685000e+003
      vertex  1.169750e+003 3.125000e+001 1.760000e+003
    endloop
  endfacet
  facet normal 0.000000e+000 1.000000e+000 0.000000e+000
    outer loop
      vertex  1.169750e+003 3.125000e+001 1.760000e+003
      vertex  1.174750e+003 3.125000e+001 1.685000e+003
      vertex  1.169750e+003 3.125000e+001 1.680000e+003
    endloop
  endfacet
  facet normal 0.000000e+000 1.000000e+000 0.000000e+000
    outer loop
      vertex  1.169750e+003 3.125000e+001 1.760000e+003
      vertex  1.169750e+003 3.125000e+001 1.680000e+003
      vertex  1.155000e+003 3.125000e+001 1.760000e+003
    endloop
  endfacet
  facet normal 0.000000e+000 1.000000e+000 0.000000e+000
    outer loop
      vertex  1.155000e+003 3.125000e+001 1.760000e+003
      vertex  1.169750e+003 3.125000e+001 1.680000e+003
      vertex  1.155000e+003 3.125000e+001 1.680000e+003
    endloop
  endfacet
  facet normal 0.000000e+000 0.000000e+000 1.000000e+000
    outer loop
      vertex  1.169750e+003 3.125000e+001 1.760000e+003
      vertex  1.155000e+003 3.125000e+001 1.760000e+003
      vertex  1.169750e+003 -3.125000e+001 1.760000e+003
    endloop
  endfacet
  facet normal 0.000000e+000 0.000000e+000 1.000000e+000
    outer loop
      vertex  1.169750e+003 -3.125000e+001 1.760000e+003
      vertex  1.155000e+003 3.125000e+001 1.760000e+003
      vertex  1.155000e+003 -3.125000e+001 1.760000e+003
    endloop
  endfacet
  facet normal 0.000000e+000 0.000000e+000 -1.000000e+000
    outer loop
      vertex  1.097320e+003 -3.325000e+001 1.643397e+003
      vertex  1.062680e+003 -3.325000e+001 1.643397e+003
      vertex  1.097320e+003 3.325000e+001 1.643397e+003
    endloop
  endfacet
  facet normal -0.000000e+000 0.000000e+000 -1.000000e+000
    outer loop
      vertex  1.097320e+003 3.325000e+001 1.643397e+003
      vertex  1.062680e+003 -3.325000e+001 1.643397e+003
      vertex  1.062680e+003 3.325000e+001 1.643397e+003
    endloop
  endfacet
  facet normal 0.000000e+000 0.000000e+000 1.000000e+000
    outer loop
      vertex  1.062680e+003 -3.325000e+001 1.796603e+003
      vertex  1.097321e+003 -3.325000e+001 1.796603e+003
      vertex  1.062680e+003 3.325000e+001 1.796603e+003
    endloop
  endfacet
  facet normal -0.000000e+000 0.000000e+000 1.000000e+000
    outer loop
      vertex  1.062680e+003 3.325000e+001 1.796603e+003
      vertex  1.097321e+003 -3.325000e+001 1.796603e+003
      vertex  1.097321e+003 3.325000e+001 1.796603e+003
    endloop
  endfacet
  facet normal 7.071068e-001 0.000000e+000 -7.071068e-001
    outer loop
      vertex  1.169750e+003 3.125000e+001 1.680000e+003
      vertex  1.174750e+003 3.125000e+001 1.685000e+003
      vertex  1.169750e+003 -3.125000e+001 1.680000e+003
    endloop
  endfacet
  facet normal 7.071068e-001 0.000000e+000 -7.071068e-001
    outer loop
      vertex  1.169750e+003 -3.125000e+001 1.680000e+003
      vertex  1.174750e+003 3.125000e+001 1.685000e+003
      vertex  1.174750e+003 -3.125000e+001 1.685000e+003
    endloop
  endfacet
  facet normal 7.071068e-001 -0.000000e+000 7.071068e-001
    outer loop
      vertex  1.169750e+003 -3.125000e+001 1.760000e+003
      vertex  1.174750e+003 -3.125000e+001 1.755000e+003
      vertex  1.169750e+003 3.125000e+001 1.760000e+003
    endloop
  endfacet
  facet normal 7.071068e-001 0.000000e+000 7.071068e-001
    outer loop
      vertex  1.169750e+003 3.125000e+001 1.760000e+003
      vertex  1.174750e+003 -3.125000e+001 1.755000e+003
      vertex  1.174750e+003 3.125000e+001 1.755000e+003
    endloop
  endfacet
  facet normal -7.071068e-001 -0.000000e+000 -7.071068e-001
    outer loop
      vertex  9.852500e+002 3.125000e+001 1.685000e+003
      vertex  9.902500e+002 3.125000e+001 1.680000e+003
      vertex  9.852500e+002 -3.125000e+001 1.685000e+003
    endloop
  endfacet
  facet normal -7.071068e-001 0.000000e+000 -7.071068e-001
    outer loop
      vertex  9.852500e+002 -3.125000e+001 1.685000e+003
      vertex  9.902500e+002 3.125000e+001 1.680000e+003
      vertex  9.902500e+002 -3.125000e+001 1.680000e+003
    endloop
  endfacet
  facet normal -7.071068e-001 0.000000e+000 7.071068e-001
    outer loop
      vertex  9.852500e+002 -3.125000e+001 1.755000e+003
      vertex  9.902500e+002 -3.125000e+001 1.760000e+003
      vertex  9.852500e+002 3.125000e+001 1.755000e+003
    endloop
  endfacet
  facet normal -7.071068e-001 0.000000e+000 7.071068e-001
    outer loop
      vertex  9.852500e+002 3.125000e+001 1.755000e+003
      vertex  9.902500e+002 -3.125000e+001 1.760000e+003
      vertex  9.902500e+002 3.125000e+001 1.760000e+003
    endloop
  endfacet
  facet normal -0.000000e+000 8.794983e-001 4.759020e-001
    outer loop
      vertex  9.852500e+002 -1.901093e+001 1.713474e+003
      vertex  1.174750e+003 -1.901093e+001 1.713474e+003
      vertex  9.852500e+002 -1.586172e+001 1.707654e+003
    endloop
  endfacet
  facet normal -0.000000e+000 8.794983e-001 4.759020e-001
    outer loop
      vertex  9.852500e+002 -1.586172e+001 1.707654e+003
      vertex  1.174750e+003 -1.901093e+001 1.713474e+003
      vertex  1.174750e+003 -1.586172e+001 1.707654e+003
    endloop
  endfacet
  facet normal -0.000000e+000 6.772582e-001 7.357454e-001
    outer loop
      vertex  9.852500e+002 -1.586172e+001 1.707654e+003
      vertex  1.174750e+003 -1.586172e+001 1.707654e+003
      vertex  9.852500e+002 -1.099366e+001 1.703173e+003
    endloop
  endfacet
  facet normal -0.000000e+000 6.772582e-001 7.357454e-001
    outer loop
      vertex  9.852500e+002 -1.099366e+001 1.703173e+003
      vertex  1.174750e+003 -1.586172e+001 1.707654e+003
      vertex  1.174750e+003 -1.099366e+001 1.703173e+003
    endloop
  endfacet
  facet normal -0.000000e+000 4.017029e-001 9.157701e-001
    outer loop
      vertex  9.852500e+002 -1.099366e+001 1.703173e+003
      vertex  1.174750e+003 -1.099366e+001 1.703173e+003
      vertex  9.852500e+002 -4.934258e+000 1.700515e+003
    endloop
  endfacet
  facet normal -0.000000e+000 4.017029e-001 9.157701e-001
    outer loop
      vertex  9.852500e+002 -4.934258e+000 1.700515e+003
      vertex  1.174750e+003 -1.099366e+001 1.703173e+003
      vertex  1.174750e+003 -4.934258e+000 1.700515e+003
    endloop
  endfacet
  facet normal -0.000000e+000 8.252194e-002 9.965892e-001
    outer loop
      vertex  9.852500e+002 -4.934258e+000 1.700515e+003
      vertex  1.174750e+003 -4.934258e+000 1.700515e+003
      vertex  9.852500e+002 1.659845e+000 1.699969e+003
    endloop
  endfacet
  facet normal -0.000000e+000 8.252194e-002 9.965892e-001
    outer loop
      vertex  9.852500e+002 1.659845e+000 1.699969e+003
      vertex  1.174750e+003 -4.934258e+000 1.700515e+003
      vertex  1.174750e+003 1.659845e+000 1.699969e+003
    endloop
  endfacet
  facet normal 0.000000e+000 -2.454456e-001 9.694104e-001
    outer loop
      vertex  9.852500e+002 1.659845e+000 1.699969e+003
      vertex  1.174750e+003 1.659845e+000 1.699969e+003
      vertex  9.852500e+002 8.074078e+000 1.701593e+003
    endloop
  endfacet
  facet normal 0.000000e+000 -2.454456e-001 9.694104e-001
    outer loop
      vertex  9.852500e+002 8.074078e+000 1.701593e+003
      vertex  1.174750e+003 1.659845e+000 1.699969e+003
      vertex  1.174750e+003 8.074078e+000 1.701593e+003
    endloop
  endfacet
  facet normal 0.000000e+000 -5.469508e-001 8.371648e-001
    outer loop
      vertex  9.852500e+002 8.074078e+000 1.701593e+003
      vertex  1.174750e+003 8.074078e+000 1.701593e+003
      vertex  9.852500e+002 1.361336e+001 1.705212e+003
    endloop
  endfacet
  facet normal 0.000000e+000 -5.469508e-001 8.371648e-001
    outer loop
      vertex  9.852500e+002 1.361336e+001 1.705212e+003
      vertex  1.174750e+003 8.074078e+000 1.701593e+003
      vertex  1.174750e+003 1.361336e+001 1.705212e+003
    endloop
  endfacet
  facet normal 0.000000e+000 -7.891088e-001 6.142535e-001
    outer loop
      vertex  9.852500e+002 1.361336e+001 1.705212e+003
      vertex  1.174750e+003 1.361336e+001 1.705212e+003
      vertex  9.852500e+002 1.767742e+001 1.710433e+003
    endloop
  endfacet
  facet normal 0.000000e+000 -7.891088e-001 6.142535e-001
    outer loop
      vertex  9.852500e+002 1.767742e+001 1.710433e+003
      vertex  1.174750e+003 1.361336e+001 1.705212e+003
      vertex  1.174750e+003 1.767742e+001 1.710433e+003
    endloop
  endfacet
  facet normal 0.000000e+000 -9.458306e-001 3.246604e-001
    outer loop
      vertex  9.852500e+002 1.767742e+001 1.710433e+003
      vertex  1.174750e+003 1.767742e+001 1.710433e+003
      vertex  9.852500e+002 1.982586e+001 1.716692e+003
    endloop
  endfacet
  facet normal 0.000000e+000 -9.458306e-001 3.246604e-001
    outer loop
      vertex  9.852500e+002 1.982586e+001 1.716692e+003
      vertex  1.174750e+003 1.767742e+001 1.710433e+003
      vertex  1.174750e+003 1.982586e+001 1.716692e+003
    endloop
  endfacet
  facet normal 0.000000e+000 -1.000000e+000 0.000000e+000
    outer loop
      vertex  9.852500e+002 1.982586e+001 1.716692e+003
      vertex  1.174750e+003 1.982586e+001 1.716692e+003
      vertex  9.852500e+002 1.982586e+001 1.723308e+003
    endloop
  endfacet
  facet normal 0.000000e+000 -1.000000e+000 0.000000e+000
    outer loop
      vertex  9.852500e+002 1.982586e+001 1.723308e+003
      vertex  1.174750e+003 1.982586e+001 1.716692e+003
      vertex  1.174750e+003 1.982586e+001 1.723308e+003
    endloop
  endfacet
  facet normal 0.000000e+000 -9.458306e-001 -3.246604e-001
    outer loop
      vertex  9.852500e+002 1.982586e+001 1.723308e+003
      vertex  1.174750e+003 1.982586e+001 1.723308e+003
      vertex  9.852500e+002 1.767742e+001 1.729567e+003
    endloop
  endfacet
  facet normal 0.000000e+000 -9.458306e-001 -3.246604e-001
    outer loop
      vertex  9.852500e+002 1.767742e+001 1.729567e+003
      vertex  1.174750e+003 1.982586e+001 1.723308e+003
      vertex  1.174750e+003 1.767742e+001 1.729567e+003
    endloop
  endfacet
  facet normal 0.000000e+000 -7.891088e-001 -6.142535e-001
    outer loop
      vertex  9.852500e+002 1.767742e+001 1.729567e+003
      vertex  1.174750e+003 1.767742e+001 1.729567e+003
      vertex  9.852500e+002 1.361336e+001 1.734788e+003
    endloop
  endfacet
  facet normal 0.000000e+000 -7.891088e-001 -6.142535e-001
    outer loop
      vertex  9.852500e+002 1.361336e+001 1.734788e+003
      vertex  1.174750e+003 1.767742e+001 1.729567e+003
      vertex  1.174750e+003 1.361336e+001 1.734788e+003
    endloop
  endfacet
  facet normal 0.000000e+000 -5.469508e-001 -8.371648e-001
    outer loop
      vertex  9.852500e+002 1.361336e+001 1.734788e+003
      vertex  1.174750e+003 1.361336e+001 1.734788e+003
      vertex  9.852500e+002 8.074078e+000 1.738407e+003
    endloop
  endfacet
  facet normal 0.000000e+000 -5.469508e-001 -8.371648e-001
    outer loop
      vertex  9.852500e+002 8.074078e+000 1.738407e+003
      vertex  1.174750e+003 1.361336e+001 1.734788e+003
      vertex  1.174750e+003 8.074078e+000 1.738407e+003
    endloop
  endfacet
  facet normal 0.000000e+000 -2.454456e-001 -9.694104e-001
    outer loop
      vertex  9.852500e+002 8.074078e+000 1.738407e+003
      vertex  1.174750e+003 8.074078e+000 1.738407e+003
      vertex  9.852500e+002 1.659845e+000 1.740031e+003
    endloop
  endfacet
  facet normal 0.000000e+000 -2.454456e-001 -9.694104e-001
    outer loop
      vertex  9.852500e+002 1.659845e+000 1.740031e+003
      vertex  1.174750e+003 8.074078e+000 1.738407e+003
      vertex  1.174750e+003 1.659845e+000 1.740031e+003
    endloop
  endfacet
  facet normal 0.000000e+000 8.252194e-002 -9.965892e-001
    outer loop
      vertex  9.852500e+002 1.659845e+000 1.740031e+003
      vertex  1.174750e+003 1.659845e+000 1.740031e+003
      vertex  9.852500e+002 -4.934258e+000 1.739485e+003
    endloop
  endfacet
  facet normal 0.000000e+000 8.252194e-002 -9.965892e-001
    outer loop
      vertex  9.852500e+002 -4.934258e+000 1.739485e+003
      vertex  1.174750e+003 1.659845e+000 1.740031e+003
      vertex  1.174750e+003 -4.934258e+000 1.739485e+003
    endloop
  endfacet
  facet normal 0.000000e+000 4.017029e-001 -9.157701e-001
    outer loop
      vertex  9.852500e+002 -4.934258e+000 1.739485e+003
      vertex  1.174750e+003 -4.934258e+000 1.739485e+003
      vertex  9.852500e+002 -1.099366e+001 1.736827e+003
    endloop
  endfacet
  facet normal 0.000000e+000 4.017029e-001 -9.157701e-001
    outer loop
      vertex  9.852500e+002 -1.099366e+001 1.736827e+003
      vertex  1.174750e+003 -4.934258e+000 1.739485e+003
      vertex  1.174750e+003 -1.099366e+001 1.736827e+003
    endloop
  endfacet
  facet normal 0.000000e+000 6.772582e-001 -7.357454e-001
    outer loop
      vertex  9.852500e+002 -1.099366e+001 1.736827e+003
      vertex  1.174750e+003 -1.099366e+001 1.736827e+003
      vertex  9.852500e+002 -1.586172e+001 1.732346e+003
    endloop
  endfacet
  facet normal 0.000000e+000 6.772582e-001 -7.357454e-001
    outer loop
      vertex  9.852500e+002 -1.586172e+001 1.732346e+003
      vertex  1.174750e+003 -1.099366e+001 1.736827e+003
      vertex  1.174750e+003 -1.586172e+001 1.732346e+003
    endloop
  endfacet
  facet normal 0.000000e+000 8.794983e-001 -4.759020e-001
    outer loop
      vertex  9.852500e+002 -1.586172e+001 1.732346e+003
      vertex  1.174750e+003 -1.586172e+001 1.732346e+003
      vertex  9.852500e+002 -1.901093e+001 1.726526e+003
    endloop
  endfacet
  facet normal 0.000000e+000 8.794983e-001 -4.759020e-001
    outer loop
      vertex  9.852500e+002 -1.901093e+001 1.726526e+003
      vertex  1.174750e+003 -1.586172e+001 1.732346e+003
      vertex  1.174750e+003 -1.901093e+001 1.726526e+003
    endloop
  endfacet
  facet normal 0.000000e+000 9.863595e-001 -1.646055e-001
    outer loop
      vertex  9.852500e+002 -1.901093e+001 1.726526e+003
      vertex  1.174750e+003 -1.901093e+001 1.726526e+003
      vertex  9.852500e+002 -2.010000e+001 1.720000e+003
    endloop
  endfacet
  facet normal 0.000000e+000 9.863595e-001 -1.646055e-001
    outer loop
      vertex  9.852500e+002 -2.010000e+001 1.720000e+003
      vertex  1.174750e+003 -1.901093e+001 1.726526e+003
      vertex  1.174750e+003 -2.010000e+001 1.720000e+003
    endloop
  endfacet
  facet normal -0.000000e+000 9.863595e-001 1.646055e-001
    outer loop
      vertex  9.852500e+002 -2.010000e+001 1.720000e+003
      vertex  1.174750e+003 -2.010000e+001 1.720000e+003
      vertex  9.852500e+002 -1.901093e+001 1.713474e+003
    endloop
  endfacet
  facet normal -0.000000e+000 9.863595e-001 1.646055e-001
    outer loop
      vertex  9.852500e+002 -1.901093e+001 1.713474e+003
      vertex  1.174750e+003 -2.010000e+001 1.720000e+003
      vertex  1.174750e+003 -1.901093e+001 1.713474e+003
    endloop
  endfacet
  facet normal -0.000000e+000 3.087743e-001 9.511353e-001
    outer loop
      vertex  1.162750e+003 1.500000e+001 1.746036e+003
      vertex  1.162750e+003 1.296385e+001 1.746697e+003
      vertex  1.174750e+003 1.500000e+001 1.746036e+003
    endloop
  endfacet
  facet normal 0.000000e+000 3.087743e-001 9.511353e-001
    outer loop
      vertex  1.174750e+003 1.500000e+001 1.746036e+003
      vertex  1.162750e+003 1.296385e+001 1.746697e+003
      vertex  1.174750e+003 1.296385e+001 1.746697e+003
    endloop
  endfacet
  facet normal -0.000000e+000 8.091748e-001 5.875679e-001
    outer loop
      vertex  1.162750e+003 1.296385e+001 1.746697e+003
      vertex  1.162750e+003 1.170544e+001 1.748430e+003
      vertex  1.174750e+003 1.296385e+001 1.746697e+003
    endloop
  endfacet
  facet normal 0.000000e+000 8.091748e-001 5.875679e-001
    outer loop
      vertex  1.174750e+003 1.296385e+001 1.746697e+003
      vertex  1.162750e+003 1.170544e+001 1.748430e+003
      vertex  1.174750e+003 1.170544e+001 1.748430e+003
    endloop
  endfacet
  facet normal 0.000000e+000 1.000000e+000 0.000000e+000
    outer loop
      vertex  1.162750e+003 1.170544e+001 1.748430e+003
      vertex  1.162750e+003 1.170544e+001 1.750570e+003
      vertex  1.174750e+003 1.170544e+001 1.748430e+003
    endloop
  endfacet
  facet normal 0.000000e+000 1.000000e+000 -0.000000e+000
    outer loop
      vertex  1.174750e+003 1.170544e+001 1.748430e+003
      vertex  1.162750e+003 1.170544e+001 1.750570e+003
      vertex  1.174750e+003 1.170544e+001 1.750570e+003
    endloop
  endfacet
  facet normal 0.000000e+000 8.090174e-001 -5.877848e-001
    outer loop
      vertex  1.162750e+003 1.170544e+001 1.750570e+003
      vertex  1.162750e+003 1.296385e+001 1.752302e+003
      vertex  1.174750e+003 1.170544e+001 1.750570e+003
    endloop
  endfacet
  facet normal 0.000000e+000 8.090174e-001 -5.877848e-001
    outer loop
      vertex  1.174750e+003 1.170544e+001 1.750570e+003
      vertex  1.162750e+003 1.296385e+001 1.752302e+003
      vertex  1.174750e+003 1.296385e+001 1.752302e+003
    endloop
  endfacet
  facet normal 0.000000e+000 3.091868e-001 -9.510013e-001
    outer loop
      vertex  1.162750e+003 1.296385e+001 1.752302e+003
      vertex  1.162750e+003 1.500000e+001 1.752964e+003
      vertex  1.174750e+003 1.296385e+001 1.752302e+003
    endloop
  endfacet
  facet normal 0.000000e+000 3.091868e-001 -9.510013e-001
    outer loop
      vertex  1.174750e+003 1.296385e+001 1.752302e+003
      vertex  1.162750e+003 1.500000e+001 1.752964e+003
      vertex  1.174750e+003 1.500000e+001 1.752964e+003
    endloop
  endfacet
  facet normal 0.000000e+000 -3.091868e-001 -9.510013e-001
    outer loop
      vertex  1.162750e+003 1.500000e+001 1.752964e+003
      vertex  1.162750e+003 1.703615e+001 1.752302e+003
      vertex  1.174750e+003 1.500000e+001 1.752964e+003
    endloop
  endfacet
  facet normal 0.000000e+000 -3.091868e-001 -9.510013e-001
    outer loop
      vertex  1.174750e+003 1.500000e+001 1.752964e+003
      vertex  1.162750e+003 1.703615e+001 1.752302e+003
      vertex  1.174750e+003 1.703615e+001 1.752302e+003
    endloop
  endfacet
  facet normal 0.000000e+000 -8.090176e-001 -5.877845e-001
    outer loop
      vertex  1.162750e+003 1.703615e+001 1.752302e+003
      vertex  1.162750e+003 1.829456e+001 1.750570e+003
      vertex  1.174750e+003 1.703615e+001 1.752302e+003
    endloop
  endfacet
  facet normal 0.000000e+000 -8.090176e-001 -5.877845e-001
    outer loop
      vertex  1.174750e+003 1.703615e+001 1.752302e+003
      vertex  1.162750e+003 1.829456e+001 1.750570e+003
      vertex  1.174750e+003 1.829456e+001 1.750570e+003
    endloop
  endfacet
  facet normal 0.000000e+000 -1.000000e+000 0.000000e+000
    outer loop
      vertex  1.162750e+003 1.829456e+001 1.750570e+003
      vertex  1.162750e+003 1.829456e+001 1.748430e+003
      vertex  1.174750e+003 1.829456e+001 1.750570e+003
    endloop
  endfacet
  facet normal 0.000000e+000 -1.000000e+000 -0.000000e+000
    outer loop
      vertex  1.174750e+003 1.829456e+001 1.750570e+003
      vertex  1.162750e+003 1.829456e+001 1.748430e+003
      vertex  1.174750e+003 1.829456e+001 1.748430e+003
    endloop
  endfacet
  facet normal 0.000000e+000 -8.091751e-001 5.875676e-001
    outer loop
      vertex  1.162750e+003 1.829456e+001 1.748430e+003
      vertex  1.162750e+003 1.703615e+001 1.746697e+003
      vertex  1.174750e+003 1.829456e+001 1.748430e+003
    endloop
  endfacet
  facet normal 0.000000e+000 -8.091751e-001 5.875676e-001
    outer loop
      vertex  1.174750e+003 1.829456e+001 1.748430e+003
      vertex  1.162750e+003 1.703615e+001 1.746697e+003
      vertex  1.174750e+003 1.703615e+001 1.746697e+003
    endloop
  endfacet
  facet normal 0.000000e+000 -3.087743e-001 9.511353e-001
    outer loop
      vertex  1.162750e+003 1.703615e+001 1.746697e+003
      vertex  1.162750e+003 1.500000e+001 1.746036e+003
      vertex  1.174750e+003 1.703615e+001 1.746697e+003
    endloop
  endfacet
  facet normal 0.000000e+000 -3.087743e-001 9.511353e-001
    outer loop
      vertex  1.174750e+003 1.703615e+001 1.746697e+003
      vertex  1.162750e+003 1.500000e+001 1.746036e+003
      vertex  1.174750e+003 1.500000e+001 1.746036e+003
    endloop
  endfacet
  facet normal 1.000000e+000 -0.000000e+000 0.000000e+000
    outer loop
      vertex  1.162750e+003 1.296385e+001 1.752302e+003
      vertex  1.162750e+003 1.170544e+001 1.750570e+003
      vertex  1.162750e+003 1.500000e+001 1.752964e+003
    endloop
  endfacet
  facet normal 1.000000e+000 0.000000e+000 0.000000e+000
    outer loop
      vertex  1.162750e+003 1.500000e+001 1.752964e+003
      vertex  1.162750e+003 1.170544e+001 1.750570e+003
      vertex  1.162750e+003 1.170544e+001 1.748430e+003
    endloop
  endfacet
  facet normal 1.000000e+000 0.000000e+000 0.000000e+000
    outer loop
      vertex  1.162750e+003 1.500000e+001 1.752964e+003
      vertex  1.162750e+003 1.170544e+001 1.748430e+003
      vertex  1.162750e+003 1.703615e+001 1.752302e+003
    endloop
  endfacet
  facet normal 1.000000e+000 0.000000e+000 0.000000e+000
    outer loop
      vertex  1.162750e+003 1.703615e+001 1.752302e+003
      vertex  1.162750e+003 1.170544e+001 1.748430e+003
      vertex  1.162750e+003 1.296385e+001 1.746697e+003
    endloop
  endfacet
  facet normal 1.000000e+000 0.000000e+000 0.000000e+000
    outer loop
      vertex  1.162750e+003 1.703615e+001 1.752302e+003
      vertex  1.162750e+003 1.296385e+001 1.746697e+003
      vertex  1.162750e+003 1.829456e+001 1.750570e+003
    endloop
  endfacet
  facet normal 1.000000e+000 0.000000e+000 0.000000e+000
    outer loop
      vertex  1.162750e+003 1.829456e+001 1.750570e+003
      vertex  1.162750e+003 1.296385e+001 1.746697e+003
      vertex  1.162750e+003 1.500000e+001 1.746036e+003
    endloop
  endfacet
  facet normal 1.000000e+000 0.000000e+000 0.000000e+000
    outer loop
      vertex  1.162750e+003 1.829456e+001 1.750570e+003
      vertex  1.162750e+003 1.500000e+001 1.746036e+003
      vertex  1.162750e+003 1.829456e+001 1.748430e+003
    endloop
  endfacet
  facet normal 1.000000e+000 0.000000e+000 0.000000e+000
    outer loop
      vertex  1.162750e+003 1.829456e+001 1.748430e+003
      vertex  1.162750e+003 1.500000e+001 1.746036e+003
      vertex  1.162750e+003 1.703615e+001 1.746697e+003
    endloop
  endfacet
  facet normal -7.072442e-007 8.090174e-001 -5.877848e-001
    outer loop
      vertex  1.162750e+003 1.170544e+001 1.691570e+003
      vertex  1.162750e+003 1.296385e+001 1.693302e+003
      vertex  1.174750e+003 1.170545e+001 1.691570e+003
    endloop
  endfacet
  facet normal 0.000000e+000 8.090197e-001 -5.877815e-001
    outer loop
      vertex  1.174750e+003 1.170545e+001 1.691570e+003
      vertex  1.162750e+003 1.296385e+001 1.693302e+003
      vertex  1.174750e+003 1.296385e+001 1.693302e+003
    endloop
  endfacet
  facet normal 0.000000e+000 3.091868e-001 -9.510013e-001
    outer loop
      vertex  1.162750e+003 1.296385e+001 1.693302e+003
      vertex  1.162750e+003 1.500000e+001 1.693964e+003
      vertex  1.174750e+003 1.296385e+001 1.693302e+003
    endloop
  endfacet
  facet normal 0.000000e+000 3.091868e-001 -9.510013e-001
    outer loop
      vertex  1.174750e+003 1.296385e+001 1.693302e+003
      vertex  1.162750e+003 1.500000e+001 1.693964e+003
      vertex  1.174750e+003 1.500000e+001 1.693964e+003
    endloop
  endfacet
  facet normal 0.000000e+000 -3.091868e-001 -9.510013e-001
    outer loop
      vertex  1.162750e+003 1.500000e+001 1.693964e+003
      vertex  1.162750e+003 1.703615e+001 1.693302e+003
      vertex  1.174750e+003 1.500000e+001 1.693964e+003
    endloop
  endfacet
  facet normal 0.000000e+000 -3.091868e-001 -9.510013e-001
    outer loop
      vertex  1.174750e+003 1.500000e+001 1.693964e+003
      vertex  1.162750e+003 1.703615e+001 1.693302e+003
      vertex  1.174750e+003 1.703615e+001 1.693302e+003
    endloop
  endfacet
  facet normal 0.000000e+000 -8.090176e-001 -5.877845e-001
    outer loop
      vertex  1.162750e+003 1.703615e+001 1.693302e+003
      vertex  1.162750e+003 1.829456e+001 1.691570e+003
      vertex  1.174750e+003 1.703615e+001 1.693302e+003
    endloop
  endfacet
  facet normal 0.000000e+000 -8.090176e-001 -5.877845e-001
    outer loop
      vertex  1.174750e+003 1.703615e+001 1.693302e+003
      vertex  1.162750e+003 1.829456e+001 1.691570e+003
      vertex  1.174750e+003 1.829456e+001 1.691570e+003
    endloop
  endfacet
  facet normal 0.000000e+000 -1.000000e+000 0.000000e+000
    outer loop
      vertex  1.162750e+003 1.829456e+001 1.691570e+003
      vertex  1.162750e+003 1.829456e+001 1.689430e+003
      vertex  1.174750e+003 1.829456e+001 1.691570e+003
    endloop
  endfacet
  facet normal 0.000000e+000 -1.000000e+000 -0.000000e+000
    outer loop
      vertex  1.174750e+003 1.829456e+001 1.691570e+003
      vertex  1.162750e+003 1.829456e+001 1.689430e+003
      vertex  1.174750e+003 1.829456e+001 1.689430e+003
    endloop
  endfacet
  facet normal 0.000000e+000 -8.091751e-001 5.875676e-001
    outer loop
      vertex  1.162750e+003 1.829456e+001 1.689430e+003
      vertex  1.162750e+003 1.703615e+001 1.687697e+003
      vertex  1.174750e+003 1.829456e+001 1.689430e+003
    endloop
  endfacet
  facet normal 0.000000e+000 -8.091751e-001 5.875676e-001
    outer loop
      vertex  1.174750e+003 1.829456e+001 1.689430e+003
      vertex  1.162750e+003 1.703615e+001 1.687697e+003
      vertex  1.174750e+003 1.703615e+001 1.687697e+003
    endloop
  endfacet
  facet normal 0.000000e+000 -3.087743e-001 9.511353e-001
    outer loop
      vertex  1.162750e+003 1.703615e+001 1.687697e+003
      vertex  1.162750e+003 1.500000e+001 1.687036e+003
      vertex  1.174750e+003 1.703615e+001 1.687697e+003
    endloop
  endfacet
  facet normal 0.000000e+000 -3.087743e-001 9.511353e-001
    outer loop
      vertex  1.174750e+003 1.703615e+001 1.687697e+003
      vertex  1.162750e+003 1.500000e+001 1.687036e+003
      vertex  1.174750e+003 1.500000e+001 1.687036e+003
    endloop
  endfacet
  facet normal -0.000000e+000 3.087743e-001 9.511353e-001
    outer loop
      vertex  1.162750e+003 1.500000e+001 1.687036e+003
      vertex  1.162750e+003 1.296385e+001 1.687697e+003
      vertex  1.174750e+003 1.500000e+001 1.687036e+003
    endloop
  endfacet
  facet normal 0.000000e+000 3.087743e-001 9.511353e-001
    outer loop
      vertex  1.174750e+003 1.500000e+001 1.687036e+003
      vertex  1.162750e+003 1.296385e+001 1.687697e+003
      vertex  1.174750e+003 1.296385e+001 1.687697e+003
    endloop
  endfacet
  facet normal -0.000000e+000 8.091748e-001 5.875679e-001
    outer loop
      vertex  1.162750e+003 1.296385e+001 1.687697e+003
      vertex  1.162750e+003 1.170544e+001 1.689430e+003
      vertex  1.174750e+003 1.296385e+001 1.687697e+003
    endloop
  endfacet
  facet normal 0.000000e+000 8.091748e-001 5.875679e-001
    outer loop
      vertex  1.174750e+003 1.296385e+001 1.687697e+003
      vertex  1.162750e+003 1.170544e+001 1.689430e+003
      vertex  1.174750e+003 1.170544e+001 1.689430e+003
    endloop
  endfacet
  facet normal 0.000000e+000 1.000000e+000 0.000000e+000
    outer loop
      vertex  1.162750e+003 1.170544e+001 1.689430e+003
      vertex  1.162750e+003 1.170544e+001 1.691570e+003
      vertex  1.174750e+003 1.170544e+001 1.689430e+003
    endloop
  endfacet
  facet normal 0.000000e+000 1.000000e+000 -0.000000e+000
    outer loop
      vertex  1.174750e+003 1.170544e+001 1.689430e+003
      vertex  1.162750e+003 1.170544e+001 1.691570e+003
      vertex  1.174750e+003 1.170544e+001 1.691570e+003
    endloop
  endfacet
  facet normal 1.000000e+000 -0.000000e+000 -0.000000e+000
    outer loop
      vertex  1.162750e+003 1.296385e+001 1.687697e+003
      vertex  1.162750e+003 1.500000e+001 1.687036e+003
      vertex  1.162750e+003 1.170544e+001 1.689430e+003
    endloop
  endfacet
  facet normal 1.000000e+000 0.000000e+000 0.000000e+000
    outer loop
      vertex  1.162750e+003 1.170544e+001 1.689430e+003
      vertex  1.162750e+003 1.500000e+001 1.687036e+003
      vertex  1.162750e+003 1.703615e+001 1.687697e+003
    endloop
  endfacet
  facet normal 1.000000e+000 -0.000000e+000 0.000000e+000
    outer loop
      vertex  1.162750e+003 1.170544e+001 1.689430e+003
      vertex  1.162750e+003 1.703615e+001 1.687697e+003
      vertex  1.162750e+003 1.170544e+001 1.691570e+003
    endloop
  endfacet
  facet normal 1.000000e+000 0.000000e+000 0.000000e+000
    outer loop
      vertex  1.162750e+003 1.170544e+001 1.691570e+003
      vertex  1.162750e+003 1.703615e+001 1.687697e+003
      vertex  1.162750e+003 1.829456e+001 1.689430e+003
    endloop
  endfacet
  facet normal 1.000000e+000 -0.000000e+000 0.000000e+000
    outer loop
      vertex  1.162750e+003 1.170544e+001 1.691570e+003
      vertex  1.162750e+003 1.829456e+001 1.689430e+003
      vertex  1.162750e+003 1.296385e+001 1.693302e+003
    endloop
  endfacet
  facet normal 1.000000e+000 0.000000e+000 0.000000e+000
    outer loop
      vertex  1.162750e+003 1.296385e+001 1.693302e+003
      vertex  1.162750e+003 1.829456e+001 1.689430e+003
      vertex  1.162750e+003 1.829456e+001 1.691570e+003
    endloop
  endfacet
  facet normal 1.000000e+000 -0.000000e+000 0.000000e+000
    outer loop
      vertex  1.162750e+003 1.296385e+001 1.693302e+003
      vertex  1.162750e+003 1.829456e+001 1.691570e+003
      vertex  1.162750e+003 1.500000e+001 1.693964e+003
    endloop
  endfacet
  facet normal 1.000000e+000 0.000000e+000 0.000000e+000
    outer loop
      vertex  1.162750e+003 1.500000e+001 1.693964e+003
      vertex  1.162750e+003 1.829456e+001 1.691570e+003
      vertex  1.162750e+003 1.703615e+001 1.693302e+003
    endloop
  endfacet
endsolid vcg
