solid Created by stlwrite.m 01-Jan-2014 21:15:20
facet normal 0.0000000E+00 -0.0000000E+00 9.9999994E-01
outer loop
vertex 3.2302000E-02 -1.2963850E-02 9.4750002E-02
vertex 3.5000000E-02 3.1250000E-02 9.4750002E-02
vertex 3.0570000E-02 -1.1705440E-02 9.4750002E-02
endloop
endfacet
facet normal 0.0000000E+00 -0.0000000E+00 1.0000000E+00
outer loop
vertex 3.0570000E-02 -1.1705440E-02 9.4750002E-02
vertex 3.5000000E-02 3.1250000E-02 9.4750002E-02
vertex 1.6827000E-02 1.0993660E-02 9.4750002E-02
endloop
endfacet
facet normal 0.0000000E+00 0.0000000E+00 9.9999994E-01
outer loop
vertex 3.0570000E-02 -1.1705440E-02 9.4750002E-02
vertex 1.6827000E-02 1.0993660E-02 9.4750002E-02
vertex 2.8430000E-02 -1.1705440E-02 9.4750002E-02
endloop
endfacet
facet normal 0.0000000E+00 0.0000000E+00 1.0000000E+00
outer loop
vertex 2.8430000E-02 -1.1705440E-02 9.4750002E-02
vertex 1.6827000E-02 1.0993660E-02 9.4750002E-02
vertex 1.9485001E-02 4.9342578E-03 9.4750002E-02
endloop
endfacet
facet normal 0.0000000E+00 0.0000000E+00 1.0000000E+00
outer loop
vertex 2.8430000E-02 -1.1705440E-02 9.4750002E-02
vertex 1.9485001E-02 4.9342578E-03 9.4750002E-02
vertex 2.6697000E-02 -1.2963850E-02 9.4750002E-02
endloop
endfacet
facet normal 0.0000000E+00 0.0000000E+00 1.0000000E+00
outer loop
vertex 2.6697000E-02 -1.2963850E-02 9.4750002E-02
vertex 1.9485001E-02 4.9342578E-03 9.4750002E-02
vertex 2.0031000E-02 -1.6598450E-03 9.4750002E-02
endloop
endfacet
facet normal 0.0000000E+00 0.0000000E+00 1.0000000E+00
outer loop
vertex 2.6697000E-02 -1.2963850E-02 9.4750002E-02
vertex 2.0031000E-02 -1.6598450E-03 9.4750002E-02
vertex 1.8407000E-02 -8.0740778E-03 9.4750002E-02
endloop
endfacet
facet normal 0.0000000E+00 -0.0000000E+00 1.0000000E+00
outer loop
vertex -1.6827000E-02 1.0993660E-02 9.4750002E-02
vertex -1.2346000E-02 1.5861720E-02 9.4750002E-02
vertex -3.5000000E-02 3.1250000E-02 9.4750002E-02
endloop
endfacet
facet normal 0.0000000E+00 0.0000000E+00 1.0000000E+00
outer loop
vertex -3.5000000E-02 3.1250000E-02 9.4750002E-02
vertex -1.2346000E-02 1.5861720E-02 9.4750002E-02
vertex -6.5259999E-03 1.9010929E-02 9.4750002E-02
endloop
endfacet
facet normal -0.0000000E+00 0.0000000E+00 1.0000000E+00
outer loop
vertex -3.5000000E-02 3.1250000E-02 9.4750002E-02
vertex -6.5259999E-03 1.9010929E-02 9.4750002E-02
vertex 3.5000000E-02 3.1250000E-02 9.4750002E-02
endloop
endfacet
facet normal 0.0000000E+00 0.0000000E+00 1.0000000E+00
outer loop
vertex 3.5000000E-02 3.1250000E-02 9.4750002E-02
vertex -6.5259999E-03 1.9010929E-02 9.4750002E-02
vertex 0.0000000E+00 2.0099999E-02 9.4750002E-02
endloop
endfacet
facet normal 0.0000000E+00 0.0000000E+00 9.9999994E-01
outer loop
vertex 3.5000000E-02 3.1250000E-02 9.4750002E-02
vertex 0.0000000E+00 2.0099999E-02 9.4750002E-02
vertex 6.5259999E-03 1.9010929E-02 9.4750002E-02
endloop
endfacet
facet normal 0.0000000E+00 -0.0000000E+00 9.9999994E-01
outer loop
vertex -3.2303002E-02 -1.2963850E-02 9.4750002E-02
vertex -2.0031000E-02 -1.6598450E-03 9.4750002E-02
vertex -3.5000000E-02 3.1250000E-02 9.4750002E-02
endloop
endfacet
facet normal 0.0000000E+00 0.0000000E+00 9.9999994E-01
outer loop
vertex -3.5000000E-02 3.1250000E-02 9.4750002E-02
vertex -2.0031000E-02 -1.6598450E-03 9.4750002E-02
vertex -1.9485001E-02 4.9342578E-03 9.4750002E-02
endloop
endfacet
facet normal 0.0000000E+00 0.0000000E+00 1.0000000E+00
outer loop
vertex -3.5000000E-02 3.1250000E-02 9.4750002E-02
vertex -1.9485001E-02 4.9342578E-03 9.4750002E-02
vertex -1.6827000E-02 1.0993660E-02 9.4750002E-02
endloop
endfacet
facet normal 0.0000000E+00 0.0000000E+00 1.0000000E+00
outer loop
vertex -2.6698001E-02 -1.7036149E-02 9.4750002E-02
vertex -2.8430000E-02 -1.8294560E-02 9.4750002E-02
vertex -3.3080000E-03 -1.9825861E-02 9.4750002E-02
endloop
endfacet
facet normal 0.0000000E+00 0.0000000E+00 1.0000000E+00
outer loop
vertex -3.3080000E-03 -1.9825861E-02 9.4750002E-02
vertex -2.8430000E-02 -1.8294560E-02 9.4750002E-02
vertex -3.5000000E-02 -3.1250000E-02 9.4750002E-02
endloop
endfacet
facet normal -0.0000000E+00 0.0000000E+00 1.0000000E+00
outer loop
vertex -3.3080000E-03 -1.9825861E-02 9.4750002E-02
vertex -3.5000000E-02 -3.1250000E-02 9.4750002E-02
vertex 3.3080000E-03 -1.9825861E-02 9.4750002E-02
endloop
endfacet
facet normal -0.0000000E+00 0.0000000E+00 1.0000000E+00
outer loop
vertex 3.3080000E-03 -1.9825861E-02 9.4750002E-02
vertex -3.5000000E-02 -3.1250000E-02 9.4750002E-02
vertex 2.6697000E-02 -1.7036149E-02 9.4750002E-02
endloop
endfacet
facet normal 0.0000000E+00 0.0000000E+00 1.0000000E+00
outer loop
vertex 3.3080000E-03 -1.9825861E-02 9.4750002E-02
vertex 2.6697000E-02 -1.7036149E-02 9.4750002E-02
vertex 9.5670000E-03 -1.7677421E-02 9.4750002E-02
endloop
endfacet
facet normal 0.0000000E+00 0.0000000E+00 1.0000000E+00
outer loop
vertex 9.5670000E-03 -1.7677421E-02 9.4750002E-02
vertex 2.6697000E-02 -1.7036149E-02 9.4750002E-02
vertex 2.6036000E-02 -1.5000000E-02 9.4750002E-02
endloop
endfacet
facet normal 0.0000000E+00 0.0000000E+00 1.0000000E+00
outer loop
vertex 9.5670000E-03 -1.7677421E-02 9.4750002E-02
vertex 2.6036000E-02 -1.5000000E-02 9.4750002E-02
vertex 1.4788000E-02 -1.3613360E-02 9.4750002E-02
endloop
endfacet
facet normal -0.0000000E+00 0.0000000E+00 1.0000000E+00
outer loop
vertex 1.4788000E-02 -1.3613360E-02 9.4750002E-02
vertex 2.6036000E-02 -1.5000000E-02 9.4750002E-02
vertex 1.8407000E-02 -8.0740778E-03 9.4750002E-02
endloop
endfacet
facet normal -0.0000000E+00 0.0000000E+00 1.0000000E+00
outer loop
vertex 6.5259999E-03 1.9010929E-02 9.4750002E-02
vertex 1.2346000E-02 1.5861720E-02 9.4750002E-02
vertex 3.5000000E-02 3.1250000E-02 9.4750002E-02
endloop
endfacet
facet normal 0.0000000E+00 0.0000000E+00 1.0000000E+00
outer loop
vertex 3.5000000E-02 3.1250000E-02 9.4750002E-02
vertex 1.2346000E-02 1.5861720E-02 9.4750002E-02
vertex 1.6827000E-02 1.0993660E-02 9.4750002E-02
endloop
endfacet
facet normal 0.0000000E+00 0.0000000E+00 1.0000000E+00
outer loop
vertex -2.8430000E-02 -1.8294560E-02 9.4750002E-02
vertex -3.0570000E-02 -1.8294560E-02 9.4750002E-02
vertex -3.5000000E-02 -3.1250000E-02 9.4750002E-02
endloop
endfacet
facet normal 0.0000000E+00 0.0000000E+00 1.0000000E+00
outer loop
vertex -3.5000000E-02 -3.1250000E-02 9.4750002E-02
vertex -3.0570000E-02 -1.8294560E-02 9.4750002E-02
vertex -3.2303002E-02 -1.7036149E-02 9.4750002E-02
endloop
endfacet
facet normal 0.0000000E+00 0.0000000E+00 1.0000000E+00
outer loop
vertex -3.5000000E-02 -3.1250000E-02 9.4750002E-02
vertex -3.2303002E-02 -1.7036149E-02 9.4750002E-02
vertex -3.2963999E-02 -1.5000000E-02 9.4750002E-02
endloop
endfacet
facet normal 0.0000000E+00 0.0000000E+00 1.0000000E+00
outer loop
vertex -3.2303002E-02 -1.2963850E-02 9.4750002E-02
vertex -3.5000000E-02 3.1250000E-02 9.4750002E-02
vertex -3.2963999E-02 -1.5000000E-02 9.4750002E-02
endloop
endfacet
facet normal 0.0000000E+00 0.0000000E+00 1.0000000E+00
outer loop
vertex -3.2963999E-02 -1.5000000E-02 9.4750002E-02
vertex -3.5000000E-02 3.1250000E-02 9.4750002E-02
vertex -3.5000000E-02 -3.1250000E-02 9.4750002E-02
endloop
endfacet
facet normal 0.0000000E+00 0.0000000E+00 1.0000000E+00
outer loop
vertex 2.6697000E-02 -1.7036149E-02 9.4750002E-02
vertex -3.5000000E-02 -3.1250000E-02 9.4750002E-02
vertex 2.8430000E-02 -1.8294560E-02 9.4750002E-02
endloop
endfacet
facet normal 0.0000000E+00 0.0000000E+00 1.0000000E+00
outer loop
vertex 2.8430000E-02 -1.8294560E-02 9.4750002E-02
vertex -3.5000000E-02 -3.1250000E-02 9.4750002E-02
vertex 3.5000000E-02 -3.1250000E-02 9.4750002E-02
endloop
endfacet
facet normal -0.0000000E+00 0.0000000E+00 1.0000000E+00
outer loop
vertex 2.8430000E-02 -1.8294560E-02 9.4750002E-02
vertex 3.5000000E-02 -3.1250000E-02 9.4750002E-02
vertex 3.0570000E-02 -1.8294560E-02 9.4750002E-02
endloop
endfacet
facet normal -0.0000000E+00 0.0000000E+00 1.0000000E+00
outer loop
vertex 3.0570000E-02 -1.8294560E-02 9.4750002E-02
vertex 3.5000000E-02 -3.1250000E-02 9.4750002E-02
vertex 3.2302000E-02 -1.7036149E-02 9.4750002E-02
endloop
endfacet
facet normal 0.0000000E+00 0.0000000E+00 9.9999994E-01
outer loop
vertex -2.8430000E-02 -1.1705440E-02 9.4750002E-02
vertex -2.6698001E-02 -1.2963850E-02 9.4750002E-02
vertex -3.3080000E-03 -1.9825861E-02 9.4750002E-02
endloop
endfacet
facet normal 0.0000000E+00 0.0000000E+00 1.0000000E+00
outer loop
vertex -3.3080000E-03 -1.9825861E-02 9.4750002E-02
vertex -2.6698001E-02 -1.2963850E-02 9.4750002E-02
vertex -2.6036000E-02 -1.5000000E-02 9.4750002E-02
endloop
endfacet
facet normal 0.0000000E+00 0.0000000E+00 9.9999994E-01
outer loop
vertex -3.3080000E-03 -1.9825861E-02 9.4750002E-02
vertex -2.6036000E-02 -1.5000000E-02 9.4750002E-02
vertex -2.6698001E-02 -1.7036149E-02 9.4750002E-02
endloop
endfacet
facet normal 0.0000000E+00 0.0000000E+00 1.0000000E+00
outer loop
vertex -9.5670000E-03 -1.7677421E-02 9.4750002E-02
vertex -1.4788000E-02 -1.3613360E-02 9.4750002E-02
vertex -2.8430000E-02 -1.1705440E-02 9.4750002E-02
endloop
endfacet
facet normal -0.0000000E+00 0.0000000E+00 1.0000000E+00
outer loop
vertex -2.8430000E-02 -1.1705440E-02 9.4750002E-02
vertex -1.4788000E-02 -1.3613360E-02 9.4750002E-02
vertex -1.8407000E-02 -8.0740778E-03 9.4750002E-02
endloop
endfacet
facet normal 0.0000000E+00 -0.0000000E+00 9.9999994E-01
outer loop
vertex -2.8430000E-02 -1.1705440E-02 9.4750002E-02
vertex -1.8407000E-02 -8.0740778E-03 9.4750002E-02
vertex -3.0570000E-02 -1.1705440E-02 9.4750002E-02
endloop
endfacet
facet normal 0.0000000E+00 0.0000000E+00 1.0000000E+00
outer loop
vertex -3.0570000E-02 -1.1705440E-02 9.4750002E-02
vertex -1.8407000E-02 -8.0740778E-03 9.4750002E-02
vertex -2.0031000E-02 -1.6598450E-03 9.4750002E-02
endloop
endfacet
facet normal 0.0000000E+00 -0.0000000E+00 1.0000000E+00
outer loop
vertex -3.0570000E-02 -1.1705440E-02 9.4750002E-02
vertex -2.0031000E-02 -1.6598450E-03 9.4750002E-02
vertex -3.2303002E-02 -1.2963850E-02 9.4750002E-02
endloop
endfacet
facet normal -0.0000000E+00 0.0000000E+00 9.9999994E-01
outer loop
vertex 3.2302000E-02 -1.7036149E-02 9.4750002E-02
vertex 3.5000000E-02 -3.1250000E-02 9.4750002E-02
vertex 3.2963999E-02 -1.5000000E-02 9.4750002E-02
endloop
endfacet
facet normal -0.0000000E+00 0.0000000E+00 1.0000000E+00
outer loop
vertex 3.2963999E-02 -1.5000000E-02 9.4750002E-02
vertex 3.5000000E-02 -3.1250000E-02 9.4750002E-02
vertex 3.5000000E-02 3.1250000E-02 9.4750002E-02
endloop
endfacet
facet normal 0.0000000E+00 -0.0000000E+00 1.0000000E+00
outer loop
vertex 3.2963999E-02 -1.5000000E-02 9.4750002E-02
vertex 3.5000000E-02 3.1250000E-02 9.4750002E-02
vertex 3.2302000E-02 -1.2963850E-02 9.4750002E-02
endloop
endfacet
facet normal 0.0000000E+00 -0.0000000E+00 1.0000000E+00
outer loop
vertex 2.6036000E-02 -1.5000000E-02 9.4750002E-02
vertex 2.6697000E-02 -1.2963850E-02 9.4750002E-02
vertex 1.8407000E-02 -8.0740778E-03 9.4750002E-02
endloop
endfacet
facet normal 0.0000000E+00 0.0000000E+00 1.0000000E+00
outer loop
vertex -2.8430000E-02 -1.1705440E-02 9.4750002E-02
vertex -3.3080000E-03 -1.9825861E-02 9.4750002E-02
vertex -9.5670000E-03 -1.7677421E-02 9.4750002E-02
endloop
endfacet
facet normal -0.0000000E+00 0.0000000E+00 1.0000000E+00
outer loop
vertex 3.9999999E-02 -3.1250000E-02 7.5000003E-02
vertex 4.3301001E-02 -3.3250000E-02 7.5000003E-02
vertex 3.9999999E-02 3.1250000E-02 7.5000003E-02
endloop
endfacet
facet normal -0.0000000E+00 0.0000000E+00 1.0000000E+00
outer loop
vertex 3.9999999E-02 3.1250000E-02 7.5000003E-02
vertex 4.3301001E-02 -3.3250000E-02 7.5000003E-02
vertex 4.3301001E-02 3.3250000E-02 7.5000003E-02
endloop
endfacet
facet normal 0.0000000E+00 -0.0000000E+00 1.0000000E+00
outer loop
vertex 3.9999999E-02 3.1250000E-02 7.5000003E-02
vertex 4.3301001E-02 3.3250000E-02 7.5000003E-02
vertex -3.9999999E-02 3.1250000E-02 7.5000003E-02
endloop
endfacet
facet normal 0.0000000E+00 -0.0000000E+00 1.0000000E+00
outer loop
vertex -3.9999999E-02 3.1250000E-02 7.5000003E-02
vertex 4.3301001E-02 3.3250000E-02 7.5000003E-02
vertex -4.3301001E-02 3.3250000E-02 7.5000003E-02
endloop
endfacet
facet normal 0.0000000E+00 0.0000000E+00 1.0000000E+00
outer loop
vertex -3.9999999E-02 3.1250000E-02 7.5000003E-02
vertex -4.3301001E-02 3.3250000E-02 7.5000003E-02
vertex -3.9999999E-02 -3.1250000E-02 7.5000003E-02
endloop
endfacet
facet normal 0.0000000E+00 0.0000000E+00 1.0000000E+00
outer loop
vertex -3.9999999E-02 -3.1250000E-02 7.5000003E-02
vertex -4.3301001E-02 3.3250000E-02 7.5000003E-02
vertex -4.3301001E-02 -3.3250000E-02 7.5000003E-02
endloop
endfacet
facet normal -0.0000000E+00 0.0000000E+00 1.0000000E+00
outer loop
vertex -3.9999999E-02 -3.1250000E-02 7.5000003E-02
vertex -4.3301001E-02 -3.3250000E-02 7.5000003E-02
vertex 3.9999999E-02 -3.1250000E-02 7.5000003E-02
endloop
endfacet
facet normal 0.0000000E+00 0.0000000E+00 1.0000000E+00
outer loop
vertex 3.9999999E-02 -3.1250000E-02 7.5000003E-02
vertex -4.3301001E-02 -3.3250000E-02 7.5000003E-02
vertex 4.3301001E-02 -3.3250000E-02 7.5000003E-02
endloop
endfacet
facet normal -0.0000000E+00 0.0000000E+00 -1.0000000E+00
outer loop
vertex -3.9999999E-02 -3.1250000E-02 -7.5000003E-02
vertex -4.3301001E-02 -3.3250000E-02 -7.5000003E-02
vertex -3.9999999E-02 3.1250000E-02 -7.5000003E-02
endloop
endfacet
facet normal -0.0000000E+00 0.0000000E+00 -1.0000000E+00
outer loop
vertex -3.9999999E-02 3.1250000E-02 -7.5000003E-02
vertex -4.3301001E-02 -3.3250000E-02 -7.5000003E-02
vertex -4.3301001E-02 3.3250000E-02 -7.5000003E-02
endloop
endfacet
facet normal 0.0000000E+00 0.0000000E+00 -1.0000000E+00
outer loop
vertex -3.9999999E-02 3.1250000E-02 -7.5000003E-02
vertex -4.3301001E-02 3.3250000E-02 -7.5000003E-02
vertex 3.9999999E-02 3.1250000E-02 -7.5000003E-02
endloop
endfacet
facet normal 0.0000000E+00 0.0000000E+00 -1.0000000E+00
outer loop
vertex 3.9999999E-02 3.1250000E-02 -7.5000003E-02
vertex -4.3301001E-02 3.3250000E-02 -7.5000003E-02
vertex 4.3301001E-02 3.3250000E-02 -7.5000003E-02
endloop
endfacet
facet normal 0.0000000E+00 0.0000000E+00 -1.0000000E+00
outer loop
vertex 3.9999999E-02 3.1250000E-02 -7.5000003E-02
vertex 4.3301001E-02 3.3250000E-02 -7.5000003E-02
vertex 3.9999999E-02 -3.1250000E-02 -7.5000003E-02
endloop
endfacet
facet normal 0.0000000E+00 0.0000000E+00 -1.0000000E+00
outer loop
vertex 3.9999999E-02 -3.1250000E-02 -7.5000003E-02
vertex 4.3301001E-02 3.3250000E-02 -7.5000003E-02
vertex 4.3301001E-02 -3.3250000E-02 -7.5000003E-02
endloop
endfacet
facet normal -0.0000000E+00 -0.0000000E+00 -1.0000000E+00
outer loop
vertex 3.9999999E-02 -3.1250000E-02 -7.5000003E-02
vertex 4.3301001E-02 -3.3250000E-02 -7.5000003E-02
vertex -3.9999999E-02 -3.1250000E-02 -7.5000003E-02
endloop
endfacet
facet normal 0.0000000E+00 -0.0000000E+00 -1.0000000E+00
outer loop
vertex -3.9999999E-02 -3.1250000E-02 -7.5000003E-02
vertex 4.3301001E-02 -3.3250000E-02 -7.5000003E-02
vertex -4.3301001E-02 -3.3250000E-02 -7.5000003E-02
endloop
endfacet
facet normal 8.6602253E-01 0.0000000E+00 -5.0000489E-01
outer loop
vertex 7.6603003E-02 -3.3250000E-02 -1.7320000E-02
vertex 4.3301001E-02 -3.3250000E-02 -7.5000003E-02
vertex 7.6603003E-02 3.3250000E-02 -1.7320000E-02
endloop
endfacet
facet normal 8.6602253E-01 0.0000000E+00 -5.0000489E-01
outer loop
vertex 7.6603003E-02 3.3250000E-02 -1.7320000E-02
vertex 4.3301001E-02 -3.3250000E-02 -7.5000003E-02
vertex 4.3301001E-02 3.3250000E-02 -7.5000003E-02
endloop
endfacet
facet normal 8.6601883E-01 0.0000000E+00 5.0001138E-01
outer loop
vertex 7.6603003E-02 3.3250000E-02 1.7321000E-02
vertex 4.3301001E-02 3.3250000E-02 7.5000003E-02
vertex 7.6603003E-02 -3.3250000E-02 1.7321000E-02
endloop
endfacet
facet normal 8.6601883E-01 0.0000000E+00 5.0001138E-01
outer loop
vertex 7.6603003E-02 -3.3250000E-02 1.7321000E-02
vertex 4.3301001E-02 3.3250000E-02 7.5000003E-02
vertex 4.3301001E-02 -3.3250000E-02 7.5000003E-02
endloop
endfacet
facet normal -8.6602253E-01 0.0000000E+00 5.0000489E-01
outer loop
vertex -7.6603003E-02 -3.3250000E-02 1.7320000E-02
vertex -4.3301001E-02 -3.3250000E-02 7.5000003E-02
vertex -7.6603003E-02 3.3250000E-02 1.7320000E-02
endloop
endfacet
facet normal -8.6602253E-01 0.0000000E+00 5.0000489E-01
outer loop
vertex -7.6603003E-02 3.3250000E-02 1.7320000E-02
vertex -4.3301001E-02 -3.3250000E-02 7.5000003E-02
vertex -4.3301001E-02 3.3250000E-02 7.5000003E-02
endloop
endfacet
facet normal -8.6602253E-01 -0.0000000E+00 -5.0000489E-01
outer loop
vertex -7.6603003E-02 3.3250000E-02 -1.7320000E-02
vertex -4.3301001E-02 3.3250000E-02 -7.5000003E-02
vertex -7.6603003E-02 -3.3250000E-02 -1.7320000E-02
endloop
endfacet
facet normal -8.6602253E-01 0.0000000E+00 -5.0000489E-01
outer loop
vertex -7.6603003E-02 -3.3250000E-02 -1.7320000E-02
vertex -4.3301001E-02 3.3250000E-02 -7.5000003E-02
vertex -4.3301001E-02 -3.3250000E-02 -7.5000003E-02
endloop
endfacet
facet normal 0.0000000E+00 -1.0000000E+00 0.0000000E+00
outer loop
vertex -7.6603003E-02 -3.3250000E-02 -1.7320000E-02
vertex -4.3301001E-02 -3.3250000E-02 -7.5000003E-02
vertex -7.6603003E-02 -3.3250000E-02 1.7320000E-02
endloop
endfacet
facet normal 0.0000000E+00 -1.0000000E+00 0.0000000E+00
outer loop
vertex -7.6603003E-02 -3.3250000E-02 1.7320000E-02
vertex -4.3301001E-02 -3.3250000E-02 -7.5000003E-02
vertex 4.3301001E-02 -3.3250000E-02 -7.5000003E-02
endloop
endfacet
facet normal 0.0000000E+00 -9.9999994E-01 0.0000000E+00
outer loop
vertex -7.6603003E-02 -3.3250000E-02 1.7320000E-02
vertex 4.3301001E-02 -3.3250000E-02 -7.5000003E-02
vertex -4.3301001E-02 -3.3250000E-02 7.5000003E-02
endloop
endfacet
facet normal 0.0000000E+00 -9.9999994E-01 0.0000000E+00
outer loop
vertex -4.3301001E-02 -3.3250000E-02 7.5000003E-02
vertex 4.3301001E-02 -3.3250000E-02 -7.5000003E-02
vertex 7.6603003E-02 -3.3250000E-02 -1.7320000E-02
endloop
endfacet
facet normal 0.0000000E+00 -1.0000000E+00 0.0000000E+00
outer loop
vertex -4.3301001E-02 -3.3250000E-02 7.5000003E-02
vertex 7.6603003E-02 -3.3250000E-02 -1.7320000E-02
vertex 4.3301001E-02 -3.3250000E-02 7.5000003E-02
endloop
endfacet
facet normal 0.0000000E+00 -1.0000000E+00 0.0000000E+00
outer loop
vertex 4.3301001E-02 -3.3250000E-02 7.5000003E-02
vertex 7.6603003E-02 -3.3250000E-02 -1.7320000E-02
vertex 7.6603003E-02 -3.3250000E-02 1.7321000E-02
endloop
endfacet
facet normal -0.0000000E+00 1.0000000E+00 0.0000000E+00
outer loop
vertex -4.3301001E-02 3.3250000E-02 7.5000003E-02
vertex 4.3301001E-02 3.3250000E-02 7.5000003E-02
vertex -7.6603003E-02 3.3250000E-02 1.7320000E-02
endloop
endfacet
facet normal 0.0000000E+00 9.9999994E-01 0.0000000E+00
outer loop
vertex -7.6603003E-02 3.3250000E-02 1.7320000E-02
vertex 4.3301001E-02 3.3250000E-02 7.5000003E-02
vertex 7.6603003E-02 3.3250000E-02 1.7321000E-02
endloop
endfacet
facet normal -0.0000000E+00 1.0000000E+00 0.0000000E+00
outer loop
vertex -7.6603003E-02 3.3250000E-02 1.7320000E-02
vertex 7.6603003E-02 3.3250000E-02 1.7321000E-02
vertex -7.6603003E-02 3.3250000E-02 -1.7320000E-02
endloop
endfacet
facet normal 0.0000000E+00 1.0000000E+00 0.0000000E+00
outer loop
vertex -7.6603003E-02 3.3250000E-02 -1.7320000E-02
vertex 7.6603003E-02 3.3250000E-02 1.7321000E-02
vertex 7.6603003E-02 3.3250000E-02 -1.7320000E-02
endloop
endfacet
facet normal -0.0000000E+00 1.0000000E+00 0.0000000E+00
outer loop
vertex -7.6603003E-02 3.3250000E-02 -1.7320000E-02
vertex 7.6603003E-02 3.3250000E-02 -1.7320000E-02
vertex -4.3301001E-02 3.3250000E-02 -7.5000003E-02
endloop
endfacet
facet normal 0.0000000E+00 1.0000000E+00 0.0000000E+00
outer loop
vertex -4.3301001E-02 3.3250000E-02 -7.5000003E-02
vertex 7.6603003E-02 3.3250000E-02 -1.7320000E-02
vertex 4.3301001E-02 3.3250000E-02 -7.5000003E-02
endloop
endfacet
facet normal 0.0000000E+00 -0.0000000E+00 -1.0000000E+00
outer loop
vertex -1.4788000E-02 -1.3613360E-02 -9.4750002E-02
vertex -9.5670000E-03 -1.7677421E-02 -9.4750002E-02
vertex -3.5000000E-02 -3.1250000E-02 -9.4750002E-02
endloop
endfacet
facet normal 0.0000000E+00 0.0000000E+00 -1.0000000E+00
outer loop
vertex -3.5000000E-02 -3.1250000E-02 -9.4750002E-02
vertex -9.5670000E-03 -1.7677421E-02 -9.4750002E-02
vertex -3.3080000E-03 -1.9825861E-02 -9.4750002E-02
endloop
endfacet
facet normal 0.0000000E+00 0.0000000E+00 -1.0000000E+00
outer loop
vertex -3.5000000E-02 -3.1250000E-02 -9.4750002E-02
vertex -3.3080000E-03 -1.9825861E-02 -9.4750002E-02
vertex 3.5000000E-02 -3.1250000E-02 -9.4750002E-02
endloop
endfacet
facet normal 0.0000000E+00 0.0000000E+00 -1.0000000E+00
outer loop
vertex 3.5000000E-02 -3.1250000E-02 -9.4750002E-02
vertex -3.3080000E-03 -1.9825861E-02 -9.4750002E-02
vertex 3.3080000E-03 -1.9825861E-02 -9.4750002E-02
endloop
endfacet
facet normal 0.0000000E+00 0.0000000E+00 -1.0000000E+00
outer loop
vertex 3.5000000E-02 -3.1250000E-02 -9.4750002E-02
vertex 3.3080000E-03 -1.9825861E-02 -9.4750002E-02
vertex 9.5670000E-03 -1.7677421E-02 -9.4750002E-02
endloop
endfacet
facet normal 0.0000000E+00 0.0000000E+00 -1.0000000E+00
outer loop
vertex 1.6827000E-02 1.0993660E-02 -9.4750002E-02
vertex 1.2346000E-02 1.5861720E-02 -9.4750002E-02
vertex 3.5000000E-02 3.1250000E-02 -9.4750002E-02
endloop
endfacet
facet normal 0.0000000E+00 0.0000000E+00 -1.0000000E+00
outer loop
vertex 3.5000000E-02 3.1250000E-02 -9.4750002E-02
vertex 1.2346000E-02 1.5861720E-02 -9.4750002E-02
vertex 6.5259999E-03 1.9010929E-02 -9.4750002E-02
endloop
endfacet
facet normal -0.0000000E+00 0.0000000E+00 -1.0000000E+00
outer loop
vertex 3.5000000E-02 3.1250000E-02 -9.4750002E-02
vertex 6.5259999E-03 1.9010929E-02 -9.4750002E-02
vertex -3.5000000E-02 3.1250000E-02 -9.4750002E-02
endloop
endfacet
facet normal 0.0000000E+00 0.0000000E+00 -1.0000000E+00
outer loop
vertex -3.5000000E-02 3.1250000E-02 -9.4750002E-02
vertex 6.5259999E-03 1.9010929E-02 -9.4750002E-02
vertex 0.0000000E+00 2.0099999E-02 -9.4750002E-02
endloop
endfacet
facet normal 0.0000000E+00 0.0000000E+00 -9.9999994E-01
outer loop
vertex -3.5000000E-02 3.1250000E-02 -9.4750002E-02
vertex 0.0000000E+00 2.0099999E-02 -9.4750002E-02
vertex -6.5259999E-03 1.9010929E-02 -9.4750002E-02
endloop
endfacet
facet normal -0.0000000E+00 0.0000000E+00 -1.0000000E+00
outer loop
vertex -1.2346000E-02 1.5861720E-02 -9.4750002E-02
vertex -1.6827000E-02 1.0993660E-02 -9.4750002E-02
vertex -3.5000000E-02 3.1250000E-02 -9.4750002E-02
endloop
endfacet
facet normal 0.0000000E+00 0.0000000E+00 -1.0000000E+00
outer loop
vertex -3.5000000E-02 3.1250000E-02 -9.4750002E-02
vertex -1.6827000E-02 1.0993660E-02 -9.4750002E-02
vertex -1.9485001E-02 4.9342578E-03 -9.4750002E-02
endloop
endfacet
facet normal 0.0000000E+00 0.0000000E+00 -1.0000000E+00
outer loop
vertex -3.5000000E-02 3.1250000E-02 -9.4750002E-02
vertex -1.9485001E-02 4.9342578E-03 -9.4750002E-02
vertex -3.5000000E-02 -3.1250000E-02 -9.4750002E-02
endloop
endfacet
facet normal 0.0000000E+00 0.0000000E+00 -1.0000000E+00
outer loop
vertex -3.5000000E-02 -3.1250000E-02 -9.4750002E-02
vertex -1.9485001E-02 4.9342578E-03 -9.4750002E-02
vertex -2.0031000E-02 -1.6598450E-03 -9.4750002E-02
endloop
endfacet
facet normal 0.0000000E+00 0.0000000E+00 -1.0000000E+00
outer loop
vertex -3.5000000E-02 -3.1250000E-02 -9.4750002E-02
vertex -2.0031000E-02 -1.6598450E-03 -9.4750002E-02
vertex -1.8407000E-02 -8.0740778E-03 -9.4750002E-02
endloop
endfacet
facet normal 0.0000000E+00 0.0000000E+00 -1.0000000E+00
outer loop
vertex 1.4788000E-02 -1.3613360E-02 -9.4750002E-02
vertex 1.8407000E-02 -8.0740778E-03 -9.4750002E-02
vertex 3.5000000E-02 -3.1250000E-02 -9.4750002E-02
endloop
endfacet
facet normal 0.0000000E+00 0.0000000E+00 -1.0000000E+00
outer loop
vertex 3.5000000E-02 -3.1250000E-02 -9.4750002E-02
vertex 1.8407000E-02 -8.0740778E-03 -9.4750002E-02
vertex 2.0031000E-02 -1.6598450E-03 -9.4750002E-02
endloop
endfacet
facet normal 0.0000000E+00 0.0000000E+00 -1.0000000E+00
outer loop
vertex 3.5000000E-02 -3.1250000E-02 -9.4750002E-02
vertex 2.0031000E-02 -1.6598450E-03 -9.4750002E-02
vertex 3.5000000E-02 3.1250000E-02 -9.4750002E-02
endloop
endfacet
facet normal 0.0000000E+00 0.0000000E+00 -9.9999994E-01
outer loop
vertex 3.5000000E-02 3.1250000E-02 -9.4750002E-02
vertex 2.0031000E-02 -1.6598450E-03 -9.4750002E-02
vertex 1.9485001E-02 4.9342578E-03 -9.4750002E-02
endloop
endfacet
facet normal 0.0000000E+00 0.0000000E+00 -1.0000000E+00
outer loop
vertex 3.5000000E-02 3.1250000E-02 -9.4750002E-02
vertex 1.9485001E-02 4.9342578E-03 -9.4750002E-02
vertex 1.6827000E-02 1.0993660E-02 -9.4750002E-02
endloop
endfacet
facet normal -0.0000000E+00 0.0000000E+00 -1.0000000E+00
outer loop
vertex -6.5259999E-03 1.9010929E-02 -9.4750002E-02
vertex -1.2346000E-02 1.5861720E-02 -9.4750002E-02
vertex -3.5000000E-02 3.1250000E-02 -9.4750002E-02
endloop
endfacet
facet normal 0.0000000E+00 0.0000000E+00 -1.0000000E+00
outer loop
vertex 9.5670000E-03 -1.7677421E-02 -9.4750002E-02
vertex 1.4788000E-02 -1.3613360E-02 -9.4750002E-02
vertex 3.5000000E-02 -3.1250000E-02 -9.4750002E-02
endloop
endfacet
facet normal 0.0000000E+00 -0.0000000E+00 -1.0000000E+00
outer loop
vertex -1.8407000E-02 -8.0740778E-03 -9.4750002E-02
vertex -1.4788000E-02 -1.3613360E-02 -9.4750002E-02
vertex -3.5000000E-02 -3.1250000E-02 -9.4750002E-02
endloop
endfacet
facet normal 9.9999994E-01 0.0000000E+00 -0.0000000E+00
outer loop
vertex 3.9999999E-02 3.1250000E-02 -8.9749999E-02
vertex 3.9999999E-02 3.1250000E-02 -7.5000003E-02
vertex 3.9999999E-02 -3.1250000E-02 -8.9749999E-02
endloop
endfacet
facet normal 9.9999994E-01 0.0000000E+00 0.0000000E+00
outer loop
vertex 3.9999999E-02 -3.1250000E-02 -8.9749999E-02
vertex 3.9999999E-02 3.1250000E-02 -7.5000003E-02
vertex 3.9999999E-02 -3.1250000E-02 -7.5000003E-02
endloop
endfacet
facet normal 0.0000000E+00 -1.0000000E+00 0.0000000E+00
outer loop
vertex -3.5000000E-02 -3.1250000E-02 -9.4750002E-02
vertex 3.5000000E-02 -3.1250000E-02 -9.4750002E-02
vertex -3.9999999E-02 -3.1250000E-02 -8.9749999E-02
endloop
endfacet
facet normal 0.0000000E+00 -1.0000000E+00 0.0000000E+00
outer loop
vertex -3.9999999E-02 -3.1250000E-02 -8.9749999E-02
vertex 3.5000000E-02 -3.1250000E-02 -9.4750002E-02
vertex 3.9999999E-02 -3.1250000E-02 -8.9749999E-02
endloop
endfacet
facet normal 0.0000000E+00 -1.0000000E+00 0.0000000E+00
outer loop
vertex -3.9999999E-02 -3.1250000E-02 -8.9749999E-02
vertex 3.9999999E-02 -3.1250000E-02 -8.9749999E-02
vertex -3.9999999E-02 -3.1250000E-02 -7.5000003E-02
endloop
endfacet
facet normal 0.0000000E+00 -1.0000000E+00 0.0000000E+00
outer loop
vertex -3.9999999E-02 -3.1250000E-02 -7.5000003E-02
vertex 3.9999999E-02 -3.1250000E-02 -8.9749999E-02
vertex 3.9999999E-02 -3.1250000E-02 -7.5000003E-02
endloop
endfacet
facet normal -9.9999994E-01 0.0000000E+00 0.0000000E+00
outer loop
vertex -3.9999999E-02 -3.1250000E-02 -8.9749999E-02
vertex -3.9999999E-02 -3.1250000E-02 -7.5000003E-02
vertex -3.9999999E-02 3.1250000E-02 -8.9749999E-02
endloop
endfacet
facet normal -9.9999994E-01 0.0000000E+00 0.0000000E+00
outer loop
vertex -3.9999999E-02 3.1250000E-02 -8.9749999E-02
vertex -3.9999999E-02 -3.1250000E-02 -7.5000003E-02
vertex -3.9999999E-02 3.1250000E-02 -7.5000003E-02
endloop
endfacet
facet normal -0.0000000E+00 1.0000000E+00 0.0000000E+00
outer loop
vertex -3.9999999E-02 3.1250000E-02 -7.5000003E-02
vertex 3.9999999E-02 3.1250000E-02 -7.5000003E-02
vertex -3.9999999E-02 3.1250000E-02 -8.9749999E-02
endloop
endfacet
facet normal 0.0000000E+00 1.0000000E+00 0.0000000E+00
outer loop
vertex -3.9999999E-02 3.1250000E-02 -8.9749999E-02
vertex 3.9999999E-02 3.1250000E-02 -7.5000003E-02
vertex 3.9999999E-02 3.1250000E-02 -8.9749999E-02
endloop
endfacet
facet normal -0.0000000E+00 1.0000000E+00 0.0000000E+00
outer loop
vertex -3.9999999E-02 3.1250000E-02 -8.9749999E-02
vertex 3.9999999E-02 3.1250000E-02 -8.9749999E-02
vertex -3.5000000E-02 3.1250000E-02 -9.4750002E-02
endloop
endfacet
facet normal 0.0000000E+00 1.0000000E+00 0.0000000E+00
outer loop
vertex -3.5000000E-02 3.1250000E-02 -9.4750002E-02
vertex 3.9999999E-02 3.1250000E-02 -8.9749999E-02
vertex 3.5000000E-02 3.1250000E-02 -9.4750002E-02
endloop
endfacet
facet normal 0.0000000E+00 1.0000000E+00 -0.0000000E+00
outer loop
vertex 3.9999999E-02 3.1250000E-02 7.5000003E-02
vertex -3.9999999E-02 3.1250000E-02 7.5000003E-02
vertex 3.9999999E-02 3.1250000E-02 8.9749999E-02
endloop
endfacet
facet normal 0.0000000E+00 1.0000000E+00 0.0000000E+00
outer loop
vertex 3.9999999E-02 3.1250000E-02 8.9749999E-02
vertex -3.9999999E-02 3.1250000E-02 7.5000003E-02
vertex -3.9999999E-02 3.1250000E-02 8.9749999E-02
endloop
endfacet
facet normal 0.0000000E+00 1.0000000E+00 0.0000000E+00
outer loop
vertex 3.9999999E-02 3.1250000E-02 8.9749999E-02
vertex -3.9999999E-02 3.1250000E-02 8.9749999E-02
vertex 3.5000000E-02 3.1250000E-02 9.4750002E-02
endloop
endfacet
facet normal 0.0000000E+00 1.0000000E+00 0.0000000E+00
outer loop
vertex 3.5000000E-02 3.1250000E-02 9.4750002E-02
vertex -3.9999999E-02 3.1250000E-02 8.9749999E-02
vertex -3.5000000E-02 3.1250000E-02 9.4750002E-02
endloop
endfacet
facet normal -9.9999994E-01 -0.0000000E+00 -0.0000000E+00
outer loop
vertex -3.9999999E-02 3.1250000E-02 8.9749999E-02
vertex -3.9999999E-02 3.1250000E-02 7.5000003E-02
vertex -3.9999999E-02 -3.1250000E-02 8.9749999E-02
endloop
endfacet
facet normal -9.9999994E-01 0.0000000E+00 0.0000000E+00
outer loop
vertex -3.9999999E-02 -3.1250000E-02 8.9749999E-02
vertex -3.9999999E-02 3.1250000E-02 7.5000003E-02
vertex -3.9999999E-02 -3.1250000E-02 7.5000003E-02
endloop
endfacet
facet normal -0.0000000E+00 -1.0000000E+00 -0.0000000E+00
outer loop
vertex 3.5000000E-02 -3.1250000E-02 9.4750002E-02
vertex -3.5000000E-02 -3.1250000E-02 9.4750002E-02
vertex 3.9999999E-02 -3.1250000E-02 8.9749999E-02
endloop
endfacet
facet normal 0.0000000E+00 -1.0000000E+00 0.0000000E+00
outer loop
vertex 3.9999999E-02 -3.1250000E-02 8.9749999E-02
vertex -3.5000000E-02 -3.1250000E-02 9.4750002E-02
vertex -3.9999999E-02 -3.1250000E-02 8.9749999E-02
endloop
endfacet
facet normal -0.0000000E+00 -1.0000000E+00 -0.0000000E+00
outer loop
vertex 3.9999999E-02 -3.1250000E-02 8.9749999E-02
vertex -3.9999999E-02 -3.1250000E-02 8.9749999E-02
vertex 3.9999999E-02 -3.1250000E-02 7.5000003E-02
endloop
endfacet
facet normal 0.0000000E+00 -1.0000000E+00 0.0000000E+00
outer loop
vertex 3.9999999E-02 -3.1250000E-02 7.5000003E-02
vertex -3.9999999E-02 -3.1250000E-02 8.9749999E-02
vertex -3.9999999E-02 -3.1250000E-02 7.5000003E-02
endloop
endfacet
facet normal 9.9999994E-01 -0.0000000E+00 0.0000000E+00
outer loop
vertex 3.9999999E-02 -3.1250000E-02 8.9749999E-02
vertex 3.9999999E-02 -3.1250000E-02 7.5000003E-02
vertex 3.9999999E-02 3.1250000E-02 8.9749999E-02
endloop
endfacet
facet normal 9.9999994E-01 0.0000000E+00 0.0000000E+00
outer loop
vertex 3.9999999E-02 3.1250000E-02 8.9749999E-02
vertex 3.9999999E-02 -3.1250000E-02 7.5000003E-02
vertex 3.9999999E-02 3.1250000E-02 7.5000003E-02
endloop
endfacet
facet normal -1.0000000E+00 -0.0000000E+00 -0.0000000E+00
outer loop
vertex -7.6603003E-02 3.3250000E-02 1.7320000E-02
vertex -7.6603003E-02 3.3250000E-02 -1.7320000E-02
vertex -7.6603003E-02 -3.3250000E-02 1.7320000E-02
endloop
endfacet
facet normal -1.0000000E+00 0.0000000E+00 0.0000000E+00
outer loop
vertex -7.6603003E-02 -3.3250000E-02 1.7320000E-02
vertex -7.6603003E-02 3.3250000E-02 -1.7320000E-02
vertex -7.6603003E-02 -3.3250000E-02 -1.7320000E-02
endloop
endfacet
facet normal 1.0000000E+00 0.0000000E+00 -0.0000000E+00
outer loop
vertex 7.6603003E-02 3.3250000E-02 -1.7320000E-02
vertex 7.6603003E-02 3.3250000E-02 1.7321000E-02
vertex 7.6603003E-02 -3.3250000E-02 -1.7320000E-02
endloop
endfacet
facet normal 1.0000000E+00 0.0000000E+00 0.0000000E+00
outer loop
vertex 7.6603003E-02 -3.3250000E-02 -1.7320000E-02
vertex 7.6603003E-02 3.3250000E-02 1.7321000E-02
vertex 7.6603003E-02 -3.3250000E-02 1.7321000E-02
endloop
endfacet
facet normal -7.0710701E-01 0.0000000E+00 7.0710647E-01
outer loop
vertex -3.9999999E-02 -3.1250000E-02 8.9749999E-02
vertex -3.5000000E-02 -3.1250000E-02 9.4750002E-02
vertex -3.9999999E-02 3.1250000E-02 8.9749999E-02
endloop
endfacet
facet normal -7.0710701E-01 0.0000000E+00 7.0710647E-01
outer loop
vertex -3.9999999E-02 3.1250000E-02 8.9749999E-02
vertex -3.5000000E-02 -3.1250000E-02 9.4750002E-02
vertex -3.5000000E-02 3.1250000E-02 9.4750002E-02
endloop
endfacet
facet normal 7.0710701E-01 0.0000000E+00 7.0710647E-01
outer loop
vertex 3.9999999E-02 3.1250000E-02 8.9749999E-02
vertex 3.5000000E-02 3.1250000E-02 9.4750002E-02
vertex 3.9999999E-02 -3.1250000E-02 8.9749999E-02
endloop
endfacet
facet normal 7.0710701E-01 0.0000000E+00 7.0710647E-01
outer loop
vertex 3.9999999E-02 -3.1250000E-02 8.9749999E-02
vertex 3.5000000E-02 3.1250000E-02 9.4750002E-02
vertex 3.5000000E-02 -3.1250000E-02 9.4750002E-02
endloop
endfacet
facet normal -7.0710701E-01 0.0000000E+00 -7.0710647E-01
outer loop
vertex -3.5000000E-02 -3.1250000E-02 -9.4750002E-02
vertex -3.9999999E-02 -3.1250000E-02 -8.9749999E-02
vertex -3.5000000E-02 3.1250000E-02 -9.4750002E-02
endloop
endfacet
facet normal -7.0710701E-01 0.0000000E+00 -7.0710647E-01
outer loop
vertex -3.5000000E-02 3.1250000E-02 -9.4750002E-02
vertex -3.9999999E-02 -3.1250000E-02 -8.9749999E-02
vertex -3.9999999E-02 3.1250000E-02 -8.9749999E-02
endloop
endfacet
facet normal 7.0710701E-01 0.0000000E+00 -7.0710647E-01
outer loop
vertex 3.5000000E-02 3.1250000E-02 -9.4750002E-02
vertex 3.9999999E-02 3.1250000E-02 -8.9749999E-02
vertex 3.5000000E-02 -3.1250000E-02 -9.4750002E-02
endloop
endfacet
facet normal 7.0710701E-01 0.0000000E+00 -7.0710647E-01
outer loop
vertex 3.5000000E-02 -3.1250000E-02 -9.4750002E-02
vertex 3.9999999E-02 3.1250000E-02 -8.9749999E-02
vertex 3.9999999E-02 -3.1250000E-02 -8.9749999E-02
endloop
endfacet
facet normal 4.7589862E-01 -8.7950015E-01 0.0000000E+00
outer loop
vertex -6.5259999E-03 1.9010929E-02 -9.4750002E-02
vertex -6.5259999E-03 1.9010929E-02 9.4750002E-02
vertex -1.2346000E-02 1.5861720E-02 -9.4750002E-02
endloop
endfacet
facet normal 4.7589862E-01 -8.7950015E-01 0.0000000E+00
outer loop
vertex -1.2346000E-02 1.5861720E-02 -9.4750002E-02
vertex -6.5259999E-03 1.9010929E-02 9.4750002E-02
vertex -1.2346000E-02 1.5861720E-02 9.4750002E-02
endloop
endfacet
facet normal 7.3575133E-01 -6.7725170E-01 0.0000000E+00
outer loop
vertex -1.2346000E-02 1.5861720E-02 -9.4750002E-02
vertex -1.2346000E-02 1.5861720E-02 9.4750002E-02
vertex -1.6827000E-02 1.0993660E-02 -9.4750002E-02
endloop
endfacet
facet normal 7.3575133E-01 -6.7725170E-01 0.0000000E+00
outer loop
vertex -1.6827000E-02 1.0993660E-02 -9.4750002E-02
vertex -1.2346000E-02 1.5861720E-02 9.4750002E-02
vertex -1.6827000E-02 1.0993660E-02 9.4750002E-02
endloop
endfacet
facet normal 9.1576785E-01 -4.0170807E-01 0.0000000E+00
outer loop
vertex -1.6827000E-02 1.0993660E-02 -9.4750002E-02
vertex -1.6827000E-02 1.0993660E-02 9.4750002E-02
vertex -1.9485001E-02 4.9342578E-03 -9.4750002E-02
endloop
endfacet
facet normal 9.1576785E-01 -4.0170807E-01 0.0000000E+00
outer loop
vertex -1.9485001E-02 4.9342578E-03 -9.4750002E-02
vertex -1.6827000E-02 1.0993660E-02 9.4750002E-02
vertex -1.9485001E-02 4.9342578E-03 9.4750002E-02
endloop
endfacet
facet normal 9.9658948E-01 -8.2518712E-02 0.0000000E+00
outer loop
vertex -1.9485001E-02 4.9342578E-03 -9.4750002E-02
vertex -1.9485001E-02 4.9342578E-03 9.4750002E-02
vertex -2.0031000E-02 -1.6598450E-03 -9.4750002E-02
endloop
endfacet
facet normal 9.9658948E-01 -8.2518712E-02 0.0000000E+00
outer loop
vertex -2.0031000E-02 -1.6598450E-03 -9.4750002E-02
vertex -1.9485001E-02 4.9342578E-03 9.4750002E-02
vertex -2.0031000E-02 -1.6598450E-03 9.4750002E-02
endloop
endfacet
facet normal 9.6941125E-01 2.4544218E-01 -0.0000000E+00
outer loop
vertex -2.0031000E-02 -1.6598450E-03 -9.4750002E-02
vertex -2.0031000E-02 -1.6598450E-03 9.4750002E-02
vertex -1.8407000E-02 -8.0740778E-03 -9.4750002E-02
endloop
endfacet
facet normal 9.6941125E-01 2.4544218E-01 -0.0000000E+00
outer loop
vertex -1.8407000E-02 -8.0740778E-03 -9.4750002E-02
vertex -2.0031000E-02 -1.6598450E-03 9.4750002E-02
vertex -1.8407000E-02 -8.0740778E-03 9.4750002E-02
endloop
endfacet
facet normal 8.3716601E-01 5.4694885E-01 -0.0000000E+00
outer loop
vertex -1.8407000E-02 -8.0740778E-03 -9.4750002E-02
vertex -1.8407000E-02 -8.0740778E-03 9.4750002E-02
vertex -1.4788000E-02 -1.3613360E-02 -9.4750002E-02
endloop
endfacet
facet normal 8.3716601E-01 5.4694885E-01 -0.0000000E+00
outer loop
vertex -1.4788000E-02 -1.3613360E-02 -9.4750002E-02
vertex -1.8407000E-02 -8.0740778E-03 9.4750002E-02
vertex -1.4788000E-02 -1.3613360E-02 9.4750002E-02
endloop
endfacet
facet normal 6.1424977E-01 7.8911173E-01 -0.0000000E+00
outer loop
vertex -1.4788000E-02 -1.3613360E-02 -9.4750002E-02
vertex -1.4788000E-02 -1.3613360E-02 9.4750002E-02
vertex -9.5670000E-03 -1.7677421E-02 -9.4750002E-02
endloop
endfacet
facet normal 6.1424977E-01 7.8911173E-01 -0.0000000E+00
outer loop
vertex -9.5670000E-03 -1.7677421E-02 -9.4750002E-02
vertex -1.4788000E-02 -1.3613360E-02 9.4750002E-02
vertex -9.5670000E-03 -1.7677421E-02 9.4750002E-02
endloop
endfacet
facet normal 3.2466197E-01 9.4583005E-01 -0.0000000E+00
outer loop
vertex -9.5670000E-03 -1.7677421E-02 -9.4750002E-02
vertex -9.5670000E-03 -1.7677421E-02 9.4750002E-02
vertex -3.3080000E-03 -1.9825861E-02 -9.4750002E-02
endloop
endfacet
facet normal 3.2466197E-01 9.4583005E-01 -0.0000000E+00
outer loop
vertex -3.3080000E-03 -1.9825861E-02 -9.4750002E-02
vertex -9.5670000E-03 -1.7677421E-02 9.4750002E-02
vertex -3.3080000E-03 -1.9825861E-02 9.4750002E-02
endloop
endfacet
facet normal 0.0000000E+00 9.9999994E-01 0.0000000E+00
outer loop
vertex -3.3080000E-03 -1.9825861E-02 -9.4750002E-02
vertex -3.3080000E-03 -1.9825861E-02 9.4750002E-02
vertex 3.3080000E-03 -1.9825861E-02 -9.4750002E-02
endloop
endfacet
facet normal 0.0000000E+00 9.9999994E-01 -0.0000000E+00
outer loop
vertex 3.3080000E-03 -1.9825861E-02 -9.4750002E-02
vertex -3.3080000E-03 -1.9825861E-02 9.4750002E-02
vertex 3.3080000E-03 -1.9825861E-02 9.4750002E-02
endloop
endfacet
facet normal -3.2466197E-01 9.4583005E-01 0.0000000E+00
outer loop
vertex 3.3080000E-03 -1.9825861E-02 -9.4750002E-02
vertex 3.3080000E-03 -1.9825861E-02 9.4750002E-02
vertex 9.5670000E-03 -1.7677421E-02 -9.4750002E-02
endloop
endfacet
facet normal -3.2466197E-01 9.4583005E-01 0.0000000E+00
outer loop
vertex 9.5670000E-03 -1.7677421E-02 -9.4750002E-02
vertex 3.3080000E-03 -1.9825861E-02 9.4750002E-02
vertex 9.5670000E-03 -1.7677421E-02 9.4750002E-02
endloop
endfacet
facet normal -6.1424977E-01 7.8911173E-01 0.0000000E+00
outer loop
vertex 9.5670000E-03 -1.7677421E-02 -9.4750002E-02
vertex 9.5670000E-03 -1.7677421E-02 9.4750002E-02
vertex 1.4788000E-02 -1.3613360E-02 -9.4750002E-02
endloop
endfacet
facet normal -6.1424977E-01 7.8911173E-01 0.0000000E+00
outer loop
vertex 1.4788000E-02 -1.3613360E-02 -9.4750002E-02
vertex 9.5670000E-03 -1.7677421E-02 9.4750002E-02
vertex 1.4788000E-02 -1.3613360E-02 9.4750002E-02
endloop
endfacet
facet normal -8.3716601E-01 5.4694885E-01 0.0000000E+00
outer loop
vertex 1.4788000E-02 -1.3613360E-02 -9.4750002E-02
vertex 1.4788000E-02 -1.3613360E-02 9.4750002E-02
vertex 1.8407000E-02 -8.0740778E-03 -9.4750002E-02
endloop
endfacet
facet normal -8.3716601E-01 5.4694885E-01 0.0000000E+00
outer loop
vertex 1.8407000E-02 -8.0740778E-03 -9.4750002E-02
vertex 1.4788000E-02 -1.3613360E-02 9.4750002E-02
vertex 1.8407000E-02 -8.0740778E-03 9.4750002E-02
endloop
endfacet
facet normal -9.6941125E-01 2.4544218E-01 0.0000000E+00
outer loop
vertex 1.8407000E-02 -8.0740778E-03 -9.4750002E-02
vertex 1.8407000E-02 -8.0740778E-03 9.4750002E-02
vertex 2.0031000E-02 -1.6598450E-03 -9.4750002E-02
endloop
endfacet
facet normal -9.6941125E-01 2.4544218E-01 0.0000000E+00
outer loop
vertex 2.0031000E-02 -1.6598450E-03 -9.4750002E-02
vertex 1.8407000E-02 -8.0740778E-03 9.4750002E-02
vertex 2.0031000E-02 -1.6598450E-03 9.4750002E-02
endloop
endfacet
facet normal -9.9658948E-01 -8.2518712E-02 0.0000000E+00
outer loop
vertex 2.0031000E-02 -1.6598450E-03 -9.4750002E-02
vertex 2.0031000E-02 -1.6598450E-03 9.4750002E-02
vertex 1.9485001E-02 4.9342578E-03 -9.4750002E-02
endloop
endfacet
facet normal -9.9658948E-01 -8.2518712E-02 0.0000000E+00
outer loop
vertex 1.9485001E-02 4.9342578E-03 -9.4750002E-02
vertex 2.0031000E-02 -1.6598450E-03 9.4750002E-02
vertex 1.9485001E-02 4.9342578E-03 9.4750002E-02
endloop
endfacet
facet normal -9.1576785E-01 -4.0170807E-01 0.0000000E+00
outer loop
vertex 1.9485001E-02 4.9342578E-03 -9.4750002E-02
vertex 1.9485001E-02 4.9342578E-03 9.4750002E-02
vertex 1.6827000E-02 1.0993660E-02 -9.4750002E-02
endloop
endfacet
facet normal -9.1576785E-01 -4.0170807E-01 0.0000000E+00
outer loop
vertex 1.6827000E-02 1.0993660E-02 -9.4750002E-02
vertex 1.9485001E-02 4.9342578E-03 9.4750002E-02
vertex 1.6827000E-02 1.0993660E-02 9.4750002E-02
endloop
endfacet
facet normal -7.3575133E-01 -6.7725170E-01 0.0000000E+00
outer loop
vertex 1.6827000E-02 1.0993660E-02 -9.4750002E-02
vertex 1.6827000E-02 1.0993660E-02 9.4750002E-02
vertex 1.2346000E-02 1.5861720E-02 -9.4750002E-02
endloop
endfacet
facet normal -7.3575133E-01 -6.7725170E-01 0.0000000E+00
outer loop
vertex 1.2346000E-02 1.5861720E-02 -9.4750002E-02
vertex 1.6827000E-02 1.0993660E-02 9.4750002E-02
vertex 1.2346000E-02 1.5861720E-02 9.4750002E-02
endloop
endfacet
facet normal -4.7589862E-01 -8.7950015E-01 0.0000000E+00
outer loop
vertex 1.2346000E-02 1.5861720E-02 -9.4750002E-02
vertex 1.2346000E-02 1.5861720E-02 9.4750002E-02
vertex 6.5259999E-03 1.9010929E-02 -9.4750002E-02
endloop
endfacet
facet normal -4.7589862E-01 -8.7950015E-01 0.0000000E+00
outer loop
vertex 6.5259999E-03 1.9010929E-02 -9.4750002E-02
vertex 1.2346000E-02 1.5861720E-02 9.4750002E-02
vertex 6.5259999E-03 1.9010929E-02 9.4750002E-02
endloop
endfacet
facet normal -1.6460535E-01 -9.8635948E-01 0.0000000E+00
outer loop
vertex 6.5259999E-03 1.9010929E-02 -9.4750002E-02
vertex 6.5259999E-03 1.9010929E-02 9.4750002E-02
vertex 0.0000000E+00 2.0099999E-02 -9.4750002E-02
endloop
endfacet
facet normal -1.6460535E-01 -9.8635948E-01 0.0000000E+00
outer loop
vertex 0.0000000E+00 2.0099999E-02 -9.4750002E-02
vertex 6.5259999E-03 1.9010929E-02 9.4750002E-02
vertex 0.0000000E+00 2.0099999E-02 9.4750002E-02
endloop
endfacet
facet normal 1.6460535E-01 -9.8635948E-01 0.0000000E+00
outer loop
vertex 0.0000000E+00 2.0099999E-02 -9.4750002E-02
vertex 0.0000000E+00 2.0099999E-02 9.4750002E-02
vertex -6.5259999E-03 1.9010929E-02 -9.4750002E-02
endloop
endfacet
facet normal 1.6460535E-01 -9.8635948E-01 0.0000000E+00
outer loop
vertex -6.5259999E-03 1.9010929E-02 -9.4750002E-02
vertex 0.0000000E+00 2.0099999E-02 9.4750002E-02
vertex -6.5259999E-03 1.9010929E-02 9.4750002E-02
endloop
endfacet
facet normal 9.5113671E-01 -3.0877003E-01 0.0000000E+00
outer loop
vertex 2.6036000E-02 -1.5000000E-02 8.2750000E-02
vertex 2.6697000E-02 -1.2963850E-02 8.2750000E-02
vertex 2.6036000E-02 -1.5000000E-02 9.4750002E-02
endloop
endfacet
facet normal 9.5113671E-01 -3.0877003E-01 0.0000000E+00
outer loop
vertex 2.6036000E-02 -1.5000000E-02 9.4750002E-02
vertex 2.6697000E-02 -1.2963850E-02 8.2750000E-02
vertex 2.6697000E-02 -1.2963850E-02 9.4750002E-02
endloop
endfacet
facet normal 5.8757520E-01 -8.0916953E-01 0.0000000E+00
outer loop
vertex 2.6697000E-02 -1.2963850E-02 8.2750000E-02
vertex 2.8430000E-02 -1.1705440E-02 8.2750000E-02
vertex 2.6697000E-02 -1.2963850E-02 9.4750002E-02
endloop
endfacet
facet normal 5.8757520E-01 -8.0916953E-01 0.0000000E+00
outer loop
vertex 2.6697000E-02 -1.2963850E-02 9.4750002E-02
vertex 2.8430000E-02 -1.1705440E-02 8.2750000E-02
vertex 2.8430000E-02 -1.1705440E-02 9.4750002E-02
endloop
endfacet
facet normal 0.0000000E+00 -9.9999994E-01 0.0000000E+00
outer loop
vertex 2.8430000E-02 -1.1705440E-02 8.2750000E-02
vertex 3.0570000E-02 -1.1705440E-02 8.2750000E-02
vertex 2.8430000E-02 -1.1705440E-02 9.4750002E-02
endloop
endfacet
facet normal 0.0000000E+00 -9.9999994E-01 0.0000000E+00
outer loop
vertex 2.8430000E-02 -1.1705440E-02 9.4750002E-02
vertex 3.0570000E-02 -1.1705440E-02 8.2750000E-02
vertex 3.0570000E-02 -1.1705440E-02 9.4750002E-02
endloop
endfacet
facet normal -5.8779728E-01 -8.0900824E-01 0.0000000E+00
outer loop
vertex 3.0570000E-02 -1.1705440E-02 8.2750000E-02
vertex 3.2302000E-02 -1.2963850E-02 8.2750000E-02
vertex 3.0570000E-02 -1.1705440E-02 9.4750002E-02
endloop
endfacet
facet normal -5.8779728E-01 -8.0900824E-01 0.0000000E+00
outer loop
vertex 3.0570000E-02 -1.1705440E-02 9.4750002E-02
vertex 3.2302000E-02 -1.2963850E-02 8.2750000E-02
vertex 3.2302000E-02 -1.2963850E-02 9.4750002E-02
endloop
endfacet
facet normal -9.5099962E-01 -3.0919179E-01 0.0000000E+00
outer loop
vertex 3.2302000E-02 -1.2963850E-02 8.2750000E-02
vertex 3.2963999E-02 -1.5000000E-02 8.2750000E-02
vertex 3.2302000E-02 -1.2963850E-02 9.4750002E-02
endloop
endfacet
facet normal -9.5099962E-01 -3.0919179E-01 0.0000000E+00
outer loop
vertex 3.2302000E-02 -1.2963850E-02 9.4750002E-02
vertex 3.2963999E-02 -1.5000000E-02 8.2750000E-02
vertex 3.2963999E-02 -1.5000000E-02 9.4750002E-02
endloop
endfacet
facet normal -9.5099962E-01 3.0919179E-01 0.0000000E+00
outer loop
vertex 3.2963999E-02 -1.5000000E-02 8.2750000E-02
vertex 3.2302000E-02 -1.7036149E-02 8.2750000E-02
vertex 3.2963999E-02 -1.5000000E-02 9.4750002E-02
endloop
endfacet
facet normal -9.5099962E-01 3.0919179E-01 0.0000000E+00
outer loop
vertex 3.2963999E-02 -1.5000000E-02 9.4750002E-02
vertex 3.2302000E-02 -1.7036149E-02 8.2750000E-02
vertex 3.2302000E-02 -1.7036149E-02 9.4750002E-02
endloop
endfacet
facet normal -5.8779728E-01 8.0900824E-01 0.0000000E+00
outer loop
vertex 3.2302000E-02 -1.7036149E-02 8.2750000E-02
vertex 3.0570000E-02 -1.8294560E-02 8.2750000E-02
vertex 3.2302000E-02 -1.7036149E-02 9.4750002E-02
endloop
endfacet
facet normal -5.8779728E-01 8.0900824E-01 0.0000000E+00
outer loop
vertex 3.2302000E-02 -1.7036149E-02 9.4750002E-02
vertex 3.0570000E-02 -1.8294560E-02 8.2750000E-02
vertex 3.0570000E-02 -1.8294560E-02 9.4750002E-02
endloop
endfacet
facet normal 0.0000000E+00 9.9999994E-01 -0.0000000E+00
outer loop
vertex 3.0570000E-02 -1.8294560E-02 8.2750000E-02
vertex 2.8430000E-02 -1.8294560E-02 8.2750000E-02
vertex 3.0570000E-02 -1.8294560E-02 9.4750002E-02
endloop
endfacet
facet normal 0.0000000E+00 9.9999994E-01 0.0000000E+00
outer loop
vertex 3.0570000E-02 -1.8294560E-02 9.4750002E-02
vertex 2.8430000E-02 -1.8294560E-02 8.2750000E-02
vertex 2.8430000E-02 -1.8294560E-02 9.4750002E-02
endloop
endfacet
facet normal 5.8757520E-01 8.0916953E-01 -0.0000000E+00
outer loop
vertex 2.8430000E-02 -1.8294560E-02 8.2750000E-02
vertex 2.6697000E-02 -1.7036149E-02 8.2750000E-02
vertex 2.8430000E-02 -1.8294560E-02 9.4750002E-02
endloop
endfacet
facet normal 5.8757520E-01 8.0916953E-01 0.0000000E+00
outer loop
vertex 2.8430000E-02 -1.8294560E-02 9.4750002E-02
vertex 2.6697000E-02 -1.7036149E-02 8.2750000E-02
vertex 2.6697000E-02 -1.7036149E-02 9.4750002E-02
endloop
endfacet
facet normal 9.5113671E-01 3.0877003E-01 -0.0000000E+00
outer loop
vertex 2.6697000E-02 -1.7036149E-02 8.2750000E-02
vertex 2.6036000E-02 -1.5000000E-02 8.2750000E-02
vertex 2.6697000E-02 -1.7036149E-02 9.4750002E-02
endloop
endfacet
facet normal 9.5113671E-01 3.0877003E-01 0.0000000E+00
outer loop
vertex 2.6697000E-02 -1.7036149E-02 9.4750002E-02
vertex 2.6036000E-02 -1.5000000E-02 8.2750000E-02
vertex 2.6036000E-02 -1.5000000E-02 9.4750002E-02
endloop
endfacet
facet normal 0.0000000E+00 0.0000000E+00 1.0000000E+00
outer loop
vertex 3.2302000E-02 -1.2963850E-02 8.2750000E-02
vertex 3.0570000E-02 -1.1705440E-02 8.2750000E-02
vertex 3.2963999E-02 -1.5000000E-02 8.2750000E-02
endloop
endfacet
facet normal 0.0000000E+00 0.0000000E+00 9.9999994E-01
outer loop
vertex 3.2963999E-02 -1.5000000E-02 8.2750000E-02
vertex 3.0570000E-02 -1.1705440E-02 8.2750000E-02
vertex 2.8430000E-02 -1.1705440E-02 8.2750000E-02
endloop
endfacet
facet normal 0.0000000E+00 0.0000000E+00 1.0000000E+00
outer loop
vertex 3.2963999E-02 -1.5000000E-02 8.2750000E-02
vertex 2.8430000E-02 -1.1705440E-02 8.2750000E-02
vertex 3.2302000E-02 -1.7036149E-02 8.2750000E-02
endloop
endfacet
facet normal 0.0000000E+00 0.0000000E+00 9.9999994E-01
outer loop
vertex 3.2302000E-02 -1.7036149E-02 8.2750000E-02
vertex 2.8430000E-02 -1.1705440E-02 8.2750000E-02
vertex 2.6697000E-02 -1.2963850E-02 8.2750000E-02
endloop
endfacet
facet normal 0.0000000E+00 0.0000000E+00 9.9999994E-01
outer loop
vertex 3.2302000E-02 -1.7036149E-02 8.2750000E-02
vertex 2.6697000E-02 -1.2963850E-02 8.2750000E-02
vertex 3.0570000E-02 -1.8294560E-02 8.2750000E-02
endloop
endfacet
facet normal 0.0000000E+00 0.0000000E+00 1.0000000E+00
outer loop
vertex 3.0570000E-02 -1.8294560E-02 8.2750000E-02
vertex 2.6697000E-02 -1.2963850E-02 8.2750000E-02
vertex 2.6036000E-02 -1.5000000E-02 8.2750000E-02
endloop
endfacet
facet normal 0.0000000E+00 0.0000000E+00 9.9999994E-01
outer loop
vertex 3.0570000E-02 -1.8294560E-02 8.2750000E-02
vertex 2.6036000E-02 -1.5000000E-02 8.2750000E-02
vertex 2.8430000E-02 -1.8294560E-02 8.2750000E-02
endloop
endfacet
facet normal 0.0000000E+00 0.0000000E+00 1.0000000E+00
outer loop
vertex 2.8430000E-02 -1.8294560E-02 8.2750000E-02
vertex 2.6036000E-02 -1.5000000E-02 8.2750000E-02
vertex 2.6697000E-02 -1.7036149E-02 8.2750000E-02
endloop
endfacet
facet normal -5.8779728E-01 -8.0900824E-01 -6.9066016E-07
outer loop
vertex -2.8430000E-02 -1.1705440E-02 8.2750000E-02
vertex -2.6698001E-02 -1.2963850E-02 8.2750000E-02
vertex -2.8430000E-02 -1.1705450E-02 9.4750002E-02
endloop
endfacet
facet normal -5.8779418E-01 -8.0901057E-01 0.0000000E+00
outer loop
vertex -2.8430000E-02 -1.1705450E-02 9.4750002E-02
vertex -2.6698001E-02 -1.2963850E-02 8.2750000E-02
vertex -2.6698001E-02 -1.2963850E-02 9.4750002E-02
endloop
endfacet
facet normal -9.5099944E-01 -3.0919263E-01 0.0000000E+00
outer loop
vertex -2.6698001E-02 -1.2963850E-02 8.2750000E-02
vertex -2.6036000E-02 -1.5000000E-02 8.2750000E-02
vertex -2.6698001E-02 -1.2963850E-02 9.4750002E-02
endloop
endfacet
facet normal -9.5099944E-01 -3.0919263E-01 0.0000000E+00
outer loop
vertex -2.6698001E-02 -1.2963850E-02 9.4750002E-02
vertex -2.6036000E-02 -1.5000000E-02 8.2750000E-02
vertex -2.6036000E-02 -1.5000000E-02 9.4750002E-02
endloop
endfacet
facet normal -9.5099944E-01 3.0919263E-01 0.0000000E+00
outer loop
vertex -2.6036000E-02 -1.5000000E-02 8.2750000E-02
vertex -2.6698001E-02 -1.7036149E-02 8.2750000E-02
vertex -2.6036000E-02 -1.5000000E-02 9.4750002E-02
endloop
endfacet
facet normal -9.5099944E-01 3.0919263E-01 0.0000000E+00
outer loop
vertex -2.6036000E-02 -1.5000000E-02 9.4750002E-02
vertex -2.6698001E-02 -1.7036149E-02 8.2750000E-02
vertex -2.6698001E-02 -1.7036149E-02 9.4750002E-02
endloop
endfacet
facet normal -5.8779728E-01 8.0900824E-01 0.0000000E+00
outer loop
vertex -2.6698001E-02 -1.7036149E-02 8.2750000E-02
vertex -2.8430000E-02 -1.8294560E-02 8.2750000E-02
vertex -2.6698001E-02 -1.7036149E-02 9.4750002E-02
endloop
endfacet
facet normal -5.8779728E-01 8.0900824E-01 0.0000000E+00
outer loop
vertex -2.6698001E-02 -1.7036149E-02 9.4750002E-02
vertex -2.8430000E-02 -1.8294560E-02 8.2750000E-02
vertex -2.8430000E-02 -1.8294560E-02 9.4750002E-02
endloop
endfacet
facet normal 0.0000000E+00 9.9999994E-01 -0.0000000E+00
outer loop
vertex -2.8430000E-02 -1.8294560E-02 8.2750000E-02
vertex -3.0570000E-02 -1.8294560E-02 8.2750000E-02
vertex -2.8430000E-02 -1.8294560E-02 9.4750002E-02
endloop
endfacet
facet normal 0.0000000E+00 9.9999994E-01 0.0000000E+00
outer loop
vertex -2.8430000E-02 -1.8294560E-02 9.4750002E-02
vertex -3.0570000E-02 -1.8294560E-02 8.2750000E-02
vertex -3.0570000E-02 -1.8294560E-02 9.4750002E-02
endloop
endfacet
facet normal 5.8757484E-01 8.0916989E-01 -0.0000000E+00
outer loop
vertex -3.0570000E-02 -1.8294560E-02 8.2750000E-02
vertex -3.2303002E-02 -1.7036149E-02 8.2750000E-02
vertex -3.0570000E-02 -1.8294560E-02 9.4750002E-02
endloop
endfacet
facet normal 5.8757484E-01 8.0916989E-01 0.0000000E+00
outer loop
vertex -3.0570000E-02 -1.8294560E-02 9.4750002E-02
vertex -3.2303002E-02 -1.7036149E-02 8.2750000E-02
vertex -3.2303002E-02 -1.7036149E-02 9.4750002E-02
endloop
endfacet
facet normal 9.5113724E-01 3.0876848E-01 -0.0000000E+00
outer loop
vertex -3.2303002E-02 -1.7036149E-02 8.2750000E-02
vertex -3.2963999E-02 -1.5000000E-02 8.2750000E-02
vertex -3.2303002E-02 -1.7036149E-02 9.4750002E-02
endloop
endfacet
facet normal 9.5113724E-01 3.0876848E-01 0.0000000E+00
outer loop
vertex -3.2303002E-02 -1.7036149E-02 9.4750002E-02
vertex -3.2963999E-02 -1.5000000E-02 8.2750000E-02
vertex -3.2963999E-02 -1.5000000E-02 9.4750002E-02
endloop
endfacet
facet normal 9.5113724E-01 -3.0876848E-01 0.0000000E+00
outer loop
vertex -3.2963999E-02 -1.5000000E-02 8.2750000E-02
vertex -3.2303002E-02 -1.2963850E-02 8.2750000E-02
vertex -3.2963999E-02 -1.5000000E-02 9.4750002E-02
endloop
endfacet
facet normal 9.5113724E-01 -3.0876848E-01 0.0000000E+00
outer loop
vertex -3.2963999E-02 -1.5000000E-02 9.4750002E-02
vertex -3.2303002E-02 -1.2963850E-02 8.2750000E-02
vertex -3.2303002E-02 -1.2963850E-02 9.4750002E-02
endloop
endfacet
facet normal 5.8757484E-01 -8.0916989E-01 0.0000000E+00
outer loop
vertex -3.2303002E-02 -1.2963850E-02 8.2750000E-02
vertex -3.0570000E-02 -1.1705440E-02 8.2750000E-02
vertex -3.2303002E-02 -1.2963850E-02 9.4750002E-02
endloop
endfacet
facet normal 5.8757484E-01 -8.0916989E-01 0.0000000E+00
outer loop
vertex -3.2303002E-02 -1.2963850E-02 9.4750002E-02
vertex -3.0570000E-02 -1.1705440E-02 8.2750000E-02
vertex -3.0570000E-02 -1.1705440E-02 9.4750002E-02
endloop
endfacet
facet normal 0.0000000E+00 -9.9999994E-01 0.0000000E+00
outer loop
vertex -3.0570000E-02 -1.1705440E-02 8.2750000E-02
vertex -2.8430000E-02 -1.1705440E-02 8.2750000E-02
vertex -3.0570000E-02 -1.1705440E-02 9.4750002E-02
endloop
endfacet
facet normal 0.0000000E+00 -9.9999994E-01 0.0000000E+00
outer loop
vertex -3.0570000E-02 -1.1705440E-02 9.4750002E-02
vertex -2.8430000E-02 -1.1705440E-02 8.2750000E-02
vertex -2.8430000E-02 -1.1705440E-02 9.4750002E-02
endloop
endfacet
facet normal -0.0000000E+00 0.0000000E+00 1.0000000E+00
outer loop
vertex -3.2303002E-02 -1.2963850E-02 8.2750000E-02
vertex -3.2963999E-02 -1.5000000E-02 8.2750000E-02
vertex -3.0570000E-02 -1.1705440E-02 8.2750000E-02
endloop
endfacet
facet normal 0.0000000E+00 0.0000000E+00 1.0000000E+00
outer loop
vertex -3.0570000E-02 -1.1705440E-02 8.2750000E-02
vertex -3.2963999E-02 -1.5000000E-02 8.2750000E-02
vertex -3.2303002E-02 -1.7036149E-02 8.2750000E-02
endloop
endfacet
facet normal -0.0000000E+00 0.0000000E+00 1.0000000E+00
outer loop
vertex -3.0570000E-02 -1.1705440E-02 8.2750000E-02
vertex -3.2303002E-02 -1.7036149E-02 8.2750000E-02
vertex -2.8430000E-02 -1.1705440E-02 8.2750000E-02
endloop
endfacet
facet normal 0.0000000E+00 0.0000000E+00 1.0000000E+00
outer loop
vertex -2.8430000E-02 -1.1705440E-02 8.2750000E-02
vertex -3.2303002E-02 -1.7036149E-02 8.2750000E-02
vertex -3.0570000E-02 -1.8294560E-02 8.2750000E-02
endloop
endfacet
facet normal 0.0000000E+00 0.0000000E+00 1.0000000E+00
outer loop
vertex -2.8430000E-02 -1.1705440E-02 8.2750000E-02
vertex -3.0570000E-02 -1.8294560E-02 8.2750000E-02
vertex -2.6698001E-02 -1.2963850E-02 8.2750000E-02
endloop
endfacet
facet normal 0.0000000E+00 0.0000000E+00 1.0000000E+00
outer loop
vertex -2.6698001E-02 -1.2963850E-02 8.2750000E-02
vertex -3.0570000E-02 -1.8294560E-02 8.2750000E-02
vertex -2.8430000E-02 -1.8294560E-02 8.2750000E-02
endloop
endfacet
facet normal 0.0000000E+00 0.0000000E+00 1.0000000E+00
outer loop
vertex -2.6698001E-02 -1.2963850E-02 8.2750000E-02
vertex -2.8430000E-02 -1.8294560E-02 8.2750000E-02
vertex -2.6036000E-02 -1.5000000E-02 8.2750000E-02
endloop
endfacet
facet normal 0.0000000E+00 0.0000000E+00 1.0000000E+00
outer loop
vertex -2.6036000E-02 -1.5000000E-02 8.2750000E-02
vertex -2.8430000E-02 -1.8294560E-02 8.2750000E-02
vertex -2.6698001E-02 -1.7036149E-02 8.2750000E-02
endloop
endfacet
endsolid Created by stlwrite.m 01-Jan-2014 21:15:20
