solid Created by stlwrite.m 06-Jan-2012 19:10:40
facet normal 7.0711327E-01 0.0000000E+00 -7.0710033E-01
outer loop
vertex 3.0758999E-02 1.0778000E-02 -2.5810000E-02
vertex 3.0657001E-02 1.1159000E-02 -2.5912000E-02
vertex 3.0758999E-02 2.9000999E-02 -2.5810000E-02
endloop
endfacet
facet normal 7.0696145E-01 1.7347604E-06 -7.0725203E-01
outer loop
vertex 3.0758999E-02 2.9000999E-02 -2.5810000E-02
vertex 3.0657001E-02 1.1159000E-02 -2.5912000E-02
vertex 2.8253000E-02 1.6313000E-02 -2.8315000E-02
endloop
endfacet
facet normal 7.0718849E-01 -8.7905697E-05 -7.0702505E-01
outer loop
vertex 2.5810000E-02 1.9803001E-02 -3.0758999E-02
vertex 3.0758999E-02 2.9000999E-02 -2.5810000E-02
vertex 2.8253000E-02 1.6313000E-02 -2.8315000E-02
endloop
endfacet
facet normal 7.0710677E-01 0.0000000E+00 -7.0710677E-01
outer loop
vertex 2.5810000E-02 1.9803001E-02 -3.0758999E-02
vertex 2.5810000E-02 2.9000999E-02 -3.0758999E-02
vertex 3.0758999E-02 2.9000999E-02 -2.5810000E-02
endloop
endfacet
facet normal 5.7373267E-01 0.0000000E+00 -8.1904262E-01
outer loop
vertex 2.5810000E-02 1.9803001E-02 -3.0758999E-02
vertex 2.4992000E-02 2.0971000E-02 -3.1332001E-02
vertex 2.5810000E-02 2.9000999E-02 -3.0758999E-02
endloop
endfacet
facet normal 5.7343775E-01 4.4776305E-05 -8.1924909E-01
outer loop
vertex 2.5810000E-02 2.9000999E-02 -3.0758999E-02
vertex 2.4992000E-02 2.0971000E-02 -3.1332001E-02
vertex 2.0970000E-02 2.4992000E-02 -3.4147002E-02
endloop
endfacet
facet normal 5.7358366E-01 0.0000000E+00 -8.1914699E-01
outer loop
vertex 2.0075999E-02 2.9000999E-02 -3.4773000E-02
vertex 2.0970000E-02 2.4992000E-02 -3.4147002E-02
vertex 2.0075999E-02 2.5618000E-02 -3.4773000E-02
endloop
endfacet
facet normal 5.7348150E-01 -3.3935397E-05 -8.1921852E-01
outer loop
vertex 2.0075999E-02 2.9000999E-02 -3.4773000E-02
vertex 2.5810000E-02 2.9000999E-02 -3.0758999E-02
vertex 2.0970000E-02 2.4992000E-02 -3.4147002E-02
endloop
endfacet
facet normal 4.2278031E-01 0.0000000E+00 -9.0623224E-01
outer loop
vertex 2.0075999E-02 2.5618000E-02 -3.4773000E-02
vertex 1.6311999E-02 2.8254000E-02 -3.6529001E-02
vertex 2.0075999E-02 2.9000999E-02 -3.4773000E-02
endloop
endfacet
facet normal 4.2265442E-01 7.7127496E-04 -9.0629059E-01
outer loop
vertex 2.0075999E-02 2.9000999E-02 -3.4773000E-02
vertex 1.6311999E-02 2.8254000E-02 -3.6529001E-02
vertex 1.4711000E-02 2.9000999E-02 -3.7275001E-02
endloop
endfacet
facet normal -4.2278031E-01 -0.0000000E+00 -9.0623230E-01
outer loop
vertex -2.0075999E-02 -2.5617000E-02 -3.4773000E-02
vertex -1.6311999E-02 -2.8253000E-02 -3.6529001E-02
vertex -2.0075999E-02 -2.8999001E-02 -3.4773000E-02
endloop
endfacet
facet normal -4.2265442E-01 -7.7230722E-04 -9.0629059E-01
outer loop
vertex -2.0075999E-02 -2.8999001E-02 -3.4773000E-02
vertex -1.6311999E-02 -2.8253000E-02 -3.6529001E-02
vertex -1.4711000E-02 -2.8999001E-02 -3.7275001E-02
endloop
endfacet
facet normal -5.7373267E-01 -0.0000000E+00 -8.1904262E-01
outer loop
vertex -2.5810000E-02 -1.9801000E-02 -3.0758999E-02
vertex -2.4992000E-02 -2.0970000E-02 -3.1332001E-02
vertex -2.5810000E-02 -2.8999001E-02 -3.0758999E-02
endloop
endfacet
facet normal -5.7343781E-01 -4.4781358E-05 -8.1924915E-01
outer loop
vertex -2.5810000E-02 -2.8999001E-02 -3.0758999E-02
vertex -2.4992000E-02 -2.0970000E-02 -3.1332001E-02
vertex -2.0970000E-02 -2.4991000E-02 -3.4147002E-02
endloop
endfacet
facet normal -5.7358366E-01 0.0000000E+00 -8.1914699E-01
outer loop
vertex -2.0075999E-02 -2.8999001E-02 -3.4773000E-02
vertex -2.0970000E-02 -2.4991000E-02 -3.4147002E-02
vertex -2.0075999E-02 -2.5617000E-02 -3.4773000E-02
endloop
endfacet
facet normal -5.7348150E-01 3.3943848E-05 -8.1921846E-01
outer loop
vertex -2.0075999E-02 -2.8999001E-02 -3.4773000E-02
vertex -2.5810000E-02 -2.8999001E-02 -3.0758999E-02
vertex -2.0970000E-02 -2.4991000E-02 -3.4147002E-02
endloop
endfacet
facet normal -7.0711327E-01 -0.0000000E+00 -7.0710033E-01
outer loop
vertex -3.0758999E-02 -1.0776000E-02 -2.5810000E-02
vertex -3.0657001E-02 -1.1157000E-02 -2.5912000E-02
vertex -3.0758999E-02 -2.8999001E-02 -2.5810000E-02
endloop
endfacet
facet normal -7.0696139E-01 -1.7347602E-06 -7.0725203E-01
outer loop
vertex -3.0758999E-02 -2.8999001E-02 -2.5810000E-02
vertex -3.0657001E-02 -1.1157000E-02 -2.5912000E-02
vertex -2.8253000E-02 -1.6310999E-02 -2.8315000E-02
endloop
endfacet
facet normal -7.0725119E-01 0.0000000E+00 -7.0696229E-01
outer loop
vertex -2.5810000E-02 -2.8999001E-02 -3.0758999E-02
vertex -2.8253000E-02 -1.6310999E-02 -2.8315000E-02
vertex -2.5810000E-02 -1.9801000E-02 -3.0758999E-02
endloop
endfacet
facet normal -7.0710677E-01 5.5643468E-05 -7.0710677E-01
outer loop
vertex -2.5810000E-02 -2.8999001E-02 -3.0758999E-02
vertex -3.0758999E-02 -2.8999001E-02 -2.5810000E-02
vertex -2.8253000E-02 -1.6310999E-02 -2.8315000E-02
endloop
endfacet
facet normal -8.1907409E-01 -0.0000000E+00 -5.7368785E-01
outer loop
vertex -3.0758999E-02 -1.0776000E-02 -2.5810000E-02
vertex -3.0758999E-02 -2.8999001E-02 -2.5810000E-02
vertex -3.2129001E-02 -5.6639998E-03 -2.3854000E-02
endloop
endfacet
facet normal -8.1921852E-01 -2.5770789E-05 -5.7348150E-01
outer loop
vertex -3.2129001E-02 -5.6639998E-03 -2.3854000E-02
vertex -3.0758999E-02 -2.8999001E-02 -2.5810000E-02
vertex -3.4773000E-02 -2.8999001E-02 -2.0075999E-02
endloop
endfacet
facet normal -8.1923193E-01 0.0000000E+00 -5.7346249E-01
outer loop
vertex -3.2623999E-02 1.0000000E-06 -2.3146000E-02
vertex -3.4773000E-02 -2.8999001E-02 -2.0075999E-02
vertex -3.4773000E-02 2.9000999E-02 -2.0075999E-02
endloop
endfacet
facet normal -8.1921852E-01 2.5770791E-05 -5.7348150E-01
outer loop
vertex -3.2129001E-02 5.6659998E-03 -2.3854000E-02
vertex -3.4773000E-02 2.9000999E-02 -2.0075999E-02
vertex -3.0758999E-02 2.9000999E-02 -2.5810000E-02
endloop
endfacet
facet normal -8.1907409E-01 0.0000000E+00 -5.7368779E-01
outer loop
vertex -3.0758999E-02 1.0778000E-02 -2.5810000E-02
vertex -3.2129001E-02 5.6659998E-03 -2.3854000E-02
vertex -3.0758999E-02 2.9000999E-02 -2.5810000E-02
endloop
endfacet
facet normal -8.1940919E-01 -3.9975701E-05 -5.7320893E-01
outer loop
vertex -3.2129001E-02 5.6659998E-03 -2.3854000E-02
vertex -3.2623999E-02 1.0000000E-06 -2.3146000E-02
vertex -3.4773000E-02 2.9000999E-02 -2.0075999E-02
endloop
endfacet
facet normal -8.1940919E-01 3.9970790E-05 -5.7320893E-01
outer loop
vertex -3.4773000E-02 -2.8999001E-02 -2.0075999E-02
vertex -3.2623999E-02 1.0000000E-06 -2.3146000E-02
vertex -3.2129001E-02 -5.6639998E-03 -2.3854000E-02
endloop
endfacet
facet normal -9.0629625E-01 0.0000000E+00 -4.2264292E-01
outer loop
vertex -3.7730999E-02 -2.8999001E-02 -1.3733000E-02
vertex -3.7730999E-02 2.9000999E-02 -1.3733000E-02
vertex -3.4773000E-02 -2.8999001E-02 -2.0075999E-02
endloop
endfacet
facet normal -9.0629625E-01 0.0000000E+00 -4.2264292E-01
outer loop
vertex -3.4773000E-02 -2.8999001E-02 -2.0075999E-02
vertex -3.7730999E-02 2.9000999E-02 -1.3733000E-02
vertex -3.4773000E-02 2.9000999E-02 -2.0075999E-02
endloop
endfacet
facet normal -9.6591163E-01 0.0000000E+00 -2.5887173E-01
outer loop
vertex -3.9542999E-02 -2.8999001E-02 -6.9720000E-03
vertex -3.9542999E-02 2.9000999E-02 -6.9720000E-03
vertex -3.7730999E-02 -2.8999001E-02 -1.3733000E-02
endloop
endfacet
facet normal -9.6591163E-01 0.0000000E+00 -2.5887173E-01
outer loop
vertex -3.7730999E-02 -2.8999001E-02 -1.3733000E-02
vertex -3.9542999E-02 2.9000999E-02 -6.9720000E-03
vertex -3.7730999E-02 2.9000999E-02 -1.3733000E-02
endloop
endfacet
facet normal -9.9619436E-01 0.0000000E+00 -8.7160058E-02
outer loop
vertex -4.0153001E-02 -2.8999001E-02 0.0000000E+00
vertex -4.0153001E-02 2.9000999E-02 0.0000000E+00
vertex -3.9542999E-02 -2.8999001E-02 -6.9720000E-03
endloop
endfacet
facet normal -9.9619436E-01 0.0000000E+00 -8.7160058E-02
outer loop
vertex -3.9542999E-02 -2.8999001E-02 -6.9720000E-03
vertex -4.0153001E-02 2.9000999E-02 0.0000000E+00
vertex -3.9542999E-02 2.9000999E-02 -6.9720000E-03
endloop
endfacet
facet normal -9.9619436E-01 0.0000000E+00 8.7160058E-02
outer loop
vertex -3.9542999E-02 -2.8999001E-02 6.9720000E-03
vertex -3.9542999E-02 2.9000999E-02 6.9720000E-03
vertex -4.0153001E-02 -2.8999001E-02 0.0000000E+00
endloop
endfacet
facet normal -9.9619436E-01 0.0000000E+00 8.7160058E-02
outer loop
vertex -4.0153001E-02 -2.8999001E-02 0.0000000E+00
vertex -3.9542999E-02 2.9000999E-02 6.9720000E-03
vertex -4.0153001E-02 2.9000999E-02 0.0000000E+00
endloop
endfacet
facet normal -9.6591163E-01 0.0000000E+00 2.5887173E-01
outer loop
vertex -3.7730999E-02 -2.8999001E-02 1.3733000E-02
vertex -3.7730999E-02 2.9000999E-02 1.3733000E-02
vertex -3.9542999E-02 -2.8999001E-02 6.9720000E-03
endloop
endfacet
facet normal -9.6591163E-01 0.0000000E+00 2.5887173E-01
outer loop
vertex -3.9542999E-02 -2.8999001E-02 6.9720000E-03
vertex -3.7730999E-02 2.9000999E-02 1.3733000E-02
vertex -3.9542999E-02 2.9000999E-02 6.9720000E-03
endloop
endfacet
facet normal -9.0629625E-01 0.0000000E+00 4.2264292E-01
outer loop
vertex -3.4773000E-02 -2.8999001E-02 2.0075999E-02
vertex -3.4773000E-02 2.9000999E-02 2.0075999E-02
vertex -3.7730999E-02 -2.8999001E-02 1.3733000E-02
endloop
endfacet
facet normal -9.0629625E-01 0.0000000E+00 4.2264292E-01
outer loop
vertex -3.7730999E-02 -2.8999001E-02 1.3733000E-02
vertex -3.4773000E-02 2.9000999E-02 2.0075999E-02
vertex -3.7730999E-02 2.9000999E-02 1.3733000E-02
endloop
endfacet
facet normal -8.1921846E-01 0.0000000E+00 5.7348156E-01
outer loop
vertex -3.0758999E-02 -2.8999001E-02 2.5810000E-02
vertex -3.0758999E-02 2.9000999E-02 2.5810000E-02
vertex -3.4773000E-02 -2.8999001E-02 2.0075999E-02
endloop
endfacet
facet normal -8.1921846E-01 0.0000000E+00 5.7348156E-01
outer loop
vertex -3.4773000E-02 -2.8999001E-02 2.0075999E-02
vertex -3.0758999E-02 2.9000999E-02 2.5810000E-02
vertex -3.4773000E-02 2.9000999E-02 2.0075999E-02
endloop
endfacet
facet normal -7.0710683E-01 0.0000000E+00 7.0710683E-01
outer loop
vertex -2.5810000E-02 -2.8999001E-02 3.0758999E-02
vertex -2.5810000E-02 2.9000999E-02 3.0758999E-02
vertex -3.0758999E-02 -2.8999001E-02 2.5810000E-02
endloop
endfacet
facet normal -7.0710683E-01 0.0000000E+00 7.0710683E-01
outer loop
vertex -3.0758999E-02 -2.8999001E-02 2.5810000E-02
vertex -2.5810000E-02 2.9000999E-02 3.0758999E-02
vertex -3.0758999E-02 2.9000999E-02 2.5810000E-02
endloop
endfacet
facet normal -5.7348156E-01 0.0000000E+00 8.1921846E-01
outer loop
vertex -2.0075999E-02 -2.8999001E-02 3.4773000E-02
vertex -2.0075999E-02 2.9000999E-02 3.4773000E-02
vertex -2.5810000E-02 -2.8999001E-02 3.0758999E-02
endloop
endfacet
facet normal -5.7348156E-01 0.0000000E+00 8.1921846E-01
outer loop
vertex -2.5810000E-02 -2.8999001E-02 3.0758999E-02
vertex -2.0075999E-02 2.9000999E-02 3.4773000E-02
vertex -2.5810000E-02 2.9000999E-02 3.0758999E-02
endloop
endfacet
facet normal -4.2264292E-01 0.0000000E+00 9.0629625E-01
outer loop
vertex -1.3733000E-02 -2.8999001E-02 3.7730999E-02
vertex -1.3733000E-02 2.9000999E-02 3.7730999E-02
vertex -2.0075999E-02 -2.8999001E-02 3.4773000E-02
endloop
endfacet
facet normal -4.2264292E-01 0.0000000E+00 9.0629625E-01
outer loop
vertex -2.0075999E-02 -2.8999001E-02 3.4773000E-02
vertex -1.3733000E-02 2.9000999E-02 3.7730999E-02
vertex -2.0075999E-02 2.9000999E-02 3.4773000E-02
endloop
endfacet
facet normal -2.5887173E-01 0.0000000E+00 9.6591163E-01
outer loop
vertex -6.9720000E-03 -2.8999001E-02 3.9542999E-02
vertex -6.9720000E-03 2.9000999E-02 3.9542999E-02
vertex -1.3733000E-02 -2.8999001E-02 3.7730999E-02
endloop
endfacet
facet normal -2.5887173E-01 0.0000000E+00 9.6591163E-01
outer loop
vertex -1.3733000E-02 -2.8999001E-02 3.7730999E-02
vertex -6.9720000E-03 2.9000999E-02 3.9542999E-02
vertex -1.3733000E-02 2.9000999E-02 3.7730999E-02
endloop
endfacet
facet normal -8.7160058E-02 0.0000000E+00 9.9619436E-01
outer loop
vertex 0.0000000E+00 -2.8999001E-02 4.0153001E-02
vertex 0.0000000E+00 2.9000999E-02 4.0153001E-02
vertex -6.9720000E-03 -2.8999001E-02 3.9542999E-02
endloop
endfacet
facet normal -8.7160058E-02 0.0000000E+00 9.9619436E-01
outer loop
vertex -6.9720000E-03 -2.8999001E-02 3.9542999E-02
vertex 0.0000000E+00 2.9000999E-02 4.0153001E-02
vertex -6.9720000E-03 2.9000999E-02 3.9542999E-02
endloop
endfacet
facet normal 8.7160058E-02 -0.0000000E+00 9.9619436E-01
outer loop
vertex 6.9720000E-03 -2.8999001E-02 3.9542999E-02
vertex 6.9720000E-03 2.9000999E-02 3.9542999E-02
vertex 0.0000000E+00 -2.8999001E-02 4.0153001E-02
endloop
endfacet
facet normal 8.7160058E-02 -0.0000000E+00 9.9619436E-01
outer loop
vertex 0.0000000E+00 -2.8999001E-02 4.0153001E-02
vertex 6.9720000E-03 2.9000999E-02 3.9542999E-02
vertex 0.0000000E+00 2.9000999E-02 4.0153001E-02
endloop
endfacet
facet normal 2.5887173E-01 -0.0000000E+00 9.6591163E-01
outer loop
vertex 1.3733000E-02 -2.8999001E-02 3.7730999E-02
vertex 1.3733000E-02 2.9000999E-02 3.7730999E-02
vertex 6.9720000E-03 -2.8999001E-02 3.9542999E-02
endloop
endfacet
facet normal 2.5887173E-01 -0.0000000E+00 9.6591163E-01
outer loop
vertex 6.9720000E-03 -2.8999001E-02 3.9542999E-02
vertex 1.3733000E-02 2.9000999E-02 3.7730999E-02
vertex 6.9720000E-03 2.9000999E-02 3.9542999E-02
endloop
endfacet
facet normal 4.2264292E-01 -0.0000000E+00 9.0629625E-01
outer loop
vertex 2.0075999E-02 -2.8999001E-02 3.4773000E-02
vertex 2.0075999E-02 2.9000999E-02 3.4773000E-02
vertex 1.3733000E-02 -2.8999001E-02 3.7730999E-02
endloop
endfacet
facet normal 4.2264292E-01 -0.0000000E+00 9.0629625E-01
outer loop
vertex 1.3733000E-02 -2.8999001E-02 3.7730999E-02
vertex 2.0075999E-02 2.9000999E-02 3.4773000E-02
vertex 1.3733000E-02 2.9000999E-02 3.7730999E-02
endloop
endfacet
facet normal 5.7348156E-01 -0.0000000E+00 8.1921846E-01
outer loop
vertex 2.5810000E-02 -2.8999001E-02 3.0758999E-02
vertex 2.5810000E-02 2.9000999E-02 3.0758999E-02
vertex 2.0075999E-02 -2.8999001E-02 3.4773000E-02
endloop
endfacet
facet normal 5.7348156E-01 -0.0000000E+00 8.1921846E-01
outer loop
vertex 2.0075999E-02 -2.8999001E-02 3.4773000E-02
vertex 2.5810000E-02 2.9000999E-02 3.0758999E-02
vertex 2.0075999E-02 2.9000999E-02 3.4773000E-02
endloop
endfacet
facet normal 7.0710683E-01 -0.0000000E+00 7.0710683E-01
outer loop
vertex 3.0758999E-02 -2.8999001E-02 2.5810000E-02
vertex 3.0758999E-02 2.9000999E-02 2.5810000E-02
vertex 2.5810000E-02 -2.8999001E-02 3.0758999E-02
endloop
endfacet
facet normal 7.0710683E-01 -0.0000000E+00 7.0710683E-01
outer loop
vertex 2.5810000E-02 -2.8999001E-02 3.0758999E-02
vertex 3.0758999E-02 2.9000999E-02 2.5810000E-02
vertex 2.5810000E-02 2.9000999E-02 3.0758999E-02
endloop
endfacet
facet normal 8.1921846E-01 -0.0000000E+00 5.7348156E-01
outer loop
vertex 3.4773000E-02 -2.8999001E-02 2.0075999E-02
vertex 3.4773000E-02 2.9000999E-02 2.0075999E-02
vertex 3.0758999E-02 -2.8999001E-02 2.5810000E-02
endloop
endfacet
facet normal 8.1921846E-01 -0.0000000E+00 5.7348156E-01
outer loop
vertex 3.0758999E-02 -2.8999001E-02 2.5810000E-02
vertex 3.4773000E-02 2.9000999E-02 2.0075999E-02
vertex 3.0758999E-02 2.9000999E-02 2.5810000E-02
endloop
endfacet
facet normal 9.0629625E-01 -0.0000000E+00 4.2264292E-01
outer loop
vertex 3.7730999E-02 -2.8999001E-02 1.3733000E-02
vertex 3.7730999E-02 2.9000999E-02 1.3733000E-02
vertex 3.4773000E-02 -2.8999001E-02 2.0075999E-02
endloop
endfacet
facet normal 9.0629625E-01 -0.0000000E+00 4.2264292E-01
outer loop
vertex 3.4773000E-02 -2.8999001E-02 2.0075999E-02
vertex 3.7730999E-02 2.9000999E-02 1.3733000E-02
vertex 3.4773000E-02 2.9000999E-02 2.0075999E-02
endloop
endfacet
facet normal 9.6591163E-01 -0.0000000E+00 2.5887173E-01
outer loop
vertex 3.9542999E-02 -2.8999001E-02 6.9720000E-03
vertex 3.9542999E-02 2.9000999E-02 6.9720000E-03
vertex 3.7730999E-02 -2.8999001E-02 1.3733000E-02
endloop
endfacet
facet normal 9.6591163E-01 -0.0000000E+00 2.5887173E-01
outer loop
vertex 3.7730999E-02 -2.8999001E-02 1.3733000E-02
vertex 3.9542999E-02 2.9000999E-02 6.9720000E-03
vertex 3.7730999E-02 2.9000999E-02 1.3733000E-02
endloop
endfacet
facet normal 9.9619436E-01 -0.0000000E+00 8.7160058E-02
outer loop
vertex 4.0153001E-02 -2.8999001E-02 0.0000000E+00
vertex 4.0153001E-02 2.9000999E-02 0.0000000E+00
vertex 3.9542999E-02 -2.8999001E-02 6.9720000E-03
endloop
endfacet
facet normal 9.9619436E-01 -0.0000000E+00 8.7160058E-02
outer loop
vertex 3.9542999E-02 -2.8999001E-02 6.9720000E-03
vertex 4.0153001E-02 2.9000999E-02 0.0000000E+00
vertex 3.9542999E-02 2.9000999E-02 6.9720000E-03
endloop
endfacet
facet normal 9.9619436E-01 0.0000000E+00 -8.7160058E-02
outer loop
vertex 3.9542999E-02 -2.8999001E-02 -6.9720000E-03
vertex 3.9542999E-02 2.9000999E-02 -6.9720000E-03
vertex 4.0153001E-02 -2.8999001E-02 0.0000000E+00
endloop
endfacet
facet normal 9.9619436E-01 0.0000000E+00 -8.7160058E-02
outer loop
vertex 4.0153001E-02 -2.8999001E-02 0.0000000E+00
vertex 3.9542999E-02 2.9000999E-02 -6.9720000E-03
vertex 4.0153001E-02 2.9000999E-02 0.0000000E+00
endloop
endfacet
facet normal 9.6591163E-01 0.0000000E+00 -2.5887173E-01
outer loop
vertex 3.7730999E-02 -2.8999001E-02 -1.3733000E-02
vertex 3.7730999E-02 2.9000999E-02 -1.3733000E-02
vertex 3.9542999E-02 -2.8999001E-02 -6.9720000E-03
endloop
endfacet
facet normal 9.6591163E-01 0.0000000E+00 -2.5887173E-01
outer loop
vertex 3.9542999E-02 -2.8999001E-02 -6.9720000E-03
vertex 3.7730999E-02 2.9000999E-02 -1.3733000E-02
vertex 3.9542999E-02 2.9000999E-02 -6.9720000E-03
endloop
endfacet
facet normal 9.0629625E-01 0.0000000E+00 -4.2264292E-01
outer loop
vertex 3.4773000E-02 -2.8999001E-02 -2.0075999E-02
vertex 3.4773000E-02 2.9000999E-02 -2.0075999E-02
vertex 3.7730999E-02 -2.8999001E-02 -1.3733000E-02
endloop
endfacet
facet normal 9.0629625E-01 0.0000000E+00 -4.2264292E-01
outer loop
vertex 3.7730999E-02 -2.8999001E-02 -1.3733000E-02
vertex 3.4773000E-02 2.9000999E-02 -2.0075999E-02
vertex 3.7730999E-02 2.9000999E-02 -1.3733000E-02
endloop
endfacet
facet normal 8.1907409E-01 0.0000000E+00 -5.7368779E-01
outer loop
vertex 3.0758999E-02 1.0778000E-02 -2.5810000E-02
vertex 3.0758999E-02 2.9000999E-02 -2.5810000E-02
vertex 3.2129001E-02 5.6659998E-03 -2.3854000E-02
endloop
endfacet
facet normal 8.1921852E-01 2.5770791E-05 -5.7348150E-01
outer loop
vertex 3.2129001E-02 5.6659998E-03 -2.3854000E-02
vertex 3.0758999E-02 2.9000999E-02 -2.5810000E-02
vertex 3.4773000E-02 2.9000999E-02 -2.0075999E-02
endloop
endfacet
facet normal 8.1923193E-01 0.0000000E+00 -5.7346249E-01
outer loop
vertex 3.2623999E-02 1.0000000E-06 -2.3146000E-02
vertex 3.4773000E-02 2.9000999E-02 -2.0075999E-02
vertex 3.4773000E-02 -2.8999001E-02 -2.0075999E-02
endloop
endfacet
facet normal 8.1921852E-01 -2.5770789E-05 -5.7348150E-01
outer loop
vertex 3.2129001E-02 -5.6639998E-03 -2.3854000E-02
vertex 3.4773000E-02 -2.8999001E-02 -2.0075999E-02
vertex 3.0758999E-02 -2.8999001E-02 -2.5810000E-02
endloop
endfacet
facet normal 8.1907409E-01 0.0000000E+00 -5.7368785E-01
outer loop
vertex 3.0758999E-02 -1.0776000E-02 -2.5810000E-02
vertex 3.2129001E-02 -5.6639998E-03 -2.3854000E-02
vertex 3.0758999E-02 -2.8999001E-02 -2.5810000E-02
endloop
endfacet
facet normal 8.1940919E-01 3.9975701E-05 -5.7320893E-01
outer loop
vertex 3.2129001E-02 -5.6639998E-03 -2.3854000E-02
vertex 3.2623999E-02 1.0000000E-06 -2.3146000E-02
vertex 3.4773000E-02 -2.8999001E-02 -2.0075999E-02
endloop
endfacet
facet normal 8.1940919E-01 -3.9975701E-05 -5.7320893E-01
outer loop
vertex 3.2129001E-02 5.6659998E-03 -2.3854000E-02
vertex 3.4773000E-02 2.9000999E-02 -2.0075999E-02
vertex 3.2623999E-02 1.0000000E-06 -2.3146000E-02
endloop
endfacet
facet normal 7.0718843E-01 8.7905675E-05 -7.0702505E-01
outer loop
vertex 2.5810000E-02 -1.9801000E-02 -3.0758999E-02
vertex 2.8253000E-02 -1.6310999E-02 -2.8315000E-02
vertex 3.0758999E-02 -2.8999001E-02 -2.5810000E-02
endloop
endfacet
facet normal 7.0710677E-01 0.0000000E+00 -7.0710677E-01
outer loop
vertex 2.5810000E-02 -2.8999001E-02 -3.0758999E-02
vertex 2.5810000E-02 -1.9801000E-02 -3.0758999E-02
vertex 3.0758999E-02 -2.8999001E-02 -2.5810000E-02
endloop
endfacet
facet normal 7.0711327E-01 0.0000000E+00 -7.0710033E-01
outer loop
vertex 3.0758999E-02 -1.0776000E-02 -2.5810000E-02
vertex 3.0758999E-02 -2.8999001E-02 -2.5810000E-02
vertex 3.0657001E-02 -1.1157000E-02 -2.5912000E-02
endloop
endfacet
facet normal 7.0696145E-01 -1.7347602E-06 -7.0725203E-01
outer loop
vertex 3.0657001E-02 -1.1157000E-02 -2.5912000E-02
vertex 3.0758999E-02 -2.8999001E-02 -2.5810000E-02
vertex 2.8253000E-02 -1.6310999E-02 -2.8315000E-02
endloop
endfacet
facet normal 5.7343781E-01 -4.4781358E-05 -8.1924915E-01
outer loop
vertex 2.4992000E-02 -2.0970000E-02 -3.1332001E-02
vertex 2.5810000E-02 -2.8999001E-02 -3.0758999E-02
vertex 2.0970000E-02 -2.4991000E-02 -3.4147002E-02
endloop
endfacet
facet normal 5.7373267E-01 0.0000000E+00 -8.1904262E-01
outer loop
vertex 2.4992000E-02 -2.0970000E-02 -3.1332001E-02
vertex 2.5810000E-02 -1.9801000E-02 -3.0758999E-02
vertex 2.5810000E-02 -2.8999001E-02 -3.0758999E-02
endloop
endfacet
facet normal 5.7348150E-01 3.3976270E-05 -8.1921846E-01
outer loop
vertex 2.5810000E-02 -2.8999001E-02 -3.0758999E-02
vertex 2.0075999E-02 -2.8999001E-02 -3.4773000E-02
vertex 2.0970000E-02 -2.4991000E-02 -3.4147002E-02
endloop
endfacet
facet normal 5.7358366E-01 0.0000000E+00 -8.1914699E-01
outer loop
vertex 2.0970000E-02 -2.4991000E-02 -3.4147002E-02
vertex 2.0075999E-02 -2.8999001E-02 -3.4773000E-02
vertex 2.0075999E-02 -2.5617000E-02 -3.4773000E-02
endloop
endfacet
facet normal 4.2265442E-01 -7.7241019E-04 -9.0629059E-01
outer loop
vertex 1.4711000E-02 -2.8999001E-02 -3.7275001E-02
vertex 1.6311999E-02 -2.8253000E-02 -3.6529001E-02
vertex 2.0075999E-02 -2.8999001E-02 -3.4773000E-02
endloop
endfacet
facet normal 4.2278031E-01 0.0000000E+00 -9.0623230E-01
outer loop
vertex 2.0075999E-02 -2.8999001E-02 -3.4773000E-02
vertex 1.6311999E-02 -2.8253000E-02 -3.6529001E-02
vertex 2.0075999E-02 -2.5617000E-02 -3.4773000E-02
endloop
endfacet
facet normal -4.2265442E-01 7.7137782E-04 -9.0629059E-01
outer loop
vertex -1.4711000E-02 2.9000999E-02 -3.7275001E-02
vertex -1.6311999E-02 2.8254000E-02 -3.6529001E-02
vertex -2.0075999E-02 2.9000999E-02 -3.4773000E-02
endloop
endfacet
facet normal -4.2278031E-01 -0.0000000E+00 -9.0623224E-01
outer loop
vertex -2.0075999E-02 2.9000999E-02 -3.4773000E-02
vertex -1.6311999E-02 2.8254000E-02 -3.6529001E-02
vertex -2.0075999E-02 2.5618000E-02 -3.4773000E-02
endloop
endfacet
facet normal -5.7343775E-01 4.4776301E-05 -8.1924903E-01
outer loop
vertex -2.4992000E-02 2.0971000E-02 -3.1332001E-02
vertex -2.5810000E-02 2.9000999E-02 -3.0758999E-02
vertex -2.0970000E-02 2.4992000E-02 -3.4147002E-02
endloop
endfacet
facet normal -5.7373267E-01 0.0000000E+00 -8.1904262E-01
outer loop
vertex -2.4992000E-02 2.0971000E-02 -3.1332001E-02
vertex -2.5810000E-02 1.9803001E-02 -3.0758999E-02
vertex -2.5810000E-02 2.9000999E-02 -3.0758999E-02
endloop
endfacet
facet normal -5.7348150E-01 -3.3967808E-05 -8.1921852E-01
outer loop
vertex -2.5810000E-02 2.9000999E-02 -3.0758999E-02
vertex -2.0075999E-02 2.9000999E-02 -3.4773000E-02
vertex -2.0970000E-02 2.4992000E-02 -3.4147002E-02
endloop
endfacet
facet normal -5.7358360E-01 0.0000000E+00 -8.1914699E-01
outer loop
vertex -2.0970000E-02 2.4992000E-02 -3.4147002E-02
vertex -2.0075999E-02 2.9000999E-02 -3.4773000E-02
vertex -2.0075999E-02 2.5618000E-02 -3.4773000E-02
endloop
endfacet
facet normal -7.0696145E-01 1.7347604E-06 -7.0725197E-01
outer loop
vertex -3.0657001E-02 1.1159000E-02 -2.5912000E-02
vertex -3.0758999E-02 2.9000999E-02 -2.5810000E-02
vertex -2.8253000E-02 1.6313000E-02 -2.8315000E-02
endloop
endfacet
facet normal -7.0711327E-01 0.0000000E+00 -7.0710039E-01
outer loop
vertex -3.0657001E-02 1.1159000E-02 -2.5912000E-02
vertex -3.0758999E-02 1.0778000E-02 -2.5810000E-02
vertex -3.0758999E-02 2.9000999E-02 -2.5810000E-02
endloop
endfacet
facet normal -7.0710677E-01 -5.5643482E-05 -7.0710677E-01
outer loop
vertex -3.0758999E-02 2.9000999E-02 -2.5810000E-02
vertex -2.5810000E-02 2.9000999E-02 -3.0758999E-02
vertex -2.8253000E-02 1.6313000E-02 -2.8315000E-02
endloop
endfacet
facet normal -7.0725125E-01 0.0000000E+00 -7.0696229E-01
outer loop
vertex -2.8253000E-02 1.6313000E-02 -2.8315000E-02
vertex -2.5810000E-02 2.9000999E-02 -3.0758999E-02
vertex -2.5810000E-02 1.9803001E-02 -3.0758999E-02
endloop
endfacet
facet normal 0.0000000E+00 9.9999994E-01 0.0000000E+00
outer loop
vertex 2.5810000E-02 2.9000999E-02 -3.0758999E-02
vertex 2.0075999E-02 2.9000999E-02 -3.4773000E-02
vertex 2.0075999E-02 2.9000999E-02 3.4773000E-02
endloop
endfacet
facet normal 0.0000000E+00 1.0000000E+00 0.0000000E+00
outer loop
vertex 2.5810000E-02 2.9000999E-02 3.0758999E-02
vertex 2.5810000E-02 2.9000999E-02 -3.0758999E-02
vertex 2.0075999E-02 2.9000999E-02 3.4773000E-02
endloop
endfacet
facet normal 0.0000000E+00 1.0000000E+00 0.0000000E+00
outer loop
vertex 2.5810000E-02 2.9000999E-02 3.0758999E-02
vertex 3.0758999E-02 2.9000999E-02 -2.5810000E-02
vertex 2.5810000E-02 2.9000999E-02 -3.0758999E-02
endloop
endfacet
facet normal 0.0000000E+00 1.0000000E+00 0.0000000E+00
outer loop
vertex 2.5810000E-02 2.9000999E-02 3.0758999E-02
vertex 3.0758999E-02 2.9000999E-02 2.5810000E-02
vertex 3.0758999E-02 2.9000999E-02 -2.5810000E-02
endloop
endfacet
facet normal 0.0000000E+00 1.0000000E+00 0.0000000E+00
outer loop
vertex 3.0758999E-02 2.9000999E-02 -2.5810000E-02
vertex 3.0758999E-02 2.9000999E-02 2.5810000E-02
vertex 3.4773000E-02 2.9000999E-02 -2.0075999E-02
endloop
endfacet
facet normal 0.0000000E+00 1.0000000E+00 -0.0000000E+00
outer loop
vertex 3.4773000E-02 2.9000999E-02 -2.0075999E-02
vertex 3.0758999E-02 2.9000999E-02 2.5810000E-02
vertex 3.4773000E-02 2.9000999E-02 2.0075999E-02
endloop
endfacet
facet normal 0.0000000E+00 1.0000000E+00 -0.0000000E+00
outer loop
vertex 3.7730999E-02 2.9000999E-02 -1.3733000E-02
vertex 3.4773000E-02 2.9000999E-02 2.0075999E-02
vertex 3.7730999E-02 2.9000999E-02 1.3733000E-02
endloop
endfacet
facet normal 0.0000000E+00 1.0000000E+00 -0.0000000E+00
outer loop
vertex 3.9542999E-02 2.9000999E-02 -6.9720000E-03
vertex 3.7730999E-02 2.9000999E-02 1.3733000E-02
vertex 3.9542999E-02 2.9000999E-02 6.9720000E-03
endloop
endfacet
facet normal 0.0000000E+00 1.0000000E+00 0.0000000E+00
outer loop
vertex 4.0153001E-02 2.9000999E-02 0.0000000E+00
vertex 3.9542999E-02 2.9000999E-02 -6.9720000E-03
vertex 3.9542999E-02 2.9000999E-02 6.9720000E-03
endloop
endfacet
facet normal 0.0000000E+00 1.0000000E+00 -0.0000000E+00
outer loop
vertex 1.4711000E-02 2.9000999E-02 -5.2000001E-02
vertex -1.4711000E-02 2.9000999E-02 -3.7275001E-02
vertex 1.4711000E-02 2.9000999E-02 -3.7275001E-02
endloop
endfacet
facet normal 0.0000000E+00 1.0000000E+00 0.0000000E+00
outer loop
vertex 1.4711000E-02 2.9000999E-02 -5.2000001E-02
vertex -1.4711000E-02 2.9000999E-02 -5.2000001E-02
vertex -1.4711000E-02 2.9000999E-02 -3.7275001E-02
endloop
endfacet
facet normal -0.0000000E+00 1.0000000E+00 0.0000000E+00
outer loop
vertex -3.9542999E-02 2.9000999E-02 -6.9720000E-03
vertex -3.9542999E-02 2.9000999E-02 6.9720000E-03
vertex -3.7730999E-02 2.9000999E-02 -1.3733000E-02
endloop
endfacet
facet normal 0.0000000E+00 1.0000000E+00 -0.0000000E+00
outer loop
vertex -3.9542999E-02 2.9000999E-02 -6.9720000E-03
vertex -4.0153001E-02 2.9000999E-02 0.0000000E+00
vertex -3.9542999E-02 2.9000999E-02 6.9720000E-03
endloop
endfacet
facet normal -0.0000000E+00 1.0000000E+00 0.0000000E+00
outer loop
vertex -3.7730999E-02 2.9000999E-02 -1.3733000E-02
vertex -3.7730999E-02 2.9000999E-02 1.3733000E-02
vertex -3.4773000E-02 2.9000999E-02 -2.0075999E-02
endloop
endfacet
facet normal 0.0000000E+00 1.0000000E+00 -0.0000000E+00
outer loop
vertex -3.7730999E-02 2.9000999E-02 -1.3733000E-02
vertex -3.9542999E-02 2.9000999E-02 6.9720000E-03
vertex -3.7730999E-02 2.9000999E-02 1.3733000E-02
endloop
endfacet
facet normal -0.0000000E+00 1.0000000E+00 0.0000000E+00
outer loop
vertex -3.4773000E-02 2.9000999E-02 -2.0075999E-02
vertex -3.4773000E-02 2.9000999E-02 2.0075999E-02
vertex -3.0758999E-02 2.9000999E-02 -2.5810000E-02
endloop
endfacet
facet normal 0.0000000E+00 1.0000000E+00 -0.0000000E+00
outer loop
vertex -3.4773000E-02 2.9000999E-02 -2.0075999E-02
vertex -3.7730999E-02 2.9000999E-02 1.3733000E-02
vertex -3.4773000E-02 2.9000999E-02 2.0075999E-02
endloop
endfacet
facet normal -0.0000000E+00 1.0000000E+00 0.0000000E+00
outer loop
vertex -3.4773000E-02 2.9000999E-02 2.0075999E-02
vertex -3.0758999E-02 2.9000999E-02 2.5810000E-02
vertex -3.0758999E-02 2.9000999E-02 -2.5810000E-02
endloop
endfacet
facet normal -0.0000000E+00 1.0000000E+00 0.0000000E+00
outer loop
vertex -3.0758999E-02 2.9000999E-02 -2.5810000E-02
vertex -3.0758999E-02 2.9000999E-02 2.5810000E-02
vertex -2.5810000E-02 2.9000999E-02 -3.0758999E-02
endloop
endfacet
facet normal 0.0000000E+00 1.0000000E+00 -0.0000000E+00
outer loop
vertex -2.5810000E-02 2.9000999E-02 -3.0758999E-02
vertex -3.0758999E-02 2.9000999E-02 2.5810000E-02
vertex -2.5810000E-02 2.9000999E-02 3.0758999E-02
endloop
endfacet
facet normal 0.0000000E+00 9.9999994E-01 -0.0000000E+00
outer loop
vertex -2.0075999E-02 2.9000999E-02 -3.4773000E-02
vertex -2.5810000E-02 2.9000999E-02 3.0758999E-02
vertex -2.0075999E-02 2.9000999E-02 3.4773000E-02
endloop
endfacet
facet normal 0.0000000E+00 1.0000000E+00 -0.0000000E+00
outer loop
vertex -1.4711000E-02 2.9000999E-02 -3.7275001E-02
vertex -2.0075999E-02 2.9000999E-02 3.4773000E-02
vertex -1.3733000E-02 2.9000999E-02 3.7730999E-02
endloop
endfacet
facet normal 0.0000000E+00 1.0000000E+00 0.0000000E+00
outer loop
vertex -6.9720000E-03 2.9000999E-02 3.9542999E-02
vertex -1.4711000E-02 2.9000999E-02 -3.7275001E-02
vertex -1.3733000E-02 2.9000999E-02 3.7730999E-02
endloop
endfacet
facet normal -0.0000000E+00 1.0000000E+00 0.0000000E+00
outer loop
vertex -6.9720000E-03 2.9000999E-02 3.9542999E-02
vertex 0.0000000E+00 2.9000999E-02 4.0153001E-02
vertex -1.4711000E-02 2.9000999E-02 -3.7275001E-02
endloop
endfacet
facet normal 0.0000000E+00 1.0000000E+00 0.0000000E+00
outer loop
vertex -1.4711000E-02 2.9000999E-02 -3.7275001E-02
vertex 0.0000000E+00 2.9000999E-02 4.0153001E-02
vertex 6.9720000E-03 2.9000999E-02 3.9542999E-02
endloop
endfacet
facet normal 0.0000000E+00 1.0000000E+00 0.0000000E+00
outer loop
vertex 1.3733000E-02 2.9000999E-02 3.7730999E-02
vertex -1.4711000E-02 2.9000999E-02 -3.7275001E-02
vertex 6.9720000E-03 2.9000999E-02 3.9542999E-02
endloop
endfacet
facet normal 0.0000000E+00 1.0000000E+00 0.0000000E+00
outer loop
vertex 1.3733000E-02 2.9000999E-02 3.7730999E-02
vertex 1.4711000E-02 2.9000999E-02 -3.7275001E-02
vertex -1.4711000E-02 2.9000999E-02 -3.7275001E-02
endloop
endfacet
facet normal 0.0000000E+00 1.0000000E+00 0.0000000E+00
outer loop
vertex 1.3733000E-02 2.9000999E-02 3.7730999E-02
vertex 2.0075999E-02 2.9000999E-02 3.4773000E-02
vertex 1.4711000E-02 2.9000999E-02 -3.7275001E-02
endloop
endfacet
facet normal 0.0000000E+00 1.0000000E+00 0.0000000E+00
outer loop
vertex 1.4711000E-02 2.9000999E-02 -3.7275001E-02
vertex 2.0075999E-02 2.9000999E-02 3.4773000E-02
vertex 2.0075999E-02 2.9000999E-02 -3.4773000E-02
endloop
endfacet
facet normal 0.0000000E+00 1.0000000E+00 0.0000000E+00
outer loop
vertex 3.9542999E-02 2.9000999E-02 -6.9720000E-03
vertex 3.7730999E-02 2.9000999E-02 -1.3733000E-02
vertex 3.7730999E-02 2.9000999E-02 1.3733000E-02
endloop
endfacet
facet normal 0.0000000E+00 1.0000000E+00 0.0000000E+00
outer loop
vertex 3.7730999E-02 2.9000999E-02 -1.3733000E-02
vertex 3.4773000E-02 2.9000999E-02 -2.0075999E-02
vertex 3.4773000E-02 2.9000999E-02 2.0075999E-02
endloop
endfacet
facet normal 0.0000000E+00 1.0000000E+00 0.0000000E+00
outer loop
vertex -2.0075999E-02 2.9000999E-02 3.4773000E-02
vertex -1.4711000E-02 2.9000999E-02 -3.7275001E-02
vertex -2.0075999E-02 2.9000999E-02 -3.4773000E-02
endloop
endfacet
facet normal 0.0000000E+00 1.0000000E+00 0.0000000E+00
outer loop
vertex -2.5810000E-02 2.9000999E-02 3.0758999E-02
vertex -2.0075999E-02 2.9000999E-02 -3.4773000E-02
vertex -2.5810000E-02 2.9000999E-02 -3.0758999E-02
endloop
endfacet
facet normal 0.0000000E+00 -1.0000000E+00 0.0000000E+00
outer loop
vertex -1.4711000E-02 -2.8999001E-02 -5.2000001E-02
vertex 1.4711000E-02 -2.8999001E-02 -5.2000001E-02
vertex -1.4711000E-02 -2.8999001E-02 -3.7275001E-02
endloop
endfacet
facet normal 0.0000000E+00 -1.0000000E+00 0.0000000E+00
outer loop
vertex -1.4711000E-02 -2.8999001E-02 -3.7275001E-02
vertex 1.4711000E-02 -2.8999001E-02 -5.2000001E-02
vertex 1.4711000E-02 -2.8999001E-02 -3.7275001E-02
endloop
endfacet
facet normal 0.0000000E+00 -1.0000000E+00 0.0000000E+00
outer loop
vertex 0.0000000E+00 -2.8999001E-02 -1.5000000E-02
vertex 1.4711000E-02 -2.8999001E-02 -3.7275001E-02
vertex 1.0607000E-02 -2.8999001E-02 -1.0607000E-02
endloop
endfacet
facet normal 0.0000000E+00 -1.0000000E+00 -0.0000000E+00
outer loop
vertex 0.0000000E+00 -2.8999001E-02 -1.5000000E-02
vertex -1.4711000E-02 -2.8999001E-02 -3.7275001E-02
vertex 1.4711000E-02 -2.8999001E-02 -3.7275001E-02
endloop
endfacet
facet normal -0.0000000E+00 -1.0000000E+00 0.0000000E+00
outer loop
vertex 0.0000000E+00 -2.8999001E-02 -1.5000000E-02
vertex -1.0607000E-02 -2.8999001E-02 -1.0607000E-02
vertex -1.4711000E-02 -2.8999001E-02 -3.7275001E-02
endloop
endfacet
facet normal 0.0000000E+00 -1.0000000E+00 0.0000000E+00
outer loop
vertex -1.4711000E-02 -2.8999001E-02 -3.7275001E-02
vertex -1.0607000E-02 -2.8999001E-02 -1.0607000E-02
vertex -2.0075999E-02 -2.8999001E-02 -3.4773000E-02
endloop
endfacet
facet normal 0.0000000E+00 -1.0000000E+00 0.0000000E+00
outer loop
vertex -2.0075999E-02 -2.8999001E-02 -3.4773000E-02
vertex -1.0607000E-02 -2.8999001E-02 -1.0607000E-02
vertex -2.5810000E-02 -2.8999001E-02 -3.0758999E-02
endloop
endfacet
facet normal 0.0000000E+00 -1.0000000E+00 0.0000000E+00
outer loop
vertex -2.5810000E-02 -2.8999001E-02 -3.0758999E-02
vertex -1.0607000E-02 -2.8999001E-02 -1.0607000E-02
vertex -3.0758999E-02 -2.8999001E-02 -2.5810000E-02
endloop
endfacet
facet normal 0.0000000E+00 -1.0000000E+00 0.0000000E+00
outer loop
vertex -3.0758999E-02 -2.8999001E-02 -2.5810000E-02
vertex -1.0607000E-02 -2.8999001E-02 -1.0607000E-02
vertex -3.4773000E-02 -2.8999001E-02 -2.0075999E-02
endloop
endfacet
facet normal 0.0000000E+00 -1.0000000E+00 0.0000000E+00
outer loop
vertex -3.4773000E-02 -2.8999001E-02 -2.0075999E-02
vertex -1.0607000E-02 -2.8999001E-02 -1.0607000E-02
vertex -1.5000000E-02 -2.8999001E-02 0.0000000E+00
endloop
endfacet
facet normal 0.0000000E+00 -1.0000000E+00 0.0000000E+00
outer loop
vertex -3.7730999E-02 -2.8999001E-02 -1.3733000E-02
vertex -1.5000000E-02 -2.8999001E-02 0.0000000E+00
vertex -3.9542999E-02 -2.8999001E-02 -6.9720000E-03
endloop
endfacet
facet normal 0.0000000E+00 -1.0000000E+00 0.0000000E+00
outer loop
vertex -3.7730999E-02 -2.8999001E-02 -1.3733000E-02
vertex -3.4773000E-02 -2.8999001E-02 -2.0075999E-02
vertex -1.5000000E-02 -2.8999001E-02 0.0000000E+00
endloop
endfacet
facet normal 0.0000000E+00 -1.0000000E+00 0.0000000E+00
outer loop
vertex 1.4711000E-02 -2.8999001E-02 -3.7275001E-02
vertex 2.0075999E-02 -2.8999001E-02 -3.4773000E-02
vertex 1.0607000E-02 -2.8999001E-02 -1.0607000E-02
endloop
endfacet
facet normal 0.0000000E+00 -1.0000000E+00 0.0000000E+00
outer loop
vertex 1.0607000E-02 -2.8999001E-02 -1.0607000E-02
vertex 2.0075999E-02 -2.8999001E-02 -3.4773000E-02
vertex 2.5810000E-02 -2.8999001E-02 -3.0758999E-02
endloop
endfacet
facet normal -0.0000000E+00 -1.0000000E+00 0.0000000E+00
outer loop
vertex 3.0758999E-02 -2.8999001E-02 -2.5810000E-02
vertex 1.0607000E-02 -2.8999001E-02 -1.0607000E-02
vertex 2.5810000E-02 -2.8999001E-02 -3.0758999E-02
endloop
endfacet
facet normal 0.0000000E+00 -1.0000000E+00 0.0000000E+00
outer loop
vertex 3.0758999E-02 -2.8999001E-02 -2.5810000E-02
vertex 3.4773000E-02 -2.8999001E-02 -2.0075999E-02
vertex 1.0607000E-02 -2.8999001E-02 -1.0607000E-02
endloop
endfacet
facet normal 0.0000000E+00 -1.0000000E+00 0.0000000E+00
outer loop
vertex 1.0607000E-02 -2.8999001E-02 -1.0607000E-02
vertex 3.4773000E-02 -2.8999001E-02 -2.0075999E-02
vertex 1.5000000E-02 -2.8999001E-02 0.0000000E+00
endloop
endfacet
facet normal 0.0000000E+00 -1.0000000E+00 0.0000000E+00
outer loop
vertex 1.5000000E-02 -2.8999001E-02 0.0000000E+00
vertex 3.4773000E-02 -2.8999001E-02 -2.0075999E-02
vertex 3.7730999E-02 -2.8999001E-02 -1.3733000E-02
endloop
endfacet
facet normal -0.0000000E+00 -1.0000000E+00 0.0000000E+00
outer loop
vertex 3.9542999E-02 -2.8999001E-02 -6.9720000E-03
vertex 1.5000000E-02 -2.8999001E-02 0.0000000E+00
vertex 3.7730999E-02 -2.8999001E-02 -1.3733000E-02
endloop
endfacet
facet normal 0.0000000E+00 -1.0000000E+00 0.0000000E+00
outer loop
vertex 3.9542999E-02 -2.8999001E-02 -6.9720000E-03
vertex 4.0153001E-02 -2.8999001E-02 0.0000000E+00
vertex 1.5000000E-02 -2.8999001E-02 0.0000000E+00
endloop
endfacet
facet normal 0.0000000E+00 -1.0000000E+00 0.0000000E+00
outer loop
vertex 1.5000000E-02 -2.8999001E-02 0.0000000E+00
vertex 4.0153001E-02 -2.8999001E-02 0.0000000E+00
vertex 3.9542999E-02 -2.8999001E-02 6.9720000E-03
endloop
endfacet
facet normal 0.0000000E+00 -1.0000000E+00 -0.0000000E+00
outer loop
vertex 3.7730999E-02 -2.8999001E-02 1.3733000E-02
vertex 1.5000000E-02 -2.8999001E-02 0.0000000E+00
vertex 3.9542999E-02 -2.8999001E-02 6.9720000E-03
endloop
endfacet
facet normal -0.0000000E+00 -1.0000000E+00 0.0000000E+00
outer loop
vertex 3.7730999E-02 -2.8999001E-02 1.3733000E-02
vertex 3.4773000E-02 -2.8999001E-02 2.0075999E-02
vertex 1.5000000E-02 -2.8999001E-02 0.0000000E+00
endloop
endfacet
facet normal 0.0000000E+00 -1.0000000E+00 0.0000000E+00
outer loop
vertex 1.5000000E-02 -2.8999001E-02 0.0000000E+00
vertex 3.4773000E-02 -2.8999001E-02 2.0075999E-02
vertex 1.0607000E-02 -2.8999001E-02 1.0607000E-02
endloop
endfacet
facet normal 0.0000000E+00 -1.0000000E+00 0.0000000E+00
outer loop
vertex 1.0607000E-02 -2.8999001E-02 1.0607000E-02
vertex 3.4773000E-02 -2.8999001E-02 2.0075999E-02
vertex 3.0758999E-02 -2.8999001E-02 2.5810000E-02
endloop
endfacet
facet normal 0.0000000E+00 -1.0000000E+00 -0.0000000E+00
outer loop
vertex 2.5810000E-02 -2.8999001E-02 3.0758999E-02
vertex 1.0607000E-02 -2.8999001E-02 1.0607000E-02
vertex 3.0758999E-02 -2.8999001E-02 2.5810000E-02
endloop
endfacet
facet normal -0.0000000E+00 -1.0000000E+00 0.0000000E+00
outer loop
vertex 2.5810000E-02 -2.8999001E-02 3.0758999E-02
vertex 2.0075999E-02 -2.8999001E-02 3.4773000E-02
vertex 1.0607000E-02 -2.8999001E-02 1.0607000E-02
endloop
endfacet
facet normal 0.0000000E+00 -1.0000000E+00 0.0000000E+00
outer loop
vertex 1.0607000E-02 -2.8999001E-02 1.0607000E-02
vertex 2.0075999E-02 -2.8999001E-02 3.4773000E-02
vertex 1.3733000E-02 -2.8999001E-02 3.7730999E-02
endloop
endfacet
facet normal 0.0000000E+00 -1.0000000E+00 0.0000000E+00
outer loop
vertex 0.0000000E+00 -2.8999001E-02 1.5000000E-02
vertex 1.3733000E-02 -2.8999001E-02 3.7730999E-02
vertex 6.9720000E-03 -2.8999001E-02 3.9542999E-02
endloop
endfacet
facet normal 0.0000000E+00 -1.0000000E+00 0.0000000E+00
outer loop
vertex 0.0000000E+00 -2.8999001E-02 4.0153001E-02
vertex 0.0000000E+00 -2.8999001E-02 1.5000000E-02
vertex 6.9720000E-03 -2.8999001E-02 3.9542999E-02
endloop
endfacet
facet normal 0.0000000E+00 -1.0000000E+00 -0.0000000E+00
outer loop
vertex 0.0000000E+00 -2.8999001E-02 4.0153001E-02
vertex -6.9720000E-03 -2.8999001E-02 3.9542999E-02
vertex 0.0000000E+00 -2.8999001E-02 1.5000000E-02
endloop
endfacet
facet normal 0.0000000E+00 -1.0000000E+00 0.0000000E+00
outer loop
vertex 0.0000000E+00 -2.8999001E-02 1.5000000E-02
vertex -6.9720000E-03 -2.8999001E-02 3.9542999E-02
vertex -1.3733000E-02 -2.8999001E-02 3.7730999E-02
endloop
endfacet
facet normal 0.0000000E+00 -1.0000000E+00 0.0000000E+00
outer loop
vertex -1.0607000E-02 -2.8999001E-02 1.0607000E-02
vertex -1.3733000E-02 -2.8999001E-02 3.7730999E-02
vertex -2.0075999E-02 -2.8999001E-02 3.4773000E-02
endloop
endfacet
facet normal 0.0000000E+00 -1.0000000E+00 0.0000000E+00
outer loop
vertex -2.5810000E-02 -2.8999001E-02 3.0758999E-02
vertex -1.0607000E-02 -2.8999001E-02 1.0607000E-02
vertex -2.0075999E-02 -2.8999001E-02 3.4773000E-02
endloop
endfacet
facet normal 0.0000000E+00 -1.0000000E+00 -0.0000000E+00
outer loop
vertex -2.5810000E-02 -2.8999001E-02 3.0758999E-02
vertex -3.0758999E-02 -2.8999001E-02 2.5810000E-02
vertex -1.0607000E-02 -2.8999001E-02 1.0607000E-02
endloop
endfacet
facet normal 0.0000000E+00 -1.0000000E+00 0.0000000E+00
outer loop
vertex -1.0607000E-02 -2.8999001E-02 1.0607000E-02
vertex -3.0758999E-02 -2.8999001E-02 2.5810000E-02
vertex -3.4773000E-02 -2.8999001E-02 2.0075999E-02
endloop
endfacet
facet normal 0.0000000E+00 -1.0000000E+00 0.0000000E+00
outer loop
vertex -1.5000000E-02 -2.8999001E-02 0.0000000E+00
vertex -3.4773000E-02 -2.8999001E-02 2.0075999E-02
vertex -3.7730999E-02 -2.8999001E-02 1.3733000E-02
endloop
endfacet
facet normal 0.0000000E+00 -1.0000000E+00 0.0000000E+00
outer loop
vertex -3.9542999E-02 -2.8999001E-02 6.9720000E-03
vertex -1.5000000E-02 -2.8999001E-02 0.0000000E+00
vertex -3.7730999E-02 -2.8999001E-02 1.3733000E-02
endloop
endfacet
facet normal 0.0000000E+00 -1.0000000E+00 -0.0000000E+00
outer loop
vertex -3.9542999E-02 -2.8999001E-02 6.9720000E-03
vertex -4.0153001E-02 -2.8999001E-02 0.0000000E+00
vertex -1.5000000E-02 -2.8999001E-02 0.0000000E+00
endloop
endfacet
facet normal -0.0000000E+00 -1.0000000E+00 0.0000000E+00
outer loop
vertex -1.5000000E-02 -2.8999001E-02 0.0000000E+00
vertex -4.0153001E-02 -2.8999001E-02 0.0000000E+00
vertex -3.9542999E-02 -2.8999001E-02 -6.9720000E-03
endloop
endfacet
facet normal 0.0000000E+00 -9.9999994E-01 0.0000000E+00
outer loop
vertex 0.0000000E+00 -2.8999001E-02 1.5000000E-02
vertex 1.0607000E-02 -2.8999001E-02 1.0607000E-02
vertex 1.3733000E-02 -2.8999001E-02 3.7730999E-02
endloop
endfacet
facet normal 0.0000000E+00 -1.0000000E+00 0.0000000E+00
outer loop
vertex -1.5000000E-02 -2.8999001E-02 0.0000000E+00
vertex -1.0607000E-02 -2.8999001E-02 1.0607000E-02
vertex -3.4773000E-02 -2.8999001E-02 2.0075999E-02
endloop
endfacet
facet normal 0.0000000E+00 -1.0000000E+00 0.0000000E+00
outer loop
vertex -1.0607000E-02 -2.8999001E-02 1.0607000E-02
vertex 0.0000000E+00 -2.8999001E-02 1.5000000E-02
vertex -1.3733000E-02 -2.8999001E-02 3.7730999E-02
endloop
endfacet
facet normal -9.9620426E-01 -8.7046616E-02 -0.0000000E+00
outer loop
vertex -3.2623999E-02 1.0000000E-06 -2.3146000E-02
vertex -3.2623999E-02 1.0000000E-06 -5.2000001E-02
vertex -3.2129001E-02 -5.6639998E-03 -2.3854000E-02
endloop
endfacet
facet normal -9.9620426E-01 -8.7046623E-02 -0.0000000E+00
outer loop
vertex -3.2129001E-02 -5.6639998E-03 -2.3854000E-02
vertex -3.2623999E-02 1.0000000E-06 -5.2000001E-02
vertex -3.2129001E-02 -5.6639998E-03 -5.2000001E-02
endloop
endfacet
facet normal -9.9620426E-01 8.7046616E-02 0.0000000E+00
outer loop
vertex -3.2129001E-02 5.6659998E-03 -2.3854000E-02
vertex -3.2129001E-02 5.6659998E-03 -5.2000001E-02
vertex -3.2623999E-02 1.0000000E-06 -2.3146000E-02
endloop
endfacet
facet normal -9.9620432E-01 8.7046608E-02 0.0000000E+00
outer loop
vertex -3.2623999E-02 1.0000000E-06 -2.3146000E-02
vertex -3.2129001E-02 5.6659998E-03 -5.2000001E-02
vertex -3.2623999E-02 1.0000000E-06 -5.2000001E-02
endloop
endfacet
facet normal 9.9620432E-01 8.7046608E-02 0.0000000E+00
outer loop
vertex 3.2623999E-02 1.0000000E-06 -2.3146000E-02
vertex 3.2623999E-02 1.0000000E-06 -5.2000001E-02
vertex 3.2129001E-02 5.6659998E-03 -2.3854000E-02
endloop
endfacet
facet normal 9.9620426E-01 8.7046616E-02 0.0000000E+00
outer loop
vertex 3.2129001E-02 5.6659998E-03 -2.3854000E-02
vertex 3.2623999E-02 1.0000000E-06 -5.2000001E-02
vertex 3.2129001E-02 5.6659998E-03 -5.2000001E-02
endloop
endfacet
facet normal 9.9620426E-01 -8.7046623E-02 0.0000000E+00
outer loop
vertex 3.2129001E-02 -5.6639998E-03 -2.3854000E-02
vertex 3.2129001E-02 -5.6639998E-03 -5.2000001E-02
vertex 3.2623999E-02 1.0000000E-06 -2.3146000E-02
endloop
endfacet
facet normal 9.9620426E-01 -8.7046616E-02 0.0000000E+00
outer loop
vertex 3.2623999E-02 1.0000000E-06 -2.3146000E-02
vertex 3.2129001E-02 -5.6639998E-03 -5.2000001E-02
vertex 3.2623999E-02 1.0000000E-06 -5.2000001E-02
endloop
endfacet
facet normal 9.0626395E-01 4.2271230E-01 0.0000000E+00
outer loop
vertex 3.0657001E-02 1.1159000E-02 -2.5912000E-02
vertex 3.0657001E-02 1.1159000E-02 -5.2000001E-02
vertex 2.8253000E-02 1.6313000E-02 -2.8315000E-02
endloop
endfacet
facet normal 9.0626395E-01 4.2271233E-01 0.0000000E+00
outer loop
vertex 2.8253000E-02 1.6313000E-02 -2.8315000E-02
vertex 3.0657001E-02 1.1159000E-02 -5.2000001E-02
vertex 2.8253000E-02 1.6313000E-02 -5.2000001E-02
endloop
endfacet
facet normal 9.6591419E-01 2.5886229E-01 0.0000000E+00
outer loop
vertex 3.2129001E-02 5.6659998E-03 -2.3854000E-02
vertex 3.2129001E-02 5.6659998E-03 -5.2000001E-02
vertex 3.0758999E-02 1.0778000E-02 -2.5810000E-02
endloop
endfacet
facet normal 9.6591902E-01 2.5884452E-01 3.7265211E-06
outer loop
vertex 3.0758999E-02 1.0778000E-02 -2.5810000E-02
vertex 3.2129001E-02 5.6659998E-03 -5.2000001E-02
vertex 3.0657001E-02 1.1159000E-02 -5.2000001E-02
endloop
endfacet
facet normal 9.6598297E-01 2.5860545E-01 0.0000000E+00
outer loop
vertex 3.0657001E-02 1.1159000E-02 -2.5912000E-02
vertex 3.0758999E-02 1.0778000E-02 -2.5810000E-02
vertex 3.0657001E-02 1.1159000E-02 -5.2000001E-02
endloop
endfacet
facet normal 9.6591431E-01 -2.5886229E-01 0.0000000E+00
outer loop
vertex 3.2129001E-02 -5.6639998E-03 -2.3854000E-02
vertex 3.0758999E-02 -1.0776000E-02 -2.5810000E-02
vertex 3.2129001E-02 -5.6639998E-03 -5.2000001E-02
endloop
endfacet
facet normal 9.6591902E-01 -2.5884447E-01 3.7280472E-06
outer loop
vertex 3.2129001E-02 -5.6639998E-03 -5.2000001E-02
vertex 3.0758999E-02 -1.0776000E-02 -2.5810000E-02
vertex 3.0657001E-02 -1.1157000E-02 -5.2000001E-02
endloop
endfacet
facet normal 9.6598297E-01 -2.5860545E-01 0.0000000E+00
outer loop
vertex 3.0657001E-02 -1.1157000E-02 -5.2000001E-02
vertex 3.0758999E-02 -1.0776000E-02 -2.5810000E-02
vertex 3.0657001E-02 -1.1157000E-02 -2.5912000E-02
endloop
endfacet
facet normal 9.0626389E-01 -4.2271233E-01 0.0000000E+00
outer loop
vertex 3.0657001E-02 -1.1157000E-02 -2.5912000E-02
vertex 2.8253000E-02 -1.6310999E-02 -2.8315000E-02
vertex 3.0657001E-02 -1.1157000E-02 -5.2000001E-02
endloop
endfacet
facet normal 9.0626395E-01 -4.2271239E-01 0.0000000E+00
outer loop
vertex 3.0657001E-02 -1.1157000E-02 -5.2000001E-02
vertex 2.8253000E-02 -1.6310999E-02 -2.8315000E-02
vertex 2.8253000E-02 -1.6310999E-02 -5.2000001E-02
endloop
endfacet
facet normal 7.0701879E-01 7.0719469E-01 0.0000000E+00
outer loop
vertex 2.4992000E-02 2.0971000E-02 -3.1332001E-02
vertex 2.4992000E-02 2.0971000E-02 -5.2000001E-02
vertex 2.0970000E-02 2.4992000E-02 -3.4147002E-02
endloop
endfacet
facet normal 7.0701879E-01 7.0719463E-01 0.0000000E+00
outer loop
vertex 2.0970000E-02 2.4992000E-02 -3.4147002E-02
vertex 2.4992000E-02 2.0971000E-02 -5.2000001E-02
vertex 2.0970000E-02 2.4992000E-02 -5.2000001E-02
endloop
endfacet
facet normal 8.1923187E-01 5.7346231E-01 0.0000000E+00
outer loop
vertex 2.8253000E-02 1.6313000E-02 -2.8315000E-02
vertex 2.8253000E-02 1.6313000E-02 -5.2000001E-02
vertex 2.5810000E-02 1.9803001E-02 -3.0758999E-02
endloop
endfacet
facet normal 8.1919885E-01 5.7350945E-01 -1.1545904E-05
outer loop
vertex 2.5810000E-02 1.9803001E-02 -3.0758999E-02
vertex 2.8253000E-02 1.6313000E-02 -5.2000001E-02
vertex 2.4992000E-02 2.0971000E-02 -5.2000001E-02
endloop
endfacet
facet normal 8.1910026E-01 5.7365036E-01 0.0000000E+00
outer loop
vertex 2.4992000E-02 2.0971000E-02 -3.1332001E-02
vertex 2.5810000E-02 1.9803001E-02 -3.0758999E-02
vertex 2.4992000E-02 2.0971000E-02 -5.2000001E-02
endloop
endfacet
facet normal 8.1923187E-01 -5.7346231E-01 0.0000000E+00
outer loop
vertex 2.8253000E-02 -1.6310999E-02 -2.8315000E-02
vertex 2.5810000E-02 -1.9801000E-02 -3.0758999E-02
vertex 2.8253000E-02 -1.6310999E-02 -5.2000001E-02
endloop
endfacet
facet normal 8.1925678E-01 -5.7342690E-01 8.6887694E-06
outer loop
vertex 2.8253000E-02 -1.6310999E-02 -5.2000001E-02
vertex 2.5810000E-02 -1.9801000E-02 -3.0758999E-02
vertex 2.4992000E-02 -2.0970000E-02 -5.2000001E-02
endloop
endfacet
facet normal 8.1933093E-01 -5.7332093E-01 0.0000000E+00
outer loop
vertex 2.4992000E-02 -2.0970000E-02 -5.2000001E-02
vertex 2.5810000E-02 -1.9801000E-02 -3.0758999E-02
vertex 2.4992000E-02 -2.0970000E-02 -3.1332001E-02
endloop
endfacet
facet normal 7.0701879E-01 -7.0719469E-01 0.0000000E+00
outer loop
vertex 2.4992000E-02 -2.0970000E-02 -3.1332001E-02
vertex 2.0970000E-02 -2.4991000E-02 -3.4147002E-02
vertex 2.4992000E-02 -2.0970000E-02 -5.2000001E-02
endloop
endfacet
facet normal 7.0701879E-01 -7.0719463E-01 0.0000000E+00
outer loop
vertex 2.4992000E-02 -2.0970000E-02 -5.2000001E-02
vertex 2.0970000E-02 -2.4991000E-02 -3.4147002E-02
vertex 2.0970000E-02 -2.4991000E-02 -5.2000001E-02
endloop
endfacet
facet normal 5.7358479E-01 8.1914628E-01 0.0000000E+00
outer loop
vertex 2.0970000E-02 2.4992000E-02 -3.4147002E-02
vertex 2.0970000E-02 2.4992000E-02 -5.2000001E-02
vertex 2.0075999E-02 2.5618000E-02 -3.4773000E-02
endloop
endfacet
facet normal 5.7363641E-01 8.1911004E-01 3.9962142E-06
outer loop
vertex 2.0075999E-02 2.5618000E-02 -3.4773000E-02
vertex 2.0970000E-02 2.4992000E-02 -5.2000001E-02
vertex 1.6311999E-02 2.8254000E-02 -3.6529001E-02
endloop
endfacet
facet normal 5.7362753E-01 8.1911629E-01 0.0000000E+00
outer loop
vertex 1.6311999E-02 2.8254000E-02 -3.6529001E-02
vertex 2.0970000E-02 2.4992000E-02 -5.2000001E-02
vertex 1.6311999E-02 2.8254000E-02 -5.2000001E-02
endloop
endfacet
facet normal 5.7358479E-01 -8.1914628E-01 0.0000000E+00
outer loop
vertex 2.0970000E-02 -2.4991000E-02 -3.4147002E-02
vertex 2.0075999E-02 -2.5617000E-02 -3.4773000E-02
vertex 2.0970000E-02 -2.4991000E-02 -5.2000001E-02
endloop
endfacet
facet normal 5.7362753E-01 -8.1911623E-01 3.3074355E-06
outer loop
vertex 2.0970000E-02 -2.4991000E-02 -5.2000001E-02
vertex 2.0075999E-02 -2.5617000E-02 -3.4773000E-02
vertex 1.6311999E-02 -2.8253000E-02 -5.2000001E-02
endloop
endfacet
facet normal 5.7363760E-01 -8.1910908E-01 0.0000000E+00
outer loop
vertex 1.6311999E-02 -2.8253000E-02 -5.2000001E-02
vertex 2.0075999E-02 -2.5617000E-02 -3.4773000E-02
vertex 1.6311999E-02 -2.8253000E-02 -3.6529001E-02
endloop
endfacet
facet normal -5.7363760E-01 -8.1910908E-01 -0.0000000E+00
outer loop
vertex -1.6311999E-02 -2.8253000E-02 -3.6529001E-02
vertex -2.0075999E-02 -2.5617000E-02 -3.4773000E-02
vertex -1.6311999E-02 -2.8253000E-02 -5.2000001E-02
endloop
endfacet
facet normal -5.7362753E-01 -8.1911623E-01 3.3143986E-06
outer loop
vertex -1.6311999E-02 -2.8253000E-02 -5.2000001E-02
vertex -2.0075999E-02 -2.5617000E-02 -3.4773000E-02
vertex -2.0970000E-02 -2.4991000E-02 -5.2000001E-02
endloop
endfacet
facet normal -5.7358479E-01 -8.1914628E-01 0.0000000E+00
outer loop
vertex -2.0970000E-02 -2.4991000E-02 -5.2000001E-02
vertex -2.0075999E-02 -2.5617000E-02 -3.4773000E-02
vertex -2.0970000E-02 -2.4991000E-02 -3.4147002E-02
endloop
endfacet
facet normal -7.0701879E-01 -7.0719469E-01 -0.0000000E+00
outer loop
vertex -2.4992000E-02 -2.0970000E-02 -3.1332001E-02
vertex -2.4992000E-02 -2.0970000E-02 -5.2000001E-02
vertex -2.0970000E-02 -2.4991000E-02 -3.4147002E-02
endloop
endfacet
facet normal -7.0701879E-01 -7.0719463E-01 -0.0000000E+00
outer loop
vertex -2.0970000E-02 -2.4991000E-02 -3.4147002E-02
vertex -2.4992000E-02 -2.0970000E-02 -5.2000001E-02
vertex -2.0970000E-02 -2.4991000E-02 -5.2000001E-02
endloop
endfacet
facet normal -7.0701879E-01 7.0719469E-01 0.0000000E+00
outer loop
vertex -2.4992000E-02 2.0971000E-02 -3.1332001E-02
vertex -2.0970000E-02 2.4992000E-02 -3.4147002E-02
vertex -2.4992000E-02 2.0971000E-02 -5.2000001E-02
endloop
endfacet
facet normal -7.0701879E-01 7.0719463E-01 0.0000000E+00
outer loop
vertex -2.4992000E-02 2.0971000E-02 -5.2000001E-02
vertex -2.0970000E-02 2.4992000E-02 -3.4147002E-02
vertex -2.0970000E-02 2.4992000E-02 -5.2000001E-02
endloop
endfacet
facet normal -5.7363760E-01 8.1910908E-01 0.0000000E+00
outer loop
vertex -1.6311999E-02 2.8254000E-02 -3.6529001E-02
vertex -1.6311999E-02 2.8254000E-02 -5.2000001E-02
vertex -2.0075999E-02 2.5618000E-02 -3.4773000E-02
endloop
endfacet
facet normal -5.7362753E-01 8.1911623E-01 3.3074352E-06
outer loop
vertex -2.0075999E-02 2.5618000E-02 -3.4773000E-02
vertex -1.6311999E-02 2.8254000E-02 -5.2000001E-02
vertex -2.0970000E-02 2.4992000E-02 -5.2000001E-02
endloop
endfacet
facet normal -5.7358479E-01 8.1914628E-01 0.0000000E+00
outer loop
vertex -2.0970000E-02 2.4992000E-02 -3.4147002E-02
vertex -2.0075999E-02 2.5618000E-02 -3.4773000E-02
vertex -2.0970000E-02 2.4992000E-02 -5.2000001E-02
endloop
endfacet
facet normal -8.1933093E-01 -5.7332093E-01 -0.0000000E+00
outer loop
vertex -2.4992000E-02 -2.0970000E-02 -3.1332001E-02
vertex -2.5810000E-02 -1.9801000E-02 -3.0758999E-02
vertex -2.4992000E-02 -2.0970000E-02 -5.2000001E-02
endloop
endfacet
facet normal -8.1925678E-01 -5.7342690E-01 8.6868868E-06
outer loop
vertex -2.4992000E-02 -2.0970000E-02 -5.2000001E-02
vertex -2.5810000E-02 -1.9801000E-02 -3.0758999E-02
vertex -2.8253000E-02 -1.6310999E-02 -5.2000001E-02
endloop
endfacet
facet normal -8.1923187E-01 -5.7346231E-01 0.0000000E+00
outer loop
vertex -2.8253000E-02 -1.6310999E-02 -5.2000001E-02
vertex -2.5810000E-02 -1.9801000E-02 -3.0758999E-02
vertex -2.8253000E-02 -1.6310999E-02 -2.8315000E-02
endloop
endfacet
facet normal -9.0626389E-01 -4.2271233E-01 -0.0000000E+00
outer loop
vertex -3.0657001E-02 -1.1157000E-02 -2.5912000E-02
vertex -3.0657001E-02 -1.1157000E-02 -5.2000001E-02
vertex -2.8253000E-02 -1.6310999E-02 -2.8315000E-02
endloop
endfacet
facet normal -9.0626395E-01 -4.2271239E-01 -0.0000000E+00
outer loop
vertex -2.8253000E-02 -1.6310999E-02 -2.8315000E-02
vertex -3.0657001E-02 -1.1157000E-02 -5.2000001E-02
vertex -2.8253000E-02 -1.6310999E-02 -5.2000001E-02
endloop
endfacet
facet normal -9.6591431E-01 -2.5886229E-01 -0.0000000E+00
outer loop
vertex -3.2129001E-02 -5.6639998E-03 -2.3854000E-02
vertex -3.2129001E-02 -5.6639998E-03 -5.2000001E-02
vertex -3.0758999E-02 -1.0776000E-02 -2.5810000E-02
endloop
endfacet
facet normal -9.6591902E-01 -2.5884447E-01 3.7261389E-06
outer loop
vertex -3.0758999E-02 -1.0776000E-02 -2.5810000E-02
vertex -3.2129001E-02 -5.6639998E-03 -5.2000001E-02
vertex -3.0657001E-02 -1.1157000E-02 -5.2000001E-02
endloop
endfacet
facet normal -9.6598297E-01 -2.5860545E-01 -0.0000000E+00
outer loop
vertex -3.0657001E-02 -1.1157000E-02 -2.5912000E-02
vertex -3.0758999E-02 -1.0776000E-02 -2.5810000E-02
vertex -3.0657001E-02 -1.1157000E-02 -5.2000001E-02
endloop
endfacet
facet normal -9.6591419E-01 2.5886229E-01 0.0000000E+00
outer loop
vertex -3.2129001E-02 5.6659998E-03 -2.3854000E-02
vertex -3.0758999E-02 1.0778000E-02 -2.5810000E-02
vertex -3.2129001E-02 5.6659998E-03 -5.2000001E-02
endloop
endfacet
facet normal -9.6591902E-01 2.5884447E-01 3.7249938E-06
outer loop
vertex -3.2129001E-02 5.6659998E-03 -5.2000001E-02
vertex -3.0758999E-02 1.0778000E-02 -2.5810000E-02
vertex -3.0657001E-02 1.1159000E-02 -5.2000001E-02
endloop
endfacet
facet normal -9.6598297E-01 2.5860545E-01 0.0000000E+00
outer loop
vertex -3.0657001E-02 1.1159000E-02 -5.2000001E-02
vertex -3.0758999E-02 1.0778000E-02 -2.5810000E-02
vertex -3.0657001E-02 1.1159000E-02 -2.5912000E-02
endloop
endfacet
facet normal -9.0626395E-01 4.2271230E-01 0.0000000E+00
outer loop
vertex -3.0657001E-02 1.1159000E-02 -2.5912000E-02
vertex -2.8253000E-02 1.6313000E-02 -2.8315000E-02
vertex -3.0657001E-02 1.1159000E-02 -5.2000001E-02
endloop
endfacet
facet normal -9.0626395E-01 4.2271233E-01 0.0000000E+00
outer loop
vertex -3.0657001E-02 1.1159000E-02 -5.2000001E-02
vertex -2.8253000E-02 1.6313000E-02 -2.8315000E-02
vertex -2.8253000E-02 1.6313000E-02 -5.2000001E-02
endloop
endfacet
facet normal -8.1910026E-01 5.7365036E-01 0.0000000E+00
outer loop
vertex -2.4992000E-02 2.0971000E-02 -3.1332001E-02
vertex -2.4992000E-02 2.0971000E-02 -5.2000001E-02
vertex -2.5810000E-02 1.9803001E-02 -3.0758999E-02
endloop
endfacet
facet normal -8.1919885E-01 5.7350945E-01 -1.1545904E-05
outer loop
vertex -2.5810000E-02 1.9803001E-02 -3.0758999E-02
vertex -2.4992000E-02 2.0971000E-02 -5.2000001E-02
vertex -2.8253000E-02 1.6313000E-02 -5.2000001E-02
endloop
endfacet
facet normal -8.1923187E-01 5.7346231E-01 0.0000000E+00
outer loop
vertex -2.8253000E-02 1.6313000E-02 -2.8315000E-02
vertex -2.5810000E-02 1.9803001E-02 -3.0758999E-02
vertex -2.8253000E-02 1.6313000E-02 -5.2000001E-02
endloop
endfacet
facet normal 4.2282313E-01 9.0621221E-01 0.0000000E+00
outer loop
vertex 1.6311999E-02 2.8254000E-02 -3.6529001E-02
vertex 1.6311999E-02 2.8254000E-02 -5.2000001E-02
vertex 1.4711000E-02 2.9000999E-02 -3.7275001E-02
endloop
endfacet
facet normal 4.2282310E-01 9.0621215E-01 0.0000000E+00
outer loop
vertex 1.4711000E-02 2.9000999E-02 -3.7275001E-02
vertex 1.6311999E-02 2.8254000E-02 -5.2000001E-02
vertex 1.4711000E-02 2.9000999E-02 -5.2000001E-02
endloop
endfacet
facet normal -4.2282310E-01 9.0621215E-01 0.0000000E+00
outer loop
vertex -1.4711000E-02 2.9000999E-02 -3.7275001E-02
vertex -1.4711000E-02 2.9000999E-02 -5.2000001E-02
vertex -1.6311999E-02 2.8254000E-02 -3.6529001E-02
endloop
endfacet
facet normal -4.2282313E-01 9.0621221E-01 0.0000000E+00
outer loop
vertex -1.6311999E-02 2.8254000E-02 -3.6529001E-02
vertex -1.4711000E-02 2.9000999E-02 -5.2000001E-02
vertex -1.6311999E-02 2.8254000E-02 -5.2000001E-02
endloop
endfacet
facet normal 4.2235887E-01 -9.0642864E-01 0.0000000E+00
outer loop
vertex 1.4711000E-02 -2.8999001E-02 -3.7275001E-02
vertex 1.4711000E-02 -2.8999001E-02 -5.2000001E-02
vertex 1.6311999E-02 -2.8253000E-02 -3.6529001E-02
endloop
endfacet
facet normal 4.2235887E-01 -9.0642869E-01 0.0000000E+00
outer loop
vertex 1.6311999E-02 -2.8253000E-02 -3.6529001E-02
vertex 1.4711000E-02 -2.8999001E-02 -5.2000001E-02
vertex 1.6311999E-02 -2.8253000E-02 -5.2000001E-02
endloop
endfacet
facet normal -4.2235887E-01 -9.0642869E-01 -0.0000000E+00
outer loop
vertex -1.6311999E-02 -2.8253000E-02 -3.6529001E-02
vertex -1.6311999E-02 -2.8253000E-02 -5.2000001E-02
vertex -1.4711000E-02 -2.8999001E-02 -3.7275001E-02
endloop
endfacet
facet normal -4.2235887E-01 -9.0642864E-01 -0.0000000E+00
outer loop
vertex -1.4711000E-02 -2.8999001E-02 -3.7275001E-02
vertex -1.6311999E-02 -2.8253000E-02 -5.2000001E-02
vertex -1.4711000E-02 -2.8999001E-02 -5.2000001E-02
endloop
endfacet
facet normal 0.0000000E+00 0.0000000E+00 -1.0000000E+00
outer loop
vertex -2.0970000E-02 2.4992000E-02 -5.2000001E-02
vertex -1.6311999E-02 2.8254000E-02 -5.2000001E-02
vertex -1.0607000E-02 1.0607000E-02 -5.2000001E-02
endloop
endfacet
facet normal 0.0000000E+00 -0.0000000E+00 -9.9999994E-01
outer loop
vertex -2.4992000E-02 2.0971000E-02 -5.2000001E-02
vertex -1.0607000E-02 1.0607000E-02 -5.2000001E-02
vertex -2.8253000E-02 1.6313000E-02 -5.2000001E-02
endloop
endfacet
facet normal 0.0000000E+00 0.0000000E+00 -9.9999994E-01
outer loop
vertex -2.4992000E-02 2.0971000E-02 -5.2000001E-02
vertex -2.0970000E-02 2.4992000E-02 -5.2000001E-02
vertex -1.0607000E-02 1.0607000E-02 -5.2000001E-02
endloop
endfacet
facet normal -0.0000000E+00 0.0000000E+00 -1.0000000E+00
outer loop
vertex 1.6311999E-02 2.8254000E-02 -5.2000001E-02
vertex 1.0607000E-02 1.0607000E-02 -5.2000001E-02
vertex 1.4711000E-02 2.9000999E-02 -5.2000001E-02
endloop
endfacet
facet normal 0.0000000E+00 -0.0000000E+00 -1.0000000E+00
outer loop
vertex 1.6311999E-02 2.8254000E-02 -5.2000001E-02
vertex 2.0970000E-02 2.4992000E-02 -5.2000001E-02
vertex 1.0607000E-02 1.0607000E-02 -5.2000001E-02
endloop
endfacet
facet normal 0.0000000E+00 0.0000000E+00 -1.0000000E+00
outer loop
vertex 1.0607000E-02 1.0607000E-02 -5.2000001E-02
vertex 2.0970000E-02 2.4992000E-02 -5.2000001E-02
vertex 2.4992000E-02 2.0971000E-02 -5.2000001E-02
endloop
endfacet
facet normal -0.0000000E+00 0.0000000E+00 -9.9999994E-01
outer loop
vertex 2.8253000E-02 1.6313000E-02 -5.2000001E-02
vertex 1.0607000E-02 1.0607000E-02 -5.2000001E-02
vertex 2.4992000E-02 2.0971000E-02 -5.2000001E-02
endloop
endfacet
facet normal 0.0000000E+00 -0.0000000E+00 -1.0000000E+00
outer loop
vertex 2.8253000E-02 1.6313000E-02 -5.2000001E-02
vertex 3.0657001E-02 1.1159000E-02 -5.2000001E-02
vertex 1.0607000E-02 1.0607000E-02 -5.2000001E-02
endloop
endfacet
facet normal 0.0000000E+00 0.0000000E+00 -1.0000000E+00
outer loop
vertex 1.0607000E-02 1.0607000E-02 -5.2000001E-02
vertex 3.0657001E-02 1.1159000E-02 -5.2000001E-02
vertex 1.5000000E-02 1.0000000E-06 -5.2000001E-02
endloop
endfacet
facet normal 0.0000000E+00 0.0000000E+00 -9.9999994E-01
outer loop
vertex 1.5000000E-02 1.0000000E-06 -5.2000001E-02
vertex 3.0657001E-02 1.1159000E-02 -5.2000001E-02
vertex 3.2129001E-02 5.6659998E-03 -5.2000001E-02
endloop
endfacet
facet normal 0.0000000E+00 0.0000000E+00 -1.0000000E+00
outer loop
vertex 3.2623999E-02 1.0000000E-06 -5.2000001E-02
vertex 1.5000000E-02 1.0000000E-06 -5.2000001E-02
vertex 3.2129001E-02 5.6659998E-03 -5.2000001E-02
endloop
endfacet
facet normal -0.0000000E+00 0.0000000E+00 -9.9999994E-01
outer loop
vertex 3.2623999E-02 1.0000000E-06 -5.2000001E-02
vertex 3.2129001E-02 -5.6639998E-03 -5.2000001E-02
vertex 1.5000000E-02 1.0000000E-06 -5.2000001E-02
endloop
endfacet
facet normal 0.0000000E+00 0.0000000E+00 -1.0000000E+00
outer loop
vertex 1.5000000E-02 1.0000000E-06 -5.2000001E-02
vertex 3.2129001E-02 -5.6639998E-03 -5.2000001E-02
vertex 3.0657001E-02 -1.1157000E-02 -5.2000001E-02
endloop
endfacet
facet normal 0.0000000E+00 0.0000000E+00 -1.0000000E+00
outer loop
vertex 1.0607000E-02 -1.0606000E-02 -5.2000001E-02
vertex 3.0657001E-02 -1.1157000E-02 -5.2000001E-02
vertex 2.8253000E-02 -1.6310999E-02 -5.2000001E-02
endloop
endfacet
facet normal 0.0000000E+00 0.0000000E+00 -1.0000000E+00
outer loop
vertex 2.4992000E-02 -2.0970000E-02 -5.2000001E-02
vertex 1.0607000E-02 -1.0606000E-02 -5.2000001E-02
vertex 2.8253000E-02 -1.6310999E-02 -5.2000001E-02
endloop
endfacet
facet normal -0.0000000E+00 0.0000000E+00 -9.9999994E-01
outer loop
vertex 2.4992000E-02 -2.0970000E-02 -5.2000001E-02
vertex 2.0970000E-02 -2.4991000E-02 -5.2000001E-02
vertex 1.0607000E-02 -1.0606000E-02 -5.2000001E-02
endloop
endfacet
facet normal 0.0000000E+00 0.0000000E+00 -1.0000000E+00
outer loop
vertex 1.0607000E-02 -1.0606000E-02 -5.2000001E-02
vertex 2.0970000E-02 -2.4991000E-02 -5.2000001E-02
vertex 1.6311999E-02 -2.8253000E-02 -5.2000001E-02
endloop
endfacet
facet normal 0.0000000E+00 0.0000000E+00 -1.0000000E+00
outer loop
vertex 1.4711000E-02 -2.8999001E-02 -5.2000001E-02
vertex 1.0607000E-02 -1.0606000E-02 -5.2000001E-02
vertex 1.6311999E-02 -2.8253000E-02 -5.2000001E-02
endloop
endfacet
facet normal 0.0000000E+00 0.0000000E+00 -9.9999994E-01
outer loop
vertex 1.4711000E-02 -2.8999001E-02 -5.2000001E-02
vertex 0.0000000E+00 -1.4999000E-02 -5.2000001E-02
vertex 1.0607000E-02 -1.0606000E-02 -5.2000001E-02
endloop
endfacet
facet normal 0.0000000E+00 0.0000000E+00 -9.9999994E-01
outer loop
vertex 1.4711000E-02 -2.8999001E-02 -5.2000001E-02
vertex -1.4711000E-02 -2.8999001E-02 -5.2000001E-02
vertex 0.0000000E+00 -1.4999000E-02 -5.2000001E-02
endloop
endfacet
facet normal -0.0000000E+00 0.0000000E+00 -1.0000000E+00
outer loop
vertex 0.0000000E+00 -1.4999000E-02 -5.2000001E-02
vertex -1.4711000E-02 -2.8999001E-02 -5.2000001E-02
vertex -1.0607000E-02 -1.0606000E-02 -5.2000001E-02
endloop
endfacet
facet normal 0.0000000E+00 0.0000000E+00 -1.0000000E+00
outer loop
vertex -1.0607000E-02 -1.0606000E-02 -5.2000001E-02
vertex -1.4711000E-02 -2.8999001E-02 -5.2000001E-02
vertex -1.6311999E-02 -2.8253000E-02 -5.2000001E-02
endloop
endfacet
facet normal 0.0000000E+00 0.0000000E+00 -1.0000000E+00
outer loop
vertex -2.0970000E-02 -2.4991000E-02 -5.2000001E-02
vertex -1.0607000E-02 -1.0606000E-02 -5.2000001E-02
vertex -1.6311999E-02 -2.8253000E-02 -5.2000001E-02
endloop
endfacet
facet normal 0.0000000E+00 0.0000000E+00 -9.9999994E-01
outer loop
vertex -2.0970000E-02 -2.4991000E-02 -5.2000001E-02
vertex -2.4992000E-02 -2.0970000E-02 -5.2000001E-02
vertex -1.0607000E-02 -1.0606000E-02 -5.2000001E-02
endloop
endfacet
facet normal 0.0000000E+00 0.0000000E+00 -1.0000000E+00
outer loop
vertex -1.0607000E-02 -1.0606000E-02 -5.2000001E-02
vertex -2.4992000E-02 -2.0970000E-02 -5.2000001E-02
vertex -2.8253000E-02 -1.6310999E-02 -5.2000001E-02
endloop
endfacet
facet normal 0.0000000E+00 0.0000000E+00 -1.0000000E+00
outer loop
vertex -3.0657001E-02 -1.1157000E-02 -5.2000001E-02
vertex -1.0607000E-02 -1.0606000E-02 -5.2000001E-02
vertex -2.8253000E-02 -1.6310999E-02 -5.2000001E-02
endloop
endfacet
facet normal 0.0000000E+00 0.0000000E+00 -1.0000000E+00
outer loop
vertex -3.0657001E-02 -1.1157000E-02 -5.2000001E-02
vertex -1.5000000E-02 1.0000000E-06 -5.2000001E-02
vertex -1.0607000E-02 -1.0606000E-02 -5.2000001E-02
endloop
endfacet
facet normal 0.0000000E+00 0.0000000E+00 -1.0000000E+00
outer loop
vertex -3.0657001E-02 -1.1157000E-02 -5.2000001E-02
vertex -3.2129001E-02 -5.6639998E-03 -5.2000001E-02
vertex -1.5000000E-02 1.0000000E-06 -5.2000001E-02
endloop
endfacet
facet normal -0.0000000E+00 0.0000000E+00 -9.9999994E-01
outer loop
vertex -1.5000000E-02 1.0000000E-06 -5.2000001E-02
vertex -3.2129001E-02 -5.6639998E-03 -5.2000001E-02
vertex -3.2623999E-02 1.0000000E-06 -5.2000001E-02
endloop
endfacet
facet normal 0.0000000E+00 -0.0000000E+00 -1.0000000E+00
outer loop
vertex -3.2129001E-02 5.6659998E-03 -5.2000001E-02
vertex -1.5000000E-02 1.0000000E-06 -5.2000001E-02
vertex -3.2623999E-02 1.0000000E-06 -5.2000001E-02
endloop
endfacet
facet normal 0.0000000E+00 0.0000000E+00 -1.0000000E+00
outer loop
vertex -3.2129001E-02 5.6659998E-03 -5.2000001E-02
vertex -3.0657001E-02 1.1159000E-02 -5.2000001E-02
vertex -1.5000000E-02 1.0000000E-06 -5.2000001E-02
endloop
endfacet
facet normal 0.0000000E+00 0.0000000E+00 -1.0000000E+00
outer loop
vertex -1.5000000E-02 1.0000000E-06 -5.2000001E-02
vertex -3.0657001E-02 1.1159000E-02 -5.2000001E-02
vertex -1.0607000E-02 1.0607000E-02 -5.2000001E-02
endloop
endfacet
facet normal 0.0000000E+00 0.0000000E+00 -1.0000000E+00
outer loop
vertex -1.0607000E-02 1.0607000E-02 -5.2000001E-02
vertex -3.0657001E-02 1.1159000E-02 -5.2000001E-02
vertex -2.8253000E-02 1.6313000E-02 -5.2000001E-02
endloop
endfacet
facet normal 0.0000000E+00 0.0000000E+00 -1.0000000E+00
outer loop
vertex 1.0607000E-02 1.0607000E-02 -5.2000001E-02
vertex 0.0000000E+00 1.5001000E-02 -5.2000001E-02
vertex 1.4711000E-02 2.9000999E-02 -5.2000001E-02
endloop
endfacet
facet normal -0.0000000E+00 0.0000000E+00 -1.0000000E+00
outer loop
vertex 1.4711000E-02 2.9000999E-02 -5.2000001E-02
vertex 0.0000000E+00 1.5001000E-02 -5.2000001E-02
vertex -1.4711000E-02 2.9000999E-02 -5.2000001E-02
endloop
endfacet
facet normal 0.0000000E+00 0.0000000E+00 -1.0000000E+00
outer loop
vertex -1.4711000E-02 2.9000999E-02 -5.2000001E-02
vertex 0.0000000E+00 1.5001000E-02 -5.2000001E-02
vertex -1.0607000E-02 1.0607000E-02 -5.2000001E-02
endloop
endfacet
facet normal 0.0000000E+00 0.0000000E+00 -1.0000000E+00
outer loop
vertex -1.6311999E-02 2.8254000E-02 -5.2000001E-02
vertex -1.4711000E-02 2.9000999E-02 -5.2000001E-02
vertex -1.0607000E-02 1.0607000E-02 -5.2000001E-02
endloop
endfacet
facet normal 0.0000000E+00 0.0000000E+00 -1.0000000E+00
outer loop
vertex 1.0607000E-02 -1.0606000E-02 -5.2000001E-02
vertex 1.5000000E-02 1.0000000E-06 -5.2000001E-02
vertex 3.0657001E-02 -1.1157000E-02 -5.2000001E-02
endloop
endfacet
facet normal -0.0000000E+00 -1.0000000E+00 0.0000000E+00
outer loop
vertex 1.0607000E-02 -1.8998999E-02 -1.0607000E-02
vertex 1.0607000E-02 -1.8998999E-02 1.0607000E-02
vertex 0.0000000E+00 -1.8998999E-02 -1.5000000E-02
endloop
endfacet
facet normal 0.0000000E+00 -1.0000000E+00 0.0000000E+00
outer loop
vertex 1.0607000E-02 -1.8998999E-02 -1.0607000E-02
vertex 1.5000000E-02 -1.8998999E-02 0.0000000E+00
vertex 1.0607000E-02 -1.8998999E-02 1.0607000E-02
endloop
endfacet
facet normal -0.0000000E+00 -1.0000000E+00 0.0000000E+00
outer loop
vertex 1.0607000E-02 -1.8998999E-02 1.0607000E-02
vertex 0.0000000E+00 -1.8998999E-02 1.5000000E-02
vertex 0.0000000E+00 -1.8998999E-02 -1.5000000E-02
endloop
endfacet
facet normal 0.0000000E+00 -1.0000000E+00 0.0000000E+00
outer loop
vertex 0.0000000E+00 -1.8998999E-02 -1.5000000E-02
vertex 0.0000000E+00 -1.8998999E-02 1.5000000E-02
vertex -1.0607000E-02 -1.8998999E-02 -1.0607000E-02
endloop
endfacet
facet normal 0.0000000E+00 -1.0000000E+00 0.0000000E+00
outer loop
vertex -1.0607000E-02 -1.8998999E-02 -1.0607000E-02
vertex 0.0000000E+00 -1.8998999E-02 1.5000000E-02
vertex -1.0607000E-02 -1.8998999E-02 1.0607000E-02
endloop
endfacet
facet normal 0.0000000E+00 -1.0000000E+00 0.0000000E+00
outer loop
vertex -1.5000000E-02 -1.8998999E-02 0.0000000E+00
vertex -1.0607000E-02 -1.8998999E-02 -1.0607000E-02
vertex -1.0607000E-02 -1.8998999E-02 1.0607000E-02
endloop
endfacet
facet normal 3.8264149E-01 0.0000000E+00 9.2389691E-01
outer loop
vertex -1.0607000E-02 -1.8998999E-02 -1.0607000E-02
vertex -1.0607000E-02 -2.8999001E-02 -1.0607000E-02
vertex 0.0000000E+00 -1.8998999E-02 -1.5000000E-02
endloop
endfacet
facet normal 9.2389691E-01 0.0000000E+00 3.8264149E-01
outer loop
vertex -1.0607000E-02 -1.8998999E-02 -1.0607000E-02
vertex -1.5000000E-02 -2.8999001E-02 0.0000000E+00
vertex -1.0607000E-02 -2.8999001E-02 -1.0607000E-02
endloop
endfacet
facet normal 9.2389691E-01 0.0000000E+00 3.8264149E-01
outer loop
vertex -1.0607000E-02 -1.8998999E-02 -1.0607000E-02
vertex -1.5000000E-02 -1.8998999E-02 0.0000000E+00
vertex -1.5000000E-02 -2.8999001E-02 0.0000000E+00
endloop
endfacet
facet normal 9.2389691E-01 0.0000000E+00 -3.8264149E-01
outer loop
vertex -1.5000000E-02 -2.8999001E-02 0.0000000E+00
vertex -1.5000000E-02 -1.8998999E-02 0.0000000E+00
vertex -1.0607000E-02 -2.8999001E-02 1.0607000E-02
endloop
endfacet
facet normal 9.2389691E-01 0.0000000E+00 -3.8264149E-01
outer loop
vertex -1.0607000E-02 -2.8999001E-02 1.0607000E-02
vertex -1.5000000E-02 -1.8998999E-02 0.0000000E+00
vertex -1.0607000E-02 -1.8998999E-02 1.0607000E-02
endloop
endfacet
facet normal 3.8264149E-01 0.0000000E+00 -9.2389691E-01
outer loop
vertex 0.0000000E+00 -2.8999001E-02 1.5000000E-02
vertex -1.0607000E-02 -1.8998999E-02 1.0607000E-02
vertex 0.0000000E+00 -1.8998999E-02 1.5000000E-02
endloop
endfacet
facet normal -3.8264149E-01 0.0000000E+00 -9.2389691E-01
outer loop
vertex 1.0607000E-02 -2.8999001E-02 1.0607000E-02
vertex 0.0000000E+00 -1.8998999E-02 1.5000000E-02
vertex 1.0607000E-02 -1.8998999E-02 1.0607000E-02
endloop
endfacet
facet normal -9.2389691E-01 0.0000000E+00 -3.8264149E-01
outer loop
vertex 1.5000000E-02 -2.8999001E-02 0.0000000E+00
vertex 1.0607000E-02 -1.8998999E-02 1.0607000E-02
vertex 1.5000000E-02 -1.8998999E-02 0.0000000E+00
endloop
endfacet
facet normal -9.2389691E-01 0.0000000E+00 3.8264149E-01
outer loop
vertex 1.0607000E-02 -2.8999001E-02 -1.0607000E-02
vertex 1.5000000E-02 -1.8998999E-02 0.0000000E+00
vertex 1.0607000E-02 -1.8998999E-02 -1.0607000E-02
endloop
endfacet
facet normal -3.8264149E-01 0.0000000E+00 9.2389691E-01
outer loop
vertex 0.0000000E+00 -2.8999001E-02 -1.5000000E-02
vertex 1.0607000E-02 -1.8998999E-02 -1.0607000E-02
vertex 0.0000000E+00 -1.8998999E-02 -1.5000000E-02
endloop
endfacet
facet normal 3.8264149E-01 0.0000000E+00 9.2389691E-01
outer loop
vertex -1.0607000E-02 -2.8999001E-02 -1.0607000E-02
vertex 0.0000000E+00 -2.8999001E-02 -1.5000000E-02
vertex 0.0000000E+00 -1.8998999E-02 -1.5000000E-02
endloop
endfacet
facet normal 3.8264149E-01 0.0000000E+00 -9.2389691E-01
outer loop
vertex 0.0000000E+00 -2.8999001E-02 1.5000000E-02
vertex -1.0607000E-02 -2.8999001E-02 1.0607000E-02
vertex -1.0607000E-02 -1.8998999E-02 1.0607000E-02
endloop
endfacet
facet normal -3.8264149E-01 0.0000000E+00 9.2389691E-01
outer loop
vertex 0.0000000E+00 -2.8999001E-02 -1.5000000E-02
vertex 1.0607000E-02 -2.8999001E-02 -1.0607000E-02
vertex 1.0607000E-02 -1.8998999E-02 -1.0607000E-02
endloop
endfacet
facet normal -9.2389691E-01 0.0000000E+00 3.8264149E-01
outer loop
vertex 1.0607000E-02 -2.8999001E-02 -1.0607000E-02
vertex 1.5000000E-02 -2.8999001E-02 0.0000000E+00
vertex 1.5000000E-02 -1.8998999E-02 0.0000000E+00
endloop
endfacet
facet normal -9.2389691E-01 0.0000000E+00 -3.8264149E-01
outer loop
vertex 1.5000000E-02 -2.8999001E-02 0.0000000E+00
vertex 1.0607000E-02 -2.8999001E-02 1.0607000E-02
vertex 1.0607000E-02 -1.8998999E-02 1.0607000E-02
endloop
endfacet
facet normal -3.8264149E-01 0.0000000E+00 -9.2389691E-01
outer loop
vertex 1.0607000E-02 -2.8999001E-02 1.0607000E-02
vertex 0.0000000E+00 -2.8999001E-02 1.5000000E-02
vertex 0.0000000E+00 -1.8998999E-02 1.5000000E-02
endloop
endfacet
facet normal 0.0000000E+00 -0.0000000E+00 -1.0000000E+00
outer loop
vertex -1.0607000E-02 1.0607000E-02 -4.1999999E-02
vertex 1.0607000E-02 1.0607000E-02 -4.1999999E-02
vertex -1.5000000E-02 1.0000000E-06 -4.1999999E-02
endloop
endfacet
facet normal 0.0000000E+00 0.0000000E+00 -1.0000000E+00
outer loop
vertex -1.0607000E-02 1.0607000E-02 -4.1999999E-02
vertex 0.0000000E+00 1.5001000E-02 -4.1999999E-02
vertex 1.0607000E-02 1.0607000E-02 -4.1999999E-02
endloop
endfacet
facet normal 0.0000000E+00 -0.0000000E+00 -1.0000000E+00
outer loop
vertex 1.0607000E-02 1.0607000E-02 -4.1999999E-02
vertex 1.5000000E-02 1.0000000E-06 -4.1999999E-02
vertex -1.5000000E-02 1.0000000E-06 -4.1999999E-02
endloop
endfacet
facet normal 0.0000000E+00 0.0000000E+00 -1.0000000E+00
outer loop
vertex -1.5000000E-02 1.0000000E-06 -4.1999999E-02
vertex 1.5000000E-02 1.0000000E-06 -4.1999999E-02
vertex -1.0607000E-02 -1.0606000E-02 -4.1999999E-02
endloop
endfacet
facet normal 0.0000000E+00 0.0000000E+00 -1.0000000E+00
outer loop
vertex -1.0607000E-02 -1.0606000E-02 -4.1999999E-02
vertex 1.5000000E-02 1.0000000E-06 -4.1999999E-02
vertex 1.0607000E-02 -1.0606000E-02 -4.1999999E-02
endloop
endfacet
facet normal 0.0000000E+00 0.0000000E+00 -1.0000000E+00
outer loop
vertex 0.0000000E+00 -1.4999000E-02 -4.1999999E-02
vertex -1.0607000E-02 -1.0606000E-02 -4.1999999E-02
vertex 1.0607000E-02 -1.0606000E-02 -4.1999999E-02
endloop
endfacet
facet normal 9.2389691E-01 3.8264149E-01 0.0000000E+00
outer loop
vertex -1.0607000E-02 -1.0606000E-02 -4.1999999E-02
vertex -1.0607000E-02 -1.0606000E-02 -5.2000001E-02
vertex -1.5000000E-02 1.0000000E-06 -4.1999999E-02
endloop
endfacet
facet normal 3.8264152E-01 9.2389685E-01 0.0000000E+00
outer loop
vertex -1.0607000E-02 -1.0606000E-02 -4.1999999E-02
vertex 0.0000000E+00 -1.4999000E-02 -5.2000001E-02
vertex -1.0607000E-02 -1.0606000E-02 -5.2000001E-02
endloop
endfacet
facet normal 3.8264152E-01 9.2389685E-01 0.0000000E+00
outer loop
vertex -1.0607000E-02 -1.0606000E-02 -4.1999999E-02
vertex 0.0000000E+00 -1.4999000E-02 -4.1999999E-02
vertex 0.0000000E+00 -1.4999000E-02 -5.2000001E-02
endloop
endfacet
facet normal -3.8264152E-01 9.2389685E-01 0.0000000E+00
outer loop
vertex 0.0000000E+00 -1.4999000E-02 -5.2000001E-02
vertex 0.0000000E+00 -1.4999000E-02 -4.1999999E-02
vertex 1.0607000E-02 -1.0606000E-02 -5.2000001E-02
endloop
endfacet
facet normal -3.8264152E-01 9.2389685E-01 0.0000000E+00
outer loop
vertex 1.0607000E-02 -1.0606000E-02 -5.2000001E-02
vertex 0.0000000E+00 -1.4999000E-02 -4.1999999E-02
vertex 1.0607000E-02 -1.0606000E-02 -4.1999999E-02
endloop
endfacet
facet normal -9.2389691E-01 3.8264149E-01 0.0000000E+00
outer loop
vertex 1.5000000E-02 1.0000000E-06 -5.2000001E-02
vertex 1.0607000E-02 -1.0606000E-02 -4.1999999E-02
vertex 1.5000000E-02 1.0000000E-06 -4.1999999E-02
endloop
endfacet
facet normal -9.2388415E-01 -3.8267228E-01 0.0000000E+00
outer loop
vertex 1.0607000E-02 1.0607000E-02 -5.2000001E-02
vertex 1.5000000E-02 1.0000000E-06 -4.1999999E-02
vertex 1.0607000E-02 1.0607000E-02 -4.1999999E-02
endloop
endfacet
facet normal -3.8271585E-01 -9.2386609E-01 0.0000000E+00
outer loop
vertex 0.0000000E+00 1.5001000E-02 -5.2000001E-02
vertex 1.0607000E-02 1.0607000E-02 -4.1999999E-02
vertex 0.0000000E+00 1.5001000E-02 -4.1999999E-02
endloop
endfacet
facet normal 3.8271585E-01 -9.2386609E-01 0.0000000E+00
outer loop
vertex -1.0607000E-02 1.0607000E-02 -5.2000001E-02
vertex 0.0000000E+00 1.5001000E-02 -4.1999999E-02
vertex -1.0607000E-02 1.0607000E-02 -4.1999999E-02
endloop
endfacet
facet normal 9.2388415E-01 -3.8267228E-01 0.0000000E+00
outer loop
vertex -1.5000000E-02 1.0000000E-06 -5.2000001E-02
vertex -1.0607000E-02 1.0607000E-02 -4.1999999E-02
vertex -1.5000000E-02 1.0000000E-06 -4.1999999E-02
endloop
endfacet
facet normal 9.2389691E-01 3.8264149E-01 0.0000000E+00
outer loop
vertex -1.0607000E-02 -1.0606000E-02 -5.2000001E-02
vertex -1.5000000E-02 1.0000000E-06 -5.2000001E-02
vertex -1.5000000E-02 1.0000000E-06 -4.1999999E-02
endloop
endfacet
facet normal -9.2389691E-01 3.8264149E-01 0.0000000E+00
outer loop
vertex 1.5000000E-02 1.0000000E-06 -5.2000001E-02
vertex 1.0607000E-02 -1.0606000E-02 -5.2000001E-02
vertex 1.0607000E-02 -1.0606000E-02 -4.1999999E-02
endloop
endfacet
facet normal 9.2388415E-01 -3.8267228E-01 0.0000000E+00
outer loop
vertex -1.5000000E-02 1.0000000E-06 -5.2000001E-02
vertex -1.0607000E-02 1.0607000E-02 -5.2000001E-02
vertex -1.0607000E-02 1.0607000E-02 -4.1999999E-02
endloop
endfacet
facet normal 3.8271585E-01 -9.2386609E-01 0.0000000E+00
outer loop
vertex -1.0607000E-02 1.0607000E-02 -5.2000001E-02
vertex 0.0000000E+00 1.5001000E-02 -5.2000001E-02
vertex 0.0000000E+00 1.5001000E-02 -4.1999999E-02
endloop
endfacet
facet normal -3.8271585E-01 -9.2386609E-01 0.0000000E+00
outer loop
vertex 0.0000000E+00 1.5001000E-02 -5.2000001E-02
vertex 1.0607000E-02 1.0607000E-02 -5.2000001E-02
vertex 1.0607000E-02 1.0607000E-02 -4.1999999E-02
endloop
endfacet
facet normal -9.2388415E-01 -3.8267228E-01 0.0000000E+00
outer loop
vertex 1.0607000E-02 1.0607000E-02 -5.2000001E-02
vertex 1.5000000E-02 1.0000000E-06 -5.2000001E-02
vertex 1.5000000E-02 1.0000000E-06 -4.1999999E-02
endloop
endfacet
endsolid Created by stlwrite.m 06-Jan-2012 19:10:40
