solid Created by stlwrite.m 06-Jan-2012 19:39:12
facet normal 7.0711327E-01 0.0000000E+00 -7.0710033E-01
outer loop
vertex 3.0758999E-02 1.0777000E-02 -2.5810000E-02
vertex 3.0657001E-02 1.1158000E-02 -2.5912000E-02
vertex 3.0758999E-02 2.8999999E-02 -2.5810000E-02
endloop
endfacet
facet normal 7.0696145E-01 1.7347604E-06 -7.0725203E-01
outer loop
vertex 3.0758999E-02 2.8999999E-02 -2.5810000E-02
vertex 3.0657001E-02 1.1158000E-02 -2.5912000E-02
vertex 2.8253000E-02 1.6311999E-02 -2.8315000E-02
endloop
endfacet
facet normal 7.0718849E-01 -8.7905697E-05 -7.0702505E-01
outer loop
vertex 2.5810000E-02 1.9802000E-02 -3.0758999E-02
vertex 3.0758999E-02 2.8999999E-02 -2.5810000E-02
vertex 2.8253000E-02 1.6311999E-02 -2.8315000E-02
endloop
endfacet
facet normal 7.0710677E-01 0.0000000E+00 -7.0710677E-01
outer loop
vertex 2.5810000E-02 1.9802000E-02 -3.0758999E-02
vertex 2.5810000E-02 2.8999999E-02 -3.0758999E-02
vertex 3.0758999E-02 2.8999999E-02 -2.5810000E-02
endloop
endfacet
facet normal 5.7373267E-01 0.0000000E+00 -8.1904262E-01
outer loop
vertex 2.5810000E-02 1.9802000E-02 -3.0758999E-02
vertex 2.4992000E-02 2.0970000E-02 -3.1332001E-02
vertex 2.5810000E-02 2.8999999E-02 -3.0758999E-02
endloop
endfacet
facet normal 5.7343775E-01 4.4775275E-05 -8.1924909E-01
outer loop
vertex 2.5810000E-02 2.8999999E-02 -3.0758999E-02
vertex 2.4992000E-02 2.0970000E-02 -3.1332001E-02
vertex 2.0970000E-02 2.4992000E-02 -3.4147002E-02
endloop
endfacet
facet normal 5.7358366E-01 0.0000000E+00 -8.1914705E-01
outer loop
vertex 2.0075999E-02 2.8999999E-02 -3.4773000E-02
vertex 2.0970000E-02 2.4992000E-02 -3.4147002E-02
vertex 2.0075999E-02 2.5618000E-02 -3.4773000E-02
endloop
endfacet
facet normal 5.7348150E-01 -3.3943863E-05 -8.1921846E-01
outer loop
vertex 2.0075999E-02 2.8999999E-02 -3.4773000E-02
vertex 2.5810000E-02 2.8999999E-02 -3.0758999E-02
vertex 2.0970000E-02 2.4992000E-02 -3.4147002E-02
endloop
endfacet
facet normal 4.2278025E-01 0.0000000E+00 -9.0623218E-01
outer loop
vertex 2.0075999E-02 2.5618000E-02 -3.4773000E-02
vertex 1.6311999E-02 2.8253000E-02 -3.6529001E-02
vertex 2.0075999E-02 2.8999999E-02 -3.4773000E-02
endloop
endfacet
facet normal 4.2265442E-01 7.7127496E-04 -9.0629059E-01
outer loop
vertex 2.0075999E-02 2.8999999E-02 -3.4773000E-02
vertex 1.6311999E-02 2.8253000E-02 -3.6529001E-02
vertex 1.4711000E-02 2.8999999E-02 -3.7275001E-02
endloop
endfacet
facet normal -4.2278025E-01 -0.0000000E+00 -9.0623218E-01
outer loop
vertex -2.0075999E-02 -2.5618000E-02 -3.4773000E-02
vertex -1.6311999E-02 -2.8253000E-02 -3.6529001E-02
vertex -2.0075999E-02 -2.8999999E-02 -3.4773000E-02
endloop
endfacet
facet normal -4.2265442E-01 -7.7127496E-04 -9.0629059E-01
outer loop
vertex -2.0075999E-02 -2.8999999E-02 -3.4773000E-02
vertex -1.6311999E-02 -2.8253000E-02 -3.6529001E-02
vertex -1.4711000E-02 -2.8999999E-02 -3.7275001E-02
endloop
endfacet
facet normal -5.7373267E-01 -0.0000000E+00 -8.1904262E-01
outer loop
vertex -2.5810000E-02 -1.9802000E-02 -3.0758999E-02
vertex -2.4992000E-02 -2.0970000E-02 -3.1332001E-02
vertex -2.5810000E-02 -2.8999999E-02 -3.0758999E-02
endloop
endfacet
facet normal -5.7343775E-01 -4.4775275E-05 -8.1924909E-01
outer loop
vertex -2.5810000E-02 -2.8999999E-02 -3.0758999E-02
vertex -2.4992000E-02 -2.0970000E-02 -3.1332001E-02
vertex -2.0970000E-02 -2.4992000E-02 -3.4147002E-02
endloop
endfacet
facet normal -5.7358366E-01 0.0000000E+00 -8.1914705E-01
outer loop
vertex -2.0075999E-02 -2.8999999E-02 -3.4773000E-02
vertex -2.0970000E-02 -2.4992000E-02 -3.4147002E-02
vertex -2.0075999E-02 -2.5618000E-02 -3.4773000E-02
endloop
endfacet
facet normal -5.7348150E-01 3.3943863E-05 -8.1921846E-01
outer loop
vertex -2.0075999E-02 -2.8999999E-02 -3.4773000E-02
vertex -2.5810000E-02 -2.8999999E-02 -3.0758999E-02
vertex -2.0970000E-02 -2.4992000E-02 -3.4147002E-02
endloop
endfacet
facet normal -7.0711327E-01 -0.0000000E+00 -7.0710033E-01
outer loop
vertex -3.0758999E-02 -1.0777000E-02 -2.5810000E-02
vertex -3.0657001E-02 -1.1158000E-02 -2.5912000E-02
vertex -3.0758999E-02 -2.8999999E-02 -2.5810000E-02
endloop
endfacet
facet normal -7.0696145E-01 -1.7347604E-06 -7.0725203E-01
outer loop
vertex -3.0758999E-02 -2.8999999E-02 -2.5810000E-02
vertex -3.0657001E-02 -1.1158000E-02 -2.5912000E-02
vertex -2.8253000E-02 -1.6311999E-02 -2.8315000E-02
endloop
endfacet
facet normal -7.0725125E-01 0.0000000E+00 -7.0696229E-01
outer loop
vertex -2.5810000E-02 -2.8999999E-02 -3.0758999E-02
vertex -2.8253000E-02 -1.6311999E-02 -2.8315000E-02
vertex -2.5810000E-02 -1.9802000E-02 -3.0758999E-02
endloop
endfacet
facet normal -7.0710677E-01 5.5643482E-05 -7.0710677E-01
outer loop
vertex -2.5810000E-02 -2.8999999E-02 -3.0758999E-02
vertex -3.0758999E-02 -2.8999999E-02 -2.5810000E-02
vertex -2.8253000E-02 -1.6311999E-02 -2.8315000E-02
endloop
endfacet
facet normal -8.1907409E-01 -0.0000000E+00 -5.7368779E-01
outer loop
vertex -3.0758999E-02 -1.0777000E-02 -2.5810000E-02
vertex -3.0758999E-02 -2.8999999E-02 -2.5810000E-02
vertex -3.2129001E-02 -5.6650001E-03 -2.3854000E-02
endloop
endfacet
facet normal -8.1921852E-01 -2.5770791E-05 -5.7348150E-01
outer loop
vertex -3.2129001E-02 -5.6650001E-03 -2.3854000E-02
vertex -3.0758999E-02 -2.8999999E-02 -2.5810000E-02
vertex -3.4773000E-02 -2.8999999E-02 -2.0075999E-02
endloop
endfacet
facet normal -8.1923193E-01 0.0000000E+00 -5.7346249E-01
outer loop
vertex -3.2623999E-02 5.2079453E-17 -2.3146000E-02
vertex -3.4773000E-02 -2.8999999E-02 -2.0075999E-02
vertex -3.4773000E-02 2.8999999E-02 -2.0075999E-02
endloop
endfacet
facet normal -8.1921852E-01 2.5770791E-05 -5.7348150E-01
outer loop
vertex -3.2129001E-02 5.6650001E-03 -2.3854000E-02
vertex -3.4773000E-02 2.8999999E-02 -2.0075999E-02
vertex -3.0758999E-02 2.8999999E-02 -2.5810000E-02
endloop
endfacet
facet normal -8.1907409E-01 0.0000000E+00 -5.7368779E-01
outer loop
vertex -3.0758999E-02 1.0777000E-02 -2.5810000E-02
vertex -3.2129001E-02 5.6650001E-03 -2.3854000E-02
vertex -3.0758999E-02 2.8999999E-02 -2.5810000E-02
endloop
endfacet
facet normal -8.1940919E-01 -3.9975701E-05 -5.7320893E-01
outer loop
vertex -3.2129001E-02 5.6650001E-03 -2.3854000E-02
vertex -3.2623999E-02 5.2079453E-17 -2.3146000E-02
vertex -3.4773000E-02 2.8999999E-02 -2.0075999E-02
endloop
endfacet
facet normal -8.1940913E-01 3.9970786E-05 -5.7320899E-01
outer loop
vertex -3.4773000E-02 -2.8999999E-02 -2.0075999E-02
vertex -3.2623999E-02 5.2079453E-17 -2.3146000E-02
vertex -3.2129001E-02 -5.6650001E-03 -2.3854000E-02
endloop
endfacet
facet normal -9.0629625E-01 0.0000000E+00 -4.2264292E-01
outer loop
vertex -3.7730999E-02 -2.8999999E-02 -1.3733000E-02
vertex -3.7730999E-02 2.8999999E-02 -1.3733000E-02
vertex -3.4773000E-02 -2.8999999E-02 -2.0075999E-02
endloop
endfacet
facet normal -9.0629625E-01 0.0000000E+00 -4.2264292E-01
outer loop
vertex -3.4773000E-02 -2.8999999E-02 -2.0075999E-02
vertex -3.7730999E-02 2.8999999E-02 -1.3733000E-02
vertex -3.4773000E-02 2.8999999E-02 -2.0075999E-02
endloop
endfacet
facet normal -9.6591163E-01 0.0000000E+00 -2.5887173E-01
outer loop
vertex -3.9542999E-02 -2.8999999E-02 -6.9720000E-03
vertex -3.9542999E-02 2.8999999E-02 -6.9720000E-03
vertex -3.7730999E-02 -2.8999999E-02 -1.3733000E-02
endloop
endfacet
facet normal -9.6591163E-01 0.0000000E+00 -2.5887173E-01
outer loop
vertex -3.7730999E-02 -2.8999999E-02 -1.3733000E-02
vertex -3.9542999E-02 2.8999999E-02 -6.9720000E-03
vertex -3.7730999E-02 2.8999999E-02 -1.3733000E-02
endloop
endfacet
facet normal -9.9619436E-01 0.0000000E+00 -8.7160058E-02
outer loop
vertex -4.0153001E-02 -2.8999999E-02 5.5511151E-17
vertex -4.0153001E-02 2.8999999E-02 5.5511151E-17
vertex -3.9542999E-02 -2.8999999E-02 -6.9720000E-03
endloop
endfacet
facet normal -9.9619436E-01 0.0000000E+00 -8.7160058E-02
outer loop
vertex -3.9542999E-02 -2.8999999E-02 -6.9720000E-03
vertex -4.0153001E-02 2.8999999E-02 5.5511151E-17
vertex -3.9542999E-02 2.8999999E-02 -6.9720000E-03
endloop
endfacet
facet normal -9.9619436E-01 0.0000000E+00 8.7160058E-02
outer loop
vertex -3.9542999E-02 -2.8999999E-02 6.9720000E-03
vertex -3.9542999E-02 2.8999999E-02 6.9720000E-03
vertex -4.0153001E-02 -2.8999999E-02 5.5511151E-17
endloop
endfacet
facet normal -9.9619436E-01 0.0000000E+00 8.7160058E-02
outer loop
vertex -4.0153001E-02 -2.8999999E-02 5.5511151E-17
vertex -3.9542999E-02 2.8999999E-02 6.9720000E-03
vertex -4.0153001E-02 2.8999999E-02 5.5511151E-17
endloop
endfacet
facet normal -9.6591163E-01 0.0000000E+00 2.5887173E-01
outer loop
vertex -3.7730999E-02 -2.8999999E-02 1.3733000E-02
vertex -3.7730999E-02 2.8999999E-02 1.3733000E-02
vertex -3.9542999E-02 -2.8999999E-02 6.9720000E-03
endloop
endfacet
facet normal -9.6591163E-01 0.0000000E+00 2.5887173E-01
outer loop
vertex -3.9542999E-02 -2.8999999E-02 6.9720000E-03
vertex -3.7730999E-02 2.8999999E-02 1.3733000E-02
vertex -3.9542999E-02 2.8999999E-02 6.9720000E-03
endloop
endfacet
facet normal -9.0629625E-01 0.0000000E+00 4.2264292E-01
outer loop
vertex -3.4773000E-02 -2.8999999E-02 2.0075999E-02
vertex -3.4773000E-02 2.8999999E-02 2.0075999E-02
vertex -3.7730999E-02 -2.8999999E-02 1.3733000E-02
endloop
endfacet
facet normal -9.0629625E-01 0.0000000E+00 4.2264292E-01
outer loop
vertex -3.7730999E-02 -2.8999999E-02 1.3733000E-02
vertex -3.4773000E-02 2.8999999E-02 2.0075999E-02
vertex -3.7730999E-02 2.8999999E-02 1.3733000E-02
endloop
endfacet
facet normal -8.1921846E-01 0.0000000E+00 5.7348156E-01
outer loop
vertex -3.0758999E-02 -2.8999999E-02 2.5810000E-02
vertex -3.0758999E-02 2.8999999E-02 2.5810000E-02
vertex -3.4773000E-02 -2.8999999E-02 2.0075999E-02
endloop
endfacet
facet normal -8.1921846E-01 0.0000000E+00 5.7348156E-01
outer loop
vertex -3.4773000E-02 -2.8999999E-02 2.0075999E-02
vertex -3.0758999E-02 2.8999999E-02 2.5810000E-02
vertex -3.4773000E-02 2.8999999E-02 2.0075999E-02
endloop
endfacet
facet normal -7.0710683E-01 0.0000000E+00 7.0710683E-01
outer loop
vertex -2.5810000E-02 -2.8999999E-02 3.0758999E-02
vertex -2.5810000E-02 2.8999999E-02 3.0758999E-02
vertex -3.0758999E-02 -2.8999999E-02 2.5810000E-02
endloop
endfacet
facet normal -7.0710683E-01 0.0000000E+00 7.0710683E-01
outer loop
vertex -3.0758999E-02 -2.8999999E-02 2.5810000E-02
vertex -2.5810000E-02 2.8999999E-02 3.0758999E-02
vertex -3.0758999E-02 2.8999999E-02 2.5810000E-02
endloop
endfacet
facet normal -5.7348156E-01 0.0000000E+00 8.1921846E-01
outer loop
vertex -2.0075999E-02 -2.8999999E-02 3.4773000E-02
vertex -2.0075999E-02 2.8999999E-02 3.4773000E-02
vertex -2.5810000E-02 -2.8999999E-02 3.0758999E-02
endloop
endfacet
facet normal -5.7348156E-01 0.0000000E+00 8.1921846E-01
outer loop
vertex -2.5810000E-02 -2.8999999E-02 3.0758999E-02
vertex -2.0075999E-02 2.8999999E-02 3.4773000E-02
vertex -2.5810000E-02 2.8999999E-02 3.0758999E-02
endloop
endfacet
facet normal -4.2264292E-01 0.0000000E+00 9.0629625E-01
outer loop
vertex -1.3733000E-02 -2.8999999E-02 3.7730999E-02
vertex -1.3733000E-02 2.8999999E-02 3.7730999E-02
vertex -2.0075999E-02 -2.8999999E-02 3.4773000E-02
endloop
endfacet
facet normal -4.2264292E-01 0.0000000E+00 9.0629625E-01
outer loop
vertex -2.0075999E-02 -2.8999999E-02 3.4773000E-02
vertex -1.3733000E-02 2.8999999E-02 3.7730999E-02
vertex -2.0075999E-02 2.8999999E-02 3.4773000E-02
endloop
endfacet
facet normal -2.5887173E-01 0.0000000E+00 9.6591163E-01
outer loop
vertex -6.9720000E-03 -2.8999999E-02 3.9542999E-02
vertex -6.9720000E-03 2.8999999E-02 3.9542999E-02
vertex -1.3733000E-02 -2.8999999E-02 3.7730999E-02
endloop
endfacet
facet normal -2.5887173E-01 0.0000000E+00 9.6591163E-01
outer loop
vertex -1.3733000E-02 -2.8999999E-02 3.7730999E-02
vertex -6.9720000E-03 2.8999999E-02 3.9542999E-02
vertex -1.3733000E-02 2.8999999E-02 3.7730999E-02
endloop
endfacet
facet normal -8.7160058E-02 0.0000000E+00 9.9619436E-01
outer loop
vertex 1.1102230E-16 -2.8999999E-02 4.0153001E-02
vertex 1.1102230E-16 2.8999999E-02 4.0153001E-02
vertex -6.9720000E-03 -2.8999999E-02 3.9542999E-02
endloop
endfacet
facet normal -8.7160058E-02 0.0000000E+00 9.9619436E-01
outer loop
vertex -6.9720000E-03 -2.8999999E-02 3.9542999E-02
vertex 1.1102230E-16 2.8999999E-02 4.0153001E-02
vertex -6.9720000E-03 2.8999999E-02 3.9542999E-02
endloop
endfacet
facet normal 8.7160058E-02 -0.0000000E+00 9.9619436E-01
outer loop
vertex 6.9720000E-03 -2.8999999E-02 3.9542999E-02
vertex 6.9720000E-03 2.8999999E-02 3.9542999E-02
vertex 1.1102230E-16 -2.8999999E-02 4.0153001E-02
endloop
endfacet
facet normal 8.7160058E-02 -0.0000000E+00 9.9619436E-01
outer loop
vertex 1.1102230E-16 -2.8999999E-02 4.0153001E-02
vertex 6.9720000E-03 2.8999999E-02 3.9542999E-02
vertex 1.1102230E-16 2.8999999E-02 4.0153001E-02
endloop
endfacet
facet normal 2.5887173E-01 -0.0000000E+00 9.6591163E-01
outer loop
vertex 1.3733000E-02 -2.8999999E-02 3.7730999E-02
vertex 1.3733000E-02 2.8999999E-02 3.7730999E-02
vertex 6.9720000E-03 -2.8999999E-02 3.9542999E-02
endloop
endfacet
facet normal 2.5887173E-01 -0.0000000E+00 9.6591163E-01
outer loop
vertex 6.9720000E-03 -2.8999999E-02 3.9542999E-02
vertex 1.3733000E-02 2.8999999E-02 3.7730999E-02
vertex 6.9720000E-03 2.8999999E-02 3.9542999E-02
endloop
endfacet
facet normal 4.2264292E-01 -0.0000000E+00 9.0629625E-01
outer loop
vertex 2.0075999E-02 -2.8999999E-02 3.4773000E-02
vertex 2.0075999E-02 2.8999999E-02 3.4773000E-02
vertex 1.3733000E-02 -2.8999999E-02 3.7730999E-02
endloop
endfacet
facet normal 4.2264292E-01 -0.0000000E+00 9.0629625E-01
outer loop
vertex 1.3733000E-02 -2.8999999E-02 3.7730999E-02
vertex 2.0075999E-02 2.8999999E-02 3.4773000E-02
vertex 1.3733000E-02 2.8999999E-02 3.7730999E-02
endloop
endfacet
facet normal 5.7348156E-01 -0.0000000E+00 8.1921846E-01
outer loop
vertex 2.5810000E-02 -2.8999999E-02 3.0758999E-02
vertex 2.5810000E-02 2.8999999E-02 3.0758999E-02
vertex 2.0075999E-02 -2.8999999E-02 3.4773000E-02
endloop
endfacet
facet normal 5.7348156E-01 -0.0000000E+00 8.1921846E-01
outer loop
vertex 2.0075999E-02 -2.8999999E-02 3.4773000E-02
vertex 2.5810000E-02 2.8999999E-02 3.0758999E-02
vertex 2.0075999E-02 2.8999999E-02 3.4773000E-02
endloop
endfacet
facet normal 7.0710683E-01 -0.0000000E+00 7.0710683E-01
outer loop
vertex 3.0758999E-02 -2.8999999E-02 2.5810000E-02
vertex 3.0758999E-02 2.8999999E-02 2.5810000E-02
vertex 2.5810000E-02 -2.8999999E-02 3.0758999E-02
endloop
endfacet
facet normal 7.0710683E-01 -0.0000000E+00 7.0710683E-01
outer loop
vertex 2.5810000E-02 -2.8999999E-02 3.0758999E-02
vertex 3.0758999E-02 2.8999999E-02 2.5810000E-02
vertex 2.5810000E-02 2.8999999E-02 3.0758999E-02
endloop
endfacet
facet normal 8.1921846E-01 -0.0000000E+00 5.7348156E-01
outer loop
vertex 3.4773000E-02 -2.8999999E-02 2.0075999E-02
vertex 3.4773000E-02 2.8999999E-02 2.0075999E-02
vertex 3.0758999E-02 -2.8999999E-02 2.5810000E-02
endloop
endfacet
facet normal 8.1921846E-01 -0.0000000E+00 5.7348156E-01
outer loop
vertex 3.0758999E-02 -2.8999999E-02 2.5810000E-02
vertex 3.4773000E-02 2.8999999E-02 2.0075999E-02
vertex 3.0758999E-02 2.8999999E-02 2.5810000E-02
endloop
endfacet
facet normal 9.0629625E-01 -0.0000000E+00 4.2264292E-01
outer loop
vertex 3.7730999E-02 -2.8999999E-02 1.3733000E-02
vertex 3.7730999E-02 2.8999999E-02 1.3733000E-02
vertex 3.4773000E-02 -2.8999999E-02 2.0075999E-02
endloop
endfacet
facet normal 9.0629625E-01 -0.0000000E+00 4.2264292E-01
outer loop
vertex 3.4773000E-02 -2.8999999E-02 2.0075999E-02
vertex 3.7730999E-02 2.8999999E-02 1.3733000E-02
vertex 3.4773000E-02 2.8999999E-02 2.0075999E-02
endloop
endfacet
facet normal 9.6591163E-01 -0.0000000E+00 2.5887173E-01
outer loop
vertex 3.9542999E-02 -2.8999999E-02 6.9720000E-03
vertex 3.9542999E-02 2.8999999E-02 6.9720000E-03
vertex 3.7730999E-02 -2.8999999E-02 1.3733000E-02
endloop
endfacet
facet normal 9.6591163E-01 -0.0000000E+00 2.5887173E-01
outer loop
vertex 3.7730999E-02 -2.8999999E-02 1.3733000E-02
vertex 3.9542999E-02 2.8999999E-02 6.9720000E-03
vertex 3.7730999E-02 2.8999999E-02 1.3733000E-02
endloop
endfacet
facet normal 9.9619436E-01 -0.0000000E+00 8.7160058E-02
outer loop
vertex 4.0153001E-02 -2.8999999E-02 5.5511151E-17
vertex 4.0153001E-02 2.8999999E-02 5.5511151E-17
vertex 3.9542999E-02 -2.8999999E-02 6.9720000E-03
endloop
endfacet
facet normal 9.9619436E-01 -0.0000000E+00 8.7160058E-02
outer loop
vertex 3.9542999E-02 -2.8999999E-02 6.9720000E-03
vertex 4.0153001E-02 2.8999999E-02 5.5511151E-17
vertex 3.9542999E-02 2.8999999E-02 6.9720000E-03
endloop
endfacet
facet normal 9.9619436E-01 0.0000000E+00 -8.7160058E-02
outer loop
vertex 3.9542999E-02 -2.8999999E-02 -6.9720000E-03
vertex 3.9542999E-02 2.8999999E-02 -6.9720000E-03
vertex 4.0153001E-02 -2.8999999E-02 5.5511151E-17
endloop
endfacet
facet normal 9.9619436E-01 0.0000000E+00 -8.7160058E-02
outer loop
vertex 4.0153001E-02 -2.8999999E-02 5.5511151E-17
vertex 3.9542999E-02 2.8999999E-02 -6.9720000E-03
vertex 4.0153001E-02 2.8999999E-02 5.5511151E-17
endloop
endfacet
facet normal 9.6591163E-01 0.0000000E+00 -2.5887173E-01
outer loop
vertex 3.7730999E-02 -2.8999999E-02 -1.3733000E-02
vertex 3.7730999E-02 2.8999999E-02 -1.3733000E-02
vertex 3.9542999E-02 -2.8999999E-02 -6.9720000E-03
endloop
endfacet
facet normal 9.6591163E-01 0.0000000E+00 -2.5887173E-01
outer loop
vertex 3.9542999E-02 -2.8999999E-02 -6.9720000E-03
vertex 3.7730999E-02 2.8999999E-02 -1.3733000E-02
vertex 3.9542999E-02 2.8999999E-02 -6.9720000E-03
endloop
endfacet
facet normal 9.0629625E-01 0.0000000E+00 -4.2264292E-01
outer loop
vertex 3.4773000E-02 -2.8999999E-02 -2.0075999E-02
vertex 3.4773000E-02 2.8999999E-02 -2.0075999E-02
vertex 3.7730999E-02 -2.8999999E-02 -1.3733000E-02
endloop
endfacet
facet normal 9.0629625E-01 0.0000000E+00 -4.2264292E-01
outer loop
vertex 3.7730999E-02 -2.8999999E-02 -1.3733000E-02
vertex 3.4773000E-02 2.8999999E-02 -2.0075999E-02
vertex 3.7730999E-02 2.8999999E-02 -1.3733000E-02
endloop
endfacet
facet normal 8.1927121E-01 0.0000000E+00 -5.7340616E-01
outer loop
vertex 3.0758999E-02 1.0777000E-02 -2.5810000E-02
vertex 3.0758999E-02 2.8999999E-02 -2.5810000E-02
vertex 3.2127999E-02 5.6650001E-03 -2.3854000E-02
endloop
endfacet
facet normal 8.1921852E-01 -9.4134666E-06 -5.7348150E-01
outer loop
vertex 3.2127999E-02 5.6650001E-03 -2.3854000E-02
vertex 3.0758999E-02 2.8999999E-02 -2.5810000E-02
vertex 3.4773000E-02 2.8999999E-02 -2.0075999E-02
endloop
endfacet
facet normal 8.1923193E-01 0.0000000E+00 -5.7346249E-01
outer loop
vertex 3.2623999E-02 5.6074739E-17 -2.3146000E-02
vertex 3.4773000E-02 2.8999999E-02 -2.0075999E-02
vertex 3.4773000E-02 -2.8999999E-02 -2.0075999E-02
endloop
endfacet
facet normal 8.1921852E-01 9.4134666E-06 -5.7348150E-01
outer loop
vertex 3.2127999E-02 -5.6650001E-03 -2.3854000E-02
vertex 3.4773000E-02 -2.8999999E-02 -2.0075999E-02
vertex 3.0758999E-02 -2.8999999E-02 -2.5810000E-02
endloop
endfacet
facet normal 8.1927121E-01 0.0000000E+00 -5.7340616E-01
outer loop
vertex 3.0758999E-02 -1.0777000E-02 -2.5810000E-02
vertex 3.2127999E-02 -5.6650001E-03 -2.3854000E-02
vertex 3.0758999E-02 -2.8999999E-02 -2.5810000E-02
endloop
endfacet
facet normal 8.1911433E-01 -2.6487816E-05 -5.7363033E-01
outer loop
vertex 3.2127999E-02 -5.6650001E-03 -2.3854000E-02
vertex 3.2623999E-02 5.6074739E-17 -2.3146000E-02
vertex 3.4773000E-02 -2.8999999E-02 -2.0075999E-02
endloop
endfacet
facet normal 8.1911433E-01 2.6487816E-05 -5.7363033E-01
outer loop
vertex 3.2127999E-02 5.6650001E-03 -2.3854000E-02
vertex 3.4773000E-02 2.8999999E-02 -2.0075999E-02
vertex 3.2623999E-02 5.6074739E-17 -2.3146000E-02
endloop
endfacet
facet normal 7.0718849E-01 8.7905697E-05 -7.0702505E-01
outer loop
vertex 2.5810000E-02 -1.9802000E-02 -3.0758999E-02
vertex 2.8253000E-02 -1.6311999E-02 -2.8315000E-02
vertex 3.0758999E-02 -2.8999999E-02 -2.5810000E-02
endloop
endfacet
facet normal 7.0710677E-01 0.0000000E+00 -7.0710677E-01
outer loop
vertex 2.5810000E-02 -2.8999999E-02 -3.0758999E-02
vertex 2.5810000E-02 -1.9802000E-02 -3.0758999E-02
vertex 3.0758999E-02 -2.8999999E-02 -2.5810000E-02
endloop
endfacet
facet normal 7.0711327E-01 0.0000000E+00 -7.0710033E-01
outer loop
vertex 3.0758999E-02 -1.0777000E-02 -2.5810000E-02
vertex 3.0758999E-02 -2.8999999E-02 -2.5810000E-02
vertex 3.0657001E-02 -1.1158000E-02 -2.5912000E-02
endloop
endfacet
facet normal 7.0696145E-01 -1.7347604E-06 -7.0725197E-01
outer loop
vertex 3.0657001E-02 -1.1158000E-02 -2.5912000E-02
vertex 3.0758999E-02 -2.8999999E-02 -2.5810000E-02
vertex 2.8253000E-02 -1.6311999E-02 -2.8315000E-02
endloop
endfacet
facet normal 5.7343781E-01 -4.4775279E-05 -8.1924909E-01
outer loop
vertex 2.4992000E-02 -2.0970000E-02 -3.1332001E-02
vertex 2.5810000E-02 -2.8999999E-02 -3.0758999E-02
vertex 2.0970000E-02 -2.4992000E-02 -3.4147002E-02
endloop
endfacet
facet normal 5.7373267E-01 0.0000000E+00 -8.1904262E-01
outer loop
vertex 2.4992000E-02 -2.0970000E-02 -3.1332001E-02
vertex 2.5810000E-02 -1.9802000E-02 -3.0758999E-02
vertex 2.5810000E-02 -2.8999999E-02 -3.0758999E-02
endloop
endfacet
facet normal 5.7348150E-01 3.3976285E-05 -8.1921846E-01
outer loop
vertex 2.5810000E-02 -2.8999999E-02 -3.0758999E-02
vertex 2.0075999E-02 -2.8999999E-02 -3.4773000E-02
vertex 2.0970000E-02 -2.4992000E-02 -3.4147002E-02
endloop
endfacet
facet normal 5.7358366E-01 0.0000000E+00 -8.1914705E-01
outer loop
vertex 2.0970000E-02 -2.4992000E-02 -3.4147002E-02
vertex 2.0075999E-02 -2.8999999E-02 -3.4773000E-02
vertex 2.0075999E-02 -2.5618000E-02 -3.4773000E-02
endloop
endfacet
facet normal 4.2265442E-01 -7.7137782E-04 -9.0629059E-01
outer loop
vertex 1.4711000E-02 -2.8999999E-02 -3.7275001E-02
vertex 1.6311999E-02 -2.8253000E-02 -3.6529001E-02
vertex 2.0075999E-02 -2.8999999E-02 -3.4773000E-02
endloop
endfacet
facet normal 4.2278025E-01 0.0000000E+00 -9.0623218E-01
outer loop
vertex 2.0075999E-02 -2.8999999E-02 -3.4773000E-02
vertex 1.6311999E-02 -2.8253000E-02 -3.6529001E-02
vertex 2.0075999E-02 -2.5618000E-02 -3.4773000E-02
endloop
endfacet
facet normal -4.2265442E-01 7.7137782E-04 -9.0629059E-01
outer loop
vertex -1.4711000E-02 2.8999999E-02 -3.7275001E-02
vertex -1.6311999E-02 2.8253000E-02 -3.6529001E-02
vertex -2.0075999E-02 2.8999999E-02 -3.4773000E-02
endloop
endfacet
facet normal -4.2278025E-01 -0.0000000E+00 -9.0623218E-01
outer loop
vertex -2.0075999E-02 2.8999999E-02 -3.4773000E-02
vertex -1.6311999E-02 2.8253000E-02 -3.6529001E-02
vertex -2.0075999E-02 2.5618000E-02 -3.4773000E-02
endloop
endfacet
facet normal -5.7343781E-01 4.4775279E-05 -8.1924909E-01
outer loop
vertex -2.4992000E-02 2.0970000E-02 -3.1332001E-02
vertex -2.5810000E-02 2.8999999E-02 -3.0758999E-02
vertex -2.0970000E-02 2.4992000E-02 -3.4147002E-02
endloop
endfacet
facet normal -5.7373267E-01 0.0000000E+00 -8.1904262E-01
outer loop
vertex -2.4992000E-02 2.0970000E-02 -3.1332001E-02
vertex -2.5810000E-02 1.9802000E-02 -3.0758999E-02
vertex -2.5810000E-02 2.8999999E-02 -3.0758999E-02
endloop
endfacet
facet normal -5.7348150E-01 -3.3976285E-05 -8.1921846E-01
outer loop
vertex -2.5810000E-02 2.8999999E-02 -3.0758999E-02
vertex -2.0075999E-02 2.8999999E-02 -3.4773000E-02
vertex -2.0970000E-02 2.4992000E-02 -3.4147002E-02
endloop
endfacet
facet normal -5.7358366E-01 0.0000000E+00 -8.1914705E-01
outer loop
vertex -2.0970000E-02 2.4992000E-02 -3.4147002E-02
vertex -2.0075999E-02 2.8999999E-02 -3.4773000E-02
vertex -2.0075999E-02 2.5618000E-02 -3.4773000E-02
endloop
endfacet
facet normal -7.0696145E-01 1.7347604E-06 -7.0725197E-01
outer loop
vertex -3.0657001E-02 1.1158000E-02 -2.5912000E-02
vertex -3.0758999E-02 2.8999999E-02 -2.5810000E-02
vertex -2.8253000E-02 1.6311999E-02 -2.8315000E-02
endloop
endfacet
facet normal -7.0711321E-01 0.0000000E+00 -7.0710033E-01
outer loop
vertex -3.0657001E-02 1.1158000E-02 -2.5912000E-02
vertex -3.0758999E-02 1.0777000E-02 -2.5810000E-02
vertex -3.0758999E-02 2.8999999E-02 -2.5810000E-02
endloop
endfacet
facet normal -7.0710677E-01 -5.5643482E-05 -7.0710677E-01
outer loop
vertex -3.0758999E-02 2.8999999E-02 -2.5810000E-02
vertex -2.5810000E-02 2.8999999E-02 -3.0758999E-02
vertex -2.8253000E-02 1.6311999E-02 -2.8315000E-02
endloop
endfacet
facet normal -7.0725125E-01 0.0000000E+00 -7.0696229E-01
outer loop
vertex -2.8253000E-02 1.6311999E-02 -2.8315000E-02
vertex -2.5810000E-02 2.8999999E-02 -3.0758999E-02
vertex -2.5810000E-02 1.9802000E-02 -3.0758999E-02
endloop
endfacet
facet normal 0.0000000E+00 9.9999994E-01 0.0000000E+00
outer loop
vertex 2.5810000E-02 2.8999999E-02 -3.0758999E-02
vertex 2.0075999E-02 2.8999999E-02 -3.4773000E-02
vertex 2.0075999E-02 2.8999999E-02 3.4773000E-02
endloop
endfacet
facet normal 0.0000000E+00 1.0000000E+00 0.0000000E+00
outer loop
vertex 2.5810000E-02 2.8999999E-02 3.0758999E-02
vertex 2.5810000E-02 2.8999999E-02 -3.0758999E-02
vertex 2.0075999E-02 2.8999999E-02 3.4773000E-02
endloop
endfacet
facet normal 0.0000000E+00 1.0000000E+00 0.0000000E+00
outer loop
vertex 2.5810000E-02 2.8999999E-02 3.0758999E-02
vertex 3.0758999E-02 2.8999999E-02 -2.5810000E-02
vertex 2.5810000E-02 2.8999999E-02 -3.0758999E-02
endloop
endfacet
facet normal 0.0000000E+00 1.0000000E+00 0.0000000E+00
outer loop
vertex 2.5810000E-02 2.8999999E-02 3.0758999E-02
vertex 3.0758999E-02 2.8999999E-02 2.5810000E-02
vertex 3.0758999E-02 2.8999999E-02 -2.5810000E-02
endloop
endfacet
facet normal 0.0000000E+00 1.0000000E+00 0.0000000E+00
outer loop
vertex 3.0758999E-02 2.8999999E-02 -2.5810000E-02
vertex 3.0758999E-02 2.8999999E-02 2.5810000E-02
vertex 3.4773000E-02 2.8999999E-02 -2.0075999E-02
endloop
endfacet
facet normal 0.0000000E+00 1.0000000E+00 -0.0000000E+00
outer loop
vertex 3.4773000E-02 2.8999999E-02 -2.0075999E-02
vertex 3.0758999E-02 2.8999999E-02 2.5810000E-02
vertex 3.4773000E-02 2.8999999E-02 2.0075999E-02
endloop
endfacet
facet normal 0.0000000E+00 1.0000000E+00 -0.0000000E+00
outer loop
vertex 3.7730999E-02 2.8999999E-02 -1.3733000E-02
vertex 3.4773000E-02 2.8999999E-02 2.0075999E-02
vertex 3.7730999E-02 2.8999999E-02 1.3733000E-02
endloop
endfacet
facet normal 0.0000000E+00 1.0000000E+00 -0.0000000E+00
outer loop
vertex 3.9542999E-02 2.8999999E-02 -6.9720000E-03
vertex 3.7730999E-02 2.8999999E-02 1.3733000E-02
vertex 3.9542999E-02 2.8999999E-02 6.9720000E-03
endloop
endfacet
facet normal 0.0000000E+00 1.0000000E+00 0.0000000E+00
outer loop
vertex 4.0153001E-02 2.8999999E-02 5.5511151E-17
vertex 3.9542999E-02 2.8999999E-02 -6.9720000E-03
vertex 3.9542999E-02 2.8999999E-02 6.9720000E-03
endloop
endfacet
facet normal 0.0000000E+00 1.0000000E+00 -0.0000000E+00
outer loop
vertex 1.4711000E-02 2.8999999E-02 -5.2000001E-02
vertex -1.4711000E-02 2.8999999E-02 -3.7275001E-02
vertex 1.4711000E-02 2.8999999E-02 -3.7275001E-02
endloop
endfacet
facet normal 0.0000000E+00 1.0000000E+00 0.0000000E+00
outer loop
vertex 1.4711000E-02 2.8999999E-02 -5.2000001E-02
vertex -1.4711000E-02 2.8999999E-02 -5.2000001E-02
vertex -1.4711000E-02 2.8999999E-02 -3.7275001E-02
endloop
endfacet
facet normal -0.0000000E+00 1.0000000E+00 0.0000000E+00
outer loop
vertex -3.9542999E-02 2.8999999E-02 -6.9720000E-03
vertex -3.9542999E-02 2.8999999E-02 6.9720000E-03
vertex -3.7730999E-02 2.8999999E-02 -1.3733000E-02
endloop
endfacet
facet normal 0.0000000E+00 1.0000000E+00 -0.0000000E+00
outer loop
vertex -3.9542999E-02 2.8999999E-02 -6.9720000E-03
vertex -4.0153001E-02 2.8999999E-02 5.5511151E-17
vertex -3.9542999E-02 2.8999999E-02 6.9720000E-03
endloop
endfacet
facet normal -0.0000000E+00 1.0000000E+00 0.0000000E+00
outer loop
vertex -3.7730999E-02 2.8999999E-02 -1.3733000E-02
vertex -3.7730999E-02 2.8999999E-02 1.3733000E-02
vertex -3.4773000E-02 2.8999999E-02 -2.0075999E-02
endloop
endfacet
facet normal 0.0000000E+00 1.0000000E+00 -0.0000000E+00
outer loop
vertex -3.7730999E-02 2.8999999E-02 -1.3733000E-02
vertex -3.9542999E-02 2.8999999E-02 6.9720000E-03
vertex -3.7730999E-02 2.8999999E-02 1.3733000E-02
endloop
endfacet
facet normal -0.0000000E+00 1.0000000E+00 0.0000000E+00
outer loop
vertex -3.4773000E-02 2.8999999E-02 -2.0075999E-02
vertex -3.4773000E-02 2.8999999E-02 2.0075999E-02
vertex -3.0758999E-02 2.8999999E-02 -2.5810000E-02
endloop
endfacet
facet normal 0.0000000E+00 1.0000000E+00 -0.0000000E+00
outer loop
vertex -3.4773000E-02 2.8999999E-02 -2.0075999E-02
vertex -3.7730999E-02 2.8999999E-02 1.3733000E-02
vertex -3.4773000E-02 2.8999999E-02 2.0075999E-02
endloop
endfacet
facet normal -0.0000000E+00 1.0000000E+00 0.0000000E+00
outer loop
vertex -3.4773000E-02 2.8999999E-02 2.0075999E-02
vertex -3.0758999E-02 2.8999999E-02 2.5810000E-02
vertex -3.0758999E-02 2.8999999E-02 -2.5810000E-02
endloop
endfacet
facet normal -0.0000000E+00 1.0000000E+00 0.0000000E+00
outer loop
vertex -3.0758999E-02 2.8999999E-02 -2.5810000E-02
vertex -3.0758999E-02 2.8999999E-02 2.5810000E-02
vertex -2.5810000E-02 2.8999999E-02 -3.0758999E-02
endloop
endfacet
facet normal 0.0000000E+00 1.0000000E+00 -0.0000000E+00
outer loop
vertex -2.5810000E-02 2.8999999E-02 -3.0758999E-02
vertex -3.0758999E-02 2.8999999E-02 2.5810000E-02
vertex -2.5810000E-02 2.8999999E-02 3.0758999E-02
endloop
endfacet
facet normal 0.0000000E+00 9.9999994E-01 -0.0000000E+00
outer loop
vertex -2.0075999E-02 2.8999999E-02 -3.4773000E-02
vertex -2.5810000E-02 2.8999999E-02 3.0758999E-02
vertex -2.0075999E-02 2.8999999E-02 3.4773000E-02
endloop
endfacet
facet normal 0.0000000E+00 1.0000000E+00 -0.0000000E+00
outer loop
vertex -1.4711000E-02 2.8999999E-02 -3.7275001E-02
vertex -2.0075999E-02 2.8999999E-02 3.4773000E-02
vertex -1.3733000E-02 2.8999999E-02 3.7730999E-02
endloop
endfacet
facet normal 0.0000000E+00 1.0000000E+00 0.0000000E+00
outer loop
vertex -6.9720000E-03 2.8999999E-02 3.9542999E-02
vertex -1.4711000E-02 2.8999999E-02 -3.7275001E-02
vertex -1.3733000E-02 2.8999999E-02 3.7730999E-02
endloop
endfacet
facet normal -0.0000000E+00 1.0000000E+00 0.0000000E+00
outer loop
vertex -6.9720000E-03 2.8999999E-02 3.9542999E-02
vertex 1.1102230E-16 2.8999999E-02 4.0153001E-02
vertex -1.4711000E-02 2.8999999E-02 -3.7275001E-02
endloop
endfacet
facet normal 0.0000000E+00 1.0000000E+00 0.0000000E+00
outer loop
vertex -1.4711000E-02 2.8999999E-02 -3.7275001E-02
vertex 1.1102230E-16 2.8999999E-02 4.0153001E-02
vertex 6.9720000E-03 2.8999999E-02 3.9542999E-02
endloop
endfacet
facet normal 0.0000000E+00 1.0000000E+00 0.0000000E+00
outer loop
vertex 1.3733000E-02 2.8999999E-02 3.7730999E-02
vertex -1.4711000E-02 2.8999999E-02 -3.7275001E-02
vertex 6.9720000E-03 2.8999999E-02 3.9542999E-02
endloop
endfacet
facet normal 0.0000000E+00 1.0000000E+00 0.0000000E+00
outer loop
vertex 1.3733000E-02 2.8999999E-02 3.7730999E-02
vertex 1.4711000E-02 2.8999999E-02 -3.7275001E-02
vertex -1.4711000E-02 2.8999999E-02 -3.7275001E-02
endloop
endfacet
facet normal 0.0000000E+00 1.0000000E+00 0.0000000E+00
outer loop
vertex 1.3733000E-02 2.8999999E-02 3.7730999E-02
vertex 2.0075999E-02 2.8999999E-02 3.4773000E-02
vertex 1.4711000E-02 2.8999999E-02 -3.7275001E-02
endloop
endfacet
facet normal 0.0000000E+00 1.0000000E+00 0.0000000E+00
outer loop
vertex 1.4711000E-02 2.8999999E-02 -3.7275001E-02
vertex 2.0075999E-02 2.8999999E-02 3.4773000E-02
vertex 2.0075999E-02 2.8999999E-02 -3.4773000E-02
endloop
endfacet
facet normal 0.0000000E+00 1.0000000E+00 0.0000000E+00
outer loop
vertex 3.9542999E-02 2.8999999E-02 -6.9720000E-03
vertex 3.7730999E-02 2.8999999E-02 -1.3733000E-02
vertex 3.7730999E-02 2.8999999E-02 1.3733000E-02
endloop
endfacet
facet normal 0.0000000E+00 1.0000000E+00 0.0000000E+00
outer loop
vertex 3.7730999E-02 2.8999999E-02 -1.3733000E-02
vertex 3.4773000E-02 2.8999999E-02 -2.0075999E-02
vertex 3.4773000E-02 2.8999999E-02 2.0075999E-02
endloop
endfacet
facet normal 0.0000000E+00 1.0000000E+00 0.0000000E+00
outer loop
vertex -2.0075999E-02 2.8999999E-02 3.4773000E-02
vertex -1.4711000E-02 2.8999999E-02 -3.7275001E-02
vertex -2.0075999E-02 2.8999999E-02 -3.4773000E-02
endloop
endfacet
facet normal 0.0000000E+00 1.0000000E+00 0.0000000E+00
outer loop
vertex -2.5810000E-02 2.8999999E-02 3.0758999E-02
vertex -2.0075999E-02 2.8999999E-02 -3.4773000E-02
vertex -2.5810000E-02 2.8999999E-02 -3.0758999E-02
endloop
endfacet
facet normal 0.0000000E+00 -1.0000000E+00 0.0000000E+00
outer loop
vertex -1.4711000E-02 -2.8999999E-02 -5.2000001E-02
vertex 1.4711000E-02 -2.8999999E-02 -5.2000001E-02
vertex -1.4711000E-02 -2.8999999E-02 -3.7275001E-02
endloop
endfacet
facet normal 0.0000000E+00 -1.0000000E+00 0.0000000E+00
outer loop
vertex -1.4711000E-02 -2.8999999E-02 -3.7275001E-02
vertex 1.4711000E-02 -2.8999999E-02 -5.2000001E-02
vertex 1.4711000E-02 -2.8999999E-02 -3.7275001E-02
endloop
endfacet
facet normal 0.0000000E+00 -1.0000000E+00 0.0000000E+00
outer loop
vertex 1.1102230E-16 -2.8999999E-02 -1.5000000E-02
vertex 1.4711000E-02 -2.8999999E-02 -3.7275001E-02
vertex 1.0607000E-02 -2.8999999E-02 -1.0607000E-02
endloop
endfacet
facet normal 0.0000000E+00 -1.0000000E+00 -0.0000000E+00
outer loop
vertex 1.1102230E-16 -2.8999999E-02 -1.5000000E-02
vertex -1.4711000E-02 -2.8999999E-02 -3.7275001E-02
vertex 1.4711000E-02 -2.8999999E-02 -3.7275001E-02
endloop
endfacet
facet normal -0.0000000E+00 -1.0000000E+00 0.0000000E+00
outer loop
vertex 1.1102230E-16 -2.8999999E-02 -1.5000000E-02
vertex -1.0607000E-02 -2.8999999E-02 -1.0607000E-02
vertex -1.4711000E-02 -2.8999999E-02 -3.7275001E-02
endloop
endfacet
facet normal 0.0000000E+00 -1.0000000E+00 0.0000000E+00
outer loop
vertex -1.4711000E-02 -2.8999999E-02 -3.7275001E-02
vertex -1.0607000E-02 -2.8999999E-02 -1.0607000E-02
vertex -2.0075999E-02 -2.8999999E-02 -3.4773000E-02
endloop
endfacet
facet normal 0.0000000E+00 -1.0000000E+00 0.0000000E+00
outer loop
vertex -2.0075999E-02 -2.8999999E-02 -3.4773000E-02
vertex -1.0607000E-02 -2.8999999E-02 -1.0607000E-02
vertex -2.5810000E-02 -2.8999999E-02 -3.0758999E-02
endloop
endfacet
facet normal 0.0000000E+00 -1.0000000E+00 0.0000000E+00
outer loop
vertex -2.5810000E-02 -2.8999999E-02 -3.0758999E-02
vertex -1.0607000E-02 -2.8999999E-02 -1.0607000E-02
vertex -3.0758999E-02 -2.8999999E-02 -2.5810000E-02
endloop
endfacet
facet normal 0.0000000E+00 -1.0000000E+00 0.0000000E+00
outer loop
vertex -3.0758999E-02 -2.8999999E-02 -2.5810000E-02
vertex -1.0607000E-02 -2.8999999E-02 -1.0607000E-02
vertex -3.4773000E-02 -2.8999999E-02 -2.0075999E-02
endloop
endfacet
facet normal 0.0000000E+00 -1.0000000E+00 0.0000000E+00
outer loop
vertex -3.4773000E-02 -2.8999999E-02 -2.0075999E-02
vertex -1.0607000E-02 -2.8999999E-02 -1.0607000E-02
vertex -1.5000000E-02 -2.8999999E-02 5.5511151E-17
endloop
endfacet
facet normal 0.0000000E+00 -1.0000000E+00 0.0000000E+00
outer loop
vertex -3.7730999E-02 -2.8999999E-02 -1.3733000E-02
vertex -1.5000000E-02 -2.8999999E-02 5.5511151E-17
vertex -3.9542999E-02 -2.8999999E-02 -6.9720000E-03
endloop
endfacet
facet normal 0.0000000E+00 -1.0000000E+00 0.0000000E+00
outer loop
vertex -3.7730999E-02 -2.8999999E-02 -1.3733000E-02
vertex -3.4773000E-02 -2.8999999E-02 -2.0075999E-02
vertex -1.5000000E-02 -2.8999999E-02 5.5511151E-17
endloop
endfacet
facet normal 0.0000000E+00 -1.0000000E+00 0.0000000E+00
outer loop
vertex 1.4711000E-02 -2.8999999E-02 -3.7275001E-02
vertex 2.0075999E-02 -2.8999999E-02 -3.4773000E-02
vertex 1.0607000E-02 -2.8999999E-02 -1.0607000E-02
endloop
endfacet
facet normal 0.0000000E+00 -1.0000000E+00 0.0000000E+00
outer loop
vertex 1.0607000E-02 -2.8999999E-02 -1.0607000E-02
vertex 2.0075999E-02 -2.8999999E-02 -3.4773000E-02
vertex 2.5810000E-02 -2.8999999E-02 -3.0758999E-02
endloop
endfacet
facet normal -0.0000000E+00 -1.0000000E+00 0.0000000E+00
outer loop
vertex 3.0758999E-02 -2.8999999E-02 -2.5810000E-02
vertex 1.0607000E-02 -2.8999999E-02 -1.0607000E-02
vertex 2.5810000E-02 -2.8999999E-02 -3.0758999E-02
endloop
endfacet
facet normal 0.0000000E+00 -1.0000000E+00 0.0000000E+00
outer loop
vertex 3.0758999E-02 -2.8999999E-02 -2.5810000E-02
vertex 3.4773000E-02 -2.8999999E-02 -2.0075999E-02
vertex 1.0607000E-02 -2.8999999E-02 -1.0607000E-02
endloop
endfacet
facet normal 0.0000000E+00 -1.0000000E+00 0.0000000E+00
outer loop
vertex 1.0607000E-02 -2.8999999E-02 -1.0607000E-02
vertex 3.4773000E-02 -2.8999999E-02 -2.0075999E-02
vertex 1.5000000E-02 -2.8999999E-02 5.5511151E-17
endloop
endfacet
facet normal 0.0000000E+00 -1.0000000E+00 0.0000000E+00
outer loop
vertex 1.5000000E-02 -2.8999999E-02 5.5511151E-17
vertex 3.4773000E-02 -2.8999999E-02 -2.0075999E-02
vertex 3.7730999E-02 -2.8999999E-02 -1.3733000E-02
endloop
endfacet
facet normal -0.0000000E+00 -1.0000000E+00 0.0000000E+00
outer loop
vertex 3.9542999E-02 -2.8999999E-02 -6.9720000E-03
vertex 1.5000000E-02 -2.8999999E-02 5.5511151E-17
vertex 3.7730999E-02 -2.8999999E-02 -1.3733000E-02
endloop
endfacet
facet normal 0.0000000E+00 -1.0000000E+00 0.0000000E+00
outer loop
vertex 3.9542999E-02 -2.8999999E-02 -6.9720000E-03
vertex 4.0153001E-02 -2.8999999E-02 5.5511151E-17
vertex 1.5000000E-02 -2.8999999E-02 5.5511151E-17
endloop
endfacet
facet normal 0.0000000E+00 -1.0000000E+00 0.0000000E+00
outer loop
vertex 1.5000000E-02 -2.8999999E-02 5.5511151E-17
vertex 4.0153001E-02 -2.8999999E-02 5.5511151E-17
vertex 3.9542999E-02 -2.8999999E-02 6.9720000E-03
endloop
endfacet
facet normal 0.0000000E+00 -1.0000000E+00 -0.0000000E+00
outer loop
vertex 3.7730999E-02 -2.8999999E-02 1.3733000E-02
vertex 1.5000000E-02 -2.8999999E-02 5.5511151E-17
vertex 3.9542999E-02 -2.8999999E-02 6.9720000E-03
endloop
endfacet
facet normal -0.0000000E+00 -1.0000000E+00 0.0000000E+00
outer loop
vertex 3.7730999E-02 -2.8999999E-02 1.3733000E-02
vertex 3.4773000E-02 -2.8999999E-02 2.0075999E-02
vertex 1.5000000E-02 -2.8999999E-02 5.5511151E-17
endloop
endfacet
facet normal 0.0000000E+00 -1.0000000E+00 0.0000000E+00
outer loop
vertex 1.5000000E-02 -2.8999999E-02 5.5511151E-17
vertex 3.4773000E-02 -2.8999999E-02 2.0075999E-02
vertex 1.0607000E-02 -2.8999999E-02 1.0607000E-02
endloop
endfacet
facet normal 0.0000000E+00 -1.0000000E+00 0.0000000E+00
outer loop
vertex 1.0607000E-02 -2.8999999E-02 1.0607000E-02
vertex 3.4773000E-02 -2.8999999E-02 2.0075999E-02
vertex 3.0758999E-02 -2.8999999E-02 2.5810000E-02
endloop
endfacet
facet normal 0.0000000E+00 -1.0000000E+00 -0.0000000E+00
outer loop
vertex 2.5810000E-02 -2.8999999E-02 3.0758999E-02
vertex 1.0607000E-02 -2.8999999E-02 1.0607000E-02
vertex 3.0758999E-02 -2.8999999E-02 2.5810000E-02
endloop
endfacet
facet normal -0.0000000E+00 -1.0000000E+00 0.0000000E+00
outer loop
vertex 2.5810000E-02 -2.8999999E-02 3.0758999E-02
vertex 2.0075999E-02 -2.8999999E-02 3.4773000E-02
vertex 1.0607000E-02 -2.8999999E-02 1.0607000E-02
endloop
endfacet
facet normal 0.0000000E+00 -1.0000000E+00 0.0000000E+00
outer loop
vertex 1.0607000E-02 -2.8999999E-02 1.0607000E-02
vertex 2.0075999E-02 -2.8999999E-02 3.4773000E-02
vertex 1.3733000E-02 -2.8999999E-02 3.7730999E-02
endloop
endfacet
facet normal 0.0000000E+00 -1.0000000E+00 0.0000000E+00
outer loop
vertex 1.1102230E-16 -2.8999999E-02 1.5000000E-02
vertex 1.3733000E-02 -2.8999999E-02 3.7730999E-02
vertex 6.9720000E-03 -2.8999999E-02 3.9542999E-02
endloop
endfacet
facet normal 0.0000000E+00 -1.0000000E+00 0.0000000E+00
outer loop
vertex 1.1102230E-16 -2.8999999E-02 4.0153001E-02
vertex 1.1102230E-16 -2.8999999E-02 1.5000000E-02
vertex 6.9720000E-03 -2.8999999E-02 3.9542999E-02
endloop
endfacet
facet normal 0.0000000E+00 -1.0000000E+00 -0.0000000E+00
outer loop
vertex 1.1102230E-16 -2.8999999E-02 4.0153001E-02
vertex -6.9720000E-03 -2.8999999E-02 3.9542999E-02
vertex 1.1102230E-16 -2.8999999E-02 1.5000000E-02
endloop
endfacet
facet normal 0.0000000E+00 -1.0000000E+00 0.0000000E+00
outer loop
vertex 1.1102230E-16 -2.8999999E-02 1.5000000E-02
vertex -6.9720000E-03 -2.8999999E-02 3.9542999E-02
vertex -1.3733000E-02 -2.8999999E-02 3.7730999E-02
endloop
endfacet
facet normal 0.0000000E+00 -1.0000000E+00 0.0000000E+00
outer loop
vertex -1.0607000E-02 -2.8999999E-02 1.0607000E-02
vertex -1.3733000E-02 -2.8999999E-02 3.7730999E-02
vertex -2.0075999E-02 -2.8999999E-02 3.4773000E-02
endloop
endfacet
facet normal 0.0000000E+00 -1.0000000E+00 0.0000000E+00
outer loop
vertex -2.5810000E-02 -2.8999999E-02 3.0758999E-02
vertex -1.0607000E-02 -2.8999999E-02 1.0607000E-02
vertex -2.0075999E-02 -2.8999999E-02 3.4773000E-02
endloop
endfacet
facet normal 0.0000000E+00 -1.0000000E+00 -0.0000000E+00
outer loop
vertex -2.5810000E-02 -2.8999999E-02 3.0758999E-02
vertex -3.0758999E-02 -2.8999999E-02 2.5810000E-02
vertex -1.0607000E-02 -2.8999999E-02 1.0607000E-02
endloop
endfacet
facet normal 0.0000000E+00 -1.0000000E+00 0.0000000E+00
outer loop
vertex -1.0607000E-02 -2.8999999E-02 1.0607000E-02
vertex -3.0758999E-02 -2.8999999E-02 2.5810000E-02
vertex -3.4773000E-02 -2.8999999E-02 2.0075999E-02
endloop
endfacet
facet normal 0.0000000E+00 -1.0000000E+00 0.0000000E+00
outer loop
vertex -1.5000000E-02 -2.8999999E-02 5.5511151E-17
vertex -3.4773000E-02 -2.8999999E-02 2.0075999E-02
vertex -3.7730999E-02 -2.8999999E-02 1.3733000E-02
endloop
endfacet
facet normal 0.0000000E+00 -1.0000000E+00 0.0000000E+00
outer loop
vertex -3.9542999E-02 -2.8999999E-02 6.9720000E-03
vertex -1.5000000E-02 -2.8999999E-02 5.5511151E-17
vertex -3.7730999E-02 -2.8999999E-02 1.3733000E-02
endloop
endfacet
facet normal 0.0000000E+00 -1.0000000E+00 -0.0000000E+00
outer loop
vertex -3.9542999E-02 -2.8999999E-02 6.9720000E-03
vertex -4.0153001E-02 -2.8999999E-02 5.5511151E-17
vertex -1.5000000E-02 -2.8999999E-02 5.5511151E-17
endloop
endfacet
facet normal -0.0000000E+00 -1.0000000E+00 0.0000000E+00
outer loop
vertex -1.5000000E-02 -2.8999999E-02 5.5511151E-17
vertex -4.0153001E-02 -2.8999999E-02 5.5511151E-17
vertex -3.9542999E-02 -2.8999999E-02 -6.9720000E-03
endloop
endfacet
facet normal 0.0000000E+00 -9.9999994E-01 0.0000000E+00
outer loop
vertex 1.1102230E-16 -2.8999999E-02 1.5000000E-02
vertex 1.0607000E-02 -2.8999999E-02 1.0607000E-02
vertex 1.3733000E-02 -2.8999999E-02 3.7730999E-02
endloop
endfacet
facet normal 0.0000000E+00 -1.0000000E+00 0.0000000E+00
outer loop
vertex -1.5000000E-02 -2.8999999E-02 5.5511151E-17
vertex -1.0607000E-02 -2.8999999E-02 1.0607000E-02
vertex -3.4773000E-02 -2.8999999E-02 2.0075999E-02
endloop
endfacet
facet normal 0.0000000E+00 -1.0000000E+00 0.0000000E+00
outer loop
vertex -1.0607000E-02 -2.8999999E-02 1.0607000E-02
vertex 1.1102230E-16 -2.8999999E-02 1.5000000E-02
vertex -1.3733000E-02 -2.8999999E-02 3.7730999E-02
endloop
endfacet
facet normal -9.9620432E-01 -8.7046608E-02 -5.3300686E-18
outer loop
vertex -3.2623999E-02 5.2079453E-17 -2.3146000E-02
vertex -3.2623999E-02 5.3846252E-17 -5.2000001E-02
vertex -3.2129001E-02 -5.6650001E-03 -2.3854000E-02
endloop
endfacet
facet normal -9.9620426E-01 -8.7046616E-02 -0.0000000E+00
outer loop
vertex -3.2129001E-02 -5.6650001E-03 -2.3854000E-02
vertex -3.2623999E-02 5.3846252E-17 -5.2000001E-02
vertex -3.2129001E-02 -5.6650001E-03 -5.2000001E-02
endloop
endfacet
facet normal -9.9620426E-01 8.7046616E-02 0.0000000E+00
outer loop
vertex -3.2129001E-02 5.6650001E-03 -2.3854000E-02
vertex -3.2129001E-02 5.6650001E-03 -5.2000001E-02
vertex -3.2623999E-02 5.2079453E-17 -2.3146000E-02
endloop
endfacet
facet normal -9.9620432E-01 8.7046608E-02 5.3300686E-18
outer loop
vertex -3.2623999E-02 5.2079453E-17 -2.3146000E-02
vertex -3.2129001E-02 5.6650001E-03 -5.2000001E-02
vertex -3.2623999E-02 5.3846252E-17 -5.2000001E-02
endloop
endfacet
facet normal 9.9618900E-01 8.7221488E-02 5.3407768E-18
outer loop
vertex 3.2623999E-02 5.6074739E-17 -2.3146000E-02
vertex 3.2623999E-02 5.7841537E-17 -5.2000001E-02
vertex 3.2127999E-02 5.6650001E-03 -2.3854000E-02
endloop
endfacet
facet normal 9.9618894E-01 8.7221496E-02 0.0000000E+00
outer loop
vertex 3.2127999E-02 5.6650001E-03 -2.3854000E-02
vertex 3.2623999E-02 5.7841537E-17 -5.2000001E-02
vertex 3.2127999E-02 5.6650001E-03 -5.2000001E-02
endloop
endfacet
facet normal 9.9618894E-01 -8.7221496E-02 0.0000000E+00
outer loop
vertex 3.2127999E-02 -5.6650001E-03 -2.3854000E-02
vertex 3.2127999E-02 -5.6650001E-03 -5.2000001E-02
vertex 3.2623999E-02 5.6074739E-17 -2.3146000E-02
endloop
endfacet
facet normal 9.9618900E-01 -8.7221488E-02 -5.3407768E-18
outer loop
vertex 3.2623999E-02 5.6074739E-17 -2.3146000E-02
vertex 3.2127999E-02 -5.6650001E-03 -5.2000001E-02
vertex 3.2623999E-02 5.7841537E-17 -5.2000001E-02
endloop
endfacet
facet normal 9.0626395E-01 4.2271230E-01 0.0000000E+00
outer loop
vertex 3.0657001E-02 1.1158000E-02 -2.5912000E-02
vertex 3.0657001E-02 1.1158000E-02 -5.2000001E-02
vertex 2.8253000E-02 1.6311999E-02 -2.8315000E-02
endloop
endfacet
facet normal 9.0626395E-01 4.2271233E-01 0.0000000E+00
outer loop
vertex 2.8253000E-02 1.6311999E-02 -2.8315000E-02
vertex 3.0657001E-02 1.1158000E-02 -5.2000001E-02
vertex 2.8253000E-02 1.6311999E-02 -5.2000001E-02
endloop
endfacet
facet normal 9.6596158E-01 2.5868559E-01 0.0000000E+00
outer loop
vertex 3.2127999E-02 5.6650001E-03 -2.3854000E-02
vertex 3.2127999E-02 5.6650001E-03 -5.2000001E-02
vertex 3.0758999E-02 1.0777000E-02 -2.5810000E-02
endloop
endfacet
facet normal 9.6596307E-01 2.5868011E-01 1.1541903E-06
outer loop
vertex 3.0758999E-02 1.0777000E-02 -2.5810000E-02
vertex 3.2127999E-02 5.6650001E-03 -5.2000001E-02
vertex 3.0657001E-02 1.1158000E-02 -5.2000001E-02
endloop
endfacet
facet normal 9.6598279E-01 2.5860605E-01 0.0000000E+00
outer loop
vertex 3.0657001E-02 1.1158000E-02 -2.5912000E-02
vertex 3.0758999E-02 1.0777000E-02 -2.5810000E-02
vertex 3.0657001E-02 1.1158000E-02 -5.2000001E-02
endloop
endfacet
facet normal 9.6596158E-01 -2.5868559E-01 0.0000000E+00
outer loop
vertex 3.2127999E-02 -5.6650001E-03 -2.3854000E-02
vertex 3.0758999E-02 -1.0777000E-02 -2.5810000E-02
vertex 3.2127999E-02 -5.6650001E-03 -5.2000001E-02
endloop
endfacet
facet normal 9.6596307E-01 -2.5868011E-01 1.1541903E-06
outer loop
vertex 3.2127999E-02 -5.6650001E-03 -5.2000001E-02
vertex 3.0758999E-02 -1.0777000E-02 -2.5810000E-02
vertex 3.0657001E-02 -1.1158000E-02 -5.2000001E-02
endloop
endfacet
facet normal 9.6598279E-01 -2.5860605E-01 0.0000000E+00
outer loop
vertex 3.0657001E-02 -1.1158000E-02 -5.2000001E-02
vertex 3.0758999E-02 -1.0777000E-02 -2.5810000E-02
vertex 3.0657001E-02 -1.1158000E-02 -2.5912000E-02
endloop
endfacet
facet normal 9.0626395E-01 -4.2271230E-01 0.0000000E+00
outer loop
vertex 3.0657001E-02 -1.1158000E-02 -2.5912000E-02
vertex 2.8253000E-02 -1.6311999E-02 -2.8315000E-02
vertex 3.0657001E-02 -1.1158000E-02 -5.2000001E-02
endloop
endfacet
facet normal 9.0626395E-01 -4.2271233E-01 0.0000000E+00
outer loop
vertex 3.0657001E-02 -1.1158000E-02 -5.2000001E-02
vertex 2.8253000E-02 -1.6311999E-02 -2.8315000E-02
vertex 2.8253000E-02 -1.6311999E-02 -5.2000001E-02
endloop
endfacet
facet normal 7.0710683E-01 7.0710683E-01 0.0000000E+00
outer loop
vertex 2.4992000E-02 2.0970000E-02 -3.1332001E-02
vertex 2.4992000E-02 2.0970000E-02 -5.2000001E-02
vertex 2.0970000E-02 2.4992000E-02 -3.4147002E-02
endloop
endfacet
facet normal 7.0710677E-01 7.0710677E-01 0.0000000E+00
outer loop
vertex 2.0970000E-02 2.4992000E-02 -3.4147002E-02
vertex 2.4992000E-02 2.0970000E-02 -5.2000001E-02
vertex 2.0970000E-02 2.4992000E-02 -5.2000001E-02
endloop
endfacet
facet normal 8.1923187E-01 5.7346231E-01 0.0000000E+00
outer loop
vertex 2.8253000E-02 1.6311999E-02 -2.8315000E-02
vertex 2.8253000E-02 1.6311999E-02 -5.2000001E-02
vertex 2.5810000E-02 1.9802000E-02 -3.0758999E-02
endloop
endfacet
facet normal 8.1919885E-01 5.7350945E-01 -1.1545904E-05
outer loop
vertex 2.5810000E-02 1.9802000E-02 -3.0758999E-02
vertex 2.8253000E-02 1.6311999E-02 -5.2000001E-02
vertex 2.4992000E-02 2.0970000E-02 -5.2000001E-02
endloop
endfacet
facet normal 8.1910026E-01 5.7365036E-01 0.0000000E+00
outer loop
vertex 2.4992000E-02 2.0970000E-02 -3.1332001E-02
vertex 2.5810000E-02 1.9802000E-02 -3.0758999E-02
vertex 2.4992000E-02 2.0970000E-02 -5.2000001E-02
endloop
endfacet
facet normal 8.1923187E-01 -5.7346231E-01 0.0000000E+00
outer loop
vertex 2.8253000E-02 -1.6311999E-02 -2.8315000E-02
vertex 2.5810000E-02 -1.9802000E-02 -3.0758999E-02
vertex 2.8253000E-02 -1.6311999E-02 -5.2000001E-02
endloop
endfacet
facet normal 8.1919885E-01 -5.7350945E-01 -1.1544022E-05
outer loop
vertex 2.8253000E-02 -1.6311999E-02 -5.2000001E-02
vertex 2.5810000E-02 -1.9802000E-02 -3.0758999E-02
vertex 2.4992000E-02 -2.0970000E-02 -5.2000001E-02
endloop
endfacet
facet normal 8.1910026E-01 -5.7365036E-01 0.0000000E+00
outer loop
vertex 2.4992000E-02 -2.0970000E-02 -5.2000001E-02
vertex 2.5810000E-02 -1.9802000E-02 -3.0758999E-02
vertex 2.4992000E-02 -2.0970000E-02 -3.1332001E-02
endloop
endfacet
facet normal 7.0710683E-01 -7.0710683E-01 0.0000000E+00
outer loop
vertex 2.4992000E-02 -2.0970000E-02 -3.1332001E-02
vertex 2.0970000E-02 -2.4992000E-02 -3.4147002E-02
vertex 2.4992000E-02 -2.0970000E-02 -5.2000001E-02
endloop
endfacet
facet normal 7.0710677E-01 -7.0710677E-01 0.0000000E+00
outer loop
vertex 2.4992000E-02 -2.0970000E-02 -5.2000001E-02
vertex 2.0970000E-02 -2.4992000E-02 -3.4147002E-02
vertex 2.0970000E-02 -2.4992000E-02 -5.2000001E-02
endloop
endfacet
facet normal 5.7358479E-01 8.1914628E-01 0.0000000E+00
outer loop
vertex 2.0970000E-02 2.4992000E-02 -3.4147002E-02
vertex 2.0970000E-02 2.4992000E-02 -5.2000001E-02
vertex 2.0075999E-02 2.5618000E-02 -3.4773000E-02
endloop
endfacet
facet normal 5.7349378E-01 8.1920993E-01 -7.0341948E-06
outer loop
vertex 2.0075999E-02 2.5618000E-02 -3.4773000E-02
vertex 2.0970000E-02 2.4992000E-02 -5.2000001E-02
vertex 1.6311999E-02 2.8253000E-02 -3.6529001E-02
endloop
endfacet
facet normal 5.7350945E-01 8.1919891E-01 0.0000000E+00
outer loop
vertex 1.6311999E-02 2.8253000E-02 -3.6529001E-02
vertex 2.0970000E-02 2.4992000E-02 -5.2000001E-02
vertex 1.6311999E-02 2.8253000E-02 -5.2000001E-02
endloop
endfacet
facet normal 5.7358479E-01 -8.1914628E-01 0.0000000E+00
outer loop
vertex 2.0970000E-02 -2.4992000E-02 -3.4147002E-02
vertex 2.0075999E-02 -2.5618000E-02 -3.4773000E-02
vertex 2.0970000E-02 -2.4992000E-02 -5.2000001E-02
endloop
endfacet
facet normal 5.7350957E-01 -8.1919891E-01 -5.8216742E-06
outer loop
vertex 2.0970000E-02 -2.4992000E-02 -5.2000001E-02
vertex 2.0075999E-02 -2.5618000E-02 -3.4773000E-02
vertex 1.6311999E-02 -2.8253000E-02 -5.2000001E-02
endloop
endfacet
facet normal 5.7349163E-01 -8.1921148E-01 0.0000000E+00
outer loop
vertex 1.6311999E-02 -2.8253000E-02 -5.2000001E-02
vertex 2.0075999E-02 -2.5618000E-02 -3.4773000E-02
vertex 1.6311999E-02 -2.8253000E-02 -3.6529001E-02
endloop
endfacet
facet normal -5.7349163E-01 -8.1921148E-01 -0.0000000E+00
outer loop
vertex -1.6311999E-02 -2.8253000E-02 -3.6529001E-02
vertex -2.0075999E-02 -2.5618000E-02 -3.4773000E-02
vertex -1.6311999E-02 -2.8253000E-02 -5.2000001E-02
endloop
endfacet
facet normal -5.7350957E-01 -8.1919891E-01 -5.8216742E-06
outer loop
vertex -1.6311999E-02 -2.8253000E-02 -5.2000001E-02
vertex -2.0075999E-02 -2.5618000E-02 -3.4773000E-02
vertex -2.0970000E-02 -2.4992000E-02 -5.2000001E-02
endloop
endfacet
facet normal -5.7358479E-01 -8.1914628E-01 0.0000000E+00
outer loop
vertex -2.0970000E-02 -2.4992000E-02 -5.2000001E-02
vertex -2.0075999E-02 -2.5618000E-02 -3.4773000E-02
vertex -2.0970000E-02 -2.4992000E-02 -3.4147002E-02
endloop
endfacet
facet normal -7.0710683E-01 -7.0710683E-01 -0.0000000E+00
outer loop
vertex -2.4992000E-02 -2.0970000E-02 -3.1332001E-02
vertex -2.4992000E-02 -2.0970000E-02 -5.2000001E-02
vertex -2.0970000E-02 -2.4992000E-02 -3.4147002E-02
endloop
endfacet
facet normal -7.0710677E-01 -7.0710677E-01 -0.0000000E+00
outer loop
vertex -2.0970000E-02 -2.4992000E-02 -3.4147002E-02
vertex -2.4992000E-02 -2.0970000E-02 -5.2000001E-02
vertex -2.0970000E-02 -2.4992000E-02 -5.2000001E-02
endloop
endfacet
facet normal -7.0710683E-01 7.0710683E-01 0.0000000E+00
outer loop
vertex -2.4992000E-02 2.0970000E-02 -3.1332001E-02
vertex -2.0970000E-02 2.4992000E-02 -3.4147002E-02
vertex -2.4992000E-02 2.0970000E-02 -5.2000001E-02
endloop
endfacet
facet normal -7.0710677E-01 7.0710677E-01 0.0000000E+00
outer loop
vertex -2.4992000E-02 2.0970000E-02 -5.2000001E-02
vertex -2.0970000E-02 2.4992000E-02 -3.4147002E-02
vertex -2.0970000E-02 2.4992000E-02 -5.2000001E-02
endloop
endfacet
facet normal -5.7349163E-01 8.1921148E-01 0.0000000E+00
outer loop
vertex -1.6311999E-02 2.8253000E-02 -3.6529001E-02
vertex -1.6311999E-02 2.8253000E-02 -5.2000001E-02
vertex -2.0075999E-02 2.5618000E-02 -3.4773000E-02
endloop
endfacet
facet normal -5.7350951E-01 8.1919891E-01 -5.8216733E-06
outer loop
vertex -2.0075999E-02 2.5618000E-02 -3.4773000E-02
vertex -1.6311999E-02 2.8253000E-02 -5.2000001E-02
vertex -2.0970000E-02 2.4992000E-02 -5.2000001E-02
endloop
endfacet
facet normal -5.7358479E-01 8.1914628E-01 0.0000000E+00
outer loop
vertex -2.0970000E-02 2.4992000E-02 -3.4147002E-02
vertex -2.0075999E-02 2.5618000E-02 -3.4773000E-02
vertex -2.0970000E-02 2.4992000E-02 -5.2000001E-02
endloop
endfacet
facet normal -8.1910026E-01 -5.7365036E-01 -0.0000000E+00
outer loop
vertex -2.4992000E-02 -2.0970000E-02 -3.1332001E-02
vertex -2.5810000E-02 -1.9802000E-02 -3.0758999E-02
vertex -2.4992000E-02 -2.0970000E-02 -5.2000001E-02
endloop
endfacet
facet normal -8.1919885E-01 -5.7350945E-01 -1.1545904E-05
outer loop
vertex -2.4992000E-02 -2.0970000E-02 -5.2000001E-02
vertex -2.5810000E-02 -1.9802000E-02 -3.0758999E-02
vertex -2.8253000E-02 -1.6311999E-02 -5.2000001E-02
endloop
endfacet
facet normal -8.1923187E-01 -5.7346231E-01 0.0000000E+00
outer loop
vertex -2.8253000E-02 -1.6311999E-02 -5.2000001E-02
vertex -2.5810000E-02 -1.9802000E-02 -3.0758999E-02
vertex -2.8253000E-02 -1.6311999E-02 -2.8315000E-02
endloop
endfacet
facet normal -9.0626395E-01 -4.2271230E-01 -0.0000000E+00
outer loop
vertex -3.0657001E-02 -1.1158000E-02 -2.5912000E-02
vertex -3.0657001E-02 -1.1158000E-02 -5.2000001E-02
vertex -2.8253000E-02 -1.6311999E-02 -2.8315000E-02
endloop
endfacet
facet normal -9.0626395E-01 -4.2271233E-01 -0.0000000E+00
outer loop
vertex -2.8253000E-02 -1.6311999E-02 -2.8315000E-02
vertex -3.0657001E-02 -1.1158000E-02 -5.2000001E-02
vertex -2.8253000E-02 -1.6311999E-02 -5.2000001E-02
endloop
endfacet
facet normal -9.6591431E-01 -2.5886229E-01 -0.0000000E+00
outer loop
vertex -3.2129001E-02 -5.6650001E-03 -2.3854000E-02
vertex -3.2129001E-02 -5.6650001E-03 -5.2000001E-02
vertex -3.0758999E-02 -1.0777000E-02 -2.5810000E-02
endloop
endfacet
facet normal -9.6591902E-01 -2.5884452E-01 3.7177429E-06
outer loop
vertex -3.0758999E-02 -1.0777000E-02 -2.5810000E-02
vertex -3.2129001E-02 -5.6650001E-03 -5.2000001E-02
vertex -3.0657001E-02 -1.1158000E-02 -5.2000001E-02
endloop
endfacet
facet normal -9.6598279E-01 -2.5860605E-01 -0.0000000E+00
outer loop
vertex -3.0657001E-02 -1.1158000E-02 -2.5912000E-02
vertex -3.0758999E-02 -1.0777000E-02 -2.5810000E-02
vertex -3.0657001E-02 -1.1158000E-02 -5.2000001E-02
endloop
endfacet
facet normal -9.6591431E-01 2.5886229E-01 0.0000000E+00
outer loop
vertex -3.2129001E-02 5.6650001E-03 -2.3854000E-02
vertex -3.0758999E-02 1.0777000E-02 -2.5810000E-02
vertex -3.2129001E-02 5.6650001E-03 -5.2000001E-02
endloop
endfacet
facet normal -9.6591902E-01 2.5884452E-01 3.7188879E-06
outer loop
vertex -3.2129001E-02 5.6650001E-03 -5.2000001E-02
vertex -3.0758999E-02 1.0777000E-02 -2.5810000E-02
vertex -3.0657001E-02 1.1158000E-02 -5.2000001E-02
endloop
endfacet
facet normal -9.6598279E-01 2.5860605E-01 0.0000000E+00
outer loop
vertex -3.0657001E-02 1.1158000E-02 -5.2000001E-02
vertex -3.0758999E-02 1.0777000E-02 -2.5810000E-02
vertex -3.0657001E-02 1.1158000E-02 -2.5912000E-02
endloop
endfacet
facet normal -9.0626395E-01 4.2271230E-01 0.0000000E+00
outer loop
vertex -3.0657001E-02 1.1158000E-02 -2.5912000E-02
vertex -2.8253000E-02 1.6311999E-02 -2.8315000E-02
vertex -3.0657001E-02 1.1158000E-02 -5.2000001E-02
endloop
endfacet
facet normal -9.0626395E-01 4.2271233E-01 0.0000000E+00
outer loop
vertex -3.0657001E-02 1.1158000E-02 -5.2000001E-02
vertex -2.8253000E-02 1.6311999E-02 -2.8315000E-02
vertex -2.8253000E-02 1.6311999E-02 -5.2000001E-02
endloop
endfacet
facet normal -8.1910026E-01 5.7365036E-01 0.0000000E+00
outer loop
vertex -2.4992000E-02 2.0970000E-02 -3.1332001E-02
vertex -2.4992000E-02 2.0970000E-02 -5.2000001E-02
vertex -2.5810000E-02 1.9802000E-02 -3.0758999E-02
endloop
endfacet
facet normal -8.1919885E-01 5.7350945E-01 -1.1545904E-05
outer loop
vertex -2.5810000E-02 1.9802000E-02 -3.0758999E-02
vertex -2.4992000E-02 2.0970000E-02 -5.2000001E-02
vertex -2.8253000E-02 1.6311999E-02 -5.2000001E-02
endloop
endfacet
facet normal -8.1923187E-01 5.7346231E-01 0.0000000E+00
outer loop
vertex -2.8253000E-02 1.6311999E-02 -2.8315000E-02
vertex -2.5810000E-02 1.9802000E-02 -3.0758999E-02
vertex -2.8253000E-02 1.6311999E-02 -5.2000001E-02
endloop
endfacet
facet normal 4.2282313E-01 9.0621221E-01 0.0000000E+00
outer loop
vertex 1.6311999E-02 2.8253000E-02 -3.6529001E-02
vertex 1.6311999E-02 2.8253000E-02 -5.2000001E-02
vertex 1.4711000E-02 2.8999999E-02 -3.7275001E-02
endloop
endfacet
facet normal 4.2282310E-01 9.0621215E-01 0.0000000E+00
outer loop
vertex 1.4711000E-02 2.8999999E-02 -3.7275001E-02
vertex 1.6311999E-02 2.8253000E-02 -5.2000001E-02
vertex 1.4711000E-02 2.8999999E-02 -5.2000001E-02
endloop
endfacet
facet normal -4.2282310E-01 9.0621215E-01 0.0000000E+00
outer loop
vertex -1.4711000E-02 2.8999999E-02 -3.7275001E-02
vertex -1.4711000E-02 2.8999999E-02 -5.2000001E-02
vertex -1.6311999E-02 2.8253000E-02 -3.6529001E-02
endloop
endfacet
facet normal -4.2282313E-01 9.0621221E-01 0.0000000E+00
outer loop
vertex -1.6311999E-02 2.8253000E-02 -3.6529001E-02
vertex -1.4711000E-02 2.8999999E-02 -5.2000001E-02
vertex -1.6311999E-02 2.8253000E-02 -5.2000001E-02
endloop
endfacet
facet normal 4.2282310E-01 -9.0621215E-01 0.0000000E+00
outer loop
vertex 1.4711000E-02 -2.8999999E-02 -3.7275001E-02
vertex 1.4711000E-02 -2.8999999E-02 -5.2000001E-02
vertex 1.6311999E-02 -2.8253000E-02 -3.6529001E-02
endloop
endfacet
facet normal 4.2282313E-01 -9.0621221E-01 0.0000000E+00
outer loop
vertex 1.6311999E-02 -2.8253000E-02 -3.6529001E-02
vertex 1.4711000E-02 -2.8999999E-02 -5.2000001E-02
vertex 1.6311999E-02 -2.8253000E-02 -5.2000001E-02
endloop
endfacet
facet normal -4.2282313E-01 -9.0621221E-01 -0.0000000E+00
outer loop
vertex -1.6311999E-02 -2.8253000E-02 -3.6529001E-02
vertex -1.6311999E-02 -2.8253000E-02 -5.2000001E-02
vertex -1.4711000E-02 -2.8999999E-02 -3.7275001E-02
endloop
endfacet
facet normal -4.2282310E-01 -9.0621215E-01 -0.0000000E+00
outer loop
vertex -1.4711000E-02 -2.8999999E-02 -3.7275001E-02
vertex -1.6311999E-02 -2.8253000E-02 -5.2000001E-02
vertex -1.4711000E-02 -2.8999999E-02 -5.2000001E-02
endloop
endfacet
facet normal 0.0000000E+00 0.0000000E+00 -1.0000000E+00
outer loop
vertex -2.0970000E-02 2.4992000E-02 -5.2000001E-02
vertex -1.6311999E-02 2.8253000E-02 -5.2000001E-02
vertex -1.0607000E-02 1.0607000E-02 -5.2000001E-02
endloop
endfacet
facet normal 0.0000000E+00 -0.0000000E+00 -1.0000000E+00
outer loop
vertex -2.4992000E-02 2.0970000E-02 -5.2000001E-02
vertex -1.0607000E-02 1.0607000E-02 -5.2000001E-02
vertex -2.8253000E-02 1.6311999E-02 -5.2000001E-02
endloop
endfacet
facet normal 0.0000000E+00 0.0000000E+00 -1.0000000E+00
outer loop
vertex -2.4992000E-02 2.0970000E-02 -5.2000001E-02
vertex -2.0970000E-02 2.4992000E-02 -5.2000001E-02
vertex -1.0607000E-02 1.0607000E-02 -5.2000001E-02
endloop
endfacet
facet normal -0.0000000E+00 0.0000000E+00 -1.0000000E+00
outer loop
vertex 1.6311999E-02 2.8253000E-02 -5.2000001E-02
vertex 1.0607000E-02 1.0607000E-02 -5.2000001E-02
vertex 1.4711000E-02 2.8999999E-02 -5.2000001E-02
endloop
endfacet
facet normal 0.0000000E+00 -0.0000000E+00 -1.0000000E+00
outer loop
vertex 1.6311999E-02 2.8253000E-02 -5.2000001E-02
vertex 2.0970000E-02 2.4992000E-02 -5.2000001E-02
vertex 1.0607000E-02 1.0607000E-02 -5.2000001E-02
endloop
endfacet
facet normal 0.0000000E+00 0.0000000E+00 -9.9999994E-01
outer loop
vertex 1.0607000E-02 1.0607000E-02 -5.2000001E-02
vertex 2.0970000E-02 2.4992000E-02 -5.2000001E-02
vertex 2.4992000E-02 2.0970000E-02 -5.2000001E-02
endloop
endfacet
facet normal -0.0000000E+00 0.0000000E+00 -1.0000000E+00
outer loop
vertex 2.8253000E-02 1.6311999E-02 -5.2000001E-02
vertex 1.0607000E-02 1.0607000E-02 -5.2000001E-02
vertex 2.4992000E-02 2.0970000E-02 -5.2000001E-02
endloop
endfacet
facet normal 0.0000000E+00 -0.0000000E+00 -1.0000000E+00
outer loop
vertex 2.8253000E-02 1.6311999E-02 -5.2000001E-02
vertex 3.0657001E-02 1.1158000E-02 -5.2000001E-02
vertex 1.0607000E-02 1.0607000E-02 -5.2000001E-02
endloop
endfacet
facet normal 0.0000000E+00 0.0000000E+00 -1.0000000E+00
outer loop
vertex 1.0607000E-02 1.0607000E-02 -5.2000001E-02
vertex 3.0657001E-02 1.1158000E-02 -5.2000001E-02
vertex 1.5000000E-02 5.6762378E-17 -5.2000001E-02
endloop
endfacet
facet normal 0.0000000E+00 0.0000000E+00 -1.0000000E+00
outer loop
vertex 1.5000000E-02 5.6762378E-17 -5.2000001E-02
vertex 3.0657001E-02 1.1158000E-02 -5.2000001E-02
vertex 3.2127999E-02 5.6650001E-03 -5.2000001E-02
endloop
endfacet
facet normal -0.0000000E+00 0.0000000E+00 -1.0000000E+00
outer loop
vertex 3.2623999E-02 5.7841537E-17 -5.2000001E-02
vertex 1.5000000E-02 5.6762378E-17 -5.2000001E-02
vertex 3.2127999E-02 5.6650001E-03 -5.2000001E-02
endloop
endfacet
facet normal 0.0000000E+00 0.0000000E+00 -1.0000000E+00
outer loop
vertex 3.2623999E-02 5.7841537E-17 -5.2000001E-02
vertex 3.2127999E-02 -5.6650001E-03 -5.2000001E-02
vertex 1.5000000E-02 5.6762378E-17 -5.2000001E-02
endloop
endfacet
facet normal 0.0000000E+00 0.0000000E+00 -1.0000000E+00
outer loop
vertex 1.5000000E-02 5.6762378E-17 -5.2000001E-02
vertex 3.2127999E-02 -5.6650001E-03 -5.2000001E-02
vertex 3.0657001E-02 -1.1158000E-02 -5.2000001E-02
endloop
endfacet
facet normal 0.0000000E+00 0.0000000E+00 -1.0000000E+00
outer loop
vertex 1.0607000E-02 -1.0607000E-02 -5.2000001E-02
vertex 3.0657001E-02 -1.1158000E-02 -5.2000001E-02
vertex 2.8253000E-02 -1.6311999E-02 -5.2000001E-02
endloop
endfacet
facet normal 0.0000000E+00 0.0000000E+00 -1.0000000E+00
outer loop
vertex 2.4992000E-02 -2.0970000E-02 -5.2000001E-02
vertex 1.0607000E-02 -1.0607000E-02 -5.2000001E-02
vertex 2.8253000E-02 -1.6311999E-02 -5.2000001E-02
endloop
endfacet
facet normal -0.0000000E+00 0.0000000E+00 -1.0000000E+00
outer loop
vertex 2.4992000E-02 -2.0970000E-02 -5.2000001E-02
vertex 2.0970000E-02 -2.4992000E-02 -5.2000001E-02
vertex 1.0607000E-02 -1.0607000E-02 -5.2000001E-02
endloop
endfacet
facet normal 0.0000000E+00 0.0000000E+00 -1.0000000E+00
outer loop
vertex 1.0607000E-02 -1.0607000E-02 -5.2000001E-02
vertex 2.0970000E-02 -2.4992000E-02 -5.2000001E-02
vertex 1.6311999E-02 -2.8253000E-02 -5.2000001E-02
endloop
endfacet
facet normal 0.0000000E+00 0.0000000E+00 -1.0000000E+00
outer loop
vertex 1.4711000E-02 -2.8999999E-02 -5.2000001E-02
vertex 1.0607000E-02 -1.0607000E-02 -5.2000001E-02
vertex 1.6311999E-02 -2.8253000E-02 -5.2000001E-02
endloop
endfacet
facet normal 0.0000000E+00 0.0000000E+00 -9.9999994E-01
outer loop
vertex 1.4711000E-02 -2.8999999E-02 -5.2000001E-02
vertex 1.1102230E-16 -1.5000000E-02 -5.2000001E-02
vertex 1.0607000E-02 -1.0607000E-02 -5.2000001E-02
endloop
endfacet
facet normal 0.0000000E+00 0.0000000E+00 -1.0000000E+00
outer loop
vertex 1.4711000E-02 -2.8999999E-02 -5.2000001E-02
vertex -1.4711000E-02 -2.8999999E-02 -5.2000001E-02
vertex 1.1102230E-16 -1.5000000E-02 -5.2000001E-02
endloop
endfacet
facet normal -0.0000000E+00 0.0000000E+00 -9.9999994E-01
outer loop
vertex 1.1102230E-16 -1.5000000E-02 -5.2000001E-02
vertex -1.4711000E-02 -2.8999999E-02 -5.2000001E-02
vertex -1.0607000E-02 -1.0607000E-02 -5.2000001E-02
endloop
endfacet
facet normal 0.0000000E+00 0.0000000E+00 -1.0000000E+00
outer loop
vertex -1.0607000E-02 -1.0607000E-02 -5.2000001E-02
vertex -1.4711000E-02 -2.8999999E-02 -5.2000001E-02
vertex -1.6311999E-02 -2.8253000E-02 -5.2000001E-02
endloop
endfacet
facet normal 0.0000000E+00 0.0000000E+00 -1.0000000E+00
outer loop
vertex -2.0970000E-02 -2.4992000E-02 -5.2000001E-02
vertex -1.0607000E-02 -1.0607000E-02 -5.2000001E-02
vertex -1.6311999E-02 -2.8253000E-02 -5.2000001E-02
endloop
endfacet
facet normal 0.0000000E+00 0.0000000E+00 -1.0000000E+00
outer loop
vertex -2.0970000E-02 -2.4992000E-02 -5.2000001E-02
vertex -2.4992000E-02 -2.0970000E-02 -5.2000001E-02
vertex -1.0607000E-02 -1.0607000E-02 -5.2000001E-02
endloop
endfacet
facet normal 0.0000000E+00 0.0000000E+00 -1.0000000E+00
outer loop
vertex -1.0607000E-02 -1.0607000E-02 -5.2000001E-02
vertex -2.4992000E-02 -2.0970000E-02 -5.2000001E-02
vertex -2.8253000E-02 -1.6311999E-02 -5.2000001E-02
endloop
endfacet
facet normal 0.0000000E+00 0.0000000E+00 -1.0000000E+00
outer loop
vertex -3.0657001E-02 -1.1158000E-02 -5.2000001E-02
vertex -1.0607000E-02 -1.0607000E-02 -5.2000001E-02
vertex -2.8253000E-02 -1.6311999E-02 -5.2000001E-02
endloop
endfacet
facet normal 0.0000000E+00 0.0000000E+00 -1.0000000E+00
outer loop
vertex -3.0657001E-02 -1.1158000E-02 -5.2000001E-02
vertex -1.5000000E-02 5.4925408E-17 -5.2000001E-02
vertex -1.0607000E-02 -1.0607000E-02 -5.2000001E-02
endloop
endfacet
facet normal 0.0000000E+00 0.0000000E+00 -9.9999994E-01
outer loop
vertex -3.0657001E-02 -1.1158000E-02 -5.2000001E-02
vertex -3.2129001E-02 -5.6650001E-03 -5.2000001E-02
vertex -1.5000000E-02 5.4925408E-17 -5.2000001E-02
endloop
endfacet
facet normal 0.0000000E+00 0.0000000E+00 -1.0000000E+00
outer loop
vertex -1.5000000E-02 5.4925408E-17 -5.2000001E-02
vertex -3.2129001E-02 -5.6650001E-03 -5.2000001E-02
vertex -3.2623999E-02 5.3846252E-17 -5.2000001E-02
endloop
endfacet
facet normal 0.0000000E+00 -0.0000000E+00 -1.0000000E+00
outer loop
vertex -3.2129001E-02 5.6650001E-03 -5.2000001E-02
vertex -1.5000000E-02 5.4925408E-17 -5.2000001E-02
vertex -3.2623999E-02 5.3846252E-17 -5.2000001E-02
endloop
endfacet
facet normal 0.0000000E+00 0.0000000E+00 -9.9999994E-01
outer loop
vertex -3.2129001E-02 5.6650001E-03 -5.2000001E-02
vertex -3.0657001E-02 1.1158000E-02 -5.2000001E-02
vertex -1.5000000E-02 5.4925408E-17 -5.2000001E-02
endloop
endfacet
facet normal 0.0000000E+00 0.0000000E+00 -1.0000000E+00
outer loop
vertex -1.5000000E-02 5.4925408E-17 -5.2000001E-02
vertex -3.0657001E-02 1.1158000E-02 -5.2000001E-02
vertex -1.0607000E-02 1.0607000E-02 -5.2000001E-02
endloop
endfacet
facet normal 0.0000000E+00 0.0000000E+00 -1.0000000E+00
outer loop
vertex -1.0607000E-02 1.0607000E-02 -5.2000001E-02
vertex -3.0657001E-02 1.1158000E-02 -5.2000001E-02
vertex -2.8253000E-02 1.6311999E-02 -5.2000001E-02
endloop
endfacet
facet normal 0.0000000E+00 0.0000000E+00 -1.0000000E+00
outer loop
vertex 1.0607000E-02 1.0607000E-02 -5.2000001E-02
vertex 1.1102230E-16 1.5000000E-02 -5.2000001E-02
vertex 1.4711000E-02 2.8999999E-02 -5.2000001E-02
endloop
endfacet
facet normal -0.0000000E+00 0.0000000E+00 -1.0000000E+00
outer loop
vertex 1.4711000E-02 2.8999999E-02 -5.2000001E-02
vertex 1.1102230E-16 1.5000000E-02 -5.2000001E-02
vertex -1.4711000E-02 2.8999999E-02 -5.2000001E-02
endloop
endfacet
facet normal 0.0000000E+00 0.0000000E+00 -9.9999994E-01
outer loop
vertex -1.4711000E-02 2.8999999E-02 -5.2000001E-02
vertex 1.1102230E-16 1.5000000E-02 -5.2000001E-02
vertex -1.0607000E-02 1.0607000E-02 -5.2000001E-02
endloop
endfacet
facet normal 0.0000000E+00 0.0000000E+00 -1.0000000E+00
outer loop
vertex -1.6311999E-02 2.8253000E-02 -5.2000001E-02
vertex -1.4711000E-02 2.8999999E-02 -5.2000001E-02
vertex -1.0607000E-02 1.0607000E-02 -5.2000001E-02
endloop
endfacet
facet normal 0.0000000E+00 0.0000000E+00 -1.0000000E+00
outer loop
vertex 1.0607000E-02 -1.0607000E-02 -5.2000001E-02
vertex 1.5000000E-02 5.6762378E-17 -5.2000001E-02
vertex 3.0657001E-02 -1.1158000E-02 -5.2000001E-02
endloop
endfacet
facet normal -0.0000000E+00 -1.0000000E+00 0.0000000E+00
outer loop
vertex 1.0607000E-02 -1.8999999E-02 -1.0607000E-02
vertex 1.0607000E-02 -1.8999999E-02 1.0607000E-02
vertex 1.1102230E-16 -1.8999999E-02 -1.5000000E-02
endloop
endfacet
facet normal 0.0000000E+00 -1.0000000E+00 0.0000000E+00
outer loop
vertex 1.0607000E-02 -1.8999999E-02 -1.0607000E-02
vertex 1.5000000E-02 -1.8999999E-02 5.5511151E-17
vertex 1.0607000E-02 -1.8999999E-02 1.0607000E-02
endloop
endfacet
facet normal -0.0000000E+00 -1.0000000E+00 0.0000000E+00
outer loop
vertex 1.0607000E-02 -1.8999999E-02 1.0607000E-02
vertex 1.1102230E-16 -1.8999999E-02 1.5000000E-02
vertex 1.1102230E-16 -1.8999999E-02 -1.5000000E-02
endloop
endfacet
facet normal 0.0000000E+00 -1.0000000E+00 0.0000000E+00
outer loop
vertex 1.1102230E-16 -1.8999999E-02 -1.5000000E-02
vertex 1.1102230E-16 -1.8999999E-02 1.5000000E-02
vertex -1.0607000E-02 -1.8999999E-02 -1.0607000E-02
endloop
endfacet
facet normal 0.0000000E+00 -1.0000000E+00 0.0000000E+00
outer loop
vertex -1.0607000E-02 -1.8999999E-02 -1.0607000E-02
vertex 1.1102230E-16 -1.8999999E-02 1.5000000E-02
vertex -1.0607000E-02 -1.8999999E-02 1.0607000E-02
endloop
endfacet
facet normal 0.0000000E+00 -1.0000000E+00 0.0000000E+00
outer loop
vertex -1.5000000E-02 -1.8999999E-02 5.5511151E-17
vertex -1.0607000E-02 -1.8999999E-02 -1.0607000E-02
vertex -1.0607000E-02 -1.8999999E-02 1.0607000E-02
endloop
endfacet
facet normal 3.8264149E-01 0.0000000E+00 9.2389697E-01
outer loop
vertex -1.0607000E-02 -1.8999999E-02 -1.0607000E-02
vertex -1.0607000E-02 -2.8999999E-02 -1.0607000E-02
vertex 1.1102230E-16 -1.8999999E-02 -1.5000000E-02
endloop
endfacet
facet normal 9.2389697E-01 0.0000000E+00 3.8264149E-01
outer loop
vertex -1.0607000E-02 -1.8999999E-02 -1.0607000E-02
vertex -1.5000000E-02 -2.8999999E-02 5.5511151E-17
vertex -1.0607000E-02 -2.8999999E-02 -1.0607000E-02
endloop
endfacet
facet normal 9.2389697E-01 0.0000000E+00 3.8264149E-01
outer loop
vertex -1.0607000E-02 -1.8999999E-02 -1.0607000E-02
vertex -1.5000000E-02 -1.8999999E-02 5.5511151E-17
vertex -1.5000000E-02 -2.8999999E-02 5.5511151E-17
endloop
endfacet
facet normal 9.2389697E-01 0.0000000E+00 -3.8264149E-01
outer loop
vertex -1.5000000E-02 -2.8999999E-02 5.5511151E-17
vertex -1.5000000E-02 -1.8999999E-02 5.5511151E-17
vertex -1.0607000E-02 -2.8999999E-02 1.0607000E-02
endloop
endfacet
facet normal 9.2389697E-01 0.0000000E+00 -3.8264149E-01
outer loop
vertex -1.0607000E-02 -2.8999999E-02 1.0607000E-02
vertex -1.5000000E-02 -1.8999999E-02 5.5511151E-17
vertex -1.0607000E-02 -1.8999999E-02 1.0607000E-02
endloop
endfacet
facet normal 3.8264149E-01 0.0000000E+00 -9.2389697E-01
outer loop
vertex 1.1102230E-16 -2.8999999E-02 1.5000000E-02
vertex -1.0607000E-02 -1.8999999E-02 1.0607000E-02
vertex 1.1102230E-16 -1.8999999E-02 1.5000000E-02
endloop
endfacet
facet normal -3.8264149E-01 0.0000000E+00 -9.2389697E-01
outer loop
vertex 1.0607000E-02 -2.8999999E-02 1.0607000E-02
vertex 1.1102230E-16 -1.8999999E-02 1.5000000E-02
vertex 1.0607000E-02 -1.8999999E-02 1.0607000E-02
endloop
endfacet
facet normal -9.2389697E-01 0.0000000E+00 -3.8264149E-01
outer loop
vertex 1.5000000E-02 -2.8999999E-02 5.5511151E-17
vertex 1.0607000E-02 -1.8999999E-02 1.0607000E-02
vertex 1.5000000E-02 -1.8999999E-02 5.5511151E-17
endloop
endfacet
facet normal -9.2389697E-01 0.0000000E+00 3.8264149E-01
outer loop
vertex 1.0607000E-02 -2.8999999E-02 -1.0607000E-02
vertex 1.5000000E-02 -1.8999999E-02 5.5511151E-17
vertex 1.0607000E-02 -1.8999999E-02 -1.0607000E-02
endloop
endfacet
facet normal -3.8264149E-01 0.0000000E+00 9.2389697E-01
outer loop
vertex 1.1102230E-16 -2.8999999E-02 -1.5000000E-02
vertex 1.0607000E-02 -1.8999999E-02 -1.0607000E-02
vertex 1.1102230E-16 -1.8999999E-02 -1.5000000E-02
endloop
endfacet
facet normal 3.8264149E-01 0.0000000E+00 9.2389697E-01
outer loop
vertex -1.0607000E-02 -2.8999999E-02 -1.0607000E-02
vertex 1.1102230E-16 -2.8999999E-02 -1.5000000E-02
vertex 1.1102230E-16 -1.8999999E-02 -1.5000000E-02
endloop
endfacet
facet normal 3.8264149E-01 0.0000000E+00 -9.2389697E-01
outer loop
vertex 1.1102230E-16 -2.8999999E-02 1.5000000E-02
vertex -1.0607000E-02 -2.8999999E-02 1.0607000E-02
vertex -1.0607000E-02 -1.8999999E-02 1.0607000E-02
endloop
endfacet
facet normal -3.8264149E-01 0.0000000E+00 9.2389697E-01
outer loop
vertex 1.1102230E-16 -2.8999999E-02 -1.5000000E-02
vertex 1.0607000E-02 -2.8999999E-02 -1.0607000E-02
vertex 1.0607000E-02 -1.8999999E-02 -1.0607000E-02
endloop
endfacet
facet normal -9.2389697E-01 0.0000000E+00 3.8264149E-01
outer loop
vertex 1.0607000E-02 -2.8999999E-02 -1.0607000E-02
vertex 1.5000000E-02 -2.8999999E-02 5.5511151E-17
vertex 1.5000000E-02 -1.8999999E-02 5.5511151E-17
endloop
endfacet
facet normal -9.2389697E-01 0.0000000E+00 -3.8264149E-01
outer loop
vertex 1.5000000E-02 -2.8999999E-02 5.5511151E-17
vertex 1.0607000E-02 -2.8999999E-02 1.0607000E-02
vertex 1.0607000E-02 -1.8999999E-02 1.0607000E-02
endloop
endfacet
facet normal -3.8264149E-01 0.0000000E+00 -9.2389697E-01
outer loop
vertex 1.0607000E-02 -2.8999999E-02 1.0607000E-02
vertex 1.1102230E-16 -2.8999999E-02 1.5000000E-02
vertex 1.1102230E-16 -1.8999999E-02 1.5000000E-02
endloop
endfacet
facet normal 0.0000000E+00 -0.0000000E+00 -1.0000000E+00
outer loop
vertex -1.0607000E-02 1.0607000E-02 -4.1999999E-02
vertex 1.0607000E-02 1.0607000E-02 -4.1999999E-02
vertex -1.5000000E-02 5.4313086E-17 -4.1999999E-02
endloop
endfacet
facet normal 0.0000000E+00 0.0000000E+00 -1.0000000E+00
outer loop
vertex -1.0607000E-02 1.0607000E-02 -4.1999999E-02
vertex 1.1102230E-16 1.5000000E-02 -4.1999999E-02
vertex 1.0607000E-02 1.0607000E-02 -4.1999999E-02
endloop
endfacet
facet normal 0.0000000E+00 -0.0000000E+00 -1.0000000E+00
outer loop
vertex 1.0607000E-02 1.0607000E-02 -4.1999999E-02
vertex 1.5000000E-02 5.6150059E-17 -4.1999999E-02
vertex -1.5000000E-02 5.4313086E-17 -4.1999999E-02
endloop
endfacet
facet normal 0.0000000E+00 0.0000000E+00 -1.0000000E+00
outer loop
vertex -1.5000000E-02 5.4313086E-17 -4.1999999E-02
vertex 1.5000000E-02 5.6150059E-17 -4.1999999E-02
vertex -1.0607000E-02 -1.0607000E-02 -4.1999999E-02
endloop
endfacet
facet normal 0.0000000E+00 0.0000000E+00 -1.0000000E+00
outer loop
vertex -1.0607000E-02 -1.0607000E-02 -4.1999999E-02
vertex 1.5000000E-02 5.6150059E-17 -4.1999999E-02
vertex 1.0607000E-02 -1.0607000E-02 -4.1999999E-02
endloop
endfacet
facet normal 0.0000000E+00 0.0000000E+00 -1.0000000E+00
outer loop
vertex 1.1102230E-16 -1.5000000E-02 -4.1999999E-02
vertex -1.0607000E-02 -1.0607000E-02 -4.1999999E-02
vertex 1.0607000E-02 -1.0607000E-02 -4.1999999E-02
endloop
endfacet
facet normal 9.2389691E-01 3.8264149E-01 0.0000000E+00
outer loop
vertex -1.0607000E-02 -1.0607000E-02 -4.1999999E-02
vertex -1.0607000E-02 -1.0607000E-02 -5.2000001E-02
vertex -1.5000000E-02 5.4313086E-17 -4.1999999E-02
endloop
endfacet
facet normal 3.8264149E-01 9.2389691E-01 0.0000000E+00
outer loop
vertex -1.0607000E-02 -1.0607000E-02 -4.1999999E-02
vertex 1.1102230E-16 -1.5000000E-02 -5.2000001E-02
vertex -1.0607000E-02 -1.0607000E-02 -5.2000001E-02
endloop
endfacet
facet normal 3.8264149E-01 9.2389691E-01 0.0000000E+00
outer loop
vertex -1.0607000E-02 -1.0607000E-02 -4.1999999E-02
vertex 1.1102230E-16 -1.5000000E-02 -4.1999999E-02
vertex 1.1102230E-16 -1.5000000E-02 -5.2000001E-02
endloop
endfacet
facet normal -3.8264149E-01 9.2389691E-01 0.0000000E+00
outer loop
vertex 1.1102230E-16 -1.5000000E-02 -5.2000001E-02
vertex 1.1102230E-16 -1.5000000E-02 -4.1999999E-02
vertex 1.0607000E-02 -1.0607000E-02 -5.2000001E-02
endloop
endfacet
facet normal -3.8264149E-01 9.2389691E-01 0.0000000E+00
outer loop
vertex 1.0607000E-02 -1.0607000E-02 -5.2000001E-02
vertex 1.1102230E-16 -1.5000000E-02 -4.1999999E-02
vertex 1.0607000E-02 -1.0607000E-02 -4.1999999E-02
endloop
endfacet
facet normal -9.2389691E-01 3.8264149E-01 2.3429854E-17
outer loop
vertex 1.5000000E-02 5.6762378E-17 -5.2000001E-02
vertex 1.0607000E-02 -1.0607000E-02 -4.1999999E-02
vertex 1.5000000E-02 5.6150059E-17 -4.1999999E-02
endloop
endfacet
facet normal -9.2389691E-01 -3.8264149E-01 0.0000000E+00
outer loop
vertex 1.0607000E-02 1.0607000E-02 -5.2000001E-02
vertex 1.5000000E-02 5.6150059E-17 -4.1999999E-02
vertex 1.0607000E-02 1.0607000E-02 -4.1999999E-02
endloop
endfacet
facet normal -3.8264149E-01 -9.2389691E-01 0.0000000E+00
outer loop
vertex 1.1102230E-16 1.5000000E-02 -5.2000001E-02
vertex 1.0607000E-02 1.0607000E-02 -4.1999999E-02
vertex 1.1102230E-16 1.5000000E-02 -4.1999999E-02
endloop
endfacet
facet normal 3.8264149E-01 -9.2389691E-01 0.0000000E+00
outer loop
vertex -1.0607000E-02 1.0607000E-02 -5.2000001E-02
vertex 1.1102230E-16 1.5000000E-02 -4.1999999E-02
vertex -1.0607000E-02 1.0607000E-02 -4.1999999E-02
endloop
endfacet
facet normal 9.2389691E-01 -3.8264149E-01 -2.3429980E-17
outer loop
vertex -1.5000000E-02 5.4925408E-17 -5.2000001E-02
vertex -1.0607000E-02 1.0607000E-02 -4.1999999E-02
vertex -1.5000000E-02 5.4313086E-17 -4.1999999E-02
endloop
endfacet
facet normal 9.2389691E-01 3.8264149E-01 0.0000000E+00
outer loop
vertex -1.0607000E-02 -1.0607000E-02 -5.2000001E-02
vertex -1.5000000E-02 5.4925408E-17 -5.2000001E-02
vertex -1.5000000E-02 5.4313086E-17 -4.1999999E-02
endloop
endfacet
facet normal -9.2389691E-01 3.8264149E-01 0.0000000E+00
outer loop
vertex 1.5000000E-02 5.6762378E-17 -5.2000001E-02
vertex 1.0607000E-02 -1.0607000E-02 -5.2000001E-02
vertex 1.0607000E-02 -1.0607000E-02 -4.1999999E-02
endloop
endfacet
facet normal 9.2389691E-01 -3.8264149E-01 0.0000000E+00
outer loop
vertex -1.5000000E-02 5.4925408E-17 -5.2000001E-02
vertex -1.0607000E-02 1.0607000E-02 -5.2000001E-02
vertex -1.0607000E-02 1.0607000E-02 -4.1999999E-02
endloop
endfacet
facet normal 3.8264149E-01 -9.2389691E-01 0.0000000E+00
outer loop
vertex -1.0607000E-02 1.0607000E-02 -5.2000001E-02
vertex 1.1102230E-16 1.5000000E-02 -5.2000001E-02
vertex 1.1102230E-16 1.5000000E-02 -4.1999999E-02
endloop
endfacet
facet normal -3.8264149E-01 -9.2389691E-01 0.0000000E+00
outer loop
vertex 1.1102230E-16 1.5000000E-02 -5.2000001E-02
vertex 1.0607000E-02 1.0607000E-02 -5.2000001E-02
vertex 1.0607000E-02 1.0607000E-02 -4.1999999E-02
endloop
endfacet
facet normal -9.2389691E-01 -3.8264149E-01 0.0000000E+00
outer loop
vertex 1.0607000E-02 1.0607000E-02 -5.2000001E-02
vertex 1.5000000E-02 5.6762378E-17 -5.2000001E-02
vertex 1.5000000E-02 5.6150059E-17 -4.1999999E-02
endloop
endfacet
endsolid Created by stlwrite.m 06-Jan-2012 19:39:12
