solid Created by stlwrite.m 18-Dec-2012 19:51:23
facet normal 9.0431266E-02 -9.4549382E-01 -3.1283155E-01
outer loop
vertex -9.3783000E-03 8.9349505E-03 3.0183850E-03
vertex -3.3170951E-03 9.4171502E-03 3.3131300E-03
vertex -6.3352999E-03 8.7573500E-03 4.4348100E-03
endloop
endfacet
facet normal -9.0431266E-02 9.4549382E-01 3.1283155E-01
outer loop
vertex -9.3783000E-03 8.9349505E-03 3.0183850E-03
vertex -6.3352999E-03 8.7573500E-03 4.4348100E-03
vertex -3.3170951E-03 9.4171502E-03 3.3131300E-03
endloop
endfacet
facet normal -2.5247397E-02 -7.1914411E-01 -6.9440210E-01
outer loop
vertex -9.3783000E-03 9.4037000E-03 -6.7602396E-03
vertex -3.6463800E-03 9.3611497E-03 -6.9245771E-03
vertex -6.9538052E-03 8.4353499E-03 -5.8455374E-03
endloop
endfacet
facet normal 1.1311723E-02 9.9035090E-01 1.3811941E-01
outer loop
vertex -9.3783000E-03 9.4037000E-03 -6.7602396E-03
vertex -3.2457849E-03 9.1886995E-03 -5.7208738E-03
vertex -3.6463800E-03 9.3611497E-03 -6.9245771E-03
endloop
endfacet
facet normal 2.0149235E-01 -9.5794719E-01 -2.0429872E-01
outer loop
vertex -6.9538052E-03 8.4353499E-03 -5.8455374E-03
vertex -3.6463800E-03 9.3611497E-03 -6.9245771E-03
vertex -3.2457849E-03 9.1886995E-03 -5.7208738E-03
endloop
endfacet
facet normal -1.2877439E-01 4.9128518E-01 8.6142671E-01
outer loop
vertex -6.9538052E-03 8.4353499E-03 -5.8455374E-03
vertex -3.2457849E-03 9.1886995E-03 -5.7208738E-03
vertex -9.3783000E-03 9.4037000E-03 -6.7602396E-03
endloop
endfacet
facet normal 5.9635330E-02 -6.0505825E-01 7.9394472E-01
outer loop
vertex -9.3783000E-03 3.0768549E-02 -6.3301376E-03
vertex -3.6379499E-03 3.0885950E-02 -6.6718408E-03
vertex -3.1255551E-03 3.2065049E-02 -5.8117472E-03
endloop
endfacet
facet normal 7.1251340E-02 5.6742901E-01 -8.2033384E-01
outer loop
vertex -9.3783000E-03 3.2239798E-02 -6.2339636E-03
vertex -3.1255551E-03 3.2065049E-02 -5.8117472E-03
vertex -3.6379499E-03 3.0885950E-02 -6.6718408E-03
endloop
endfacet
facet normal -6.0622118E-02 6.5109707E-02 -9.9603492E-01
outer loop
vertex -9.3783000E-03 3.0768549E-02 -6.3301376E-03
vertex -9.3783000E-03 3.2239798E-02 -6.2339636E-03
vertex -3.6379499E-03 3.0885950E-02 -6.6718408E-03
endloop
endfacet
facet normal -6.9039062E-02 -6.5074041E-02 9.9548930E-01
outer loop
vertex -9.3783000E-03 3.0768549E-02 -6.3301376E-03
vertex -3.1255551E-03 3.2065049E-02 -5.8117472E-03
vertex -9.3783000E-03 3.2239798E-02 -6.2339636E-03
endloop
endfacet
facet normal 6.0984492E-02 5.6958842E-01 8.1966448E-01
outer loop
vertex -3.8021801E-03 9.7006997E-03 -6.7277523E-03
vertex -2.8790301E-03 8.1845997E-03 -5.7428917E-03
vertex -2.8782999E-03 1.0044750E-02 -7.0355725E-03
endloop
endfacet
facet normal 2.7670476E-01 -9.3634957E-01 -2.1606469E-01
outer loop
vertex -3.8021801E-03 9.7006997E-03 -6.7277523E-03
vertex -2.8782999E-03 1.0044750E-02 -7.0355725E-03
vertex -2.8782999E-03 9.6113496E-03 -5.1573659E-03
endloop
endfacet
facet normal 1.0981490E-01 5.3305590E-01 -8.3892310E-01
outer loop
vertex -7.8782998E-03 9.3519501E-03 -5.6555551E-03
vertex -2.8790301E-03 8.1845997E-03 -5.7428917E-03
vertex -7.8782998E-03 8.4889503E-03 -6.2039094E-03
endloop
endfacet
facet normal -1.5439160E-01 -6.0261655E-01 -7.8295374E-01
outer loop
vertex -7.8782998E-03 9.3519501E-03 -5.6555551E-03
vertex -3.8021801E-03 9.7006997E-03 -6.7277523E-03
vertex -2.8790301E-03 8.1845997E-03 -5.7428917E-03
endloop
endfacet
facet normal -4.6514224E-02 5.2409226E-01 8.5039026E-01
outer loop
vertex -7.8782998E-03 8.4889503E-03 -6.2039094E-03
vertex -2.8790301E-03 8.1845997E-03 -5.7428917E-03
vertex -3.8021801E-03 9.7006997E-03 -6.7277523E-03
endloop
endfacet
facet normal -6.8847753E-02 -6.6173702E-01 7.4656832E-01
outer loop
vertex -7.8782998E-03 3.1888802E-02 -6.9521973E-03
vertex -2.8846599E-03 3.1275749E-02 -7.0350813E-03
vertex -2.8803200E-03 3.2446351E-02 -5.9970929E-03
endloop
endfacet
facet normal -4.2424906E-02 8.7961465E-01 4.7379130E-01
outer loop
vertex -7.8782998E-03 3.0705299E-02 -6.4231632E-03
vertex -2.8797551E-03 3.0652650E-02 -5.8778301E-03
vertex -2.8846599E-03 3.1275749E-02 -7.0350813E-03
endloop
endfacet
facet normal -2.5184320E-02 -4.2865470E-01 -9.0311742E-01
outer loop
vertex -7.8782998E-03 3.2060500E-02 4.2973701E-03
vertex -2.8796450E-03 3.2351948E-02 4.0196450E-03
vertex -2.8819600E-03 3.1227050E-02 4.5536300E-03
endloop
endfacet
facet normal -1.3372175E-02 -8.7168318E-01 4.8988736E-01
outer loop
vertex -7.8782998E-03 3.1941749E-02 3.1533099E-03
vertex -3.5761599E-03 3.1756051E-02 2.9403199E-03
vertex -2.8796450E-03 3.2351948E-02 4.0196450E-03
endloop
endfacet
facet normal -1.2673012E-02 5.0164205E-01 8.6498243E-01
outer loop
vertex -7.8782998E-03 3.1030100E-02 3.2983001E-03
vertex -2.8801500E-03 3.0633500E-02 3.6015350E-03
vertex -3.5761599E-03 3.1756051E-02 2.9403199E-03
endloop
endfacet
facet normal -2.0068184E-02 8.4841418E-01 -5.2895248E-01
outer loop
vertex -7.8782998E-03 3.0952850E-02 4.3033850E-03
vertex -2.8819600E-03 3.1227050E-02 4.5536300E-03
vertex -2.8801500E-03 3.0633500E-02 3.6015350E-03
endloop
endfacet
facet normal -7.7522755E-01 4.0692866E-01 -4.8314726E-01
outer loop
vertex -3.5761651E-03 8.7438999E-03 4.5917551E-03
vertex -2.8782999E-03 1.0044750E-02 4.5676399E-03
vertex -2.8790501E-03 8.3485004E-03 3.1401850E-03
endloop
endfacet
facet normal 1.3015124E-01 5.9965676E-01 -7.8960276E-01
outer loop
vertex -7.8782998E-03 9.3520004E-03 4.3444452E-03
vertex -3.5761651E-03 8.7438999E-03 4.5917551E-03
vertex -7.8782998E-03 8.5036000E-03 3.7001350E-03
endloop
endfacet
facet normal -5.7389963E-02 -6.9679177E-01 -7.1497381E-01
outer loop
vertex -7.8782998E-03 9.3520004E-03 4.3444452E-03
vertex -2.8785949E-03 9.8289503E-03 3.4783049E-03
vertex -3.5761651E-03 8.7438999E-03 4.5917551E-03
endloop
endfacet
facet normal -2.6099646E-02 -2.2257321E-01 9.7456658E-01
outer loop
vertex -7.8782998E-03 9.5857000E-03 3.2888551E-03
vertex -2.8790501E-03 8.3485004E-03 3.1401850E-03
vertex -2.8785949E-03 9.8289503E-03 3.4783049E-03
endloop
endfacet
facet normal 5.2473409E-04 9.6490908E-01 -2.6258379E-01
outer loop
vertex -7.8782998E-03 8.5036000E-03 3.7001350E-03
vertex -3.5761651E-03 8.7438999E-03 4.5917551E-03
vertex -2.8790501E-03 8.3485004E-03 3.1401850E-03
endloop
endfacet
facet normal -8.5251158E-01 1.7806855E-01 4.9144235E-01
outer loop
vertex 2.0278699E-03 -6.0000001E-03 -6.9934065E-03
vertex 2.3648699E-03 -3.5000001E-03 -7.3146545E-03
vertex 1.0591500E-03 -6.0000001E-03 -8.6738579E-03
endloop
endfacet
facet normal -4.1920370E-01 -1.2066597E-01 -8.9983779E-01
outer loop
vertex 5.7013502E-04 -6.0000001E-03 -6.1433050E-03
vertex -1.3837000E-04 -3.5000001E-03 -6.1484803E-03
vertex 2.3648699E-03 -3.5000001E-03 -7.3146545E-03
endloop
endfacet
facet normal 9.6976358E-01 -1.6470200E-01 1.8008815E-01
outer loop
vertex -3.2689501E-04 -6.0000001E-03 -7.4196928E-03
vertex 2.9650499E-04 -3.5000001E-03 -8.4902551E-03
vertex -1.3837000E-04 -3.5000001E-03 -6.1484803E-03
endloop
endfacet
facet normal -4.8313582E-01 -2.0981194E-01 8.5003459E-01
outer loop
vertex 1.0591500E-03 -6.0000001E-03 -8.6738579E-03
vertex 2.3648699E-03 -3.5000001E-03 -7.3146545E-03
vertex 2.9650499E-04 -3.5000001E-03 -8.4902551E-03
endloop
endfacet
facet normal 5.8758092E-01 -4.9318212E-01 -6.4149833E-01
outer loop
vertex -3.2111499E-04 -6.0000001E-03 5.5833501E-03
vertex -2.8379000E-04 -3.5000001E-03 3.6955450E-03
vertex 2.0125450E-03 -3.5000001E-03 5.7988749E-03
endloop
endfacet
facet normal -6.1295712E-01 -4.2006043E-01 6.6920316E-01
outer loop
vertex 2.4316299E-03 -6.0000001E-03 4.6134801E-03
vertex 2.0125450E-03 -3.5000001E-03 5.7988749E-03
vertex -2.8379000E-04 -3.5000001E-03 3.6955450E-03
endloop
endfacet
facet normal 0.0000000E+00 1.0000000E+00 0.0000000E+00
outer loop
vertex 2.0125450E-03 -3.5000001E-03 5.7988749E-03
vertex 4.6216999E-03 -3.5000001E-03 1.2500000E-03
vertex -2.8379000E-04 -3.5000001E-03 3.6955450E-03
endloop
endfacet
facet normal -0.0000000E+00 0.0000000E+00 -1.0000000E+00
outer loop
vertex -7.8782998E-03 -1.0000000E-03 -9.7500002E-03
vertex -1.0378300E-02 -6.0000001E-03 -9.7500002E-03
vertex -1.0378300E-02 -1.0000000E-03 -9.7500002E-03
endloop
endfacet
facet normal -1.0000000E+00 0.0000000E+00 0.0000000E+00
outer loop
vertex -1.0378300E-02 -6.0000001E-03 -9.7500002E-03
vertex -1.0378300E-02 -1.0000000E-03 7.2499998E-03
vertex -1.0378300E-02 -1.0000000E-03 -9.7500002E-03
endloop
endfacet
facet normal 0.0000000E+00 1.0000000E+00 0.0000000E+00
outer loop
vertex -1.0378300E-02 -1.0000000E-03 -9.7500002E-03
vertex -7.8782998E-03 -1.0000000E-03 7.2499998E-03
vertex -7.8782998E-03 -1.0000000E-03 -9.7500002E-03
endloop
endfacet
facet normal 9.2387938E-01 -1.1752643E-04 -3.8268390E-01
outer loop
vertex -3.0792500E-03 -2.4999999E-03 -8.9999996E-03
vertex -2.9293650E-03 3.9741699E-02 -8.6511187E-03
vertex -2.9294000E-03 -2.4999999E-03 -8.6382302E-03
endloop
endfacet
facet normal 7.9338771E-01 -4.9697561E-04 -6.0871643E-01
outer loop
vertex -3.3176001E-03 -2.4999999E-03 -9.3106600E-03
vertex -3.2121199E-03 4.0831100E-02 -9.2085563E-03
vertex -3.0792500E-03 -2.4999999E-03 -8.9999996E-03
endloop
endfacet
facet normal 6.4653546E-01 2.2377862E-04 -7.6288390E-01
outer loop
vertex -3.3176001E-03 -2.4999999E-03 -9.3106600E-03
vertex -3.5878201E-03 4.1577749E-02 -9.5267389E-03
vertex -3.2121199E-03 4.0831100E-02 -9.2085563E-03
endloop
endfacet
facet normal 7.3706192E-01 6.7582518E-01 -5.3124713E-05
outer loop
vertex -4.3783002E-03 4.2570502E-02 -9.7500002E-03
vertex -4.3747351E-03 4.2567950E-02 7.2499001E-03
vertex -4.0026801E-03 4.2160850E-02 -9.7040664E-03
endloop
endfacet
facet normal 3.8023329E-01 9.2489052E-01 4.9013386E-05
outer loop
vertex -6.5916199E-03 4.3831650E-02 7.2499998E-03
vertex -5.3974148E-03 4.3341599E-02 -9.7500002E-03
vertex -6.5842001E-03 4.3829501E-02 -9.7500002E-03
endloop
endfacet
facet normal 0.0000000E+00 0.0000000E+00 -1.0000000E+00
outer loop
vertex -7.8782998E-03 4.4000000E-02 -9.7500002E-03
vertex -6.5842001E-03 4.3829501E-02 -9.7500002E-03
vertex -5.3974148E-03 4.3341599E-02 -9.7500002E-03
endloop
endfacet
facet normal 7.4127591E-01 6.7120057E-01 1.5039649E-04
outer loop
vertex -3.9963750E-03 4.2150099E-02 7.2007100E-03
vertex -4.0026801E-03 4.2160850E-02 -9.7040664E-03
vertex -4.3747351E-03 4.2567950E-02 7.2499001E-03
endloop
endfacet
facet normal 9.9763829E-01 6.8686344E-02 -0.0000000E+00
outer loop
vertex -2.8782999E-03 3.9000001E-02 -3.7499999E-03
vertex -2.9293650E-03 3.9741699E-02 -8.6511187E-03
vertex -2.8782999E-03 3.9000001E-02 1.2500000E-03
endloop
endfacet
facet normal 3.8270107E-01 1.6761020E-05 9.2387223E-01
outer loop
vertex -3.6283000E-03 -2.4999999E-03 7.0490502E-03
vertex -3.9963750E-03 4.2150099E-02 7.2007100E-03
vertex -3.9900499E-03 -2.4999999E-03 7.1989000E-03
endloop
endfacet
facet normal 1.0000000E+00 0.0000000E+00 0.0000000E+00
outer loop
vertex 4.6216999E-03 -3.5000001E-03 -9.7500002E-03
vertex 4.6216999E-03 -6.0000001E-03 7.2499998E-03
vertex 4.6216999E-03 -6.0000001E-03 -9.7500002E-03
endloop
endfacet
facet normal 9.8478353E-01 1.7378531E-01 -0.0000000E+00
outer loop
vertex 4.6216999E-03 -3.5000001E-03 -3.7499999E-03
vertex -2.8782999E-03 3.9000001E-02 1.2500000E-03
vertex 4.6216999E-03 -3.5000001E-03 1.2500000E-03
endloop
endfacet
facet normal 0.0000000E+00 0.0000000E+00 -1.0000000E+00
outer loop
vertex 4.6216999E-03 -3.5000001E-03 -3.7499999E-03
vertex -2.8782999E-03 -2.4999999E-03 -3.7499999E-03
vertex -2.8782999E-03 3.9000001E-02 -3.7499999E-03
endloop
endfacet
facet normal 0.0000000E+00 0.0000000E+00 1.0000000E+00
outer loop
vertex -2.8782999E-03 3.9000001E-02 1.2500000E-03
vertex -2.8772550E-03 -3.4859150E-03 1.2500000E-03
vertex 4.6216999E-03 -3.5000001E-03 1.2500000E-03
endloop
endfacet
facet normal 9.3846118E-01 3.3742797E-01 -7.3709935E-02
outer loop
vertex -2.8772550E-03 -3.4859150E-03 1.2500000E-03
vertex -2.8782999E-03 -2.4999999E-03 5.7500000E-03
vertex -2.4014099E-03 -3.4986550E-03 7.2500501E-03
endloop
endfacet
facet normal 8.0627954E-01 5.9147823E-01 8.1778755E-03
outer loop
vertex -2.4349799E-03 -3.4954899E-03 -3.7499999E-03
vertex -2.3715601E-03 -3.4989850E-03 -9.7499527E-03
vertex -2.8782301E-03 -2.8289999E-03 -8.2537131E-03
endloop
endfacet
facet normal 5.9088880E-01 -6.6732496E-01 -4.5335189E-01
outer loop
vertex -2.8782301E-03 -2.8289999E-03 -8.2537131E-03
vertex -3.3176001E-03 -2.4999999E-03 -9.3106600E-03
vertex -3.0792500E-03 -2.4999999E-03 -8.9999996E-03
endloop
endfacet
facet normal 8.4942460E-01 1.9997993E-01 -4.8835006E-01
outer loop
vertex -2.8790301E-03 8.1845997E-03 -5.7428917E-03
vertex -3.8021801E-03 9.7006997E-03 -6.7277523E-03
vertex -2.8782999E-03 9.6113496E-03 -5.1573659E-03
endloop
endfacet
facet normal 7.7760994E-02 -9.9656373E-01 -2.8528374E-02
outer loop
vertex -7.8782998E-03 9.3519501E-03 -5.6555551E-03
vertex -7.8782998E-03 9.3840500E-03 -6.7768805E-03
vertex -3.8021801E-03 9.7006997E-03 -6.7277523E-03
endloop
endfacet
facet normal -5.1962249E-02 5.3839689E-01 8.4108776E-01
outer loop
vertex -7.8782998E-03 9.3840500E-03 -6.7768805E-03
vertex -7.8782998E-03 8.4889503E-03 -6.2039094E-03
vertex -3.8021801E-03 9.7006997E-03 -6.7277523E-03
endloop
endfacet
facet normal -6.4445548E-02 -5.7202514E-02 -9.9628043E-01
outer loop
vertex -7.8782998E-03 3.1126300E-02 -5.5980007E-03
vertex -7.8782998E-03 3.1973850E-02 -5.6466637E-03
vertex -2.8803200E-03 3.2446351E-02 -5.9970929E-03
endloop
endfacet
facet normal -6.2027480E-02 -6.6235006E-02 -9.9587429E-01
outer loop
vertex -7.8782998E-03 3.1126300E-02 -5.5980007E-03
vertex -2.8803200E-03 3.2446351E-02 -5.9970929E-03
vertex -2.8797551E-03 3.0652650E-02 -5.8778301E-03
endloop
endfacet
facet normal 9.8416202E-02 -9.9304044E-01 6.4691156E-02
outer loop
vertex -7.8782998E-03 3.1973850E-02 -5.6466637E-03
vertex -7.8782998E-03 3.1888802E-02 -6.9521973E-03
vertex -2.8803200E-03 3.2446351E-02 -5.9970929E-03
endloop
endfacet
facet normal 6.5114431E-02 4.0722522E-01 9.1100377E-01
outer loop
vertex -7.8782998E-03 3.1888802E-02 -6.9521973E-03
vertex -7.8782998E-03 3.0705299E-02 -6.4231632E-03
vertex -2.8846599E-03 3.1275749E-02 -7.0350813E-03
endloop
endfacet
facet normal 5.8862060E-02 8.8921773E-01 -4.5368183E-01
outer loop
vertex -7.8782998E-03 3.0705299E-02 -6.4231632E-03
vertex -7.8782998E-03 3.1126300E-02 -5.5980007E-03
vertex -2.8797551E-03 3.0652650E-02 -5.8778301E-03
endloop
endfacet
facet normal -7.9349852E-01 -1.4365228E-01 5.9137481E-01
outer loop
vertex -3.5761599E-03 3.1756051E-02 2.9403199E-03
vertex -2.8801500E-03 3.0633500E-02 3.6015350E-03
vertex -2.8796450E-03 3.2351948E-02 4.0196450E-03
endloop
endfacet
facet normal 5.0319117E-02 -5.4234094E-03 -9.9871850E-01
outer loop
vertex -7.8782998E-03 3.0952850E-02 4.3033850E-03
vertex -7.8782998E-03 3.2060500E-02 4.2973701E-03
vertex -2.8819600E-03 3.1227050E-02 4.5536300E-03
endloop
endfacet
facet normal 6.3600883E-02 -9.9264228E-01 1.0303422E-01
outer loop
vertex -7.8782998E-03 3.2060500E-02 4.2973701E-03
vertex -7.8782998E-03 3.1941749E-02 3.1533099E-03
vertex -2.8796450E-03 3.2351948E-02 4.0196450E-03
endloop
endfacet
facet normal 5.5587027E-02 1.5682469E-01 9.8606086E-01
outer loop
vertex -7.8782998E-03 3.1941749E-02 3.1533099E-03
vertex -7.8782998E-03 3.1030100E-02 3.2983001E-03
vertex -3.5761599E-03 3.1756051E-02 2.9403199E-03
endloop
endfacet
facet normal 7.4261144E-02 9.9430627E-01 7.6421045E-02
outer loop
vertex -7.8782998E-03 3.1030100E-02 3.2983001E-03
vertex -7.8782998E-03 3.0952850E-02 4.3033850E-03
vertex -2.8801500E-03 3.0633500E-02 3.6015350E-03
endloop
endfacet
facet normal 8.7812030E-01 -4.6936461E-01 9.2744343E-02
outer loop
vertex -3.5761651E-03 8.7438999E-03 4.5917551E-03
vertex -2.8785949E-03 9.8289503E-03 3.4783049E-03
vertex -2.8782999E-03 1.0044750E-02 4.5676399E-03
endloop
endfacet
facet normal 5.5607233E-02 -9.7484761E-01 -2.1582381E-01
outer loop
vertex -7.8782998E-03 9.3520004E-03 4.3444452E-03
vertex -7.8782998E-03 9.5857000E-03 3.2888551E-03
vertex -2.8785949E-03 9.8289503E-03 3.4783049E-03
endloop
endfacet
facet normal 1.1495475E-01 3.5292441E-01 9.2856336E-01
outer loop
vertex -7.8782998E-03 9.5857000E-03 3.2888551E-03
vertex -7.8782998E-03 8.5036000E-03 3.7001350E-03
vertex -2.8790501E-03 8.3485004E-03 3.1401850E-03
endloop
endfacet
facet normal -5.0329602E-01 -4.3055769E-02 -8.6304075E-01
outer loop
vertex 2.0278699E-03 -6.0000001E-03 -6.9934065E-03
vertex 5.7013502E-04 -6.0000001E-03 -6.1433050E-03
vertex 2.3648699E-03 -3.5000001E-03 -7.3146545E-03
endloop
endfacet
facet normal 7.9722285E-01 2.2477472E-01 -5.6027859E-01
outer loop
vertex 5.7013502E-04 -6.0000001E-03 -6.1433050E-03
vertex -3.2689501E-04 -6.0000001E-03 -7.4196928E-03
vertex -1.3837000E-04 -3.5000001E-03 -6.1484803E-03
endloop
endfacet
facet normal 6.6350514E-01 1.4855501E-01 7.3327506E-01
outer loop
vertex -3.2689501E-04 -6.0000001E-03 -7.4196928E-03
vertex 1.0591500E-03 -6.0000001E-03 -8.6738579E-03
vertex 2.9650499E-04 -3.5000001E-03 -8.4902551E-03
endloop
endfacet
facet normal -3.0943641E-01 3.6456260E-01 -8.7826145E-01
outer loop
vertex 2.4316299E-03 -6.0000001E-03 4.6134801E-03
vertex -3.2111499E-04 -6.0000001E-03 5.5833501E-03
vertex 2.0125450E-03 -3.5000001E-03 5.7988749E-03
endloop
endfacet
facet normal 9.5467317E-01 1.7016305E-01 2.4422054E-01
outer loop
vertex -3.2111499E-04 -6.0000001E-03 5.5833501E-03
vertex 1.3958001E-04 -6.0000001E-03 3.7824649E-03
vertex -2.8379000E-04 -3.5000001E-03 3.6955450E-03
endloop
endfacet
facet normal -3.4074587E-01 -2.5028942E-02 9.3982226E-01
outer loop
vertex 1.3958001E-04 -6.0000001E-03 3.7824649E-03
vertex 2.4316299E-03 -6.0000001E-03 4.6134801E-03
vertex -2.8379000E-04 -3.5000001E-03 3.6955450E-03
endloop
endfacet
facet normal 9.9999958E-01 1.9037469E-04 9.4260572E-04
outer loop
vertex -2.8782999E-03 3.9000001E-02 1.2500000E-03
vertex -2.8828699E-03 3.9465848E-02 6.0041752E-03
vertex -2.8796450E-03 3.2351948E-02 4.0196450E-03
endloop
endfacet
facet normal 1.0000000E+00 -2.6012107E-04 -1.3873122E-04
outer loop
vertex -2.8782999E-03 3.9000001E-02 1.2500000E-03
vertex -2.8796450E-03 3.2351948E-02 4.0196450E-03
vertex -2.8801500E-03 3.0633500E-02 3.6015350E-03
endloop
endfacet
facet normal 9.9999911E-01 1.5218265E-04 1.3281992E-03
outer loop
vertex -2.8782999E-03 3.9000001E-02 1.2500000E-03
vertex -2.8801500E-03 3.0633500E-02 3.6015350E-03
vertex -2.8782999E-03 1.0044750E-02 4.5676399E-03
endloop
endfacet
facet normal 9.9999988E-01 -3.0339594E-05 -2.6479384E-04
outer loop
vertex -2.8782999E-03 3.9000001E-02 1.2500000E-03
vertex -2.8782999E-03 1.0044750E-02 4.5676399E-03
vertex -2.8785949E-03 9.8289503E-03 3.4783049E-03
endloop
endfacet
facet normal 9.9999994E-01 2.4595065E-05 4.5436344E-04
outer loop
vertex -2.8782999E-03 3.9000001E-02 1.2500000E-03
vertex -2.8785949E-03 9.8289503E-03 3.4783049E-03
vertex -2.8772550E-03 -3.4859150E-03 1.2500000E-03
endloop
endfacet
facet normal 9.9999934E-01 1.0232261E-04 1.0856353E-03
outer loop
vertex -2.8828699E-03 3.9465848E-02 6.0041752E-03
vertex -2.8782999E-03 -2.4999999E-03 5.7500000E-03
vertex -2.8782999E-03 1.0044750E-02 4.5676399E-03
endloop
endfacet
facet normal 9.9999988E-01 1.7255702E-04 -3.5280548E-04
outer loop
vertex -2.8828699E-03 3.9465848E-02 6.0041752E-03
vertex -2.8782999E-03 1.0044750E-02 4.5676399E-03
vertex -2.8819600E-03 3.1227050E-02 4.5536300E-03
endloop
endfacet
facet normal 9.9999434E-01 -4.7622624E-04 3.3321462E-03
outer loop
vertex -2.8828699E-03 3.9465848E-02 6.0041752E-03
vertex -2.8819600E-03 3.1227050E-02 4.5536300E-03
vertex -2.8796450E-03 3.2351948E-02 4.0196450E-03
endloop
endfacet
facet normal 9.9999839E-01 1.7397574E-04 1.7926353E-03
outer loop
vertex -2.8782999E-03 1.0044750E-02 4.5676399E-03
vertex -2.8801500E-03 3.0633500E-02 3.6015350E-03
vertex -2.8819600E-03 3.1227050E-02 4.5536300E-03
endloop
endfacet
facet normal 1.0000000E+00 1.1875397E-04 2.0619170E-04
outer loop
vertex -2.8782999E-03 -2.4999999E-03 5.7500000E-03
vertex -2.8772550E-03 -3.4859150E-03 1.2500000E-03
vertex -2.8790501E-03 8.3485004E-03 3.1401850E-03
endloop
endfacet
facet normal 9.9999988E-01 -4.4543725E-05 -4.7260549E-04
outer loop
vertex -2.8782999E-03 -2.4999999E-03 5.7500000E-03
vertex -2.8790501E-03 8.3485004E-03 3.1401850E-03
vertex -2.8782999E-03 1.0044750E-02 4.5676399E-03
endloop
endfacet
facet normal -9.9997699E-01 -1.2195830E-03 6.6861026E-03
outer loop
vertex -2.8772550E-03 -3.4859150E-03 1.2500000E-03
vertex -2.8785949E-03 9.8289503E-03 3.4783049E-03
vertex -2.8790501E-03 8.3485004E-03 3.1401850E-03
endloop
endfacet
facet normal 0.0000000E+00 1.0000000E+00 0.0000000E+00
outer loop
vertex 4.6216999E-03 -3.5000001E-03 7.2499998E-03
vertex 4.6216999E-03 -3.5000001E-03 1.2500000E-03
vertex 2.0125450E-03 -3.5000001E-03 5.7988749E-03
endloop
endfacet
facet normal 1.9151703E-04 9.9999988E-01 -3.4435189E-04
outer loop
vertex 4.6216999E-03 -3.5000001E-03 7.2499998E-03
vertex 2.0125450E-03 -3.5000001E-03 5.7988749E-03
vertex -2.4014099E-03 -3.4986550E-03 7.2500501E-03
endloop
endfacet
facet normal 3.7058881E-03 9.9999148E-01 1.8293996E-03
outer loop
vertex -2.8772550E-03 -3.4859150E-03 1.2500000E-03
vertex -2.4014099E-03 -3.4986550E-03 7.2500501E-03
vertex -2.8379000E-04 -3.5000001E-03 3.6955450E-03
endloop
endfacet
facet normal 1.8782573E-03 9.9999118E-01 3.7675737E-03
outer loop
vertex -2.8772550E-03 -3.4859150E-03 1.2500000E-03
vertex -2.8379000E-04 -3.5000001E-03 3.6955450E-03
vertex 4.6216999E-03 -3.5000001E-03 1.2500000E-03
endloop
endfacet
facet normal 2.2424090E-04 9.9999988E-01 -2.4481764E-04
outer loop
vertex -2.4014099E-03 -3.4986550E-03 7.2500501E-03
vertex 2.0125450E-03 -3.5000001E-03 5.7988749E-03
vertex -2.8379000E-04 -3.5000001E-03 3.6955450E-03
endloop
endfacet
facet normal 0.0000000E+00 1.8991270E-05 -1.0000000E+00
outer loop
vertex 4.6216999E-03 -6.0000001E-03 -9.7500002E-03
vertex -1.0378300E-02 -6.0000001E-03 -9.7500002E-03
vertex -2.3715601E-03 -3.4989850E-03 -9.7499527E-03
endloop
endfacet
facet normal -6.7918900E-06 0.0000000E+00 -1.0000000E+00
outer loop
vertex 4.6216999E-03 -6.0000001E-03 -9.7500002E-03
vertex -2.3715601E-03 -3.4989850E-03 -9.7499527E-03
vertex 4.6216999E-03 -3.5000001E-03 -9.7500002E-03
endloop
endfacet
facet normal -1.4649531E-04 -3.4182239E-04 -9.9999988E-01
outer loop
vertex -4.3783002E-03 -2.4999999E-03 -9.7500002E-03
vertex -2.3715601E-03 -3.4989850E-03 -9.7499527E-03
vertex -7.8782998E-03 -1.0000000E-03 -9.7500002E-03
endloop
endfacet
facet normal 0.0000000E+00 0.0000000E+00 -1.0000000E+00
outer loop
vertex -4.3783002E-03 -2.4999999E-03 -9.7500002E-03
vertex -7.8782998E-03 -1.0000000E-03 -9.7500002E-03
vertex -5.3974148E-03 4.3341599E-02 -9.7500002E-03
endloop
endfacet
facet normal 0.0000000E+00 0.0000000E+00 -1.0000000E+00
outer loop
vertex -4.3783002E-03 -2.4999999E-03 -9.7500002E-03
vertex -5.3974148E-03 4.3341599E-02 -9.7500002E-03
vertex -4.3783002E-03 4.2570502E-02 -9.7500002E-03
endloop
endfacet
facet normal 7.0301676E-06 -3.5150847E-06 -1.0000000E+00
outer loop
vertex -2.3715601E-03 -3.4989850E-03 -9.7499527E-03
vertex -1.0378300E-02 -6.0000001E-03 -9.7500002E-03
vertex -7.8782998E-03 -1.0000000E-03 -9.7500002E-03
endloop
endfacet
facet normal -0.0000000E+00 0.0000000E+00 -9.9999994E-01
outer loop
vertex -5.3974148E-03 4.3341599E-02 -9.7500002E-03
vertex -7.8782998E-03 -1.0000000E-03 -9.7500002E-03
vertex -7.8782998E-03 4.4000000E-02 -9.7500002E-03
endloop
endfacet
facet normal 0.0000000E+00 -1.0000000E+00 0.0000000E+00
outer loop
vertex -1.0378300E-02 -6.0000001E-03 7.2499998E-03
vertex -1.0378300E-02 -6.0000001E-03 -9.7500002E-03
vertex -3.2689501E-04 -6.0000001E-03 -7.4196928E-03
endloop
endfacet
facet normal 0.0000000E+00 -1.0000000E+00 0.0000000E+00
outer loop
vertex -1.0378300E-02 -6.0000001E-03 7.2499998E-03
vertex -3.2689501E-04 -6.0000001E-03 -7.4196928E-03
vertex 5.7013502E-04 -6.0000001E-03 -6.1433050E-03
endloop
endfacet
facet normal 0.0000000E+00 -1.0000000E+00 0.0000000E+00
outer loop
vertex -1.0378300E-02 -6.0000001E-03 7.2499998E-03
vertex 5.7013502E-04 -6.0000001E-03 -6.1433050E-03
vertex 1.3958001E-04 -6.0000001E-03 3.7824649E-03
endloop
endfacet
facet normal 0.0000000E+00 -1.0000000E+00 0.0000000E+00
outer loop
vertex -1.0378300E-02 -6.0000001E-03 7.2499998E-03
vertex 1.3958001E-04 -6.0000001E-03 3.7824649E-03
vertex -3.2111499E-04 -6.0000001E-03 5.5833501E-03
endloop
endfacet
facet normal 0.0000000E+00 -1.0000000E+00 0.0000000E+00
outer loop
vertex -1.0378300E-02 -6.0000001E-03 7.2499998E-03
vertex -3.2111499E-04 -6.0000001E-03 5.5833501E-03
vertex 4.6216999E-03 -6.0000001E-03 7.2499998E-03
endloop
endfacet
facet normal 0.0000000E+00 -1.0000000E+00 0.0000000E+00
outer loop
vertex 5.7013502E-04 -6.0000001E-03 -6.1433050E-03
vertex 4.6216999E-03 -6.0000001E-03 7.2499998E-03
vertex 2.4316299E-03 -6.0000001E-03 4.6134801E-03
endloop
endfacet
facet normal 0.0000000E+00 -1.0000000E+00 0.0000000E+00
outer loop
vertex 5.7013502E-04 -6.0000001E-03 -6.1433050E-03
vertex 2.4316299E-03 -6.0000001E-03 4.6134801E-03
vertex 1.3958001E-04 -6.0000001E-03 3.7824649E-03
endloop
endfacet
facet normal 0.0000000E+00 -1.0000000E+00 0.0000000E+00
outer loop
vertex -1.0378300E-02 -6.0000001E-03 -9.7500002E-03
vertex 4.6216999E-03 -6.0000001E-03 -9.7500002E-03
vertex 1.0591500E-03 -6.0000001E-03 -8.6738579E-03
endloop
endfacet
facet normal 0.0000000E+00 -1.0000000E+00 0.0000000E+00
outer loop
vertex -1.0378300E-02 -6.0000001E-03 -9.7500002E-03
vertex 1.0591500E-03 -6.0000001E-03 -8.6738579E-03
vertex -3.2689501E-04 -6.0000001E-03 -7.4196928E-03
endloop
endfacet
facet normal 0.0000000E+00 -1.0000000E+00 0.0000000E+00
outer loop
vertex 4.6216999E-03 -6.0000001E-03 7.2499998E-03
vertex -3.2111499E-04 -6.0000001E-03 5.5833501E-03
vertex 2.4316299E-03 -6.0000001E-03 4.6134801E-03
endloop
endfacet
facet normal 0.0000000E+00 -1.0000000E+00 0.0000000E+00
outer loop
vertex 4.6216999E-03 -6.0000001E-03 7.2499998E-03
vertex 5.7013502E-04 -6.0000001E-03 -6.1433050E-03
vertex 2.0278699E-03 -6.0000001E-03 -6.9934065E-03
endloop
endfacet
facet normal 0.0000000E+00 -9.9999994E-01 -0.0000000E+00
outer loop
vertex 4.6216999E-03 -6.0000001E-03 7.2499998E-03
vertex 2.0278699E-03 -6.0000001E-03 -6.9934065E-03
vertex 4.6216999E-03 -6.0000001E-03 -9.7500002E-03
endloop
endfacet
facet normal 0.0000000E+00 -9.9999994E-01 0.0000000E+00
outer loop
vertex 4.6216999E-03 -6.0000001E-03 -9.7500002E-03
vertex 2.0278699E-03 -6.0000001E-03 -6.9934065E-03
vertex 1.0591500E-03 -6.0000001E-03 -8.6738579E-03
endloop
endfacet
facet normal 0.0000000E+00 0.0000000E+00 1.0000000E+00
outer loop
vertex -7.8782998E-03 -1.0000000E-03 7.2499998E-03
vertex -1.0378300E-02 -1.0000000E-03 7.2499998E-03
vertex -1.0378300E-02 -6.0000001E-03 7.2499998E-03
endloop
endfacet
facet normal -7.4769227E-06 3.7384623E-06 1.0000000E+00
outer loop
vertex -7.8782998E-03 -1.0000000E-03 7.2499998E-03
vertex -1.0378300E-02 -6.0000001E-03 7.2499998E-03
vertex -2.4014099E-03 -3.4986550E-03 7.2500501E-03
endloop
endfacet
facet normal 1.4234571E-04 3.3213999E-04 1.0000000E+00
outer loop
vertex -7.8782998E-03 -1.0000000E-03 7.2499998E-03
vertex -2.4014099E-03 -3.4986550E-03 7.2500501E-03
vertex -4.3783002E-03 -2.4999999E-03 7.2499998E-03
endloop
endfacet
facet normal -0.0000000E+00 0.0000000E+00 1.0000000E+00
outer loop
vertex -7.8782998E-03 -1.0000000E-03 7.2499998E-03
vertex -4.3783002E-03 -2.4999999E-03 7.2499998E-03
vertex -6.5916199E-03 4.3831650E-02 7.2499998E-03
endloop
endfacet
facet normal 0.0000000E+00 0.0000000E+00 1.0000000E+00
outer loop
vertex -7.8782998E-03 -1.0000000E-03 7.2499998E-03
vertex -6.5916199E-03 4.3831650E-02 7.2499998E-03
vertex -7.8782998E-03 4.4000000E-02 7.2499998E-03
endloop
endfacet
facet normal 7.1608470E-06 -0.0000000E+00 1.0000000E+00
outer loop
vertex 4.6216999E-03 -6.0000001E-03 7.2499998E-03
vertex 4.6216999E-03 -3.5000001E-03 7.2499998E-03
vertex -2.4014099E-03 -3.4986550E-03 7.2500501E-03
endloop
endfacet
facet normal 0.0000000E+00 -2.0105752E-05 1.0000000E+00
outer loop
vertex 4.6216999E-03 -6.0000001E-03 7.2499998E-03
vertex -2.4014099E-03 -3.4986550E-03 7.2500501E-03
vertex -1.0378300E-02 -6.0000001E-03 7.2499998E-03
endloop
endfacet
facet normal 0.0000000E+00 0.0000000E+00 9.9999994E-01
outer loop
vertex -5.3921100E-03 4.3338500E-02 7.2499998E-03
vertex -6.5916199E-03 4.3831650E-02 7.2499998E-03
vertex -4.3783002E-03 -2.4999999E-03 7.2499998E-03
endloop
endfacet
facet normal 9.9618381E-05 2.2032589E-06 1.0000000E+00
outer loop
vertex -5.3921100E-03 4.3338500E-02 7.2499998E-03
vertex -4.3783002E-03 -2.4999999E-03 7.2499998E-03
vertex -4.3747351E-03 4.2567950E-02 7.2499001E-03
endloop
endfacet
facet normal -1.0000000E+00 0.0000000E+00 0.0000000E+00
outer loop
vertex -1.0378300E-02 -6.0000001E-03 -9.7500002E-03
vertex -1.0378300E-02 -6.0000001E-03 7.2499998E-03
vertex -1.0378300E-02 -1.0000000E-03 7.2499998E-03
endloop
endfacet
facet normal 1.0000000E+00 0.0000000E+00 0.0000000E+00
outer loop
vertex -2.8782999E-03 3.9000001E-02 -3.7499999E-03
vertex -2.8782999E-03 -2.4999999E-03 -3.7499999E-03
vertex -2.8782999E-03 9.6113496E-03 -5.1573659E-03
endloop
endfacet
facet normal 9.9999994E-01 0.0000000E+00 0.0000000E+00
outer loop
vertex -2.8782999E-03 3.9000001E-02 -3.7499999E-03
vertex -2.8782999E-03 9.6113496E-03 -5.1573659E-03
vertex -2.8782999E-03 1.0044750E-02 -7.0355725E-03
endloop
endfacet
facet normal 9.9999923E-01 1.3985636E-04 -1.2325329E-03
outer loop
vertex -2.8782999E-03 3.9000001E-02 -3.7499999E-03
vertex -2.8782999E-03 1.0044750E-02 -7.0355725E-03
vertex -2.8797551E-03 3.0652650E-02 -5.8778301E-03
endloop
endfacet
facet normal 9.9999881E-01 2.1369489E-04 -1.5221967E-03
outer loop
vertex -2.8782999E-03 3.9000001E-02 -3.7499999E-03
vertex -2.8797551E-03 3.0652650E-02 -5.8778301E-03
vertex -2.8803200E-03 3.2446351E-02 -5.9970929E-03
endloop
endfacet
facet normal 1.0000000E+00 -3.0823110E-04 0.0000000E+00
outer loop
vertex -2.8782999E-03 3.9000001E-02 -3.7499999E-03
vertex -2.8803200E-03 3.2446351E-02 -5.9970929E-03
vertex -2.8782999E-03 3.9000001E-02 -8.2500000E-03
endloop
endfacet
facet normal 9.9997449E-01 2.9938924E-04 7.1382537E-03
outer loop
vertex -2.8782999E-03 1.0044750E-02 -7.0355725E-03
vertex -2.8782999E-03 3.9000001E-02 -8.2500000E-03
vertex -2.8846599E-03 3.1275749E-02 -7.0350813E-03
endloop
endfacet
facet normal 9.9999166E-01 2.9965391E-04 -4.0769507E-03
outer loop
vertex -2.8782999E-03 1.0044750E-02 -7.0355725E-03
vertex -2.8846599E-03 3.1275749E-02 -7.0350813E-03
vertex -2.8797551E-03 3.0652650E-02 -5.8778301E-03
endloop
endfacet
facet normal 1.0000000E+00 7.0272610E-05 1.0375775E-05
outer loop
vertex -2.8782999E-03 -2.4999999E-03 -3.7499999E-03
vertex -2.8782301E-03 -2.8289999E-03 -8.2537131E-03
vertex -2.8790301E-03 8.1845997E-03 -5.7428917E-03
endloop
endfacet
facet normal 9.9999946E-01 -1.1292943E-04 -9.7183511E-04
outer loop
vertex -2.8782999E-03 -2.4999999E-03 -3.7499999E-03
vertex -2.8790301E-03 8.1845997E-03 -5.7428917E-03
vertex -2.8782999E-03 9.6113496E-03 -5.1573659E-03
endloop
endfacet
facet normal 9.9999541E-01 -1.2578835E-03 -2.7625191E-03
outer loop
vertex -2.8782999E-03 3.9000001E-02 -8.2500000E-03
vertex -2.8803200E-03 3.2446351E-02 -5.9970929E-03
vertex -2.8846599E-03 3.1275749E-02 -7.0350813E-03
endloop
endfacet
facet normal 1.0000000E+00 1.6663480E-06 3.9730265E-05
outer loop
vertex -2.8782999E-03 3.9000001E-02 -8.2500000E-03
vertex -2.8782999E-03 1.0044750E-02 -7.0355725E-03
vertex -2.8782301E-03 -2.8289999E-03 -8.2537131E-03
endloop
endfacet
facet normal 9.9999994E-01 -4.2265652E-05 5.0401950E-04
outer loop
vertex -2.8782301E-03 -2.8289999E-03 -8.2537131E-03
vertex -2.8782999E-03 1.0044750E-02 -7.0355725E-03
vertex -2.8790301E-03 8.1845997E-03 -5.7428917E-03
endloop
endfacet
facet normal 0.0000000E+00 1.0000000E+00 0.0000000E+00
outer loop
vertex -1.0378300E-02 -1.0000000E-03 -9.7500002E-03
vertex -1.0378300E-02 -1.0000000E-03 7.2499998E-03
vertex -7.8782998E-03 -1.0000000E-03 7.2499998E-03
endloop
endfacet
facet normal -9.9999994E-01 0.0000000E+00 0.0000000E+00
outer loop
vertex -7.8782998E-03 9.3520004E-03 4.3444452E-03
vertex -7.8782998E-03 3.0952850E-02 4.3033850E-03
vertex -7.8782998E-03 3.1030100E-02 3.2983001E-03
endloop
endfacet
facet normal -1.0000000E+00 0.0000000E+00 0.0000000E+00
outer loop
vertex -7.8782998E-03 9.3520004E-03 4.3444452E-03
vertex -7.8782998E-03 3.1030100E-02 3.2983001E-03
vertex -7.8782998E-03 9.5857000E-03 3.2888551E-03
endloop
endfacet
facet normal -1.0000000E+00 0.0000000E+00 0.0000000E+00
outer loop
vertex -7.8782998E-03 3.1030100E-02 3.2983001E-03
vertex -7.8782998E-03 3.1941749E-02 3.1533099E-03
vertex -7.8782998E-03 3.1126300E-02 -5.5980007E-03
endloop
endfacet
facet normal -1.0000000E+00 0.0000000E+00 -0.0000000E+00
outer loop
vertex -7.8782998E-03 3.1030100E-02 3.2983001E-03
vertex -7.8782998E-03 3.1126300E-02 -5.5980007E-03
vertex -7.8782998E-03 9.3519501E-03 -5.6555551E-03
endloop
endfacet
facet normal -1.0000000E+00 0.0000000E+00 0.0000000E+00
outer loop
vertex -7.8782998E-03 3.1030100E-02 3.2983001E-03
vertex -7.8782998E-03 9.3519501E-03 -5.6555551E-03
vertex -7.8782998E-03 9.5857000E-03 3.2888551E-03
endloop
endfacet
facet normal -1.0000000E+00 0.0000000E+00 0.0000000E+00
outer loop
vertex -7.8782998E-03 -1.0000000E-03 -9.7500002E-03
vertex -7.8782998E-03 8.5036000E-03 3.7001350E-03
vertex -7.8782998E-03 8.4889503E-03 -6.2039094E-03
endloop
endfacet
facet normal -1.0000000E+00 -0.0000000E+00 0.0000000E+00
outer loop
vertex -7.8782998E-03 9.5857000E-03 3.2888551E-03
vertex -7.8782998E-03 8.4889503E-03 -6.2039094E-03
vertex -7.8782998E-03 8.5036000E-03 3.7001350E-03
endloop
endfacet
facet normal -1.0000000E+00 0.0000000E+00 0.0000000E+00
outer loop
vertex -7.8782998E-03 8.4889503E-03 -6.2039094E-03
vertex -7.8782998E-03 9.5857000E-03 3.2888551E-03
vertex -7.8782998E-03 9.3519501E-03 -5.6555551E-03
endloop
endfacet
facet normal -1.0000000E+00 0.0000000E+00 0.0000000E+00
outer loop
vertex -7.8782998E-03 3.1126300E-02 -5.5980007E-03
vertex -7.8782998E-03 3.1941749E-02 3.1533099E-03
vertex -7.8782998E-03 3.1973850E-02 -5.6466637E-03
endloop
endfacet
facet normal -1.0000000E+00 0.0000000E+00 0.0000000E+00
outer loop
vertex -7.8782998E-03 4.4000000E-02 7.2499998E-03
vertex -7.8782998E-03 3.1973850E-02 -5.6466637E-03
vertex -7.8782998E-03 3.1941749E-02 3.1533099E-03
endloop
endfacet
facet normal -9.9999994E-01 0.0000000E+00 0.0000000E+00
outer loop
vertex -7.8782998E-03 3.1973850E-02 -5.6466637E-03
vertex -7.8782998E-03 4.4000000E-02 7.2499998E-03
vertex -7.8782998E-03 4.4000000E-02 -9.7500002E-03
endloop
endfacet
facet normal -1.0000000E+00 0.0000000E+00 0.0000000E+00
outer loop
vertex -7.8782998E-03 4.4000000E-02 7.2499998E-03
vertex -7.8782998E-03 3.1941749E-02 3.1533099E-03
vertex -7.8782998E-03 3.2060500E-02 4.2973701E-03
endloop
endfacet
facet normal -1.0000000E+00 0.0000000E+00 0.0000000E+00
outer loop
vertex -7.8782998E-03 4.4000000E-02 7.2499998E-03
vertex -7.8782998E-03 3.2060500E-02 4.2973701E-03
vertex -7.8782998E-03 3.0952850E-02 4.3033850E-03
endloop
endfacet
facet normal -1.0000000E+00 0.0000000E+00 0.0000000E+00
outer loop
vertex -7.8782998E-03 4.4000000E-02 7.2499998E-03
vertex -7.8782998E-03 3.0952850E-02 4.3033850E-03
vertex -7.8782998E-03 9.3520004E-03 4.3444452E-03
endloop
endfacet
facet normal -1.0000000E+00 -0.0000000E+00 0.0000000E+00
outer loop
vertex -7.8782998E-03 4.4000000E-02 7.2499998E-03
vertex -7.8782998E-03 9.3520004E-03 4.3444452E-03
vertex -7.8782998E-03 -1.0000000E-03 7.2499998E-03
endloop
endfacet
facet normal -1.0000000E+00 0.0000000E+00 0.0000000E+00
outer loop
vertex -7.8782998E-03 -1.0000000E-03 7.2499998E-03
vertex -7.8782998E-03 9.3520004E-03 4.3444452E-03
vertex -7.8782998E-03 8.5036000E-03 3.7001350E-03
endloop
endfacet
facet normal -1.0000000E+00 0.0000000E+00 0.0000000E+00
outer loop
vertex -7.8782998E-03 -1.0000000E-03 7.2499998E-03
vertex -7.8782998E-03 8.5036000E-03 3.7001350E-03
vertex -7.8782998E-03 -1.0000000E-03 -9.7500002E-03
endloop
endfacet
facet normal -1.0000000E+00 0.0000000E+00 0.0000000E+00
outer loop
vertex -7.8782998E-03 4.4000000E-02 -9.7500002E-03
vertex -7.8782998E-03 -1.0000000E-03 -9.7500002E-03
vertex -7.8782998E-03 9.3840500E-03 -6.7768805E-03
endloop
endfacet
facet normal -1.0000000E+00 0.0000000E+00 0.0000000E+00
outer loop
vertex -7.8782998E-03 4.4000000E-02 -9.7500002E-03
vertex -7.8782998E-03 9.3840500E-03 -6.7768805E-03
vertex -7.8782998E-03 3.1888802E-02 -6.9521973E-03
endloop
endfacet
facet normal -1.0000000E+00 0.0000000E+00 0.0000000E+00
outer loop
vertex -7.8782998E-03 4.4000000E-02 -9.7500002E-03
vertex -7.8782998E-03 3.1888802E-02 -6.9521973E-03
vertex -7.8782998E-03 3.1973850E-02 -5.6466637E-03
endloop
endfacet
facet normal -1.0000000E+00 0.0000000E+00 0.0000000E+00
outer loop
vertex -7.8782998E-03 9.3840500E-03 -6.7768805E-03
vertex -7.8782998E-03 9.3519501E-03 -5.6555551E-03
vertex -7.8782998E-03 3.1126300E-02 -5.5980007E-03
endloop
endfacet
facet normal -1.0000000E+00 0.0000000E+00 0.0000000E+00
outer loop
vertex -7.8782998E-03 9.3840500E-03 -6.7768805E-03
vertex -7.8782998E-03 3.1126300E-02 -5.5980007E-03
vertex -7.8782998E-03 3.0705299E-02 -6.4231632E-03
endloop
endfacet
facet normal -1.0000000E+00 0.0000000E+00 0.0000000E+00
outer loop
vertex -7.8782998E-03 9.3840500E-03 -6.7768805E-03
vertex -7.8782998E-03 3.0705299E-02 -6.4231632E-03
vertex -7.8782998E-03 3.1888802E-02 -6.9521973E-03
endloop
endfacet
facet normal -1.0000000E+00 0.0000000E+00 0.0000000E+00
outer loop
vertex -7.8782998E-03 -1.0000000E-03 -9.7500002E-03
vertex -7.8782998E-03 8.4889503E-03 -6.2039094E-03
vertex -7.8782998E-03 9.3840500E-03 -6.7768805E-03
endloop
endfacet
facet normal 9.9126285E-01 1.3364262E-05 -1.3190162E-01
outer loop
vertex -2.8782999E-03 3.9000001E-02 -8.2500000E-03
vertex -2.8782301E-03 -2.8289999E-03 -8.2537131E-03
vertex -2.9294000E-03 -2.4999999E-03 -8.6382302E-03
endloop
endfacet
facet normal 9.9198455E-01 -3.9374150E-05 -1.2635911E-01
outer loop
vertex -2.8782999E-03 3.9000001E-02 -8.2500000E-03
vertex -2.9294000E-03 -2.4999999E-03 -8.6382302E-03
vertex -2.9293650E-03 3.9741699E-02 -8.6511187E-03
endloop
endfacet
facet normal 8.9227271E-01 5.6295778E-04 -4.5149663E-01
outer loop
vertex -3.0792500E-03 -2.4999999E-03 -8.9999996E-03
vertex -3.2121199E-03 4.0831100E-02 -9.2085563E-03
vertex -2.9293650E-03 3.9741699E-02 -8.6511187E-03
endloop
endfacet
facet normal 3.8270313E-01 1.1591552E-04 -9.2387140E-01
outer loop
vertex -3.5878201E-03 4.1577749E-02 -9.5267389E-03
vertex -3.6283000E-03 -2.4999999E-03 -9.5490376E-03
vertex -3.9900499E-03 -2.4999999E-03 -9.6988883E-03
endloop
endfacet
facet normal 3.9304525E-01 4.5412448E-06 -9.1951925E-01
outer loop
vertex -3.5878201E-03 4.1577749E-02 -9.5267389E-03
vertex -3.9900499E-03 -2.4999999E-03 -9.6988883E-03
vertex -4.0026801E-03 4.2160850E-02 -9.7040664E-03
endloop
endfacet
facet normal 6.0871190E-01 -1.5765426E-04 -7.9339141E-01
outer loop
vertex -3.3176001E-03 -2.4999999E-03 -9.3106600E-03
vertex -3.6283000E-03 -2.4999999E-03 -9.5490376E-03
vertex -3.5878201E-03 4.1577749E-02 -9.5267389E-03
endloop
endfacet
facet normal 1.3052067E-01 0.0000000E+00 -9.9144560E-01
outer loop
vertex -3.9900499E-03 -2.4999999E-03 -9.6988883E-03
vertex -4.3783002E-03 -2.4999999E-03 -9.7500002E-03
vertex -4.3783002E-03 4.2570502E-02 -9.7500002E-03
endloop
endfacet
facet normal 1.2129677E-01 -8.0784957E-05 -9.9261630E-01
outer loop
vertex -3.9900499E-03 -2.4999999E-03 -9.6988883E-03
vertex -4.3783002E-03 4.2570502E-02 -9.7500002E-03
vertex -4.0026801E-03 4.2160850E-02 -9.7040664E-03
endloop
endfacet
facet normal 6.0338092E-01 7.9745311E-01 -4.2891555E-05
outer loop
vertex -4.3783002E-03 4.2570502E-02 -9.7500002E-03
vertex -5.3974148E-03 4.3341599E-02 -9.7500002E-03
vertex -5.3921100E-03 4.3338500E-02 7.2499998E-03
endloop
endfacet
facet normal 6.0376388E-01 7.9716313E-01 -6.9565290E-06
outer loop
vertex -4.3783002E-03 4.2570502E-02 -9.7500002E-03
vertex -5.3921100E-03 4.3338500E-02 7.2499998E-03
vertex -4.3747351E-03 4.2567950E-02 7.2499001E-03
endloop
endfacet
facet normal 3.8024497E-01 9.2488575E-01 4.9970546E-05
outer loop
vertex -6.5916199E-03 4.3831650E-02 7.2499998E-03
vertex -5.3921100E-03 4.3338500E-02 7.2499998E-03
vertex -5.3974148E-03 4.3341599E-02 -9.7500002E-03
endloop
endfacet
facet normal 1.2973455E-01 9.9154872E-01 -0.0000000E+00
outer loop
vertex -7.8782998E-03 4.4000000E-02 -9.7500002E-03
vertex -7.8782998E-03 4.4000000E-02 7.2499998E-03
vertex -6.5916199E-03 4.3831650E-02 7.2499998E-03
endloop
endfacet
facet normal 1.3062230E-01 9.9143219E-01 -6.8345886E-05
outer loop
vertex -7.8782998E-03 4.4000000E-02 -9.7500002E-03
vertex -6.5916199E-03 4.3831650E-02 7.2499998E-03
vertex -6.5842001E-03 4.3829501E-02 -9.7500002E-03
endloop
endfacet
facet normal 8.1329507E-01 5.8185130E-01 -4.4646633E-05
outer loop
vertex -3.9963750E-03 4.2150099E-02 7.2007100E-03
vertex -3.5886650E-03 4.1580200E-02 7.0268400E-03
vertex -3.5878201E-03 4.1577749E-02 -9.5267389E-03
endloop
endfacet
facet normal 8.1480724E-01 5.7973206E-01 6.4798543E-05
outer loop
vertex -3.9963750E-03 4.2150099E-02 7.2007100E-03
vertex -3.5878201E-03 4.1577749E-02 -9.5267389E-03
vertex -4.0026801E-03 4.2160850E-02 -9.7040664E-03
endloop
endfacet
facet normal 8.9221084E-01 4.5157677E-01 6.1773080E-03
outer loop
vertex -3.0486500E-03 4.0293999E-02 6.4443499E-03
vertex -3.2121199E-03 4.0831100E-02 -9.2085563E-03
vertex -3.5878201E-03 4.1577749E-02 -9.5267389E-03
endloop
endfacet
facet normal 9.2202896E-01 3.8712099E-01 -1.0260789E-05
outer loop
vertex -3.0486500E-03 4.0293999E-02 6.4443499E-03
vertex -3.5878201E-03 4.1577749E-02 -9.5267389E-03
vertex -3.5886650E-03 4.1580200E-02 7.0268400E-03
endloop
endfacet
facet normal 3.8503674E-01 5.1000375E-01 -7.6918328E-01
outer loop
vertex -3.0486500E-03 4.0293999E-02 6.4443499E-03
vertex -3.5886650E-03 4.1580200E-02 7.0268400E-03
vertex -3.3176001E-03 4.1049499E-02 6.8106502E-03
endloop
endfacet
facet normal 9.6771830E-01 2.5202832E-01 1.6736554E-03
outer loop
vertex -2.8828699E-03 3.9465848E-02 6.0041752E-03
vertex -2.9293650E-03 3.9741699E-02 -8.6511187E-03
vertex -3.2121199E-03 4.0831100E-02 -9.2085563E-03
endloop
endfacet
facet normal 9.8018712E-01 1.9804382E-01 -3.4409936E-03
outer loop
vertex -2.8828699E-03 3.9465848E-02 6.0041752E-03
vertex -3.2121199E-03 4.0831100E-02 -9.2085563E-03
vertex -3.0486500E-03 4.0293999E-02 6.4443499E-03
endloop
endfacet
facet normal 9.9937123E-01 3.5367317E-02 -2.5048831E-03
outer loop
vertex -2.9293650E-03 3.9741699E-02 -8.6511187E-03
vertex -2.8828699E-03 3.9465848E-02 6.0041752E-03
vertex -2.8782999E-03 3.9000001E-02 1.2500000E-03
endloop
endfacet
facet normal 9.9763829E-01 6.8686344E-02 0.0000000E+00
outer loop
vertex -2.8782999E-03 3.9000001E-02 -3.7499999E-03
vertex -2.8782999E-03 3.9000001E-02 -8.2500000E-03
vertex -2.9293650E-03 3.9741699E-02 -8.6511187E-03
endloop
endfacet
facet normal 1.3049027E-01 -8.1302078E-06 9.9144948E-01
outer loop
vertex -4.3747351E-03 4.2567950E-02 7.2499001E-03
vertex -4.3783002E-03 -2.4999999E-03 7.2499998E-03
vertex -3.9900499E-03 -2.4999999E-03 7.1989000E-03
endloop
endfacet
facet normal 1.2889996E-01 -2.1939999E-05 9.9165756E-01
outer loop
vertex -4.3747351E-03 4.2567950E-02 7.2499001E-03
vertex -3.9900499E-03 -2.4999999E-03 7.1989000E-03
vertex -3.9963750E-03 4.2150099E-02 7.2007100E-03
endloop
endfacet
facet normal 3.9240488E-01 1.1061190E-04 9.1979253E-01
outer loop
vertex -3.6283000E-03 -2.4999999E-03 7.0490502E-03
vertex -3.5886650E-03 4.1580200E-02 7.0268400E-03
vertex -3.9963750E-03 4.2150099E-02 7.2007100E-03
endloop
endfacet
facet normal 7.9337811E-01 0.0000000E+00 6.0872918E-01
outer loop
vertex -3.3176001E-03 4.1049499E-02 6.8106502E-03
vertex -3.3176001E-03 -2.4999999E-03 6.8106502E-03
vertex -3.0792500E-03 -2.4999999E-03 6.5000001E-03
endloop
endfacet
facet normal 6.0874778E-01 -1.4761640E-04 7.9336375E-01
outer loop
vertex -3.5886650E-03 4.1580200E-02 7.0268400E-03
vertex -3.6283000E-03 -2.4999999E-03 7.0490502E-03
vertex -3.3176001E-03 -2.4999999E-03 6.8106502E-03
endloop
endfacet
facet normal 6.2352991E-01 0.0000000E+00 7.8179955E-01
outer loop
vertex -3.5886650E-03 4.1580200E-02 7.0268400E-03
vertex -3.3176001E-03 -2.4999999E-03 6.8106502E-03
vertex -3.3176001E-03 4.1049499E-02 6.8106502E-03
endloop
endfacet
facet normal 9.2387193E-01 1.9832610E-04 3.8270155E-01
outer loop
vertex -3.0792500E-03 -2.4999999E-03 6.5000001E-03
vertex -2.9294000E-03 -2.4999999E-03 6.1382502E-03
vertex -2.8828699E-03 3.9465848E-02 6.0041752E-03
endloop
endfacet
facet normal 9.3569821E-01 -2.1028363E-04 3.5280144E-01
outer loop
vertex -3.0792500E-03 -2.4999999E-03 6.5000001E-03
vertex -2.8828699E-03 3.9465848E-02 6.0041752E-03
vertex -3.0486500E-03 4.0293999E-02 6.4443499E-03
endloop
endfacet
facet normal 8.0624831E-01 1.9278916E-04 5.9157717E-01
outer loop
vertex -3.0792500E-03 -2.4999999E-03 6.5000001E-03
vertex -3.0486500E-03 4.0293999E-02 6.4443499E-03
vertex -3.3176001E-03 4.1049499E-02 6.8106502E-03
endloop
endfacet
facet normal 9.9144930E-01 -6.8237883E-04 1.3049085E-01
outer loop
vertex -2.8828699E-03 3.9465848E-02 6.0041752E-03
vertex -2.9294000E-03 -2.4999999E-03 6.1382502E-03
vertex -2.8782999E-03 -2.4999999E-03 5.7500000E-03
endloop
endfacet
facet normal 1.0000000E+00 0.0000000E+00 -0.0000000E+00
outer loop
vertex 4.6216999E-03 -3.5000001E-03 -9.7500002E-03
vertex 4.6216999E-03 -3.5000001E-03 7.2499998E-03
vertex 4.6216999E-03 -6.0000001E-03 7.2499998E-03
endloop
endfacet
facet normal 0.0000000E+00 1.0000000E+00 0.0000000E+00
outer loop
vertex 4.6216999E-03 -3.5000001E-03 -3.7499999E-03
vertex 4.6216999E-03 -3.5000001E-03 -9.7500002E-03
vertex 2.3648699E-03 -3.5000001E-03 -7.3146545E-03
endloop
endfacet
facet normal 0.0000000E+00 1.0000000E+00 0.0000000E+00
outer loop
vertex 4.6216999E-03 -3.5000001E-03 -3.7499999E-03
vertex 2.3648699E-03 -3.5000001E-03 -7.3146545E-03
vertex -1.3837000E-04 -3.5000001E-03 -6.1484803E-03
endloop
endfacet
facet normal 6.3913321E-04 9.9999905E-01 -1.2684360E-03
outer loop
vertex 4.6216999E-03 -3.5000001E-03 -3.7499999E-03
vertex -1.3837000E-04 -3.5000001E-03 -6.1484803E-03
vertex -2.4349799E-03 -3.4954899E-03 -3.7499999E-03
endloop
endfacet
facet normal 1.4516337E-04 9.9999994E-01 4.9840234E-04
outer loop
vertex -2.3715601E-03 -3.4989850E-03 -9.7499527E-03
vertex 2.9650499E-04 -3.5000001E-03 -8.4902551E-03
vertex 4.6216999E-03 -3.5000001E-03 -9.7500002E-03
endloop
endfacet
facet normal 0.0000000E+00 1.0000000E+00 0.0000000E+00
outer loop
vertex 2.3648699E-03 -3.5000001E-03 -7.3146545E-03
vertex 4.6216999E-03 -3.5000001E-03 -9.7500002E-03
vertex 2.9650499E-04 -3.5000001E-03 -8.4902551E-03
endloop
endfacet
facet normal 1.3706172E-03 9.9999887E-01 -5.6801998E-04
outer loop
vertex -2.4349799E-03 -3.4954899E-03 -3.7499999E-03
vertex -1.3837000E-04 -3.5000001E-03 -6.1484803E-03
vertex -2.3715601E-03 -3.4989850E-03 -9.7499527E-03
endloop
endfacet
facet normal 3.4980822E-04 9.9999994E-01 6.4960499E-05
outer loop
vertex -2.3715601E-03 -3.4989850E-03 -9.7499527E-03
vertex -1.3837000E-04 -3.5000001E-03 -6.1484803E-03
vertex 2.9650499E-04 -3.5000001E-03 -8.4902551E-03
endloop
endfacet
facet normal 9.8478353E-01 1.7378531E-01 0.0000000E+00
outer loop
vertex 4.6216999E-03 -3.5000001E-03 -3.7499999E-03
vertex -2.8782999E-03 3.9000001E-02 -3.7499999E-03
vertex -2.8782999E-03 3.9000001E-02 1.2500000E-03
endloop
endfacet
facet normal 0.0000000E+00 0.0000000E+00 -1.0000000E+00
outer loop
vertex 4.6216999E-03 -3.5000001E-03 -3.7499999E-03
vertex -2.4349799E-03 -3.4954899E-03 -3.7499999E-03
vertex -2.8782999E-03 -2.4999999E-03 -3.7499999E-03
endloop
endfacet
facet normal 8.2387382E-01 5.5630362E-01 1.0843519E-01
outer loop
vertex -2.8782999E-03 -2.4999999E-03 5.7500000E-03
vertex -2.9294000E-03 -2.4999999E-03 6.1382502E-03
vertex -2.4014099E-03 -3.4986550E-03 7.2500501E-03
endloop
endfacet
facet normal 6.8176711E-01 6.7486048E-01 2.8241286E-01
outer loop
vertex -2.9294000E-03 -2.4999999E-03 6.1382502E-03
vertex -3.0792500E-03 -2.4999999E-03 6.5000001E-03
vertex -2.4014099E-03 -3.4986550E-03 7.2500501E-03
endloop
endfacet
facet normal 5.6221056E-01 7.0558155E-01 4.3136299E-01
outer loop
vertex -3.0792500E-03 -2.4999999E-03 6.5000001E-03
vertex -3.3176001E-03 -2.4999999E-03 6.8106502E-03
vertex -2.4014099E-03 -3.4986550E-03 7.2500501E-03
endloop
endfacet
facet normal 4.5078173E-01 6.7204916E-01 5.8749110E-01
outer loop
vertex -3.3176001E-03 -2.4999999E-03 6.8106502E-03
vertex -3.6283000E-03 -2.4999999E-03 7.0490502E-03
vertex -2.4014099E-03 -3.4986550E-03 7.2500501E-03
endloop
endfacet
facet normal 3.1997660E-01 5.4857624E-01 7.7245009E-01
outer loop
vertex -3.6283000E-03 -2.4999999E-03 7.0490502E-03
vertex -3.9900499E-03 -2.4999999E-03 7.1989000E-03
vertex -2.4014099E-03 -3.4986550E-03 7.2500501E-03
endloop
endfacet
facet normal 1.2634169E-01 2.5014836E-01 9.5992899E-01
outer loop
vertex -3.9900499E-03 -2.4999999E-03 7.1989000E-03
vertex -4.3783002E-03 -2.4999999E-03 7.2499998E-03
vertex -2.4014099E-03 -3.4986550E-03 7.2500501E-03
endloop
endfacet
facet normal 9.1310889E-01 4.0663335E-01 -2.9690741E-02
outer loop
vertex -2.8782999E-03 -2.4999999E-03 -3.7499999E-03
vertex -2.4349799E-03 -3.4954899E-03 -3.7499999E-03
vertex -2.8782301E-03 -2.8289999E-03 -8.2537131E-03
endloop
endfacet
facet normal 1.2625483E-01 2.5357243E-01 -9.5904160E-01
outer loop
vertex -2.3715601E-03 -3.4989850E-03 -9.7499527E-03
vertex -4.3783002E-03 -2.4999999E-03 -9.7500002E-03
vertex -3.9900499E-03 -2.4999999E-03 -9.6988883E-03
endloop
endfacet
facet normal 3.1834170E-01 5.5503917E-01 -7.6849860E-01
outer loop
vertex -2.3715601E-03 -3.4989850E-03 -9.7499527E-03
vertex -3.9900499E-03 -2.4999999E-03 -9.6988883E-03
vertex -3.6283000E-03 -2.4999999E-03 -9.5490376E-03
endloop
endfacet
facet normal 4.4678012E-01 6.7917484E-01 -5.8233058E-01
outer loop
vertex -2.3715601E-03 -3.4989850E-03 -9.7499527E-03
vertex -3.6283000E-03 -2.4999999E-03 -9.5490376E-03
vertex -3.3176001E-03 -2.4999999E-03 -9.3106600E-03
endloop
endfacet
facet normal 7.0730186E-01 7.0289719E-01 -7.5229973E-02
outer loop
vertex -2.8782301E-03 -2.8289999E-03 -8.2537131E-03
vertex -2.3715601E-03 -3.4989850E-03 -9.7499527E-03
vertex -3.3176001E-03 -2.4999999E-03 -9.3106600E-03
endloop
endfacet
facet normal 8.8404316E-01 -2.9047811E-01 -3.6618319E-01
outer loop
vertex -3.0792500E-03 -2.4999999E-03 -8.9999996E-03
vertex -2.9294000E-03 -2.4999999E-03 -8.6382302E-03
vertex -2.8782301E-03 -2.8289999E-03 -8.2537131E-03
endloop
endfacet
facet normal -7.0710647E-01 0.0000000E+00 7.0710713E-01
outer loop
vertex -9.3783000E-03 4.4000000E-02 7.2499998E-03
vertex -9.8783001E-03 -5.0000002E-04 6.7500002E-03
vertex -9.3783000E-03 -1.0000000E-03 7.2499998E-03
endloop
endfacet
facet normal 2.7417836E-01 5.1846540E-01 8.0995053E-01
outer loop
vertex -9.8783001E-03 9.5833996E-03 -6.2274630E-03
vertex -7.8782998E-03 8.4889503E-03 -6.2039094E-03
vertex -7.8782998E-03 9.3840500E-03 -6.7768805E-03
endloop
endfacet
facet normal -5.9017460E-03 5.3629011E-01 -8.4401315E-01
outer loop
vertex -9.8783001E-03 8.4543005E-03 -6.2119411E-03
vertex -7.8782998E-03 9.3519501E-03 -5.6555551E-03
vertex -7.8782998E-03 8.4889503E-03 -6.2039094E-03
endloop
endfacet
facet normal -1.0687904E-01 -9.9386489E-01 -2.8451120E-02
outer loop
vertex -9.8783001E-03 9.5833996E-03 -6.2274630E-03
vertex -7.8782998E-03 9.3840500E-03 -6.7768805E-03
vertex -7.8782998E-03 9.3519501E-03 -5.6555551E-03
endloop
endfacet
facet normal 2.9597965E-01 1.9045943E-02 9.5500439E-01
outer loop
vertex -9.8783001E-03 3.0661300E-02 -6.3078669E-03
vertex -7.8782998E-03 3.1888802E-02 -6.9521973E-03
vertex -9.8783001E-03 3.2069400E-02 -6.3359491E-03
endloop
endfacet
facet normal 4.3609962E-02 4.0770301E-01 9.1207266E-01
outer loop
vertex -9.8783001E-03 3.0661300E-02 -6.3078669E-03
vertex -7.8782998E-03 3.0705299E-02 -6.4231632E-03
vertex -7.8782998E-03 3.1888802E-02 -6.9521973E-03
endloop
endfacet
facet normal -4.5747899E-02 8.8982952E-01 -4.5399395E-01
outer loop
vertex -9.8783001E-03 3.0661300E-02 -6.3078669E-03
vertex -7.8782998E-03 3.1126300E-02 -5.5980007E-03
vertex -7.8782998E-03 3.0705299E-02 -6.4231632E-03
endloop
endfacet
facet normal 3.4509018E-01 -5.3800393E-02 -9.3702638E-01
outer loop
vertex -9.8783001E-03 3.0661300E-02 -6.3078669E-03
vertex -7.8782998E-03 3.1973850E-02 -5.6466637E-03
vertex -7.8782998E-03 3.1126300E-02 -5.5980007E-03
endloop
endfacet
facet normal -6.9906577E-02 -9.9544352E-01 6.4847708E-02
outer loop
vertex -9.8783001E-03 3.2069400E-02 -6.3359491E-03
vertex -7.8782998E-03 3.1888802E-02 -6.9521973E-03
vertex -7.8782998E-03 3.1973850E-02 -5.6466637E-03
endloop
endfacet
facet normal 1.1473855E-01 9.9047446E-01 7.6126546E-02
outer loop
vertex -9.8783001E-03 3.1200949E-02 4.0898151E-03
vertex -7.8782998E-03 3.0952850E-02 4.3033850E-03
vertex -7.8782998E-03 3.1030100E-02 3.2983001E-03
endloop
endfacet
facet normal 1.0551739E-01 -5.3999689E-03 -9.9440277E-01
outer loop
vertex -9.8783001E-03 3.1200949E-02 4.0898151E-03
vertex -7.8782998E-03 3.2060500E-02 4.2973701E-03
vertex -7.8782998E-03 3.0952850E-02 4.3033850E-03
endloop
endfacet
facet normal 3.8469228E-01 -9.1811222E-01 9.5298171E-02
outer loop
vertex -9.8783001E-03 3.1200949E-02 4.0898151E-03
vertex -7.8782998E-03 3.1941749E-02 3.1533099E-03
vertex -7.8782998E-03 3.2060500E-02 4.2973701E-03
endloop
endfacet
facet normal -1.1243474E-01 3.5302684E-01 9.2883289E-01
outer loop
vertex -9.8783001E-03 8.4611503E-03 3.4741701E-03
vertex -7.8782998E-03 8.5036000E-03 3.7001350E-03
vertex -7.8782998E-03 9.5857000E-03 3.2888551E-03
endloop
endfacet
facet normal -3.9835148E-02 2.3104373E-01 9.7212756E-01
outer loop
vertex -9.8783001E-03 8.4611503E-03 3.4741701E-03
vertex -7.8782998E-03 9.5857000E-03 3.2888551E-03
vertex -9.8783001E-03 9.4520496E-03 3.2386649E-03
endloop
endfacet
facet normal -2.4961282E-02 6.0461265E-01 -7.9612839E-01
outer loop
vertex -9.8783001E-03 9.2443004E-03 4.3253601E-03
vertex -7.8782998E-03 9.3520004E-03 4.3444452E-03
vertex -7.8782998E-03 8.5036000E-03 3.7001350E-03
endloop
endfacet
facet normal 7.0494011E-02 -9.7392941E-01 -2.1562050E-01
outer loop
vertex -9.8783001E-03 9.4520496E-03 3.2386649E-03
vertex -7.8782998E-03 9.5857000E-03 3.2888551E-03
vertex -7.8782998E-03 9.3520004E-03 4.3444452E-03
endloop
endfacet
facet normal 0.0000000E+00 0.0000000E+00 1.0000000E+00
outer loop
vertex -7.8782998E-03 4.4000000E-02 7.2499998E-03
vertex -9.3783000E-03 -1.0000000E-03 7.2499998E-03
vertex -7.8782998E-03 -1.0000000E-03 7.2499998E-03
endloop
endfacet
facet normal 0.0000000E+00 1.0000000E+00 -0.0000000E+00
outer loop
vertex -7.8782998E-03 4.4000000E-02 -9.7500002E-03
vertex -9.3783000E-03 4.4000000E-02 7.2499998E-03
vertex -7.8782998E-03 4.4000000E-02 7.2499998E-03
endloop
endfacet
facet normal 0.0000000E+00 0.0000000E+00 -1.0000000E+00
outer loop
vertex -7.8782998E-03 -1.0000000E-03 -9.7500002E-03
vertex -9.3783000E-03 4.4000000E-02 -9.7500002E-03
vertex -7.8782998E-03 4.4000000E-02 -9.7500002E-03
endloop
endfacet
facet normal 0.0000000E+00 -1.0000000E+00 -0.0000000E+00
outer loop
vertex -7.8782998E-03 -1.0000000E-03 7.2499998E-03
vertex -9.3783000E-03 -1.0000000E-03 -9.7500002E-03
vertex -7.8782998E-03 -1.0000000E-03 -9.7500002E-03
endloop
endfacet
facet normal -7.0710742E-01 7.0710617E-01 0.0000000E+00
outer loop
vertex -9.8783001E-03 4.3499999E-02 6.7500002E-03
vertex -9.3783000E-03 4.4000000E-02 -9.7500002E-03
vertex -9.8783001E-03 4.3499999E-02 -9.2500001E-03
endloop
endfacet
facet normal -7.0710677E-01 -0.0000000E+00 -7.0710677E-01
outer loop
vertex -9.8783001E-03 4.3499999E-02 -9.2500001E-03
vertex -9.3783000E-03 -1.0000000E-03 -9.7500002E-03
vertex -9.8783001E-03 -5.0000002E-04 -9.2500001E-03
endloop
endfacet
facet normal -4.2535909E-03 1.3745720E-02 9.9989653E-01
outer loop
vertex -9.8783001E-03 9.5833996E-03 -6.2274630E-03
vertex -9.8783001E-03 8.4543005E-03 -6.2119411E-03
vertex -7.8782998E-03 8.4889503E-03 -6.2039094E-03
endloop
endfacet
facet normal 2.7349538E-01 -1.3221759E-02 -9.6178234E-01
outer loop
vertex -9.8783001E-03 8.4543005E-03 -6.2119411E-03
vertex -9.8783001E-03 9.5833996E-03 -6.2274630E-03
vertex -7.8782998E-03 9.3519501E-03 -5.6555551E-03
endloop
endfacet
facet normal 3.2497105E-01 -1.8857110E-02 -9.4553590E-01
outer loop
vertex -9.8783001E-03 3.0661300E-02 -6.3078669E-03
vertex -9.8783001E-03 3.2069400E-02 -6.3359491E-03
vertex -7.8782998E-03 3.1973850E-02 -5.6466637E-03
endloop
endfacet
facet normal 4.3120325E-02 1.5692148E-01 9.8666930E-01
outer loop
vertex -9.8783001E-03 3.2041602E-02 3.2248350E-03
vertex -7.8782998E-03 3.1030100E-02 3.2983001E-03
vertex -7.8782998E-03 3.1941749E-02 3.1533099E-03
endloop
endfacet
facet normal 3.1942382E-01 6.7955077E-01 6.6043860E-01
outer loop
vertex -9.8783001E-03 3.2041602E-02 3.2248350E-03
vertex -9.8783001E-03 3.1200949E-02 4.0898151E-03
vertex -7.8782998E-03 3.1030100E-02 3.2983001E-03
endloop
endfacet
facet normal -6.0616180E-02 -7.1580052E-01 -6.9566888E-01
outer loop
vertex -9.8783001E-03 3.1200949E-02 4.0898151E-03
vertex -9.8783001E-03 3.2041602E-02 3.2248350E-03
vertex -7.8782998E-03 3.1941749E-02 3.1533099E-03
endloop
endfacet
facet normal 6.0766418E-02 7.3454720E-01 -6.7583114E-01
outer loop
vertex -9.8783001E-03 8.4611503E-03 3.4741701E-03
vertex -9.8783001E-03 9.2443004E-03 4.3253601E-03
vertex -7.8782998E-03 8.5036000E-03 3.7001350E-03
endloop
endfacet
facet normal 5.4602388E-02 -9.8074687E-01 -1.8749450E-01
outer loop
vertex -9.8783001E-03 9.2443004E-03 4.3253601E-03
vertex -9.8783001E-03 9.4520496E-03 3.2386649E-03
vertex -7.8782998E-03 9.3520004E-03 4.3444452E-03
endloop
endfacet
facet normal 0.0000000E+00 0.0000000E+00 1.0000000E+00
outer loop
vertex -7.8782998E-03 4.4000000E-02 7.2499998E-03
vertex -9.3783000E-03 4.4000000E-02 7.2499998E-03
vertex -9.3783000E-03 -1.0000000E-03 7.2499998E-03
endloop
endfacet
facet normal 0.0000000E+00 1.0000000E+00 0.0000000E+00
outer loop
vertex -7.8782998E-03 4.4000000E-02 -9.7500002E-03
vertex -9.3783000E-03 4.4000000E-02 -9.7500002E-03
vertex -9.3783000E-03 4.4000000E-02 7.2499998E-03
endloop
endfacet
facet normal 0.0000000E+00 0.0000000E+00 -1.0000000E+00
outer loop
vertex -7.8782998E-03 -1.0000000E-03 -9.7500002E-03
vertex -9.3783000E-03 -1.0000000E-03 -9.7500002E-03
vertex -9.3783000E-03 4.4000000E-02 -9.7500002E-03
endloop
endfacet
facet normal -0.0000000E+00 -1.0000000E+00 0.0000000E+00
outer loop
vertex -7.8782998E-03 -1.0000000E-03 7.2499998E-03
vertex -9.3783000E-03 -1.0000000E-03 7.2499998E-03
vertex -9.3783000E-03 -1.0000000E-03 -9.7500002E-03
endloop
endfacet
facet normal -1.0000000E+00 0.0000000E+00 0.0000000E+00
outer loop
vertex -9.8783001E-03 9.4520496E-03 3.2386649E-03
vertex -9.8783001E-03 9.2443004E-03 4.3253601E-03
vertex -9.8783001E-03 3.1200949E-02 4.0898151E-03
endloop
endfacet
facet normal -1.0000000E+00 0.0000000E+00 0.0000000E+00
outer loop
vertex -9.8783001E-03 9.4520496E-03 3.2386649E-03
vertex -9.8783001E-03 3.1200949E-02 4.0898151E-03
vertex -9.8783001E-03 3.2041602E-02 3.2248350E-03
endloop
endfacet
facet normal -1.0000000E+00 0.0000000E+00 0.0000000E+00
outer loop
vertex -9.8783001E-03 3.2041602E-02 3.2248350E-03
vertex -9.8783001E-03 3.0661300E-02 -6.3078669E-03
vertex -9.8783001E-03 9.5833996E-03 -6.2274630E-03
endloop
endfacet
facet normal -1.0000000E+00 -0.0000000E+00 0.0000000E+00
outer loop
vertex -9.8783001E-03 3.2041602E-02 3.2248350E-03
vertex -9.8783001E-03 9.5833996E-03 -6.2274630E-03
vertex -9.8783001E-03 9.4520496E-03 3.2386649E-03
endloop
endfacet
facet normal -9.9999994E-01 0.0000000E+00 0.0000000E+00
outer loop
vertex -9.8783001E-03 -5.0000002E-04 -9.2500001E-03
vertex -9.8783001E-03 8.4611503E-03 3.4741701E-03
vertex -9.8783001E-03 8.4543005E-03 -6.2119411E-03
endloop
endfacet
facet normal -1.0000000E+00 0.0000000E+00 0.0000000E+00
outer loop
vertex -9.8783001E-03 8.4543005E-03 -6.2119411E-03
vertex -9.8783001E-03 8.4611503E-03 3.4741701E-03
vertex -9.8783001E-03 9.5833996E-03 -6.2274630E-03
endloop
endfacet
facet normal -1.0000000E+00 -0.0000000E+00 -0.0000000E+00
outer loop
vertex -9.8783001E-03 9.4520496E-03 3.2386649E-03
vertex -9.8783001E-03 9.5833996E-03 -6.2274630E-03
vertex -9.8783001E-03 8.4611503E-03 3.4741701E-03
endloop
endfacet
facet normal -1.0000000E+00 0.0000000E+00 0.0000000E+00
outer loop
vertex -9.8783001E-03 3.0661300E-02 -6.3078669E-03
vertex -9.8783001E-03 3.2041602E-02 3.2248350E-03
vertex -9.8783001E-03 3.2069400E-02 -6.3359491E-03
endloop
endfacet
facet normal -1.0000000E+00 0.0000000E+00 0.0000000E+00
outer loop
vertex -9.8783001E-03 4.3499999E-02 6.7500002E-03
vertex -9.8783001E-03 3.2069400E-02 -6.3359491E-03
vertex -9.8783001E-03 3.2041602E-02 3.2248350E-03
endloop
endfacet
facet normal -1.0000000E+00 0.0000000E+00 0.0000000E+00
outer loop
vertex -9.8783001E-03 3.2069400E-02 -6.3359491E-03
vertex -9.8783001E-03 4.3499999E-02 6.7500002E-03
vertex -9.8783001E-03 4.3499999E-02 -9.2500001E-03
endloop
endfacet
facet normal -1.0000000E+00 0.0000000E+00 0.0000000E+00
outer loop
vertex -9.8783001E-03 4.3499999E-02 6.7500002E-03
vertex -9.8783001E-03 3.2041602E-02 3.2248350E-03
vertex -9.8783001E-03 3.1200949E-02 4.0898151E-03
endloop
endfacet
facet normal -1.0000000E+00 0.0000000E+00 0.0000000E+00
outer loop
vertex -9.8783001E-03 4.3499999E-02 6.7500002E-03
vertex -9.8783001E-03 3.1200949E-02 4.0898151E-03
vertex -9.8783001E-03 9.2443004E-03 4.3253601E-03
endloop
endfacet
facet normal -9.9999994E-01 -0.0000000E+00 0.0000000E+00
outer loop
vertex -9.8783001E-03 4.3499999E-02 6.7500002E-03
vertex -9.8783001E-03 9.2443004E-03 4.3253601E-03
vertex -9.8783001E-03 -5.0000002E-04 6.7500002E-03
endloop
endfacet
facet normal -1.0000000E+00 0.0000000E+00 0.0000000E+00
outer loop
vertex -9.8783001E-03 -5.0000002E-04 6.7500002E-03
vertex -9.8783001E-03 9.2443004E-03 4.3253601E-03
vertex -9.8783001E-03 8.4611503E-03 3.4741701E-03
endloop
endfacet
facet normal -1.0000000E+00 0.0000000E+00 0.0000000E+00
outer loop
vertex -9.8783001E-03 -5.0000002E-04 6.7500002E-03
vertex -9.8783001E-03 8.4611503E-03 3.4741701E-03
vertex -9.8783001E-03 -5.0000002E-04 -9.2500001E-03
endloop
endfacet
facet normal -1.0000000E+00 0.0000000E+00 0.0000000E+00
outer loop
vertex -9.8783001E-03 4.3499999E-02 -9.2500001E-03
vertex -9.8783001E-03 -5.0000002E-04 -9.2500001E-03
vertex -9.8783001E-03 9.5833996E-03 -6.2274630E-03
endloop
endfacet
facet normal -1.0000000E+00 0.0000000E+00 0.0000000E+00
outer loop
vertex -9.8783001E-03 4.3499999E-02 -9.2500001E-03
vertex -9.8783001E-03 9.5833996E-03 -6.2274630E-03
vertex -9.8783001E-03 3.0661300E-02 -6.3078669E-03
endloop
endfacet
facet normal -1.0000000E+00 0.0000000E+00 0.0000000E+00
outer loop
vertex -9.8783001E-03 4.3499999E-02 -9.2500001E-03
vertex -9.8783001E-03 3.0661300E-02 -6.3078669E-03
vertex -9.8783001E-03 3.2069400E-02 -6.3359491E-03
endloop
endfacet
facet normal -1.0000000E+00 0.0000000E+00 0.0000000E+00
outer loop
vertex -9.8783001E-03 -5.0000002E-04 -9.2500001E-03
vertex -9.8783001E-03 8.4543005E-03 -6.2119411E-03
vertex -9.8783001E-03 9.5833996E-03 -6.2274630E-03
endloop
endfacet
facet normal 9.9999994E-01 0.0000000E+00 0.0000000E+00
outer loop
vertex -7.8782998E-03 9.3520004E-03 4.3444452E-03
vertex -7.8782998E-03 9.5857000E-03 3.2888551E-03
vertex -7.8782998E-03 3.1126300E-02 -5.5980007E-03
endloop
endfacet
facet normal 1.0000000E+00 0.0000000E+00 0.0000000E+00
outer loop
vertex -7.8782998E-03 9.3520004E-03 4.3444452E-03
vertex -7.8782998E-03 3.1126300E-02 -5.5980007E-03
vertex -7.8782998E-03 3.1030100E-02 3.2983001E-03
endloop
endfacet
facet normal 9.9999994E-01 0.0000000E+00 0.0000000E+00
outer loop
vertex -7.8782998E-03 9.3520004E-03 4.3444452E-03
vertex -7.8782998E-03 3.1030100E-02 3.2983001E-03
vertex -7.8782998E-03 3.0952850E-02 4.3033850E-03
endloop
endfacet
facet normal 1.0000000E+00 -0.0000000E+00 0.0000000E+00
outer loop
vertex -7.8782998E-03 3.0952850E-02 4.3033850E-03
vertex -7.8782998E-03 3.2060500E-02 4.2973701E-03
vertex -7.8782998E-03 4.4000000E-02 7.2499998E-03
endloop
endfacet
facet normal 1.0000000E+00 0.0000000E+00 -0.0000000E+00
outer loop
vertex -7.8782998E-03 3.0952850E-02 4.3033850E-03
vertex -7.8782998E-03 4.4000000E-02 7.2499998E-03
vertex -7.8782998E-03 -1.0000000E-03 7.2499998E-03
endloop
endfacet
facet normal 1.0000000E+00 0.0000000E+00 0.0000000E+00
outer loop
vertex -7.8782998E-03 3.0952850E-02 4.3033850E-03
vertex -7.8782998E-03 -1.0000000E-03 7.2499998E-03
vertex -7.8782998E-03 9.3520004E-03 4.3444452E-03
endloop
endfacet
facet normal 1.0000000E+00 0.0000000E+00 0.0000000E+00
outer loop
vertex -7.8782998E-03 3.1973850E-02 -5.6466637E-03
vertex -7.8782998E-03 3.1030100E-02 3.2983001E-03
vertex -7.8782998E-03 3.1126300E-02 -5.5980007E-03
endloop
endfacet
facet normal 1.0000000E+00 0.0000000E+00 0.0000000E+00
outer loop
vertex -7.8782998E-03 3.1030100E-02 3.2983001E-03
vertex -7.8782998E-03 3.1973850E-02 -5.6466637E-03
vertex -7.8782998E-03 3.1941749E-02 3.1533099E-03
endloop
endfacet
facet normal 9.9999994E-01 0.0000000E+00 0.0000000E+00
outer loop
vertex -7.8782998E-03 4.4000000E-02 -9.7500002E-03
vertex -7.8782998E-03 3.1941749E-02 3.1533099E-03
vertex -7.8782998E-03 3.1973850E-02 -5.6466637E-03
endloop
endfacet
facet normal 1.0000000E+00 -0.0000000E+00 0.0000000E+00
outer loop
vertex -7.8782998E-03 3.1941749E-02 3.1533099E-03
vertex -7.8782998E-03 4.4000000E-02 -9.7500002E-03
vertex -7.8782998E-03 4.4000000E-02 7.2499998E-03
endloop
endfacet
facet normal 9.9999994E-01 0.0000000E+00 0.0000000E+00
outer loop
vertex -7.8782998E-03 3.1126300E-02 -5.5980007E-03
vertex -7.8782998E-03 9.5857000E-03 3.2888551E-03
vertex -7.8782998E-03 9.3519501E-03 -5.6555551E-03
endloop
endfacet
facet normal 1.0000000E+00 0.0000000E+00 0.0000000E+00
outer loop
vertex -7.8782998E-03 3.1126300E-02 -5.5980007E-03
vertex -7.8782998E-03 9.3519501E-03 -5.6555551E-03
vertex -7.8782998E-03 9.3840500E-03 -6.7768805E-03
endloop
endfacet
facet normal 1.0000000E+00 0.0000000E+00 0.0000000E+00
outer loop
vertex -7.8782998E-03 4.4000000E-02 7.2499998E-03
vertex -7.8782998E-03 3.2060500E-02 4.2973701E-03
vertex -7.8782998E-03 3.1941749E-02 3.1533099E-03
endloop
endfacet
facet normal 1.0000000E+00 0.0000000E+00 0.0000000E+00
outer loop
vertex -7.8782998E-03 4.4000000E-02 -9.7500002E-03
vertex -7.8782998E-03 3.1973850E-02 -5.6466637E-03
vertex -7.8782998E-03 3.1888802E-02 -6.9521973E-03
endloop
endfacet
facet normal 1.0000000E+00 0.0000000E+00 0.0000000E+00
outer loop
vertex -7.8782998E-03 4.4000000E-02 -9.7500002E-03
vertex -7.8782998E-03 3.1888802E-02 -6.9521973E-03
vertex -7.8782998E-03 9.3840500E-03 -6.7768805E-03
endloop
endfacet
facet normal 1.0000000E+00 0.0000000E+00 0.0000000E+00
outer loop
vertex -7.8782998E-03 4.4000000E-02 -9.7500002E-03
vertex -7.8782998E-03 9.3840500E-03 -6.7768805E-03
vertex -7.8782998E-03 -1.0000000E-03 -9.7500002E-03
endloop
endfacet
facet normal 1.0000000E+00 -0.0000000E+00 0.0000000E+00
outer loop
vertex -7.8782998E-03 9.3840500E-03 -6.7768805E-03
vertex -7.8782998E-03 3.1888802E-02 -6.9521973E-03
vertex -7.8782998E-03 3.0705299E-02 -6.4231632E-03
endloop
endfacet
facet normal 1.0000000E+00 0.0000000E+00 0.0000000E+00
outer loop
vertex -7.8782998E-03 9.3840500E-03 -6.7768805E-03
vertex -7.8782998E-03 3.0705299E-02 -6.4231632E-03
vertex -7.8782998E-03 3.1126300E-02 -5.5980007E-03
endloop
endfacet
facet normal 1.0000000E+00 0.0000000E+00 0.0000000E+00
outer loop
vertex -7.8782998E-03 -1.0000000E-03 -9.7500002E-03
vertex -7.8782998E-03 9.3840500E-03 -6.7768805E-03
vertex -7.8782998E-03 8.4889503E-03 -6.2039094E-03
endloop
endfacet
facet normal 1.0000000E+00 0.0000000E+00 0.0000000E+00
outer loop
vertex -7.8782998E-03 -1.0000000E-03 -9.7500002E-03
vertex -7.8782998E-03 8.4889503E-03 -6.2039094E-03
vertex -7.8782998E-03 8.5036000E-03 3.7001350E-03
endloop
endfacet
facet normal 1.0000000E+00 0.0000000E+00 0.0000000E+00
outer loop
vertex -7.8782998E-03 -1.0000000E-03 -9.7500002E-03
vertex -7.8782998E-03 8.5036000E-03 3.7001350E-03
vertex -7.8782998E-03 -1.0000000E-03 7.2499998E-03
endloop
endfacet
facet normal 1.0000000E+00 0.0000000E+00 0.0000000E+00
outer loop
vertex -7.8782998E-03 -1.0000000E-03 7.2499998E-03
vertex -7.8782998E-03 8.5036000E-03 3.7001350E-03
vertex -7.8782998E-03 9.3520004E-03 4.3444452E-03
endloop
endfacet
facet normal 1.0000000E+00 0.0000000E+00 0.0000000E+00
outer loop
vertex -7.8782998E-03 9.3519501E-03 -5.6555551E-03
vertex -7.8782998E-03 8.5036000E-03 3.7001350E-03
vertex -7.8782998E-03 8.4889503E-03 -6.2039094E-03
endloop
endfacet
facet normal 1.0000000E+00 0.0000000E+00 0.0000000E+00
outer loop
vertex -7.8782998E-03 8.5036000E-03 3.7001350E-03
vertex -7.8782998E-03 9.3519501E-03 -5.6555551E-03
vertex -7.8782998E-03 9.5857000E-03 3.2888551E-03
endloop
endfacet
facet normal -7.0710742E-01 7.0710611E-01 0.0000000E+00
outer loop
vertex -9.8783001E-03 4.3499999E-02 6.7500002E-03
vertex -9.3783000E-03 4.4000000E-02 7.2499998E-03
vertex -9.3783000E-03 4.4000000E-02 -9.7500002E-03
endloop
endfacet
facet normal -7.0710683E-01 0.0000000E+00 -7.0710683E-01
outer loop
vertex -9.8783001E-03 4.3499999E-02 -9.2500001E-03
vertex -9.3783000E-03 4.4000000E-02 -9.7500002E-03
vertex -9.3783000E-03 -1.0000000E-03 -9.7500002E-03
endloop
endfacet
facet normal -7.0710647E-01 0.0000000E+00 7.0710713E-01
outer loop
vertex -9.3783000E-03 4.4000000E-02 7.2499998E-03
vertex -9.8783001E-03 4.3499999E-02 6.7500002E-03
vertex -9.8783001E-03 -5.0000002E-04 6.7500002E-03
endloop
endfacet
facet normal -7.0710677E-01 -7.0710683E-01 0.0000000E+00
outer loop
vertex -9.8783001E-03 -5.0000002E-04 -9.2500001E-03
vertex -9.3783000E-03 -1.0000000E-03 -9.7500002E-03
vertex -9.3783000E-03 -1.0000000E-03 7.2499998E-03
endloop
endfacet
facet normal -7.0710677E-01 -7.0710683E-01 0.0000000E+00
outer loop
vertex -9.8783001E-03 -5.0000002E-04 -9.2500001E-03
vertex -9.3783000E-03 -1.0000000E-03 7.2499998E-03
vertex -9.8783001E-03 -5.0000002E-04 6.7500002E-03
endloop
endfacet
facet normal 9.1872722E-02 -7.1672463E-01 -6.9127798E-01
outer loop
vertex -9.3783000E-03 3.1434949E-02 3.0183850E-03
vertex -3.2723800E-03 3.2042749E-02 3.1997049E-03
vertex -3.2411900E-03 3.1035449E-02 4.2482298E-03
endloop
endfacet
facet normal 1.0905970E-01 7.1845859E-01 6.8696666E-01
outer loop
vertex -9.3783000E-03 3.1893399E-02 4.3252502E-03
vertex -3.2411900E-03 3.1035449E-02 4.2482298E-03
vertex -3.2723800E-03 3.2042749E-02 3.1997049E-03
endloop
endfacet
facet normal -8.3804898E-02 9.4030315E-01 -3.2985893E-01
outer loop
vertex -9.3783000E-03 3.1434949E-02 3.0183850E-03
vertex -9.3783000E-03 3.1893399E-02 4.3252502E-03
vertex -3.2723800E-03 3.2042749E-02 3.1997049E-03
endloop
endfacet
facet normal -1.2673110E-01 -9.3601424E-01 3.2835439E-01
outer loop
vertex -9.3783000E-03 3.1893399E-02 4.3252502E-03
vertex -9.3783000E-03 3.1434949E-02 3.0183850E-03
vertex -3.2411900E-03 3.1035449E-02 4.2482298E-03
endloop
endfacet
endsolid Created by stlwrite.m 18-Dec-2012 19:51:23
