solid STL generated by MeshLab
  facet normal 0.000000e+000 -0.000000e+000 1.000000e+000
    outer loop
      vertex  -9.228399e+001 8.605020e+001 5.500000e+001
      vertex  -9.228399e+001 1.060502e+002 5.500000e+001
      vertex  -1.302840e+002 1.060502e+002 5.500000e+001
    endloop
  endfacet
  facet normal 0.000000e+000 0.000000e+000 1.000000e+000
    outer loop
      vertex  -9.228399e+001 8.605020e+001 5.500000e+001
      vertex  -1.302840e+002 1.060502e+002 5.500000e+001
      vertex  -1.302840e+002 8.605020e+001 5.500000e+001
    endloop
  endfacet
  facet normal 0.000000e+000 -0.000000e+000 -1.000000e+000
    outer loop
      vertex  -9.228399e+001 1.060502e+002 8.881784e-015
      vertex  -9.228399e+001 8.605020e+001 8.881784e-015
      vertex  -1.302840e+002 8.605020e+001 8.881784e-015
    endloop
  endfacet
  facet normal -0.000000e+000 0.000000e+000 -1.000000e+000
    outer loop
      vertex  -9.228399e+001 1.060502e+002 8.881784e-015
      vertex  -1.302840e+002 8.605020e+001 8.881784e-015
      vertex  -1.302840e+002 1.060502e+002 8.881784e-015
    endloop
  endfacet
  facet normal 0.000000e+000 -1.000000e+000 0.000000e+000
    outer loop
      vertex  -1.302840e+002 8.605020e+001 5.500000e+001
      vertex  -1.302840e+002 8.605020e+001 8.881784e-015
      vertex  -9.228399e+001 8.605020e+001 5.500000e+001
    endloop
  endfacet
  facet normal 0.000000e+000 -1.000000e+000 0.000000e+000
    outer loop
      vertex  -1.302840e+002 8.605020e+001 8.881784e-015
      vertex  -9.228399e+001 8.605020e+001 8.881784e-015
      vertex  -9.228399e+001 8.605020e+001 5.500000e+001
    endloop
  endfacet
  facet normal -1.000000e+000 -0.000000e+000 -0.000000e+000
    outer loop
      vertex  -1.302840e+002 1.060502e+002 5.500000e+001
      vertex  -1.302840e+002 1.060502e+002 8.881784e-015
      vertex  -1.302840e+002 8.605020e+001 5.500000e+001
    endloop
  endfacet
  facet normal -1.000000e+000 0.000000e+000 0.000000e+000
    outer loop
      vertex  -1.302840e+002 1.060502e+002 8.881784e-015
      vertex  -1.302840e+002 8.605020e+001 8.881784e-015
      vertex  -1.302840e+002 8.605020e+001 5.500000e+001
    endloop
  endfacet
  facet normal 0.000000e+000 1.000000e+000 0.000000e+000
    outer loop
      vertex  -9.228399e+001 1.060502e+002 5.500000e+001
      vertex  -9.228399e+001 1.060502e+002 8.881784e-015
      vertex  -1.302840e+002 1.060502e+002 5.500000e+001
    endloop
  endfacet
  facet normal 0.000000e+000 1.000000e+000 0.000000e+000
    outer loop
      vertex  -9.228399e+001 1.060502e+002 8.881784e-015
      vertex  -1.302840e+002 1.060502e+002 8.881784e-015
      vertex  -1.302840e+002 1.060502e+002 5.500000e+001
    endloop
  endfacet
  facet normal 1.000000e+000 -0.000000e+000 0.000000e+000
    outer loop
      vertex  -9.228399e+001 8.605020e+001 5.500000e+001
      vertex  -9.228399e+001 8.605020e+001 8.881784e-015
      vertex  -9.228399e+001 1.060502e+002 5.500000e+001
    endloop
  endfacet
  facet normal 1.000000e+000 0.000000e+000 0.000000e+000
    outer loop
      vertex  -9.228399e+001 8.605020e+001 8.881784e-015
      vertex  -9.228399e+001 1.060502e+002 8.881784e-015
      vertex  -9.228399e+001 1.060502e+002 5.500000e+001
    endloop
  endfacet
endsolid vcg
