solid Created by stlwrite.m 08-Jan-2017 19:07:57
facet normal 6.7029494E-01 -5.3620529E-01 5.1301908E-01
outer loop
vertex 2.4439612E-01 -1.7147905E-01 8.9075737E-02
vertex 2.9302275E-01 -1.0034841E-01 9.9887110E-02
vertex 2.5188348E-01 -1.0082670E-01 1.5313850E-01
endloop
endfacet
facet normal 6.4541811E-01 7.6144117E-01 -6.0355145E-02
outer loop
vertex 3.0152494E-01 1.0264003E-01 -2.8393695E-02
vertex 2.5871122E-01 1.3800643E-01 -4.0046532E-02
vertex 2.5579718E-01 1.4334407E-01 -3.8685887E-03
endloop
endfacet
facet normal 1.5709977E-01 9.8524761E-01 -6.7873001E-02
outer loop
vertex -5.8184005E-02 2.6216778E-01 1.0308956E-01
vertex 7.4974220E-04 2.5594580E-01 1.4917986E-01
vertex -1.6178122E-02 2.5255403E-01 6.0763273E-02
endloop
endfacet
facet normal 5.2270722E-01 -1.4871901E-01 -8.3944017E-01
outer loop
vertex 3.4624687E-01 -1.7949717E-02 5.0344234E-03
vertex 2.8120062E-01 -4.9330186E-02 -2.9909428E-02
vertex 3.1736141E-01 2.7317494E-02 -2.0971874E-02
endloop
endfacet
facet normal -6.0466623E-01 -2.4616817E-01 7.5748265E-01
outer loop
vertex -9.5073365E-02 -3.2119537E-03 3.4873903E-01
vertex -1.4263940E-01 -6.1618134E-02 2.9178813E-01
vertex -9.0007640E-02 -6.2904820E-02 3.3338368E-01
endloop
endfacet
facet normal 3.4712189E-01 9.3768334E-01 1.6008109E-02
outer loop
vertex 1.2659015E-01 2.1570715E-01 9.6246228E-03
vertex 5.2661307E-02 2.4291217E-01 1.9158803E-02
vertex 1.0465219E-01 2.2260135E-01 8.1498675E-02
endloop
endfacet
facet normal 5.9035514E-02 5.5814219E-01 8.2764256E-01
outer loop
vertex 1.9473265E-01 1.5905663E-01 2.9301471E-01
vertex 8.2571581E-02 1.7899947E-01 2.8756616E-01
vertex 8.5432656E-02 1.1723461E-01 3.2901481E-01
endloop
endfacet
facet normal -3.7636468E-01 -8.8533849E-01 2.7299342E-01
outer loop
vertex 1.7740025E-01 -2.3188840E-01 1.1833027E-01
vertex 1.1034819E-01 -2.0924377E-01 9.9326640E-02
vertex 1.0661045E-01 -2.3321860E-01 1.6421400E-02
endloop
endfacet
facet normal 7.4472529E-01 -5.1653761E-01 4.2257896E-01
outer loop
vertex 1.7740025E-01 -2.3188840E-01 1.1833027E-01
vertex 1.8374543E-01 -1.7414610E-01 1.7772900E-01
vertex 1.6064331E-01 -2.1726505E-01 1.6573638E-01
endloop
endfacet
facet normal 3.8894862E-01 -7.6444335E-02 -9.1808230E-01
outer loop
vertex 2.8120062E-01 -4.9330186E-02 -2.9909428E-02
vertex 2.5588390E-01 5.4620102E-02 -4.9290385E-02
vertex 3.1736141E-01 2.7317494E-02 -2.0971874E-02
endloop
endfacet
facet normal -9.4515336E-01 2.0484212E-01 -2.5441051E-01
outer loop
vertex -1.9073310E-01 1.8501790E-01 1.7421085E-01
vertex -1.6204970E-01 1.9727767E-01 7.7521034E-02
vertex -2.0271708E-01 9.4554856E-02 1.4589462E-01
endloop
endfacet
facet normal 1.0068183E-01 9.9490309E-01 5.5697155E-03
outer loop
vertex -4.7035795E-02 2.6060942E-01 1.7993341E-01
vertex 7.4974220E-04 2.5594580E-01 1.4917986E-01
vertex -5.8184005E-02 2.6216778E-01 1.0308956E-01
endloop
endfacet
facet normal -2.1977383E-01 1.5895292E-02 -9.7542131E-01
outer loop
vertex -5.1042613E-02 3.6165550E-02 -7.9148784E-02
vertex -7.2386816E-02 -1.4825667E-02 -7.5170629E-02
vertex -1.2460139E-01 1.3412836E-03 -6.3142620E-02
endloop
endfacet
facet normal 6.9568163E-01 -3.9789641E-01 5.9808493E-01
outer loop
vertex 2.5188348E-01 -1.0082670E-01 1.5313850E-01
vertex 2.8693518E-01 -3.2906987E-02 1.5755290E-01
vertex 2.2431917E-01 -9.7931661E-02 1.8712683E-01
endloop
endfacet
facet normal -2.1388486E-01 4.0501037E-01 -8.8894320E-01
outer loop
vertex 4.6938121E-02 1.8848008E-01 -4.7271956E-02
vertex -2.1670453E-02 1.2631990E-01 -5.9085064E-02
vertex -1.0510635E-02 2.1176392E-01 -2.2841131E-02
endloop
endfacet
facet normal 6.8176813E-02 -1.5330298E-01 -9.8582464E-01
outer loop
vertex 1.0963747E-01 4.6758384E-02 -7.5460702E-02
vertex 1.6857988E-01 1.8279018E-02 -6.6955663E-02
vertex 1.0739718E-01 -1.1034574E-02 -6.6628404E-02
endloop
endfacet
facet normal -2.8105158E-01 -2.8717598E-01 -9.1571832E-01
outer loop
vertex -8.8103317E-02 -5.5748265E-02 -5.6440882E-02
vertex -1.4140595E-01 -9.2283413E-02 -2.8623585E-02
vertex -1.2460139E-01 1.3412836E-03 -6.3142620E-02
endloop
endfacet
facet normal 6.4734864E-01 7.5872481E-01 7.2638705E-02
outer loop
vertex 2.7945608E-01 1.3104896E-01 1.3123429E-01
vertex 2.9395103E-01 1.1180954E-01 2.0301612E-01
vertex 3.2647362E-01 8.8525712E-02 1.5638204E-01
endloop
endfacet
facet normal 4.8783395E-01 8.7043852E-01 6.5992199E-02
outer loop
vertex 2.7945608E-01 1.3104896E-01 1.3123429E-01
vertex 2.3237211E-01 1.6379726E-01 4.7342263E-02
vertex 2.0203897E-01 1.7616872E-01 1.0839388E-01
endloop
endfacet
facet normal 6.7199373E-01 -4.1526607E-01 6.1317080E-01
outer loop
vertex 2.1776035E-01 5.5760935E-02 2.8838077E-01
vertex 2.3652330E-01 -1.6194642E-02 2.1908639E-01
vertex 2.7003297E-01 1.6562564E-02 2.0454668E-01
endloop
endfacet
facet normal 1.5405524E-01 -4.3530110E-01 8.8700622E-01
outer loop
vertex 8.2441218E-02 -1.0488715E-01 3.0601659E-01
vertex -5.1116338E-03 -6.0902718E-02 3.4280828E-01
vertex 3.3476956E-02 -1.2785138E-01 3.0325094E-01
endloop
endfacet
facet normal 2.0718369E-01 9.6838039E-01 -1.3897641E-01
outer loop
vertex 1.0751684E-01 2.2354887E-01 -3.3985961E-02
vertex 5.4495148E-03 2.4962141E-01 -4.4741468E-03
vertex 5.2661307E-02 2.4291217E-01 1.9158803E-02
endloop
endfacet
facet normal -9.6334928E-01 1.6203339E-01 -2.1378328E-01
outer loop
vertex -2.2560877E-01 1.8778687E-02 1.9161578E-01
vertex -2.0725538E-01 1.3983053E-01 2.0066100E-01
vertex -2.0271708E-01 9.4554856E-02 1.4589462E-01
endloop
endfacet
facet normal -2.4138160E-01 6.8623590E-01 6.8615973E-01
outer loop
vertex 1.9636089E-03 2.2178774E-01 2.3599672E-01
vertex 4.9248688E-02 2.5415981E-01 2.2025530E-01
vertex -4.7035795E-02 2.6060942E-01 1.7993341E-01
endloop
endfacet
facet normal 6.4138365E-01 -3.1136490E-02 -7.6658827E-01
outer loop
vertex 3.4624687E-01 -1.7949717E-02 5.0344234E-03
vertex 3.1736141E-01 2.7317494E-02 -2.0971874E-02
vertex 3.5524058E-01 2.2967467E-02 1.0897290E-02
endloop
endfacet
facet normal 1.9062760E-01 9.7597116E-01 -1.0555207E-01
outer loop
vertex 4.9248688E-02 2.5415981E-01 2.2025530E-01
vertex 6.9142841E-02 2.4451359E-01 1.6699192E-01
vertex 7.4974220E-04 2.5594580E-01 1.4917986E-01
endloop
endfacet
facet normal 5.4534924E-01 8.3062416E-01 1.1250644E-01
outer loop
vertex 2.2245567E-01 1.6168760E-01 1.8132870E-01
vertex 2.9395103E-01 1.1180954E-01 2.0301612E-01
vertex 2.7945608E-01 1.3104896E-01 1.3123429E-01
endloop
endfacet
facet normal 7.9925954E-01 5.9693342E-01 -6.9675848E-02
outer loop
vertex 3.3892685E-01 5.5339623E-02 -4.5884973E-03
vertex 3.0152494E-01 1.0264003E-01 -2.8393695E-02
vertex 3.1314060E-01 9.8990656E-02 7.3585704E-02
endloop
endfacet
facet normal -7.1218923E-02 2.6153541E-01 -9.6256286E-01
outer loop
vertex -2.1670453E-02 1.2631990E-01 -5.9085064E-02
vertex 4.6938121E-02 1.8848008E-01 -4.7271956E-02
vertex 1.0427324E-01 1.2770310E-01 -6.8027668E-02
endloop
endfacet
facet normal 7.9185182E-01 -3.7445706E-01 4.8244449E-01
outer loop
vertex 3.2827029E-01 -4.1375112E-02 8.3135583E-02
vertex 3.2700679E-01 1.6531171E-02 1.3015430E-01
vertex 2.8693518E-01 -3.2906987E-02 1.5755290E-01
endloop
endfacet
facet normal -6.2858480E-01 -2.0701183E-01 7.4968469E-01
outer loop
vertex -1.6414113E-01 3.1198973E-02 3.0033004E-01
vertex -1.9715779E-01 -4.2066447E-02 2.5241581E-01
vertex -9.5073365E-02 -3.2119537E-03 3.4873903E-01
endloop
endfacet
facet normal -9.3209332E-01 8.6565256E-02 -3.5172233E-01
outer loop
vertex -1.2460139E-01 1.3412836E-03 -6.3142620E-02
vertex -1.4970201E-01 8.8229589E-02 2.4760902E-02
vertex -1.1942863E-01 9.3870729E-02 -5.4077704E-02
endloop
endfacet
facet normal 9.7491473E-01 -2.1954061E-01 3.6650609E-02
outer loop
vertex 3.4624687E-01 -1.7949717E-02 5.0344234E-03
vertex 3.5524058E-01 2.2967467E-02 1.0897290E-02
vertex 3.5798261E-01 4.3684874E-02 6.2058084E-02
endloop
endfacet
facet normal 1.1464426E-01 -2.2763012E-01 -9.6697533E-01
outer loop
vertex 1.2346987E-01 -1.3794222E-01 -4.3656956E-02
vertex 7.1143486E-02 -1.3289183E-01 -5.1049639E-02
vertex 1.3330327E-01 -7.4108340E-02 -5.7517882E-02
endloop
endfacet
facet normal -9.1044366E-01 9.2019700E-02 -4.0326744E-01
outer loop
vertex -2.0271708E-01 9.4554856E-02 1.4589462E-01
vertex -1.6204970E-01 1.9727767E-01 7.7521034E-02
vertex -1.4970201E-01 8.8229589E-02 2.4760902E-02
endloop
endfacet
facet normal -1.8657720E-01 4.9139360E-01 -8.5071808E-01
outer loop
vertex -1.0510635E-02 2.1176392E-01 -2.2841131E-02
vertex -7.8538962E-02 2.0931388E-01 -9.3365358E-03
vertex 5.4495148E-03 2.4962141E-01 -4.4741468E-03
endloop
endfacet
facet normal 4.8541459E-01 8.7190205E-01 6.4493611E-02
outer loop
vertex 2.0203897E-01 1.7616872E-01 1.0839388E-01
vertex 2.3237211E-01 1.6379726E-01 4.7342263E-02
vertex 1.6540554E-01 1.9934957E-01 7.0730902E-02
endloop
endfacet
facet normal 3.1712592E-02 9.3481630E-02 -9.9511582E-01
outer loop
vertex 1.0427324E-01 1.2770310E-01 -6.8027668E-02
vertex 1.0963747E-01 4.6758384E-02 -7.5460702E-02
vertex 2.2975044E-02 6.5304779E-02 -7.6480225E-02
endloop
endfacet
facet normal 6.3942879E-01 -4.1808018E-01 6.4524394E-01
outer loop
vertex 1.1434796E-01 -1.7542414E-01 2.4567294E-01
vertex 1.3653350E-01 -1.9787407E-01 2.0914111E-01
vertex 1.8374543E-01 -1.7414610E-01 1.7772900E-01
endloop
endfacet
facet normal 8.6055475E-01 -4.9016467E-01 1.3850652E-01
outer loop
vertex 2.6672539E-01 -1.6720213E-01 2.6684694E-02
vertex 3.2012454E-01 -8.1952497E-02 -3.3971728E-03
vertex 2.9302275E-01 -1.0034841E-01 9.9887110E-02
endloop
endfacet
facet normal 8.5019773E-01 -1.7463604E-01 4.9665490E-01
outer loop
vertex 3.2647362E-01 8.8525712E-02 1.5638204E-01
vertex 2.9784003E-01 5.6973241E-02 1.9430378E-01
vertex 3.2700679E-01 1.6531171E-02 1.3015430E-01
endloop
endfacet
facet normal -2.7222139E-01 -9.2399716E-01 2.6856038E-01
outer loop
vertex -2.3587601E-02 -2.1070097E-01 -2.9023979E-02
vertex 6.5098256E-02 -2.3785447E-01 -3.2552287E-02
vertex 2.8721778E-02 -2.0862927E-01 3.1126307E-02
endloop
endfacet
facet normal -9.8864645E-02 5.5133832E-01 8.2840312E-01
outer loop
vertex 1.1119584E-02 1.2660548E-01 3.1390929E-01
vertex 8.5432656E-02 1.1723461E-01 3.2901481E-01
vertex 8.2571581E-02 1.7899947E-01 2.8756616E-01
endloop
endfacet
facet normal -1.0401481E-01 -2.5284600E-01 -9.6189904E-01
outer loop
vertex -4.1725866E-02 -1.6584729E-01 -3.5168011E-02
vertex -9.1377363E-02 -1.1470915E-01 -4.3241188E-02
vertex -3.1054027E-02 -7.3984995E-02 -6.0469046E-02
endloop
endfacet
facet normal 5.7150489E-01 3.9394710E-02 -8.1965256E-01
outer loop
vertex 3.1736141E-01 2.7317494E-02 -2.0971874E-02
vertex 3.0152494E-01 1.0264003E-01 -2.8393695E-02
vertex 3.3892685E-01 5.5339623E-02 -4.5884973E-03
endloop
endfacet
facet normal 8.1140673E-01 -3.5148814E-02 5.8342409E-01
outer loop
vertex 2.9395103E-01 1.1180954E-01 2.0301612E-01
vertex 2.9784003E-01 5.6973241E-02 1.9430378E-01
vertex 3.2647362E-01 8.8525712E-02 1.5638204E-01
endloop
endfacet
facet normal -3.0624965E-01 -9.0456945E-01 2.9658955E-01
outer loop
vertex -6.8565547E-02 -1.7570134E-01 3.1097276E-02
vertex 2.8721778E-02 -2.0862927E-01 3.1126307E-02
vertex -6.1637539E-02 -1.5227605E-01 1.0969577E-01
endloop
endfacet
facet normal 7.8745857E-02 -1.1075924E-01 -9.9072266E-01
outer loop
vertex 1.3330327E-01 -7.4108340E-02 -5.7517882E-02
vertex 6.7465618E-02 -5.6943573E-02 -6.4669833E-02
vertex 1.0739718E-01 -1.1034574E-02 -6.6628404E-02
endloop
endfacet
facet normal -3.0815026E-01 -9.0462500E-01 2.9444364E-01
outer loop
vertex -6.1637539E-02 -1.5227605E-01 1.0969577E-01
vertex 2.8721778E-02 -2.0862927E-01 3.1126307E-02
vertex 1.2647371E-02 -1.5926443E-01 1.6596819E-01
endloop
endfacet
facet normal 1.7650880E-01 9.8312169E-01 -4.8128024E-02
outer loop
vertex -5.8184005E-02 2.6216778E-01 1.0308956E-01
vertex -1.6178122E-02 2.5255403E-01 6.0763273E-02
vertex -7.1328856E-02 2.6086169E-01 2.8201303E-02
endloop
endfacet
facet normal 5.6815851E-01 -4.5048735E-01 6.8866324E-01
outer loop
vertex 1.6168223E-01 -6.3809916E-02 2.7963355E-01
vertex 1.1434796E-01 -1.7542414E-01 2.4567294E-01
vertex 1.8032843E-01 -1.1546144E-01 2.3046242E-01
endloop
endfacet
facet normal -9.1207594E-01 -6.2871620E-02 -4.0517247E-01
outer loop
vertex -1.6866609E-01 -1.3365920E-01 3.9161578E-02
vertex -1.9612540E-01 -1.0731082E-01 9.6886158E-02
vertex -1.4140595E-01 -9.2283413E-02 -2.8623585E-02
endloop
endfacet
facet normal 6.7524654E-01 7.3742861E-01 -1.5531225E-02
outer loop
vertex 2.7945608E-01 1.3104896E-01 1.3123429E-01
vertex 3.2647362E-01 8.8525712E-02 1.5638204E-01
vertex 3.1314060E-01 9.8990656E-02 7.3585704E-02
endloop
endfacet
facet normal -1.6580907E-01 4.2095131E-01 -8.9180011E-01
outer loop
vertex -2.1670453E-02 1.2631990E-01 -5.9085064E-02
vertex -1.2519041E-01 1.6302624E-01 -2.2511696E-02
vertex -7.8538962E-02 2.0931388E-01 -9.3365358E-03
endloop
endfacet
facet normal -4.9909249E-01 7.8759885E-01 3.6137891E-01
outer loop
vertex -1.1533596E-01 2.6017943E-01 1.1453114E-01
vertex -1.5194575E-01 2.4793959E-01 9.0645999E-02
vertex -1.9073310E-01 1.8501790E-01 1.7421085E-01
endloop
endfacet
facet normal 6.0572189E-01 -5.1201600E-01 6.0904890E-01
outer loop
vertex 1.8032843E-01 -1.1546144E-01 2.3046242E-01
vertex 1.1434796E-01 -1.7542414E-01 2.4567294E-01
vertex 1.8374543E-01 -1.7414610E-01 1.7772900E-01
endloop
endfacet
facet normal -2.3973549E-02 -1.4449064E-01 -9.8921567E-01
outer loop
vertex 3.3482544E-02 -1.9807313E-01 -4.0616166E-02
vertex 1.6486283E-02 -1.0795648E-01 -5.3367231E-02
vertex 7.1143486E-02 -1.3289183E-01 -5.1049639E-02
endloop
endfacet
facet normal -3.0768248E-01 3.8878420E-01 8.6843437E-01
outer loop
vertex -1.0149070E-01 7.1639717E-02 3.1295550E-01
vertex -9.5073365E-02 -3.2119537E-03 3.4873903E-01
vertex -4.0043268E-02 3.5716660E-02 3.5080823E-01
endloop
endfacet
facet normal 6.0118961E-01 1.3271223E-01 7.8800929E-01
outer loop
vertex 1.9473265E-01 1.5905663E-01 2.9301471E-01
vertex 1.5245643E-01 1.0210966E-01 3.3485886E-01
vertex 2.4424475E-01 8.9052022E-02 2.6703063E-01
endloop
endfacet
facet normal 5.4563540E-01 -2.9307011E-01 7.8510636E-01
outer loop
vertex 1.2314319E-01 -3.7664339E-02 3.1890973E-01
vertex 1.8672156E-01 1.2609582E-02 2.9349047E-01
vertex 1.2996803E-01 3.4907468E-02 3.4125671E-01
endloop
endfacet
facet normal -4.0501705E-01 3.6585250E-01 8.3792186E-01
outer loop
vertex -1.0149070E-01 7.1639717E-02 3.1295550E-01
vertex -1.6414113E-01 3.1198973E-02 3.0033004E-01
vertex -9.5073365E-02 -3.2119537E-03 3.4873903E-01
endloop
endfacet
facet normal -5.7394084E-02 2.3465618E-01 -9.7038263E-01
outer loop
vertex 2.2975044E-02 6.5304779E-02 -7.6480225E-02
vertex -5.1042613E-02 3.6165550E-02 -7.9148784E-02
vertex -2.1670453E-02 1.2631990E-01 -5.9085064E-02
endloop
endfacet
facet normal -4.2237096E-02 -2.6073530E-01 -9.6448594E-01
outer loop
vertex -4.1725866E-02 -1.6584729E-01 -3.5168011E-02
vertex -3.1054027E-02 -7.3984995E-02 -6.0469046E-02
vertex 1.6486283E-02 -1.0795648E-01 -5.3367231E-02
endloop
endfacet
facet normal -4.3968466E-01 4.3601263E-01 7.8521997E-01
outer loop
vertex -1.8458396E-01 1.0369010E-01 2.4863058E-01
vertex -1.6414113E-01 3.1198973E-02 3.0033004E-01
vertex -1.0149070E-01 7.1639717E-02 3.1295550E-01
endloop
endfacet
facet normal 3.7755072E-01 8.9370653E-02 -9.2166603E-01
outer loop
vertex 2.5588390E-01 5.4620102E-02 -4.9290385E-02
vertex 2.1913593E-01 1.0854044E-01 -5.9115343E-02
vertex 2.5871122E-01 1.3800643E-01 -4.0046532E-02
endloop
endfacet
facet normal 6.4017910E-01 -4.4269525E-02 -7.6694912E-01
outer loop
vertex 3.5524058E-01 2.2967467E-02 1.0897290E-02
vertex 3.1736141E-01 2.7317494E-02 -2.0971874E-02
vertex 3.3892685E-01 5.5339623E-02 -4.5884973E-03
endloop
endfacet
facet normal -3.4385768E-01 -8.4529740E-01 4.0894285E-01
outer loop
vertex -6.6440083E-02 -1.0250994E-01 2.7133536E-01
vertex -9.0007640E-02 -6.2904820E-02 3.3338368E-01
vertex -1.4263940E-01 -6.1618134E-02 2.9178813E-01
endloop
endfacet
facet normal -5.9283608E-01 -7.5646317E-01 2.7624068E-01
outer loop
vertex -1.9612540E-01 -1.0731082E-01 9.6886158E-02
vertex -1.9938530E-01 -7.0849776E-02 1.8973583E-01
vertex -2.2799335E-01 -4.6944145E-02 1.9380417E-01
endloop
endfacet
facet normal -2.4062996E-01 4.7833163E-01 8.4456849E-01
outer loop
vertex -1.0149070E-01 7.1639717E-02 3.1295550E-01
vertex -4.0043268E-02 3.5716660E-02 3.5080823E-01
vertex 1.1119584E-02 1.2660548E-01 3.1390929E-01
endloop
endfacet
facet normal 5.0579232E-01 -9.3460426E-02 -8.5757756E-01
outer loop
vertex 3.2012454E-01 -8.1952497E-02 -3.3971728E-03
vertex 2.8120062E-01 -4.9330186E-02 -2.9909428E-02
vertex 3.4624687E-01 -1.7949717E-02 5.0344234E-03
endloop
endfacet
facet normal 1.8019192E-01 -1.6371112E-01 9.6991217E-01
outer loop
vertex 9.5676519E-03 1.8262008E-02 3.6569110E-01
vertex 7.0125602E-02 -1.1120323E-02 3.4948111E-01
vertex 7.1209505E-02 5.2385274E-02 3.5999882E-01
endloop
endfacet
facet normal -8.0969632E-01 -2.9635987E-01 -5.0652027E-01
outer loop
vertex -1.3551909E-01 -1.5703179E-01 -1.5039717E-04
vertex -1.6866609E-01 -1.3365920E-01 3.9161578E-02
vertex -1.4140595E-01 -9.2283413E-02 -2.8623585E-02
endloop
endfacet
facet normal 7.8368008E-01 -5.7240862E-01 2.4123430E-01
outer loop
vertex 2.6672539E-01 -1.6720213E-01 2.6684694E-02
vertex 2.9302275E-01 -1.0034841E-01 9.9887110E-02
vertex 2.4439612E-01 -1.7147905E-01 8.9075737E-02
endloop
endfacet
facet normal 9.1609770E-01 -2.4050580E-01 3.2081449E-01
outer loop
vertex 3.5798261E-01 4.3684874E-02 6.2058084E-02
vertex 3.2700679E-01 1.6531171E-02 1.3015430E-01
vertex 3.2827029E-01 -4.1375112E-02 8.3135583E-02
endloop
endfacet
facet normal -3.4468699E-01 5.8299232E-01 7.3573822E-01
outer loop
vertex -7.9824068E-02 1.6377686E-01 2.5009748E-01
vertex -1.8458396E-01 1.0369010E-01 2.4863058E-01
vertex -1.0149070E-01 7.1639717E-02 3.1295550E-01
endloop
endfacet
facet normal 2.7972078E-01 -1.0970446E-01 -9.5379311E-01
outer loop
vertex 1.9762613E-01 -1.4826727E-02 -5.8388043E-02
vertex 2.5588390E-01 5.4620102E-02 -4.9290385E-02
vertex 2.8120062E-01 -4.9330186E-02 -2.9909428E-02
endloop
endfacet
facet normal -1.4131701E-01 -1.6477397E-01 -9.7615522E-01
outer loop
vertex -4.1725866E-02 -1.6584729E-01 -3.5168011E-02
vertex 1.6486283E-02 -1.0795648E-01 -5.3367231E-02
vertex 3.3482544E-02 -1.9807313E-01 -4.0616166E-02
endloop
endfacet
facet normal 6.9352669E-01 -3.1271625E-01 6.4902174E-01
outer loop
vertex 2.9784003E-01 5.6973241E-02 1.9430378E-01
vertex 2.4424475E-01 8.9052022E-02 2.6703063E-01
vertex 2.7003297E-01 1.6562564E-02 2.0454668E-01
endloop
endfacet
facet normal -1.6742748E-01 4.8658225E-01 -8.5744137E-01
outer loop
vertex 4.6938121E-02 1.8848008E-01 -4.7271956E-02
vertex -1.0510635E-02 2.1176392E-01 -2.2841131E-02
vertex 5.4495148E-03 2.4962141E-01 -4.4741468E-03
endloop
endfacet
facet normal -3.9910263E-01 -8.7719965E-01 2.6690421E-01
outer loop
vertex -1.4263940E-01 -6.1618134E-02 2.9178813E-01
vertex -1.3895345E-01 -9.1113597E-02 2.0036082E-01
vertex -6.6440083E-02 -1.0250994E-01 2.7133536E-01
endloop
endfacet
facet normal 4.3957311E-01 8.9808279E-01 -1.4920592E-02
outer loop
vertex 1.2103173E-01 2.2053809E-01 2.5257730E-01
vertex 1.4364240E-01 2.0889142E-01 2.1768348E-01
vertex 6.9142841E-02 2.4451359E-01 1.6699192E-01
endloop
endfacet
facet normal 4.1629913E-01 9.0883166E-01 2.6837714E-02
outer loop
vertex 1.4364240E-01 2.0889142E-01 2.1768348E-01
vertex 1.3567378E-01 2.1449181E-01 1.5163894E-01
vertex 6.9142841E-02 2.4451359E-01 1.6699192E-01
endloop
endfacet
facet normal -3.3814061E-01 6.2127209E-01 7.0688188E-01
outer loop
vertex -1.1284097E-01 2.1221974E-01 1.8756349E-01
vertex -1.9073310E-01 1.8501790E-01 1.7421085E-01
vertex -1.8458396E-01 1.0369010E-01 2.4863058E-01
endloop
endfacet
facet normal 3.2733414E-01 9.4427282E-01 3.4657799E-02
outer loop
vertex 5.2661307E-02 2.4291217E-01 1.9158803E-02
vertex 4.3961864E-02 2.4377067E-01 7.7932477E-02
vertex 1.0465219E-01 2.2260135E-01 8.1498675E-02
endloop
endfacet
facet normal 3.4984553E-01 9.3565005E-01 -4.6550617E-02
outer loop
vertex 1.3567378E-01 2.1449181E-01 1.5163894E-01
vertex 1.6540554E-01 1.9934957E-01 7.0730902E-02
vertex 1.0465219E-01 2.2260135E-01 8.1498675E-02
endloop
endfacet
facet normal 1.6696385E-01 5.1512722E-02 -9.8461640E-01
outer loop
vertex 1.0963747E-01 4.6758384E-02 -7.5460702E-02
vertex 1.7133963E-01 9.7324871E-02 -6.2352199E-02
vertex 1.6857988E-01 1.8279018E-02 -6.6955663E-02
endloop
endfacet
facet normal 8.3835179E-01 -5.4282004E-01 -5.0127883E-02
outer loop
vertex 2.7266935E-01 -1.5480235E-01 -8.1805987E-03
vertex 3.2012454E-01 -8.1952497E-02 -3.3971728E-03
vertex 2.6672539E-01 -1.6720213E-01 2.6684694E-02
endloop
endfacet
facet normal 7.0481175E-01 -5.9341526E-01 3.8871402E-01
outer loop
vertex 2.2273290E-01 -1.6271563E-01 1.4173357E-01
vertex 1.7740025E-01 -2.3188840E-01 1.1833027E-01
vertex 2.4439612E-01 -1.7147905E-01 8.9075737E-02
endloop
endfacet
facet normal -8.6579531E-01 8.7483585E-02 4.9269173E-01
outer loop
vertex -1.8458396E-01 1.0369010E-01 2.4863058E-01
vertex -2.2560877E-01 1.8778687E-02 1.9161578E-01
vertex -1.9715779E-01 -4.2066447E-02 2.5241581E-01
endloop
endfacet
facet normal 5.9584123E-01 7.9391849E-01 1.2110618E-01
outer loop
vertex 1.4364240E-01 2.0889142E-01 2.1768348E-01
vertex 1.2103173E-01 2.2053809E-01 2.5257730E-01
vertex 1.9473265E-01 1.5905663E-01 2.9301471E-01
endloop
endfacet
facet normal -2.6424211E-01 3.2527578E-01 9.0794921E-01
outer loop
vertex -5.0603740E-02 -1.1950649E-03 3.6095855E-01
vertex -4.0043268E-02 3.5716660E-02 3.5080823E-01
vertex -9.5073365E-02 -3.2119537E-03 3.4873903E-01
endloop
endfacet
facet normal -3.6598203E-01 -8.9688009E-01 2.4832080E-01
outer loop
vertex -6.8565547E-02 -1.7570134E-01 3.1097276E-02
vertex -1.3551909E-01 -1.5703179E-01 -1.5039717E-04
vertex -2.3587601E-02 -2.1070097E-01 -2.9023979E-02
endloop
endfacet
facet normal 2.6923835E-01 -3.6033660E-01 -8.9312273E-01
outer loop
vertex 1.8401721E-01 -1.6322130E-01 -3.3352349E-02
vertex 1.7491165E-01 -2.4516039E-01 -3.0383868E-03
vertex 1.2016111E-01 -2.0008150E-01 -3.7730731E-02
endloop
endfacet
facet normal -5.9735399E-01 6.8111855E-01 -4.2337397E-01
outer loop
vertex -1.5194575E-01 2.4793959E-01 9.0645999E-02
vertex -1.1097349E-01 2.6088765E-01 5.3667393E-02
vertex -1.3485292E-01 2.2430629E-01 2.8508125E-02
endloop
endfacet
facet normal 6.9969028E-01 -6.9420433E-01 1.6886041E-01
outer loop
vertex 2.4439612E-01 -1.7147905E-01 8.9075737E-02
vertex 1.7740025E-01 -2.3188840E-01 1.1833027E-01
vertex 1.8358062E-01 -2.4182399E-01 5.1874943E-02
endloop
endfacet
facet normal 1.5128977E-02 -2.8024155E-01 9.5981026E-01
outer loop
vertex 9.5676519E-03 1.8262008E-02 3.6569110E-01
vertex -5.0603740E-02 -1.1950649E-03 3.6095855E-01
vertex -5.1116338E-03 -6.0902718E-02 3.4280828E-01
endloop
endfacet
facet normal 3.6054698E-01 9.3251348E-01 2.0601748E-02
outer loop
vertex 1.6540554E-01 1.9934957E-01 7.0730902E-02
vertex 1.2659015E-01 2.1570715E-01 9.6246228E-03
vertex 1.0465219E-01 2.2260135E-01 8.1498675E-02
endloop
endfacet
facet normal 5.9823173E-01 -8.0001140E-01 -4.5833990E-02
outer loop
vertex 2.2439063E-01 -2.0793658E-01 -6.9562760E-03
vertex 1.8358062E-01 -2.4182399E-01 5.1874943E-02
vertex 1.7491165E-01 -2.4516039E-01 -3.0383868E-03
endloop
endfacet
facet normal 3.5627782E-01 -3.0542308E-01 8.8305312E-01
outer loop
vertex 1.2314319E-01 -3.7664339E-02 3.1890973E-01
vertex 1.2996803E-01 3.4907468E-02 3.4125671E-01
vertex 7.0125602E-02 -1.1120323E-02 3.4948111E-01
endloop
endfacet
facet normal -2.6015714E-01 1.0853878E-01 -9.5944649E-01
outer loop
vertex -5.1042613E-02 3.6165550E-02 -7.9148784E-02
vertex -1.2460139E-01 1.3412836E-03 -6.3142620E-02
vertex -1.1942863E-01 9.3870729E-02 -5.4077704E-02
endloop
endfacet
facet normal 7.4927223E-01 -3.3520222E-01 5.7116604E-01
outer loop
vertex 2.0853233E-01 -4.2358775E-02 2.4045072E-01
vertex 2.2431917E-01 -9.7931661E-02 1.8712683E-01
vertex 2.3652330E-01 -1.6194642E-02 2.1908639E-01
endloop
endfacet
facet normal -2.4475631E-01 -2.6098093E-01 9.3380040E-01
outer loop
vertex -5.0603740E-02 -1.1950649E-03 3.6095855E-01
vertex -9.5073365E-02 -3.2119537E-03 3.4873903E-01
vertex -9.0007640E-02 -6.2904820E-02 3.3338368E-01
endloop
endfacet
facet normal 7.1201056E-01 -4.4592914E-01 5.4239112E-01
outer loop
vertex 1.8374543E-01 -1.7414610E-01 1.7772900E-01
vertex 2.2431917E-01 -9.7931661E-02 1.8712683E-01
vertex 1.8032843E-01 -1.1546144E-01 2.3046242E-01
endloop
endfacet
facet normal -3.2914408E-02 9.9941522E-01 9.2702191E-03
outer loop
vertex -1.1097349E-01 2.6088765E-01 5.3667393E-02
vertex -1.1533596E-01 2.6017943E-01 1.1453114E-01
vertex -5.8184005E-02 2.6216778E-01 1.0308956E-01
endloop
endfacet
facet normal -1.3414726E-01 3.9400882E-01 9.0926433E-01
outer loop
vertex 9.5676519E-03 1.8262008E-02 3.6569110E-01
vertex 7.1209505E-02 5.2385274E-02 3.5999882E-01
vertex -4.0043268E-02 3.5716660E-02 3.5080823E-01
endloop
endfacet
facet normal 7.3804563E-01 -2.9343829E-01 6.0760403E-01
outer loop
vertex 2.0853233E-01 -4.2358775E-02 2.4045072E-01
vertex 2.3652330E-01 -1.6194642E-02 2.1908639E-01
vertex 1.8672156E-01 1.2609582E-02 2.9349047E-01
endloop
endfacet
facet normal 1.1095699E-01 -2.9490411E-01 9.4906276E-01
outer loop
vertex -5.1116338E-03 -6.0902718E-02 3.4280828E-01
vertex 7.0125602E-02 -1.1120323E-02 3.4948111E-01
vertex 9.5676519E-03 1.8262008E-02 3.6569110E-01
endloop
endfacet
facet normal 5.6415606E-02 -4.8358575E-01 8.7347698E-01
outer loop
vertex 3.3476956E-02 -1.2785138E-01 3.0325094E-01
vertex -5.1116338E-03 -6.0902718E-02 3.4280828E-01
vertex -3.3562720E-02 -9.1865562E-02 3.2750380E-01
endloop
endfacet
facet normal 5.1724076E-01 8.5577959E-01 1.0159923E-02
outer loop
vertex 1.4364240E-01 2.0889142E-01 2.1768348E-01
vertex 2.2245567E-01 1.6168760E-01 1.8132870E-01
vertex 1.3567378E-01 2.1449181E-01 1.5163894E-01
endloop
endfacet
facet normal 4.8626471E-01 8.4348440E-01 2.2821191E-01
outer loop
vertex 1.4364240E-01 2.0889142E-01 2.1768348E-01
vertex 1.9473265E-01 1.5905663E-01 2.9301471E-01
vertex 2.3532221E-01 1.4381289E-01 2.6286986E-01
endloop
endfacet
facet normal -9.2758411E-01 7.2313808E-02 -3.6654943E-01
outer loop
vertex -1.6204970E-01 1.9727767E-01 7.7521034E-02
vertex -1.2519041E-01 1.6302624E-01 -2.2511696E-02
vertex -1.4970201E-01 8.8229589E-02 2.4760902E-02
endloop
endfacet
facet normal 8.6691016E-01 -4.7769257E-01 1.4239557E-01
outer loop
vertex 3.2012454E-01 -8.1952497E-02 -3.3971728E-03
vertex 3.2827029E-01 -4.1375112E-02 8.3135583E-02
vertex 2.9302275E-01 -1.0034841E-01 9.9887110E-02
endloop
endfacet
facet normal 1.9143300E-02 -2.2851147E-01 -9.7335303E-01
outer loop
vertex -3.1054027E-02 -7.3984995E-02 -6.0469046E-02
vertex -7.2386816E-02 -1.4825667E-02 -7.5170629E-02
vertex 2.5159197E-02 -1.1986713E-02 -7.3918648E-02
endloop
endfacet
facet normal -3.1048408E-01 9.5051265E-01 -1.1193875E-02
outer loop
vertex -1.1533596E-01 2.6017943E-01 1.1453114E-01
vertex -1.1097349E-01 2.6088765E-01 5.3667393E-02
vertex -1.5194575E-01 2.4793959E-01 9.0645999E-02
endloop
endfacet
facet normal 3.2243031E-01 -3.6290598E-01 8.7426424E-01
outer loop
vertex 8.2441218E-02 -1.0488715E-01 3.0601659E-01
vertex 1.2314319E-01 -3.7664339E-02 3.1890973E-01
vertex 7.0125602E-02 -1.1120323E-02 3.4948111E-01
endloop
endfacet
facet normal -3.5397151E-01 5.9512848E-01 7.2147506E-01
outer loop
vertex -1.1284097E-01 2.1221974E-01 1.8756349E-01
vertex 1.9636089E-03 2.2178774E-01 2.3599672E-01
vertex -4.7035795E-02 2.6060942E-01 1.7993341E-01
endloop
endfacet
facet normal -3.3976674E-01 5.8424246E-01 -7.3703408E-01
outer loop
vertex -7.8538962E-02 2.0931388E-01 -9.3365358E-03
vertex -1.3485292E-01 2.2430629E-01 2.8508125E-02
vertex -7.1328856E-02 2.6086169E-01 2.8201303E-02
endloop
endfacet
facet normal -3.7052006E-01 6.2931585E-01 6.8313730E-01
outer loop
vertex -1.1284097E-01 2.1221974E-01 1.8756349E-01
vertex -1.8458396E-01 1.0369010E-01 2.4863058E-01
vertex -7.9824068E-02 1.6377686E-01 2.5009748E-01
endloop
endfacet
facet normal -3.0616856E-01 -9.0432912E-01 2.9740494E-01
outer loop
vertex -2.3587601E-02 -2.1070097E-01 -2.9023979E-02
vertex 2.8721778E-02 -2.0862927E-01 3.1126307E-02
vertex -6.8565547E-02 -1.7570134E-01 3.1097276E-02
endloop
endfacet
facet normal 5.2885819E-02 -1.2144787E-01 -9.9118799E-01
outer loop
vertex 1.3330327E-01 -7.4108340E-02 -5.7517882E-02
vertex 1.0739718E-01 -1.1034574E-02 -6.6628404E-02
vertex 1.6857988E-01 1.8279018E-02 -6.6955663E-02
endloop
endfacet
facet normal -1.6671418E-01 6.1489731E-01 7.7078384E-01
outer loop
vertex 1.1119584E-02 1.2660548E-01 3.1390929E-01
vertex 8.2571581E-02 1.7899947E-01 2.8756616E-01
vertex 1.9636089E-03 2.2178774E-01 2.3599672E-01
endloop
endfacet
facet normal -3.5590777E-01 -9.2101610E-01 1.5830047E-01
outer loop
vertex 1.7740025E-01 -2.3188840E-01 1.1833027E-01
vertex 1.6064331E-01 -2.1726505E-01 1.6573638E-01
vertex 1.1034819E-01 -2.0924377E-01 9.9326640E-02
endloop
endfacet
facet normal -3.4148991E-01 6.4713651E-01 6.8161494E-01
outer loop
vertex -7.9824068E-02 1.6377686E-01 2.5009748E-01
vertex 1.9636089E-03 2.2178774E-01 2.3599672E-01
vertex -1.1284097E-01 2.1221974E-01 1.8756349E-01
endloop
endfacet
facet normal -3.2678416E-01 -8.8891834E-01 3.2099265E-01
outer loop
vertex -6.1637539E-02 -1.5227605E-01 1.0969577E-01
vertex 1.2647371E-02 -1.5926443E-01 1.6596819E-01
vertex -1.3895345E-01 -9.1113597E-02 2.0036082E-01
endloop
endfacet
facet normal 3.3296797E-01 9.3740898E-01 -1.0196418E-01
outer loop
vertex 1.0465219E-01 2.2260135E-01 8.1498675E-02
vertex 4.3961864E-02 2.4377067E-01 7.7932477E-02
vertex 6.9142841E-02 2.4451359E-01 1.6699192E-01
endloop
endfacet
facet normal 5.5390269E-01 -5.2793492E-02 8.3090603E-01
outer loop
vertex 2.1776035E-01 5.5760935E-02 2.8838077E-01
vertex 1.5245643E-01 1.0210966E-01 3.3485886E-01
vertex 1.6867808E-01 6.1844423E-02 3.2148677E-01
endloop
endfacet
facet normal 1.9816540E-01 -3.5938731E-01 -9.1190535E-01
outer loop
vertex 1.8401721E-01 -1.6322130E-01 -3.3352349E-02
vertex 2.2439063E-01 -2.0793658E-01 -6.9562760E-03
vertex 1.7491165E-01 -2.4516039E-01 -3.0383868E-03
endloop
endfacet
facet normal -1.7769587E-01 3.9633915E-01 -9.0074378E-01
outer loop
vertex -2.1670453E-02 1.2631990E-01 -5.9085064E-02
vertex -1.1942863E-01 9.3870729E-02 -5.4077704E-02
vertex -1.2519041E-01 1.6302624E-01 -2.2511696E-02
endloop
endfacet
facet normal -2.6110727E-01 -9.1610694E-01 3.0425501E-01
outer loop
vertex 2.8721778E-02 -2.0862927E-01 3.1126307E-02
vertex 1.1034819E-01 -2.0924377E-01 9.9326640E-02
vertex 1.2647371E-02 -1.5926443E-01 1.6596819E-01
endloop
endfacet
facet normal 4.2227778E-01 9.0610272E-01 -2.5680277E-02
outer loop
vertex 1.2659015E-01 2.1570715E-01 9.6246228E-03
vertex 1.6540554E-01 1.9934957E-01 7.0730902E-02
vertex 1.7925180E-01 1.9087297E-01 -6.7414995E-04
endloop
endfacet
facet normal -9.7512233E-01 2.8058287E-02 -2.1988438E-01
outer loop
vertex -2.2560877E-01 1.8778687E-02 1.9161578E-01
vertex -2.1436906E-01 -1.4756817E-02 1.3749170E-01
vertex -2.2799335E-01 -4.6944145E-02 1.9380417E-01
endloop
endfacet
facet normal -6.2216711E-01 -2.2459619E-01 7.4997634E-01
outer loop
vertex -1.9715779E-01 -4.2066447E-02 2.5241581E-01
vertex -1.4263940E-01 -6.1618134E-02 2.9178813E-01
vertex -9.5073365E-02 -3.2119537E-03 3.4873903E-01
endloop
endfacet
facet normal -1.2311931E-01 4.4968155E-01 8.8466281E-01
outer loop
vertex 7.1209505E-02 5.2385274E-02 3.5999882E-01
vertex 8.5432656E-02 1.1723461E-01 3.2901481E-01
vertex 1.1119584E-02 1.2660548E-01 3.1390929E-01
endloop
endfacet
facet normal 1.7949514E-01 9.8199147E-01 -5.8942612E-02
outer loop
vertex 7.4974220E-04 2.5594580E-01 1.4917986E-01
vertex 6.9142841E-02 2.4451359E-01 1.6699192E-01
vertex 4.3961864E-02 2.4377067E-01 7.7932477E-02
endloop
endfacet
facet normal 1.3178573E-02 3.3426338E-01 -9.4238752E-01
outer loop
vertex 4.6938121E-02 1.8848008E-01 -4.7271956E-02
vertex 1.0751684E-01 2.2354887E-01 -3.3985961E-02
vertex 1.0427324E-01 1.2770310E-01 -6.8027668E-02
endloop
endfacet
facet normal -3.8892791E-01 -8.3642876E-01 3.8616326E-01
outer loop
vertex -3.3562720E-02 -9.1865562E-02 3.2750380E-01
vertex -9.0007640E-02 -6.2904820E-02 3.3338368E-01
vertex -6.6440083E-02 -1.0250994E-01 2.7133536E-01
endloop
endfacet
facet normal -3.5898402E-01 -2.6764807E-01 -8.9414483E-01
outer loop
vertex -1.3551909E-01 -1.5703179E-01 -1.5039717E-04
vertex -4.1725866E-02 -1.6584729E-01 -3.5168011E-02
vertex -2.3587601E-02 -2.1070097E-01 -2.9023979E-02
endloop
endfacet
facet normal -9.0819097E-01 1.3756196E-01 -3.9530474E-01
outer loop
vertex -2.1436906E-01 -1.4756817E-02 1.3749170E-01
vertex -1.4970201E-01 8.8229589E-02 2.4760902E-02
vertex -1.2460139E-01 1.3412836E-03 -6.3142620E-02
endloop
endfacet
facet normal -3.9625678E-02 -1.7823927E-01 -9.8318899E-01
outer loop
vertex 7.1143486E-02 -1.3289183E-01 -5.1049639E-02
vertex 1.6486283E-02 -1.0795648E-01 -5.3367231E-02
vertex 6.7465618E-02 -5.6943573E-02 -6.4669833E-02
endloop
endfacet
facet normal 7.5901675E-01 -2.9299039E-01 5.8142084E-01
outer loop
vertex 3.2700679E-01 1.6531171E-02 1.3015430E-01
vertex 2.7003297E-01 1.6562564E-02 2.0454668E-01
vertex 2.8693518E-01 -3.2906987E-02 1.5755290E-01
endloop
endfacet
facet normal 1.6344264E-01 9.8413384E-01 -6.9044657E-02
outer loop
vertex 7.4974220E-04 2.5594580E-01 1.4917986E-01
vertex 4.3961864E-02 2.4377067E-01 7.7932477E-02
vertex -1.6178122E-02 2.5255403E-01 6.0763273E-02
endloop
endfacet
facet normal -3.6056545E-01 -9.0317500E-01 2.3295382E-01
outer loop
vertex -1.3551909E-01 -1.5703179E-01 -1.5039717E-04
vertex -6.8565547E-02 -1.7570134E-01 3.1097276E-02
vertex -1.6866609E-01 -1.3365920E-01 3.9161578E-02
endloop
endfacet
facet normal -1.3528562E-01 -2.0929629E-01 -9.6844864E-01
outer loop
vertex -9.1377363E-02 -1.1470915E-01 -4.3241188E-02
vertex -8.8103317E-02 -5.5748265E-02 -5.6440882E-02
vertex -3.1054027E-02 -7.3984995E-02 -6.0469046E-02
endloop
endfacet
facet normal -1.3907215E-01 4.3871409E-01 8.8780004E-01
outer loop
vertex 7.1209505E-02 5.2385274E-02 3.5999882E-01
vertex 1.1119584E-02 1.2660548E-01 3.1390929E-01
vertex -4.0043268E-02 3.5716660E-02 3.5080823E-01
endloop
endfacet
facet normal -7.1470186E-02 2.2475778E-01 -9.7179008E-01
outer loop
vertex 1.0427324E-01 1.2770310E-01 -6.8027668E-02
vertex 2.2975044E-02 6.5304779E-02 -7.6480225E-02
vertex -2.1670453E-02 1.2631990E-01 -5.9085064E-02
endloop
endfacet
facet normal 4.1775945E-01 -1.6901199E-03 -9.0855610E-01
outer loop
vertex 2.5588390E-01 5.4620102E-02 -4.9290385E-02
vertex 3.0152494E-01 1.0264003E-01 -2.8393695E-02
vertex 3.1736141E-01 2.7317494E-02 -2.0971874E-02
endloop
endfacet
facet normal 3.5422406E-01 -3.4191048E-01 -8.7041515E-01
outer loop
vertex 2.4047609E-01 -1.3616306E-01 -2.8603723E-02
vertex 2.7266935E-01 -1.5480235E-01 -8.1805987E-03
vertex 2.2439063E-01 -2.0793658E-01 -6.9562760E-03
endloop
endfacet
facet normal 5.1429248E-01 -2.7368781E-01 8.1277192E-01
outer loop
vertex 1.8672156E-01 1.2609582E-02 2.9349047E-01
vertex 2.1776035E-01 5.5760935E-02 2.8838077E-01
vertex 1.6867808E-01 6.1844423E-02 3.2148677E-01
endloop
endfacet
facet normal -2.9190943E-01 5.8491355E-01 7.5674629E-01
outer loop
vertex -1.0149070E-01 7.1639717E-02 3.1295550E-01
vertex 1.1119584E-02 1.2660548E-01 3.1390929E-01
vertex -7.9824068E-02 1.6377686E-01 2.5009748E-01
endloop
endfacet
facet normal 7.9718697E-01 -4.4971511E-01 4.0280190E-01
outer loop
vertex 2.4439612E-01 -1.7147905E-01 8.9075737E-02
vertex 2.5188348E-01 -1.0082670E-01 1.5313850E-01
vertex 2.2273290E-01 -1.6271563E-01 1.4173357E-01
endloop
endfacet
facet normal 8.0417031E-01 -3.4268534E-01 4.8567152E-01
outer loop
vertex 2.9302275E-01 -1.0034841E-01 9.9887110E-02
vertex 3.2827029E-01 -4.1375112E-02 8.3135583E-02
vertex 2.8693518E-01 -3.2906987E-02 1.5755290E-01
endloop
endfacet
facet normal -9.1730791E-01 1.7989414E-02 -3.9777195E-01
outer loop
vertex -1.4140595E-01 -9.2283413E-02 -2.8623585E-02
vertex -1.9612540E-01 -1.0731082E-01 9.6886158E-02
vertex -1.2460139E-01 1.3412836E-03 -6.3142620E-02
endloop
endfacet
facet normal 5.1291859E-01 8.5801953E-01 2.6777200E-02
outer loop
vertex 2.2245567E-01 1.6168760E-01 1.8132870E-01
vertex 2.0203897E-01 1.7616872E-01 1.0839388E-01
vertex 1.3567378E-01 2.1449181E-01 1.5163894E-01
endloop
endfacet
facet normal 4.7968039E-01 -4.3643311E-01 7.6120484E-01
outer loop
vertex 8.2441218E-02 -1.0488715E-01 3.0601659E-01
vertex 1.6168223E-01 -6.3809916E-02 2.7963355E-01
vertex 1.2314319E-01 -3.7664339E-02 3.1890973E-01
endloop
endfacet
facet normal -5.6749415E-01 -7.4042082E-01 3.6017689E-01
outer loop
vertex -2.2799335E-01 -4.6944145E-02 1.9380417E-01
vertex -1.9938530E-01 -7.0849776E-02 1.8973583E-01
vertex -1.9715779E-01 -4.2066447E-02 2.5241581E-01
endloop
endfacet
facet normal 2.8885365E-01 -3.3839822E-01 -8.9557248E-01
outer loop
vertex 1.7491165E-01 -2.4516039E-01 -3.0383868E-03
vertex 1.2370130E-01 -2.4542721E-01 -1.9454706E-02
vertex 1.2016111E-01 -2.0008150E-01 -3.7730731E-02
endloop
endfacet
facet normal -3.5799977E-01 -9.0741986E-01 2.2005779E-01
outer loop
vertex 1.2647371E-02 -1.5926443E-01 1.6596819E-01
vertex -6.6440083E-02 -1.0250994E-01 2.7133536E-01
vertex -1.3895345E-01 -9.1113597E-02 2.0036082E-01
endloop
endfacet
facet normal -3.4955433E-01 -8.8900673E-01 2.9576841E-01
outer loop
vertex -6.8565547E-02 -1.7570134E-01 3.1097276E-02
vertex -6.1637539E-02 -1.5227605E-01 1.0969577E-01
vertex -1.6866609E-01 -1.3365920E-01 3.9161578E-02
endloop
endfacet
facet normal 1.4657219E-01 9.8919141E-01 4.1246894E-03
outer loop
vertex -7.1328856E-02 2.6086169E-01 2.8201303E-02
vertex -1.6178122E-02 2.5255403E-01 6.0763273E-02
vertex 5.4495148E-03 2.4962141E-01 -4.4741468E-03
endloop
endfacet
facet normal 7.1480907E-02 3.3168343E-01 -9.4067883E-01
outer loop
vertex 1.0751684E-01 2.2354887E-01 -3.3985961E-02
vertex 1.8121365E-01 1.8589951E-01 -4.1661009E-02
vertex 1.0427324E-01 1.2770310E-01 -6.8027668E-02
endloop
endfacet
facet normal 2.7507965E-02 -1.7502430E-01 -9.8417974E-01
outer loop
vertex 6.5098256E-02 -2.3785447E-01 -3.2552287E-02
vertex 7.1143486E-02 -1.3289183E-01 -5.1049639E-02
vertex 1.2016111E-01 -2.0008150E-01 -3.7730731E-02
endloop
endfacet
facet normal 7.8772955E-02 9.9647903E-01 -2.8711747E-02
outer loop
vertex -4.7035795E-02 2.6060942E-01 1.7993341E-01
vertex 4.9248688E-02 2.5415981E-01 2.2025530E-01
vertex 7.4974220E-04 2.5594580E-01 1.4917986E-01
endloop
endfacet
facet normal -9.0615296E-01 1.2758860E-01 -4.0324685E-01
outer loop
vertex -2.1436906E-01 -1.4756817E-02 1.3749170E-01
vertex -2.0271708E-01 9.4554856E-02 1.4589462E-01
vertex -1.4970201E-01 8.8229589E-02 2.4760902E-02
endloop
endfacet
facet normal 1.7456858E-01 2.0548972E-01 -9.6296400E-01
outer loop
vertex 1.0427324E-01 1.2770310E-01 -6.8027668E-02
vertex 1.8121365E-01 1.8589951E-01 -4.1661009E-02
vertex 1.7133963E-01 9.7324871E-02 -6.2352199E-02
endloop
endfacet
facet normal 6.2998825E-01 7.7629656E-01 -2.1874584E-02
outer loop
vertex 3.1314060E-01 9.8990656E-02 7.3585704E-02
vertex 2.5579718E-01 1.4334407E-01 -3.8685887E-03
vertex 2.3237211E-01 1.6379726E-01 4.7342263E-02
endloop
endfacet
facet normal 5.2528894E-01 8.4737098E-01 -7.7679254E-02
outer loop
vertex 1.8121365E-01 1.8589951E-01 -4.1661009E-02
vertex 1.7925180E-01 1.9087297E-01 -6.7414995E-04
vertex 2.5871122E-01 1.3800643E-01 -4.0046532E-02
endloop
endfacet
facet normal -4.7731400E-01 7.2694397E-01 4.9368390E-01
outer loop
vertex -1.1284097E-01 2.1221974E-01 1.8756349E-01
vertex -4.7035795E-02 2.6060942E-01 1.7993341E-01
vertex -1.1533596E-01 2.6017943E-01 1.1453114E-01
endloop
endfacet
facet normal 5.5000520E-01 8.2972914E-01 9.5099166E-02
outer loop
vertex 2.2245567E-01 1.6168760E-01 1.8132870E-01
vertex 2.3532221E-01 1.4381289E-01 2.6286986E-01
vertex 2.9395103E-01 1.1180954E-01 2.0301612E-01
endloop
endfacet
facet normal -1.7706057E-01 -9.5438188E-01 2.4042633E-01
outer loop
vertex 6.5098256E-02 -2.3785447E-01 -3.2552287E-02
vertex 1.2370130E-01 -2.4542721E-01 -1.9454706E-02
vertex 1.0661045E-01 -2.3321860E-01 1.6421400E-02
endloop
endfacet
facet normal -3.3508369E-01 -8.7211245E-01 3.5656515E-01
outer loop
vertex 3.3476956E-02 -1.2785138E-01 3.0325094E-01
vertex -6.6440083E-02 -1.0250994E-01 2.7133536E-01
vertex 1.9723117E-02 -1.5471193E-01 2.2462825E-01
endloop
endfacet
facet normal 6.3556093E-01 -5.8641773E-01 5.0217170E-01
outer loop
vertex 2.2273290E-01 -1.6271563E-01 1.4173357E-01
vertex 1.8374543E-01 -1.7414610E-01 1.7772900E-01
vertex 1.7740025E-01 -2.3188840E-01 1.1833027E-01
endloop
endfacet
facet normal 1.5608738E-01 -1.5447454E-01 -9.7558928E-01
outer loop
vertex 2.4047609E-01 -1.3616306E-01 -2.8603723E-02
vertex 1.8401721E-01 -1.6322130E-01 -3.3352349E-02
vertex 2.1274140E-01 -6.6681460E-02 -4.4042774E-02
endloop
endfacet
facet normal 7.2362357E-01 -3.5967013E-01 5.8907253E-01
outer loop
vertex 1.8032843E-01 -1.1546144E-01 2.3046242E-01
vertex 2.2431917E-01 -9.7931661E-02 1.8712683E-01
vertex 2.0853233E-01 -4.2358775E-02 2.4045072E-01
endloop
endfacet
facet normal -3.5143301E-01 -1.8590350E-01 -9.1756999E-01
outer loop
vertex -9.1377363E-02 -1.1470915E-01 -4.3241188E-02
vertex -1.4140595E-01 -9.2283413E-02 -2.8623585E-02
vertex -8.8103317E-02 -5.5748265E-02 -5.6440882E-02
endloop
endfacet
facet normal 3.4720179E-01 9.3764085E-01 1.6748952E-02
outer loop
vertex 1.0751684E-01 2.2354887E-01 -3.3985961E-02
vertex 5.2661307E-02 2.4291217E-01 1.9158803E-02
vertex 1.2659015E-01 2.1570715E-01 9.6246228E-03
endloop
endfacet
facet normal -1.1323986E-01 5.1704681E-01 -8.4843343E-01
outer loop
vertex 4.6938121E-02 1.8848008E-01 -4.7271956E-02
vertex 5.4495148E-03 2.4962141E-01 -4.4741468E-03
vertex 1.0751684E-01 2.2354887E-01 -3.3985961E-02
endloop
endfacet
facet normal 1.2908809E-02 2.2609375E-01 -9.7402006E-01
outer loop
vertex 1.7133963E-01 9.7324871E-02 -6.2352199E-02
vertex 1.8121365E-01 1.8589951E-01 -4.1661009E-02
vertex 2.1913593E-01 1.0854044E-01 -5.9115343E-02
endloop
endfacet
facet normal 9.1721523E-01 -3.8688076E-01 9.5076196E-02
outer loop
vertex 3.4624687E-01 -1.7949717E-02 5.0344234E-03
vertex 3.2827029E-01 -4.1375112E-02 8.3135583E-02
vertex 3.2012454E-01 -8.1952497E-02 -3.3971728E-03
endloop
endfacet
facet normal 5.4391915E-01 8.3352506E-01 9.6891612E-02
outer loop
vertex 2.2245567E-01 1.6168760E-01 1.8132870E-01
vertex 1.4364240E-01 2.0889142E-01 2.1768348E-01
vertex 2.3532221E-01 1.4381289E-01 2.6286986E-01
endloop
endfacet
facet normal 1.2961428E-01 -1.0097559E-01 -9.8640966E-01
outer loop
vertex 1.2346987E-01 -1.3794222E-01 -4.3656956E-02
vertex 1.2016111E-01 -2.0008150E-01 -3.7730731E-02
vertex 7.1143486E-02 -1.3289183E-01 -5.1049639E-02
endloop
endfacet
facet normal 6.7397410E-01 -3.5413557E-01 6.4834177E-01
outer loop
vertex 2.2431917E-01 -9.7931661E-02 1.8712683E-01
vertex 2.8693518E-01 -3.2906987E-02 1.5755290E-01
vertex 2.3652330E-01 -1.6194642E-02 2.1908639E-01
endloop
endfacet
facet normal -3.4758285E-01 -4.6593544E-01 -8.1368941E-01
outer loop
vertex -1.3551909E-01 -1.5703179E-01 -1.5039717E-04
vertex -9.1377363E-02 -1.1470915E-01 -4.3241188E-02
vertex -4.1725866E-02 -1.6584729E-01 -3.5168011E-02
endloop
endfacet
facet normal 6.3953042E-01 -5.0408071E-01 5.8043396E-01
outer loop
vertex 1.3653350E-01 -1.9787407E-01 2.0914111E-01
vertex 1.6064331E-01 -2.1726505E-01 1.6573638E-01
vertex 1.8374543E-01 -1.7414610E-01 1.7772900E-01
endloop
endfacet
facet normal 4.6477520E-01 8.8530213E-01 -1.4970259E-02
outer loop
vertex 1.6540554E-01 1.9934957E-01 7.0730902E-02
vertex 2.3237211E-01 1.6379726E-01 4.7342263E-02
vertex 1.7925180E-01 1.9087297E-01 -6.7414995E-04
endloop
endfacet
facet normal 7.6147920E-01 6.3948071E-01 -1.0589551E-01
outer loop
vertex 3.5798261E-01 4.3684874E-02 6.2058084E-02
vertex 3.3892685E-01 5.5339623E-02 -4.5884973E-03
vertex 3.1314060E-01 9.8990656E-02 7.3585704E-02
endloop
endfacet
facet normal -9.5973492E-01 -6.9801770E-02 -2.7209681E-01
outer loop
vertex -1.9612540E-01 -1.0731082E-01 9.6886158E-02
vertex -2.2799335E-01 -4.6944145E-02 1.9380417E-01
vertex -2.1436906E-01 -1.4756817E-02 1.3749170E-01
endloop
endfacet
facet normal -1.5365872E-01 -1.9483311E-01 -9.6872550E-01
outer loop
vertex -2.3587601E-02 -2.1070097E-01 -2.9023979E-02
vertex -4.1725866E-02 -1.6584729E-01 -3.5168011E-02
vertex 3.3482544E-02 -1.9807313E-01 -4.0616166E-02
endloop
endfacet
facet normal -8.6057596E-02 -9.5496160E-01 2.8397608E-01
outer loop
vertex 1.7491165E-01 -2.4516039E-01 -3.0383868E-03
vertex 1.0661045E-01 -2.3321860E-01 1.6421400E-02
vertex 1.2370130E-01 -2.4542721E-01 -1.9454706E-02
endloop
endfacet
facet normal 2.2110733E-01 -5.7949547E-02 -9.7352624E-01
outer loop
vertex 1.9762613E-01 -1.4826727E-02 -5.8388043E-02
vertex 1.6857988E-01 1.8279018E-02 -6.6955663E-02
vertex 2.5588390E-01 5.4620102E-02 -4.9290385E-02
endloop
endfacet
facet normal -1.0489132E-01 -3.6154169E-01 9.2643696E-01
outer loop
vertex -5.1116338E-03 -6.0902718E-02 3.4280828E-01
vertex -5.0603740E-02 -1.1950649E-03 3.6095855E-01
vertex -3.3562720E-02 -9.1865562E-02 3.2750380E-01
endloop
endfacet
facet normal 6.5000403E-01 7.5848258E-01 -4.6894226E-02
outer loop
vertex 3.1314060E-01 9.8990656E-02 7.3585704E-02
vertex 3.0152494E-01 1.0264003E-01 -2.8393695E-02
vertex 2.5579718E-01 1.4334407E-01 -3.8685887E-03
endloop
endfacet
facet normal -9.1277909E-01 -7.2357495E-04 -4.0845302E-01
outer loop
vertex -1.9612540E-01 -1.0731082E-01 9.6886158E-02
vertex -2.1436906E-01 -1.4756817E-02 1.3749170E-01
vertex -1.2460139E-01 1.3412836E-03 -6.3142620E-02
endloop
endfacet
facet normal -2.7437100E-01 -8.9428455E-01 3.5351920E-01
outer loop
vertex 3.3476956E-02 -1.2785138E-01 3.0325094E-01
vertex 1.9723117E-02 -1.5471193E-01 2.2462825E-01
vertex 1.1434796E-01 -1.7542414E-01 2.4567294E-01
endloop
endfacet
facet normal 6.8725669E-01 -6.9889385E-01 1.9805457E-01
outer loop
vertex 2.6672539E-01 -1.6720213E-01 2.6684694E-02
vertex 2.4439612E-01 -1.7147905E-01 8.9075737E-02
vertex 1.8358062E-01 -2.4182399E-01 5.1874943E-02
endloop
endfacet
facet normal 9.1933262E-01 -2.0216614E-01 3.3757415E-01
outer loop
vertex 3.4634688E-01 7.0457928E-02 1.0978005E-01
vertex 3.2700679E-01 1.6531171E-02 1.3015430E-01
vertex 3.5798261E-01 4.3684874E-02 6.2058084E-02
endloop
endfacet
facet normal 5.4336034E-02 5.6162756E-02 -9.9694204E-01
outer loop
vertex 1.6857988E-01 1.8279018E-02 -6.6955663E-02
vertex 1.7133963E-01 9.7324871E-02 -6.2352199E-02
vertex 2.1913593E-01 1.0854044E-01 -5.9115343E-02
endloop
endfacet
facet normal 6.2657970E-01 1.6004667E-01 7.6274693E-01
outer loop
vertex 2.3532221E-01 1.4381289E-01 2.6286986E-01
vertex 1.9473265E-01 1.5905663E-01 2.9301471E-01
vertex 2.4424475E-01 8.9052022E-02 2.6703063E-01
endloop
endfacet
facet normal -3.5987297E-01 -9.1890711E-01 1.6155823E-01
outer loop
vertex 1.6064331E-01 -2.1726505E-01 1.6573638E-01
vertex 1.2647371E-02 -1.5926443E-01 1.6596819E-01
vertex 1.1034819E-01 -2.0924377E-01 9.9326640E-02
endloop
endfacet
facet normal 2.1280721E-01 3.1315082E-01 -9.2555374E-01
outer loop
vertex 1.8121365E-01 1.8589951E-01 -4.1661009E-02
vertex 2.5871122E-01 1.3800643E-01 -4.0046532E-02
vertex 2.1913593E-01 1.0854044E-01 -5.9115343E-02
endloop
endfacet
facet normal 6.5850329E-01 7.5249839E-01 -1.0930262E-02
outer loop
vertex 3.1314060E-01 9.8990656E-02 7.3585704E-02
vertex 3.2647362E-01 8.8525712E-02 1.5638204E-01
vertex 3.4634688E-01 7.0457928E-02 1.0978005E-01
endloop
endfacet
facet normal -1.2752609E-01 -2.9340172E-01 -9.4744521E-01
outer loop
vertex 3.3482544E-02 -1.9807313E-01 -4.0616166E-02
vertex 6.5098256E-02 -2.3785447E-01 -3.2552287E-02
vertex -2.3587601E-02 -2.1070097E-01 -2.9023979E-02
endloop
endfacet
facet normal 8.9041881E-02 -1.1963343E-01 -9.8881716E-01
outer loop
vertex 2.5159197E-02 -1.1986713E-02 -7.3918648E-02
vertex 1.0739718E-01 -1.1034574E-02 -6.6628404E-02
vertex 6.7465618E-02 -5.6943573E-02 -6.4669833E-02
endloop
endfacet
facet normal -3.2836923E-01 -9.0849465E-01 2.5847852E-01
outer loop
vertex -1.6866609E-01 -1.3365920E-01 3.9161578E-02
vertex -6.1637539E-02 -1.5227605E-01 1.0969577E-01
vertex -1.9612540E-01 -1.0731082E-01 9.6886158E-02
endloop
endfacet
facet normal -8.7013024E-01 9.5803507E-02 4.8342022E-01
outer loop
vertex -2.0725538E-01 1.3983053E-01 2.0066100E-01
vertex -2.2560877E-01 1.8778687E-02 1.9161578E-01
vertex -1.8458396E-01 1.0369010E-01 2.4863058E-01
endloop
endfacet
facet normal 1.3979563E-01 9.9017859E-01 1.8337392E-03
outer loop
vertex 5.4495148E-03 2.4962141E-01 -4.4741468E-03
vertex -1.6178122E-02 2.5255403E-01 6.0763273E-02
vertex 5.2661307E-02 2.4291217E-01 1.9158803E-02
endloop
endfacet
facet normal 5.2318472E-01 8.4816825E-01 -8.2996219E-02
outer loop
vertex 1.7925180E-01 1.9087297E-01 -6.7414995E-04
vertex 2.5579718E-01 1.4334407E-01 -3.8685887E-03
vertex 2.5871122E-01 1.3800643E-01 -4.0046532E-02
endloop
endfacet
facet normal -2.3802549E-01 -9.2710394E-01 2.8952068E-01
outer loop
vertex 6.5098256E-02 -2.3785447E-01 -3.2552287E-02
vertex 1.0661045E-01 -2.3321860E-01 1.6421400E-02
vertex 2.8721778E-02 -2.0862927E-01 3.1126307E-02
endloop
endfacet
facet normal -8.9911836E-01 1.8751423E-01 -3.9550549E-01
outer loop
vertex -1.3485292E-01 2.2430629E-01 2.8508125E-02
vertex -1.2519041E-01 1.6302624E-01 -2.2511696E-02
vertex -1.6204970E-01 1.9727767E-01 7.7521034E-02
endloop
endfacet
facet normal -3.5383517E-01 -8.4514046E-01 4.0067229E-01
outer loop
vertex -1.9715779E-01 -4.2066447E-02 2.5241581E-01
vertex -1.9938530E-01 -7.0849776E-02 1.8973583E-01
vertex -1.3895345E-01 -9.1113597E-02 2.0036082E-01
endloop
endfacet
facet normal 4.8478466E-02 -3.1716172E-02 -9.9832052E-01
outer loop
vertex 2.2975044E-02 6.5304779E-02 -7.6480225E-02
vertex 2.5159197E-02 -1.1986713E-02 -7.3918648E-02
vertex -5.1042613E-02 3.6165550E-02 -7.9148784E-02
endloop
endfacet
facet normal 4.9950427E-01 -8.5076384E-02 8.6212385E-01
outer loop
vertex 1.2996803E-01 3.4907468E-02 3.4125671E-01
vertex 1.6867808E-01 6.1844423E-02 3.2148677E-01
vertex 1.5245643E-01 1.0210966E-01 3.3485886E-01
endloop
endfacet
facet normal 6.9005895E-01 -3.5259369E-01 6.3205731E-01
outer loop
vertex 1.6168223E-01 -6.3809916E-02 2.7963355E-01
vertex 1.8032843E-01 -1.1546144E-01 2.3046242E-01
vertex 2.0853233E-01 -4.2358775E-02 2.4045072E-01
endloop
endfacet
facet normal 5.9739739E-01 3.8455971E-02 8.0102277E-01
outer loop
vertex 2.4424475E-01 8.9052022E-02 2.6703063E-01
vertex 1.5245643E-01 1.0210966E-01 3.3485886E-01
vertex 2.1776035E-01 5.5760935E-02 2.8838077E-01
endloop
endfacet
facet normal 5.6848860E-01 -2.3924808E-01 7.8713465E-01
outer loop
vertex 1.8672156E-01 1.2609582E-02 2.9349047E-01
vertex 1.6867808E-01 6.1844423E-02 3.2148677E-01
vertex 1.2996803E-01 3.4907468E-02 3.4125671E-01
endloop
endfacet
facet normal -9.4786161E-01 2.0257261E-01 -2.4601385E-01
outer loop
vertex -2.0725538E-01 1.3983053E-01 2.0066100E-01
vertex -1.9073310E-01 1.8501790E-01 1.7421085E-01
vertex -2.0271708E-01 9.4554856E-02 1.4589462E-01
endloop
endfacet
facet normal 6.8278331E-01 -4.3039876E-01 5.9039295E-01
outer loop
vertex 2.5188348E-01 -1.0082670E-01 1.5313850E-01
vertex 2.2431917E-01 -9.7931661E-02 1.8712683E-01
vertex 2.2273290E-01 -1.6271563E-01 1.4173357E-01
endloop
endfacet
facet normal 2.4478051E-01 -1.9158716E-01 -9.5046145E-01
outer loop
vertex 2.1274140E-01 -6.6681460E-02 -4.4042774E-02
vertex 1.9762613E-01 -1.4826727E-02 -5.8388043E-02
vertex 2.8120062E-01 -4.9330186E-02 -2.9909428E-02
endloop
endfacet
facet normal -7.9818424E-03 -2.0870082E-01 -9.7794694E-01
outer loop
vertex 2.5159197E-02 -1.1986713E-02 -7.3918648E-02
vertex 6.7465618E-02 -5.6943573E-02 -6.4669833E-02
vertex 1.6486283E-02 -1.0795648E-01 -5.3367231E-02
endloop
endfacet
facet normal -8.8562137E-01 4.7514986E-02 4.6197098E-01
outer loop
vertex -2.2560877E-01 1.8778687E-02 1.9161578E-01
vertex -2.2799335E-01 -4.6944145E-02 1.9380417E-01
vertex -1.9715779E-01 -4.2066447E-02 2.5241581E-01
endloop
endfacet
facet normal 1.8076296E-01 -3.9398339E-01 9.0116692E-01
outer loop
vertex 7.0125602E-02 -1.1120323E-02 3.4948111E-01
vertex -5.1116338E-03 -6.0902718E-02 3.4280828E-01
vertex 8.2441218E-02 -1.0488715E-01 3.0601659E-01
endloop
endfacet
facet normal -3.2768744E-01 -8.8887441E-01 3.2019275E-01
outer loop
vertex -6.1637539E-02 -1.5227605E-01 1.0969577E-01
vertex -1.3895345E-01 -9.1113597E-02 2.0036082E-01
vertex -1.9612540E-01 -1.0731082E-01 9.6886158E-02
endloop
endfacet
facet normal -4.9319467E-01 5.6667525E-01 6.6002893E-01
outer loop
vertex -1.8458396E-01 1.0369010E-01 2.4863058E-01
vertex -1.9073310E-01 1.8501790E-01 1.7421085E-01
vertex -2.0725538E-01 1.3983053E-01 2.0066100E-01
endloop
endfacet
facet normal -2.9841041E-02 9.9925202E-01 2.4593666E-02
outer loop
vertex -1.1533596E-01 2.6017943E-01 1.1453114E-01
vertex -4.7035795E-02 2.6060942E-01 1.7993341E-01
vertex -5.8184005E-02 2.6216778E-01 1.0308956E-01
endloop
endfacet
facet normal -3.3426445E-03 -2.0910725E-01 -9.7788703E-01
outer loop
vertex -3.1054027E-02 -7.3984995E-02 -6.0469046E-02
vertex 2.5159197E-02 -1.1986713E-02 -7.3918648E-02
vertex 1.6486283E-02 -1.0795648E-01 -5.3367231E-02
endloop
endfacet
facet normal 6.5869552E-01 -3.8757586E-01 6.4490700E-01
outer loop
vertex 2.8693518E-01 -3.2906987E-02 1.5755290E-01
vertex 2.7003297E-01 1.6562564E-02 2.0454668E-01
vertex 2.3652330E-01 -1.6194642E-02 2.1908639E-01
endloop
endfacet
facet normal 5.5979794E-01 -3.2187518E-01 7.6355922E-01
outer loop
vertex 1.6168223E-01 -6.3809916E-02 2.7963355E-01
vertex 1.8672156E-01 1.2609582E-02 2.9349047E-01
vertex 1.2314319E-01 -3.7664339E-02 3.1890973E-01
endloop
endfacet
facet normal -4.8239869E-01 -8.3914018E-01 2.5126770E-01
outer loop
vertex -1.9715779E-01 -4.2066447E-02 2.5241581E-01
vertex -1.3895345E-01 -9.1113597E-02 2.0036082E-01
vertex -1.4263940E-01 -6.1618134E-02 2.9178813E-01
endloop
endfacet
facet normal -3.3605325E-01 -8.6969686E-01 3.6151844E-01
outer loop
vertex 3.3476956E-02 -1.2785138E-01 3.0325094E-01
vertex -3.3562720E-02 -9.1865562E-02 3.2750380E-01
vertex -6.6440083E-02 -1.0250994E-01 2.7133536E-01
endloop
endfacet
facet normal 8.9017794E-02 -1.5384381E-01 -9.8407727E-01
outer loop
vertex 1.0963747E-01 4.6758384E-02 -7.5460702E-02
vertex 1.0739718E-01 -1.1034574E-02 -6.6628404E-02
vertex 2.5159197E-02 -1.1986713E-02 -7.3918648E-02
endloop
endfacet
facet normal 7.2654061E-02 -2.2231030E-01 -9.7226512E-01
outer loop
vertex 1.8401721E-01 -1.6322130E-01 -3.3352349E-02
vertex 1.2346987E-01 -1.3794222E-01 -4.3656956E-02
vertex 1.3330327E-01 -7.4108340E-02 -5.7517882E-02
endloop
endfacet
facet normal -9.5382708E-01 1.2274506E-01 -2.7413040E-01
outer loop
vertex -2.0271708E-01 9.4554856E-02 1.4589462E-01
vertex -2.1436906E-01 -1.4756817E-02 1.3749170E-01
vertex -2.2560877E-01 1.8778687E-02 1.9161578E-01
endloop
endfacet
facet normal -4.1697600E-01 -3.9738387E-01 -8.1744558E-01
outer loop
vertex -1.3551909E-01 -1.5703179E-01 -1.5039717E-04
vertex -1.4140595E-01 -9.2283413E-02 -2.8623585E-02
vertex -9.1377363E-02 -1.1470915E-01 -4.3241188E-02
endloop
endfacet
facet normal -2.8825787E-01 5.8977139E-01 7.5437194E-01
outer loop
vertex 1.9636089E-03 2.2178774E-01 2.3599672E-01
vertex -7.9824068E-02 1.6377686E-01 2.5009748E-01
vertex 1.1119584E-02 1.2660548E-01 3.1390929E-01
endloop
endfacet
facet normal 7.7170610E-01 -2.3489879E-01 5.9100950E-01
outer loop
vertex 2.1776035E-01 5.5760935E-02 2.8838077E-01
vertex 2.7003297E-01 1.6562564E-02 2.0454668E-01
vertex 2.4424475E-01 8.9052022E-02 2.6703063E-01
endloop
endfacet
facet normal -3.5076645E-01 5.6590098E-01 -7.4613595E-01
outer loop
vertex -1.3485292E-01 2.2430629E-01 2.8508125E-02
vertex -7.8538962E-02 2.0931388E-01 -9.3365358E-03
vertex -1.2519041E-01 1.6302624E-01 -2.2511696E-02
endloop
endfacet
facet normal 6.7483848E-01 -4.1299242E-01 6.1158013E-01
outer loop
vertex 2.3652330E-01 -1.6194642E-02 2.1908639E-01
vertex 2.1776035E-01 5.5760935E-02 2.8838077E-01
vertex 1.8672156E-01 1.2609582E-02 2.9349047E-01
endloop
endfacet
facet normal 7.3905402E-01 -3.6504641E-01 5.6616271E-01
outer loop
vertex 2.9784003E-01 5.6973241E-02 1.9430378E-01
vertex 2.7003297E-01 1.6562564E-02 2.0454668E-01
vertex 3.2700679E-01 1.6531171E-02 1.3015430E-01
endloop
endfacet
facet normal -3.3121854E-01 -9.3680465E-01 1.1265622E-01
outer loop
vertex 1.9723117E-02 -1.5471193E-01 2.2462825E-01
vertex 1.2647371E-02 -1.5926443E-01 1.6596819E-01
vertex 1.3653350E-01 -1.9787407E-01 2.0914111E-01
endloop
endfacet
facet normal 7.2370553E-01 -4.0958571E-01 5.5541861E-01
outer loop
vertex 2.9302275E-01 -1.0034841E-01 9.9887110E-02
vertex 2.8693518E-01 -3.2906987E-02 1.5755290E-01
vertex 2.5188348E-01 -1.0082670E-01 1.5313850E-01
endloop
endfacet
facet normal -2.7707776E-01 -8.8452196E-01 3.7529820E-01
outer loop
vertex 1.9723117E-02 -1.5471193E-01 2.2462825E-01
vertex 1.3653350E-01 -1.9787407E-01 2.0914111E-01
vertex 1.1434796E-01 -1.7542414E-01 2.4567294E-01
endloop
endfacet
facet normal 6.3591981E-01 7.6968789E-01 -5.6449518E-02
outer loop
vertex 2.7945608E-01 1.3104896E-01 1.3123429E-01
vertex 3.1314060E-01 9.8990656E-02 7.3585704E-02
vertex 2.3237211E-01 1.6379726E-01 4.7342263E-02
endloop
endfacet
facet normal 5.5476740E-02 5.6414413E-01 8.2381040E-01
outer loop
vertex 1.5245643E-01 1.0210966E-01 3.3485886E-01
vertex 1.9473265E-01 1.5905663E-01 2.9301471E-01
vertex 8.5432656E-02 1.1723461E-01 3.2901481E-01
endloop
endfacet
facet normal 4.5155066E-01 8.9147007E-01 -3.7190624E-02
outer loop
vertex 1.0751684E-01 2.2354887E-01 -3.3985961E-02
vertex 1.2659015E-01 2.1570715E-01 9.6246228E-03
vertex 1.8121365E-01 1.8589951E-01 -4.1661009E-02
endloop
endfacet
facet normal -8.7799937E-01 8.7960355E-02 4.7051045E-01
outer loop
vertex -1.8458396E-01 1.0369010E-01 2.4863058E-01
vertex -1.9715779E-01 -4.2066447E-02 2.5241581E-01
vertex -1.6414113E-01 3.1198973E-02 3.0033004E-01
endloop
endfacet
facet normal 7.4796587E-01 1.7060763E-01 6.4143592E-01
outer loop
vertex 2.3532221E-01 1.4381289E-01 2.6286986E-01
vertex 2.4424475E-01 8.9052022E-02 2.6703063E-01
vertex 2.9395103E-01 1.1180954E-01 2.0301612E-01
endloop
endfacet
facet normal -1.4854664E-01 -9.8538899E-01 8.3320364E-02
outer loop
vertex 1.8358062E-01 -2.4182399E-01 5.1874943E-02
vertex 1.0661045E-01 -2.3321860E-01 1.6421400E-02
vertex 1.7491165E-01 -2.4516039E-01 -3.0383868E-03
endloop
endfacet
facet normal -2.4063638E-01 -9.2946166E-01 2.7963388E-01
outer loop
vertex 2.8721778E-02 -2.0862927E-01 3.1126307E-02
vertex 1.0661045E-01 -2.3321860E-01 1.6421400E-02
vertex 1.1034819E-01 -2.0924377E-01 9.9326640E-02
endloop
endfacet
facet normal 1.2210556E-01 -1.4689744E-01 -9.8158616E-01
outer loop
vertex 1.9762613E-01 -1.4826727E-02 -5.8388043E-02
vertex 1.3330327E-01 -7.4108340E-02 -5.7517882E-02
vertex 1.6857988E-01 1.8279018E-02 -6.6955663E-02
endloop
endfacet
facet normal 6.1597213E-02 -1.7329319E-01 -9.8294216E-01
outer loop
vertex 1.3330327E-01 -7.4108340E-02 -5.7517882E-02
vertex 7.1143486E-02 -1.3289183E-01 -5.1049639E-02
vertex 6.7465618E-02 -5.6943573E-02 -6.4669833E-02
endloop
endfacet
facet normal 1.7759804E-02 4.2786378E-01 9.0366870E-01
outer loop
vertex 1.5245643E-01 1.0210966E-01 3.3485886E-01
vertex 8.5432656E-02 1.1723461E-01 3.2901481E-01
vertex 7.1209505E-02 5.2385274E-02 3.5999882E-01
endloop
endfacet
facet normal -2.9203029E-02 6.5963638E-01 7.5101739E-01
outer loop
vertex 1.2103173E-01 2.2053809E-01 2.5257730E-01
vertex 4.9248688E-02 2.5415981E-01 2.2025530E-01
vertex 8.2571581E-02 1.7899947E-01 2.8756616E-01
endloop
endfacet
facet normal 2.3035909E-01 -1.2255426E-01 -9.6535748E-01
outer loop
vertex 2.4047609E-01 -1.3616306E-01 -2.8603723E-02
vertex 2.1274140E-01 -6.6681460E-02 -4.4042774E-02
vertex 2.8120062E-01 -4.9330186E-02 -2.9909428E-02
endloop
endfacet
facet normal 1.5235667E-02 -8.4108375E-02 -9.9634010E-01
outer loop
vertex -5.1042613E-02 3.6165550E-02 -7.9148784E-02
vertex 2.5159197E-02 -1.1986713E-02 -7.3918648E-02
vertex -7.2386816E-02 -1.4825667E-02 -7.5170629E-02
endloop
endfacet
facet normal 7.4581510E-01 6.4186162E-01 -1.7825122E-01
outer loop
vertex 3.5798261E-01 4.3684874E-02 6.2058084E-02
vertex 3.1314060E-01 9.8990656E-02 7.3585704E-02
vertex 3.4634688E-01 7.0457928E-02 1.0978005E-01
endloop
endfacet
facet normal 4.2788589E-01 -2.2118714E-01 -8.7635040E-01
outer loop
vertex 3.2012454E-01 -8.1952497E-02 -3.3971728E-03
vertex 2.7266935E-01 -1.5480235E-01 -8.1805987E-03
vertex 2.4047609E-01 -1.3616306E-01 -2.8603723E-02
endloop
endfacet
facet normal 6.8949372E-02 6.0458487E-01 7.9355079E-01
outer loop
vertex 1.2103173E-01 2.2053809E-01 2.5257730E-01
vertex 8.2571581E-02 1.7899947E-01 2.8756616E-01
vertex 1.9473265E-01 1.5905663E-01 2.9301471E-01
endloop
endfacet
facet normal -4.6411449E-01 -8.7704593E-01 1.2404875E-01
outer loop
vertex 1.9723117E-02 -1.5471193E-01 2.2462825E-01
vertex -6.6440083E-02 -1.0250994E-01 2.7133536E-01
vertex 1.2647371E-02 -1.5926443E-01 1.6596819E-01
endloop
endfacet
facet normal 2.1167421E-01 -3.3716638E-02 -9.7675854E-01
outer loop
vertex 1.6857988E-01 1.8279018E-02 -6.6955663E-02
vertex 2.1913593E-01 1.0854044E-01 -5.9115343E-02
vertex 2.5588390E-01 5.4620102E-02 -4.9290385E-02
endloop
endfacet
facet normal -3.9517802E-01 6.8155003E-01 -6.1589277E-01
outer loop
vertex -1.3485292E-01 2.2430629E-01 2.8508125E-02
vertex -1.1097349E-01 2.6088765E-01 5.3667393E-02
vertex -7.1328856E-02 2.6086169E-01 2.8201303E-02
endloop
endfacet
facet normal 4.9586102E-01 8.6775601E-01 3.3485286E-02
outer loop
vertex 2.2245567E-01 1.6168760E-01 1.8132870E-01
vertex 2.7945608E-01 1.3104896E-01 1.3123429E-01
vertex 2.0203897E-01 1.7616872E-01 1.0839388E-01
endloop
endfacet
facet normal 9.1016644E-01 3.6469123E-01 -1.9646202E-01
outer loop
vertex 3.5524058E-01 2.2967467E-02 1.0897290E-02
vertex 3.3892685E-01 5.5339623E-02 -4.5884973E-03
vertex 3.5798261E-01 4.3684874E-02 6.2058084E-02
endloop
endfacet
facet normal 3.3213228E-01 9.2794195E-02 -9.3865728E-01
outer loop
vertex 2.5871122E-01 1.3800643E-01 -4.0046532E-02
vertex 3.0152494E-01 1.0264003E-01 -2.8393695E-02
vertex 2.5588390E-01 5.4620102E-02 -4.9290385E-02
endloop
endfacet
facet normal 4.1025171E-01 9.0747297E-01 -9.0478480E-02
outer loop
vertex 1.2659015E-01 2.1570715E-01 9.6246228E-03
vertex 1.7925180E-01 1.9087297E-01 -6.7414995E-04
vertex 1.8121365E-01 1.8589951E-01 -4.1661009E-02
endloop
endfacet
facet normal 1.4265102E-01 9.8975074E-01 6.6574472E-03
outer loop
vertex 5.2661307E-02 2.4291217E-01 1.9158803E-02
vertex -1.6178122E-02 2.5255403E-01 6.0763273E-02
vertex 4.3961864E-02 2.4377067E-01 7.7932477E-02
endloop
endfacet
facet normal -1.9207373E-01 4.0438780E-01 -8.9419132E-01
outer loop
vertex -1.0510635E-02 2.1176392E-01 -2.2841131E-02
vertex -2.1670453E-02 1.2631990E-01 -5.9085064E-02
vertex -7.8538962E-02 2.0931388E-01 -9.3365358E-03
endloop
endfacet
facet normal -1.7282677E-01 3.0682021E-01 9.3594468E-01
outer loop
vertex -5.0603740E-02 -1.1950649E-03 3.6095855E-01
vertex 9.5676519E-03 1.8262008E-02 3.6569110E-01
vertex -4.0043268E-02 3.5716660E-02 3.5080823E-01
endloop
endfacet
facet normal 3.9689544E-01 9.1521186E-01 -6.9722883E-02
outer loop
vertex 1.3567378E-01 2.1449181E-01 1.5163894E-01
vertex 1.0465219E-01 2.2260135E-01 8.1498675E-02
vertex 6.9142841E-02 2.4451359E-01 1.6699192E-01
endloop
endfacet
facet normal 5.1360834E-01 8.5755974E-01 2.8243199E-02
outer loop
vertex 2.0203897E-01 1.7616872E-01 1.0839388E-01
vertex 1.6540554E-01 1.9934957E-01 7.0730902E-02
vertex 1.3567378E-01 2.1449181E-01 1.5163894E-01
endloop
endfacet
facet normal -1.6552225E-01 6.1619896E-01 7.7000070E-01
outer loop
vertex 4.9248688E-02 2.5415981E-01 2.2025530E-01
vertex 1.9636089E-03 2.2178774E-01 2.3599672E-01
vertex 8.2571581E-02 1.7899947E-01 2.8756616E-01
endloop
endfacet
facet normal 6.7660266E-01 -4.3358573E-01 5.9515727E-01
outer loop
vertex 1.8374543E-01 -1.7414610E-01 1.7772900E-01
vertex 2.2273290E-01 -1.6271563E-01 1.4173357E-01
vertex 2.2431917E-01 -9.7931661E-02 1.8712683E-01
endloop
endfacet
facet normal 1.8269029E-01 -2.1231695E-01 -9.5997179E-01
outer loop
vertex 2.1274140E-01 -6.6681460E-02 -4.4042774E-02
vertex 1.3330327E-01 -7.4108340E-02 -5.7517882E-02
vertex 1.9762613E-01 -1.4826727E-02 -5.8388043E-02
endloop
endfacet
facet normal -8.7548427E-02 -3.5927126E-01 9.2911756E-01
outer loop
vertex -3.3562720E-02 -9.1865562E-02 3.2750380E-01
vertex -5.0603740E-02 -1.1950649E-03 3.6095855E-01
vertex -9.0007640E-02 -6.2904820E-02 3.3338368E-01
endloop
endfacet
facet normal 4.2286009E-01 -2.1157083E-01 -8.8115102E-01
outer loop
vertex 3.2012454E-01 -8.1952497E-02 -3.3971728E-03
vertex 2.4047609E-01 -1.3616306E-01 -2.8603723E-02
vertex 2.8120062E-01 -4.9330186E-02 -2.9909428E-02
endloop
endfacet
facet normal 9.4573718E-01 -2.9860875E-01 1.2811710E-01
outer loop
vertex 3.4624687E-01 -1.7949717E-02 5.0344234E-03
vertex 3.5798261E-01 4.3684874E-02 6.2058084E-02
vertex 3.2827029E-01 -4.1375112E-02 8.3135583E-02
endloop
endfacet
facet normal 4.6975296E-03 -3.2990612E-02 -9.9944460E-01
outer loop
vertex 1.0963747E-01 4.6758384E-02 -7.5460702E-02
vertex 2.5159197E-02 -1.1986713E-02 -7.3918648E-02
vertex 2.2975044E-02 6.5304779E-02 -7.6480225E-02
endloop
endfacet
facet normal -1.3424586E-01 2.5674087E-01 -9.5711136E-01
outer loop
vertex -2.1670453E-02 1.2631990E-01 -5.9085064E-02
vertex -5.1042613E-02 3.6165550E-02 -7.9148784E-02
vertex -1.1942863E-01 9.3870729E-02 -5.4077704E-02
endloop
endfacet
facet normal -8.9740318E-01 2.6948312E-01 -3.4935126E-01
outer loop
vertex -1.5194575E-01 2.4793959E-01 9.0645999E-02
vertex -1.3485292E-01 2.2430629E-01 2.8508125E-02
vertex -1.6204970E-01 1.9727767E-01 7.7521034E-02
endloop
endfacet
facet normal 3.0569252E-02 -1.7517981E-01 -9.8406178E-01
outer loop
vertex 3.3482544E-02 -1.9807313E-01 -4.0616166E-02
vertex 7.1143486E-02 -1.3289183E-01 -5.1049639E-02
vertex 6.5098256E-02 -2.3785447E-01 -3.2552287E-02
endloop
endfacet
facet normal 1.7966722E-01 -1.6092415E-01 -9.7047561E-01
outer loop
vertex 2.1274140E-01 -6.6681460E-02 -4.4042774E-02
vertex 1.8401721E-01 -1.6322130E-01 -3.3352349E-02
vertex 1.3330327E-01 -7.4108340E-02 -5.7517882E-02
endloop
endfacet
facet normal 8.8632113E-01 -1.5269823E-01 4.3717042E-01
outer loop
vertex 3.4634688E-01 7.0457928E-02 1.0978005E-01
vertex 3.2647362E-01 8.8525712E-02 1.5638204E-01
vertex 3.2700679E-01 1.6531171E-02 1.3015430E-01
endloop
endfacet
facet normal 2.3438580E-01 -3.2848915E-01 -9.1496342E-01
outer loop
vertex 2.4047609E-01 -1.3616306E-01 -2.8603723E-02
vertex 2.2439063E-01 -2.0793658E-01 -6.9562760E-03
vertex 1.8401721E-01 -1.6322130E-01 -3.3352349E-02
endloop
endfacet
facet normal -3.0112243E-01 -2.9881477E-01 -9.0555781E-01
outer loop
vertex -8.8103317E-02 -5.5748265E-02 -5.6440882E-02
vertex -1.2460139E-01 1.3412836E-03 -6.3142620E-02
vertex -7.2386816E-02 -1.4825667E-02 -7.5170629E-02
endloop
endfacet
facet normal 4.7933981E-01 -4.3517646E-01 7.6213837E-01
outer loop
vertex 1.6168223E-01 -6.3809916E-02 2.7963355E-01
vertex 8.2441218E-02 -1.0488715E-01 3.0601659E-01
vertex 1.1434796E-01 -1.7542414E-01 2.4567294E-01
endloop
endfacet
facet normal -3.5656181E-01 -9.1064692E-01 2.0877238E-01
outer loop
vertex 1.2647371E-02 -1.5926443E-01 1.6596819E-01
vertex 1.6064331E-01 -2.1726505E-01 1.6573638E-01
vertex 1.3653350E-01 -1.9787407E-01 2.0914111E-01
endloop
endfacet
facet normal -9.3634391E-01 2.5047705E-01 -2.4601090E-01
outer loop
vertex -1.5194575E-01 2.4793959E-01 9.0645999E-02
vertex -1.6204970E-01 1.9727767E-01 7.7521034E-02
vertex -1.9073310E-01 1.8501790E-01 1.7421085E-01
endloop
endfacet
facet normal 2.2419961E-01 -5.7297635E-01 7.8831005E-01
outer loop
vertex 3.3476956E-02 -1.2785138E-01 3.0325094E-01
vertex 1.1434796E-01 -1.7542414E-01 2.4567294E-01
vertex 8.2441218E-02 -1.0488715E-01 3.0601659E-01
endloop
endfacet
facet normal 6.9005543E-01 -3.4178251E-01 6.3797188E-01
outer loop
vertex 1.6168223E-01 -6.3809916E-02 2.7963355E-01
vertex 2.0853233E-01 -4.2358775E-02 2.4045072E-01
vertex 1.8672156E-01 1.2609582E-02 2.9349047E-01
endloop
endfacet
facet normal -1.7752241E-01 -3.5237560E-01 -9.1886747E-01
outer loop
vertex -8.8103317E-02 -5.5748265E-02 -5.6440882E-02
vertex -7.2386816E-02 -1.4825667E-02 -7.5170629E-02
vertex -3.1054027E-02 -7.3984995E-02 -6.0469046E-02
endloop
endfacet
facet normal -9.4778612E-03 9.9983072E-01 -1.5773909E-02
outer loop
vertex -1.1097349E-01 2.6088765E-01 5.3667393E-02
vertex -5.8184005E-02 2.6216778E-01 1.0308956E-01
vertex -7.1328856E-02 2.6086169E-01 2.8201303E-02
endloop
endfacet
facet normal -3.5181743E-01 -8.7543386E-01 3.3142120E-01
outer loop
vertex -1.9612540E-01 -1.0731082E-01 9.6886158E-02
vertex -1.3895345E-01 -9.1113597E-02 2.0036082E-01
vertex -1.9938530E-01 -7.0849776E-02 1.8973583E-01
endloop
endfacet
facet normal -9.3229133E-01 8.3018996E-02 -3.5205203E-01
outer loop
vertex -1.1942863E-01 9.3870729E-02 -5.4077704E-02
vertex -1.4970201E-01 8.8229589E-02 2.4760902E-02
vertex -1.2519041E-01 1.6302624E-01 -2.2511696E-02
endloop
endfacet
facet normal 4.2591554E-01 9.0475035E-01 -4.7724098E-03
outer loop
vertex 1.2103173E-01 2.2053809E-01 2.5257730E-01
vertex 6.9142841E-02 2.4451359E-01 1.6699192E-01
vertex 4.9248688E-02 2.5415981E-01 2.2025530E-01
endloop
endfacet
facet normal 3.0116674E-01 -1.0004028E-02 9.5351905E-01
outer loop
vertex 1.2996803E-01 3.4907468E-02 3.4125671E-01
vertex 1.5245643E-01 1.0210966E-01 3.3485886E-01
vertex 7.1209505E-02 5.2385274E-02 3.5999882E-01
endloop
endfacet
facet normal -2.4018475E-01 5.9316701E-01 -7.6841676E-01
outer loop
vertex -7.8538962E-02 2.0931388E-01 -9.3365358E-03
vertex -7.1328856E-02 2.6086169E-01 2.8201303E-02
vertex 5.4495148E-03 2.4962141E-01 -4.4741468E-03
endloop
endfacet
facet normal 5.2187747E-01 8.4718132E-01 -9.9637851E-02
outer loop
vertex 2.3237211E-01 1.6379726E-01 4.7342263E-02
vertex 2.5579718E-01 1.4334407E-01 -3.8685887E-03
vertex 1.7925180E-01 1.9087297E-01 -6.7414995E-04
endloop
endfacet
facet normal 7.3407710E-01 -6.6959929E-01 -1.1299378E-01
outer loop
vertex 2.7266935E-01 -1.5480235E-01 -8.1805987E-03
vertex 2.6672539E-01 -1.6720213E-01 2.6684694E-02
vertex 2.2439063E-01 -2.0793658E-01 -6.9562760E-03
endloop
endfacet
facet normal -3.5965803E-01 7.7426052E-01 5.2073681E-01
outer loop
vertex -1.1284097E-01 2.1221974E-01 1.8756349E-01
vertex -1.1533596E-01 2.6017943E-01 1.1453114E-01
vertex -1.9073310E-01 1.8501790E-01 1.7421085E-01
endloop
endfacet
facet normal 1.5929373E-01 -3.5832134E-01 -9.1990829E-01
outer loop
vertex 1.2016111E-01 -2.0008150E-01 -3.7730731E-02
vertex 1.2370130E-01 -2.4542721E-01 -1.9454706E-02
vertex 6.5098256E-02 -2.3785447E-01 -3.2552287E-02
endloop
endfacet
facet normal 1.2840174E-01 9.9121600E-02 -9.8675627E-01
outer loop
vertex 1.0427324E-01 1.2770310E-01 -6.8027668E-02
vertex 1.7133963E-01 9.7324871E-02 -6.2352199E-02
vertex 1.0963747E-01 4.6758384E-02 -7.5460702E-02
endloop
endfacet
facet normal 2.5574121E-01 -1.6220625E-01 9.5304012E-01
outer loop
vertex 7.0125602E-02 -1.1120323E-02 3.4948111E-01
vertex 1.2996803E-01 3.4907468E-02 3.4125671E-01
vertex 7.1209505E-02 5.2385274E-02 3.5999882E-01
endloop
endfacet
facet normal 6.7456061E-01 -7.3694003E-01 4.3443587E-02
outer loop
vertex 2.2439063E-01 -2.0793658E-01 -6.9562760E-03
vertex 2.6672539E-01 -1.6720213E-01 2.6684694E-02
vertex 1.8358062E-01 -2.4182399E-01 5.1874943E-02
endloop
endfacet
facet normal 1.2586828E-01 -1.0082386E-01 -9.8691016E-01
outer loop
vertex 1.2016111E-01 -2.0008150E-01 -3.7730731E-02
vertex 1.2346987E-01 -1.3794222E-01 -4.3656956E-02
vertex 1.8401721E-01 -1.6322130E-01 -3.3352349E-02
endloop
endfacet
facet normal -1.6924717E-01 -9.7692013E-01 1.3031708E-01
outer loop
vertex 1.8358062E-01 -2.4182399E-01 5.1874943E-02
vertex 1.7740025E-01 -2.3188840E-01 1.1833027E-01
vertex 1.0661045E-01 -2.3321860E-01 1.6421400E-02
endloop
endfacet
facet normal 7.9598641E-01 -3.9515208E-02 6.0402334E-01
outer loop
vertex 2.9395103E-01 1.1180954E-01 2.0301612E-01
vertex 2.4424475E-01 8.9052022E-02 2.6703063E-01
vertex 2.9784003E-01 5.6973241E-02 1.9430378E-01
endloop
endfacet
endsolid Created by stlwrite.m 08-Jan-2017 19:07:57
