solid IRB6650S_90-390_M2005_REV1_01-9
   facet normal -2.668584e-017 -1.000000e+000 1.508341e-017
      outer loop
         vertex 5.725896e+002 -1.225000e+002 1.946957e+003
         vertex 5.758312e+002 -1.225000e+002 1.870646e+003
         vertex 5.828647e+002 -1.225000e+002 1.866717e+003
      endloop
   endfacet
   facet normal -2.668584e-017 -1.000000e+000 1.508341e-017
      outer loop
         vertex 6.290288e+002 -1.225000e+002 1.870646e+003
         vertex 6.352971e+002 -1.225000e+002 1.875707e+003
         vertex 6.322704e+002 -1.225000e+002 1.946957e+003
      endloop
   endfacet
   facet normal -2.668584e-017 -1.000000e+000 1.508341e-017
      outer loop
         vertex 6.322704e+002 -1.225000e+002 1.946957e+003
         vertex 6.352971e+002 -1.225000e+002 1.875707e+003
         vertex 6.406199e+002 -1.225000e+002 1.881755e+003
      endloop
   endfacet
   facet normal -2.668584e-017 -1.000000e+000 1.508341e-017
      outer loop
         vertex 6.290288e+002 -1.225000e+002 1.870646e+003
         vertex 5.725896e+002 -1.225000e+002 1.946957e+003
         vertex 6.219953e+002 -1.225000e+002 1.866717e+003
      endloop
   endfacet
   facet normal -2.668584e-017 -1.000000e+000 1.508341e-017
      outer loop
         vertex 6.219953e+002 -1.225000e+002 1.866717e+003
         vertex 5.725896e+002 -1.225000e+002 1.946957e+003
         vertex 5.828647e+002 -1.225000e+002 1.866717e+003
      endloop
   endfacet
   facet normal -2.668584e-017 -1.000000e+000 1.508341e-017
      outer loop
         vertex 6.219953e+002 -1.225000e+002 1.866717e+003
         vertex 5.828647e+002 -1.225000e+002 1.866717e+003
         vertex 6.143989e+002 -1.225000e+002 1.864033e+003
      endloop
   endfacet
   facet normal -2.668584e-017 -1.000000e+000 1.508341e-017
      outer loop
         vertex 6.143989e+002 -1.225000e+002 1.864033e+003
         vertex 5.828647e+002 -1.225000e+002 1.866717e+003
         vertex 5.904610e+002 -1.225000e+002 1.864033e+003
      endloop
   endfacet
   facet normal -2.668584e-017 -1.000000e+000 1.508341e-017
      outer loop
         vertex 6.143989e+002 -1.225000e+002 1.864033e+003
         vertex 5.904610e+002 -1.225000e+002 1.864033e+003
         vertex 6.064583e+002 -1.225000e+002 1.862671e+003
      endloop
   endfacet
   facet normal -2.668584e-017 -1.000000e+000 1.508341e-017
      outer loop
         vertex 6.064583e+002 -1.225000e+002 1.862671e+003
         vertex 5.904610e+002 -1.225000e+002 1.864033e+003
         vertex 5.984017e+002 -1.225000e+002 1.862671e+003
      endloop
   endfacet
   facet normal -2.668584e-017 -1.000000e+000 1.508341e-017
      outer loop
         vertex 6.322704e+002 -1.225000e+002 1.946957e+003
         vertex 6.255955e+002 -1.225000e+002 1.951468e+003
         vertex 6.290288e+002 -1.225000e+002 1.870646e+003
      endloop
   endfacet
   facet normal -2.668584e-017 -1.000000e+000 1.508341e-017
      outer loop
         vertex 6.290288e+002 -1.225000e+002 1.870646e+003
         vertex 6.255955e+002 -1.225000e+002 1.951468e+003
         vertex 6.182542e+002 -1.225000e+002 1.954787e+003
      endloop
   endfacet
   facet normal -2.668584e-017 -1.000000e+000 1.508341e-017
      outer loop
         vertex 6.290288e+002 -1.225000e+002 1.870646e+003
         vertex 6.182542e+002 -1.225000e+002 1.954787e+003
         vertex 6.104575e+002 -1.225000e+002 1.956817e+003
      endloop
   endfacet
   facet normal -2.668584e-017 -1.000000e+000 1.508341e-017
      outer loop
         vertex 5.583553e+002 -1.225000e+002 1.927711e+003
         vertex 5.559961e+002 -1.225000e+002 1.920007e+003
         vertex 5.619824e+002 -1.225000e+002 1.934905e+003
      endloop
   endfacet
   facet normal -2.668584e-017 -1.000000e+000 1.508341e-017
      outer loop
         vertex 5.619824e+002 -1.225000e+002 1.934905e+003
         vertex 5.559961e+002 -1.225000e+002 1.920007e+003
         vertex 5.758312e+002 -1.225000e+002 1.870646e+003
      endloop
   endfacet
   facet normal -2.668584e-017 -1.000000e+000 1.508341e-017
      outer loop
         vertex 5.619824e+002 -1.225000e+002 1.934905e+003
         vertex 5.758312e+002 -1.225000e+002 1.870646e+003
         vertex 5.667731e+002 -1.225000e+002 1.941382e+003
      endloop
   endfacet
   facet normal -2.668584e-017 -1.000000e+000 1.508341e-017
      outer loop
         vertex 5.667731e+002 -1.225000e+002 1.941382e+003
         vertex 5.758312e+002 -1.225000e+002 1.870646e+003
         vertex 5.725896e+002 -1.225000e+002 1.946957e+003
      endloop
   endfacet
   facet normal -2.668584e-017 -1.000000e+000 1.508341e-017
      outer loop
         vertex 5.559961e+002 -1.225000e+002 1.920007e+003
         vertex 5.549728e+002 -1.225000e+002 1.912016e+003
         vertex 5.553147e+002 -1.225000e+002 1.903967e+003
      endloop
   endfacet
   facet normal -2.668584e-017 -1.000000e+000 1.508341e-017
      outer loop
         vertex 6.498872e+002 -1.225000e+002 1.912016e+003
         vertex 6.488638e+002 -1.225000e+002 1.920007e+003
         vertex 6.495452e+002 -1.225000e+002 1.903967e+003
      endloop
   endfacet
   facet normal -2.668584e-017 -1.000000e+000 1.508341e-017
      outer loop
         vertex 6.495452e+002 -1.225000e+002 1.903967e+003
         vertex 6.488638e+002 -1.225000e+002 1.920007e+003
         vertex 6.406199e+002 -1.225000e+002 1.881755e+003
      endloop
   endfacet
   facet normal -2.668584e-017 -1.000000e+000 1.508341e-017
      outer loop
         vertex 6.495452e+002 -1.225000e+002 1.903967e+003
         vertex 6.406199e+002 -1.225000e+002 1.881755e+003
         vertex 6.478479e+002 -1.225000e+002 1.896091e+003
      endloop
   endfacet
   facet normal -2.668584e-017 -1.000000e+000 1.508341e-017
      outer loop
         vertex 6.478479e+002 -1.225000e+002 1.896091e+003
         vertex 6.406199e+002 -1.225000e+002 1.881755e+003
         vertex 6.448440e+002 -1.225000e+002 1.888615e+003
      endloop
   endfacet
   facet normal -2.668584e-017 -1.000000e+000 1.508341e-017
      outer loop
         vertex 6.380869e+002 -1.225000e+002 1.941382e+003
         vertex 6.322704e+002 -1.225000e+002 1.946957e+003
         vertex 6.428776e+002 -1.225000e+002 1.934905e+003
      endloop
   endfacet
   facet normal -2.668584e-017 -1.000000e+000 1.508341e-017
      outer loop
         vertex 6.428776e+002 -1.225000e+002 1.934905e+003
         vertex 6.322704e+002 -1.225000e+002 1.946957e+003
         vertex 6.406199e+002 -1.225000e+002 1.881755e+003
      endloop
   endfacet
   facet normal -2.668584e-017 -1.000000e+000 1.508341e-017
      outer loop
         vertex 6.428776e+002 -1.225000e+002 1.934905e+003
         vertex 6.406199e+002 -1.225000e+002 1.881755e+003
         vertex 6.465047e+002 -1.225000e+002 1.927711e+003
      endloop
   endfacet
   facet normal -2.668584e-017 -1.000000e+000 1.508341e-017
      outer loop
         vertex 6.465047e+002 -1.225000e+002 1.927711e+003
         vertex 6.406199e+002 -1.225000e+002 1.881755e+003
         vertex 6.488638e+002 -1.225000e+002 1.920007e+003
      endloop
   endfacet
   facet normal -2.668584e-017 -1.000000e+000 1.508341e-017
      outer loop
         vertex 5.792645e+002 -1.225000e+002 1.951468e+003
         vertex 5.725896e+002 -1.225000e+002 1.946957e+003
         vertex 5.866058e+002 -1.225000e+002 1.954787e+003
      endloop
   endfacet
   facet normal -2.668584e-017 -1.000000e+000 1.508341e-017
      outer loop
         vertex 5.866058e+002 -1.225000e+002 1.954787e+003
         vertex 5.725896e+002 -1.225000e+002 1.946957e+003
         vertex 6.290288e+002 -1.225000e+002 1.870646e+003
      endloop
   endfacet
   facet normal -2.668584e-017 -1.000000e+000 1.508341e-017
      outer loop
         vertex 5.866058e+002 -1.225000e+002 1.954787e+003
         vertex 6.290288e+002 -1.225000e+002 1.870646e+003
         vertex 5.944024e+002 -1.225000e+002 1.956817e+003
      endloop
   endfacet
   facet normal -2.668584e-017 -1.000000e+000 1.508341e-017
      outer loop
         vertex 5.944024e+002 -1.225000e+002 1.956817e+003
         vertex 6.290288e+002 -1.225000e+002 1.870646e+003
         vertex 6.104575e+002 -1.225000e+002 1.956817e+003
      endloop
   endfacet
   facet normal -2.668584e-017 -1.000000e+000 1.508341e-017
      outer loop
         vertex 5.944024e+002 -1.225000e+002 1.956817e+003
         vertex 6.104575e+002 -1.225000e+002 1.956817e+003
         vertex 6.024300e+002 -1.225000e+002 1.957500e+003
      endloop
   endfacet
   facet normal -2.668584e-017 -1.000000e+000 1.508341e-017
      outer loop
         vertex 5.695629e+002 -1.225000e+002 1.875707e+003
         vertex 5.758312e+002 -1.225000e+002 1.870646e+003
         vertex 5.642402e+002 -1.225000e+002 1.881755e+003
      endloop
   endfacet
   facet normal -2.668584e-017 -1.000000e+000 1.508341e-017
      outer loop
         vertex 5.642402e+002 -1.225000e+002 1.881755e+003
         vertex 5.758312e+002 -1.225000e+002 1.870646e+003
         vertex 5.559961e+002 -1.225000e+002 1.920007e+003
      endloop
   endfacet
   facet normal -2.668584e-017 -1.000000e+000 1.508341e-017
      outer loop
         vertex 5.642402e+002 -1.225000e+002 1.881755e+003
         vertex 5.559961e+002 -1.225000e+002 1.920007e+003
         vertex 5.600161e+002 -1.225000e+002 1.888615e+003
      endloop
   endfacet
   facet normal -2.668584e-017 -1.000000e+000 1.508341e-017
      outer loop
         vertex 5.600161e+002 -1.225000e+002 1.888615e+003
         vertex 5.559961e+002 -1.225000e+002 1.920007e+003
         vertex 5.553147e+002 -1.225000e+002 1.903967e+003
      endloop
   endfacet
   facet normal -2.668584e-017 -1.000000e+000 1.508341e-017
      outer loop
         vertex 5.600161e+002 -1.225000e+002 1.888615e+003
         vertex 5.553147e+002 -1.225000e+002 1.903967e+003
         vertex 5.570121e+002 -1.225000e+002 1.896091e+003
      endloop
   endfacet
   facet normal 5.651454e-002 0.000000e+000 9.984018e-001
      outer loop
         vertex 6.104575e+002 -1.225000e+002 1.956817e+003
         vertex 6.024300e+002 -1.075000e+002 1.957500e+003
         vertex 6.024300e+002 -1.225000e+002 1.957500e+003
      endloop
   endfacet
   facet normal -5.651454e-002 0.000000e+000 9.984018e-001
      outer loop
         vertex 6.024300e+002 -1.225000e+002 1.957500e+003
         vertex 6.024300e+002 -1.075000e+002 1.957500e+003
         vertex 5.944024e+002 -1.075000e+002 1.956817e+003
      endloop
   endfacet
   facet normal -1.130291e-001 0.000000e+000 9.935917e-001
      outer loop
         vertex 6.024300e+002 -1.225000e+002 1.957500e+003
         vertex 5.944024e+002 -1.075000e+002 1.956817e+003
         vertex 5.944024e+002 -1.225000e+002 1.956817e+003
      endloop
   endfacet
   facet normal -2.244323e-001 0.000000e+000 9.744897e-001
      outer loop
         vertex 5.944024e+002 -1.225000e+002 1.956817e+003
         vertex 5.944024e+002 -1.075000e+002 1.956817e+003
         vertex 5.866058e+002 -1.075000e+002 1.954787e+003
      endloop
   endfacet
   facet normal -2.793211e-001 0.000000e+000 9.601977e-001
      outer loop
         vertex 5.944024e+002 -1.225000e+002 1.956817e+003
         vertex 5.866058e+002 -1.075000e+002 1.954787e+003
         vertex 5.866058e+002 -1.225000e+002 1.954787e+003
      endloop
   endfacet
   facet normal -3.858936e-001 0.000000e+000 9.225433e-001
      outer loop
         vertex 5.866058e+002 -1.225000e+002 1.954787e+003
         vertex 5.866058e+002 -1.075000e+002 1.954787e+003
         vertex 5.792645e+002 -1.075000e+002 1.951468e+003
      endloop
   endfacet
   facet normal -4.375775e-001 0.000000e+000 8.991807e-001
      outer loop
         vertex 5.866058e+002 -1.225000e+002 1.954787e+003
         vertex 5.792645e+002 -1.075000e+002 1.951468e+003
         vertex 5.792645e+002 -1.225000e+002 1.951468e+003
      endloop
   endfacet
   facet normal -5.362535e-001 0.000000e+000 8.440570e-001
      outer loop
         vertex 5.792645e+002 -1.225000e+002 1.951468e+003
         vertex 5.792645e+002 -1.075000e+002 1.951468e+003
         vertex 5.725896e+002 -1.075000e+002 1.946957e+003
      endloop
   endfacet
   facet normal -5.832456e-001 0.000000e+000 8.122959e-001
      outer loop
         vertex 5.792645e+002 -1.225000e+002 1.951468e+003
         vertex 5.725896e+002 -1.075000e+002 1.946957e+003
         vertex 5.725896e+002 -1.225000e+002 1.946957e+003
      endloop
   endfacet
   facet normal -6.711863e-001 0.000000e+000 7.412887e-001
      outer loop
         vertex 5.725896e+002 -1.225000e+002 1.946957e+003
         vertex 5.725896e+002 -1.075000e+002 1.946957e+003
         vertex 5.667731e+002 -1.075000e+002 1.941382e+003
      endloop
   endfacet
   facet normal -7.121348e-001 0.000000e+000 7.020428e-001
      outer loop
         vertex 5.725896e+002 -1.225000e+002 1.946957e+003
         vertex 5.667731e+002 -1.075000e+002 1.941382e+003
         vertex 5.667731e+002 -1.225000e+002 1.941382e+003
      endloop
   endfacet
   facet normal -7.868103e-001 0.000000e+000 6.171950e-001
      outer loop
         vertex 5.667731e+002 -1.225000e+002 1.941382e+003
         vertex 5.667731e+002 -1.075000e+002 1.941382e+003
         vertex 5.619824e+002 -1.075000e+002 1.934905e+003
      endloop
   endfacet
   facet normal -8.205372e-001 0.000000e+000 5.715931e-001
      outer loop
         vertex 5.667731e+002 -1.225000e+002 1.941382e+003
         vertex 5.619824e+002 -1.075000e+002 1.934905e+003
         vertex 5.619824e+002 -1.225000e+002 1.934905e+003
      endloop
   endfacet
   facet normal -8.797992e-001 0.000000e+000 4.753456e-001
      outer loop
         vertex 5.619824e+002 -1.225000e+002 1.934905e+003
         vertex 5.619824e+002 -1.075000e+002 1.934905e+003
         vertex 5.583553e+002 -1.075000e+002 1.927711e+003
      endloop
   endfacet
   facet normal -9.053342e-001 0.000000e+000 4.246998e-001
      outer loop
         vertex 5.619824e+002 -1.225000e+002 1.934905e+003
         vertex 5.583553e+002 -1.075000e+002 1.927711e+003
         vertex 5.583553e+002 -1.225000e+002 1.927711e+003
      endloop
   endfacet
   facet normal -9.474779e-001 0.000000e+000 3.198213e-001
      outer loop
         vertex 5.583553e+002 -1.225000e+002 1.927711e+003
         vertex 5.583553e+002 -1.075000e+002 1.927711e+003
         vertex 5.559961e+002 -1.075000e+002 1.920007e+003
      endloop
   endfacet
   facet normal -9.640865e-001 0.000000e+000 2.655886e-001
      outer loop
         vertex 5.583553e+002 -1.225000e+002 1.927711e+003
         vertex 5.559961e+002 -1.075000e+002 1.920007e+003
         vertex 5.559961e+002 -1.225000e+002 1.920007e+003
      endloop
   endfacet
   facet normal -9.878993e-001 0.000000e+000 1.550965e-001
      outer loop
         vertex 5.559961e+002 -1.225000e+002 1.920007e+003
         vertex 5.559961e+002 -1.075000e+002 1.920007e+003
         vertex 5.549728e+002 -1.075000e+002 1.912016e+003
      endloop
   endfacet
   facet normal -9.951037e-001 0.000000e+000 9.883700e-002
      outer loop
         vertex 5.559961e+002 -1.225000e+002 1.920007e+003
         vertex 5.549728e+002 -1.075000e+002 1.912016e+003
         vertex 5.549728e+002 -1.225000e+002 1.912016e+003
      endloop
   endfacet
   facet normal -9.999008e-001 0.000000e+000 -1.409025e-002
      outer loop
         vertex 5.549728e+002 -1.225000e+002 1.912016e+003
         vertex 5.549728e+002 -1.075000e+002 1.912016e+003
         vertex 5.553147e+002 -1.075000e+002 1.903967e+003
      endloop
   endfacet
   facet normal -9.974935e-001 0.000000e+000 -7.075802e-002
      outer loop
         vertex 5.549728e+002 -1.225000e+002 1.912016e+003
         vertex 5.553147e+002 -1.075000e+002 1.903967e+003
         vertex 5.553147e+002 -1.225000e+002 1.903967e+003
      endloop
   endfacet
   facet normal -9.831368e-001 0.000000e+000 -1.828716e-001
      outer loop
         vertex 5.553147e+002 -1.225000e+002 1.903967e+003
         vertex 5.553147e+002 -1.075000e+002 1.903967e+003
         vertex 5.570121e+002 -1.075000e+002 1.896091e+003
      endloop
   endfacet
   facet normal -9.711873e-001 0.000000e+000 -2.383174e-001
      outer loop
         vertex 5.553147e+002 -1.225000e+002 1.903967e+003
         vertex 5.570121e+002 -1.075000e+002 1.896091e+003
         vertex 5.570121e+002 -1.225000e+002 1.896091e+003
      endloop
   endfacet
   facet normal -9.380898e-001 0.000000e+000 -3.463921e-001
      outer loop
         vertex 5.570121e+002 -1.225000e+002 1.896091e+003
         vertex 5.570121e+002 -1.075000e+002 1.896091e+003
         vertex 5.600161e+002 -1.075000e+002 1.888615e+003
      endloop
   endfacet
   facet normal -9.169418e-001 0.000000e+000 -3.990209e-001
      outer loop
         vertex 5.570121e+002 -1.225000e+002 1.896091e+003
         vertex 5.600161e+002 -1.075000e+002 1.888615e+003
         vertex 5.600161e+002 -1.225000e+002 1.888615e+003
      endloop
   endfacet
   facet normal -8.660557e-001 0.000000e+000 -4.999475e-001
      outer loop
         vertex 5.600161e+002 -1.225000e+002 1.888615e+003
         vertex 5.600161e+002 -1.075000e+002 1.888615e+003
         vertex 5.642402e+002 -1.075000e+002 1.881755e+003
      endloop
   endfacet
   facet normal -8.363176e-001 0.000000e+000 -5.482453e-001
      outer loop
         vertex 5.600161e+002 -1.225000e+002 1.888615e+003
         vertex 5.642402e+002 -1.075000e+002 1.881755e+003
         vertex 5.642402e+002 -1.225000e+002 1.881755e+003
      endloop
   endfacet
   facet normal -7.691067e-001 0.000000e+000 -6.391203e-001
      outer loop
         vertex 5.642402e+002 -1.225000e+002 1.881755e+003
         vertex 5.642402e+002 -1.075000e+002 1.881755e+003
         vertex 5.695629e+002 -1.075000e+002 1.875707e+003
      endloop
   endfacet
   facet normal -7.316340e-001 0.000000e+000 -6.816976e-001
      outer loop
         vertex 5.642402e+002 -1.225000e+002 1.881755e+003
         vertex 5.695629e+002 -1.075000e+002 1.875707e+003
         vertex 5.695629e+002 -1.225000e+002 1.875707e+003
      endloop
   endfacet
   facet normal -6.500320e-001 0.000000e+000 -7.599068e-001
      outer loop
         vertex 5.695629e+002 -1.225000e+002 1.875707e+003
         vertex 5.695629e+002 -1.075000e+002 1.875707e+003
         vertex 5.758312e+002 -1.075000e+002 1.870646e+003
      endloop
   endfacet
   facet normal -6.059027e-001 0.000000e+000 -7.955388e-001
      outer loop
         vertex 5.695629e+002 -1.225000e+002 1.875707e+003
         vertex 5.758312e+002 -1.075000e+002 1.870646e+003
         vertex 5.758312e+002 -1.225000e+002 1.870646e+003
      endloop
   endfacet
   facet normal -5.122570e-001 0.000000e+000 -8.588322e-001
      outer loop
         vertex 5.758312e+002 -1.225000e+002 1.870646e+003
         vertex 5.758312e+002 -1.075000e+002 1.870646e+003
         vertex 5.828647e+002 -1.075000e+002 1.866717e+003
      endloop
   endfacet
   facet normal -4.627406e-001 0.000000e+000 -8.864937e-001
      outer loop
         vertex 5.758312e+002 -1.225000e+002 1.870646e+003
         vertex 5.828647e+002 -1.075000e+002 1.866717e+003
         vertex 5.828647e+002 -1.225000e+002 1.866717e+003
      endloop
   endfacet
   facet normal -3.597453e-001 0.000000e+000 -9.330505e-001
      outer loop
         vertex 5.828647e+002 -1.225000e+002 1.866717e+003
         vertex 5.828647e+002 -1.075000e+002 1.866717e+003
         vertex 5.904610e+002 -1.075000e+002 1.864033e+003
      endloop
   endfacet
   facet normal -3.062663e-001 0.000000e+000 -9.519458e-001
      outer loop
         vertex 5.828647e+002 -1.225000e+002 1.866717e+003
         vertex 5.904610e+002 -1.075000e+002 1.864033e+003
         vertex 5.904610e+002 -1.225000e+002 1.864033e+003
      endloop
   endfacet
   facet normal -1.968844e-001 0.000000e+000 -9.804267e-001
      outer loop
         vertex 5.904610e+002 -1.225000e+002 1.864033e+003
         vertex 5.904610e+002 -1.075000e+002 1.864033e+003
         vertex 5.984017e+002 -1.075000e+002 1.862671e+003
      endloop
   endfacet
   facet normal -1.409813e-001 0.000000e+000 -9.900123e-001
      outer loop
         vertex 5.904610e+002 -1.225000e+002 1.864033e+003
         vertex 5.984017e+002 -1.075000e+002 1.862671e+003
         vertex 5.984017e+002 -1.225000e+002 1.862671e+003
      endloop
   endfacet
   facet normal -2.835944e-002 0.000000e+000 -9.995978e-001
      outer loop
         vertex 5.984017e+002 -1.225000e+002 1.862671e+003
         vertex 5.984017e+002 -1.075000e+002 1.862671e+003
         vertex 6.064583e+002 -1.075000e+002 1.862671e+003
      endloop
   endfacet
   facet normal 2.835944e-002 0.000000e+000 -9.995978e-001
      outer loop
         vertex 5.984017e+002 -1.225000e+002 1.862671e+003
         vertex 6.064583e+002 -1.075000e+002 1.862671e+003
         vertex 6.064583e+002 -1.225000e+002 1.862671e+003
      endloop
   endfacet
   facet normal 1.409813e-001 0.000000e+000 -9.900123e-001
      outer loop
         vertex 6.064583e+002 -1.225000e+002 1.862671e+003
         vertex 6.064583e+002 -1.075000e+002 1.862671e+003
         vertex 6.143989e+002 -1.075000e+002 1.864033e+003
      endloop
   endfacet
   facet normal 1.968844e-001 0.000000e+000 -9.804267e-001
      outer loop
         vertex 6.064583e+002 -1.225000e+002 1.862671e+003
         vertex 6.143989e+002 -1.075000e+002 1.864033e+003
         vertex 6.143989e+002 -1.225000e+002 1.864033e+003
      endloop
   endfacet
   facet normal 3.062663e-001 0.000000e+000 -9.519458e-001
      outer loop
         vertex 6.143989e+002 -1.225000e+002 1.864033e+003
         vertex 6.143989e+002 -1.075000e+002 1.864033e+003
         vertex 6.219953e+002 -1.075000e+002 1.866717e+003
      endloop
   endfacet
   facet normal 3.597453e-001 0.000000e+000 -9.330505e-001
      outer loop
         vertex 6.143989e+002 -1.225000e+002 1.864033e+003
         vertex 6.219953e+002 -1.075000e+002 1.866717e+003
         vertex 6.219953e+002 -1.225000e+002 1.866717e+003
      endloop
   endfacet
   facet normal 4.627406e-001 0.000000e+000 -8.864937e-001
      outer loop
         vertex 6.219953e+002 -1.225000e+002 1.866717e+003
         vertex 6.219953e+002 -1.075000e+002 1.866717e+003
         vertex 6.290288e+002 -1.075000e+002 1.870646e+003
      endloop
   endfacet
   facet normal 5.122570e-001 0.000000e+000 -8.588322e-001
      outer loop
         vertex 6.219953e+002 -1.225000e+002 1.866717e+003
         vertex 6.290288e+002 -1.075000e+002 1.870646e+003
         vertex 6.290288e+002 -1.225000e+002 1.870646e+003
      endloop
   endfacet
   facet normal 6.059027e-001 0.000000e+000 -7.955388e-001
      outer loop
         vertex 6.290288e+002 -1.225000e+002 1.870646e+003
         vertex 6.290288e+002 -1.075000e+002 1.870646e+003
         vertex 6.352971e+002 -1.075000e+002 1.875707e+003
      endloop
   endfacet
   facet normal 6.500320e-001 0.000000e+000 -7.599068e-001
      outer loop
         vertex 6.290288e+002 -1.225000e+002 1.870646e+003
         vertex 6.352971e+002 -1.075000e+002 1.875707e+003
         vertex 6.352971e+002 -1.225000e+002 1.875707e+003
      endloop
   endfacet
   facet normal 7.316340e-001 0.000000e+000 -6.816976e-001
      outer loop
         vertex 6.352971e+002 -1.225000e+002 1.875707e+003
         vertex 6.352971e+002 -1.075000e+002 1.875707e+003
         vertex 6.406199e+002 -1.075000e+002 1.881755e+003
      endloop
   endfacet
   facet normal 7.691067e-001 0.000000e+000 -6.391203e-001
      outer loop
         vertex 6.352971e+002 -1.225000e+002 1.875707e+003
         vertex 6.406199e+002 -1.075000e+002 1.881755e+003
         vertex 6.406199e+002 -1.225000e+002 1.881755e+003
      endloop
   endfacet
   facet normal 8.363176e-001 0.000000e+000 -5.482453e-001
      outer loop
         vertex 6.406199e+002 -1.225000e+002 1.881755e+003
         vertex 6.406199e+002 -1.075000e+002 1.881755e+003
         vertex 6.448440e+002 -1.075000e+002 1.888615e+003
      endloop
   endfacet
   facet normal 8.660557e-001 0.000000e+000 -4.999475e-001
      outer loop
         vertex 6.406199e+002 -1.225000e+002 1.881755e+003
         vertex 6.448440e+002 -1.075000e+002 1.888615e+003
         vertex 6.448440e+002 -1.225000e+002 1.888615e+003
      endloop
   endfacet
   facet normal 9.169418e-001 0.000000e+000 -3.990209e-001
      outer loop
         vertex 6.448440e+002 -1.225000e+002 1.888615e+003
         vertex 6.448440e+002 -1.075000e+002 1.888615e+003
         vertex 6.478479e+002 -1.075000e+002 1.896091e+003
      endloop
   endfacet
   facet normal 9.380898e-001 0.000000e+000 -3.463921e-001
      outer loop
         vertex 6.448440e+002 -1.225000e+002 1.888615e+003
         vertex 6.478479e+002 -1.075000e+002 1.896091e+003
         vertex 6.478479e+002 -1.225000e+002 1.896091e+003
      endloop
   endfacet
   facet normal 9.711873e-001 0.000000e+000 -2.383174e-001
      outer loop
         vertex 6.478479e+002 -1.225000e+002 1.896091e+003
         vertex 6.478479e+002 -1.075000e+002 1.896091e+003
         vertex 6.495452e+002 -1.075000e+002 1.903967e+003
      endloop
   endfacet
   facet normal 9.831368e-001 0.000000e+000 -1.828716e-001
      outer loop
         vertex 6.478479e+002 -1.225000e+002 1.896091e+003
         vertex 6.495452e+002 -1.075000e+002 1.903967e+003
         vertex 6.495452e+002 -1.225000e+002 1.903967e+003
      endloop
   endfacet
   facet normal 9.974935e-001 0.000000e+000 -7.075802e-002
      outer loop
         vertex 6.495452e+002 -1.225000e+002 1.903967e+003
         vertex 6.495452e+002 -1.075000e+002 1.903967e+003
         vertex 6.498872e+002 -1.075000e+002 1.912016e+003
      endloop
   endfacet
   facet normal 9.999008e-001 0.000000e+000 -1.409025e-002
      outer loop
         vertex 6.495452e+002 -1.225000e+002 1.903967e+003
         vertex 6.498872e+002 -1.075000e+002 1.912016e+003
         vertex 6.498872e+002 -1.225000e+002 1.912016e+003
      endloop
   endfacet
   facet normal 9.951037e-001 0.000000e+000 9.883700e-002
      outer loop
         vertex 6.498872e+002 -1.225000e+002 1.912016e+003
         vertex 6.498872e+002 -1.075000e+002 1.912016e+003
         vertex 6.488638e+002 -1.075000e+002 1.920007e+003
      endloop
   endfacet
   facet normal 9.878993e-001 0.000000e+000 1.550965e-001
      outer loop
         vertex 6.498872e+002 -1.225000e+002 1.912016e+003
         vertex 6.488638e+002 -1.075000e+002 1.920007e+003
         vertex 6.488638e+002 -1.225000e+002 1.920007e+003
      endloop
   endfacet
   facet normal 9.640865e-001 0.000000e+000 2.655886e-001
      outer loop
         vertex 6.488638e+002 -1.225000e+002 1.920007e+003
         vertex 6.488638e+002 -1.075000e+002 1.920007e+003
         vertex 6.465047e+002 -1.075000e+002 1.927711e+003
      endloop
   endfacet
   facet normal 9.474779e-001 0.000000e+000 3.198213e-001
      outer loop
         vertex 6.488638e+002 -1.225000e+002 1.920007e+003
         vertex 6.465047e+002 -1.075000e+002 1.927711e+003
         vertex 6.465047e+002 -1.225000e+002 1.927711e+003
      endloop
   endfacet
   facet normal 9.053342e-001 0.000000e+000 4.246998e-001
      outer loop
         vertex 6.465047e+002 -1.225000e+002 1.927711e+003
         vertex 6.465047e+002 -1.075000e+002 1.927711e+003
         vertex 6.428776e+002 -1.075000e+002 1.934905e+003
      endloop
   endfacet
   facet normal 8.797992e-001 0.000000e+000 4.753456e-001
      outer loop
         vertex 6.465047e+002 -1.225000e+002 1.927711e+003
         vertex 6.428776e+002 -1.075000e+002 1.934905e+003
         vertex 6.428776e+002 -1.225000e+002 1.934905e+003
      endloop
   endfacet
   facet normal 8.205372e-001 0.000000e+000 5.715931e-001
      outer loop
         vertex 6.428776e+002 -1.225000e+002 1.934905e+003
         vertex 6.428776e+002 -1.075000e+002 1.934905e+003
         vertex 6.380869e+002 -1.075000e+002 1.941382e+003
      endloop
   endfacet
   facet normal 7.868103e-001 0.000000e+000 6.171950e-001
      outer loop
         vertex 6.428776e+002 -1.225000e+002 1.934905e+003
         vertex 6.380869e+002 -1.075000e+002 1.941382e+003
         vertex 6.380869e+002 -1.225000e+002 1.941382e+003
      endloop
   endfacet
   facet normal 7.121348e-001 0.000000e+000 7.020428e-001
      outer loop
         vertex 6.380869e+002 -1.225000e+002 1.941382e+003
         vertex 6.380869e+002 -1.075000e+002 1.941382e+003
         vertex 6.322704e+002 -1.075000e+002 1.946957e+003
      endloop
   endfacet
   facet normal 6.711863e-001 0.000000e+000 7.412887e-001
      outer loop
         vertex 6.380869e+002 -1.225000e+002 1.941382e+003
         vertex 6.322704e+002 -1.075000e+002 1.946957e+003
         vertex 6.322704e+002 -1.225000e+002 1.946957e+003
      endloop
   endfacet
   facet normal 5.832456e-001 0.000000e+000 8.122959e-001
      outer loop
         vertex 6.322704e+002 -1.225000e+002 1.946957e+003
         vertex 6.322704e+002 -1.075000e+002 1.946957e+003
         vertex 6.255955e+002 -1.075000e+002 1.951468e+003
      endloop
   endfacet
   facet normal 5.362535e-001 0.000000e+000 8.440570e-001
      outer loop
         vertex 6.322704e+002 -1.225000e+002 1.946957e+003
         vertex 6.255955e+002 -1.075000e+002 1.951468e+003
         vertex 6.255955e+002 -1.225000e+002 1.951468e+003
      endloop
   endfacet
   facet normal 4.375775e-001 0.000000e+000 8.991807e-001
      outer loop
         vertex 6.255955e+002 -1.225000e+002 1.951468e+003
         vertex 6.255955e+002 -1.075000e+002 1.951468e+003
         vertex 6.182542e+002 -1.075000e+002 1.954787e+003
      endloop
   endfacet
   facet normal 3.858936e-001 0.000000e+000 9.225433e-001
      outer loop
         vertex 6.255955e+002 -1.225000e+002 1.951468e+003
         vertex 6.182542e+002 -1.075000e+002 1.954787e+003
         vertex 6.182542e+002 -1.225000e+002 1.954787e+003
      endloop
   endfacet
   facet normal 2.793211e-001 0.000000e+000 9.601977e-001
      outer loop
         vertex 6.182542e+002 -1.225000e+002 1.954787e+003
         vertex 6.182542e+002 -1.075000e+002 1.954787e+003
         vertex 6.104575e+002 -1.075000e+002 1.956817e+003
      endloop
   endfacet
   facet normal 2.244323e-001 0.000000e+000 9.744897e-001
      outer loop
         vertex 6.182542e+002 -1.225000e+002 1.954787e+003
         vertex 6.104575e+002 -1.075000e+002 1.956817e+003
         vertex 6.104575e+002 -1.225000e+002 1.956817e+003
      endloop
   endfacet
   facet normal 1.130291e-001 0.000000e+000 9.935917e-001
      outer loop
         vertex 6.104575e+002 -1.225000e+002 1.956817e+003
         vertex 6.104575e+002 -1.075000e+002 1.956817e+003
         vertex 6.024300e+002 -1.075000e+002 1.957500e+003
      endloop
   endfacet
   facet normal 0.000000e+000 1.000000e+000 -1.508341e-017
      outer loop
         vertex 5.283546e+002 -8.750000e+001 1.993268e+003
         vertex 5.484301e+002 -8.750000e+001 1.998647e+003
         vertex 5.191623e+002 -8.750000e+001 1.984075e+003
      endloop
   endfacet
   facet normal 0.000000e+000 1.000000e+000 -1.508341e-017
      outer loop
         vertex 5.191623e+002 -8.750000e+001 1.984075e+003
         vertex 5.484301e+002 -8.750000e+001 1.998647e+003
         vertex 5.484301e+002 -8.750000e+001 1.982572e+003
      endloop
   endfacet
   facet normal 0.000000e+000 1.000000e+000 -1.508341e-017
      outer loop
         vertex 5.191623e+002 -8.750000e+001 1.984075e+003
         vertex 5.484301e+002 -8.750000e+001 1.982572e+003
         vertex 5.137831e+002 -8.750000e+001 1.964000e+003
      endloop
   endfacet
   facet normal 0.000000e+000 1.000000e+000 -1.508341e-017
      outer loop
         vertex 5.137831e+002 -8.750000e+001 1.964000e+003
         vertex 5.484301e+002 -8.750000e+001 1.982572e+003
         vertex 5.298578e+002 -8.750000e+001 1.964000e+003
      endloop
   endfacet
   facet normal -7.071068e-001 -5.151866e-017 7.071068e-001
      outer loop
         vertex 5.283546e+002 -1.075000e+002 1.993268e+003
         vertex 5.283546e+002 -8.750000e+001 1.993268e+003
         vertex 5.191623e+002 -1.075000e+002 1.984075e+003
      endloop
   endfacet
   facet normal -7.071068e-001 -5.151866e-017 7.071068e-001
      outer loop
         vertex 5.191623e+002 -1.075000e+002 1.984075e+003
         vertex 5.283546e+002 -8.750000e+001 1.993268e+003
         vertex 5.191623e+002 -8.750000e+001 1.984075e+003
      endloop
   endfacet
   facet normal 0.000000e+000 1.000000e+000 -1.508341e-017
      outer loop
         vertex 6.910769e+002 -8.750000e+001 1.964000e+003
         vertex 6.750021e+002 -8.750000e+001 1.964000e+003
         vertex 6.856978e+002 -8.750000e+001 1.984075e+003
      endloop
   endfacet
   facet normal 0.000000e+000 1.000000e+000 -1.508341e-017
      outer loop
         vertex 6.856978e+002 -8.750000e+001 1.984075e+003
         vertex 6.750021e+002 -8.750000e+001 1.964000e+003
         vertex 6.564300e+002 -8.750000e+001 1.982572e+003
      endloop
   endfacet
   facet normal 0.000000e+000 1.000000e+000 -1.508341e-017
      outer loop
         vertex 6.856978e+002 -8.750000e+001 1.984075e+003
         vertex 6.564300e+002 -8.750000e+001 1.982572e+003
         vertex 6.765053e+002 -8.750000e+001 1.993268e+003
      endloop
   endfacet
   facet normal 0.000000e+000 1.000000e+000 -1.508341e-017
      outer loop
         vertex 6.765053e+002 -8.750000e+001 1.993268e+003
         vertex 6.564300e+002 -8.750000e+001 1.982572e+003
         vertex 6.564300e+002 -8.750000e+001 1.998647e+003
      endloop
   endfacet
   facet normal 7.071068e-001 6.623827e-017 7.071068e-001
      outer loop
         vertex 6.765053e+002 -8.750000e+001 1.993268e+003
         vertex 6.765053e+002 -1.075000e+002 1.993268e+003
         vertex 6.856978e+002 -8.750000e+001 1.984075e+003
      endloop
   endfacet
   facet normal 7.071068e-001 6.623827e-017 7.071068e-001
      outer loop
         vertex 6.856978e+002 -8.750000e+001 1.984075e+003
         vertex 6.765053e+002 -1.075000e+002 1.993268e+003
         vertex 6.856978e+002 -1.075000e+002 1.984075e+003
      endloop
   endfacet
   facet normal 0.000000e+000 1.000000e+000 -1.508341e-017
      outer loop
         vertex 6.564300e+002 -8.750000e+001 1.821353e+003
         vertex 6.564300e+002 -8.750000e+001 1.837428e+003
         vertex 6.765053e+002 -8.750000e+001 1.826732e+003
      endloop
   endfacet
   facet normal 0.000000e+000 1.000000e+000 -1.508341e-017
      outer loop
         vertex 6.765053e+002 -8.750000e+001 1.826732e+003
         vertex 6.564300e+002 -8.750000e+001 1.837428e+003
         vertex 6.750021e+002 -8.750000e+001 1.856000e+003
      endloop
   endfacet
   facet normal 0.000000e+000 1.000000e+000 -1.508341e-017
      outer loop
         vertex 6.765053e+002 -8.750000e+001 1.826732e+003
         vertex 6.750021e+002 -8.750000e+001 1.856000e+003
         vertex 6.856978e+002 -8.750000e+001 1.835925e+003
      endloop
   endfacet
   facet normal 0.000000e+000 1.000000e+000 -1.508341e-017
      outer loop
         vertex 6.856978e+002 -8.750000e+001 1.835925e+003
         vertex 6.750021e+002 -8.750000e+001 1.856000e+003
         vertex 6.910769e+002 -8.750000e+001 1.856000e+003
      endloop
   endfacet
   facet normal 7.071068e-001 5.151866e-017 -7.071068e-001
      outer loop
         vertex 6.765053e+002 -1.075000e+002 1.826732e+003
         vertex 6.765053e+002 -8.750000e+001 1.826732e+003
         vertex 6.856978e+002 -1.075000e+002 1.835925e+003
      endloop
   endfacet
   facet normal 7.071068e-001 5.151866e-017 -7.071068e-001
      outer loop
         vertex 6.856978e+002 -1.075000e+002 1.835925e+003
         vertex 6.765053e+002 -8.750000e+001 1.826732e+003
         vertex 6.856978e+002 -8.750000e+001 1.835925e+003
      endloop
   endfacet
   facet normal -2.668584e-017 -1.000000e+000 1.508341e-017
      outer loop
         vertex 6.478479e+002 -1.075000e+002 1.896091e+003
         vertex 6.448440e+002 -1.075000e+002 1.888615e+003
         vertex 6.924300e+002 -1.075000e+002 1.861050e+003
      endloop
   endfacet
   facet normal -2.668584e-017 -1.000000e+000 1.508341e-017
      outer loop
         vertex 5.124300e+002 -1.075000e+002 1.958950e+003
         vertex 5.549728e+002 -1.075000e+002 1.912016e+003
         vertex 5.559961e+002 -1.075000e+002 1.920007e+003
      endloop
   endfacet
   facet normal -2.668584e-017 -1.000000e+000 1.508341e-017
      outer loop
         vertex 6.924300e+002 -1.075000e+002 1.861050e+003
         vertex 6.448440e+002 -1.075000e+002 1.888615e+003
         vertex 6.856978e+002 -1.075000e+002 1.835925e+003
      endloop
   endfacet
   facet normal -2.668584e-017 -1.000000e+000 1.508341e-017
      outer loop
         vertex 6.856978e+002 -1.075000e+002 1.835925e+003
         vertex 6.448440e+002 -1.075000e+002 1.888615e+003
         vertex 6.406199e+002 -1.075000e+002 1.881755e+003
      endloop
   endfacet
   facet normal -2.668584e-017 -1.000000e+000 1.508341e-017
      outer loop
         vertex 6.856978e+002 -1.075000e+002 1.835925e+003
         vertex 6.406199e+002 -1.075000e+002 1.881755e+003
         vertex 6.765053e+002 -1.075000e+002 1.826732e+003
      endloop
   endfacet
   facet normal -2.668584e-017 -1.000000e+000 1.508341e-017
      outer loop
         vertex 6.765053e+002 -1.075000e+002 1.826732e+003
         vertex 6.406199e+002 -1.075000e+002 1.881755e+003
         vertex 6.352971e+002 -1.075000e+002 1.875707e+003
      endloop
   endfacet
   facet normal -2.668584e-017 -1.000000e+000 1.508341e-017
      outer loop
         vertex 6.765053e+002 -1.075000e+002 1.826732e+003
         vertex 6.352971e+002 -1.075000e+002 1.875707e+003
         vertex 6.513801e+002 -1.075000e+002 1.820000e+003
      endloop
   endfacet
   facet normal -2.668584e-017 -1.000000e+000 1.508341e-017
      outer loop
         vertex 6.513801e+002 -1.075000e+002 1.820000e+003
         vertex 6.352971e+002 -1.075000e+002 1.875707e+003
         vertex 6.290288e+002 -1.075000e+002 1.870646e+003
      endloop
   endfacet
   facet normal -2.668584e-017 -1.000000e+000 1.508341e-017
      outer loop
         vertex 6.513801e+002 -1.075000e+002 1.820000e+003
         vertex 6.290288e+002 -1.075000e+002 1.870646e+003
         vertex 6.219953e+002 -1.075000e+002 1.866717e+003
      endloop
   endfacet
   facet normal -2.668584e-017 -1.000000e+000 1.508341e-017
      outer loop
         vertex 6.465047e+002 -1.075000e+002 1.927711e+003
         vertex 6.488638e+002 -1.075000e+002 1.920007e+003
         vertex 6.924300e+002 -1.075000e+002 1.958950e+003
      endloop
   endfacet
   facet normal -2.668584e-017 -1.000000e+000 1.508341e-017
      outer loop
         vertex 6.924300e+002 -1.075000e+002 1.958950e+003
         vertex 6.488638e+002 -1.075000e+002 1.920007e+003
         vertex 6.498872e+002 -1.075000e+002 1.912016e+003
      endloop
   endfacet
   facet normal -2.668584e-017 -1.000000e+000 1.508341e-017
      outer loop
         vertex 6.924300e+002 -1.075000e+002 1.958950e+003
         vertex 6.498872e+002 -1.075000e+002 1.912016e+003
         vertex 6.924300e+002 -1.075000e+002 1.861050e+003
      endloop
   endfacet
   facet normal -2.668584e-017 -1.000000e+000 1.508341e-017
      outer loop
         vertex 6.924300e+002 -1.075000e+002 1.861050e+003
         vertex 6.498872e+002 -1.075000e+002 1.912016e+003
         vertex 6.495452e+002 -1.075000e+002 1.903967e+003
      endloop
   endfacet
   facet normal -2.668584e-017 -1.000000e+000 1.508341e-017
      outer loop
         vertex 6.924300e+002 -1.075000e+002 1.861050e+003
         vertex 6.495452e+002 -1.075000e+002 1.903967e+003
         vertex 6.478479e+002 -1.075000e+002 1.896091e+003
      endloop
   endfacet
   facet normal -2.668584e-017 -1.000000e+000 1.508341e-017
      outer loop
         vertex 6.219953e+002 -1.075000e+002 1.866717e+003
         vertex 6.143989e+002 -1.075000e+002 1.864033e+003
         vertex 6.513801e+002 -1.075000e+002 1.820000e+003
      endloop
   endfacet
   facet normal -2.668584e-017 -1.000000e+000 1.508341e-017
      outer loop
         vertex 6.513801e+002 -1.075000e+002 1.820000e+003
         vertex 6.143989e+002 -1.075000e+002 1.864033e+003
         vertex 6.064583e+002 -1.075000e+002 1.862671e+003
      endloop
   endfacet
   facet normal -2.668584e-017 -1.000000e+000 1.508341e-017
      outer loop
         vertex 6.513801e+002 -1.075000e+002 1.820000e+003
         vertex 6.064583e+002 -1.075000e+002 1.862671e+003
         vertex 5.534799e+002 -1.075000e+002 1.820000e+003
      endloop
   endfacet
   facet normal -2.668584e-017 -1.000000e+000 1.508341e-017
      outer loop
         vertex 5.534799e+002 -1.075000e+002 1.820000e+003
         vertex 6.064583e+002 -1.075000e+002 1.862671e+003
         vertex 5.984017e+002 -1.075000e+002 1.862671e+003
      endloop
   endfacet
   facet normal -2.668584e-017 -1.000000e+000 1.508341e-017
      outer loop
         vertex 5.534799e+002 -1.075000e+002 1.820000e+003
         vertex 5.984017e+002 -1.075000e+002 1.862671e+003
         vertex 5.904610e+002 -1.075000e+002 1.864033e+003
      endloop
   endfacet
   facet normal -2.668584e-017 -1.000000e+000 1.508341e-017
      outer loop
         vertex 5.549728e+002 -1.075000e+002 1.912016e+003
         vertex 5.124300e+002 -1.075000e+002 1.958950e+003
         vertex 5.553147e+002 -1.075000e+002 1.903967e+003
      endloop
   endfacet
   facet normal -2.668584e-017 -1.000000e+000 1.508341e-017
      outer loop
         vertex 5.553147e+002 -1.075000e+002 1.903967e+003
         vertex 5.124300e+002 -1.075000e+002 1.958950e+003
         vertex 5.124300e+002 -1.075000e+002 1.861050e+003
      endloop
   endfacet
   facet normal -2.668584e-017 -1.000000e+000 1.508341e-017
      outer loop
         vertex 5.553147e+002 -1.075000e+002 1.903967e+003
         vertex 5.124300e+002 -1.075000e+002 1.861050e+003
         vertex 5.570121e+002 -1.075000e+002 1.896091e+003
      endloop
   endfacet
   facet normal -2.668584e-017 -1.000000e+000 1.508341e-017
      outer loop
         vertex 5.904610e+002 -1.075000e+002 1.864033e+003
         vertex 5.828647e+002 -1.075000e+002 1.866717e+003
         vertex 5.534799e+002 -1.075000e+002 1.820000e+003
      endloop
   endfacet
   facet normal -2.668584e-017 -1.000000e+000 1.508341e-017
      outer loop
         vertex 5.534799e+002 -1.075000e+002 1.820000e+003
         vertex 5.828647e+002 -1.075000e+002 1.866717e+003
         vertex 5.758312e+002 -1.075000e+002 1.870646e+003
      endloop
   endfacet
   facet normal -2.668584e-017 -1.000000e+000 1.508341e-017
      outer loop
         vertex 5.534799e+002 -1.075000e+002 1.820000e+003
         vertex 5.758312e+002 -1.075000e+002 1.870646e+003
         vertex 5.283546e+002 -1.075000e+002 1.826732e+003
      endloop
   endfacet
   facet normal -2.668584e-017 -1.000000e+000 1.508341e-017
      outer loop
         vertex 5.283546e+002 -1.075000e+002 1.826732e+003
         vertex 5.758312e+002 -1.075000e+002 1.870646e+003
         vertex 5.695629e+002 -1.075000e+002 1.875707e+003
      endloop
   endfacet
   facet normal -2.668584e-017 -1.000000e+000 1.508341e-017
      outer loop
         vertex 5.283546e+002 -1.075000e+002 1.826732e+003
         vertex 5.695629e+002 -1.075000e+002 1.875707e+003
         vertex 5.191623e+002 -1.075000e+002 1.835925e+003
      endloop
   endfacet
   facet normal -2.668584e-017 -1.000000e+000 1.508341e-017
      outer loop
         vertex 5.191623e+002 -1.075000e+002 1.835925e+003
         vertex 5.695629e+002 -1.075000e+002 1.875707e+003
         vertex 5.642402e+002 -1.075000e+002 1.881755e+003
      endloop
   endfacet
   facet normal -2.668584e-017 -1.000000e+000 1.508341e-017
      outer loop
         vertex 5.191623e+002 -1.075000e+002 1.835925e+003
         vertex 5.642402e+002 -1.075000e+002 1.881755e+003
         vertex 5.124300e+002 -1.075000e+002 1.861050e+003
      endloop
   endfacet
   facet normal -2.668584e-017 -1.000000e+000 1.508341e-017
      outer loop
         vertex 5.124300e+002 -1.075000e+002 1.861050e+003
         vertex 5.642402e+002 -1.075000e+002 1.881755e+003
         vertex 5.600161e+002 -1.075000e+002 1.888615e+003
      endloop
   endfacet
   facet normal -2.668584e-017 -1.000000e+000 1.508341e-017
      outer loop
         vertex 5.124300e+002 -1.075000e+002 1.861050e+003
         vertex 5.600161e+002 -1.075000e+002 1.888615e+003
         vertex 5.570121e+002 -1.075000e+002 1.896091e+003
      endloop
   endfacet
   facet normal -2.668584e-017 -1.000000e+000 1.508341e-017
      outer loop
         vertex 5.559961e+002 -1.075000e+002 1.920007e+003
         vertex 5.583553e+002 -1.075000e+002 1.927711e+003
         vertex 5.124300e+002 -1.075000e+002 1.958950e+003
      endloop
   endfacet
   facet normal -2.668584e-017 -1.000000e+000 1.508341e-017
      outer loop
         vertex 5.124300e+002 -1.075000e+002 1.958950e+003
         vertex 5.583553e+002 -1.075000e+002 1.927711e+003
         vertex 5.619824e+002 -1.075000e+002 1.934905e+003
      endloop
   endfacet
   facet normal -2.668584e-017 -1.000000e+000 1.508341e-017
      outer loop
         vertex 5.124300e+002 -1.075000e+002 1.958950e+003
         vertex 5.619824e+002 -1.075000e+002 1.934905e+003
         vertex 5.191623e+002 -1.075000e+002 1.984075e+003
      endloop
   endfacet
   facet normal -2.668584e-017 -1.000000e+000 1.508341e-017
      outer loop
         vertex 5.191623e+002 -1.075000e+002 1.984075e+003
         vertex 5.619824e+002 -1.075000e+002 1.934905e+003
         vertex 5.667731e+002 -1.075000e+002 1.941382e+003
      endloop
   endfacet
   facet normal -2.668584e-017 -1.000000e+000 1.508341e-017
      outer loop
         vertex 5.191623e+002 -1.075000e+002 1.984075e+003
         vertex 5.667731e+002 -1.075000e+002 1.941382e+003
         vertex 5.283546e+002 -1.075000e+002 1.993268e+003
      endloop
   endfacet
   facet normal -2.668584e-017 -1.000000e+000 1.508341e-017
      outer loop
         vertex 5.283546e+002 -1.075000e+002 1.993268e+003
         vertex 5.667731e+002 -1.075000e+002 1.941382e+003
         vertex 5.725896e+002 -1.075000e+002 1.946957e+003
      endloop
   endfacet
   facet normal -2.668584e-017 -1.000000e+000 1.508341e-017
      outer loop
         vertex 5.283546e+002 -1.075000e+002 1.993268e+003
         vertex 5.725896e+002 -1.075000e+002 1.946957e+003
         vertex 5.534799e+002 -1.075000e+002 2.000000e+003
      endloop
   endfacet
   facet normal -2.668584e-017 -1.000000e+000 1.508341e-017
      outer loop
         vertex 5.534799e+002 -1.075000e+002 2.000000e+003
         vertex 5.725896e+002 -1.075000e+002 1.946957e+003
         vertex 5.792645e+002 -1.075000e+002 1.951468e+003
      endloop
   endfacet
   facet normal -2.668584e-017 -1.000000e+000 1.508341e-017
      outer loop
         vertex 5.534799e+002 -1.075000e+002 2.000000e+003
         vertex 5.792645e+002 -1.075000e+002 1.951468e+003
         vertex 5.866058e+002 -1.075000e+002 1.954787e+003
      endloop
   endfacet
   facet normal -2.668584e-017 -1.000000e+000 1.508341e-017
      outer loop
         vertex 5.866058e+002 -1.075000e+002 1.954787e+003
         vertex 5.944024e+002 -1.075000e+002 1.956817e+003
         vertex 5.534799e+002 -1.075000e+002 2.000000e+003
      endloop
   endfacet
   facet normal -2.668584e-017 -1.000000e+000 1.508341e-017
      outer loop
         vertex 5.534799e+002 -1.075000e+002 2.000000e+003
         vertex 5.944024e+002 -1.075000e+002 1.956817e+003
         vertex 6.024300e+002 -1.075000e+002 1.957500e+003
      endloop
   endfacet
   facet normal -2.668584e-017 -1.000000e+000 1.508341e-017
      outer loop
         vertex 5.534799e+002 -1.075000e+002 2.000000e+003
         vertex 6.024300e+002 -1.075000e+002 1.957500e+003
         vertex 6.513801e+002 -1.075000e+002 2.000000e+003
      endloop
   endfacet
   facet normal -2.668584e-017 -1.000000e+000 1.508341e-017
      outer loop
         vertex 6.513801e+002 -1.075000e+002 2.000000e+003
         vertex 6.024300e+002 -1.075000e+002 1.957500e+003
         vertex 6.104575e+002 -1.075000e+002 1.956817e+003
      endloop
   endfacet
   facet normal -2.668584e-017 -1.000000e+000 1.508341e-017
      outer loop
         vertex 6.104575e+002 -1.075000e+002 1.956817e+003
         vertex 6.182542e+002 -1.075000e+002 1.954787e+003
         vertex 6.513801e+002 -1.075000e+002 2.000000e+003
      endloop
   endfacet
   facet normal -2.668584e-017 -1.000000e+000 1.508341e-017
      outer loop
         vertex 6.513801e+002 -1.075000e+002 2.000000e+003
         vertex 6.182542e+002 -1.075000e+002 1.954787e+003
         vertex 6.255955e+002 -1.075000e+002 1.951468e+003
      endloop
   endfacet
   facet normal -2.668584e-017 -1.000000e+000 1.508341e-017
      outer loop
         vertex 6.513801e+002 -1.075000e+002 2.000000e+003
         vertex 6.255955e+002 -1.075000e+002 1.951468e+003
         vertex 6.765053e+002 -1.075000e+002 1.993268e+003
      endloop
   endfacet
   facet normal -2.668584e-017 -1.000000e+000 1.508341e-017
      outer loop
         vertex 6.765053e+002 -1.075000e+002 1.993268e+003
         vertex 6.255955e+002 -1.075000e+002 1.951468e+003
         vertex 6.322704e+002 -1.075000e+002 1.946957e+003
      endloop
   endfacet
   facet normal -2.668584e-017 -1.000000e+000 1.508341e-017
      outer loop
         vertex 6.765053e+002 -1.075000e+002 1.993268e+003
         vertex 6.322704e+002 -1.075000e+002 1.946957e+003
         vertex 6.856978e+002 -1.075000e+002 1.984075e+003
      endloop
   endfacet
   facet normal -2.668584e-017 -1.000000e+000 1.508341e-017
      outer loop
         vertex 6.856978e+002 -1.075000e+002 1.984075e+003
         vertex 6.322704e+002 -1.075000e+002 1.946957e+003
         vertex 6.380869e+002 -1.075000e+002 1.941382e+003
      endloop
   endfacet
   facet normal -2.668584e-017 -1.000000e+000 1.508341e-017
      outer loop
         vertex 6.856978e+002 -1.075000e+002 1.984075e+003
         vertex 6.380869e+002 -1.075000e+002 1.941382e+003
         vertex 6.924300e+002 -1.075000e+002 1.958950e+003
      endloop
   endfacet
   facet normal -2.668584e-017 -1.000000e+000 1.508341e-017
      outer loop
         vertex 6.924300e+002 -1.075000e+002 1.958950e+003
         vertex 6.380869e+002 -1.075000e+002 1.941382e+003
         vertex 6.428776e+002 -1.075000e+002 1.934905e+003
      endloop
   endfacet
   facet normal -2.668584e-017 -1.000000e+000 1.508341e-017
      outer loop
         vertex 6.924300e+002 -1.075000e+002 1.958950e+003
         vertex 6.428776e+002 -1.075000e+002 1.934905e+003
         vertex 6.465047e+002 -1.075000e+002 1.927711e+003
      endloop
   endfacet
   facet normal -7.071068e-001 -6.623827e-017 -7.071068e-001
      outer loop
         vertex 5.283546e+002 -8.750000e+001 1.826732e+003
         vertex 5.283546e+002 -1.075000e+002 1.826732e+003
         vertex 5.191623e+002 -8.750000e+001 1.835925e+003
      endloop
   endfacet
   facet normal -7.071068e-001 -6.623827e-017 -7.071068e-001
      outer loop
         vertex 5.191623e+002 -8.750000e+001 1.835925e+003
         vertex 5.283546e+002 -1.075000e+002 1.826732e+003
         vertex 5.191623e+002 -1.075000e+002 1.835925e+003
      endloop
   endfacet
   facet normal 0.000000e+000 1.000000e+000 -1.508341e-017
      outer loop
         vertex 5.191623e+002 -8.750000e+001 1.835925e+003
         vertex 5.137831e+002 -8.750000e+001 1.856000e+003
         vertex 5.283546e+002 -8.750000e+001 1.826732e+003
      endloop
   endfacet
   facet normal 0.000000e+000 1.000000e+000 -1.508341e-017
      outer loop
         vertex 5.283546e+002 -8.750000e+001 1.826732e+003
         vertex 5.137831e+002 -8.750000e+001 1.856000e+003
         vertex 5.298578e+002 -8.750000e+001 1.856000e+003
      endloop
   endfacet
   facet normal 0.000000e+000 1.000000e+000 -1.508341e-017
      outer loop
         vertex 5.283546e+002 -8.750000e+001 1.826732e+003
         vertex 5.298578e+002 -8.750000e+001 1.856000e+003
         vertex 5.484301e+002 -8.750000e+001 1.821353e+003
      endloop
   endfacet
   facet normal 0.000000e+000 1.000000e+000 -1.508341e-017
      outer loop
         vertex 5.484301e+002 -8.750000e+001 1.821353e+003
         vertex 5.298578e+002 -8.750000e+001 1.856000e+003
         vertex 5.484301e+002 -8.750000e+001 1.837428e+003
      endloop
   endfacet
   facet normal -7.071068e-001 -6.623827e-017 -7.071068e-001
      outer loop
         vertex 5.298578e+002 -8.750000e+001 1.856000e+003
         vertex 5.298578e+002 1.445000e+002 1.856000e+003
         vertex 5.484301e+002 -8.750000e+001 1.837428e+003
      endloop
   endfacet
   facet normal -7.071068e-001 -6.623827e-017 -7.071068e-001
      outer loop
         vertex 5.484301e+002 -8.750000e+001 1.837428e+003
         vertex 5.298578e+002 1.445000e+002 1.856000e+003
         vertex 5.484301e+002 1.445000e+002 1.837428e+003
      endloop
   endfacet
   facet normal -1.541976e-016 -1.040834e-017 -1.000000e+000
      outer loop
         vertex 5.137831e+002 -8.750000e+001 1.856000e+003
         vertex 5.137831e+002 1.445000e+002 1.856000e+003
         vertex 5.298578e+002 -8.750000e+001 1.856000e+003
      endloop
   endfacet
   facet normal -1.541976e-016 -1.040834e-017 -1.000000e+000
      outer loop
         vertex 5.298578e+002 -8.750000e+001 1.856000e+003
         vertex 5.137831e+002 1.445000e+002 1.856000e+003
         vertex 5.298578e+002 1.445000e+002 1.856000e+003
      endloop
   endfacet
   facet normal -9.659258e-001 -8.312336e-017 -2.588190e-001
      outer loop
         vertex 5.191623e+002 -8.750000e+001 1.835925e+003
         vertex 5.191623e+002 -1.075000e+002 1.835925e+003
         vertex 5.137831e+002 -8.750000e+001 1.856000e+003
      endloop
   endfacet
   facet normal -9.659258e-001 -8.312336e-017 -2.588190e-001
      outer loop
         vertex 5.137831e+002 -8.750000e+001 1.856000e+003
         vertex 5.191623e+002 -1.075000e+002 1.835925e+003
         vertex 5.124300e+002 -1.075000e+002 1.861050e+003
      endloop
   endfacet
   facet normal -9.659258e-001 -8.312336e-017 -2.588190e-001
      outer loop
         vertex 5.137831e+002 -8.750000e+001 1.856000e+003
         vertex 5.124300e+002 -1.075000e+002 1.861050e+003
         vertex 5.137831e+002 1.445000e+002 1.856000e+003
      endloop
   endfacet
   facet normal -9.659258e-001 -8.312336e-017 -2.588190e-001
      outer loop
         vertex 5.137831e+002 1.445000e+002 1.856000e+003
         vertex 5.124300e+002 -1.075000e+002 1.861050e+003
         vertex 5.124300e+002 1.445000e+002 1.861050e+003
      endloop
   endfacet
   facet normal -1.000000e+000 -8.326673e-017 5.551115e-017
      outer loop
         vertex 5.124300e+002 -1.075000e+002 1.958950e+003
         vertex 5.124300e+002 1.445000e+002 1.958950e+003
         vertex 5.124300e+002 -1.075000e+002 1.861050e+003
      endloop
   endfacet
   facet normal -1.000000e+000 -8.326673e-017 5.551115e-017
      outer loop
         vertex 5.124300e+002 -1.075000e+002 1.861050e+003
         vertex 5.124300e+002 1.445000e+002 1.958950e+003
         vertex 5.124300e+002 1.445000e+002 1.861050e+003
      endloop
   endfacet
   facet normal -9.659258e-001 -7.773561e-017 2.588190e-001
      outer loop
         vertex 5.137831e+002 1.445000e+002 1.964000e+003
         vertex 5.124300e+002 1.445000e+002 1.958950e+003
         vertex 5.137831e+002 -8.750000e+001 1.964000e+003
      endloop
   endfacet
   facet normal -9.659258e-001 -7.773561e-017 2.588190e-001
      outer loop
         vertex 5.137831e+002 -8.750000e+001 1.964000e+003
         vertex 5.124300e+002 1.445000e+002 1.958950e+003
         vertex 5.124300e+002 -1.075000e+002 1.958950e+003
      endloop
   endfacet
   facet normal -9.659258e-001 -7.773561e-017 2.588190e-001
      outer loop
         vertex 5.137831e+002 -8.750000e+001 1.964000e+003
         vertex 5.124300e+002 -1.075000e+002 1.958950e+003
         vertex 5.191623e+002 -8.750000e+001 1.984075e+003
      endloop
   endfacet
   facet normal -9.659258e-001 -7.773561e-017 2.588190e-001
      outer loop
         vertex 5.191623e+002 -8.750000e+001 1.984075e+003
         vertex 5.124300e+002 -1.075000e+002 1.958950e+003
         vertex 5.191623e+002 -1.075000e+002 1.984075e+003
      endloop
   endfacet
   facet normal 0.000000e+000 1.040834e-017 1.000000e+000
      outer loop
         vertex 5.298578e+002 -8.750000e+001 1.964000e+003
         vertex 5.298578e+002 1.445000e+002 1.964000e+003
         vertex 5.137831e+002 -8.750000e+001 1.964000e+003
      endloop
   endfacet
   facet normal 0.000000e+000 1.040834e-017 1.000000e+000
      outer loop
         vertex 5.137831e+002 -8.750000e+001 1.964000e+003
         vertex 5.298578e+002 1.445000e+002 1.964000e+003
         vertex 5.137831e+002 1.445000e+002 1.964000e+003
      endloop
   endfacet
   facet normal -7.071068e-001 -5.151866e-017 7.071068e-001
      outer loop
         vertex 5.484301e+002 -8.750000e+001 1.982572e+003
         vertex 5.484301e+002 1.445000e+002 1.982572e+003
         vertex 5.298578e+002 -8.750000e+001 1.964000e+003
      endloop
   endfacet
   facet normal -7.071068e-001 -5.151866e-017 7.071068e-001
      outer loop
         vertex 5.298578e+002 -8.750000e+001 1.964000e+003
         vertex 5.484301e+002 1.445000e+002 1.982572e+003
         vertex 5.298578e+002 1.445000e+002 1.964000e+003
      endloop
   endfacet
   facet normal -1.000000e+000 -8.326673e-017 4.037000e-015
      outer loop
         vertex 5.484301e+002 -8.750000e+001 1.998647e+003
         vertex 5.484301e+002 1.445000e+002 1.998647e+003
         vertex 5.484301e+002 -8.750000e+001 1.982572e+003
      endloop
   endfacet
   facet normal -1.000000e+000 -8.326673e-017 4.037000e-015
      outer loop
         vertex 5.484301e+002 -8.750000e+001 1.982572e+003
         vertex 5.484301e+002 1.445000e+002 1.998647e+003
         vertex 5.484301e+002 1.445000e+002 1.982572e+003
      endloop
   endfacet
   facet normal -2.588190e-001 -1.149733e-017 9.659258e-001
      outer loop
         vertex 5.283546e+002 -8.750000e+001 1.993268e+003
         vertex 5.283546e+002 -1.075000e+002 1.993268e+003
         vertex 5.484301e+002 -8.750000e+001 1.998647e+003
      endloop
   endfacet
   facet normal -2.588190e-001 -1.149733e-017 9.659258e-001
      outer loop
         vertex 5.484301e+002 -8.750000e+001 1.998647e+003
         vertex 5.283546e+002 -1.075000e+002 1.993268e+003
         vertex 5.534799e+002 -1.075000e+002 2.000000e+003
      endloop
   endfacet
   facet normal -2.588190e-001 -1.149733e-017 9.659258e-001
      outer loop
         vertex 5.484301e+002 -8.750000e+001 1.998647e+003
         vertex 5.534799e+002 -1.075000e+002 2.000000e+003
         vertex 5.484301e+002 1.445000e+002 1.998647e+003
      endloop
   endfacet
   facet normal -2.588190e-001 -1.149733e-017 9.659258e-001
      outer loop
         vertex 5.484301e+002 1.445000e+002 1.998647e+003
         vertex 5.534799e+002 -1.075000e+002 2.000000e+003
         vertex 5.534799e+002 1.445000e+002 2.000000e+003
      endloop
   endfacet
   facet normal 0.000000e+000 1.040834e-017 1.000000e+000
      outer loop
         vertex 6.513801e+002 -1.075000e+002 2.000000e+003
         vertex 6.513801e+002 1.445000e+002 2.000000e+003
         vertex 5.534799e+002 -1.075000e+002 2.000000e+003
      endloop
   endfacet
   facet normal 0.000000e+000 1.040834e-017 1.000000e+000
      outer loop
         vertex 5.534799e+002 -1.075000e+002 2.000000e+003
         vertex 6.513801e+002 1.445000e+002 2.000000e+003
         vertex 5.534799e+002 1.445000e+002 2.000000e+003
      endloop
   endfacet
   facet normal 2.588190e-001 3.160470e-017 9.659258e-001
      outer loop
         vertex 6.564300e+002 1.445000e+002 1.998647e+003
         vertex 6.513801e+002 1.445000e+002 2.000000e+003
         vertex 6.564300e+002 -8.750000e+001 1.998647e+003
      endloop
   endfacet
   facet normal 2.588190e-001 3.160470e-017 9.659258e-001
      outer loop
         vertex 6.564300e+002 -8.750000e+001 1.998647e+003
         vertex 6.513801e+002 1.445000e+002 2.000000e+003
         vertex 6.513801e+002 -1.075000e+002 2.000000e+003
      endloop
   endfacet
   facet normal 2.588190e-001 3.160470e-017 9.659258e-001
      outer loop
         vertex 6.564300e+002 -8.750000e+001 1.998647e+003
         vertex 6.513801e+002 -1.075000e+002 2.000000e+003
         vertex 6.765053e+002 -8.750000e+001 1.993268e+003
      endloop
   endfacet
   facet normal 2.588190e-001 3.160470e-017 9.659258e-001
      outer loop
         vertex 6.765053e+002 -8.750000e+001 1.993268e+003
         vertex 6.513801e+002 -1.075000e+002 2.000000e+003
         vertex 6.765053e+002 -1.075000e+002 1.993268e+003
      endloop
   endfacet
   facet normal 1.000000e+000 0.000000e+000 0.000000e+000
      outer loop
         vertex 6.564300e+002 -8.750000e+001 1.982572e+003
         vertex 6.564300e+002 1.445000e+002 1.982572e+003
         vertex 6.564300e+002 -8.750000e+001 1.998647e+003
      endloop
   endfacet
   facet normal 1.000000e+000 0.000000e+000 0.000000e+000
      outer loop
         vertex 6.564300e+002 -8.750000e+001 1.998647e+003
         vertex 6.564300e+002 1.445000e+002 1.982572e+003
         vertex 6.564300e+002 1.445000e+002 1.998647e+003
      endloop
   endfacet
   facet normal 7.071068e-001 6.623827e-017 7.071068e-001
      outer loop
         vertex 6.750021e+002 -8.750000e+001 1.964000e+003
         vertex 6.750021e+002 1.445000e+002 1.964000e+003
         vertex 6.564300e+002 -8.750000e+001 1.982572e+003
      endloop
   endfacet
   facet normal 7.071068e-001 6.623827e-017 7.071068e-001
      outer loop
         vertex 6.564300e+002 -8.750000e+001 1.982572e+003
         vertex 6.750021e+002 1.445000e+002 1.964000e+003
         vertex 6.564300e+002 1.445000e+002 1.982572e+003
      endloop
   endfacet
   facet normal 0.000000e+000 1.040834e-017 1.000000e+000
      outer loop
         vertex 6.910769e+002 -8.750000e+001 1.964000e+003
         vertex 6.910769e+002 1.445000e+002 1.964000e+003
         vertex 6.750021e+002 -8.750000e+001 1.964000e+003
      endloop
   endfacet
   facet normal 0.000000e+000 1.040834e-017 1.000000e+000
      outer loop
         vertex 6.750021e+002 -8.750000e+001 1.964000e+003
         vertex 6.910769e+002 1.445000e+002 1.964000e+003
         vertex 6.750021e+002 1.445000e+002 1.964000e+003
      endloop
   endfacet
   facet normal 9.659258e-001 8.312336e-017 2.588190e-001
      outer loop
         vertex 6.856978e+002 -8.750000e+001 1.984075e+003
         vertex 6.856978e+002 -1.075000e+002 1.984075e+003
         vertex 6.910769e+002 -8.750000e+001 1.964000e+003
      endloop
   endfacet
   facet normal 9.659258e-001 8.312336e-017 2.588190e-001
      outer loop
         vertex 6.910769e+002 -8.750000e+001 1.964000e+003
         vertex 6.856978e+002 -1.075000e+002 1.984075e+003
         vertex 6.924300e+002 -1.075000e+002 1.958950e+003
      endloop
   endfacet
   facet normal 9.659258e-001 8.312336e-017 2.588190e-001
      outer loop
         vertex 6.910769e+002 -8.750000e+001 1.964000e+003
         vertex 6.924300e+002 -1.075000e+002 1.958950e+003
         vertex 6.910769e+002 1.445000e+002 1.964000e+003
      endloop
   endfacet
   facet normal 9.659258e-001 8.312336e-017 2.588190e-001
      outer loop
         vertex 6.910769e+002 1.445000e+002 1.964000e+003
         vertex 6.924300e+002 -1.075000e+002 1.958950e+003
         vertex 6.924300e+002 1.445000e+002 1.958950e+003
      endloop
   endfacet
   facet normal 1.000000e+000 0.000000e+000 -5.551115e-017
      outer loop
         vertex 6.924300e+002 -1.075000e+002 1.861050e+003
         vertex 6.924300e+002 1.445000e+002 1.861050e+003
         vertex 6.924300e+002 -1.075000e+002 1.958950e+003
      endloop
   endfacet
   facet normal 1.000000e+000 0.000000e+000 -5.551115e-017
      outer loop
         vertex 6.924300e+002 -1.075000e+002 1.958950e+003
         vertex 6.924300e+002 1.445000e+002 1.861050e+003
         vertex 6.924300e+002 1.445000e+002 1.958950e+003
      endloop
   endfacet
   facet normal 9.659258e-001 7.773561e-017 -2.588190e-001
      outer loop
         vertex 6.910769e+002 1.445000e+002 1.856000e+003
         vertex 6.924300e+002 1.445000e+002 1.861050e+003
         vertex 6.910769e+002 -8.750000e+001 1.856000e+003
      endloop
   endfacet
   facet normal 9.659258e-001 7.773561e-017 -2.588190e-001
      outer loop
         vertex 6.910769e+002 -8.750000e+001 1.856000e+003
         vertex 6.924300e+002 1.445000e+002 1.861050e+003
         vertex 6.924300e+002 -1.075000e+002 1.861050e+003
      endloop
   endfacet
   facet normal 9.659258e-001 7.773561e-017 -2.588190e-001
      outer loop
         vertex 6.910769e+002 -8.750000e+001 1.856000e+003
         vertex 6.924300e+002 -1.075000e+002 1.861050e+003
         vertex 6.856978e+002 -8.750000e+001 1.835925e+003
      endloop
   endfacet
   facet normal 9.659258e-001 7.773561e-017 -2.588190e-001
      outer loop
         vertex 6.856978e+002 -8.750000e+001 1.835925e+003
         vertex 6.924300e+002 -1.075000e+002 1.861050e+003
         vertex 6.856978e+002 -1.075000e+002 1.835925e+003
      endloop
   endfacet
   facet normal -1.541976e-016 -1.040834e-017 -1.000000e+000
      outer loop
         vertex 6.750021e+002 -8.750000e+001 1.856000e+003
         vertex 6.750021e+002 1.445000e+002 1.856000e+003
         vertex 6.910769e+002 -8.750000e+001 1.856000e+003
      endloop
   endfacet
   facet normal -1.541976e-016 -1.040834e-017 -1.000000e+000
      outer loop
         vertex 6.910769e+002 -8.750000e+001 1.856000e+003
         vertex 6.750021e+002 1.445000e+002 1.856000e+003
         vertex 6.910769e+002 1.445000e+002 1.856000e+003
      endloop
   endfacet
   facet normal 7.071068e-001 5.151866e-017 -7.071068e-001
      outer loop
         vertex 6.564300e+002 -8.750000e+001 1.837428e+003
         vertex 6.564300e+002 1.445000e+002 1.837428e+003
         vertex 6.750021e+002 -8.750000e+001 1.856000e+003
      endloop
   endfacet
   facet normal 7.071068e-001 5.151866e-017 -7.071068e-001
      outer loop
         vertex 6.750021e+002 -8.750000e+001 1.856000e+003
         vertex 6.564300e+002 1.445000e+002 1.837428e+003
         vertex 6.750021e+002 1.445000e+002 1.856000e+003
      endloop
   endfacet
   facet normal 1.000000e+000 0.000000e+000 -4.191197e-015
      outer loop
         vertex 6.564300e+002 -8.750000e+001 1.821353e+003
         vertex 6.564300e+002 1.445000e+002 1.821353e+003
         vertex 6.564300e+002 -8.750000e+001 1.837428e+003
      endloop
   endfacet
   facet normal 1.000000e+000 0.000000e+000 -4.191197e-015
      outer loop
         vertex 6.564300e+002 -8.750000e+001 1.837428e+003
         vertex 6.564300e+002 1.445000e+002 1.821353e+003
         vertex 6.564300e+002 1.445000e+002 1.837428e+003
      endloop
   endfacet
   facet normal 2.588190e-001 1.149733e-017 -9.659258e-001
      outer loop
         vertex 6.765053e+002 -8.750000e+001 1.826732e+003
         vertex 6.765053e+002 -1.075000e+002 1.826732e+003
         vertex 6.564300e+002 -8.750000e+001 1.821353e+003
      endloop
   endfacet
   facet normal 2.588190e-001 1.149733e-017 -9.659258e-001
      outer loop
         vertex 6.564300e+002 -8.750000e+001 1.821353e+003
         vertex 6.765053e+002 -1.075000e+002 1.826732e+003
         vertex 6.513801e+002 -1.075000e+002 1.820000e+003
      endloop
   endfacet
   facet normal 2.588190e-001 1.149733e-017 -9.659258e-001
      outer loop
         vertex 6.564300e+002 -8.750000e+001 1.821353e+003
         vertex 6.513801e+002 -1.075000e+002 1.820000e+003
         vertex 6.564300e+002 1.445000e+002 1.821353e+003
      endloop
   endfacet
   facet normal 2.588190e-001 1.149733e-017 -9.659258e-001
      outer loop
         vertex 6.564300e+002 1.445000e+002 1.821353e+003
         vertex 6.513801e+002 -1.075000e+002 1.820000e+003
         vertex 6.513801e+002 1.445000e+002 1.820000e+003
      endloop
   endfacet
   facet normal -1.541976e-016 -1.040834e-017 -1.000000e+000
      outer loop
         vertex 5.534799e+002 -1.075000e+002 1.820000e+003
         vertex 5.534799e+002 1.445000e+002 1.820000e+003
         vertex 6.513801e+002 -1.075000e+002 1.820000e+003
      endloop
   endfacet
   facet normal -1.541976e-016 -1.040834e-017 -1.000000e+000
      outer loop
         vertex 6.513801e+002 -1.075000e+002 1.820000e+003
         vertex 5.534799e+002 1.445000e+002 1.820000e+003
         vertex 6.513801e+002 1.445000e+002 1.820000e+003
      endloop
   endfacet
   facet normal -2.588190e-001 -3.160470e-017 -9.659258e-001
      outer loop
         vertex 5.484301e+002 1.445000e+002 1.821353e+003
         vertex 5.534799e+002 1.445000e+002 1.820000e+003
         vertex 5.484301e+002 -8.750000e+001 1.821353e+003
      endloop
   endfacet
   facet normal -2.588190e-001 -3.160470e-017 -9.659258e-001
      outer loop
         vertex 5.484301e+002 -8.750000e+001 1.821353e+003
         vertex 5.534799e+002 1.445000e+002 1.820000e+003
         vertex 5.534799e+002 -1.075000e+002 1.820000e+003
      endloop
   endfacet
   facet normal -2.588190e-001 -3.160470e-017 -9.659258e-001
      outer loop
         vertex 5.484301e+002 -8.750000e+001 1.821353e+003
         vertex 5.534799e+002 -1.075000e+002 1.820000e+003
         vertex 5.283546e+002 -8.750000e+001 1.826732e+003
      endloop
   endfacet
   facet normal -2.588190e-001 -3.160470e-017 -9.659258e-001
      outer loop
         vertex 5.283546e+002 -8.750000e+001 1.826732e+003
         vertex 5.534799e+002 -1.075000e+002 1.820000e+003
         vertex 5.283546e+002 -1.075000e+002 1.826732e+003
      endloop
   endfacet
   facet normal -1.000000e+000 -8.326673e-017 -3.771780e-015
      outer loop
         vertex 5.484301e+002 -8.750000e+001 1.837428e+003
         vertex 5.484301e+002 1.445000e+002 1.837428e+003
         vertex 5.484301e+002 -8.750000e+001 1.821353e+003
      endloop
   endfacet
   facet normal -1.000000e+000 -8.326673e-017 -3.771780e-015
      outer loop
         vertex 5.484301e+002 -8.750000e+001 1.821353e+003
         vertex 5.484301e+002 1.445000e+002 1.837428e+003
         vertex 5.484301e+002 1.445000e+002 1.821353e+003
      endloop
   endfacet
   facet normal -5.000000e-001 7.071068e-001 -5.000000e-001
      outer loop
         vertex 5.504300e+002 1.465000e+002 1.838256e+003
         vertex 5.484301e+002 1.445000e+002 1.837428e+003
         vertex 5.306863e+002 1.465000e+002 1.858000e+003
      endloop
   endfacet
   facet normal -5.000000e-001 7.071068e-001 -5.000000e-001
      outer loop
         vertex 5.306863e+002 1.465000e+002 1.858000e+003
         vertex 5.484301e+002 1.445000e+002 1.837428e+003
         vertex 5.298578e+002 1.445000e+002 1.856000e+003
      endloop
   endfacet
   facet normal -9.016446e-017 7.071068e-001 -7.071068e-001
      outer loop
         vertex 5.306863e+002 1.465000e+002 1.858000e+003
         vertex 5.298578e+002 1.445000e+002 1.856000e+003
         vertex 5.153178e+002 1.465000e+002 1.858000e+003
      endloop
   endfacet
   facet normal -9.016446e-017 7.071068e-001 -7.071068e-001
      outer loop
         vertex 5.153178e+002 1.465000e+002 1.858000e+003
         vertex 5.298578e+002 1.445000e+002 1.856000e+003
         vertex 5.137831e+002 1.445000e+002 1.856000e+003
      endloop
   endfacet
   facet normal -6.830127e-001 7.071068e-001 -1.830127e-001
      outer loop
         vertex 5.153178e+002 1.465000e+002 1.858000e+003
         vertex 5.137831e+002 1.445000e+002 1.856000e+003
         vertex 5.144300e+002 1.465000e+002 1.861313e+003
      endloop
   endfacet
   facet normal -6.830127e-001 7.071068e-001 -1.830127e-001
      outer loop
         vertex 5.144300e+002 1.465000e+002 1.861313e+003
         vertex 5.137831e+002 1.445000e+002 1.856000e+003
         vertex 5.124300e+002 1.445000e+002 1.861050e+003
      endloop
   endfacet
   facet normal -7.071068e-001 7.071068e-001 2.858673e-017
      outer loop
         vertex 5.144300e+002 1.465000e+002 1.861313e+003
         vertex 5.124300e+002 1.445000e+002 1.861050e+003
         vertex 5.144300e+002 1.465000e+002 1.958687e+003
      endloop
   endfacet
   facet normal -7.071068e-001 7.071068e-001 2.858673e-017
      outer loop
         vertex 5.144300e+002 1.465000e+002 1.958687e+003
         vertex 5.124300e+002 1.445000e+002 1.861050e+003
         vertex 5.124300e+002 1.445000e+002 1.958950e+003
      endloop
   endfacet
   facet normal -6.830127e-001 7.071068e-001 1.830127e-001
      outer loop
         vertex 5.144300e+002 1.465000e+002 1.958687e+003
         vertex 5.124300e+002 1.445000e+002 1.958950e+003
         vertex 5.153178e+002 1.465000e+002 1.962000e+003
      endloop
   endfacet
   facet normal -6.830127e-001 7.071068e-001 1.830127e-001
      outer loop
         vertex 5.153178e+002 1.465000e+002 1.962000e+003
         vertex 5.124300e+002 1.445000e+002 1.958950e+003
         vertex 5.137831e+002 1.445000e+002 1.964000e+003
      endloop
   endfacet
   facet normal 1.886974e-017 7.071068e-001 7.071068e-001
      outer loop
         vertex 5.298578e+002 1.445000e+002 1.964000e+003
         vertex 5.306863e+002 1.465000e+002 1.962000e+003
         vertex 5.137831e+002 1.445000e+002 1.964000e+003
      endloop
   endfacet
   facet normal 1.886974e-017 7.071068e-001 7.071068e-001
      outer loop
         vertex 5.137831e+002 1.445000e+002 1.964000e+003
         vertex 5.306863e+002 1.465000e+002 1.962000e+003
         vertex 5.153178e+002 1.465000e+002 1.962000e+003
      endloop
   endfacet
   facet normal -5.000000e-001 7.071068e-001 5.000000e-001
      outer loop
         vertex 5.484301e+002 1.445000e+002 1.982572e+003
         vertex 5.504300e+002 1.465000e+002 1.981744e+003
         vertex 5.298578e+002 1.445000e+002 1.964000e+003
      endloop
   endfacet
   facet normal -5.000000e-001 7.071068e-001 5.000000e-001
      outer loop
         vertex 5.298578e+002 1.445000e+002 1.964000e+003
         vertex 5.504300e+002 1.465000e+002 1.981744e+003
         vertex 5.306863e+002 1.465000e+002 1.962000e+003
      endloop
   endfacet
   facet normal -7.071068e-001 7.071068e-001 2.843925e-015
      outer loop
         vertex 5.484301e+002 1.445000e+002 1.998647e+003
         vertex 5.504300e+002 1.465000e+002 1.997112e+003
         vertex 5.484301e+002 1.445000e+002 1.982572e+003
      endloop
   endfacet
   facet normal -7.071068e-001 7.071068e-001 2.843925e-015
      outer loop
         vertex 5.484301e+002 1.445000e+002 1.982572e+003
         vertex 5.504300e+002 1.465000e+002 1.997112e+003
         vertex 5.504300e+002 1.465000e+002 1.981744e+003
      endloop
   endfacet
   facet normal -1.830127e-001 7.071068e-001 6.830127e-001
      outer loop
         vertex 5.534799e+002 1.445000e+002 2.000000e+003
         vertex 5.537432e+002 1.465000e+002 1.998000e+003
         vertex 5.484301e+002 1.445000e+002 1.998647e+003
      endloop
   endfacet
   facet normal -1.830127e-001 7.071068e-001 6.830127e-001
      outer loop
         vertex 5.484301e+002 1.445000e+002 1.998647e+003
         vertex 5.537432e+002 1.465000e+002 1.998000e+003
         vertex 5.504300e+002 1.465000e+002 1.997112e+003
      endloop
   endfacet
   facet normal 1.886974e-017 7.071068e-001 7.071068e-001
      outer loop
         vertex 6.513801e+002 1.445000e+002 2.000000e+003
         vertex 6.511168e+002 1.465000e+002 1.998000e+003
         vertex 5.534799e+002 1.445000e+002 2.000000e+003
      endloop
   endfacet
   facet normal 1.886974e-017 7.071068e-001 7.071068e-001
      outer loop
         vertex 5.534799e+002 1.445000e+002 2.000000e+003
         vertex 6.511168e+002 1.465000e+002 1.998000e+003
         vertex 5.537432e+002 1.465000e+002 1.998000e+003
      endloop
   endfacet
   facet normal 1.830127e-001 7.071068e-001 6.830127e-001
      outer loop
         vertex 6.564300e+002 1.445000e+002 1.998647e+003
         vertex 6.544300e+002 1.465000e+002 1.997112e+003
         vertex 6.513801e+002 1.445000e+002 2.000000e+003
      endloop
   endfacet
   facet normal 1.830127e-001 7.071068e-001 6.830127e-001
      outer loop
         vertex 6.513801e+002 1.445000e+002 2.000000e+003
         vertex 6.544300e+002 1.465000e+002 1.997112e+003
         vertex 6.511168e+002 1.465000e+002 1.998000e+003
      endloop
   endfacet
   facet normal 7.071068e-001 7.071068e-001 2.765420e-015
      outer loop
         vertex 6.564300e+002 1.445000e+002 1.982572e+003
         vertex 6.544300e+002 1.465000e+002 1.981744e+003
         vertex 6.564300e+002 1.445000e+002 1.998647e+003
      endloop
   endfacet
   facet normal 7.071068e-001 7.071068e-001 2.765420e-015
      outer loop
         vertex 6.564300e+002 1.445000e+002 1.998647e+003
         vertex 6.544300e+002 1.465000e+002 1.981744e+003
         vertex 6.544300e+002 1.465000e+002 1.997112e+003
      endloop
   endfacet
   facet normal 5.000000e-001 7.071068e-001 5.000000e-001
      outer loop
         vertex 6.750021e+002 1.445000e+002 1.964000e+003
         vertex 6.741737e+002 1.465000e+002 1.962000e+003
         vertex 6.564300e+002 1.445000e+002 1.982572e+003
      endloop
   endfacet
   facet normal 5.000000e-001 7.071068e-001 5.000000e-001
      outer loop
         vertex 6.564300e+002 1.445000e+002 1.982572e+003
         vertex 6.741737e+002 1.465000e+002 1.962000e+003
         vertex 6.544300e+002 1.465000e+002 1.981744e+003
      endloop
   endfacet
   facet normal 1.886974e-017 7.071068e-001 7.071068e-001
      outer loop
         vertex 6.910769e+002 1.445000e+002 1.964000e+003
         vertex 6.895422e+002 1.465000e+002 1.962000e+003
         vertex 6.750021e+002 1.445000e+002 1.964000e+003
      endloop
   endfacet
   facet normal 1.886974e-017 7.071068e-001 7.071068e-001
      outer loop
         vertex 6.750021e+002 1.445000e+002 1.964000e+003
         vertex 6.895422e+002 1.465000e+002 1.962000e+003
         vertex 6.741737e+002 1.465000e+002 1.962000e+003
      endloop
   endfacet
   facet normal 6.830127e-001 7.071068e-001 1.830127e-001
      outer loop
         vertex 6.924300e+002 1.445000e+002 1.958950e+003
         vertex 6.904300e+002 1.465000e+002 1.958687e+003
         vertex 6.910769e+002 1.445000e+002 1.964000e+003
      endloop
   endfacet
   facet normal 6.830127e-001 7.071068e-001 1.830127e-001
      outer loop
         vertex 6.910769e+002 1.445000e+002 1.964000e+003
         vertex 6.904300e+002 1.465000e+002 1.958687e+003
         vertex 6.895422e+002 1.465000e+002 1.962000e+003
      endloop
   endfacet
   facet normal 7.071068e-001 7.071068e-001 -4.991789e-017
      outer loop
         vertex 6.924300e+002 1.445000e+002 1.861050e+003
         vertex 6.904300e+002 1.465000e+002 1.861313e+003
         vertex 6.924300e+002 1.445000e+002 1.958950e+003
      endloop
   endfacet
   facet normal 7.071068e-001 7.071068e-001 -4.991789e-017
      outer loop
         vertex 6.924300e+002 1.445000e+002 1.958950e+003
         vertex 6.904300e+002 1.465000e+002 1.861313e+003
         vertex 6.904300e+002 1.465000e+002 1.958687e+003
      endloop
   endfacet
   facet normal 6.830127e-001 7.071068e-001 -1.830127e-001
      outer loop
         vertex 6.910769e+002 1.445000e+002 1.856000e+003
         vertex 6.895422e+002 1.465000e+002 1.858000e+003
         vertex 6.924300e+002 1.445000e+002 1.861050e+003
      endloop
   endfacet
   facet normal 6.830127e-001 7.071068e-001 -1.830127e-001
      outer loop
         vertex 6.924300e+002 1.445000e+002 1.861050e+003
         vertex 6.895422e+002 1.465000e+002 1.858000e+003
         vertex 6.904300e+002 1.465000e+002 1.861313e+003
      endloop
   endfacet
   facet normal -9.016446e-017 7.071068e-001 -7.071068e-001
      outer loop
         vertex 6.750021e+002 1.445000e+002 1.856000e+003
         vertex 6.741737e+002 1.465000e+002 1.858000e+003
         vertex 6.910769e+002 1.445000e+002 1.856000e+003
      endloop
   endfacet
   facet normal -9.016446e-017 7.071068e-001 -7.071068e-001
      outer loop
         vertex 6.910769e+002 1.445000e+002 1.856000e+003
         vertex 6.741737e+002 1.465000e+002 1.858000e+003
         vertex 6.895422e+002 1.465000e+002 1.858000e+003
      endloop
   endfacet
   facet normal 5.000000e-001 7.071068e-001 -5.000000e-001
      outer loop
         vertex 6.741737e+002 1.465000e+002 1.858000e+003
         vertex 6.750021e+002 1.445000e+002 1.856000e+003
         vertex 6.544300e+002 1.465000e+002 1.838256e+003
      endloop
   endfacet
   facet normal 5.000000e-001 7.071068e-001 -5.000000e-001
      outer loop
         vertex 6.544300e+002 1.465000e+002 1.838256e+003
         vertex 6.750021e+002 1.445000e+002 1.856000e+003
         vertex 6.564300e+002 1.445000e+002 1.837428e+003
      endloop
   endfacet
   facet normal 7.071068e-001 7.071068e-001 -2.974290e-015
      outer loop
         vertex 6.544300e+002 1.465000e+002 1.838256e+003
         vertex 6.564300e+002 1.445000e+002 1.837428e+003
         vertex 6.544300e+002 1.465000e+002 1.822888e+003
      endloop
   endfacet
   facet normal 7.071068e-001 7.071068e-001 -2.974290e-015
      outer loop
         vertex 6.544300e+002 1.465000e+002 1.822888e+003
         vertex 6.564300e+002 1.445000e+002 1.837428e+003
         vertex 6.564300e+002 1.445000e+002 1.821353e+003
      endloop
   endfacet
   facet normal 1.830127e-001 7.071068e-001 -6.830127e-001
      outer loop
         vertex 6.544300e+002 1.465000e+002 1.822888e+003
         vertex 6.564300e+002 1.445000e+002 1.821353e+003
         vertex 6.511168e+002 1.465000e+002 1.822000e+003
      endloop
   endfacet
   facet normal 1.830127e-001 7.071068e-001 -6.830127e-001
      outer loop
         vertex 6.511168e+002 1.465000e+002 1.822000e+003
         vertex 6.564300e+002 1.445000e+002 1.821353e+003
         vertex 6.513801e+002 1.445000e+002 1.820000e+003
      endloop
   endfacet
   facet normal -9.016446e-017 7.071068e-001 -7.071068e-001
      outer loop
         vertex 6.511168e+002 1.465000e+002 1.822000e+003
         vertex 6.513801e+002 1.445000e+002 1.820000e+003
         vertex 5.537432e+002 1.465000e+002 1.822000e+003
      endloop
   endfacet
   facet normal -9.016446e-017 7.071068e-001 -7.071068e-001
      outer loop
         vertex 5.537432e+002 1.465000e+002 1.822000e+003
         vertex 6.513801e+002 1.445000e+002 1.820000e+003
         vertex 5.534799e+002 1.445000e+002 1.820000e+003
      endloop
   endfacet
   facet normal -1.830127e-001 7.071068e-001 -6.830127e-001
      outer loop
         vertex 5.537432e+002 1.465000e+002 1.822000e+003
         vertex 5.534799e+002 1.445000e+002 1.820000e+003
         vertex 5.504300e+002 1.465000e+002 1.822888e+003
      endloop
   endfacet
   facet normal -1.830127e-001 7.071068e-001 -6.830127e-001
      outer loop
         vertex 5.504300e+002 1.465000e+002 1.822888e+003
         vertex 5.534799e+002 1.445000e+002 1.820000e+003
         vertex 5.484301e+002 1.445000e+002 1.821353e+003
      endloop
   endfacet
   facet normal -7.071068e-001 7.071068e-001 -2.677717e-015
      outer loop
         vertex 5.504300e+002 1.465000e+002 1.822888e+003
         vertex 5.484301e+002 1.445000e+002 1.821353e+003
         vertex 5.504300e+002 1.465000e+002 1.838256e+003
      endloop
   endfacet
   facet normal -7.071068e-001 7.071068e-001 -2.677717e-015
      outer loop
         vertex 5.504300e+002 1.465000e+002 1.838256e+003
         vertex 5.484301e+002 1.445000e+002 1.821353e+003
         vertex 5.484301e+002 1.445000e+002 1.837428e+003
      endloop
   endfacet
   facet normal 0.000000e+000 1.000000e+000 -1.508341e-017
      outer loop
         vertex 5.144300e+002 1.465000e+002 1.861313e+003
         vertex 5.144300e+002 1.465000e+002 1.958687e+003
         vertex 6.544300e+002 1.465000e+002 1.981744e+003
      endloop
   endfacet
   facet normal 0.000000e+000 1.000000e+000 -1.508341e-017
      outer loop
         vertex 5.504300e+002 1.465000e+002 1.838256e+003
         vertex 5.306863e+002 1.465000e+002 1.858000e+003
         vertex 6.544300e+002 1.465000e+002 1.838256e+003
      endloop
   endfacet
   facet normal 0.000000e+000 1.000000e+000 -1.508341e-017
      outer loop
         vertex 5.504300e+002 1.465000e+002 1.981744e+003
         vertex 6.544300e+002 1.465000e+002 1.981744e+003
         vertex 5.306863e+002 1.465000e+002 1.962000e+003
      endloop
   endfacet
   facet normal 0.000000e+000 1.000000e+000 -1.508341e-017
      outer loop
         vertex 5.306863e+002 1.465000e+002 1.962000e+003
         vertex 6.544300e+002 1.465000e+002 1.981744e+003
         vertex 5.144300e+002 1.465000e+002 1.958687e+003
      endloop
   endfacet
   facet normal 0.000000e+000 1.000000e+000 -1.508341e-017
      outer loop
         vertex 5.306863e+002 1.465000e+002 1.962000e+003
         vertex 5.144300e+002 1.465000e+002 1.958687e+003
         vertex 5.153178e+002 1.465000e+002 1.962000e+003
      endloop
   endfacet
   facet normal 0.000000e+000 1.000000e+000 -1.508341e-017
      outer loop
         vertex 6.544300e+002 1.465000e+002 1.838256e+003
         vertex 5.306863e+002 1.465000e+002 1.858000e+003
         vertex 6.741737e+002 1.465000e+002 1.858000e+003
      endloop
   endfacet
   facet normal 0.000000e+000 1.000000e+000 -1.508341e-017
      outer loop
         vertex 6.544300e+002 1.465000e+002 1.997112e+003
         vertex 6.544300e+002 1.465000e+002 1.981744e+003
         vertex 6.511168e+002 1.465000e+002 1.998000e+003
      endloop
   endfacet
   facet normal 0.000000e+000 1.000000e+000 -1.508341e-017
      outer loop
         vertex 6.511168e+002 1.465000e+002 1.998000e+003
         vertex 6.544300e+002 1.465000e+002 1.981744e+003
         vertex 5.504300e+002 1.465000e+002 1.981744e+003
      endloop
   endfacet
   facet normal 0.000000e+000 1.000000e+000 -1.508341e-017
      outer loop
         vertex 6.511168e+002 1.465000e+002 1.998000e+003
         vertex 5.504300e+002 1.465000e+002 1.981744e+003
         vertex 5.537432e+002 1.465000e+002 1.998000e+003
      endloop
   endfacet
   facet normal 0.000000e+000 1.000000e+000 -1.508341e-017
      outer loop
         vertex 5.537432e+002 1.465000e+002 1.998000e+003
         vertex 5.504300e+002 1.465000e+002 1.981744e+003
         vertex 5.504300e+002 1.465000e+002 1.997112e+003
      endloop
   endfacet
   facet normal 0.000000e+000 1.000000e+000 -1.508341e-017
      outer loop
         vertex 6.904300e+002 1.465000e+002 1.861313e+003
         vertex 6.895422e+002 1.465000e+002 1.858000e+003
         vertex 6.741737e+002 1.465000e+002 1.858000e+003
      endloop
   endfacet
   facet normal 0.000000e+000 1.000000e+000 -1.508341e-017
      outer loop
         vertex 5.504300e+002 1.465000e+002 1.822888e+003
         vertex 5.504300e+002 1.465000e+002 1.838256e+003
         vertex 5.537432e+002 1.465000e+002 1.822000e+003
      endloop
   endfacet
   facet normal 0.000000e+000 1.000000e+000 -1.508341e-017
      outer loop
         vertex 5.537432e+002 1.465000e+002 1.822000e+003
         vertex 5.504300e+002 1.465000e+002 1.838256e+003
         vertex 6.544300e+002 1.465000e+002 1.838256e+003
      endloop
   endfacet
   facet normal 0.000000e+000 1.000000e+000 -1.508341e-017
      outer loop
         vertex 5.537432e+002 1.465000e+002 1.822000e+003
         vertex 6.544300e+002 1.465000e+002 1.838256e+003
         vertex 6.511168e+002 1.465000e+002 1.822000e+003
      endloop
   endfacet
   facet normal 0.000000e+000 1.000000e+000 -1.508341e-017
      outer loop
         vertex 6.511168e+002 1.465000e+002 1.822000e+003
         vertex 6.544300e+002 1.465000e+002 1.838256e+003
         vertex 6.544300e+002 1.465000e+002 1.822888e+003
      endloop
   endfacet
   facet normal 0.000000e+000 1.000000e+000 -1.508341e-017
      outer loop
         vertex 6.741737e+002 1.465000e+002 1.962000e+003
         vertex 6.895422e+002 1.465000e+002 1.962000e+003
         vertex 6.904300e+002 1.465000e+002 1.958687e+003
      endloop
   endfacet
   facet normal 0.000000e+000 1.000000e+000 -1.508341e-017
      outer loop
         vertex 6.904300e+002 1.465000e+002 1.958687e+003
         vertex 6.904300e+002 1.465000e+002 1.861313e+003
         vertex 6.741737e+002 1.465000e+002 1.962000e+003
      endloop
   endfacet
   facet normal 0.000000e+000 1.000000e+000 -1.508341e-017
      outer loop
         vertex 6.741737e+002 1.465000e+002 1.962000e+003
         vertex 6.904300e+002 1.465000e+002 1.861313e+003
         vertex 6.741737e+002 1.465000e+002 1.858000e+003
      endloop
   endfacet
   facet normal 0.000000e+000 1.000000e+000 -1.508341e-017
      outer loop
         vertex 6.741737e+002 1.465000e+002 1.962000e+003
         vertex 6.741737e+002 1.465000e+002 1.858000e+003
         vertex 6.544300e+002 1.465000e+002 1.981744e+003
      endloop
   endfacet
   facet normal 0.000000e+000 1.000000e+000 -1.508341e-017
      outer loop
         vertex 6.544300e+002 1.465000e+002 1.981744e+003
         vertex 6.741737e+002 1.465000e+002 1.858000e+003
         vertex 5.306863e+002 1.465000e+002 1.858000e+003
      endloop
   endfacet
   facet normal 0.000000e+000 1.000000e+000 -1.508341e-017
      outer loop
         vertex 6.544300e+002 1.465000e+002 1.981744e+003
         vertex 5.306863e+002 1.465000e+002 1.858000e+003
         vertex 5.144300e+002 1.465000e+002 1.861313e+003
      endloop
   endfacet
   facet normal 0.000000e+000 1.000000e+000 -1.508341e-017
      outer loop
         vertex 5.144300e+002 1.465000e+002 1.861313e+003
         vertex 5.306863e+002 1.465000e+002 1.858000e+003
         vertex 5.153178e+002 1.465000e+002 1.858000e+003
      endloop
   endfacet
endsolid