solid Created by stlwrite.m 31-Oct-2018 14:37:36
facet normal -3.0901584E-01 0.0000000E+00 9.5105690E-01
outer loop
vertex 0.0000000E+00 5.0000001E-02 4.7999999E-01
vertex -1.7633557E-02 5.0000001E-02 4.7427052E-01
vertex -1.7633557E-02 -5.0000001E-02 4.7427052E-01
endloop
endfacet
facet normal -3.0901584E-01 0.0000000E+00 9.5105690E-01
outer loop
vertex -1.7633557E-02 -5.0000001E-02 4.7427052E-01
vertex 0.0000000E+00 -5.0000001E-02 4.7999999E-01
vertex 0.0000000E+00 5.0000001E-02 4.7999999E-01
endloop
endfacet
facet normal -8.0901730E-01 0.0000000E+00 5.8778483E-01
outer loop
vertex -1.7633557E-02 5.0000001E-02 4.7427052E-01
vertex -2.8531695E-02 5.0000001E-02 4.5927051E-01
vertex -2.8531695E-02 -5.0000001E-02 4.5927051E-01
endloop
endfacet
facet normal -8.0901730E-01 0.0000000E+00 5.8778483E-01
outer loop
vertex -2.8531695E-02 -5.0000001E-02 4.5927051E-01
vertex -1.7633557E-02 -5.0000001E-02 4.7427052E-01
vertex -1.7633557E-02 5.0000001E-02 4.7427052E-01
endloop
endfacet
facet normal -9.9999994E-01 0.0000000E+00 -0.0000000E+00
outer loop
vertex -2.8531695E-02 5.0000001E-02 4.5927051E-01
vertex -2.8531695E-02 5.0000001E-02 4.4072950E-01
vertex -2.8531695E-02 -5.0000001E-02 4.4072950E-01
endloop
endfacet
facet normal -9.9999994E-01 0.0000000E+00 0.0000000E+00
outer loop
vertex -2.8531695E-02 -5.0000001E-02 4.4072950E-01
vertex -2.8531695E-02 -5.0000001E-02 4.5927051E-01
vertex -2.8531695E-02 5.0000001E-02 4.5927051E-01
endloop
endfacet
facet normal -8.0901730E-01 0.0000000E+00 -5.8778483E-01
outer loop
vertex -2.8531695E-02 5.0000001E-02 4.4072950E-01
vertex -1.7633557E-02 5.0000001E-02 4.2572948E-01
vertex -1.7633557E-02 -5.0000001E-02 4.2572948E-01
endloop
endfacet
facet normal -8.0901730E-01 0.0000000E+00 -5.8778483E-01
outer loop
vertex -1.7633557E-02 -5.0000001E-02 4.2572948E-01
vertex -2.8531695E-02 -5.0000001E-02 4.4072950E-01
vertex -2.8531695E-02 5.0000001E-02 4.4072950E-01
endloop
endfacet
facet normal -3.0901730E-01 0.0000000E+00 -9.5105642E-01
outer loop
vertex -1.7633557E-02 5.0000001E-02 4.2572948E-01
vertex -3.6739405E-18 5.0000001E-02 4.1999999E-01
vertex -3.6739405E-18 -5.0000001E-02 4.1999999E-01
endloop
endfacet
facet normal -3.0901730E-01 0.0000000E+00 -9.5105642E-01
outer loop
vertex -3.6739405E-18 -5.0000001E-02 4.1999999E-01
vertex -1.7633557E-02 -5.0000001E-02 4.2572948E-01
vertex -1.7633557E-02 5.0000001E-02 4.2572948E-01
endloop
endfacet
facet normal 3.0901730E-01 0.0000000E+00 -9.5105642E-01
outer loop
vertex -3.6739405E-18 5.0000001E-02 4.1999999E-01
vertex 1.7633557E-02 5.0000001E-02 4.2572948E-01
vertex 1.7633557E-02 -5.0000001E-02 4.2572948E-01
endloop
endfacet
facet normal 3.0901730E-01 0.0000000E+00 -9.5105642E-01
outer loop
vertex 1.7633557E-02 -5.0000001E-02 4.2572948E-01
vertex -3.6739405E-18 -5.0000001E-02 4.1999999E-01
vertex -3.6739405E-18 5.0000001E-02 4.1999999E-01
endloop
endfacet
facet normal 8.0901730E-01 0.0000000E+00 -5.8778483E-01
outer loop
vertex 1.7633557E-02 5.0000001E-02 4.2572948E-01
vertex 2.8531695E-02 5.0000001E-02 4.4072950E-01
vertex 2.8531695E-02 -5.0000001E-02 4.4072950E-01
endloop
endfacet
facet normal 8.0901730E-01 0.0000000E+00 -5.8778483E-01
outer loop
vertex 2.8531695E-02 -5.0000001E-02 4.4072950E-01
vertex 1.7633557E-02 -5.0000001E-02 4.2572948E-01
vertex 1.7633557E-02 5.0000001E-02 4.2572948E-01
endloop
endfacet
facet normal 9.9999994E-01 0.0000000E+00 -0.0000000E+00
outer loop
vertex 2.8531695E-02 5.0000001E-02 4.4072950E-01
vertex 2.8531695E-02 5.0000001E-02 4.5927051E-01
vertex 2.8531695E-02 -5.0000001E-02 4.5927051E-01
endloop
endfacet
facet normal 9.9999994E-01 0.0000000E+00 0.0000000E+00
outer loop
vertex 2.8531695E-02 -5.0000001E-02 4.5927051E-01
vertex 2.8531695E-02 -5.0000001E-02 4.4072950E-01
vertex 2.8531695E-02 5.0000001E-02 4.4072950E-01
endloop
endfacet
facet normal 8.0901730E-01 0.0000000E+00 5.8778483E-01
outer loop
vertex 2.8531695E-02 5.0000001E-02 4.5927051E-01
vertex 1.7633557E-02 5.0000001E-02 4.7427052E-01
vertex 1.7633557E-02 -5.0000001E-02 4.7427052E-01
endloop
endfacet
facet normal 8.0901730E-01 0.0000000E+00 5.8778483E-01
outer loop
vertex 1.7633557E-02 -5.0000001E-02 4.7427052E-01
vertex 2.8531695E-02 -5.0000001E-02 4.5927051E-01
vertex 2.8531695E-02 5.0000001E-02 4.5927051E-01
endloop
endfacet
facet normal 3.0901584E-01 0.0000000E+00 9.5105690E-01
outer loop
vertex 1.7633557E-02 5.0000001E-02 4.7427052E-01
vertex 0.0000000E+00 5.0000001E-02 4.7999999E-01
vertex 0.0000000E+00 -5.0000001E-02 4.7999999E-01
endloop
endfacet
facet normal 3.0901584E-01 0.0000000E+00 9.5105690E-01
outer loop
vertex 0.0000000E+00 -5.0000001E-02 4.7999999E-01
vertex 1.7633557E-02 -5.0000001E-02 4.7427052E-01
vertex 1.7633557E-02 5.0000001E-02 4.7427052E-01
endloop
endfacet
facet normal 3.0894801E-01 9.5084411E-01 -2.1129865E-02
outer loop
vertex 0.0000000E+00 -5.0000001E-02 0.0000000E+00
vertex -2.9389262E-02 -4.0450849E-02 0.0000000E+00
vertex -2.3511410E-02 -3.2360680E-02 4.4999999E-01
endloop
endfacet
facet normal 3.0894795E-01 9.5084417E-01 -2.1129875E-02
outer loop
vertex -2.3511410E-02 -3.2360680E-02 4.4999999E-01
vertex 0.0000000E+00 -3.9999999E-02 4.4999999E-01
vertex 0.0000000E+00 -5.0000001E-02 0.0000000E+00
endloop
endfacet
facet normal 8.0883628E-01 5.8765411E-01 -2.1129873E-02
outer loop
vertex -2.9389262E-02 -4.0450849E-02 0.0000000E+00
vertex -4.7552828E-02 -1.5450850E-02 0.0000000E+00
vertex -3.8042262E-02 -1.2360680E-02 4.4999999E-01
endloop
endfacet
facet normal 8.0883640E-01 5.8765411E-01 -2.1129873E-02
outer loop
vertex -3.8042262E-02 -1.2360680E-02 4.4999999E-01
vertex -2.3511410E-02 -3.2360680E-02 4.4999999E-01
vertex -2.9389262E-02 -4.0450849E-02 0.0000000E+00
endloop
endfacet
facet normal 9.9977678E-01 0.0000000E+00 -2.1129873E-02
outer loop
vertex -4.7552828E-02 -1.5450850E-02 0.0000000E+00
vertex -4.7552828E-02 1.5450850E-02 0.0000000E+00
vertex -3.8042262E-02 1.2360680E-02 4.4999999E-01
endloop
endfacet
facet normal 9.9977678E-01 0.0000000E+00 -2.1129873E-02
outer loop
vertex -3.8042262E-02 1.2360680E-02 4.4999999E-01
vertex -3.8042262E-02 -1.2360680E-02 4.4999999E-01
vertex -4.7552828E-02 -1.5450850E-02 0.0000000E+00
endloop
endfacet
facet normal 8.0883628E-01 -5.8765411E-01 -2.1129869E-02
outer loop
vertex -4.7552828E-02 1.5450850E-02 0.0000000E+00
vertex -2.9389262E-02 4.0450849E-02 0.0000000E+00
vertex -2.3511410E-02 3.2360680E-02 4.4999999E-01
endloop
endfacet
facet normal 8.0883640E-01 -5.8765411E-01 -2.1129873E-02
outer loop
vertex -2.3511410E-02 3.2360680E-02 4.4999999E-01
vertex -3.8042262E-02 1.2360680E-02 4.4999999E-01
vertex -4.7552828E-02 1.5450850E-02 0.0000000E+00
endloop
endfacet
facet normal 3.0894801E-01 -9.5084411E-01 -2.1129871E-02
outer loop
vertex -2.9389262E-02 4.0450849E-02 0.0000000E+00
vertex -6.1232338E-18 5.0000001E-02 0.0000000E+00
vertex -4.8985872E-18 3.9999999E-02 4.4999999E-01
endloop
endfacet
facet normal 3.0894795E-01 -9.5084417E-01 -2.1129867E-02
outer loop
vertex -4.8985872E-18 3.9999999E-02 4.4999999E-01
vertex -2.3511410E-02 3.2360680E-02 4.4999999E-01
vertex -2.9389262E-02 4.0450849E-02 0.0000000E+00
endloop
endfacet
facet normal -3.0894801E-01 -9.5084411E-01 -2.1129865E-02
outer loop
vertex -6.1232338E-18 5.0000001E-02 0.0000000E+00
vertex 2.9389262E-02 4.0450849E-02 0.0000000E+00
vertex 2.3511410E-02 3.2360680E-02 4.4999999E-01
endloop
endfacet
facet normal -3.0894795E-01 -9.5084417E-01 -2.1129875E-02
outer loop
vertex 2.3511410E-02 3.2360680E-02 4.4999999E-01
vertex -4.8985872E-18 3.9999999E-02 4.4999999E-01
vertex -6.1232338E-18 5.0000001E-02 0.0000000E+00
endloop
endfacet
facet normal -8.0883628E-01 -5.8765411E-01 -2.1129873E-02
outer loop
vertex 2.9389262E-02 4.0450849E-02 0.0000000E+00
vertex 4.7552828E-02 1.5450850E-02 0.0000000E+00
vertex 3.8042262E-02 1.2360680E-02 4.4999999E-01
endloop
endfacet
facet normal -8.0883640E-01 -5.8765411E-01 -2.1129873E-02
outer loop
vertex 3.8042262E-02 1.2360680E-02 4.4999999E-01
vertex 2.3511410E-02 3.2360680E-02 4.4999999E-01
vertex 2.9389262E-02 4.0450849E-02 0.0000000E+00
endloop
endfacet
facet normal -9.9977678E-01 -0.0000000E+00 -2.1129873E-02
outer loop
vertex 4.7552828E-02 1.5450850E-02 0.0000000E+00
vertex 4.7552828E-02 -1.5450850E-02 0.0000000E+00
vertex 3.8042262E-02 -1.2360680E-02 4.4999999E-01
endloop
endfacet
facet normal -9.9977678E-01 0.0000000E+00 -2.1129873E-02
outer loop
vertex 3.8042262E-02 -1.2360680E-02 4.4999999E-01
vertex 3.8042262E-02 1.2360680E-02 4.4999999E-01
vertex 4.7552828E-02 1.5450850E-02 0.0000000E+00
endloop
endfacet
facet normal -8.0883628E-01 5.8765411E-01 -2.1129869E-02
outer loop
vertex 4.7552828E-02 -1.5450850E-02 0.0000000E+00
vertex 2.9389262E-02 -4.0450849E-02 0.0000000E+00
vertex 2.3511410E-02 -3.2360680E-02 4.4999999E-01
endloop
endfacet
facet normal -8.0883640E-01 5.8765411E-01 -2.1129873E-02
outer loop
vertex 2.3511410E-02 -3.2360680E-02 4.4999999E-01
vertex 3.8042262E-02 -1.2360680E-02 4.4999999E-01
vertex 4.7552828E-02 -1.5450850E-02 0.0000000E+00
endloop
endfacet
facet normal -3.0894801E-01 9.5084411E-01 -2.1129871E-02
outer loop
vertex 2.9389262E-02 -4.0450849E-02 0.0000000E+00
vertex 0.0000000E+00 -5.0000001E-02 0.0000000E+00
vertex 0.0000000E+00 -3.9999999E-02 4.4999999E-01
endloop
endfacet
facet normal -3.0894795E-01 9.5084417E-01 -2.1129867E-02
outer loop
vertex 0.0000000E+00 -3.9999999E-02 4.4999999E-01
vertex 2.3511410E-02 -3.2360680E-02 4.4999999E-01
vertex 2.9389262E-02 -4.0450849E-02 0.0000000E+00
endloop
endfacet
endsolid Created by stlwrite.m 31-Oct-2018 14:37:36
