solid Created by stlwrite.m 10-Dec-2019 21:17:20
facet normal -0.0000000E+00 0.0000000E+00 -9.9999994E-01
outer loop
vertex -4.2214610E-02 2.7965510E-02 -5.5000000E-02
vertex -4.4387050E-02 2.2193549E-02 -5.5000000E-02
vertex -2.3000000E-01 8.5000001E-02 -5.5000000E-02
endloop
endfacet
facet normal 0.0000000E+00 0.0000000E+00 -1.0000000E+00
outer loop
vertex -2.3000000E-01 8.5000001E-02 -5.5000000E-02
vertex -4.4387050E-02 2.2193549E-02 -5.5000000E-02
vertex -4.2214639E-02 1.4249140E-02 -5.5000000E-02
endloop
endfacet
facet normal 0.0000000E+00 -0.0000000E+00 -1.0000000E+00
outer loop
vertex -2.3000000E-01 8.5000001E-02 -5.5000000E-02
vertex -4.2214639E-02 1.4249140E-02 -5.5000000E-02
vertex -3.6000001E-01 -1.6000001E-02 -5.5000000E-02
endloop
endfacet
facet normal 0.0000000E+00 0.0000000E+00 -9.9999994E-01
outer loop
vertex -3.6000001E-01 -1.6000001E-02 -5.5000000E-02
vertex -4.2214639E-02 1.4249140E-02 -5.5000000E-02
vertex -3.5909917E-02 4.9099182E-03 -5.5000000E-02
endloop
endfacet
facet normal 0.0000000E+00 0.0000000E+00 -1.0000000E+00
outer loop
vertex -3.6000001E-01 -1.6000001E-02 -5.5000000E-02
vertex -3.5909917E-02 4.9099182E-03 -5.5000000E-02
vertex -3.5400000E-01 -2.2000000E-02 -5.5000000E-02
endloop
endfacet
facet normal 0.0000000E+00 0.0000000E+00 -1.0000000E+00
outer loop
vertex -3.5400000E-01 -2.2000000E-02 -5.5000000E-02
vertex -3.5909917E-02 4.9099182E-03 -5.5000000E-02
vertex -2.6090082E-02 -4.9099182E-03 -5.5000000E-02
endloop
endfacet
facet normal 0.0000000E+00 0.0000000E+00 -1.0000000E+00
outer loop
vertex -3.5400000E-01 -2.2000000E-02 -5.5000000E-02
vertex -2.6090082E-02 -4.9099182E-03 -5.5000000E-02
vertex -1.3716360E-02 -1.4249140E-02 -5.5000000E-02
endloop
endfacet
facet normal 0.0000000E+00 0.0000000E+00 -1.0000000E+00
outer loop
vertex -3.6000001E-01 -1.6000001E-02 -5.5000000E-02
vertex -4.7200000E-01 -1.6000001E-02 -5.5000000E-02
vertex -2.3000000E-01 8.5000001E-02 -5.5000000E-02
endloop
endfacet
facet normal 0.0000000E+00 0.0000000E+00 -1.0000000E+00
outer loop
vertex -2.3000000E-01 8.5000001E-02 -5.5000000E-02
vertex -4.7200000E-01 -1.6000001E-02 -5.5000000E-02
vertex -5.0573903E-01 1.7739059E-02 -5.5000000E-02
endloop
endfacet
facet normal 0.0000000E+00 0.0000000E+00 -1.0000000E+00
outer loop
vertex -2.3000000E-01 8.5000001E-02 -5.5000000E-02
vertex -5.0573903E-01 1.7739059E-02 -5.5000000E-02
vertex -5.5044407E-01 5.1480751E-02 -5.5000000E-02
endloop
endfacet
facet normal 0.0000000E+00 0.0000000E+00 -1.0000000E+00
outer loop
vertex -2.6090100E-02 3.0999999E-02 -5.5000000E-02
vertex -3.5909899E-02 3.0999999E-02 -5.5000000E-02
vertex -7.0000000E-02 5.0999999E-02 -5.5000000E-02
endloop
endfacet
facet normal 0.0000000E+00 0.0000000E+00 -9.9999994E-01
outer loop
vertex -7.0000000E-02 5.0999999E-02 -5.5000000E-02
vertex -3.5909899E-02 3.0999999E-02 -5.5000000E-02
vertex -4.2214610E-02 2.7965510E-02 -5.5000000E-02
endloop
endfacet
facet normal -0.0000000E+00 -0.0000000E+00 -1.0000000E+00
outer loop
vertex -7.0000000E-02 5.0999999E-02 -5.5000000E-02
vertex -4.2214610E-02 2.7965510E-02 -5.5000000E-02
vertex -2.3000000E-01 8.5000001E-02 -5.5000000E-02
endloop
endfacet
facet normal 0.0000000E+00 0.0000000E+00 -1.0000000E+00
outer loop
vertex -6.0000002E-01 8.0183148E-02 -5.5000000E-02
vertex -2.3000000E-01 8.5000001E-02 -5.5000000E-02
vertex -5.5044407E-01 5.1480751E-02 -5.5000000E-02
endloop
endfacet
facet normal 0.0000000E+00 0.0000000E+00 -1.0000000E+00
outer loop
vertex -7.0000000E-02 5.0999999E-02 -5.5000000E-02
vertex -1.4119430E-02 2.8064329E-02 -5.5000000E-02
vertex -2.6090100E-02 3.0999999E-02 -5.5000000E-02
endloop
endfacet
facet normal 0.0000000E+00 -0.0000000E+00 -1.0000000E+00
outer loop
vertex -1.3716360E-02 -1.4249140E-02 -5.5000000E-02
vertex -3.3420001E-04 -2.2000000E-02 -5.5000000E-02
vertex -3.5400000E-01 -2.2000000E-02 -5.5000000E-02
endloop
endfacet
facet normal 0.0000000E+00 0.0000000E+00 -1.0000000E+00
outer loop
vertex -6.0000002E-01 8.0183148E-02 -5.5000000E-02
vertex -6.1144668E-01 8.5000001E-02 -5.5000000E-02
vertex -2.3000000E-01 8.5000001E-02 -5.5000000E-02
endloop
endfacet
facet normal 3.7970242E-01 9.2510867E-01 -0.0000000E+00
outer loop
vertex -7.0000000E-02 5.0999999E-02 -5.5000000E-02
vertex -7.0000000E-02 5.0999999E-02 5.5000000E-02
vertex -1.4119430E-02 2.8064329E-02 -5.5000000E-02
endloop
endfacet
facet normal 3.7970242E-01 9.2510867E-01 -0.0000000E+00
outer loop
vertex -1.4119430E-02 2.8064329E-02 -5.5000000E-02
vertex -7.0000000E-02 5.0999999E-02 5.5000000E-02
vertex -1.4119430E-02 2.8064329E-02 5.5000000E-02
endloop
endfacet
facet normal 0.0000000E+00 0.0000000E+00 1.0000000E+00
outer loop
vertex -4.2214639E-02 1.4249140E-02 5.5000000E-02
vertex -2.3000000E-01 8.5000001E-02 5.5000000E-02
vertex -3.5909917E-02 4.9099182E-03 5.5000000E-02
endloop
endfacet
facet normal 0.0000000E+00 0.0000000E+00 1.0000000E+00
outer loop
vertex -3.5909917E-02 4.9099182E-03 5.5000000E-02
vertex -2.3000000E-01 8.5000001E-02 5.5000000E-02
vertex -5.0573903E-01 1.7739059E-02 5.5000000E-02
endloop
endfacet
facet normal 0.0000000E+00 0.0000000E+00 1.0000000E+00
outer loop
vertex -3.5909917E-02 4.9099182E-03 5.5000000E-02
vertex -5.0573903E-01 1.7739059E-02 5.5000000E-02
vertex -2.6090082E-02 -4.9099182E-03 5.5000000E-02
endloop
endfacet
facet normal 0.0000000E+00 0.0000000E+00 1.0000000E+00
outer loop
vertex -2.6090082E-02 -4.9099182E-03 5.5000000E-02
vertex -5.0573903E-01 1.7739059E-02 5.5000000E-02
vertex -4.7026095E-01 -1.7739059E-02 5.5000000E-02
endloop
endfacet
facet normal 0.0000000E+00 0.0000000E+00 1.0000000E+00
outer loop
vertex -2.6090082E-02 -4.9099182E-03 5.5000000E-02
vertex -4.7026095E-01 -1.7739059E-02 5.5000000E-02
vertex -4.6738449E-01 -2.2000000E-02 5.5000000E-02
endloop
endfacet
facet normal 0.0000000E+00 0.0000000E+00 1.0000000E+00
outer loop
vertex -4.2214610E-02 2.7965510E-02 5.5000000E-02
vertex -7.0000000E-02 5.0999999E-02 5.5000000E-02
vertex -4.4387050E-02 2.2193549E-02 5.5000000E-02
endloop
endfacet
facet normal 0.0000000E+00 0.0000000E+00 1.0000000E+00
outer loop
vertex -4.4387050E-02 2.2193549E-02 5.5000000E-02
vertex -7.0000000E-02 5.0999999E-02 5.5000000E-02
vertex -2.3000000E-01 8.5000001E-02 5.5000000E-02
endloop
endfacet
facet normal 0.0000000E+00 0.0000000E+00 1.0000000E+00
outer loop
vertex -4.4387050E-02 2.2193549E-02 5.5000000E-02
vertex -2.3000000E-01 8.5000001E-02 5.5000000E-02
vertex -4.2214639E-02 1.4249140E-02 5.5000000E-02
endloop
endfacet
facet normal -0.0000000E+00 0.0000000E+00 1.0000000E+00
outer loop
vertex -6.1144668E-01 8.5000001E-02 5.5000000E-02
vertex -6.0000002E-01 8.0183148E-02 5.5000000E-02
vertex -2.3000000E-01 8.5000001E-02 5.5000000E-02
endloop
endfacet
facet normal 0.0000000E+00 0.0000000E+00 1.0000000E+00
outer loop
vertex -2.3000000E-01 8.5000001E-02 5.5000000E-02
vertex -6.0000002E-01 8.0183148E-02 5.5000000E-02
vertex -5.5044407E-01 5.1480751E-02 5.5000000E-02
endloop
endfacet
facet normal 0.0000000E+00 0.0000000E+00 1.0000000E+00
outer loop
vertex -2.3000000E-01 8.5000001E-02 5.5000000E-02
vertex -5.5044407E-01 5.1480751E-02 5.5000000E-02
vertex -5.0573903E-01 1.7739059E-02 5.5000000E-02
endloop
endfacet
facet normal 0.0000000E+00 -0.0000000E+00 1.0000000E+00
outer loop
vertex -4.2214610E-02 2.7965510E-02 5.5000000E-02
vertex -3.5909899E-02 3.0999999E-02 5.5000000E-02
vertex -7.0000000E-02 5.0999999E-02 5.5000000E-02
endloop
endfacet
facet normal 0.0000000E+00 0.0000000E+00 1.0000000E+00
outer loop
vertex -7.0000000E-02 5.0999999E-02 5.5000000E-02
vertex -3.5909899E-02 3.0999999E-02 5.5000000E-02
vertex -2.6090100E-02 3.0999999E-02 5.5000000E-02
endloop
endfacet
facet normal 0.0000000E+00 0.0000000E+00 1.0000000E+00
outer loop
vertex -7.0000000E-02 5.0999999E-02 5.5000000E-02
vertex -2.6090100E-02 3.0999999E-02 5.5000000E-02
vertex -1.4119430E-02 2.8064329E-02 5.5000000E-02
endloop
endfacet
facet normal 0.0000000E+00 0.0000000E+00 1.0000000E+00
outer loop
vertex -3.3420001E-04 -2.2000000E-02 5.5000000E-02
vertex -1.3716360E-02 -1.4249140E-02 5.5000000E-02
vertex -4.6738449E-01 -2.2000000E-02 5.5000000E-02
endloop
endfacet
facet normal 0.0000000E+00 0.0000000E+00 1.0000000E+00
outer loop
vertex -4.6738449E-01 -2.2000000E-02 5.5000000E-02
vertex -1.3716360E-02 -1.4249140E-02 5.5000000E-02
vertex -2.6090082E-02 -4.9099182E-03 5.5000000E-02
endloop
endfacet
facet normal -0.0000000E+00 1.0000000E+00 0.0000000E+00
outer loop
vertex -6.1144668E-01 8.5000001E-02 5.5000000E-02
vertex -2.3000000E-01 8.5000001E-02 5.5000000E-02
vertex -6.1144668E-01 8.5000001E-02 4.5000002E-02
endloop
endfacet
facet normal -0.0000000E+00 1.0000000E+00 0.0000000E+00
outer loop
vertex -6.1144668E-01 8.5000001E-02 4.5000002E-02
vertex -2.3000000E-01 8.5000001E-02 5.5000000E-02
vertex -6.1144668E-01 8.5000001E-02 -4.5000002E-02
endloop
endfacet
facet normal 0.0000000E+00 1.0000000E+00 0.0000000E+00
outer loop
vertex -6.1144668E-01 8.5000001E-02 4.5000002E-02
vertex -6.1144668E-01 8.5000001E-02 -4.5000002E-02
vertex -6.8500000E-01 8.5000001E-02 4.5000002E-02
endloop
endfacet
facet normal 0.0000000E+00 1.0000000E+00 0.0000000E+00
outer loop
vertex -6.8500000E-01 8.5000001E-02 4.5000002E-02
vertex -6.1144668E-01 8.5000001E-02 -4.5000002E-02
vertex -6.8500000E-01 8.5000001E-02 -4.5000002E-02
endloop
endfacet
facet normal 0.0000000E+00 1.0000000E+00 -0.0000000E+00
outer loop
vertex -2.3000000E-01 8.5000001E-02 -5.5000000E-02
vertex -6.1144668E-01 8.5000001E-02 -5.5000000E-02
vertex -2.3000000E-01 8.5000001E-02 5.5000000E-02
endloop
endfacet
facet normal 0.0000000E+00 1.0000000E+00 0.0000000E+00
outer loop
vertex -2.3000000E-01 8.5000001E-02 5.5000000E-02
vertex -6.1144668E-01 8.5000001E-02 -5.5000000E-02
vertex -6.1144668E-01 8.5000001E-02 -4.5000002E-02
endloop
endfacet
facet normal -7.0710677E-01 -7.0710677E-01 -0.0000000E+00
outer loop
vertex -5.7800001E-01 -2.2000000E-02 4.5000002E-02
vertex -6.8500000E-01 8.5000001E-02 4.5000002E-02
vertex -5.7800001E-01 -2.2000000E-02 -4.5000002E-02
endloop
endfacet
facet normal -7.0710677E-01 -7.0710677E-01 0.0000000E+00
outer loop
vertex -5.7800001E-01 -2.2000000E-02 -4.5000002E-02
vertex -6.8500000E-01 8.5000001E-02 4.5000002E-02
vertex -6.8500000E-01 8.5000001E-02 -4.5000002E-02
endloop
endfacet
facet normal 0.0000000E+00 -1.0000000E+00 0.0000000E+00
outer loop
vertex -5.7800001E-01 -2.2000000E-02 -4.5000002E-02
vertex -4.9051663E-01 -2.2000000E-02 -4.5000002E-02
vertex -5.7800001E-01 -2.2000000E-02 4.5000002E-02
endloop
endfacet
facet normal 0.0000000E+00 -1.0000000E+00 0.0000000E+00
outer loop
vertex -5.7800001E-01 -2.2000000E-02 4.5000002E-02
vertex -4.9051663E-01 -2.2000000E-02 -4.5000002E-02
vertex -4.9051663E-01 -2.2000000E-02 -4.0000002E-03
endloop
endfacet
facet normal 0.0000000E+00 -1.0000000E+00 0.0000000E+00
outer loop
vertex -5.7800001E-01 -2.2000000E-02 4.5000002E-02
vertex -4.9051663E-01 -2.2000000E-02 -4.0000002E-03
vertex -4.6738449E-01 -2.2000000E-02 4.5000002E-02
endloop
endfacet
facet normal 0.0000000E+00 -1.0000000E+00 -0.0000000E+00
outer loop
vertex -4.6738449E-01 -2.2000000E-02 4.5000002E-02
vertex -4.9051663E-01 -2.2000000E-02 -4.0000002E-03
vertex -3.5400000E-01 -2.2000000E-02 -4.0000002E-03
endloop
endfacet
facet normal 0.0000000E+00 -1.0000000E+00 0.0000000E+00
outer loop
vertex -4.6738449E-01 -2.2000000E-02 4.5000002E-02
vertex -3.5400000E-01 -2.2000000E-02 -4.0000002E-03
vertex -4.6738449E-01 -2.2000000E-02 5.5000000E-02
endloop
endfacet
facet normal 0.0000000E+00 -9.9999994E-01 0.0000000E+00
outer loop
vertex -4.6738449E-01 -2.2000000E-02 5.5000000E-02
vertex -3.5400000E-01 -2.2000000E-02 -4.0000002E-03
vertex -3.3420001E-04 -2.2000000E-02 5.5000000E-02
endloop
endfacet
facet normal 0.0000000E+00 -1.0000000E+00 0.0000000E+00
outer loop
vertex -3.5400000E-01 -2.2000000E-02 -5.5000000E-02
vertex -3.3420001E-04 -2.2000000E-02 -5.5000000E-02
vertex -3.5400000E-01 -2.2000000E-02 -4.0000002E-03
endloop
endfacet
facet normal 0.0000000E+00 -1.0000000E+00 0.0000000E+00
outer loop
vertex -3.5400000E-01 -2.2000000E-02 -4.0000002E-03
vertex -3.3420001E-04 -2.2000000E-02 -5.5000000E-02
vertex -3.3420001E-04 -2.2000000E-02 5.5000000E-02
endloop
endfacet
facet normal -5.0119573E-01 -8.6533386E-01 -0.0000000E+00
outer loop
vertex -1.3716360E-02 -1.4249140E-02 -5.5000000E-02
vertex -1.3716360E-02 -1.4249140E-02 -5.6000002E-02
vertex -3.3420001E-04 -2.2000000E-02 -5.5000000E-02
endloop
endfacet
facet normal -5.0119358E-01 -8.6533517E-01 -3.8930779E-05
outer loop
vertex -3.3420001E-04 -2.2000000E-02 -5.5000000E-02
vertex -1.3716360E-02 -1.4249140E-02 -5.6000002E-02
vertex 5.0000001E-08 -2.2193549E-02 -5.6000002E-02
endloop
endfacet
facet normal -5.0110638E-01 -8.6538571E-01 0.0000000E+00
outer loop
vertex -3.3420001E-04 -2.2000000E-02 -5.5000000E-02
vertex 5.0000001E-08 -2.2193549E-02 -5.6000002E-02
vertex -3.3420001E-04 -2.2000000E-02 5.5000000E-02
endloop
endfacet
facet normal -5.0110638E-01 -8.6538571E-01 0.0000000E+00
outer loop
vertex -3.3420001E-04 -2.2000000E-02 5.5000000E-02
vertex 5.0000001E-08 -2.2193549E-02 -5.6000002E-02
vertex 5.0000001E-08 -2.2193549E-02 5.6000002E-02
endloop
endfacet
facet normal -5.0119573E-01 -8.6533386E-01 3.9903101E-05
outer loop
vertex -3.3420001E-04 -2.2000000E-02 5.5000000E-02
vertex 5.0000001E-08 -2.2193549E-02 5.6000002E-02
vertex -1.3716360E-02 -1.4249140E-02 5.5000000E-02
endloop
endfacet
facet normal -5.0119358E-01 -8.6533511E-01 0.0000000E+00
outer loop
vertex -1.3716360E-02 -1.4249140E-02 5.5000000E-02
vertex 5.0000001E-08 -2.2193549E-02 5.6000002E-02
vertex -1.3716360E-02 -1.4249140E-02 5.6000002E-02
endloop
endfacet
facet normal -3.8786587E-01 -9.2171586E-01 0.0000000E+00
outer loop
vertex 1.3716410E-02 -2.7965510E-02 -5.6000002E-02
vertex 1.3716410E-02 -2.7965510E-02 5.6000002E-02
vertex 5.0000001E-08 -2.2193549E-02 -5.6000002E-02
endloop
endfacet
facet normal -3.8786587E-01 -9.2171586E-01 0.0000000E+00
outer loop
vertex 5.0000001E-08 -2.2193549E-02 -5.6000002E-02
vertex 1.3716410E-02 -2.7965510E-02 5.6000002E-02
vertex 5.0000001E-08 -2.2193549E-02 5.6000002E-02
endloop
endfacet
facet normal -2.3817953E-01 -9.7122109E-01 0.0000000E+00
outer loop
vertex 2.6090100E-02 -3.0999999E-02 -5.6000002E-02
vertex 2.6090100E-02 -3.0999999E-02 5.6000002E-02
vertex 1.3716410E-02 -2.7965510E-02 -5.6000002E-02
endloop
endfacet
facet normal -2.3817953E-01 -9.7122109E-01 0.0000000E+00
outer loop
vertex 1.3716410E-02 -2.7965510E-02 -5.6000002E-02
vertex 2.6090100E-02 -3.0999999E-02 5.6000002E-02
vertex 1.3716410E-02 -2.7965510E-02 5.6000002E-02
endloop
endfacet
facet normal 0.0000000E+00 -1.0000000E+00 0.0000000E+00
outer loop
vertex 3.5909899E-02 -3.0999999E-02 -5.6000002E-02
vertex 3.5909899E-02 -3.0999999E-02 5.6000002E-02
vertex 2.6090100E-02 -3.0999999E-02 -5.6000002E-02
endloop
endfacet
facet normal 0.0000000E+00 -1.0000000E+00 0.0000000E+00
outer loop
vertex 2.6090100E-02 -3.0999999E-02 -5.6000002E-02
vertex 3.5909899E-02 -3.0999999E-02 5.6000002E-02
vertex 2.6090100E-02 -3.0999999E-02 5.6000002E-02
endloop
endfacet
facet normal 4.3368655E-01 -9.0106380E-01 0.0000000E+00
outer loop
vertex 4.2214610E-02 -2.7965510E-02 -5.6000002E-02
vertex 4.2214610E-02 -2.7965510E-02 5.6000002E-02
vertex 3.5909899E-02 -3.0999999E-02 -5.6000002E-02
endloop
endfacet
facet normal 4.3368655E-01 -9.0106380E-01 0.0000000E+00
outer loop
vertex 3.5909899E-02 -3.0999999E-02 -5.6000002E-02
vertex 4.2214610E-02 -2.7965510E-02 5.6000002E-02
vertex 3.5909899E-02 -3.0999999E-02 5.6000002E-02
endloop
endfacet
facet normal 9.3589908E-01 -3.5226831E-01 0.0000000E+00
outer loop
vertex 4.4387151E-02 -2.2193549E-02 -5.6000002E-02
vertex 4.4387151E-02 -2.2193549E-02 5.6000002E-02
vertex 4.2214610E-02 -2.7965510E-02 -5.6000002E-02
endloop
endfacet
facet normal 9.3589908E-01 -3.5226831E-01 0.0000000E+00
outer loop
vertex 4.2214610E-02 -2.7965510E-02 -5.6000002E-02
vertex 4.4387151E-02 -2.2193549E-02 5.6000002E-02
vertex 4.2214610E-02 -2.7965510E-02 5.6000002E-02
endloop
endfacet
facet normal 9.6458316E-01 2.6377892E-01 -0.0000000E+00
outer loop
vertex 4.2214639E-02 -1.4249140E-02 -5.6000002E-02
vertex 4.2214639E-02 -1.4249140E-02 5.6000002E-02
vertex 4.4387151E-02 -2.2193549E-02 -5.6000002E-02
endloop
endfacet
facet normal 9.6458316E-01 2.6377892E-01 -0.0000000E+00
outer loop
vertex 4.4387151E-02 -2.2193549E-02 -5.6000002E-02
vertex 4.2214639E-02 -1.4249140E-02 5.6000002E-02
vertex 4.4387151E-02 -2.2193549E-02 5.6000002E-02
endloop
endfacet
facet normal 8.2881796E-01 5.5951840E-01 -0.0000000E+00
outer loop
vertex 3.5909917E-02 -4.9099182E-03 -5.6000002E-02
vertex 3.5909917E-02 -4.9099182E-03 5.6000002E-02
vertex 4.2214639E-02 -1.4249140E-02 -5.6000002E-02
endloop
endfacet
facet normal 8.2881796E-01 5.5951840E-01 -0.0000000E+00
outer loop
vertex 4.2214639E-02 -1.4249140E-02 -5.6000002E-02
vertex 3.5909917E-02 -4.9099182E-03 5.6000002E-02
vertex 4.2214639E-02 -1.4249140E-02 5.6000002E-02
endloop
endfacet
facet normal 7.0710683E-01 7.0710677E-01 -0.0000000E+00
outer loop
vertex 2.6090082E-02 4.9099182E-03 -5.6000002E-02
vertex 2.6090082E-02 4.9099182E-03 5.6000002E-02
vertex 3.5909917E-02 -4.9099182E-03 -5.6000002E-02
endloop
endfacet
facet normal 7.0710683E-01 7.0710677E-01 -0.0000000E+00
outer loop
vertex 3.5909917E-02 -4.9099182E-03 -5.6000002E-02
vertex 2.6090082E-02 4.9099182E-03 5.6000002E-02
vertex 3.5909917E-02 -4.9099182E-03 5.6000002E-02
endloop
endfacet
facet normal 6.0243016E-01 7.9817170E-01 -0.0000000E+00
outer loop
vertex 1.3716360E-02 1.4249140E-02 -5.6000002E-02
vertex 1.3716360E-02 1.4249140E-02 5.6000002E-02
vertex 2.6090082E-02 4.9099182E-03 -5.6000002E-02
endloop
endfacet
facet normal 6.0243016E-01 7.9817170E-01 -0.0000000E+00
outer loop
vertex 2.6090082E-02 4.9099182E-03 -5.6000002E-02
vertex 1.3716360E-02 1.4249140E-02 5.6000002E-02
vertex 2.6090082E-02 4.9099182E-03 5.6000002E-02
endloop
endfacet
facet normal 5.0119632E-01 8.6533362E-01 -0.0000000E+00
outer loop
vertex 5.0000001E-08 2.2193549E-02 -5.6000002E-02
vertex 5.0000001E-08 2.2193549E-02 5.6000002E-02
vertex 1.3716360E-02 1.4249140E-02 -5.6000002E-02
endloop
endfacet
facet normal 5.0119632E-01 8.6533362E-01 -0.0000000E+00
outer loop
vertex 1.3716360E-02 1.4249140E-02 -5.6000002E-02
vertex 5.0000001E-08 2.2193549E-02 5.6000002E-02
vertex 1.3716360E-02 1.4249140E-02 5.6000002E-02
endloop
endfacet
facet normal 3.8786343E-01 9.2171681E-01 -0.0000000E+00
outer loop
vertex -1.3716410E-02 2.7965510E-02 -5.6000002E-02
vertex -1.3716410E-02 2.7965510E-02 5.6000002E-02
vertex 5.0000001E-08 2.2193549E-02 -5.6000002E-02
endloop
endfacet
facet normal 3.8786343E-01 9.2171681E-01 -0.0000000E+00
outer loop
vertex 5.0000001E-08 2.2193549E-02 -5.6000002E-02
vertex -1.3716410E-02 2.7965510E-02 5.6000002E-02
vertex 5.0000001E-08 2.2193549E-02 5.6000002E-02
endloop
endfacet
facet normal 2.0785877E-01 9.7815889E-01 0.0000000E+00
outer loop
vertex -2.3000000E-01 8.5000001E-02 5.5000000E-02
vertex -7.0000000E-02 5.0999999E-02 5.5000000E-02
vertex -2.3000000E-01 8.5000001E-02 -5.5000000E-02
endloop
endfacet
facet normal 2.0785877E-01 9.7815889E-01 0.0000000E+00
outer loop
vertex -2.3000000E-01 8.5000001E-02 -5.5000000E-02
vertex -7.0000000E-02 5.0999999E-02 5.5000000E-02
vertex -7.0000000E-02 5.0999999E-02 -5.5000000E-02
endloop
endfacet
facet normal -0.0000000E+00 0.0000000E+00 -1.0000000E+00
outer loop
vertex -4.4748256E-01 -1.0103670E-01 4.5000002E-02
vertex -4.7026095E-01 -1.1200000E-01 4.5000002E-02
vertex -4.3963370E-01 -8.0183148E-02 4.5000002E-02
endloop
endfacet
facet normal -0.0000000E+00 0.0000000E+00 -1.0000000E+00
outer loop
vertex -4.3963370E-01 -8.0183148E-02 4.5000002E-02
vertex -4.7026095E-01 -1.1200000E-01 4.5000002E-02
vertex -5.7800001E-01 -2.2000000E-02 4.5000002E-02
endloop
endfacet
facet normal 0.0000000E+00 0.0000000E+00 -1.0000000E+00
outer loop
vertex -4.3963370E-01 -8.0183148E-02 4.5000002E-02
vertex -5.7800001E-01 -2.2000000E-02 4.5000002E-02
vertex -4.4748256E-01 -5.1480751E-02 4.5000002E-02
endloop
endfacet
facet normal 0.0000000E+00 0.0000000E+00 -1.0000000E+00
outer loop
vertex -4.4748256E-01 -5.1480751E-02 4.5000002E-02
vertex -5.7800001E-01 -2.2000000E-02 4.5000002E-02
vertex -4.6738449E-01 -2.2000000E-02 4.5000002E-02
endloop
endfacet
facet normal -0.0000000E+00 -0.0000000E+00 -1.0000000E+00
outer loop
vertex -6.9426095E-01 1.1200000E-01 4.5000002E-02
vertex -6.4955592E-01 1.0103670E-01 4.5000002E-02
vertex -7.2973907E-01 1.1200000E-01 4.5000002E-02
endloop
endfacet
facet normal 0.0000000E+00 0.0000000E+00 -1.0000000E+00
outer loop
vertex -7.2973907E-01 1.1200000E-01 4.5000002E-02
vertex -6.4955592E-01 1.0103670E-01 4.5000002E-02
vertex -6.8500000E-01 8.5000001E-02 4.5000002E-02
endloop
endfacet
facet normal 0.0000000E+00 -0.0000000E+00 -1.0000000E+00
outer loop
vertex -7.2973907E-01 1.1200000E-01 4.5000002E-02
vertex -6.8500000E-01 8.5000001E-02 4.5000002E-02
vertex -7.5251746E-01 1.0103670E-01 4.5000002E-02
endloop
endfacet
facet normal 0.0000000E+00 0.0000000E+00 -1.0000000E+00
outer loop
vertex -7.5251746E-01 1.0103670E-01 4.5000002E-02
vertex -6.8500000E-01 8.5000001E-02 4.5000002E-02
vertex -5.7800001E-01 -2.2000000E-02 4.5000002E-02
endloop
endfacet
facet normal 0.0000000E+00 -0.0000000E+00 -1.0000000E+00
outer loop
vertex -7.5251746E-01 1.0103670E-01 4.5000002E-02
vertex -5.7800001E-01 -2.2000000E-02 4.5000002E-02
vertex -7.6036632E-01 8.0183148E-02 4.5000002E-02
endloop
endfacet
facet normal 0.0000000E+00 0.0000000E+00 -1.0000000E+00
outer loop
vertex -7.6036632E-01 8.0183148E-02 4.5000002E-02
vertex -5.7800001E-01 -2.2000000E-02 4.5000002E-02
vertex -7.2973907E-01 1.7739059E-02 4.5000002E-02
endloop
endfacet
facet normal 0.0000000E+00 0.0000000E+00 -9.9999994E-01
outer loop
vertex -7.6036632E-01 8.0183148E-02 4.5000002E-02
vertex -7.2973907E-01 1.7739059E-02 4.5000002E-02
vertex -7.5251746E-01 5.1480751E-02 4.5000002E-02
endloop
endfacet
facet normal 0.0000000E+00 0.0000000E+00 -1.0000000E+00
outer loop
vertex -6.4955592E-01 -5.1480751E-02 4.5000002E-02
vertex -6.9426095E-01 -1.7739059E-02 4.5000002E-02
vertex -6.0000002E-01 -8.0183148E-02 4.5000002E-02
endloop
endfacet
facet normal 0.0000000E+00 0.0000000E+00 -9.9999994E-01
outer loop
vertex -6.0000002E-01 -8.0183148E-02 4.5000002E-02
vertex -6.9426095E-01 -1.7739059E-02 4.5000002E-02
vertex -5.7800001E-01 -2.2000000E-02 4.5000002E-02
endloop
endfacet
facet normal 0.0000000E+00 0.0000000E+00 -1.0000000E+00
outer loop
vertex -6.0000002E-01 -8.0183148E-02 4.5000002E-02
vertex -5.7800001E-01 -2.2000000E-02 4.5000002E-02
vertex -5.5044407E-01 -1.0103670E-01 4.5000002E-02
endloop
endfacet
facet normal 0.0000000E+00 0.0000000E+00 -1.0000000E+00
outer loop
vertex -5.5044407E-01 -1.0103670E-01 4.5000002E-02
vertex -5.7800001E-01 -2.2000000E-02 4.5000002E-02
vertex -4.7026095E-01 -1.1200000E-01 4.5000002E-02
endloop
endfacet
facet normal 0.0000000E+00 0.0000000E+00 -9.9999994E-01
outer loop
vertex -5.5044407E-01 -1.0103670E-01 4.5000002E-02
vertex -4.7026095E-01 -1.1200000E-01 4.5000002E-02
vertex -5.0573903E-01 -1.1200000E-01 4.5000002E-02
endloop
endfacet
facet normal 0.0000000E+00 0.0000000E+00 -1.0000000E+00
outer loop
vertex -6.9426095E-01 -1.7739059E-02 4.5000002E-02
vertex -7.2973907E-01 1.7739059E-02 4.5000002E-02
vertex -5.7800001E-01 -2.2000000E-02 4.5000002E-02
endloop
endfacet
facet normal 0.0000000E+00 -0.0000000E+00 -1.0000000E+00
outer loop
vertex -6.4955592E-01 1.0103670E-01 4.5000002E-02
vertex -6.1144668E-01 8.5000001E-02 4.5000002E-02
vertex -6.8500000E-01 8.5000001E-02 4.5000002E-02
endloop
endfacet
facet normal 8.2881927E-01 5.5951637E-01 -0.0000000E+00
outer loop
vertex -4.7026095E-01 -1.7739059E-02 5.5000000E-02
vertex -4.7026095E-01 -1.7739059E-02 5.7500001E-02
vertex -4.6738449E-01 -2.2000000E-02 5.5000000E-02
endloop
endfacet
facet normal 8.2881737E-01 5.5951923E-01 -7.1489440E-06
outer loop
vertex -4.6738449E-01 -2.2000000E-02 5.5000000E-02
vertex -4.7026095E-01 -1.7739059E-02 5.7500001E-02
vertex -4.4748256E-01 -5.1480751E-02 5.7500001E-02
endloop
endfacet
facet normal 8.2881707E-01 5.5951965E-01 0.0000000E+00
outer loop
vertex -4.6738449E-01 -2.2000000E-02 5.5000000E-02
vertex -4.4748256E-01 -5.1480751E-02 5.7500001E-02
vertex -4.6738449E-01 -2.2000000E-02 4.5000002E-02
endloop
endfacet
facet normal 8.2881701E-01 5.5951965E-01 0.0000000E+00
outer loop
vertex -4.6738449E-01 -2.2000000E-02 4.5000002E-02
vertex -4.4748256E-01 -5.1480751E-02 5.7500001E-02
vertex -4.4748256E-01 -5.1480751E-02 4.5000002E-02
endloop
endfacet
facet normal 3.8786596E-01 9.2171580E-01 -0.0000000E+00
outer loop
vertex -6.1144668E-01 8.5000001E-02 4.5000002E-02
vertex -6.4955592E-01 1.0103670E-01 4.5000002E-02
vertex -6.1144668E-01 8.5000001E-02 5.5000000E-02
endloop
endfacet
facet normal 3.8786593E-01 9.2171580E-01 0.0000000E+00
outer loop
vertex -6.1144668E-01 8.5000001E-02 5.5000000E-02
vertex -6.4955592E-01 1.0103670E-01 4.5000002E-02
vertex -6.4955592E-01 1.0103670E-01 5.7500001E-02
endloop
endfacet
facet normal 3.8786605E-01 9.2171580E-01 2.3435182E-06
outer loop
vertex -6.1144668E-01 8.5000001E-02 5.5000000E-02
vertex -6.4955592E-01 1.0103670E-01 5.7500001E-02
vertex -6.0000002E-01 8.0183148E-02 5.5000000E-02
endloop
endfacet
facet normal 3.8786599E-01 9.2171580E-01 -0.0000000E+00
outer loop
vertex -6.0000002E-01 8.0183148E-02 5.5000000E-02
vertex -6.4955592E-01 1.0103670E-01 5.7500001E-02
vertex -6.0000002E-01 8.0183148E-02 5.7500001E-02
endloop
endfacet
facet normal -9.3590385E-01 3.5225549E-01 0.0000000E+00
outer loop
vertex -7.6036632E-01 8.0183148E-02 4.5000002E-02
vertex -7.6036632E-01 8.0183148E-02 5.7500001E-02
vertex -7.5251746E-01 1.0103670E-01 4.5000002E-02
endloop
endfacet
facet normal -9.3590385E-01 3.5225549E-01 0.0000000E+00
outer loop
vertex -7.5251746E-01 1.0103670E-01 4.5000002E-02
vertex -7.6036632E-01 8.0183148E-02 5.7500001E-02
vertex -7.5251746E-01 1.0103670E-01 5.7500001E-02
endloop
endfacet
facet normal -9.6458507E-01 -2.6377210E-01 0.0000000E+00
outer loop
vertex -7.5251746E-01 5.1480751E-02 4.5000002E-02
vertex -7.5251746E-01 5.1480751E-02 5.7500001E-02
vertex -7.6036632E-01 8.0183148E-02 4.5000002E-02
endloop
endfacet
facet normal -9.6458507E-01 -2.6377210E-01 0.0000000E+00
outer loop
vertex -7.6036632E-01 8.0183148E-02 4.5000002E-02
vertex -7.5251746E-01 5.1480751E-02 5.7500001E-02
vertex -7.6036632E-01 8.0183148E-02 5.7500001E-02
endloop
endfacet
facet normal -8.2881743E-01 -5.5951929E-01 0.0000000E+00
outer loop
vertex -7.2973907E-01 1.7739059E-02 4.5000002E-02
vertex -7.2973907E-01 1.7739059E-02 5.7500001E-02
vertex -7.5251746E-01 5.1480751E-02 4.5000002E-02
endloop
endfacet
facet normal -8.2881743E-01 -5.5951929E-01 0.0000000E+00
outer loop
vertex -7.5251746E-01 5.1480751E-02 4.5000002E-02
vertex -7.2973907E-01 1.7739059E-02 5.7500001E-02
vertex -7.5251746E-01 5.1480751E-02 5.7500001E-02
endloop
endfacet
facet normal -7.0710683E-01 -7.0710671E-01 0.0000000E+00
outer loop
vertex -6.9426095E-01 -1.7739059E-02 4.5000002E-02
vertex -6.9426095E-01 -1.7739059E-02 5.7500001E-02
vertex -7.2973907E-01 1.7739059E-02 4.5000002E-02
endloop
endfacet
facet normal -7.0710683E-01 -7.0710671E-01 0.0000000E+00
outer loop
vertex -7.2973907E-01 1.7739059E-02 4.5000002E-02
vertex -6.9426095E-01 -1.7739059E-02 5.7500001E-02
vertex -7.2973907E-01 1.7739059E-02 5.7500001E-02
endloop
endfacet
facet normal -6.0243016E-01 -7.9817164E-01 0.0000000E+00
outer loop
vertex -6.4955592E-01 -5.1480751E-02 4.5000002E-02
vertex -6.4955592E-01 -5.1480751E-02 5.7500001E-02
vertex -6.9426095E-01 -1.7739059E-02 4.5000002E-02
endloop
endfacet
facet normal -6.0243016E-01 -7.9817164E-01 0.0000000E+00
outer loop
vertex -6.9426095E-01 -1.7739059E-02 4.5000002E-02
vertex -6.4955592E-01 -5.1480751E-02 5.7500001E-02
vertex -6.9426095E-01 -1.7739059E-02 5.7500001E-02
endloop
endfacet
facet normal -5.0119501E-01 -8.6533433E-01 0.0000000E+00
outer loop
vertex -6.0000002E-01 -8.0183148E-02 4.5000002E-02
vertex -6.0000002E-01 -8.0183148E-02 5.7500001E-02
vertex -6.4955592E-01 -5.1480751E-02 4.5000002E-02
endloop
endfacet
facet normal -5.0119501E-01 -8.6533433E-01 0.0000000E+00
outer loop
vertex -6.4955592E-01 -5.1480751E-02 4.5000002E-02
vertex -6.0000002E-01 -8.0183148E-02 5.7500001E-02
vertex -6.4955592E-01 -5.1480751E-02 5.7500001E-02
endloop
endfacet
facet normal -3.8786560E-01 -9.2171603E-01 0.0000000E+00
outer loop
vertex -5.5044407E-01 -1.0103670E-01 4.5000002E-02
vertex -5.5044407E-01 -1.0103670E-01 5.7500001E-02
vertex -6.0000002E-01 -8.0183148E-02 4.5000002E-02
endloop
endfacet
facet normal -3.8786560E-01 -9.2171603E-01 0.0000000E+00
outer loop
vertex -6.0000002E-01 -8.0183148E-02 4.5000002E-02
vertex -5.5044407E-01 -1.0103670E-01 5.7500001E-02
vertex -6.0000002E-01 -8.0183148E-02 5.7500001E-02
endloop
endfacet
facet normal -2.3817889E-01 -9.7122127E-01 0.0000000E+00
outer loop
vertex -5.0573903E-01 -1.1200000E-01 4.5000002E-02
vertex -5.0573903E-01 -1.1200000E-01 5.7500001E-02
vertex -5.5044407E-01 -1.0103670E-01 4.5000002E-02
endloop
endfacet
facet normal -2.3817889E-01 -9.7122127E-01 0.0000000E+00
outer loop
vertex -5.5044407E-01 -1.0103670E-01 4.5000002E-02
vertex -5.0573903E-01 -1.1200000E-01 5.7500001E-02
vertex -5.5044407E-01 -1.0103670E-01 5.7500001E-02
endloop
endfacet
facet normal 0.0000000E+00 -1.0000000E+00 0.0000000E+00
outer loop
vertex -4.7026095E-01 -1.1200000E-01 4.5000002E-02
vertex -4.7026095E-01 -1.1200000E-01 5.7500001E-02
vertex -5.0573903E-01 -1.1200000E-01 4.5000002E-02
endloop
endfacet
facet normal 0.0000000E+00 -1.0000000E+00 0.0000000E+00
outer loop
vertex -5.0573903E-01 -1.1200000E-01 4.5000002E-02
vertex -4.7026095E-01 -1.1200000E-01 5.7500001E-02
vertex -5.0573903E-01 -1.1200000E-01 5.7500001E-02
endloop
endfacet
facet normal 4.3368497E-01 -9.0106457E-01 0.0000000E+00
outer loop
vertex -4.4748256E-01 -1.0103670E-01 4.5000002E-02
vertex -4.4748256E-01 -1.0103670E-01 5.7500001E-02
vertex -4.7026095E-01 -1.1200000E-01 4.5000002E-02
endloop
endfacet
facet normal 4.3368497E-01 -9.0106457E-01 0.0000000E+00
outer loop
vertex -4.7026095E-01 -1.1200000E-01 4.5000002E-02
vertex -4.4748256E-01 -1.0103670E-01 5.7500001E-02
vertex -4.7026095E-01 -1.1200000E-01 5.7500001E-02
endloop
endfacet
facet normal 9.3590385E-01 -3.5225549E-01 0.0000000E+00
outer loop
vertex -4.3963370E-01 -8.0183148E-02 4.5000002E-02
vertex -4.3963370E-01 -8.0183148E-02 5.7500001E-02
vertex -4.4748256E-01 -1.0103670E-01 4.5000002E-02
endloop
endfacet
facet normal 9.3590385E-01 -3.5225549E-01 0.0000000E+00
outer loop
vertex -4.4748256E-01 -1.0103670E-01 4.5000002E-02
vertex -4.3963370E-01 -8.0183148E-02 5.7500001E-02
vertex -4.4748256E-01 -1.0103670E-01 5.7500001E-02
endloop
endfacet
facet normal 9.6458507E-01 2.6377210E-01 -0.0000000E+00
outer loop
vertex -4.4748256E-01 -5.1480751E-02 4.5000002E-02
vertex -4.4748256E-01 -5.1480751E-02 5.7500001E-02
vertex -4.3963370E-01 -8.0183148E-02 4.5000002E-02
endloop
endfacet
facet normal 9.6458507E-01 2.6377210E-01 -0.0000000E+00
outer loop
vertex -4.3963370E-01 -8.0183148E-02 4.5000002E-02
vertex -4.4748256E-01 -5.1480751E-02 5.7500001E-02
vertex -4.3963370E-01 -8.0183148E-02 5.7500001E-02
endloop
endfacet
facet normal 7.0710707E-01 7.0710641E-01 -0.0000000E+00
outer loop
vertex -5.0573903E-01 1.7739059E-02 5.5000000E-02
vertex -5.0573903E-01 1.7739059E-02 5.7500001E-02
vertex -4.7026095E-01 -1.7739059E-02 5.5000000E-02
endloop
endfacet
facet normal 7.0710707E-01 7.0710641E-01 -0.0000000E+00
outer loop
vertex -4.7026095E-01 -1.7739059E-02 5.5000000E-02
vertex -5.0573903E-01 1.7739059E-02 5.7500001E-02
vertex -4.7026095E-01 -1.7739059E-02 5.7500001E-02
endloop
endfacet
facet normal 6.0243011E-01 7.9817158E-01 -0.0000000E+00
outer loop
vertex -5.5044407E-01 5.1480751E-02 5.5000000E-02
vertex -5.5044407E-01 5.1480751E-02 5.7500001E-02
vertex -5.0573903E-01 1.7739059E-02 5.5000000E-02
endloop
endfacet
facet normal 6.0243011E-01 7.9817158E-01 -0.0000000E+00
outer loop
vertex -5.0573903E-01 1.7739059E-02 5.5000000E-02
vertex -5.5044407E-01 5.1480751E-02 5.7500001E-02
vertex -5.0573903E-01 1.7739059E-02 5.7500001E-02
endloop
endfacet
facet normal 5.0119460E-01 8.6533457E-01 -0.0000000E+00
outer loop
vertex -6.0000002E-01 8.0183148E-02 5.5000000E-02
vertex -6.0000002E-01 8.0183148E-02 5.7500001E-02
vertex -5.5044407E-01 5.1480751E-02 5.5000000E-02
endloop
endfacet
facet normal 5.0119460E-01 8.6533457E-01 -0.0000000E+00
outer loop
vertex -5.5044407E-01 5.1480751E-02 5.5000000E-02
vertex -6.0000002E-01 8.0183148E-02 5.7500001E-02
vertex -5.5044407E-01 5.1480751E-02 5.7500001E-02
endloop
endfacet
facet normal 2.3817889E-01 9.7122127E-01 -0.0000000E+00
outer loop
vertex -6.9426095E-01 1.1200000E-01 4.5000002E-02
vertex -6.9426095E-01 1.1200000E-01 5.7500001E-02
vertex -6.4955592E-01 1.0103670E-01 4.5000002E-02
endloop
endfacet
facet normal 2.3817889E-01 9.7122127E-01 -0.0000000E+00
outer loop
vertex -6.4955592E-01 1.0103670E-01 4.5000002E-02
vertex -6.9426095E-01 1.1200000E-01 5.7500001E-02
vertex -6.4955592E-01 1.0103670E-01 5.7500001E-02
endloop
endfacet
facet normal 0.0000000E+00 1.0000000E+00 0.0000000E+00
outer loop
vertex -7.2973907E-01 1.1200000E-01 4.5000002E-02
vertex -7.2973907E-01 1.1200000E-01 5.7500001E-02
vertex -6.9426095E-01 1.1200000E-01 4.5000002E-02
endloop
endfacet
facet normal 0.0000000E+00 1.0000000E+00 -0.0000000E+00
outer loop
vertex -6.9426095E-01 1.1200000E-01 4.5000002E-02
vertex -7.2973907E-01 1.1200000E-01 5.7500001E-02
vertex -6.9426095E-01 1.1200000E-01 5.7500001E-02
endloop
endfacet
facet normal -4.3368497E-01 9.0106457E-01 0.0000000E+00
outer loop
vertex -7.5251746E-01 1.0103670E-01 4.5000002E-02
vertex -7.5251746E-01 1.0103670E-01 5.7500001E-02
vertex -7.2973907E-01 1.1200000E-01 4.5000002E-02
endloop
endfacet
facet normal -4.3368497E-01 9.0106457E-01 0.0000000E+00
outer loop
vertex -7.2973907E-01 1.1200000E-01 4.5000002E-02
vertex -7.5251746E-01 1.0103670E-01 5.7500001E-02
vertex -7.2973907E-01 1.1200000E-01 5.7500001E-02
endloop
endfacet
facet normal -0.0000000E+00 -0.0000000E+00 1.0000000E+00
outer loop
vertex -6.0000002E-01 -8.0183148E-02 5.7500001E-02
vertex -5.5044407E-01 -1.0103670E-01 5.7500001E-02
vertex -6.4955592E-01 -5.1480751E-02 5.7500001E-02
endloop
endfacet
facet normal -0.0000000E+00 0.0000000E+00 1.0000000E+00
outer loop
vertex -6.4955592E-01 -5.1480751E-02 5.7500001E-02
vertex -5.5044407E-01 -1.0103670E-01 5.7500001E-02
vertex -6.4955592E-01 1.0103670E-01 5.7500001E-02
endloop
endfacet
facet normal 0.0000000E+00 -0.0000000E+00 1.0000000E+00
outer loop
vertex -6.4955592E-01 -5.1480751E-02 5.7500001E-02
vertex -6.4955592E-01 1.0103670E-01 5.7500001E-02
vertex -6.9426095E-01 -1.7739059E-02 5.7500001E-02
endloop
endfacet
facet normal 0.0000000E+00 -0.0000000E+00 1.0000000E+00
outer loop
vertex -6.9426095E-01 -1.7739059E-02 5.7500001E-02
vertex -6.4955592E-01 1.0103670E-01 5.7500001E-02
vertex -7.2973907E-01 1.7739059E-02 5.7500001E-02
endloop
endfacet
facet normal -0.0000000E+00 -0.0000000E+00 1.0000000E+00
outer loop
vertex -7.5251746E-01 5.1480751E-02 5.7500001E-02
vertex -7.2973907E-01 1.7739059E-02 5.7500001E-02
vertex -7.6036632E-01 8.0183148E-02 5.7500001E-02
endloop
endfacet
facet normal -0.0000000E+00 0.0000000E+00 9.9999994E-01
outer loop
vertex -7.6036632E-01 8.0183148E-02 5.7500001E-02
vertex -7.2973907E-01 1.7739059E-02 5.7500001E-02
vertex -6.4955592E-01 1.0103670E-01 5.7500001E-02
endloop
endfacet
facet normal 0.0000000E+00 0.0000000E+00 1.0000000E+00
outer loop
vertex -7.6036632E-01 8.0183148E-02 5.7500001E-02
vertex -6.4955592E-01 1.0103670E-01 5.7500001E-02
vertex -7.5251746E-01 1.0103670E-01 5.7500001E-02
endloop
endfacet
facet normal 0.0000000E+00 0.0000000E+00 1.0000000E+00
outer loop
vertex -7.5251746E-01 1.0103670E-01 5.7500001E-02
vertex -6.4955592E-01 1.0103670E-01 5.7500001E-02
vertex -7.2973907E-01 1.1200000E-01 5.7500001E-02
endloop
endfacet
facet normal 0.0000000E+00 0.0000000E+00 9.9999994E-01
outer loop
vertex -5.5044407E-01 5.1480751E-02 5.7500001E-02
vertex -6.0000002E-01 8.0183148E-02 5.7500001E-02
vertex -5.0573903E-01 1.7739059E-02 5.7500001E-02
endloop
endfacet
facet normal 0.0000000E+00 0.0000000E+00 1.0000000E+00
outer loop
vertex -5.0573903E-01 1.7739059E-02 5.7500001E-02
vertex -6.0000002E-01 8.0183148E-02 5.7500001E-02
vertex -6.4955592E-01 1.0103670E-01 5.7500001E-02
endloop
endfacet
facet normal 0.0000000E+00 0.0000000E+00 1.0000000E+00
outer loop
vertex -5.0573903E-01 1.7739059E-02 5.7500001E-02
vertex -6.4955592E-01 1.0103670E-01 5.7500001E-02
vertex -4.7026095E-01 -1.7739059E-02 5.7500001E-02
endloop
endfacet
facet normal 0.0000000E+00 0.0000000E+00 1.0000000E+00
outer loop
vertex -4.7026095E-01 -1.7739059E-02 5.7500001E-02
vertex -6.4955592E-01 1.0103670E-01 5.7500001E-02
vertex -4.3963370E-01 -8.0183148E-02 5.7500001E-02
endloop
endfacet
facet normal 0.0000000E+00 0.0000000E+00 1.0000000E+00
outer loop
vertex -4.7026095E-01 -1.7739059E-02 5.7500001E-02
vertex -4.3963370E-01 -8.0183148E-02 5.7500001E-02
vertex -4.4748256E-01 -5.1480751E-02 5.7500001E-02
endloop
endfacet
facet normal 0.0000000E+00 -0.0000000E+00 1.0000000E+00
outer loop
vertex -5.0573903E-01 -1.1200000E-01 5.7500001E-02
vertex -4.7026095E-01 -1.1200000E-01 5.7500001E-02
vertex -6.4955592E-01 1.0103670E-01 5.7500001E-02
endloop
endfacet
facet normal 0.0000000E+00 0.0000000E+00 1.0000000E+00
outer loop
vertex -6.4955592E-01 1.0103670E-01 5.7500001E-02
vertex -4.7026095E-01 -1.1200000E-01 5.7500001E-02
vertex -4.4748256E-01 -1.0103670E-01 5.7500001E-02
endloop
endfacet
facet normal 0.0000000E+00 0.0000000E+00 1.0000000E+00
outer loop
vertex -6.4955592E-01 1.0103670E-01 5.7500001E-02
vertex -4.4748256E-01 -1.0103670E-01 5.7500001E-02
vertex -4.3963370E-01 -8.0183148E-02 5.7500001E-02
endloop
endfacet
facet normal 0.0000000E+00 0.0000000E+00 1.0000000E+00
outer loop
vertex -6.4955592E-01 1.0103670E-01 5.7500001E-02
vertex -6.9426095E-01 1.1200000E-01 5.7500001E-02
vertex -7.2973907E-01 1.1200000E-01 5.7500001E-02
endloop
endfacet
facet normal 0.0000000E+00 0.0000000E+00 1.0000000E+00
outer loop
vertex -6.4955592E-01 1.0103670E-01 5.7500001E-02
vertex -5.5044407E-01 -1.0103670E-01 5.7500001E-02
vertex -5.0573903E-01 -1.1200000E-01 5.7500001E-02
endloop
endfacet
facet normal 3.8786602E-01 9.2171574E-01 0.0000000E+00
outer loop
vertex -6.0000002E-01 8.0183148E-02 -5.5000000E-02
vertex -6.0000002E-01 8.0183148E-02 -5.9000000E-02
vertex -6.1144668E-01 8.5000001E-02 -5.5000000E-02
endloop
endfacet
facet normal 3.8786593E-01 9.2171580E-01 -3.3832319E-07
outer loop
vertex -6.1144668E-01 8.5000001E-02 -5.5000000E-02
vertex -6.0000002E-01 8.0183148E-02 -5.9000000E-02
vertex -6.4955592E-01 1.0103670E-01 -5.9000000E-02
endloop
endfacet
facet normal 3.8786596E-01 9.2171580E-01 -0.0000000E+00
outer loop
vertex -6.1144668E-01 8.5000001E-02 -5.5000000E-02
vertex -6.4955592E-01 1.0103670E-01 -5.9000000E-02
vertex -6.1144668E-01 8.5000001E-02 -4.5000002E-02
endloop
endfacet
facet normal 3.8786593E-01 9.2171580E-01 0.0000000E+00
outer loop
vertex -6.1144668E-01 8.5000001E-02 -4.5000002E-02
vertex -6.4955592E-01 1.0103670E-01 -5.9000000E-02
vertex -6.4955592E-01 1.0103670E-01 -4.5000002E-02
endloop
endfacet
facet normal 0.0000000E+00 0.0000000E+00 1.0000000E+00
outer loop
vertex -4.7113422E-01 -6.4432889E-02 -4.5000002E-02
vertex -4.7744137E-01 -4.1368458E-02 -4.5000002E-02
vertex -4.7744137E-01 -8.1190176E-02 -4.5000002E-02
endloop
endfacet
facet normal 0.0000000E+00 -0.0000000E+00 1.0000000E+00
outer loop
vertex -4.7744137E-01 -8.1190176E-02 -4.5000002E-02
vertex -4.7744137E-01 -4.1368458E-02 -4.5000002E-02
vertex -5.7800001E-01 -2.2000000E-02 -4.5000002E-02
endloop
endfacet
facet normal 0.0000000E+00 0.0000000E+00 1.0000000E+00
outer loop
vertex -4.7744137E-01 -8.1190176E-02 -4.5000002E-02
vertex -5.7800001E-01 -2.2000000E-02 -4.5000002E-02
vertex -4.9574539E-01 -9.0000004E-02 -4.5000002E-02
endloop
endfacet
facet normal 0.0000000E+00 0.0000000E+00 1.0000000E+00
outer loop
vertex -4.9574539E-01 -9.0000004E-02 -4.5000002E-02
vertex -5.7800001E-01 -2.2000000E-02 -4.5000002E-02
vertex -5.2425462E-01 -9.0000004E-02 -4.5000002E-02
endloop
endfacet
facet normal -0.0000000E+00 -0.0000000E+00 1.0000000E+00
outer loop
vertex -7.5667143E-01 6.6671409E-02 -4.5000002E-02
vertex -6.7574543E-01 -1.4254600E-02 -4.5000002E-02
vertex -7.6036632E-01 8.0183148E-02 -4.5000002E-02
endloop
endfacet
facet normal 0.0000000E+00 0.0000000E+00 1.0000000E+00
outer loop
vertex -7.6036632E-01 8.0183148E-02 -4.5000002E-02
vertex -6.7574543E-01 -1.4254600E-02 -4.5000002E-02
vertex -6.3982171E-01 -4.1368458E-02 -4.5000002E-02
endloop
endfacet
facet normal -0.0000000E+00 0.0000000E+00 9.9999994E-01
outer loop
vertex -7.6036632E-01 8.0183148E-02 -4.5000002E-02
vertex -6.3982171E-01 -4.1368458E-02 -4.5000002E-02
vertex -7.5251746E-01 1.0103670E-01 -4.5000002E-02
endloop
endfacet
facet normal 0.0000000E+00 0.0000000E+00 9.9999994E-01
outer loop
vertex -7.5251746E-01 1.0103670E-01 -4.5000002E-02
vertex -6.3982171E-01 -4.1368458E-02 -4.5000002E-02
vertex -6.0000002E-01 -6.4432889E-02 -4.5000002E-02
endloop
endfacet
facet normal 0.0000000E+00 0.0000000E+00 1.0000000E+00
outer loop
vertex -7.5251746E-01 1.0103670E-01 -4.5000002E-02
vertex -6.0000002E-01 -6.4432889E-02 -4.5000002E-02
vertex -5.7800001E-01 -2.2000000E-02 -4.5000002E-02
endloop
endfacet
facet normal 0.0000000E+00 0.0000000E+00 1.0000000E+00
outer loop
vertex -5.7800001E-01 -2.2000000E-02 -4.5000002E-02
vertex -6.0000002E-01 -6.4432889E-02 -4.5000002E-02
vertex -5.6017828E-01 -8.1190176E-02 -4.5000002E-02
endloop
endfacet
facet normal 0.0000000E+00 0.0000000E+00 1.0000000E+00
outer loop
vertex -5.7800001E-01 -2.2000000E-02 -4.5000002E-02
vertex -5.6017828E-01 -8.1190176E-02 -4.5000002E-02
vertex -5.2425462E-01 -9.0000004E-02 -4.5000002E-02
endloop
endfacet
facet normal 0.0000000E+00 0.0000000E+00 1.0000000E+00
outer loop
vertex -6.1144668E-01 8.5000001E-02 -4.5000002E-02
vertex -6.4955592E-01 1.0103670E-01 -4.5000002E-02
vertex -6.8500000E-01 8.5000001E-02 -4.5000002E-02
endloop
endfacet
facet normal 0.0000000E+00 -0.0000000E+00 1.0000000E+00
outer loop
vertex -6.8500000E-01 8.5000001E-02 -4.5000002E-02
vertex -6.4955592E-01 1.0103670E-01 -4.5000002E-02
vertex -7.2973907E-01 1.1200000E-01 -4.5000002E-02
endloop
endfacet
facet normal 0.0000000E+00 0.0000000E+00 1.0000000E+00
outer loop
vertex -6.8500000E-01 8.5000001E-02 -4.5000002E-02
vertex -7.2973907E-01 1.1200000E-01 -4.5000002E-02
vertex -5.7800001E-01 -2.2000000E-02 -4.5000002E-02
endloop
endfacet
facet normal 0.0000000E+00 0.0000000E+00 1.0000000E+00
outer loop
vertex -5.7800001E-01 -2.2000000E-02 -4.5000002E-02
vertex -7.2973907E-01 1.1200000E-01 -4.5000002E-02
vertex -7.5251746E-01 1.0103670E-01 -4.5000002E-02
endloop
endfacet
facet normal 0.0000000E+00 0.0000000E+00 1.0000000E+00
outer loop
vertex -4.7744137E-01 -4.1368458E-02 -4.5000002E-02
vertex -4.9051663E-01 -2.2000000E-02 -4.5000002E-02
vertex -5.7800001E-01 -2.2000000E-02 -4.5000002E-02
endloop
endfacet
facet normal 0.0000000E+00 0.0000000E+00 1.0000000E+00
outer loop
vertex -6.4955592E-01 1.0103670E-01 -4.5000002E-02
vertex -6.9426095E-01 1.1200000E-01 -4.5000002E-02
vertex -7.2973907E-01 1.1200000E-01 -4.5000002E-02
endloop
endfacet
facet normal 5.0119454E-01 8.6533457E-01 0.0000000E+00
outer loop
vertex -5.5044407E-01 5.1480751E-02 -5.5000000E-02
vertex -5.5044407E-01 5.1480751E-02 -5.9000000E-02
vertex -6.0000002E-01 8.0183148E-02 -5.5000000E-02
endloop
endfacet
facet normal 5.0119454E-01 8.6533457E-01 0.0000000E+00
outer loop
vertex -6.0000002E-01 8.0183148E-02 -5.5000000E-02
vertex -5.5044407E-01 5.1480751E-02 -5.9000000E-02
vertex -6.0000002E-01 8.0183148E-02 -5.9000000E-02
endloop
endfacet
facet normal 7.0710713E-01 7.0710653E-01 -0.0000000E+00
outer loop
vertex -4.7200000E-01 -1.6000001E-02 -5.9000000E-02
vertex -5.0573903E-01 1.7739059E-02 -5.9000000E-02
vertex -4.7200000E-01 -1.6000001E-02 -5.5000000E-02
endloop
endfacet
facet normal 7.0710713E-01 7.0710653E-01 0.0000000E+00
outer loop
vertex -4.7200000E-01 -1.6000001E-02 -5.5000000E-02
vertex -5.0573903E-01 1.7739059E-02 -5.9000000E-02
vertex -5.0573903E-01 1.7739059E-02 -5.5000000E-02
endloop
endfacet
facet normal 6.0243016E-01 7.9817164E-01 0.0000000E+00
outer loop
vertex -5.0573903E-01 1.7739059E-02 -5.5000000E-02
vertex -5.0573903E-01 1.7739059E-02 -5.9000000E-02
vertex -5.5044407E-01 5.1480751E-02 -5.5000000E-02
endloop
endfacet
facet normal 6.0243016E-01 7.9817164E-01 0.0000000E+00
outer loop
vertex -5.5044407E-01 5.1480751E-02 -5.5000000E-02
vertex -5.0573903E-01 1.7739059E-02 -5.9000000E-02
vertex -5.5044407E-01 5.1480751E-02 -5.9000000E-02
endloop
endfacet
facet normal -9.3590397E-01 3.5225552E-01 0.0000000E+00
outer loop
vertex -7.5251746E-01 1.0103670E-01 -4.5000002E-02
vertex -7.5251746E-01 1.0103670E-01 -5.9000000E-02
vertex -7.6036632E-01 8.0183148E-02 -4.5000002E-02
endloop
endfacet
facet normal -9.3590397E-01 3.5225552E-01 0.0000000E+00
outer loop
vertex -7.6036632E-01 8.0183148E-02 -4.5000002E-02
vertex -7.5251746E-01 1.0103670E-01 -5.9000000E-02
vertex -7.6036632E-01 8.0183148E-02 -5.9000000E-02
endloop
endfacet
facet normal -4.3368497E-01 9.0106452E-01 0.0000000E+00
outer loop
vertex -7.2973907E-01 1.1200000E-01 -4.5000002E-02
vertex -7.2973907E-01 1.1200000E-01 -5.9000000E-02
vertex -7.5251746E-01 1.0103670E-01 -4.5000002E-02
endloop
endfacet
facet normal -4.3368497E-01 9.0106452E-01 0.0000000E+00
outer loop
vertex -7.5251746E-01 1.0103670E-01 -4.5000002E-02
vertex -7.2973907E-01 1.1200000E-01 -5.9000000E-02
vertex -7.5251746E-01 1.0103670E-01 -5.9000000E-02
endloop
endfacet
facet normal 0.0000000E+00 1.0000000E+00 0.0000000E+00
outer loop
vertex -6.9426095E-01 1.1200000E-01 -4.5000002E-02
vertex -6.9426095E-01 1.1200000E-01 -5.9000000E-02
vertex -7.2973907E-01 1.1200000E-01 -4.5000002E-02
endloop
endfacet
facet normal 0.0000000E+00 1.0000000E+00 0.0000000E+00
outer loop
vertex -7.2973907E-01 1.1200000E-01 -4.5000002E-02
vertex -6.9426095E-01 1.1200000E-01 -5.9000000E-02
vertex -7.2973907E-01 1.1200000E-01 -5.9000000E-02
endloop
endfacet
facet normal 2.3817889E-01 9.7122127E-01 0.0000000E+00
outer loop
vertex -6.4955592E-01 1.0103670E-01 -4.5000002E-02
vertex -6.4955592E-01 1.0103670E-01 -5.9000000E-02
vertex -6.9426095E-01 1.1200000E-01 -4.5000002E-02
endloop
endfacet
facet normal 2.3817889E-01 9.7122127E-01 0.0000000E+00
outer loop
vertex -6.9426095E-01 1.1200000E-01 -4.5000002E-02
vertex -6.4955592E-01 1.0103670E-01 -5.9000000E-02
vertex -6.9426095E-01 1.1200000E-01 -5.9000000E-02
endloop
endfacet
facet normal 8.2881784E-01 5.5951852E-01 0.0000000E+00
outer loop
vertex -4.7744137E-01 -4.1368458E-02 -4.5000002E-02
vertex -4.7744137E-01 -4.1368458E-02 -5.9000000E-02
vertex -4.9051663E-01 -2.2000000E-02 -4.5000002E-02
endloop
endfacet
facet normal 8.2881767E-01 5.5951881E-01 -5.7730597E-07
outer loop
vertex -4.9051663E-01 -2.2000000E-02 -4.5000002E-02
vertex -4.7744137E-01 -4.1368458E-02 -5.9000000E-02
vertex -4.9456713E-01 -1.6000001E-02 -5.9000000E-02
endloop
endfacet
facet normal 8.2881707E-01 5.5951971E-01 -0.0000000E+00
outer loop
vertex -4.9051663E-01 -2.2000000E-02 -4.5000002E-02
vertex -4.9456713E-01 -1.6000001E-02 -5.9000000E-02
vertex -4.9051663E-01 -2.2000000E-02 -4.0000002E-03
endloop
endfacet
facet normal 8.2881701E-01 5.5951971E-01 0.0000000E+00
outer loop
vertex -4.9051663E-01 -2.2000000E-02 -4.0000002E-03
vertex -4.9456713E-01 -1.6000001E-02 -5.9000000E-02
vertex -4.9456713E-01 -1.6000001E-02 -4.0000002E-03
endloop
endfacet
facet normal 9.6458465E-01 2.6377347E-01 0.0000000E+00
outer loop
vertex -4.7113422E-01 -6.4432889E-02 -4.5000002E-02
vertex -4.7113422E-01 -6.4432889E-02 -5.9000000E-02
vertex -4.7744137E-01 -4.1368458E-02 -4.5000002E-02
endloop
endfacet
facet normal 9.6458465E-01 2.6377347E-01 0.0000000E+00
outer loop
vertex -4.7744137E-01 -4.1368458E-02 -4.5000002E-02
vertex -4.7113422E-01 -6.4432889E-02 -5.9000000E-02
vertex -4.7744137E-01 -4.1368458E-02 -5.9000000E-02
endloop
endfacet
facet normal 9.3590295E-01 -3.5225782E-01 0.0000000E+00
outer loop
vertex -4.7744137E-01 -8.1190176E-02 -4.5000002E-02
vertex -4.7744137E-01 -8.1190176E-02 -5.9000000E-02
vertex -4.7113422E-01 -6.4432889E-02 -4.5000002E-02
endloop
endfacet
facet normal 9.3590295E-01 -3.5225782E-01 0.0000000E+00
outer loop
vertex -4.7113422E-01 -6.4432889E-02 -4.5000002E-02
vertex -4.7744137E-01 -8.1190176E-02 -5.9000000E-02
vertex -4.7113422E-01 -6.4432889E-02 -5.9000000E-02
endloop
endfacet
facet normal 4.3368694E-01 -9.0106362E-01 0.0000000E+00
outer loop
vertex -4.9574539E-01 -9.0000004E-02 -4.5000002E-02
vertex -4.9574539E-01 -9.0000004E-02 -5.9000000E-02
vertex -4.7744137E-01 -8.1190176E-02 -4.5000002E-02
endloop
endfacet
facet normal 4.3368694E-01 -9.0106362E-01 0.0000000E+00
outer loop
vertex -4.7744137E-01 -8.1190176E-02 -4.5000002E-02
vertex -4.9574539E-01 -9.0000004E-02 -5.9000000E-02
vertex -4.7744137E-01 -8.1190176E-02 -5.9000000E-02
endloop
endfacet
facet normal 0.0000000E+00 -1.0000000E+00 0.0000000E+00
outer loop
vertex -5.2425462E-01 -9.0000004E-02 -4.5000002E-02
vertex -5.2425462E-01 -9.0000004E-02 -5.9000000E-02
vertex -4.9574539E-01 -9.0000004E-02 -4.5000002E-02
endloop
endfacet
facet normal 0.0000000E+00 -1.0000000E+00 -0.0000000E+00
outer loop
vertex -4.9574539E-01 -9.0000004E-02 -4.5000002E-02
vertex -5.2425462E-01 -9.0000004E-02 -5.9000000E-02
vertex -4.9574539E-01 -9.0000004E-02 -5.9000000E-02
endloop
endfacet
facet normal -2.3817980E-01 -9.7122115E-01 -0.0000000E+00
outer loop
vertex -5.6017828E-01 -8.1190176E-02 -4.5000002E-02
vertex -5.6017828E-01 -8.1190176E-02 -5.9000000E-02
vertex -5.2425462E-01 -9.0000004E-02 -4.5000002E-02
endloop
endfacet
facet normal -2.3817980E-01 -9.7122115E-01 -0.0000000E+00
outer loop
vertex -5.2425462E-01 -9.0000004E-02 -4.5000002E-02
vertex -5.6017828E-01 -8.1190176E-02 -5.9000000E-02
vertex -5.2425462E-01 -9.0000004E-02 -5.9000000E-02
endloop
endfacet
facet normal -3.8786501E-01 -9.2171615E-01 -0.0000000E+00
outer loop
vertex -6.0000002E-01 -6.4432889E-02 -4.5000002E-02
vertex -6.0000002E-01 -6.4432889E-02 -5.9000000E-02
vertex -5.6017828E-01 -8.1190176E-02 -4.5000002E-02
endloop
endfacet
facet normal -3.8786501E-01 -9.2171615E-01 -0.0000000E+00
outer loop
vertex -5.6017828E-01 -8.1190176E-02 -4.5000002E-02
vertex -6.0000002E-01 -6.4432889E-02 -5.9000000E-02
vertex -5.6017828E-01 -8.1190176E-02 -5.9000000E-02
endloop
endfacet
facet normal -5.0119525E-01 -8.6533415E-01 -0.0000000E+00
outer loop
vertex -6.3982171E-01 -4.1368458E-02 -4.5000002E-02
vertex -6.3982171E-01 -4.1368458E-02 -5.9000000E-02
vertex -6.0000002E-01 -6.4432889E-02 -4.5000002E-02
endloop
endfacet
facet normal -5.0119525E-01 -8.6533415E-01 -0.0000000E+00
outer loop
vertex -6.0000002E-01 -6.4432889E-02 -4.5000002E-02
vertex -6.3982171E-01 -4.1368458E-02 -5.9000000E-02
vertex -6.0000002E-01 -6.4432889E-02 -5.9000000E-02
endloop
endfacet
facet normal -6.0242981E-01 -7.9817188E-01 -0.0000000E+00
outer loop
vertex -6.7574543E-01 -1.4254600E-02 -4.5000002E-02
vertex -6.7574543E-01 -1.4254600E-02 -5.9000000E-02
vertex -6.3982171E-01 -4.1368458E-02 -4.5000002E-02
endloop
endfacet
facet normal -6.0242981E-01 -7.9817188E-01 -0.0000000E+00
outer loop
vertex -6.3982171E-01 -4.1368458E-02 -4.5000002E-02
vertex -6.7574543E-01 -1.4254600E-02 -5.9000000E-02
vertex -6.3982171E-01 -4.1368458E-02 -5.9000000E-02
endloop
endfacet
facet normal -7.0710683E-01 -7.0710677E-01 -0.0000000E+00
outer loop
vertex -7.5667143E-01 6.6671409E-02 -4.5000002E-02
vertex -7.5667143E-01 6.6671409E-02 -5.9000000E-02
vertex -6.7574543E-01 -1.4254600E-02 -4.5000002E-02
endloop
endfacet
facet normal -7.0710683E-01 -7.0710677E-01 -0.0000000E+00
outer loop
vertex -6.7574543E-01 -1.4254600E-02 -4.5000002E-02
vertex -7.5667143E-01 6.6671409E-02 -5.9000000E-02
vertex -6.7574543E-01 -1.4254600E-02 -5.9000000E-02
endloop
endfacet
facet normal -9.6458471E-01 -2.6377329E-01 -0.0000000E+00
outer loop
vertex -7.6036632E-01 8.0183148E-02 -4.5000002E-02
vertex -7.6036632E-01 8.0183148E-02 -5.9000000E-02
vertex -7.5667143E-01 6.6671409E-02 -4.5000002E-02
endloop
endfacet
facet normal -9.6458471E-01 -2.6377329E-01 -0.0000000E+00
outer loop
vertex -7.5667143E-01 6.6671409E-02 -4.5000002E-02
vertex -7.6036632E-01 8.0183148E-02 -5.9000000E-02
vertex -7.5667143E-01 6.6671409E-02 -5.9000000E-02
endloop
endfacet
facet normal 0.0000000E+00 0.0000000E+00 -1.0000000E+00
outer loop
vertex -6.3982171E-01 -4.1368458E-02 -5.9000000E-02
vertex -6.7574543E-01 -1.4254600E-02 -5.9000000E-02
vertex -6.0000002E-01 -6.4432889E-02 -5.9000000E-02
endloop
endfacet
facet normal 0.0000000E+00 0.0000000E+00 -1.0000000E+00
outer loop
vertex -6.0000002E-01 -6.4432889E-02 -5.9000000E-02
vertex -6.7574543E-01 -1.4254600E-02 -5.9000000E-02
vertex -7.5667143E-01 6.6671409E-02 -5.9000000E-02
endloop
endfacet
facet normal 0.0000000E+00 0.0000000E+00 -1.0000000E+00
outer loop
vertex -6.0000002E-01 -6.4432889E-02 -5.9000000E-02
vertex -7.5667143E-01 6.6671409E-02 -5.9000000E-02
vertex -5.6017828E-01 -8.1190176E-02 -5.9000000E-02
endloop
endfacet
facet normal 0.0000000E+00 0.0000000E+00 -1.0000000E+00
outer loop
vertex -5.6017828E-01 -8.1190176E-02 -5.9000000E-02
vertex -7.5667143E-01 6.6671409E-02 -5.9000000E-02
vertex -7.6036632E-01 8.0183148E-02 -5.9000000E-02
endloop
endfacet
facet normal 0.0000000E+00 0.0000000E+00 -1.0000000E+00
outer loop
vertex -5.6017828E-01 -8.1190176E-02 -5.9000000E-02
vertex -7.6036632E-01 8.0183148E-02 -5.9000000E-02
vertex -5.2425462E-01 -9.0000004E-02 -5.9000000E-02
endloop
endfacet
facet normal 0.0000000E+00 0.0000000E+00 -1.0000000E+00
outer loop
vertex -5.2425462E-01 -9.0000004E-02 -5.9000000E-02
vertex -7.6036632E-01 8.0183148E-02 -5.9000000E-02
vertex -7.5251746E-01 1.0103670E-01 -5.9000000E-02
endloop
endfacet
facet normal 0.0000000E+00 0.0000000E+00 -1.0000000E+00
outer loop
vertex -5.2425462E-01 -9.0000004E-02 -5.9000000E-02
vertex -7.5251746E-01 1.0103670E-01 -5.9000000E-02
vertex -4.9574539E-01 -9.0000004E-02 -5.9000000E-02
endloop
endfacet
facet normal 0.0000000E+00 0.0000000E+00 -1.0000000E+00
outer loop
vertex -4.9574539E-01 -9.0000004E-02 -5.9000000E-02
vertex -7.5251746E-01 1.0103670E-01 -5.9000000E-02
vertex -7.2973907E-01 1.1200000E-01 -5.9000000E-02
endloop
endfacet
facet normal 0.0000000E+00 0.0000000E+00 -1.0000000E+00
outer loop
vertex -4.9574539E-01 -9.0000004E-02 -5.9000000E-02
vertex -7.2973907E-01 1.1200000E-01 -5.9000000E-02
vertex -4.7744137E-01 -8.1190176E-02 -5.9000000E-02
endloop
endfacet
facet normal 0.0000000E+00 0.0000000E+00 -1.0000000E+00
outer loop
vertex -4.7744137E-01 -8.1190176E-02 -5.9000000E-02
vertex -7.2973907E-01 1.1200000E-01 -5.9000000E-02
vertex -4.7744137E-01 -4.1368458E-02 -5.9000000E-02
endloop
endfacet
facet normal 0.0000000E+00 0.0000000E+00 -1.0000000E+00
outer loop
vertex -4.7744137E-01 -8.1190176E-02 -5.9000000E-02
vertex -4.7744137E-01 -4.1368458E-02 -5.9000000E-02
vertex -4.7113422E-01 -6.4432889E-02 -5.9000000E-02
endloop
endfacet
facet normal 0.0000000E+00 0.0000000E+00 -1.0000000E+00
outer loop
vertex -4.7744137E-01 -4.1368458E-02 -5.9000000E-02
vertex -7.2973907E-01 1.1200000E-01 -5.9000000E-02
vertex -4.9456713E-01 -1.6000001E-02 -5.9000000E-02
endloop
endfacet
facet normal 0.0000000E+00 0.0000000E+00 -1.0000000E+00
outer loop
vertex -4.9456713E-01 -1.6000001E-02 -5.9000000E-02
vertex -7.2973907E-01 1.1200000E-01 -5.9000000E-02
vertex -6.9426095E-01 1.1200000E-01 -5.9000000E-02
endloop
endfacet
facet normal 0.0000000E+00 0.0000000E+00 -9.9999994E-01
outer loop
vertex -4.9456713E-01 -1.6000001E-02 -5.9000000E-02
vertex -6.9426095E-01 1.1200000E-01 -5.9000000E-02
vertex -6.4955592E-01 1.0103670E-01 -5.9000000E-02
endloop
endfacet
facet normal 0.0000000E+00 0.0000000E+00 -1.0000000E+00
outer loop
vertex -4.7200000E-01 -1.6000001E-02 -5.9000000E-02
vertex -4.9456713E-01 -1.6000001E-02 -5.9000000E-02
vertex -5.0573903E-01 1.7739059E-02 -5.9000000E-02
endloop
endfacet
facet normal -0.0000000E+00 -0.0000000E+00 -1.0000000E+00
outer loop
vertex -5.0573903E-01 1.7739059E-02 -5.9000000E-02
vertex -4.9456713E-01 -1.6000001E-02 -5.9000000E-02
vertex -6.4955592E-01 1.0103670E-01 -5.9000000E-02
endloop
endfacet
facet normal 0.0000000E+00 0.0000000E+00 -1.0000000E+00
outer loop
vertex -5.0573903E-01 1.7739059E-02 -5.9000000E-02
vertex -6.4955592E-01 1.0103670E-01 -5.9000000E-02
vertex -5.5044407E-01 5.1480751E-02 -5.9000000E-02
endloop
endfacet
facet normal 0.0000000E+00 0.0000000E+00 -1.0000000E+00
outer loop
vertex -5.5044407E-01 5.1480751E-02 -5.9000000E-02
vertex -6.4955592E-01 1.0103670E-01 -5.9000000E-02
vertex -6.0000002E-01 8.0183148E-02 -5.9000000E-02
endloop
endfacet
facet normal -9.6458626E-01 -2.6376754E-01 -0.0000000E+00
outer loop
vertex -4.4387050E-02 2.2193549E-02 -5.5000000E-02
vertex -4.4387050E-02 2.2193549E-02 -5.6000002E-02
vertex -4.2214639E-02 1.4249140E-02 -5.5000000E-02
endloop
endfacet
facet normal -9.6458626E-01 -2.6376754E-01 -0.0000000E+00
outer loop
vertex -4.2214639E-02 1.4249140E-02 -5.5000000E-02
vertex -4.4387050E-02 2.2193549E-02 -5.6000002E-02
vertex -4.2214639E-02 1.4249140E-02 -5.6000002E-02
endloop
endfacet
facet normal -9.3590444E-01 3.5225403E-01 0.0000000E+00
outer loop
vertex -4.2214610E-02 2.7965510E-02 -5.5000000E-02
vertex -4.2214610E-02 2.7965510E-02 -5.6000002E-02
vertex -4.4387050E-02 2.2193549E-02 -5.5000000E-02
endloop
endfacet
facet normal -9.3590444E-01 3.5225403E-01 0.0000000E+00
outer loop
vertex -4.4387050E-02 2.2193549E-02 -5.5000000E-02
vertex -4.2214610E-02 2.7965510E-02 -5.6000002E-02
vertex -4.4387050E-02 2.2193549E-02 -5.6000002E-02
endloop
endfacet
facet normal -4.3368658E-01 9.0106380E-01 0.0000000E+00
outer loop
vertex -3.5909899E-02 3.0999999E-02 -5.5000000E-02
vertex -3.5909899E-02 3.0999999E-02 -5.6000002E-02
vertex -4.2214610E-02 2.7965510E-02 -5.5000000E-02
endloop
endfacet
facet normal -4.3368658E-01 9.0106380E-01 0.0000000E+00
outer loop
vertex -4.2214610E-02 2.7965510E-02 -5.5000000E-02
vertex -3.5909899E-02 3.0999999E-02 -5.6000002E-02
vertex -4.2214610E-02 2.7965510E-02 -5.6000002E-02
endloop
endfacet
facet normal 0.0000000E+00 1.0000000E+00 0.0000000E+00
outer loop
vertex -2.6090100E-02 3.0999999E-02 -5.5000000E-02
vertex -2.6090100E-02 3.0999999E-02 -5.6000002E-02
vertex -3.5909899E-02 3.0999999E-02 -5.5000000E-02
endloop
endfacet
facet normal 0.0000000E+00 1.0000000E+00 0.0000000E+00
outer loop
vertex -3.5909899E-02 3.0999999E-02 -5.5000000E-02
vertex -2.6090100E-02 3.0999999E-02 -5.6000002E-02
vertex -3.5909899E-02 3.0999999E-02 -5.6000002E-02
endloop
endfacet
facet normal 2.3818085E-01 9.7122085E-01 -0.0000000E+00
outer loop
vertex -2.6090100E-02 3.0999999E-02 5.5000000E-02
vertex -2.6090100E-02 3.0999999E-02 5.6000002E-02
vertex -1.4119430E-02 2.8064329E-02 5.5000000E-02
endloop
endfacet
facet normal 2.3817956E-01 9.7122115E-01 -1.6231583E-05
outer loop
vertex -1.4119430E-02 2.8064329E-02 5.5000000E-02
vertex -2.6090100E-02 3.0999999E-02 5.6000002E-02
vertex -1.3716410E-02 2.7965510E-02 5.6000002E-02
endloop
endfacet
facet normal 2.3814158E-01 9.7123051E-01 0.0000000E+00
outer loop
vertex -1.4119430E-02 2.8064329E-02 5.5000000E-02
vertex -1.3716410E-02 2.7965510E-02 5.6000002E-02
vertex -1.4119430E-02 2.8064329E-02 -5.5000000E-02
endloop
endfacet
facet normal 2.3814157E-01 9.7123045E-01 0.0000000E+00
outer loop
vertex -1.4119430E-02 2.8064329E-02 -5.5000000E-02
vertex -1.3716410E-02 2.7965510E-02 5.6000002E-02
vertex -1.3716410E-02 2.7965510E-02 -5.6000002E-02
endloop
endfacet
facet normal 2.3818085E-01 9.7122085E-01 1.6778053E-05
outer loop
vertex -1.4119430E-02 2.8064329E-02 -5.5000000E-02
vertex -1.3716410E-02 2.7965510E-02 -5.6000002E-02
vertex -2.6090100E-02 3.0999999E-02 -5.5000000E-02
endloop
endfacet
facet normal 2.3817956E-01 9.7122115E-01 0.0000000E+00
outer loop
vertex -2.6090100E-02 3.0999999E-02 -5.5000000E-02
vertex -1.3716410E-02 2.7965510E-02 -5.6000002E-02
vertex -2.6090100E-02 3.0999999E-02 -5.6000002E-02
endloop
endfacet
facet normal -6.0243011E-01 -7.9817164E-01 -0.0000000E+00
outer loop
vertex -2.6090082E-02 -4.9099182E-03 -5.5000000E-02
vertex -2.6090082E-02 -4.9099182E-03 -5.6000002E-02
vertex -1.3716360E-02 -1.4249140E-02 -5.5000000E-02
endloop
endfacet
facet normal -6.0243011E-01 -7.9817164E-01 -0.0000000E+00
outer loop
vertex -1.3716360E-02 -1.4249140E-02 -5.5000000E-02
vertex -2.6090082E-02 -4.9099182E-03 -5.6000002E-02
vertex -1.3716360E-02 -1.4249140E-02 -5.6000002E-02
endloop
endfacet
facet normal -7.0710683E-01 -7.0710677E-01 -0.0000000E+00
outer loop
vertex -3.5909917E-02 4.9099182E-03 -5.5000000E-02
vertex -3.5909917E-02 4.9099182E-03 -5.6000002E-02
vertex -2.6090082E-02 -4.9099182E-03 -5.5000000E-02
endloop
endfacet
facet normal -7.0710683E-01 -7.0710677E-01 -0.0000000E+00
outer loop
vertex -2.6090082E-02 -4.9099182E-03 -5.5000000E-02
vertex -3.5909917E-02 4.9099182E-03 -5.6000002E-02
vertex -2.6090082E-02 -4.9099182E-03 -5.6000002E-02
endloop
endfacet
facet normal -8.2881796E-01 -5.5951840E-01 -0.0000000E+00
outer loop
vertex -4.2214639E-02 1.4249140E-02 -5.5000000E-02
vertex -4.2214639E-02 1.4249140E-02 -5.6000002E-02
vertex -3.5909917E-02 4.9099182E-03 -5.5000000E-02
endloop
endfacet
facet normal -8.2881796E-01 -5.5951840E-01 -0.0000000E+00
outer loop
vertex -3.5909917E-02 4.9099182E-03 -5.5000000E-02
vertex -4.2214639E-02 1.4249140E-02 -5.6000002E-02
vertex -3.5909917E-02 4.9099182E-03 -5.6000002E-02
endloop
endfacet
facet normal -9.6458626E-01 -2.6376754E-01 -0.0000000E+00
outer loop
vertex -4.2214639E-02 1.4249140E-02 5.6000002E-02
vertex -4.4387050E-02 2.2193549E-02 5.6000002E-02
vertex -4.2214639E-02 1.4249140E-02 5.5000000E-02
endloop
endfacet
facet normal -9.6458626E-01 -2.6376754E-01 0.0000000E+00
outer loop
vertex -4.2214639E-02 1.4249140E-02 5.5000000E-02
vertex -4.4387050E-02 2.2193549E-02 5.6000002E-02
vertex -4.4387050E-02 2.2193549E-02 5.5000000E-02
endloop
endfacet
facet normal -9.3590444E-01 3.5225403E-01 0.0000000E+00
outer loop
vertex -4.4387050E-02 2.2193549E-02 5.6000002E-02
vertex -4.2214610E-02 2.7965510E-02 5.6000002E-02
vertex -4.4387050E-02 2.2193549E-02 5.5000000E-02
endloop
endfacet
facet normal -9.3590444E-01 3.5225403E-01 0.0000000E+00
outer loop
vertex -4.4387050E-02 2.2193549E-02 5.5000000E-02
vertex -4.2214610E-02 2.7965510E-02 5.6000002E-02
vertex -4.2214610E-02 2.7965510E-02 5.5000000E-02
endloop
endfacet
facet normal -4.3368658E-01 9.0106380E-01 0.0000000E+00
outer loop
vertex -4.2214610E-02 2.7965510E-02 5.6000002E-02
vertex -3.5909899E-02 3.0999999E-02 5.6000002E-02
vertex -4.2214610E-02 2.7965510E-02 5.5000000E-02
endloop
endfacet
facet normal -4.3368658E-01 9.0106380E-01 0.0000000E+00
outer loop
vertex -4.2214610E-02 2.7965510E-02 5.5000000E-02
vertex -3.5909899E-02 3.0999999E-02 5.6000002E-02
vertex -3.5909899E-02 3.0999999E-02 5.5000000E-02
endloop
endfacet
facet normal -0.0000000E+00 1.0000000E+00 0.0000000E+00
outer loop
vertex -3.5909899E-02 3.0999999E-02 5.6000002E-02
vertex -2.6090100E-02 3.0999999E-02 5.6000002E-02
vertex -3.5909899E-02 3.0999999E-02 5.5000000E-02
endloop
endfacet
facet normal 0.0000000E+00 1.0000000E+00 0.0000000E+00
outer loop
vertex -3.5909899E-02 3.0999999E-02 5.5000000E-02
vertex -2.6090100E-02 3.0999999E-02 5.6000002E-02
vertex -2.6090100E-02 3.0999999E-02 5.5000000E-02
endloop
endfacet
facet normal -6.0243011E-01 -7.9817164E-01 -0.0000000E+00
outer loop
vertex -1.3716360E-02 -1.4249140E-02 5.6000002E-02
vertex -2.6090082E-02 -4.9099182E-03 5.6000002E-02
vertex -1.3716360E-02 -1.4249140E-02 5.5000000E-02
endloop
endfacet
facet normal -6.0243011E-01 -7.9817164E-01 0.0000000E+00
outer loop
vertex -1.3716360E-02 -1.4249140E-02 5.5000000E-02
vertex -2.6090082E-02 -4.9099182E-03 5.6000002E-02
vertex -2.6090082E-02 -4.9099182E-03 5.5000000E-02
endloop
endfacet
facet normal -7.0710683E-01 -7.0710677E-01 -0.0000000E+00
outer loop
vertex -2.6090082E-02 -4.9099182E-03 5.6000002E-02
vertex -3.5909917E-02 4.9099182E-03 5.6000002E-02
vertex -2.6090082E-02 -4.9099182E-03 5.5000000E-02
endloop
endfacet
facet normal -7.0710683E-01 -7.0710677E-01 0.0000000E+00
outer loop
vertex -2.6090082E-02 -4.9099182E-03 5.5000000E-02
vertex -3.5909917E-02 4.9099182E-03 5.6000002E-02
vertex -3.5909917E-02 4.9099182E-03 5.5000000E-02
endloop
endfacet
facet normal -8.2881796E-01 -5.5951840E-01 -0.0000000E+00
outer loop
vertex -3.5909917E-02 4.9099182E-03 5.6000002E-02
vertex -4.2214639E-02 1.4249140E-02 5.6000002E-02
vertex -3.5909917E-02 4.9099182E-03 5.5000000E-02
endloop
endfacet
facet normal -8.2881796E-01 -5.5951840E-01 0.0000000E+00
outer loop
vertex -3.5909917E-02 4.9099182E-03 5.5000000E-02
vertex -4.2214639E-02 1.4249140E-02 5.6000002E-02
vertex -4.2214639E-02 1.4249140E-02 5.5000000E-02
endloop
endfacet
facet normal 0.0000000E+00 -0.0000000E+00 -9.9999994E-01
outer loop
vertex 2.6090082E-02 4.9099182E-03 -5.6000002E-02
vertex 3.5909917E-02 -4.9099182E-03 -5.6000002E-02
vertex -1.3716360E-02 -1.4249140E-02 -5.6000002E-02
endloop
endfacet
facet normal 0.0000000E+00 0.0000000E+00 -1.0000000E+00
outer loop
vertex -1.3716360E-02 -1.4249140E-02 -5.6000002E-02
vertex 3.5909917E-02 -4.9099182E-03 -5.6000002E-02
vertex 4.4387151E-02 -2.2193549E-02 -5.6000002E-02
endloop
endfacet
facet normal 0.0000000E+00 0.0000000E+00 -1.0000000E+00
outer loop
vertex -1.3716360E-02 -1.4249140E-02 -5.6000002E-02
vertex 4.4387151E-02 -2.2193549E-02 -5.6000002E-02
vertex 1.3716410E-02 -2.7965510E-02 -5.6000002E-02
endloop
endfacet
facet normal 0.0000000E+00 0.0000000E+00 -1.0000000E+00
outer loop
vertex 1.3716410E-02 -2.7965510E-02 -5.6000002E-02
vertex 4.4387151E-02 -2.2193549E-02 -5.6000002E-02
vertex 3.5909899E-02 -3.0999999E-02 -5.6000002E-02
endloop
endfacet
facet normal 0.0000000E+00 0.0000000E+00 -1.0000000E+00
outer loop
vertex 1.3716410E-02 -2.7965510E-02 -5.6000002E-02
vertex 3.5909899E-02 -3.0999999E-02 -5.6000002E-02
vertex 2.6090100E-02 -3.0999999E-02 -5.6000002E-02
endloop
endfacet
facet normal 0.0000000E+00 0.0000000E+00 -9.9999994E-01
outer loop
vertex -2.6090082E-02 -4.9099182E-03 -5.6000002E-02
vertex -3.5909917E-02 4.9099182E-03 -5.6000002E-02
vertex 1.3716360E-02 1.4249140E-02 -5.6000002E-02
endloop
endfacet
facet normal -0.0000000E+00 0.0000000E+00 -1.0000000E+00
outer loop
vertex 1.3716360E-02 1.4249140E-02 -5.6000002E-02
vertex -3.5909917E-02 4.9099182E-03 -5.6000002E-02
vertex -4.4387050E-02 2.2193549E-02 -5.6000002E-02
endloop
endfacet
facet normal 0.0000000E+00 0.0000000E+00 -1.0000000E+00
outer loop
vertex 1.3716360E-02 1.4249140E-02 -5.6000002E-02
vertex -4.4387050E-02 2.2193549E-02 -5.6000002E-02
vertex 5.0000001E-08 2.2193549E-02 -5.6000002E-02
endloop
endfacet
facet normal 0.0000000E+00 0.0000000E+00 -1.0000000E+00
outer loop
vertex 5.0000001E-08 2.2193549E-02 -5.6000002E-02
vertex -4.4387050E-02 2.2193549E-02 -5.6000002E-02
vertex -4.2214610E-02 2.7965510E-02 -5.6000002E-02
endloop
endfacet
facet normal 0.0000000E+00 0.0000000E+00 -1.0000000E+00
outer loop
vertex 5.0000001E-08 2.2193549E-02 -5.6000002E-02
vertex -4.2214610E-02 2.7965510E-02 -5.6000002E-02
vertex -1.3716410E-02 2.7965510E-02 -5.6000002E-02
endloop
endfacet
facet normal 0.0000000E+00 0.0000000E+00 -9.9999994E-01
outer loop
vertex -1.3716410E-02 2.7965510E-02 -5.6000002E-02
vertex -4.2214610E-02 2.7965510E-02 -5.6000002E-02
vertex -3.5909899E-02 3.0999999E-02 -5.6000002E-02
endloop
endfacet
facet normal 0.0000000E+00 0.0000000E+00 -1.0000000E+00
outer loop
vertex -1.3716410E-02 2.7965510E-02 -5.6000002E-02
vertex -3.5909899E-02 3.0999999E-02 -5.6000002E-02
vertex -2.6090100E-02 3.0999999E-02 -5.6000002E-02
endloop
endfacet
facet normal -0.0000000E+00 0.0000000E+00 -1.0000000E+00
outer loop
vertex 2.6090082E-02 4.9099182E-03 -5.6000002E-02
vertex -1.3716360E-02 -1.4249140E-02 -5.6000002E-02
vertex 1.3716360E-02 1.4249140E-02 -5.6000002E-02
endloop
endfacet
facet normal 0.0000000E+00 0.0000000E+00 -1.0000000E+00
outer loop
vertex 1.3716360E-02 1.4249140E-02 -5.6000002E-02
vertex -1.3716360E-02 -1.4249140E-02 -5.6000002E-02
vertex -2.6090082E-02 -4.9099182E-03 -5.6000002E-02
endloop
endfacet
facet normal 0.0000000E+00 0.0000000E+00 -1.0000000E+00
outer loop
vertex 4.4387151E-02 -2.2193549E-02 -5.6000002E-02
vertex 4.2214610E-02 -2.7965510E-02 -5.6000002E-02
vertex 3.5909899E-02 -3.0999999E-02 -5.6000002E-02
endloop
endfacet
facet normal 0.0000000E+00 0.0000000E+00 -1.0000000E+00
outer loop
vertex -3.5909917E-02 4.9099182E-03 -5.6000002E-02
vertex -4.2214639E-02 1.4249140E-02 -5.6000002E-02
vertex -4.4387050E-02 2.2193549E-02 -5.6000002E-02
endloop
endfacet
facet normal 0.0000000E+00 0.0000000E+00 -1.0000000E+00
outer loop
vertex 3.5909917E-02 -4.9099182E-03 -5.6000002E-02
vertex 4.2214639E-02 -1.4249140E-02 -5.6000002E-02
vertex 4.4387151E-02 -2.2193549E-02 -5.6000002E-02
endloop
endfacet
facet normal 0.0000000E+00 0.0000000E+00 -9.9999994E-01
outer loop
vertex 1.3716410E-02 -2.7965510E-02 -5.6000002E-02
vertex 5.0000001E-08 -2.2193549E-02 -5.6000002E-02
vertex -1.3716360E-02 -1.4249140E-02 -5.6000002E-02
endloop
endfacet
facet normal -0.0000000E+00 -0.0000000E+00 1.0000000E+00
outer loop
vertex -2.6090082E-02 -4.9099182E-03 5.6000002E-02
vertex -1.3716360E-02 -1.4249140E-02 5.6000002E-02
vertex -3.5909917E-02 4.9099182E-03 5.6000002E-02
endloop
endfacet
facet normal -0.0000000E+00 0.0000000E+00 1.0000000E+00
outer loop
vertex -3.5909917E-02 4.9099182E-03 5.6000002E-02
vertex -1.3716360E-02 -1.4249140E-02 5.6000002E-02
vertex 5.0000001E-08 2.2193549E-02 5.6000002E-02
endloop
endfacet
facet normal 0.0000000E+00 -0.0000000E+00 1.0000000E+00
outer loop
vertex -3.5909917E-02 4.9099182E-03 5.6000002E-02
vertex 5.0000001E-08 2.2193549E-02 5.6000002E-02
vertex -4.2214639E-02 1.4249140E-02 5.6000002E-02
endloop
endfacet
facet normal 0.0000000E+00 -0.0000000E+00 1.0000000E+00
outer loop
vertex -4.2214639E-02 1.4249140E-02 5.6000002E-02
vertex 5.0000001E-08 2.2193549E-02 5.6000002E-02
vertex -4.4387050E-02 2.2193549E-02 5.6000002E-02
endloop
endfacet
facet normal 0.0000000E+00 0.0000000E+00 1.0000000E+00
outer loop
vertex -4.4387050E-02 2.2193549E-02 5.6000002E-02
vertex -1.3716410E-02 2.7965510E-02 5.6000002E-02
vertex -4.2214610E-02 2.7965510E-02 5.6000002E-02
endloop
endfacet
facet normal 0.0000000E+00 0.0000000E+00 9.9999994E-01
outer loop
vertex -4.2214610E-02 2.7965510E-02 5.6000002E-02
vertex -1.3716410E-02 2.7965510E-02 5.6000002E-02
vertex -2.6090100E-02 3.0999999E-02 5.6000002E-02
endloop
endfacet
facet normal 0.0000000E+00 0.0000000E+00 1.0000000E+00
outer loop
vertex -4.2214610E-02 2.7965510E-02 5.6000002E-02
vertex -2.6090100E-02 3.0999999E-02 5.6000002E-02
vertex -3.5909899E-02 3.0999999E-02 5.6000002E-02
endloop
endfacet
facet normal 0.0000000E+00 -0.0000000E+00 1.0000000E+00
outer loop
vertex 2.6090100E-02 -3.0999999E-02 5.6000002E-02
vertex 3.5909899E-02 -3.0999999E-02 5.6000002E-02
vertex 1.3716410E-02 -2.7965510E-02 5.6000002E-02
endloop
endfacet
facet normal -0.0000000E+00 0.0000000E+00 1.0000000E+00
outer loop
vertex 1.3716410E-02 -2.7965510E-02 5.6000002E-02
vertex 3.5909899E-02 -3.0999999E-02 5.6000002E-02
vertex 4.4387151E-02 -2.2193549E-02 5.6000002E-02
endloop
endfacet
facet normal 0.0000000E+00 -0.0000000E+00 1.0000000E+00
outer loop
vertex 1.3716410E-02 -2.7965510E-02 5.6000002E-02
vertex 4.4387151E-02 -2.2193549E-02 5.6000002E-02
vertex 5.0000001E-08 -2.2193549E-02 5.6000002E-02
endloop
endfacet
facet normal 0.0000000E+00 -0.0000000E+00 1.0000000E+00
outer loop
vertex 5.0000001E-08 -2.2193549E-02 5.6000002E-02
vertex 4.4387151E-02 -2.2193549E-02 5.6000002E-02
vertex -1.3716360E-02 -1.4249140E-02 5.6000002E-02
endloop
endfacet
facet normal 0.0000000E+00 0.0000000E+00 1.0000000E+00
outer loop
vertex 4.2214639E-02 -1.4249140E-02 5.6000002E-02
vertex 3.5909917E-02 -4.9099182E-03 5.6000002E-02
vertex 4.4387151E-02 -2.2193549E-02 5.6000002E-02
endloop
endfacet
facet normal 0.0000000E+00 0.0000000E+00 9.9999994E-01
outer loop
vertex 4.4387151E-02 -2.2193549E-02 5.6000002E-02
vertex 3.5909917E-02 -4.9099182E-03 5.6000002E-02
vertex 2.6090082E-02 4.9099182E-03 5.6000002E-02
endloop
endfacet
facet normal 0.0000000E+00 0.0000000E+00 9.9999994E-01
outer loop
vertex 4.4387151E-02 -2.2193549E-02 5.6000002E-02
vertex 2.6090082E-02 4.9099182E-03 5.6000002E-02
vertex -1.3716360E-02 -1.4249140E-02 5.6000002E-02
endloop
endfacet
facet normal 0.0000000E+00 0.0000000E+00 1.0000000E+00
outer loop
vertex -1.3716360E-02 -1.4249140E-02 5.6000002E-02
vertex 2.6090082E-02 4.9099182E-03 5.6000002E-02
vertex 1.3716360E-02 1.4249140E-02 5.6000002E-02
endloop
endfacet
facet normal 0.0000000E+00 0.0000000E+00 1.0000000E+00
outer loop
vertex -1.3716360E-02 -1.4249140E-02 5.6000002E-02
vertex 1.3716360E-02 1.4249140E-02 5.6000002E-02
vertex 5.0000001E-08 2.2193549E-02 5.6000002E-02
endloop
endfacet
facet normal 0.0000000E+00 0.0000000E+00 1.0000000E+00
outer loop
vertex -4.4387050E-02 2.2193549E-02 5.6000002E-02
vertex 5.0000001E-08 2.2193549E-02 5.6000002E-02
vertex -1.3716410E-02 2.7965510E-02 5.6000002E-02
endloop
endfacet
facet normal 0.0000000E+00 0.0000000E+00 1.0000000E+00
outer loop
vertex 3.5909899E-02 -3.0999999E-02 5.6000002E-02
vertex 4.2214610E-02 -2.7965510E-02 5.6000002E-02
vertex 4.4387151E-02 -2.2193549E-02 5.6000002E-02
endloop
endfacet
facet normal -0.0000000E+00 -0.0000000E+00 -1.0000000E+00
outer loop
vertex -3.6000001E-01 -1.6000001E-02 -4.0000002E-03
vertex -3.5400000E-01 -2.2000000E-02 -4.0000002E-03
vertex -4.9456713E-01 -1.6000001E-02 -4.0000002E-03
endloop
endfacet
facet normal 0.0000000E+00 0.0000000E+00 -1.0000000E+00
outer loop
vertex -4.9456713E-01 -1.6000001E-02 -4.0000002E-03
vertex -3.5400000E-01 -2.2000000E-02 -4.0000002E-03
vertex -4.9051663E-01 -2.2000000E-02 -4.0000002E-03
endloop
endfacet
facet normal -7.0710605E-01 -7.0710760E-01 -0.0000000E+00
outer loop
vertex -3.6000001E-01 -1.6000001E-02 -4.0000002E-03
vertex -3.6000001E-01 -1.6000001E-02 -5.5000000E-02
vertex -3.5400000E-01 -2.2000000E-02 -4.0000002E-03
endloop
endfacet
facet normal -7.0710605E-01 -7.0710760E-01 -0.0000000E+00
outer loop
vertex -3.5400000E-01 -2.2000000E-02 -4.0000002E-03
vertex -3.6000001E-01 -1.6000001E-02 -5.5000000E-02
vertex -3.5400000E-01 -2.2000000E-02 -5.5000000E-02
endloop
endfacet
facet normal 0.0000000E+00 -1.0000000E+00 0.0000000E+00
outer loop
vertex -3.6000001E-01 -1.6000001E-02 -5.5000000E-02
vertex -3.6000001E-01 -1.6000001E-02 -4.0000002E-03
vertex -4.7200000E-01 -1.6000001E-02 -5.5000000E-02
endloop
endfacet
facet normal 0.0000000E+00 -9.9999994E-01 0.0000000E+00
outer loop
vertex -4.7200000E-01 -1.6000001E-02 -5.5000000E-02
vertex -3.6000001E-01 -1.6000001E-02 -4.0000002E-03
vertex -4.9456713E-01 -1.6000001E-02 -4.0000002E-03
endloop
endfacet
facet normal -0.0000000E+00 -1.0000000E+00 -0.0000000E+00
outer loop
vertex -4.7200000E-01 -1.6000001E-02 -5.5000000E-02
vertex -4.9456713E-01 -1.6000001E-02 -4.0000002E-03
vertex -4.7200000E-01 -1.6000001E-02 -5.9000000E-02
endloop
endfacet
facet normal 0.0000000E+00 -1.0000000E+00 0.0000000E+00
outer loop
vertex -4.7200000E-01 -1.6000001E-02 -5.9000000E-02
vertex -4.9456713E-01 -1.6000001E-02 -4.0000002E-03
vertex -4.9456713E-01 -1.6000001E-02 -5.9000000E-02
endloop
endfacet
endsolid Created by stlwrite.m 10-Dec-2019 21:17:20
