solid Created by surf2stl.m 02-Feb-2012 14:14:35
facet normal 9.8768834E-01 1.5643447E-01 0.0000000E+00
outer loop
vertex 3.0000000E-02 0.0000000E+00 -5.0000000E-02
vertex 2.8531695E-02 9.2705098E-03 -5.0000000E-02
vertex 2.8531695E-02 9.2705098E-03 5.0000000E-02
endloop
endfacet
facet normal 9.8768834E-01 1.5643447E-01 0.0000000E+00
outer loop
vertex 2.8531695E-02 9.2705098E-03 5.0000000E-02
vertex 3.0000000E-02 0.0000000E+00 5.0000000E-02
vertex 3.0000000E-02 0.0000000E+00 -5.0000000E-02
endloop
endfacet
facet normal 8.9100652E-01 4.5399050E-01 0.0000000E+00
outer loop
vertex 2.8531695E-02 9.2705098E-03 -5.0000000E-02
vertex 2.4270510E-02 1.7633558E-02 -5.0000000E-02
vertex 2.4270510E-02 1.7633558E-02 5.0000000E-02
endloop
endfacet
facet normal 8.9100652E-01 4.5399050E-01 0.0000000E+00
outer loop
vertex 2.4270510E-02 1.7633558E-02 5.0000000E-02
vertex 2.8531695E-02 9.2705098E-03 5.0000000E-02
vertex 2.8531695E-02 9.2705098E-03 -5.0000000E-02
endloop
endfacet
facet normal 7.0710678E-01 7.0710678E-01 0.0000000E+00
outer loop
vertex 2.4270510E-02 1.7633558E-02 -5.0000000E-02
vertex 1.7633558E-02 2.4270510E-02 -5.0000000E-02
vertex 1.7633558E-02 2.4270510E-02 5.0000000E-02
endloop
endfacet
facet normal 7.0710678E-01 7.0710678E-01 0.0000000E+00
outer loop
vertex 1.7633558E-02 2.4270510E-02 5.0000000E-02
vertex 2.4270510E-02 1.7633558E-02 5.0000000E-02
vertex 2.4270510E-02 1.7633558E-02 -5.0000000E-02
endloop
endfacet
facet normal 4.5399050E-01 8.9100652E-01 0.0000000E+00
outer loop
vertex 1.7633558E-02 2.4270510E-02 -5.0000000E-02
vertex 9.2705098E-03 2.8531695E-02 -5.0000000E-02
vertex 9.2705098E-03 2.8531695E-02 5.0000000E-02
endloop
endfacet
facet normal 4.5399050E-01 8.9100652E-01 0.0000000E+00
outer loop
vertex 9.2705098E-03 2.8531695E-02 5.0000000E-02
vertex 1.7633558E-02 2.4270510E-02 5.0000000E-02
vertex 1.7633558E-02 2.4270510E-02 -5.0000000E-02
endloop
endfacet
facet normal 1.5643447E-01 9.8768834E-01 0.0000000E+00
outer loop
vertex 9.2705098E-03 2.8531695E-02 -5.0000000E-02
vertex 1.8369702E-18 3.0000000E-02 -5.0000000E-02
vertex 1.8369702E-18 3.0000000E-02 5.0000000E-02
endloop
endfacet
facet normal 1.5643447E-01 9.8768834E-01 0.0000000E+00
outer loop
vertex 1.8369702E-18 3.0000000E-02 5.0000000E-02
vertex 9.2705098E-03 2.8531695E-02 5.0000000E-02
vertex 9.2705098E-03 2.8531695E-02 -5.0000000E-02
endloop
endfacet
facet normal -1.5643447E-01 9.8768834E-01 0.0000000E+00
outer loop
vertex 1.8369702E-18 3.0000000E-02 -5.0000000E-02
vertex -9.2705098E-03 2.8531695E-02 -5.0000000E-02
vertex -9.2705098E-03 2.8531695E-02 5.0000000E-02
endloop
endfacet
facet normal -1.5643447E-01 9.8768834E-01 0.0000000E+00
outer loop
vertex -9.2705098E-03 2.8531695E-02 5.0000000E-02
vertex 1.8369702E-18 3.0000000E-02 5.0000000E-02
vertex 1.8369702E-18 3.0000000E-02 -5.0000000E-02
endloop
endfacet
facet normal -4.5399050E-01 8.9100652E-01 0.0000000E+00
outer loop
vertex -9.2705098E-03 2.8531695E-02 -5.0000000E-02
vertex -1.7633558E-02 2.4270510E-02 -5.0000000E-02
vertex -1.7633558E-02 2.4270510E-02 5.0000000E-02
endloop
endfacet
facet normal -4.5399050E-01 8.9100652E-01 0.0000000E+00
outer loop
vertex -1.7633558E-02 2.4270510E-02 5.0000000E-02
vertex -9.2705098E-03 2.8531695E-02 5.0000000E-02
vertex -9.2705098E-03 2.8531695E-02 -5.0000000E-02
endloop
endfacet
facet normal -7.0710678E-01 7.0710678E-01 0.0000000E+00
outer loop
vertex -1.7633558E-02 2.4270510E-02 -5.0000000E-02
vertex -2.4270510E-02 1.7633558E-02 -5.0000000E-02
vertex -2.4270510E-02 1.7633558E-02 5.0000000E-02
endloop
endfacet
facet normal -7.0710678E-01 7.0710678E-01 0.0000000E+00
outer loop
vertex -2.4270510E-02 1.7633558E-02 5.0000000E-02
vertex -1.7633558E-02 2.4270510E-02 5.0000000E-02
vertex -1.7633558E-02 2.4270510E-02 -5.0000000E-02
endloop
endfacet
facet normal -8.9100652E-01 4.5399050E-01 0.0000000E+00
outer loop
vertex -2.4270510E-02 1.7633558E-02 -5.0000000E-02
vertex -2.8531695E-02 9.2705098E-03 -5.0000000E-02
vertex -2.8531695E-02 9.2705098E-03 5.0000000E-02
endloop
endfacet
facet normal -8.9100652E-01 4.5399050E-01 0.0000000E+00
outer loop
vertex -2.8531695E-02 9.2705098E-03 5.0000000E-02
vertex -2.4270510E-02 1.7633558E-02 5.0000000E-02
vertex -2.4270510E-02 1.7633558E-02 -5.0000000E-02
endloop
endfacet
facet normal -9.8768834E-01 1.5643447E-01 0.0000000E+00
outer loop
vertex -2.8531695E-02 9.2705098E-03 -5.0000000E-02
vertex -3.0000000E-02 3.6739404E-18 -5.0000000E-02
vertex -3.0000000E-02 3.6739404E-18 5.0000000E-02
endloop
endfacet
facet normal -9.8768834E-01 1.5643447E-01 0.0000000E+00
outer loop
vertex -3.0000000E-02 3.6739404E-18 5.0000000E-02
vertex -2.8531695E-02 9.2705098E-03 5.0000000E-02
vertex -2.8531695E-02 9.2705098E-03 -5.0000000E-02
endloop
endfacet
facet normal -9.8768834E-01 -1.5643447E-01 0.0000000E+00
outer loop
vertex -3.0000000E-02 3.6739404E-18 -5.0000000E-02
vertex -2.8531695E-02 -9.2705098E-03 -5.0000000E-02
vertex -2.8531695E-02 -9.2705098E-03 5.0000000E-02
endloop
endfacet
facet normal -9.8768834E-01 -1.5643447E-01 0.0000000E+00
outer loop
vertex -2.8531695E-02 -9.2705098E-03 5.0000000E-02
vertex -3.0000000E-02 3.6739404E-18 5.0000000E-02
vertex -3.0000000E-02 3.6739404E-18 -5.0000000E-02
endloop
endfacet
facet normal -8.9100652E-01 -4.5399050E-01 0.0000000E+00
outer loop
vertex -2.8531695E-02 -9.2705098E-03 -5.0000000E-02
vertex -2.4270510E-02 -1.7633558E-02 -5.0000000E-02
vertex -2.4270510E-02 -1.7633558E-02 5.0000000E-02
endloop
endfacet
facet normal -8.9100652E-01 -4.5399050E-01 0.0000000E+00
outer loop
vertex -2.4270510E-02 -1.7633558E-02 5.0000000E-02
vertex -2.8531695E-02 -9.2705098E-03 5.0000000E-02
vertex -2.8531695E-02 -9.2705098E-03 -5.0000000E-02
endloop
endfacet
facet normal -7.0710678E-01 -7.0710678E-01 0.0000000E+00
outer loop
vertex -2.4270510E-02 -1.7633558E-02 -5.0000000E-02
vertex -1.7633558E-02 -2.4270510E-02 -5.0000000E-02
vertex -1.7633558E-02 -2.4270510E-02 5.0000000E-02
endloop
endfacet
facet normal -7.0710678E-01 -7.0710678E-01 0.0000000E+00
outer loop
vertex -1.7633558E-02 -2.4270510E-02 5.0000000E-02
vertex -2.4270510E-02 -1.7633558E-02 5.0000000E-02
vertex -2.4270510E-02 -1.7633558E-02 -5.0000000E-02
endloop
endfacet
facet normal -4.5399050E-01 -8.9100652E-01 0.0000000E+00
outer loop
vertex -1.7633558E-02 -2.4270510E-02 -5.0000000E-02
vertex -9.2705098E-03 -2.8531695E-02 -5.0000000E-02
vertex -9.2705098E-03 -2.8531695E-02 5.0000000E-02
endloop
endfacet
facet normal -4.5399050E-01 -8.9100652E-01 0.0000000E+00
outer loop
vertex -9.2705098E-03 -2.8531695E-02 5.0000000E-02
vertex -1.7633558E-02 -2.4270510E-02 5.0000000E-02
vertex -1.7633558E-02 -2.4270510E-02 -5.0000000E-02
endloop
endfacet
facet normal -1.5643447E-01 -9.8768834E-01 0.0000000E+00
outer loop
vertex -9.2705098E-03 -2.8531695E-02 -5.0000000E-02
vertex -5.5109106E-18 -3.0000000E-02 -5.0000000E-02
vertex -5.5109106E-18 -3.0000000E-02 5.0000000E-02
endloop
endfacet
facet normal -1.5643447E-01 -9.8768834E-01 0.0000000E+00
outer loop
vertex -5.5109106E-18 -3.0000000E-02 5.0000000E-02
vertex -9.2705098E-03 -2.8531695E-02 5.0000000E-02
vertex -9.2705098E-03 -2.8531695E-02 -5.0000000E-02
endloop
endfacet
facet normal 1.5643447E-01 -9.8768834E-01 0.0000000E+00
outer loop
vertex -5.5109106E-18 -3.0000000E-02 -5.0000000E-02
vertex 9.2705098E-03 -2.8531695E-02 -5.0000000E-02
vertex 9.2705098E-03 -2.8531695E-02 5.0000000E-02
endloop
endfacet
facet normal 1.5643447E-01 -9.8768834E-01 0.0000000E+00
outer loop
vertex 9.2705098E-03 -2.8531695E-02 5.0000000E-02
vertex -5.5109106E-18 -3.0000000E-02 5.0000000E-02
vertex -5.5109106E-18 -3.0000000E-02 -5.0000000E-02
endloop
endfacet
facet normal 4.5399050E-01 -8.9100652E-01 0.0000000E+00
outer loop
vertex 9.2705098E-03 -2.8531695E-02 -5.0000000E-02
vertex 1.7633558E-02 -2.4270510E-02 -5.0000000E-02
vertex 1.7633558E-02 -2.4270510E-02 5.0000000E-02
endloop
endfacet
facet normal 4.5399050E-01 -8.9100652E-01 0.0000000E+00
outer loop
vertex 1.7633558E-02 -2.4270510E-02 5.0000000E-02
vertex 9.2705098E-03 -2.8531695E-02 5.0000000E-02
vertex 9.2705098E-03 -2.8531695E-02 -5.0000000E-02
endloop
endfacet
facet normal 7.0710678E-01 -7.0710678E-01 0.0000000E+00
outer loop
vertex 1.7633558E-02 -2.4270510E-02 -5.0000000E-02
vertex 2.4270510E-02 -1.7633558E-02 -5.0000000E-02
vertex 2.4270510E-02 -1.7633558E-02 5.0000000E-02
endloop
endfacet
facet normal 7.0710678E-01 -7.0710678E-01 0.0000000E+00
outer loop
vertex 2.4270510E-02 -1.7633558E-02 5.0000000E-02
vertex 1.7633558E-02 -2.4270510E-02 5.0000000E-02
vertex 1.7633558E-02 -2.4270510E-02 -5.0000000E-02
endloop
endfacet
facet normal 8.9100652E-01 -4.5399050E-01 0.0000000E+00
outer loop
vertex 2.4270510E-02 -1.7633558E-02 -5.0000000E-02
vertex 2.8531695E-02 -9.2705098E-03 -5.0000000E-02
vertex 2.8531695E-02 -9.2705098E-03 5.0000000E-02
endloop
endfacet
facet normal 8.9100652E-01 -4.5399050E-01 0.0000000E+00
outer loop
vertex 2.8531695E-02 -9.2705098E-03 5.0000000E-02
vertex 2.4270510E-02 -1.7633558E-02 5.0000000E-02
vertex 2.4270510E-02 -1.7633558E-02 -5.0000000E-02
endloop
endfacet
facet normal 9.8768834E-01 -1.5643447E-01 0.0000000E+00
outer loop
vertex 2.8531695E-02 -9.2705098E-03 -5.0000000E-02
vertex 3.0000000E-02 0.0000000E+00 -5.0000000E-02
vertex 3.0000000E-02 0.0000000E+00 5.0000000E-02
endloop
endfacet
facet normal 9.8768834E-01 -1.5643447E-01 0.0000000E+00
outer loop
vertex 3.0000000E-02 0.0000000E+00 5.0000000E-02
vertex 2.8531695E-02 -9.2705098E-03 5.0000000E-02
vertex 2.8531695E-02 -9.2705098E-03 -5.0000000E-02
endloop
endfacet
endsolid Created by surf2stl.m 02-Feb-2012 14:14:35
solid Created by surf2stl.m 02-Feb-2012 14:14:35
facet normal 9.8756503E-01 1.5641494E-01 1.5801041E-02
outer loop
vertex 4.0000000E-02 0.0000000E+00 0.0000000E+00
vertex 3.8042261E-02 1.2360680E-02 0.0000000E+00
vertex 3.0433809E-02 9.8885438E-03 5.0000000E-01
endloop
endfacet
facet normal 9.8756503E-01 1.5641494E-01 1.5801041E-02
outer loop
vertex 3.0433809E-02 9.8885438E-03 5.0000000E-01
vertex 3.2000000E-02 0.0000000E+00 5.0000000E-01
vertex 4.0000000E-02 0.0000000E+00 0.0000000E+00
endloop
endfacet
facet normal 8.9089529E-01 4.5393382E-01 1.5801041E-02
outer loop
vertex 3.8042261E-02 1.2360680E-02 0.0000000E+00
vertex 3.2360680E-02 2.3511410E-02 0.0000000E+00
vertex 2.5888544E-02 1.8809128E-02 5.0000000E-01
endloop
endfacet
facet normal 8.9089529E-01 4.5393382E-01 1.5801041E-02
outer loop
vertex 2.5888544E-02 1.8809128E-02 5.0000000E-01
vertex 3.0433809E-02 9.8885438E-03 5.0000000E-01
vertex 3.8042261E-02 1.2360680E-02 0.0000000E+00
endloop
endfacet
facet normal 7.0701850E-01 7.0701850E-01 1.5801041E-02
outer loop
vertex 3.2360680E-02 2.3511410E-02 0.0000000E+00
vertex 2.3511410E-02 3.2360680E-02 0.0000000E+00
vertex 1.8809128E-02 2.5888544E-02 5.0000000E-01
endloop
endfacet
facet normal 7.0701850E-01 7.0701850E-01 1.5801041E-02
outer loop
vertex 1.8809128E-02 2.5888544E-02 5.0000000E-01
vertex 2.5888544E-02 1.8809128E-02 5.0000000E-01
vertex 3.2360680E-02 2.3511410E-02 0.0000000E+00
endloop
endfacet
facet normal 4.5393382E-01 8.9089529E-01 1.5801041E-02
outer loop
vertex 2.3511410E-02 3.2360680E-02 0.0000000E+00
vertex 1.2360680E-02 3.8042261E-02 0.0000000E+00
vertex 9.8885438E-03 3.0433809E-02 5.0000000E-01
endloop
endfacet
facet normal 4.5393382E-01 8.9089529E-01 1.5801041E-02
outer loop
vertex 9.8885438E-03 3.0433809E-02 5.0000000E-01
vertex 1.8809128E-02 2.5888544E-02 5.0000000E-01
vertex 2.3511410E-02 3.2360680E-02 0.0000000E+00
endloop
endfacet
facet normal 1.5641494E-01 9.8756503E-01 1.5801041E-02
outer loop
vertex 1.2360680E-02 3.8042261E-02 0.0000000E+00
vertex 2.4492936E-18 4.0000000E-02 0.0000000E+00
vertex 1.9594349E-18 3.2000000E-02 5.0000000E-01
endloop
endfacet
facet normal 1.5641494E-01 9.8756503E-01 1.5801041E-02
outer loop
vertex 1.9594349E-18 3.2000000E-02 5.0000000E-01
vertex 9.8885438E-03 3.0433809E-02 5.0000000E-01
vertex 1.2360680E-02 3.8042261E-02 0.0000000E+00
endloop
endfacet
facet normal -1.5641494E-01 9.8756503E-01 1.5801041E-02
outer loop
vertex 2.4492936E-18 4.0000000E-02 0.0000000E+00
vertex -1.2360680E-02 3.8042261E-02 0.0000000E+00
vertex -9.8885438E-03 3.0433809E-02 5.0000000E-01
endloop
endfacet
facet normal -1.5641494E-01 9.8756503E-01 1.5801041E-02
outer loop
vertex -9.8885438E-03 3.0433809E-02 5.0000000E-01
vertex 1.9594349E-18 3.2000000E-02 5.0000000E-01
vertex 2.4492936E-18 4.0000000E-02 0.0000000E+00
endloop
endfacet
facet normal -4.5393382E-01 8.9089529E-01 1.5801041E-02
outer loop
vertex -1.2360680E-02 3.8042261E-02 0.0000000E+00
vertex -2.3511410E-02 3.2360680E-02 0.0000000E+00
vertex -1.8809128E-02 2.5888544E-02 5.0000000E-01
endloop
endfacet
facet normal -4.5393382E-01 8.9089529E-01 1.5801041E-02
outer loop
vertex -1.8809128E-02 2.5888544E-02 5.0000000E-01
vertex -9.8885438E-03 3.0433809E-02 5.0000000E-01
vertex -1.2360680E-02 3.8042261E-02 0.0000000E+00
endloop
endfacet
facet normal -7.0701850E-01 7.0701850E-01 1.5801041E-02
outer loop
vertex -2.3511410E-02 3.2360680E-02 0.0000000E+00
vertex -3.2360680E-02 2.3511410E-02 0.0000000E+00
vertex -2.5888544E-02 1.8809128E-02 5.0000000E-01
endloop
endfacet
facet normal -7.0701850E-01 7.0701850E-01 1.5801041E-02
outer loop
vertex -2.5888544E-02 1.8809128E-02 5.0000000E-01
vertex -1.8809128E-02 2.5888544E-02 5.0000000E-01
vertex -2.3511410E-02 3.2360680E-02 0.0000000E+00
endloop
endfacet
facet normal -8.9089529E-01 4.5393382E-01 1.5801041E-02
outer loop
vertex -3.2360680E-02 2.3511410E-02 0.0000000E+00
vertex -3.8042261E-02 1.2360680E-02 0.0000000E+00
vertex -3.0433809E-02 9.8885438E-03 5.0000000E-01
endloop
endfacet
facet normal -8.9089529E-01 4.5393382E-01 1.5801041E-02
outer loop
vertex -3.0433809E-02 9.8885438E-03 5.0000000E-01
vertex -2.5888544E-02 1.8809128E-02 5.0000000E-01
vertex -3.2360680E-02 2.3511410E-02 0.0000000E+00
endloop
endfacet
facet normal -9.8756503E-01 1.5641494E-01 1.5801041E-02
outer loop
vertex -3.8042261E-02 1.2360680E-02 0.0000000E+00
vertex -4.0000000E-02 4.8985872E-18 0.0000000E+00
vertex -3.2000000E-02 3.9188698E-18 5.0000000E-01
endloop
endfacet
facet normal -9.8756503E-01 1.5641494E-01 1.5801041E-02
outer loop
vertex -3.2000000E-02 3.9188698E-18 5.0000000E-01
vertex -3.0433809E-02 9.8885438E-03 5.0000000E-01
vertex -3.8042261E-02 1.2360680E-02 0.0000000E+00
endloop
endfacet
facet normal -9.8756503E-01 -1.5641494E-01 1.5801041E-02
outer loop
vertex -4.0000000E-02 4.8985872E-18 0.0000000E+00
vertex -3.8042261E-02 -1.2360680E-02 0.0000000E+00
vertex -3.0433809E-02 -9.8885438E-03 5.0000000E-01
endloop
endfacet
facet normal -9.8756503E-01 -1.5641494E-01 1.5801041E-02
outer loop
vertex -3.0433809E-02 -9.8885438E-03 5.0000000E-01
vertex -3.2000000E-02 3.9188698E-18 5.0000000E-01
vertex -4.0000000E-02 4.8985872E-18 0.0000000E+00
endloop
endfacet
facet normal -8.9089529E-01 -4.5393382E-01 1.5801041E-02
outer loop
vertex -3.8042261E-02 -1.2360680E-02 0.0000000E+00
vertex -3.2360680E-02 -2.3511410E-02 0.0000000E+00
vertex -2.5888544E-02 -1.8809128E-02 5.0000000E-01
endloop
endfacet
facet normal -8.9089529E-01 -4.5393382E-01 1.5801041E-02
outer loop
vertex -2.5888544E-02 -1.8809128E-02 5.0000000E-01
vertex -3.0433809E-02 -9.8885438E-03 5.0000000E-01
vertex -3.8042261E-02 -1.2360680E-02 0.0000000E+00
endloop
endfacet
facet normal -7.0701850E-01 -7.0701850E-01 1.5801041E-02
outer loop
vertex -3.2360680E-02 -2.3511410E-02 0.0000000E+00
vertex -2.3511410E-02 -3.2360680E-02 0.0000000E+00
vertex -1.8809128E-02 -2.5888544E-02 5.0000000E-01
endloop
endfacet
facet normal -7.0701850E-01 -7.0701850E-01 1.5801041E-02
outer loop
vertex -1.8809128E-02 -2.5888544E-02 5.0000000E-01
vertex -2.5888544E-02 -1.8809128E-02 5.0000000E-01
vertex -3.2360680E-02 -2.3511410E-02 0.0000000E+00
endloop
endfacet
facet normal -4.5393382E-01 -8.9089529E-01 1.5801041E-02
outer loop
vertex -2.3511410E-02 -3.2360680E-02 0.0000000E+00
vertex -1.2360680E-02 -3.8042261E-02 0.0000000E+00
vertex -9.8885438E-03 -3.0433809E-02 5.0000000E-01
endloop
endfacet
facet normal -4.5393382E-01 -8.9089529E-01 1.5801041E-02
outer loop
vertex -9.8885438E-03 -3.0433809E-02 5.0000000E-01
vertex -1.8809128E-02 -2.5888544E-02 5.0000000E-01
vertex -2.3511410E-02 -3.2360680E-02 0.0000000E+00
endloop
endfacet
facet normal -1.5641494E-01 -9.8756503E-01 1.5801041E-02
outer loop
vertex -1.2360680E-02 -3.8042261E-02 0.0000000E+00
vertex -7.3478808E-18 -4.0000000E-02 0.0000000E+00
vertex -5.8783046E-18 -3.2000000E-02 5.0000000E-01
endloop
endfacet
facet normal -1.5641494E-01 -9.8756503E-01 1.5801041E-02
outer loop
vertex -5.8783046E-18 -3.2000000E-02 5.0000000E-01
vertex -9.8885438E-03 -3.0433809E-02 5.0000000E-01
vertex -1.2360680E-02 -3.8042261E-02 0.0000000E+00
endloop
endfacet
facet normal 1.5641494E-01 -9.8756503E-01 1.5801041E-02
outer loop
vertex -7.3478808E-18 -4.0000000E-02 0.0000000E+00
vertex 1.2360680E-02 -3.8042261E-02 0.0000000E+00
vertex 9.8885438E-03 -3.0433809E-02 5.0000000E-01
endloop
endfacet
facet normal 1.5641494E-01 -9.8756503E-01 1.5801041E-02
outer loop
vertex 9.8885438E-03 -3.0433809E-02 5.0000000E-01
vertex -5.8783046E-18 -3.2000000E-02 5.0000000E-01
vertex -7.3478808E-18 -4.0000000E-02 0.0000000E+00
endloop
endfacet
facet normal 4.5393382E-01 -8.9089529E-01 1.5801041E-02
outer loop
vertex 1.2360680E-02 -3.8042261E-02 0.0000000E+00
vertex 2.3511410E-02 -3.2360680E-02 0.0000000E+00
vertex 1.8809128E-02 -2.5888544E-02 5.0000000E-01
endloop
endfacet
facet normal 4.5393382E-01 -8.9089529E-01 1.5801041E-02
outer loop
vertex 1.8809128E-02 -2.5888544E-02 5.0000000E-01
vertex 9.8885438E-03 -3.0433809E-02 5.0000000E-01
vertex 1.2360680E-02 -3.8042261E-02 0.0000000E+00
endloop
endfacet
facet normal 7.0701850E-01 -7.0701850E-01 1.5801041E-02
outer loop
vertex 2.3511410E-02 -3.2360680E-02 0.0000000E+00
vertex 3.2360680E-02 -2.3511410E-02 0.0000000E+00
vertex 2.5888544E-02 -1.8809128E-02 5.0000000E-01
endloop
endfacet
facet normal 7.0701850E-01 -7.0701850E-01 1.5801041E-02
outer loop
vertex 2.5888544E-02 -1.8809128E-02 5.0000000E-01
vertex 1.8809128E-02 -2.5888544E-02 5.0000000E-01
vertex 2.3511410E-02 -3.2360680E-02 0.0000000E+00
endloop
endfacet
facet normal 8.9089529E-01 -4.5393382E-01 1.5801041E-02
outer loop
vertex 3.2360680E-02 -2.3511410E-02 0.0000000E+00
vertex 3.8042261E-02 -1.2360680E-02 0.0000000E+00
vertex 3.0433809E-02 -9.8885438E-03 5.0000000E-01
endloop
endfacet
facet normal 8.9089529E-01 -4.5393382E-01 1.5801041E-02
outer loop
vertex 3.0433809E-02 -9.8885438E-03 5.0000000E-01
vertex 2.5888544E-02 -1.8809128E-02 5.0000000E-01
vertex 3.2360680E-02 -2.3511410E-02 0.0000000E+00
endloop
endfacet
facet normal 9.8756503E-01 -1.5641494E-01 1.5801041E-02
outer loop
vertex 3.8042261E-02 -1.2360680E-02 0.0000000E+00
vertex 4.0000000E-02 0.0000000E+00 0.0000000E+00
vertex 3.2000000E-02 0.0000000E+00 5.0000000E-01
endloop
endfacet
facet normal 9.8756503E-01 -1.5641494E-01 1.5801041E-02
outer loop
vertex 3.2000000E-02 0.0000000E+00 5.0000000E-01
vertex 3.0433809E-02 -9.8885438E-03 5.0000000E-01
vertex 3.8042261E-02 -1.2360680E-02 0.0000000E+00
endloop
endfacet
endsolid Created by surf2stl.m 02-Feb-2012 14:14:35
solid Created by surf2stl.m 02-Feb-2012 14:18:27
facet normal 9.8756503E-01 1.5641494E-01 1.5801041E-02
outer loop
vertex 4.0000000E-02 0.0000000E+00 0.0000000E+00
vertex 3.8042261E-02 1.2360680E-02 0.0000000E+00
vertex 3.0433809E-02 9.8885438E-03 5.0000000E-01
endloop
endfacet
facet normal 9.8756503E-01 1.5641494E-01 1.5801041E-02
outer loop
vertex 3.0433809E-02 9.8885438E-03 5.0000000E-01
vertex 3.2000000E-02 0.0000000E+00 5.0000000E-01
vertex 4.0000000E-02 0.0000000E+00 0.0000000E+00
endloop
endfacet
facet normal 8.9089529E-01 4.5393382E-01 1.5801041E-02
outer loop
vertex 3.8042261E-02 1.2360680E-02 0.0000000E+00
vertex 3.2360680E-02 2.3511410E-02 0.0000000E+00
vertex 2.5888544E-02 1.8809128E-02 5.0000000E-01
endloop
endfacet
facet normal 8.9089529E-01 4.5393382E-01 1.5801041E-02
outer loop
vertex 2.5888544E-02 1.8809128E-02 5.0000000E-01
vertex 3.0433809E-02 9.8885438E-03 5.0000000E-01
vertex 3.8042261E-02 1.2360680E-02 0.0000000E+00
endloop
endfacet
facet normal 7.0701850E-01 7.0701850E-01 1.5801041E-02
outer loop
vertex 3.2360680E-02 2.3511410E-02 0.0000000E+00
vertex 2.3511410E-02 3.2360680E-02 0.0000000E+00
vertex 1.8809128E-02 2.5888544E-02 5.0000000E-01
endloop
endfacet
facet normal 7.0701850E-01 7.0701850E-01 1.5801041E-02
outer loop
vertex 1.8809128E-02 2.5888544E-02 5.0000000E-01
vertex 2.5888544E-02 1.8809128E-02 5.0000000E-01
vertex 3.2360680E-02 2.3511410E-02 0.0000000E+00
endloop
endfacet
facet normal 4.5393382E-01 8.9089529E-01 1.5801041E-02
outer loop
vertex 2.3511410E-02 3.2360680E-02 0.0000000E+00
vertex 1.2360680E-02 3.8042261E-02 0.0000000E+00
vertex 9.8885438E-03 3.0433809E-02 5.0000000E-01
endloop
endfacet
facet normal 4.5393382E-01 8.9089529E-01 1.5801041E-02
outer loop
vertex 9.8885438E-03 3.0433809E-02 5.0000000E-01
vertex 1.8809128E-02 2.5888544E-02 5.0000000E-01
vertex 2.3511410E-02 3.2360680E-02 0.0000000E+00
endloop
endfacet
facet normal 1.5641494E-01 9.8756503E-01 1.5801041E-02
outer loop
vertex 1.2360680E-02 3.8042261E-02 0.0000000E+00
vertex 2.4492936E-18 4.0000000E-02 0.0000000E+00
vertex 1.9594349E-18 3.2000000E-02 5.0000000E-01
endloop
endfacet
facet normal 1.5641494E-01 9.8756503E-01 1.5801041E-02
outer loop
vertex 1.9594349E-18 3.2000000E-02 5.0000000E-01
vertex 9.8885438E-03 3.0433809E-02 5.0000000E-01
vertex 1.2360680E-02 3.8042261E-02 0.0000000E+00
endloop
endfacet
facet normal -1.5641494E-01 9.8756503E-01 1.5801041E-02
outer loop
vertex 2.4492936E-18 4.0000000E-02 0.0000000E+00
vertex -1.2360680E-02 3.8042261E-02 0.0000000E+00
vertex -9.8885438E-03 3.0433809E-02 5.0000000E-01
endloop
endfacet
facet normal -1.5641494E-01 9.8756503E-01 1.5801041E-02
outer loop
vertex -9.8885438E-03 3.0433809E-02 5.0000000E-01
vertex 1.9594349E-18 3.2000000E-02 5.0000000E-01
vertex 2.4492936E-18 4.0000000E-02 0.0000000E+00
endloop
endfacet
facet normal -4.5393382E-01 8.9089529E-01 1.5801041E-02
outer loop
vertex -1.2360680E-02 3.8042261E-02 0.0000000E+00
vertex -2.3511410E-02 3.2360680E-02 0.0000000E+00
vertex -1.8809128E-02 2.5888544E-02 5.0000000E-01
endloop
endfacet
facet normal -4.5393382E-01 8.9089529E-01 1.5801041E-02
outer loop
vertex -1.8809128E-02 2.5888544E-02 5.0000000E-01
vertex -9.8885438E-03 3.0433809E-02 5.0000000E-01
vertex -1.2360680E-02 3.8042261E-02 0.0000000E+00
endloop
endfacet
facet normal -7.0701850E-01 7.0701850E-01 1.5801041E-02
outer loop
vertex -2.3511410E-02 3.2360680E-02 0.0000000E+00
vertex -3.2360680E-02 2.3511410E-02 0.0000000E+00
vertex -2.5888544E-02 1.8809128E-02 5.0000000E-01
endloop
endfacet
facet normal -7.0701850E-01 7.0701850E-01 1.5801041E-02
outer loop
vertex -2.5888544E-02 1.8809128E-02 5.0000000E-01
vertex -1.8809128E-02 2.5888544E-02 5.0000000E-01
vertex -2.3511410E-02 3.2360680E-02 0.0000000E+00
endloop
endfacet
facet normal -8.9089529E-01 4.5393382E-01 1.5801041E-02
outer loop
vertex -3.2360680E-02 2.3511410E-02 0.0000000E+00
vertex -3.8042261E-02 1.2360680E-02 0.0000000E+00
vertex -3.0433809E-02 9.8885438E-03 5.0000000E-01
endloop
endfacet
facet normal -8.9089529E-01 4.5393382E-01 1.5801041E-02
outer loop
vertex -3.0433809E-02 9.8885438E-03 5.0000000E-01
vertex -2.5888544E-02 1.8809128E-02 5.0000000E-01
vertex -3.2360680E-02 2.3511410E-02 0.0000000E+00
endloop
endfacet
facet normal -9.8756503E-01 1.5641494E-01 1.5801041E-02
outer loop
vertex -3.8042261E-02 1.2360680E-02 0.0000000E+00
vertex -4.0000000E-02 4.8985872E-18 0.0000000E+00
vertex -3.2000000E-02 3.9188698E-18 5.0000000E-01
endloop
endfacet
facet normal -9.8756503E-01 1.5641494E-01 1.5801041E-02
outer loop
vertex -3.2000000E-02 3.9188698E-18 5.0000000E-01
vertex -3.0433809E-02 9.8885438E-03 5.0000000E-01
vertex -3.8042261E-02 1.2360680E-02 0.0000000E+00
endloop
endfacet
facet normal -9.8756503E-01 -1.5641494E-01 1.5801041E-02
outer loop
vertex -4.0000000E-02 4.8985872E-18 0.0000000E+00
vertex -3.8042261E-02 -1.2360680E-02 0.0000000E+00
vertex -3.0433809E-02 -9.8885438E-03 5.0000000E-01
endloop
endfacet
facet normal -9.8756503E-01 -1.5641494E-01 1.5801041E-02
outer loop
vertex -3.0433809E-02 -9.8885438E-03 5.0000000E-01
vertex -3.2000000E-02 3.9188698E-18 5.0000000E-01
vertex -4.0000000E-02 4.8985872E-18 0.0000000E+00
endloop
endfacet
facet normal -8.9089529E-01 -4.5393382E-01 1.5801041E-02
outer loop
vertex -3.8042261E-02 -1.2360680E-02 0.0000000E+00
vertex -3.2360680E-02 -2.3511410E-02 0.0000000E+00
vertex -2.5888544E-02 -1.8809128E-02 5.0000000E-01
endloop
endfacet
facet normal -8.9089529E-01 -4.5393382E-01 1.5801041E-02
outer loop
vertex -2.5888544E-02 -1.8809128E-02 5.0000000E-01
vertex -3.0433809E-02 -9.8885438E-03 5.0000000E-01
vertex -3.8042261E-02 -1.2360680E-02 0.0000000E+00
endloop
endfacet
facet normal -7.0701850E-01 -7.0701850E-01 1.5801041E-02
outer loop
vertex -3.2360680E-02 -2.3511410E-02 0.0000000E+00
vertex -2.3511410E-02 -3.2360680E-02 0.0000000E+00
vertex -1.8809128E-02 -2.5888544E-02 5.0000000E-01
endloop
endfacet
facet normal -7.0701850E-01 -7.0701850E-01 1.5801041E-02
outer loop
vertex -1.8809128E-02 -2.5888544E-02 5.0000000E-01
vertex -2.5888544E-02 -1.8809128E-02 5.0000000E-01
vertex -3.2360680E-02 -2.3511410E-02 0.0000000E+00
endloop
endfacet
facet normal -4.5393382E-01 -8.9089529E-01 1.5801041E-02
outer loop
vertex -2.3511410E-02 -3.2360680E-02 0.0000000E+00
vertex -1.2360680E-02 -3.8042261E-02 0.0000000E+00
vertex -9.8885438E-03 -3.0433809E-02 5.0000000E-01
endloop
endfacet
facet normal -4.5393382E-01 -8.9089529E-01 1.5801041E-02
outer loop
vertex -9.8885438E-03 -3.0433809E-02 5.0000000E-01
vertex -1.8809128E-02 -2.5888544E-02 5.0000000E-01
vertex -2.3511410E-02 -3.2360680E-02 0.0000000E+00
endloop
endfacet
facet normal -1.5641494E-01 -9.8756503E-01 1.5801041E-02
outer loop
vertex -1.2360680E-02 -3.8042261E-02 0.0000000E+00
vertex -7.3478808E-18 -4.0000000E-02 0.0000000E+00
vertex -5.8783046E-18 -3.2000000E-02 5.0000000E-01
endloop
endfacet
facet normal -1.5641494E-01 -9.8756503E-01 1.5801041E-02
outer loop
vertex -5.8783046E-18 -3.2000000E-02 5.0000000E-01
vertex -9.8885438E-03 -3.0433809E-02 5.0000000E-01
vertex -1.2360680E-02 -3.8042261E-02 0.0000000E+00
endloop
endfacet
facet normal 1.5641494E-01 -9.8756503E-01 1.5801041E-02
outer loop
vertex -7.3478808E-18 -4.0000000E-02 0.0000000E+00
vertex 1.2360680E-02 -3.8042261E-02 0.0000000E+00
vertex 9.8885438E-03 -3.0433809E-02 5.0000000E-01
endloop
endfacet
facet normal 1.5641494E-01 -9.8756503E-01 1.5801041E-02
outer loop
vertex 9.8885438E-03 -3.0433809E-02 5.0000000E-01
vertex -5.8783046E-18 -3.2000000E-02 5.0000000E-01
vertex -7.3478808E-18 -4.0000000E-02 0.0000000E+00
endloop
endfacet
facet normal 4.5393382E-01 -8.9089529E-01 1.5801041E-02
outer loop
vertex 1.2360680E-02 -3.8042261E-02 0.0000000E+00
vertex 2.3511410E-02 -3.2360680E-02 0.0000000E+00
vertex 1.8809128E-02 -2.5888544E-02 5.0000000E-01
endloop
endfacet
facet normal 4.5393382E-01 -8.9089529E-01 1.5801041E-02
outer loop
vertex 1.8809128E-02 -2.5888544E-02 5.0000000E-01
vertex 9.8885438E-03 -3.0433809E-02 5.0000000E-01
vertex 1.2360680E-02 -3.8042261E-02 0.0000000E+00
endloop
endfacet
facet normal 7.0701850E-01 -7.0701850E-01 1.5801041E-02
outer loop
vertex 2.3511410E-02 -3.2360680E-02 0.0000000E+00
vertex 3.2360680E-02 -2.3511410E-02 0.0000000E+00
vertex 2.5888544E-02 -1.8809128E-02 5.0000000E-01
endloop
endfacet
facet normal 7.0701850E-01 -7.0701850E-01 1.5801041E-02
outer loop
vertex 2.5888544E-02 -1.8809128E-02 5.0000000E-01
vertex 1.8809128E-02 -2.5888544E-02 5.0000000E-01
vertex 2.3511410E-02 -3.2360680E-02 0.0000000E+00
endloop
endfacet
facet normal 8.9089529E-01 -4.5393382E-01 1.5801041E-02
outer loop
vertex 3.2360680E-02 -2.3511410E-02 0.0000000E+00
vertex 3.8042261E-02 -1.2360680E-02 0.0000000E+00
vertex 3.0433809E-02 -9.8885438E-03 5.0000000E-01
endloop
endfacet
facet normal 8.9089529E-01 -4.5393382E-01 1.5801041E-02
outer loop
vertex 3.0433809E-02 -9.8885438E-03 5.0000000E-01
vertex 2.5888544E-02 -1.8809128E-02 5.0000000E-01
vertex 3.2360680E-02 -2.3511410E-02 0.0000000E+00
endloop
endfacet
facet normal 9.8756503E-01 -1.5641494E-01 1.5801041E-02
outer loop
vertex 3.8042261E-02 -1.2360680E-02 0.0000000E+00
vertex 4.0000000E-02 0.0000000E+00 0.0000000E+00
vertex 3.2000000E-02 0.0000000E+00 5.0000000E-01
endloop
endfacet
facet normal 9.8756503E-01 -1.5641494E-01 1.5801041E-02
outer loop
vertex 3.2000000E-02 0.0000000E+00 5.0000000E-01
vertex 3.0433809E-02 -9.8885438E-03 5.0000000E-01
vertex 3.8042261E-02 -1.2360680E-02 0.0000000E+00
endloop
endfacet
endsolid Created by surf2stl.m 02-Feb-2012 14:18:27
solid Created by surf2stl.m 02-Feb-2012 14:21:23
facet normal 9.8756503E-01 1.5641494E-01 1.5801041E-02
outer loop
vertex 4.0000000E-02 0.0000000E+00 0.0000000E+00
vertex 3.8042261E-02 1.2360680E-02 0.0000000E+00
vertex 3.0433809E-02 9.8885438E-03 5.0000000E-01
endloop
endfacet
facet normal 9.8756503E-01 1.5641494E-01 1.5801041E-02
outer loop
vertex 3.0433809E-02 9.8885438E-03 5.0000000E-01
vertex 3.2000000E-02 0.0000000E+00 5.0000000E-01
vertex 4.0000000E-02 0.0000000E+00 0.0000000E+00
endloop
endfacet
facet normal 8.9089529E-01 4.5393382E-01 1.5801041E-02
outer loop
vertex 3.8042261E-02 1.2360680E-02 0.0000000E+00
vertex 3.2360680E-02 2.3511410E-02 0.0000000E+00
vertex 2.5888544E-02 1.8809128E-02 5.0000000E-01
endloop
endfacet
facet normal 8.9089529E-01 4.5393382E-01 1.5801041E-02
outer loop
vertex 2.5888544E-02 1.8809128E-02 5.0000000E-01
vertex 3.0433809E-02 9.8885438E-03 5.0000000E-01
vertex 3.8042261E-02 1.2360680E-02 0.0000000E+00
endloop
endfacet
facet normal 7.0701850E-01 7.0701850E-01 1.5801041E-02
outer loop
vertex 3.2360680E-02 2.3511410E-02 0.0000000E+00
vertex 2.3511410E-02 3.2360680E-02 0.0000000E+00
vertex 1.8809128E-02 2.5888544E-02 5.0000000E-01
endloop
endfacet
facet normal 7.0701850E-01 7.0701850E-01 1.5801041E-02
outer loop
vertex 1.8809128E-02 2.5888544E-02 5.0000000E-01
vertex 2.5888544E-02 1.8809128E-02 5.0000000E-01
vertex 3.2360680E-02 2.3511410E-02 0.0000000E+00
endloop
endfacet
facet normal 4.5393382E-01 8.9089529E-01 1.5801041E-02
outer loop
vertex 2.3511410E-02 3.2360680E-02 0.0000000E+00
vertex 1.2360680E-02 3.8042261E-02 0.0000000E+00
vertex 9.8885438E-03 3.0433809E-02 5.0000000E-01
endloop
endfacet
facet normal 4.5393382E-01 8.9089529E-01 1.5801041E-02
outer loop
vertex 9.8885438E-03 3.0433809E-02 5.0000000E-01
vertex 1.8809128E-02 2.5888544E-02 5.0000000E-01
vertex 2.3511410E-02 3.2360680E-02 0.0000000E+00
endloop
endfacet
facet normal 1.5641494E-01 9.8756503E-01 1.5801041E-02
outer loop
vertex 1.2360680E-02 3.8042261E-02 0.0000000E+00
vertex 2.4492936E-18 4.0000000E-02 0.0000000E+00
vertex 1.9594349E-18 3.2000000E-02 5.0000000E-01
endloop
endfacet
facet normal 1.5641494E-01 9.8756503E-01 1.5801041E-02
outer loop
vertex 1.9594349E-18 3.2000000E-02 5.0000000E-01
vertex 9.8885438E-03 3.0433809E-02 5.0000000E-01
vertex 1.2360680E-02 3.8042261E-02 0.0000000E+00
endloop
endfacet
facet normal -1.5641494E-01 9.8756503E-01 1.5801041E-02
outer loop
vertex 2.4492936E-18 4.0000000E-02 0.0000000E+00
vertex -1.2360680E-02 3.8042261E-02 0.0000000E+00
vertex -9.8885438E-03 3.0433809E-02 5.0000000E-01
endloop
endfacet
facet normal -1.5641494E-01 9.8756503E-01 1.5801041E-02
outer loop
vertex -9.8885438E-03 3.0433809E-02 5.0000000E-01
vertex 1.9594349E-18 3.2000000E-02 5.0000000E-01
vertex 2.4492936E-18 4.0000000E-02 0.0000000E+00
endloop
endfacet
facet normal -4.5393382E-01 8.9089529E-01 1.5801041E-02
outer loop
vertex -1.2360680E-02 3.8042261E-02 0.0000000E+00
vertex -2.3511410E-02 3.2360680E-02 0.0000000E+00
vertex -1.8809128E-02 2.5888544E-02 5.0000000E-01
endloop
endfacet
facet normal -4.5393382E-01 8.9089529E-01 1.5801041E-02
outer loop
vertex -1.8809128E-02 2.5888544E-02 5.0000000E-01
vertex -9.8885438E-03 3.0433809E-02 5.0000000E-01
vertex -1.2360680E-02 3.8042261E-02 0.0000000E+00
endloop
endfacet
facet normal -7.0701850E-01 7.0701850E-01 1.5801041E-02
outer loop
vertex -2.3511410E-02 3.2360680E-02 0.0000000E+00
vertex -3.2360680E-02 2.3511410E-02 0.0000000E+00
vertex -2.5888544E-02 1.8809128E-02 5.0000000E-01
endloop
endfacet
facet normal -7.0701850E-01 7.0701850E-01 1.5801041E-02
outer loop
vertex -2.5888544E-02 1.8809128E-02 5.0000000E-01
vertex -1.8809128E-02 2.5888544E-02 5.0000000E-01
vertex -2.3511410E-02 3.2360680E-02 0.0000000E+00
endloop
endfacet
facet normal -8.9089529E-01 4.5393382E-01 1.5801041E-02
outer loop
vertex -3.2360680E-02 2.3511410E-02 0.0000000E+00
vertex -3.8042261E-02 1.2360680E-02 0.0000000E+00
vertex -3.0433809E-02 9.8885438E-03 5.0000000E-01
endloop
endfacet
facet normal -8.9089529E-01 4.5393382E-01 1.5801041E-02
outer loop
vertex -3.0433809E-02 9.8885438E-03 5.0000000E-01
vertex -2.5888544E-02 1.8809128E-02 5.0000000E-01
vertex -3.2360680E-02 2.3511410E-02 0.0000000E+00
endloop
endfacet
facet normal -9.8756503E-01 1.5641494E-01 1.5801041E-02
outer loop
vertex -3.8042261E-02 1.2360680E-02 0.0000000E+00
vertex -4.0000000E-02 4.8985872E-18 0.0000000E+00
vertex -3.2000000E-02 3.9188698E-18 5.0000000E-01
endloop
endfacet
facet normal -9.8756503E-01 1.5641494E-01 1.5801041E-02
outer loop
vertex -3.2000000E-02 3.9188698E-18 5.0000000E-01
vertex -3.0433809E-02 9.8885438E-03 5.0000000E-01
vertex -3.8042261E-02 1.2360680E-02 0.0000000E+00
endloop
endfacet
facet normal -9.8756503E-01 -1.5641494E-01 1.5801041E-02
outer loop
vertex -4.0000000E-02 4.8985872E-18 0.0000000E+00
vertex -3.8042261E-02 -1.2360680E-02 0.0000000E+00
vertex -3.0433809E-02 -9.8885438E-03 5.0000000E-01
endloop
endfacet
facet normal -9.8756503E-01 -1.5641494E-01 1.5801041E-02
outer loop
vertex -3.0433809E-02 -9.8885438E-03 5.0000000E-01
vertex -3.2000000E-02 3.9188698E-18 5.0000000E-01
vertex -4.0000000E-02 4.8985872E-18 0.0000000E+00
endloop
endfacet
facet normal -8.9089529E-01 -4.5393382E-01 1.5801041E-02
outer loop
vertex -3.8042261E-02 -1.2360680E-02 0.0000000E+00
vertex -3.2360680E-02 -2.3511410E-02 0.0000000E+00
vertex -2.5888544E-02 -1.8809128E-02 5.0000000E-01
endloop
endfacet
facet normal -8.9089529E-01 -4.5393382E-01 1.5801041E-02
outer loop
vertex -2.5888544E-02 -1.8809128E-02 5.0000000E-01
vertex -3.0433809E-02 -9.8885438E-03 5.0000000E-01
vertex -3.8042261E-02 -1.2360680E-02 0.0000000E+00
endloop
endfacet
facet normal -7.0701850E-01 -7.0701850E-01 1.5801041E-02
outer loop
vertex -3.2360680E-02 -2.3511410E-02 0.0000000E+00
vertex -2.3511410E-02 -3.2360680E-02 0.0000000E+00
vertex -1.8809128E-02 -2.5888544E-02 5.0000000E-01
endloop
endfacet
facet normal -7.0701850E-01 -7.0701850E-01 1.5801041E-02
outer loop
vertex -1.8809128E-02 -2.5888544E-02 5.0000000E-01
vertex -2.5888544E-02 -1.8809128E-02 5.0000000E-01
vertex -3.2360680E-02 -2.3511410E-02 0.0000000E+00
endloop
endfacet
facet normal -4.5393382E-01 -8.9089529E-01 1.5801041E-02
outer loop
vertex -2.3511410E-02 -3.2360680E-02 0.0000000E+00
vertex -1.2360680E-02 -3.8042261E-02 0.0000000E+00
vertex -9.8885438E-03 -3.0433809E-02 5.0000000E-01
endloop
endfacet
facet normal -4.5393382E-01 -8.9089529E-01 1.5801041E-02
outer loop
vertex -9.8885438E-03 -3.0433809E-02 5.0000000E-01
vertex -1.8809128E-02 -2.5888544E-02 5.0000000E-01
vertex -2.3511410E-02 -3.2360680E-02 0.0000000E+00
endloop
endfacet
facet normal -1.5641494E-01 -9.8756503E-01 1.5801041E-02
outer loop
vertex -1.2360680E-02 -3.8042261E-02 0.0000000E+00
vertex -7.3478808E-18 -4.0000000E-02 0.0000000E+00
vertex -5.8783046E-18 -3.2000000E-02 5.0000000E-01
endloop
endfacet
facet normal -1.5641494E-01 -9.8756503E-01 1.5801041E-02
outer loop
vertex -5.8783046E-18 -3.2000000E-02 5.0000000E-01
vertex -9.8885438E-03 -3.0433809E-02 5.0000000E-01
vertex -1.2360680E-02 -3.8042261E-02 0.0000000E+00
endloop
endfacet
facet normal 1.5641494E-01 -9.8756503E-01 1.5801041E-02
outer loop
vertex -7.3478808E-18 -4.0000000E-02 0.0000000E+00
vertex 1.2360680E-02 -3.8042261E-02 0.0000000E+00
vertex 9.8885438E-03 -3.0433809E-02 5.0000000E-01
endloop
endfacet
facet normal 1.5641494E-01 -9.8756503E-01 1.5801041E-02
outer loop
vertex 9.8885438E-03 -3.0433809E-02 5.0000000E-01
vertex -5.8783046E-18 -3.2000000E-02 5.0000000E-01
vertex -7.3478808E-18 -4.0000000E-02 0.0000000E+00
endloop
endfacet
facet normal 4.5393382E-01 -8.9089529E-01 1.5801041E-02
outer loop
vertex 1.2360680E-02 -3.8042261E-02 0.0000000E+00
vertex 2.3511410E-02 -3.2360680E-02 0.0000000E+00
vertex 1.8809128E-02 -2.5888544E-02 5.0000000E-01
endloop
endfacet
facet normal 4.5393382E-01 -8.9089529E-01 1.5801041E-02
outer loop
vertex 1.8809128E-02 -2.5888544E-02 5.0000000E-01
vertex 9.8885438E-03 -3.0433809E-02 5.0000000E-01
vertex 1.2360680E-02 -3.8042261E-02 0.0000000E+00
endloop
endfacet
facet normal 7.0701850E-01 -7.0701850E-01 1.5801041E-02
outer loop
vertex 2.3511410E-02 -3.2360680E-02 0.0000000E+00
vertex 3.2360680E-02 -2.3511410E-02 0.0000000E+00
vertex 2.5888544E-02 -1.8809128E-02 5.0000000E-01
endloop
endfacet
facet normal 7.0701850E-01 -7.0701850E-01 1.5801041E-02
outer loop
vertex 2.5888544E-02 -1.8809128E-02 5.0000000E-01
vertex 1.8809128E-02 -2.5888544E-02 5.0000000E-01
vertex 2.3511410E-02 -3.2360680E-02 0.0000000E+00
endloop
endfacet
facet normal 8.9089529E-01 -4.5393382E-01 1.5801041E-02
outer loop
vertex 3.2360680E-02 -2.3511410E-02 0.0000000E+00
vertex 3.8042261E-02 -1.2360680E-02 0.0000000E+00
vertex 3.0433809E-02 -9.8885438E-03 5.0000000E-01
endloop
endfacet
facet normal 8.9089529E-01 -4.5393382E-01 1.5801041E-02
outer loop
vertex 3.0433809E-02 -9.8885438E-03 5.0000000E-01
vertex 2.5888544E-02 -1.8809128E-02 5.0000000E-01
vertex 3.2360680E-02 -2.3511410E-02 0.0000000E+00
endloop
endfacet
facet normal 9.8756503E-01 -1.5641494E-01 1.5801041E-02
outer loop
vertex 3.8042261E-02 -1.2360680E-02 0.0000000E+00
vertex 4.0000000E-02 0.0000000E+00 0.0000000E+00
vertex 3.2000000E-02 0.0000000E+00 5.0000000E-01
endloop
endfacet
facet normal 9.8756503E-01 -1.5641494E-01 1.5801041E-02
outer loop
vertex 3.2000000E-02 0.0000000E+00 5.0000000E-01
vertex 3.0433809E-02 -9.8885438E-03 5.0000000E-01
vertex 3.8042261E-02 -1.2360680E-02 0.0000000E+00
endloop
endfacet
endsolid Created by surf2stl.m 02-Feb-2012 14:21:23
solid Created by surf2stl.m 02-Feb-2012 14:24:08
facet normal 9.8756503E-01 1.5641494E-01 1.5801041E-02
outer loop
vertex 4.0000000E-02 0.0000000E+00 0.0000000E+00
vertex 3.8042261E-02 1.2360680E-02 0.0000000E+00
vertex 3.0433809E-02 9.8885438E-03 5.0000000E-01
endloop
endfacet
facet normal 9.8756503E-01 1.5641494E-01 1.5801041E-02
outer loop
vertex 3.0433809E-02 9.8885438E-03 5.0000000E-01
vertex 3.2000000E-02 0.0000000E+00 5.0000000E-01
vertex 4.0000000E-02 0.0000000E+00 0.0000000E+00
endloop
endfacet
facet normal 8.9089529E-01 4.5393382E-01 1.5801041E-02
outer loop
vertex 3.8042261E-02 1.2360680E-02 0.0000000E+00
vertex 3.2360680E-02 2.3511410E-02 0.0000000E+00
vertex 2.5888544E-02 1.8809128E-02 5.0000000E-01
endloop
endfacet
facet normal 8.9089529E-01 4.5393382E-01 1.5801041E-02
outer loop
vertex 2.5888544E-02 1.8809128E-02 5.0000000E-01
vertex 3.0433809E-02 9.8885438E-03 5.0000000E-01
vertex 3.8042261E-02 1.2360680E-02 0.0000000E+00
endloop
endfacet
facet normal 7.0701850E-01 7.0701850E-01 1.5801041E-02
outer loop
vertex 3.2360680E-02 2.3511410E-02 0.0000000E+00
vertex 2.3511410E-02 3.2360680E-02 0.0000000E+00
vertex 1.8809128E-02 2.5888544E-02 5.0000000E-01
endloop
endfacet
facet normal 7.0701850E-01 7.0701850E-01 1.5801041E-02
outer loop
vertex 1.8809128E-02 2.5888544E-02 5.0000000E-01
vertex 2.5888544E-02 1.8809128E-02 5.0000000E-01
vertex 3.2360680E-02 2.3511410E-02 0.0000000E+00
endloop
endfacet
facet normal 4.5393382E-01 8.9089529E-01 1.5801041E-02
outer loop
vertex 2.3511410E-02 3.2360680E-02 0.0000000E+00
vertex 1.2360680E-02 3.8042261E-02 0.0000000E+00
vertex 9.8885438E-03 3.0433809E-02 5.0000000E-01
endloop
endfacet
facet normal 4.5393382E-01 8.9089529E-01 1.5801041E-02
outer loop
vertex 9.8885438E-03 3.0433809E-02 5.0000000E-01
vertex 1.8809128E-02 2.5888544E-02 5.0000000E-01
vertex 2.3511410E-02 3.2360680E-02 0.0000000E+00
endloop
endfacet
facet normal 1.5641494E-01 9.8756503E-01 1.5801041E-02
outer loop
vertex 1.2360680E-02 3.8042261E-02 0.0000000E+00
vertex 2.4492936E-18 4.0000000E-02 0.0000000E+00
vertex 1.9594349E-18 3.2000000E-02 5.0000000E-01
endloop
endfacet
facet normal 1.5641494E-01 9.8756503E-01 1.5801041E-02
outer loop
vertex 1.9594349E-18 3.2000000E-02 5.0000000E-01
vertex 9.8885438E-03 3.0433809E-02 5.0000000E-01
vertex 1.2360680E-02 3.8042261E-02 0.0000000E+00
endloop
endfacet
facet normal -1.5641494E-01 9.8756503E-01 1.5801041E-02
outer loop
vertex 2.4492936E-18 4.0000000E-02 0.0000000E+00
vertex -1.2360680E-02 3.8042261E-02 0.0000000E+00
vertex -9.8885438E-03 3.0433809E-02 5.0000000E-01
endloop
endfacet
facet normal -1.5641494E-01 9.8756503E-01 1.5801041E-02
outer loop
vertex -9.8885438E-03 3.0433809E-02 5.0000000E-01
vertex 1.9594349E-18 3.2000000E-02 5.0000000E-01
vertex 2.4492936E-18 4.0000000E-02 0.0000000E+00
endloop
endfacet
facet normal -4.5393382E-01 8.9089529E-01 1.5801041E-02
outer loop
vertex -1.2360680E-02 3.8042261E-02 0.0000000E+00
vertex -2.3511410E-02 3.2360680E-02 0.0000000E+00
vertex -1.8809128E-02 2.5888544E-02 5.0000000E-01
endloop
endfacet
facet normal -4.5393382E-01 8.9089529E-01 1.5801041E-02
outer loop
vertex -1.8809128E-02 2.5888544E-02 5.0000000E-01
vertex -9.8885438E-03 3.0433809E-02 5.0000000E-01
vertex -1.2360680E-02 3.8042261E-02 0.0000000E+00
endloop
endfacet
facet normal -7.0701850E-01 7.0701850E-01 1.5801041E-02
outer loop
vertex -2.3511410E-02 3.2360680E-02 0.0000000E+00
vertex -3.2360680E-02 2.3511410E-02 0.0000000E+00
vertex -2.5888544E-02 1.8809128E-02 5.0000000E-01
endloop
endfacet
facet normal -7.0701850E-01 7.0701850E-01 1.5801041E-02
outer loop
vertex -2.5888544E-02 1.8809128E-02 5.0000000E-01
vertex -1.8809128E-02 2.5888544E-02 5.0000000E-01
vertex -2.3511410E-02 3.2360680E-02 0.0000000E+00
endloop
endfacet
facet normal -8.9089529E-01 4.5393382E-01 1.5801041E-02
outer loop
vertex -3.2360680E-02 2.3511410E-02 0.0000000E+00
vertex -3.8042261E-02 1.2360680E-02 0.0000000E+00
vertex -3.0433809E-02 9.8885438E-03 5.0000000E-01
endloop
endfacet
facet normal -8.9089529E-01 4.5393382E-01 1.5801041E-02
outer loop
vertex -3.0433809E-02 9.8885438E-03 5.0000000E-01
vertex -2.5888544E-02 1.8809128E-02 5.0000000E-01
vertex -3.2360680E-02 2.3511410E-02 0.0000000E+00
endloop
endfacet
facet normal -9.8756503E-01 1.5641494E-01 1.5801041E-02
outer loop
vertex -3.8042261E-02 1.2360680E-02 0.0000000E+00
vertex -4.0000000E-02 4.8985872E-18 0.0000000E+00
vertex -3.2000000E-02 3.9188698E-18 5.0000000E-01
endloop
endfacet
facet normal -9.8756503E-01 1.5641494E-01 1.5801041E-02
outer loop
vertex -3.2000000E-02 3.9188698E-18 5.0000000E-01
vertex -3.0433809E-02 9.8885438E-03 5.0000000E-01
vertex -3.8042261E-02 1.2360680E-02 0.0000000E+00
endloop
endfacet
facet normal -9.8756503E-01 -1.5641494E-01 1.5801041E-02
outer loop
vertex -4.0000000E-02 4.8985872E-18 0.0000000E+00
vertex -3.8042261E-02 -1.2360680E-02 0.0000000E+00
vertex -3.0433809E-02 -9.8885438E-03 5.0000000E-01
endloop
endfacet
facet normal -9.8756503E-01 -1.5641494E-01 1.5801041E-02
outer loop
vertex -3.0433809E-02 -9.8885438E-03 5.0000000E-01
vertex -3.2000000E-02 3.9188698E-18 5.0000000E-01
vertex -4.0000000E-02 4.8985872E-18 0.0000000E+00
endloop
endfacet
facet normal -8.9089529E-01 -4.5393382E-01 1.5801041E-02
outer loop
vertex -3.8042261E-02 -1.2360680E-02 0.0000000E+00
vertex -3.2360680E-02 -2.3511410E-02 0.0000000E+00
vertex -2.5888544E-02 -1.8809128E-02 5.0000000E-01
endloop
endfacet
facet normal -8.9089529E-01 -4.5393382E-01 1.5801041E-02
outer loop
vertex -2.5888544E-02 -1.8809128E-02 5.0000000E-01
vertex -3.0433809E-02 -9.8885438E-03 5.0000000E-01
vertex -3.8042261E-02 -1.2360680E-02 0.0000000E+00
endloop
endfacet
facet normal -7.0701850E-01 -7.0701850E-01 1.5801041E-02
outer loop
vertex -3.2360680E-02 -2.3511410E-02 0.0000000E+00
vertex -2.3511410E-02 -3.2360680E-02 0.0000000E+00
vertex -1.8809128E-02 -2.5888544E-02 5.0000000E-01
endloop
endfacet
facet normal -7.0701850E-01 -7.0701850E-01 1.5801041E-02
outer loop
vertex -1.8809128E-02 -2.5888544E-02 5.0000000E-01
vertex -2.5888544E-02 -1.8809128E-02 5.0000000E-01
vertex -3.2360680E-02 -2.3511410E-02 0.0000000E+00
endloop
endfacet
facet normal -4.5393382E-01 -8.9089529E-01 1.5801041E-02
outer loop
vertex -2.3511410E-02 -3.2360680E-02 0.0000000E+00
vertex -1.2360680E-02 -3.8042261E-02 0.0000000E+00
vertex -9.8885438E-03 -3.0433809E-02 5.0000000E-01
endloop
endfacet
facet normal -4.5393382E-01 -8.9089529E-01 1.5801041E-02
outer loop
vertex -9.8885438E-03 -3.0433809E-02 5.0000000E-01
vertex -1.8809128E-02 -2.5888544E-02 5.0000000E-01
vertex -2.3511410E-02 -3.2360680E-02 0.0000000E+00
endloop
endfacet
facet normal -1.5641494E-01 -9.8756503E-01 1.5801041E-02
outer loop
vertex -1.2360680E-02 -3.8042261E-02 0.0000000E+00
vertex -7.3478808E-18 -4.0000000E-02 0.0000000E+00
vertex -5.8783046E-18 -3.2000000E-02 5.0000000E-01
endloop
endfacet
facet normal -1.5641494E-01 -9.8756503E-01 1.5801041E-02
outer loop
vertex -5.8783046E-18 -3.2000000E-02 5.0000000E-01
vertex -9.8885438E-03 -3.0433809E-02 5.0000000E-01
vertex -1.2360680E-02 -3.8042261E-02 0.0000000E+00
endloop
endfacet
facet normal 1.5641494E-01 -9.8756503E-01 1.5801041E-02
outer loop
vertex -7.3478808E-18 -4.0000000E-02 0.0000000E+00
vertex 1.2360680E-02 -3.8042261E-02 0.0000000E+00
vertex 9.8885438E-03 -3.0433809E-02 5.0000000E-01
endloop
endfacet
facet normal 1.5641494E-01 -9.8756503E-01 1.5801041E-02
outer loop
vertex 9.8885438E-03 -3.0433809E-02 5.0000000E-01
vertex -5.8783046E-18 -3.2000000E-02 5.0000000E-01
vertex -7.3478808E-18 -4.0000000E-02 0.0000000E+00
endloop
endfacet
facet normal 4.5393382E-01 -8.9089529E-01 1.5801041E-02
outer loop
vertex 1.2360680E-02 -3.8042261E-02 0.0000000E+00
vertex 2.3511410E-02 -3.2360680E-02 0.0000000E+00
vertex 1.8809128E-02 -2.5888544E-02 5.0000000E-01
endloop
endfacet
facet normal 4.5393382E-01 -8.9089529E-01 1.5801041E-02
outer loop
vertex 1.8809128E-02 -2.5888544E-02 5.0000000E-01
vertex 9.8885438E-03 -3.0433809E-02 5.0000000E-01
vertex 1.2360680E-02 -3.8042261E-02 0.0000000E+00
endloop
endfacet
facet normal 7.0701850E-01 -7.0701850E-01 1.5801041E-02
outer loop
vertex 2.3511410E-02 -3.2360680E-02 0.0000000E+00
vertex 3.2360680E-02 -2.3511410E-02 0.0000000E+00
vertex 2.5888544E-02 -1.8809128E-02 5.0000000E-01
endloop
endfacet
facet normal 7.0701850E-01 -7.0701850E-01 1.5801041E-02
outer loop
vertex 2.5888544E-02 -1.8809128E-02 5.0000000E-01
vertex 1.8809128E-02 -2.5888544E-02 5.0000000E-01
vertex 2.3511410E-02 -3.2360680E-02 0.0000000E+00
endloop
endfacet
facet normal 8.9089529E-01 -4.5393382E-01 1.5801041E-02
outer loop
vertex 3.2360680E-02 -2.3511410E-02 0.0000000E+00
vertex 3.8042261E-02 -1.2360680E-02 0.0000000E+00
vertex 3.0433809E-02 -9.8885438E-03 5.0000000E-01
endloop
endfacet
facet normal 8.9089529E-01 -4.5393382E-01 1.5801041E-02
outer loop
vertex 3.0433809E-02 -9.8885438E-03 5.0000000E-01
vertex 2.5888544E-02 -1.8809128E-02 5.0000000E-01
vertex 3.2360680E-02 -2.3511410E-02 0.0000000E+00
endloop
endfacet
facet normal 9.8756503E-01 -1.5641494E-01 1.5801041E-02
outer loop
vertex 3.8042261E-02 -1.2360680E-02 0.0000000E+00
vertex 4.0000000E-02 0.0000000E+00 0.0000000E+00
vertex 3.2000000E-02 0.0000000E+00 5.0000000E-01
endloop
endfacet
facet normal 9.8756503E-01 -1.5641494E-01 1.5801041E-02
outer loop
vertex 3.2000000E-02 0.0000000E+00 5.0000000E-01
vertex 3.0433809E-02 -9.8885438E-03 5.0000000E-01
vertex 3.8042261E-02 -1.2360680E-02 0.0000000E+00
endloop
endfacet
endsolid Created by surf2stl.m 02-Feb-2012 14:24:08
solid Created by surf2stl.m 02-Feb-2012 14:39:43
facet normal 9.8756503E-01 1.5641494E-01 1.5801041E-02
outer loop
vertex 4.0000000E-02 0.0000000E+00 0.0000000E+00
vertex 3.8042261E-02 1.2360680E-02 0.0000000E+00
vertex 3.0433809E-02 9.8885438E-03 5.0000000E-01
endloop
endfacet
facet normal 9.8756503E-01 1.5641494E-01 1.5801041E-02
outer loop
vertex 3.0433809E-02 9.8885438E-03 5.0000000E-01
vertex 3.2000000E-02 0.0000000E+00 5.0000000E-01
vertex 4.0000000E-02 0.0000000E+00 0.0000000E+00
endloop
endfacet
facet normal 8.9089529E-01 4.5393382E-01 1.5801041E-02
outer loop
vertex 3.8042261E-02 1.2360680E-02 0.0000000E+00
vertex 3.2360680E-02 2.3511410E-02 0.0000000E+00
vertex 2.5888544E-02 1.8809128E-02 5.0000000E-01
endloop
endfacet
facet normal 8.9089529E-01 4.5393382E-01 1.5801041E-02
outer loop
vertex 2.5888544E-02 1.8809128E-02 5.0000000E-01
vertex 3.0433809E-02 9.8885438E-03 5.0000000E-01
vertex 3.8042261E-02 1.2360680E-02 0.0000000E+00
endloop
endfacet
facet normal 7.0701850E-01 7.0701850E-01 1.5801041E-02
outer loop
vertex 3.2360680E-02 2.3511410E-02 0.0000000E+00
vertex 2.3511410E-02 3.2360680E-02 0.0000000E+00
vertex 1.8809128E-02 2.5888544E-02 5.0000000E-01
endloop
endfacet
facet normal 7.0701850E-01 7.0701850E-01 1.5801041E-02
outer loop
vertex 1.8809128E-02 2.5888544E-02 5.0000000E-01
vertex 2.5888544E-02 1.8809128E-02 5.0000000E-01
vertex 3.2360680E-02 2.3511410E-02 0.0000000E+00
endloop
endfacet
facet normal 4.5393382E-01 8.9089529E-01 1.5801041E-02
outer loop
vertex 2.3511410E-02 3.2360680E-02 0.0000000E+00
vertex 1.2360680E-02 3.8042261E-02 0.0000000E+00
vertex 9.8885438E-03 3.0433809E-02 5.0000000E-01
endloop
endfacet
facet normal 4.5393382E-01 8.9089529E-01 1.5801041E-02
outer loop
vertex 9.8885438E-03 3.0433809E-02 5.0000000E-01
vertex 1.8809128E-02 2.5888544E-02 5.0000000E-01
vertex 2.3511410E-02 3.2360680E-02 0.0000000E+00
endloop
endfacet
facet normal 1.5641494E-01 9.8756503E-01 1.5801041E-02
outer loop
vertex 1.2360680E-02 3.8042261E-02 0.0000000E+00
vertex 2.4492936E-18 4.0000000E-02 0.0000000E+00
vertex 1.9594349E-18 3.2000000E-02 5.0000000E-01
endloop
endfacet
facet normal 1.5641494E-01 9.8756503E-01 1.5801041E-02
outer loop
vertex 1.9594349E-18 3.2000000E-02 5.0000000E-01
vertex 9.8885438E-03 3.0433809E-02 5.0000000E-01
vertex 1.2360680E-02 3.8042261E-02 0.0000000E+00
endloop
endfacet
facet normal -1.5641494E-01 9.8756503E-01 1.5801041E-02
outer loop
vertex 2.4492936E-18 4.0000000E-02 0.0000000E+00
vertex -1.2360680E-02 3.8042261E-02 0.0000000E+00
vertex -9.8885438E-03 3.0433809E-02 5.0000000E-01
endloop
endfacet
facet normal -1.5641494E-01 9.8756503E-01 1.5801041E-02
outer loop
vertex -9.8885438E-03 3.0433809E-02 5.0000000E-01
vertex 1.9594349E-18 3.2000000E-02 5.0000000E-01
vertex 2.4492936E-18 4.0000000E-02 0.0000000E+00
endloop
endfacet
facet normal -4.5393382E-01 8.9089529E-01 1.5801041E-02
outer loop
vertex -1.2360680E-02 3.8042261E-02 0.0000000E+00
vertex -2.3511410E-02 3.2360680E-02 0.0000000E+00
vertex -1.8809128E-02 2.5888544E-02 5.0000000E-01
endloop
endfacet
facet normal -4.5393382E-01 8.9089529E-01 1.5801041E-02
outer loop
vertex -1.8809128E-02 2.5888544E-02 5.0000000E-01
vertex -9.8885438E-03 3.0433809E-02 5.0000000E-01
vertex -1.2360680E-02 3.8042261E-02 0.0000000E+00
endloop
endfacet
facet normal -7.0701850E-01 7.0701850E-01 1.5801041E-02
outer loop
vertex -2.3511410E-02 3.2360680E-02 0.0000000E+00
vertex -3.2360680E-02 2.3511410E-02 0.0000000E+00
vertex -2.5888544E-02 1.8809128E-02 5.0000000E-01
endloop
endfacet
facet normal -7.0701850E-01 7.0701850E-01 1.5801041E-02
outer loop
vertex -2.5888544E-02 1.8809128E-02 5.0000000E-01
vertex -1.8809128E-02 2.5888544E-02 5.0000000E-01
vertex -2.3511410E-02 3.2360680E-02 0.0000000E+00
endloop
endfacet
facet normal -8.9089529E-01 4.5393382E-01 1.5801041E-02
outer loop
vertex -3.2360680E-02 2.3511410E-02 0.0000000E+00
vertex -3.8042261E-02 1.2360680E-02 0.0000000E+00
vertex -3.0433809E-02 9.8885438E-03 5.0000000E-01
endloop
endfacet
facet normal -8.9089529E-01 4.5393382E-01 1.5801041E-02
outer loop
vertex -3.0433809E-02 9.8885438E-03 5.0000000E-01
vertex -2.5888544E-02 1.8809128E-02 5.0000000E-01
vertex -3.2360680E-02 2.3511410E-02 0.0000000E+00
endloop
endfacet
facet normal -9.8756503E-01 1.5641494E-01 1.5801041E-02
outer loop
vertex -3.8042261E-02 1.2360680E-02 0.0000000E+00
vertex -4.0000000E-02 4.8985872E-18 0.0000000E+00
vertex -3.2000000E-02 3.9188698E-18 5.0000000E-01
endloop
endfacet
facet normal -9.8756503E-01 1.5641494E-01 1.5801041E-02
outer loop
vertex -3.2000000E-02 3.9188698E-18 5.0000000E-01
vertex -3.0433809E-02 9.8885438E-03 5.0000000E-01
vertex -3.8042261E-02 1.2360680E-02 0.0000000E+00
endloop
endfacet
facet normal -9.8756503E-01 -1.5641494E-01 1.5801041E-02
outer loop
vertex -4.0000000E-02 4.8985872E-18 0.0000000E+00
vertex -3.8042261E-02 -1.2360680E-02 0.0000000E+00
vertex -3.0433809E-02 -9.8885438E-03 5.0000000E-01
endloop
endfacet
facet normal -9.8756503E-01 -1.5641494E-01 1.5801041E-02
outer loop
vertex -3.0433809E-02 -9.8885438E-03 5.0000000E-01
vertex -3.2000000E-02 3.9188698E-18 5.0000000E-01
vertex -4.0000000E-02 4.8985872E-18 0.0000000E+00
endloop
endfacet
facet normal -8.9089529E-01 -4.5393382E-01 1.5801041E-02
outer loop
vertex -3.8042261E-02 -1.2360680E-02 0.0000000E+00
vertex -3.2360680E-02 -2.3511410E-02 0.0000000E+00
vertex -2.5888544E-02 -1.8809128E-02 5.0000000E-01
endloop
endfacet
facet normal -8.9089529E-01 -4.5393382E-01 1.5801041E-02
outer loop
vertex -2.5888544E-02 -1.8809128E-02 5.0000000E-01
vertex -3.0433809E-02 -9.8885438E-03 5.0000000E-01
vertex -3.8042261E-02 -1.2360680E-02 0.0000000E+00
endloop
endfacet
facet normal -7.0701850E-01 -7.0701850E-01 1.5801041E-02
outer loop
vertex -3.2360680E-02 -2.3511410E-02 0.0000000E+00
vertex -2.3511410E-02 -3.2360680E-02 0.0000000E+00
vertex -1.8809128E-02 -2.5888544E-02 5.0000000E-01
endloop
endfacet
facet normal -7.0701850E-01 -7.0701850E-01 1.5801041E-02
outer loop
vertex -1.8809128E-02 -2.5888544E-02 5.0000000E-01
vertex -2.5888544E-02 -1.8809128E-02 5.0000000E-01
vertex -3.2360680E-02 -2.3511410E-02 0.0000000E+00
endloop
endfacet
facet normal -4.5393382E-01 -8.9089529E-01 1.5801041E-02
outer loop
vertex -2.3511410E-02 -3.2360680E-02 0.0000000E+00
vertex -1.2360680E-02 -3.8042261E-02 0.0000000E+00
vertex -9.8885438E-03 -3.0433809E-02 5.0000000E-01
endloop
endfacet
facet normal -4.5393382E-01 -8.9089529E-01 1.5801041E-02
outer loop
vertex -9.8885438E-03 -3.0433809E-02 5.0000000E-01
vertex -1.8809128E-02 -2.5888544E-02 5.0000000E-01
vertex -2.3511410E-02 -3.2360680E-02 0.0000000E+00
endloop
endfacet
facet normal -1.5641494E-01 -9.8756503E-01 1.5801041E-02
outer loop
vertex -1.2360680E-02 -3.8042261E-02 0.0000000E+00
vertex -7.3478808E-18 -4.0000000E-02 0.0000000E+00
vertex -5.8783046E-18 -3.2000000E-02 5.0000000E-01
endloop
endfacet
facet normal -1.5641494E-01 -9.8756503E-01 1.5801041E-02
outer loop
vertex -5.8783046E-18 -3.2000000E-02 5.0000000E-01
vertex -9.8885438E-03 -3.0433809E-02 5.0000000E-01
vertex -1.2360680E-02 -3.8042261E-02 0.0000000E+00
endloop
endfacet
facet normal 1.5641494E-01 -9.8756503E-01 1.5801041E-02
outer loop
vertex -7.3478808E-18 -4.0000000E-02 0.0000000E+00
vertex 1.2360680E-02 -3.8042261E-02 0.0000000E+00
vertex 9.8885438E-03 -3.0433809E-02 5.0000000E-01
endloop
endfacet
facet normal 1.5641494E-01 -9.8756503E-01 1.5801041E-02
outer loop
vertex 9.8885438E-03 -3.0433809E-02 5.0000000E-01
vertex -5.8783046E-18 -3.2000000E-02 5.0000000E-01
vertex -7.3478808E-18 -4.0000000E-02 0.0000000E+00
endloop
endfacet
facet normal 4.5393382E-01 -8.9089529E-01 1.5801041E-02
outer loop
vertex 1.2360680E-02 -3.8042261E-02 0.0000000E+00
vertex 2.3511410E-02 -3.2360680E-02 0.0000000E+00
vertex 1.8809128E-02 -2.5888544E-02 5.0000000E-01
endloop
endfacet
facet normal 4.5393382E-01 -8.9089529E-01 1.5801041E-02
outer loop
vertex 1.8809128E-02 -2.5888544E-02 5.0000000E-01
vertex 9.8885438E-03 -3.0433809E-02 5.0000000E-01
vertex 1.2360680E-02 -3.8042261E-02 0.0000000E+00
endloop
endfacet
facet normal 7.0701850E-01 -7.0701850E-01 1.5801041E-02
outer loop
vertex 2.3511410E-02 -3.2360680E-02 0.0000000E+00
vertex 3.2360680E-02 -2.3511410E-02 0.0000000E+00
vertex 2.5888544E-02 -1.8809128E-02 5.0000000E-01
endloop
endfacet
facet normal 7.0701850E-01 -7.0701850E-01 1.5801041E-02
outer loop
vertex 2.5888544E-02 -1.8809128E-02 5.0000000E-01
vertex 1.8809128E-02 -2.5888544E-02 5.0000000E-01
vertex 2.3511410E-02 -3.2360680E-02 0.0000000E+00
endloop
endfacet
facet normal 8.9089529E-01 -4.5393382E-01 1.5801041E-02
outer loop
vertex 3.2360680E-02 -2.3511410E-02 0.0000000E+00
vertex 3.8042261E-02 -1.2360680E-02 0.0000000E+00
vertex 3.0433809E-02 -9.8885438E-03 5.0000000E-01
endloop
endfacet
facet normal 8.9089529E-01 -4.5393382E-01 1.5801041E-02
outer loop
vertex 3.0433809E-02 -9.8885438E-03 5.0000000E-01
vertex 2.5888544E-02 -1.8809128E-02 5.0000000E-01
vertex 3.2360680E-02 -2.3511410E-02 0.0000000E+00
endloop
endfacet
facet normal 9.8756503E-01 -1.5641494E-01 1.5801041E-02
outer loop
vertex 3.8042261E-02 -1.2360680E-02 0.0000000E+00
vertex 4.0000000E-02 0.0000000E+00 0.0000000E+00
vertex 3.2000000E-02 0.0000000E+00 5.0000000E-01
endloop
endfacet
facet normal 9.8756503E-01 -1.5641494E-01 1.5801041E-02
outer loop
vertex 3.2000000E-02 0.0000000E+00 5.0000000E-01
vertex 3.0433809E-02 -9.8885438E-03 5.0000000E-01
vertex 3.8042261E-02 -1.2360680E-02 0.0000000E+00
endloop
endfacet
endsolid Created by surf2stl.m 02-Feb-2012 14:39:43
solid Created by surf2stl.m 02-Feb-2012 14:42:56
facet normal 9.8756503E-01 1.5641494E-01 1.5801041E-02
outer loop
vertex 4.0000000E-02 0.0000000E+00 0.0000000E+00
vertex 3.8042261E-02 1.2360680E-02 0.0000000E+00
vertex 3.0433809E-02 9.8885438E-03 5.0000000E-01
endloop
endfacet
facet normal 9.8756503E-01 1.5641494E-01 1.5801041E-02
outer loop
vertex 3.0433809E-02 9.8885438E-03 5.0000000E-01
vertex 3.2000000E-02 0.0000000E+00 5.0000000E-01
vertex 4.0000000E-02 0.0000000E+00 0.0000000E+00
endloop
endfacet
facet normal 8.9089529E-01 4.5393382E-01 1.5801041E-02
outer loop
vertex 3.8042261E-02 1.2360680E-02 0.0000000E+00
vertex 3.2360680E-02 2.3511410E-02 0.0000000E+00
vertex 2.5888544E-02 1.8809128E-02 5.0000000E-01
endloop
endfacet
facet normal 8.9089529E-01 4.5393382E-01 1.5801041E-02
outer loop
vertex 2.5888544E-02 1.8809128E-02 5.0000000E-01
vertex 3.0433809E-02 9.8885438E-03 5.0000000E-01
vertex 3.8042261E-02 1.2360680E-02 0.0000000E+00
endloop
endfacet
facet normal 7.0701850E-01 7.0701850E-01 1.5801041E-02
outer loop
vertex 3.2360680E-02 2.3511410E-02 0.0000000E+00
vertex 2.3511410E-02 3.2360680E-02 0.0000000E+00
vertex 1.8809128E-02 2.5888544E-02 5.0000000E-01
endloop
endfacet
facet normal 7.0701850E-01 7.0701850E-01 1.5801041E-02
outer loop
vertex 1.8809128E-02 2.5888544E-02 5.0000000E-01
vertex 2.5888544E-02 1.8809128E-02 5.0000000E-01
vertex 3.2360680E-02 2.3511410E-02 0.0000000E+00
endloop
endfacet
facet normal 4.5393382E-01 8.9089529E-01 1.5801041E-02
outer loop
vertex 2.3511410E-02 3.2360680E-02 0.0000000E+00
vertex 1.2360680E-02 3.8042261E-02 0.0000000E+00
vertex 9.8885438E-03 3.0433809E-02 5.0000000E-01
endloop
endfacet
facet normal 4.5393382E-01 8.9089529E-01 1.5801041E-02
outer loop
vertex 9.8885438E-03 3.0433809E-02 5.0000000E-01
vertex 1.8809128E-02 2.5888544E-02 5.0000000E-01
vertex 2.3511410E-02 3.2360680E-02 0.0000000E+00
endloop
endfacet
facet normal 1.5641494E-01 9.8756503E-01 1.5801041E-02
outer loop
vertex 1.2360680E-02 3.8042261E-02 0.0000000E+00
vertex 2.4492936E-18 4.0000000E-02 0.0000000E+00
vertex 1.9594349E-18 3.2000000E-02 5.0000000E-01
endloop
endfacet
facet normal 1.5641494E-01 9.8756503E-01 1.5801041E-02
outer loop
vertex 1.9594349E-18 3.2000000E-02 5.0000000E-01
vertex 9.8885438E-03 3.0433809E-02 5.0000000E-01
vertex 1.2360680E-02 3.8042261E-02 0.0000000E+00
endloop
endfacet
facet normal -1.5641494E-01 9.8756503E-01 1.5801041E-02
outer loop
vertex 2.4492936E-18 4.0000000E-02 0.0000000E+00
vertex -1.2360680E-02 3.8042261E-02 0.0000000E+00
vertex -9.8885438E-03 3.0433809E-02 5.0000000E-01
endloop
endfacet
facet normal -1.5641494E-01 9.8756503E-01 1.5801041E-02
outer loop
vertex -9.8885438E-03 3.0433809E-02 5.0000000E-01
vertex 1.9594349E-18 3.2000000E-02 5.0000000E-01
vertex 2.4492936E-18 4.0000000E-02 0.0000000E+00
endloop
endfacet
facet normal -4.5393382E-01 8.9089529E-01 1.5801041E-02
outer loop
vertex -1.2360680E-02 3.8042261E-02 0.0000000E+00
vertex -2.3511410E-02 3.2360680E-02 0.0000000E+00
vertex -1.8809128E-02 2.5888544E-02 5.0000000E-01
endloop
endfacet
facet normal -4.5393382E-01 8.9089529E-01 1.5801041E-02
outer loop
vertex -1.8809128E-02 2.5888544E-02 5.0000000E-01
vertex -9.8885438E-03 3.0433809E-02 5.0000000E-01
vertex -1.2360680E-02 3.8042261E-02 0.0000000E+00
endloop
endfacet
facet normal -7.0701850E-01 7.0701850E-01 1.5801041E-02
outer loop
vertex -2.3511410E-02 3.2360680E-02 0.0000000E+00
vertex -3.2360680E-02 2.3511410E-02 0.0000000E+00
vertex -2.5888544E-02 1.8809128E-02 5.0000000E-01
endloop
endfacet
facet normal -7.0701850E-01 7.0701850E-01 1.5801041E-02
outer loop
vertex -2.5888544E-02 1.8809128E-02 5.0000000E-01
vertex -1.8809128E-02 2.5888544E-02 5.0000000E-01
vertex -2.3511410E-02 3.2360680E-02 0.0000000E+00
endloop
endfacet
facet normal -8.9089529E-01 4.5393382E-01 1.5801041E-02
outer loop
vertex -3.2360680E-02 2.3511410E-02 0.0000000E+00
vertex -3.8042261E-02 1.2360680E-02 0.0000000E+00
vertex -3.0433809E-02 9.8885438E-03 5.0000000E-01
endloop
endfacet
facet normal -8.9089529E-01 4.5393382E-01 1.5801041E-02
outer loop
vertex -3.0433809E-02 9.8885438E-03 5.0000000E-01
vertex -2.5888544E-02 1.8809128E-02 5.0000000E-01
vertex -3.2360680E-02 2.3511410E-02 0.0000000E+00
endloop
endfacet
facet normal -9.8756503E-01 1.5641494E-01 1.5801041E-02
outer loop
vertex -3.8042261E-02 1.2360680E-02 0.0000000E+00
vertex -4.0000000E-02 4.8985872E-18 0.0000000E+00
vertex -3.2000000E-02 3.9188698E-18 5.0000000E-01
endloop
endfacet
facet normal -9.8756503E-01 1.5641494E-01 1.5801041E-02
outer loop
vertex -3.2000000E-02 3.9188698E-18 5.0000000E-01
vertex -3.0433809E-02 9.8885438E-03 5.0000000E-01
vertex -3.8042261E-02 1.2360680E-02 0.0000000E+00
endloop
endfacet
facet normal -9.8756503E-01 -1.5641494E-01 1.5801041E-02
outer loop
vertex -4.0000000E-02 4.8985872E-18 0.0000000E+00
vertex -3.8042261E-02 -1.2360680E-02 0.0000000E+00
vertex -3.0433809E-02 -9.8885438E-03 5.0000000E-01
endloop
endfacet
facet normal -9.8756503E-01 -1.5641494E-01 1.5801041E-02
outer loop
vertex -3.0433809E-02 -9.8885438E-03 5.0000000E-01
vertex -3.2000000E-02 3.9188698E-18 5.0000000E-01
vertex -4.0000000E-02 4.8985872E-18 0.0000000E+00
endloop
endfacet
facet normal -8.9089529E-01 -4.5393382E-01 1.5801041E-02
outer loop
vertex -3.8042261E-02 -1.2360680E-02 0.0000000E+00
vertex -3.2360680E-02 -2.3511410E-02 0.0000000E+00
vertex -2.5888544E-02 -1.8809128E-02 5.0000000E-01
endloop
endfacet
facet normal -8.9089529E-01 -4.5393382E-01 1.5801041E-02
outer loop
vertex -2.5888544E-02 -1.8809128E-02 5.0000000E-01
vertex -3.0433809E-02 -9.8885438E-03 5.0000000E-01
vertex -3.8042261E-02 -1.2360680E-02 0.0000000E+00
endloop
endfacet
facet normal -7.0701850E-01 -7.0701850E-01 1.5801041E-02
outer loop
vertex -3.2360680E-02 -2.3511410E-02 0.0000000E+00
vertex -2.3511410E-02 -3.2360680E-02 0.0000000E+00
vertex -1.8809128E-02 -2.5888544E-02 5.0000000E-01
endloop
endfacet
facet normal -7.0701850E-01 -7.0701850E-01 1.5801041E-02
outer loop
vertex -1.8809128E-02 -2.5888544E-02 5.0000000E-01
vertex -2.5888544E-02 -1.8809128E-02 5.0000000E-01
vertex -3.2360680E-02 -2.3511410E-02 0.0000000E+00
endloop
endfacet
facet normal -4.5393382E-01 -8.9089529E-01 1.5801041E-02
outer loop
vertex -2.3511410E-02 -3.2360680E-02 0.0000000E+00
vertex -1.2360680E-02 -3.8042261E-02 0.0000000E+00
vertex -9.8885438E-03 -3.0433809E-02 5.0000000E-01
endloop
endfacet
facet normal -4.5393382E-01 -8.9089529E-01 1.5801041E-02
outer loop
vertex -9.8885438E-03 -3.0433809E-02 5.0000000E-01
vertex -1.8809128E-02 -2.5888544E-02 5.0000000E-01
vertex -2.3511410E-02 -3.2360680E-02 0.0000000E+00
endloop
endfacet
facet normal -1.5641494E-01 -9.8756503E-01 1.5801041E-02
outer loop
vertex -1.2360680E-02 -3.8042261E-02 0.0000000E+00
vertex -7.3478808E-18 -4.0000000E-02 0.0000000E+00
vertex -5.8783046E-18 -3.2000000E-02 5.0000000E-01
endloop
endfacet
facet normal -1.5641494E-01 -9.8756503E-01 1.5801041E-02
outer loop
vertex -5.8783046E-18 -3.2000000E-02 5.0000000E-01
vertex -9.8885438E-03 -3.0433809E-02 5.0000000E-01
vertex -1.2360680E-02 -3.8042261E-02 0.0000000E+00
endloop
endfacet
facet normal 1.5641494E-01 -9.8756503E-01 1.5801041E-02
outer loop
vertex -7.3478808E-18 -4.0000000E-02 0.0000000E+00
vertex 1.2360680E-02 -3.8042261E-02 0.0000000E+00
vertex 9.8885438E-03 -3.0433809E-02 5.0000000E-01
endloop
endfacet
facet normal 1.5641494E-01 -9.8756503E-01 1.5801041E-02
outer loop
vertex 9.8885438E-03 -3.0433809E-02 5.0000000E-01
vertex -5.8783046E-18 -3.2000000E-02 5.0000000E-01
vertex -7.3478808E-18 -4.0000000E-02 0.0000000E+00
endloop
endfacet
facet normal 4.5393382E-01 -8.9089529E-01 1.5801041E-02
outer loop
vertex 1.2360680E-02 -3.8042261E-02 0.0000000E+00
vertex 2.3511410E-02 -3.2360680E-02 0.0000000E+00
vertex 1.8809128E-02 -2.5888544E-02 5.0000000E-01
endloop
endfacet
facet normal 4.5393382E-01 -8.9089529E-01 1.5801041E-02
outer loop
vertex 1.8809128E-02 -2.5888544E-02 5.0000000E-01
vertex 9.8885438E-03 -3.0433809E-02 5.0000000E-01
vertex 1.2360680E-02 -3.8042261E-02 0.0000000E+00
endloop
endfacet
facet normal 7.0701850E-01 -7.0701850E-01 1.5801041E-02
outer loop
vertex 2.3511410E-02 -3.2360680E-02 0.0000000E+00
vertex 3.2360680E-02 -2.3511410E-02 0.0000000E+00
vertex 2.5888544E-02 -1.8809128E-02 5.0000000E-01
endloop
endfacet
facet normal 7.0701850E-01 -7.0701850E-01 1.5801041E-02
outer loop
vertex 2.5888544E-02 -1.8809128E-02 5.0000000E-01
vertex 1.8809128E-02 -2.5888544E-02 5.0000000E-01
vertex 2.3511410E-02 -3.2360680E-02 0.0000000E+00
endloop
endfacet
facet normal 8.9089529E-01 -4.5393382E-01 1.5801041E-02
outer loop
vertex 3.2360680E-02 -2.3511410E-02 0.0000000E+00
vertex 3.8042261E-02 -1.2360680E-02 0.0000000E+00
vertex 3.0433809E-02 -9.8885438E-03 5.0000000E-01
endloop
endfacet
facet normal 8.9089529E-01 -4.5393382E-01 1.5801041E-02
outer loop
vertex 3.0433809E-02 -9.8885438E-03 5.0000000E-01
vertex 2.5888544E-02 -1.8809128E-02 5.0000000E-01
vertex 3.2360680E-02 -2.3511410E-02 0.0000000E+00
endloop
endfacet
facet normal 9.8756503E-01 -1.5641494E-01 1.5801041E-02
outer loop
vertex 3.8042261E-02 -1.2360680E-02 0.0000000E+00
vertex 4.0000000E-02 0.0000000E+00 0.0000000E+00
vertex 3.2000000E-02 0.0000000E+00 5.0000000E-01
endloop
endfacet
facet normal 9.8756503E-01 -1.5641494E-01 1.5801041E-02
outer loop
vertex 3.2000000E-02 0.0000000E+00 5.0000000E-01
vertex 3.0433809E-02 -9.8885438E-03 5.0000000E-01
vertex 3.8042261E-02 -1.2360680E-02 0.0000000E+00
endloop
endfacet
endsolid Created by surf2stl.m 02-Feb-2012 14:42:56
solid Created by surf2stl.m 02-Feb-2012 17:06:26
facet normal 9.8756503E-01 1.5641494E-01 1.5801041E-02
outer loop
vertex 4.0000000E-02 0.0000000E+00 0.0000000E+00
vertex 3.8042261E-02 1.2360680E-02 0.0000000E+00
vertex 3.0433809E-02 9.8885438E-03 5.0000000E-01
endloop
endfacet
facet normal 9.8756503E-01 1.5641494E-01 1.5801041E-02
outer loop
vertex 3.0433809E-02 9.8885438E-03 5.0000000E-01
vertex 3.2000000E-02 0.0000000E+00 5.0000000E-01
vertex 4.0000000E-02 0.0000000E+00 0.0000000E+00
endloop
endfacet
facet normal 8.9089529E-01 4.5393382E-01 1.5801041E-02
outer loop
vertex 3.8042261E-02 1.2360680E-02 0.0000000E+00
vertex 3.2360680E-02 2.3511410E-02 0.0000000E+00
vertex 2.5888544E-02 1.8809128E-02 5.0000000E-01
endloop
endfacet
facet normal 8.9089529E-01 4.5393382E-01 1.5801041E-02
outer loop
vertex 2.5888544E-02 1.8809128E-02 5.0000000E-01
vertex 3.0433809E-02 9.8885438E-03 5.0000000E-01
vertex 3.8042261E-02 1.2360680E-02 0.0000000E+00
endloop
endfacet
facet normal 7.0701850E-01 7.0701850E-01 1.5801041E-02
outer loop
vertex 3.2360680E-02 2.3511410E-02 0.0000000E+00
vertex 2.3511410E-02 3.2360680E-02 0.0000000E+00
vertex 1.8809128E-02 2.5888544E-02 5.0000000E-01
endloop
endfacet
facet normal 7.0701850E-01 7.0701850E-01 1.5801041E-02
outer loop
vertex 1.8809128E-02 2.5888544E-02 5.0000000E-01
vertex 2.5888544E-02 1.8809128E-02 5.0000000E-01
vertex 3.2360680E-02 2.3511410E-02 0.0000000E+00
endloop
endfacet
facet normal 4.5393382E-01 8.9089529E-01 1.5801041E-02
outer loop
vertex 2.3511410E-02 3.2360680E-02 0.0000000E+00
vertex 1.2360680E-02 3.8042261E-02 0.0000000E+00
vertex 9.8885438E-03 3.0433809E-02 5.0000000E-01
endloop
endfacet
facet normal 4.5393382E-01 8.9089529E-01 1.5801041E-02
outer loop
vertex 9.8885438E-03 3.0433809E-02 5.0000000E-01
vertex 1.8809128E-02 2.5888544E-02 5.0000000E-01
vertex 2.3511410E-02 3.2360680E-02 0.0000000E+00
endloop
endfacet
facet normal 1.5641494E-01 9.8756503E-01 1.5801041E-02
outer loop
vertex 1.2360680E-02 3.8042261E-02 0.0000000E+00
vertex 2.4492936E-18 4.0000000E-02 0.0000000E+00
vertex 1.9594349E-18 3.2000000E-02 5.0000000E-01
endloop
endfacet
facet normal 1.5641494E-01 9.8756503E-01 1.5801041E-02
outer loop
vertex 1.9594349E-18 3.2000000E-02 5.0000000E-01
vertex 9.8885438E-03 3.0433809E-02 5.0000000E-01
vertex 1.2360680E-02 3.8042261E-02 0.0000000E+00
endloop
endfacet
facet normal -1.5641494E-01 9.8756503E-01 1.5801041E-02
outer loop
vertex 2.4492936E-18 4.0000000E-02 0.0000000E+00
vertex -1.2360680E-02 3.8042261E-02 0.0000000E+00
vertex -9.8885438E-03 3.0433809E-02 5.0000000E-01
endloop
endfacet
facet normal -1.5641494E-01 9.8756503E-01 1.5801041E-02
outer loop
vertex -9.8885438E-03 3.0433809E-02 5.0000000E-01
vertex 1.9594349E-18 3.2000000E-02 5.0000000E-01
vertex 2.4492936E-18 4.0000000E-02 0.0000000E+00
endloop
endfacet
facet normal -4.5393382E-01 8.9089529E-01 1.5801041E-02
outer loop
vertex -1.2360680E-02 3.8042261E-02 0.0000000E+00
vertex -2.3511410E-02 3.2360680E-02 0.0000000E+00
vertex -1.8809128E-02 2.5888544E-02 5.0000000E-01
endloop
endfacet
facet normal -4.5393382E-01 8.9089529E-01 1.5801041E-02
outer loop
vertex -1.8809128E-02 2.5888544E-02 5.0000000E-01
vertex -9.8885438E-03 3.0433809E-02 5.0000000E-01
vertex -1.2360680E-02 3.8042261E-02 0.0000000E+00
endloop
endfacet
facet normal -7.0701850E-01 7.0701850E-01 1.5801041E-02
outer loop
vertex -2.3511410E-02 3.2360680E-02 0.0000000E+00
vertex -3.2360680E-02 2.3511410E-02 0.0000000E+00
vertex -2.5888544E-02 1.8809128E-02 5.0000000E-01
endloop
endfacet
facet normal -7.0701850E-01 7.0701850E-01 1.5801041E-02
outer loop
vertex -2.5888544E-02 1.8809128E-02 5.0000000E-01
vertex -1.8809128E-02 2.5888544E-02 5.0000000E-01
vertex -2.3511410E-02 3.2360680E-02 0.0000000E+00
endloop
endfacet
facet normal -8.9089529E-01 4.5393382E-01 1.5801041E-02
outer loop
vertex -3.2360680E-02 2.3511410E-02 0.0000000E+00
vertex -3.8042261E-02 1.2360680E-02 0.0000000E+00
vertex -3.0433809E-02 9.8885438E-03 5.0000000E-01
endloop
endfacet
facet normal -8.9089529E-01 4.5393382E-01 1.5801041E-02
outer loop
vertex -3.0433809E-02 9.8885438E-03 5.0000000E-01
vertex -2.5888544E-02 1.8809128E-02 5.0000000E-01
vertex -3.2360680E-02 2.3511410E-02 0.0000000E+00
endloop
endfacet
facet normal -9.8756503E-01 1.5641494E-01 1.5801041E-02
outer loop
vertex -3.8042261E-02 1.2360680E-02 0.0000000E+00
vertex -4.0000000E-02 4.8985872E-18 0.0000000E+00
vertex -3.2000000E-02 3.9188698E-18 5.0000000E-01
endloop
endfacet
facet normal -9.8756503E-01 1.5641494E-01 1.5801041E-02
outer loop
vertex -3.2000000E-02 3.9188698E-18 5.0000000E-01
vertex -3.0433809E-02 9.8885438E-03 5.0000000E-01
vertex -3.8042261E-02 1.2360680E-02 0.0000000E+00
endloop
endfacet
facet normal -9.8756503E-01 -1.5641494E-01 1.5801041E-02
outer loop
vertex -4.0000000E-02 4.8985872E-18 0.0000000E+00
vertex -3.8042261E-02 -1.2360680E-02 0.0000000E+00
vertex -3.0433809E-02 -9.8885438E-03 5.0000000E-01
endloop
endfacet
facet normal -9.8756503E-01 -1.5641494E-01 1.5801041E-02
outer loop
vertex -3.0433809E-02 -9.8885438E-03 5.0000000E-01
vertex -3.2000000E-02 3.9188698E-18 5.0000000E-01
vertex -4.0000000E-02 4.8985872E-18 0.0000000E+00
endloop
endfacet
facet normal -8.9089529E-01 -4.5393382E-01 1.5801041E-02
outer loop
vertex -3.8042261E-02 -1.2360680E-02 0.0000000E+00
vertex -3.2360680E-02 -2.3511410E-02 0.0000000E+00
vertex -2.5888544E-02 -1.8809128E-02 5.0000000E-01
endloop
endfacet
facet normal -8.9089529E-01 -4.5393382E-01 1.5801041E-02
outer loop
vertex -2.5888544E-02 -1.8809128E-02 5.0000000E-01
vertex -3.0433809E-02 -9.8885438E-03 5.0000000E-01
vertex -3.8042261E-02 -1.2360680E-02 0.0000000E+00
endloop
endfacet
facet normal -7.0701850E-01 -7.0701850E-01 1.5801041E-02
outer loop
vertex -3.2360680E-02 -2.3511410E-02 0.0000000E+00
vertex -2.3511410E-02 -3.2360680E-02 0.0000000E+00
vertex -1.8809128E-02 -2.5888544E-02 5.0000000E-01
endloop
endfacet
facet normal -7.0701850E-01 -7.0701850E-01 1.5801041E-02
outer loop
vertex -1.8809128E-02 -2.5888544E-02 5.0000000E-01
vertex -2.5888544E-02 -1.8809128E-02 5.0000000E-01
vertex -3.2360680E-02 -2.3511410E-02 0.0000000E+00
endloop
endfacet
facet normal -4.5393382E-01 -8.9089529E-01 1.5801041E-02
outer loop
vertex -2.3511410E-02 -3.2360680E-02 0.0000000E+00
vertex -1.2360680E-02 -3.8042261E-02 0.0000000E+00
vertex -9.8885438E-03 -3.0433809E-02 5.0000000E-01
endloop
endfacet
facet normal -4.5393382E-01 -8.9089529E-01 1.5801041E-02
outer loop
vertex -9.8885438E-03 -3.0433809E-02 5.0000000E-01
vertex -1.8809128E-02 -2.5888544E-02 5.0000000E-01
vertex -2.3511410E-02 -3.2360680E-02 0.0000000E+00
endloop
endfacet
facet normal -1.5641494E-01 -9.8756503E-01 1.5801041E-02
outer loop
vertex -1.2360680E-02 -3.8042261E-02 0.0000000E+00
vertex -7.3478808E-18 -4.0000000E-02 0.0000000E+00
vertex -5.8783046E-18 -3.2000000E-02 5.0000000E-01
endloop
endfacet
facet normal -1.5641494E-01 -9.8756503E-01 1.5801041E-02
outer loop
vertex -5.8783046E-18 -3.2000000E-02 5.0000000E-01
vertex -9.8885438E-03 -3.0433809E-02 5.0000000E-01
vertex -1.2360680E-02 -3.8042261E-02 0.0000000E+00
endloop
endfacet
facet normal 1.5641494E-01 -9.8756503E-01 1.5801041E-02
outer loop
vertex -7.3478808E-18 -4.0000000E-02 0.0000000E+00
vertex 1.2360680E-02 -3.8042261E-02 0.0000000E+00
vertex 9.8885438E-03 -3.0433809E-02 5.0000000E-01
endloop
endfacet
facet normal 1.5641494E-01 -9.8756503E-01 1.5801041E-02
outer loop
vertex 9.8885438E-03 -3.0433809E-02 5.0000000E-01
vertex -5.8783046E-18 -3.2000000E-02 5.0000000E-01
vertex -7.3478808E-18 -4.0000000E-02 0.0000000E+00
endloop
endfacet
facet normal 4.5393382E-01 -8.9089529E-01 1.5801041E-02
outer loop
vertex 1.2360680E-02 -3.8042261E-02 0.0000000E+00
vertex 2.3511410E-02 -3.2360680E-02 0.0000000E+00
vertex 1.8809128E-02 -2.5888544E-02 5.0000000E-01
endloop
endfacet
facet normal 4.5393382E-01 -8.9089529E-01 1.5801041E-02
outer loop
vertex 1.8809128E-02 -2.5888544E-02 5.0000000E-01
vertex 9.8885438E-03 -3.0433809E-02 5.0000000E-01
vertex 1.2360680E-02 -3.8042261E-02 0.0000000E+00
endloop
endfacet
facet normal 7.0701850E-01 -7.0701850E-01 1.5801041E-02
outer loop
vertex 2.3511410E-02 -3.2360680E-02 0.0000000E+00
vertex 3.2360680E-02 -2.3511410E-02 0.0000000E+00
vertex 2.5888544E-02 -1.8809128E-02 5.0000000E-01
endloop
endfacet
facet normal 7.0701850E-01 -7.0701850E-01 1.5801041E-02
outer loop
vertex 2.5888544E-02 -1.8809128E-02 5.0000000E-01
vertex 1.8809128E-02 -2.5888544E-02 5.0000000E-01
vertex 2.3511410E-02 -3.2360680E-02 0.0000000E+00
endloop
endfacet
facet normal 8.9089529E-01 -4.5393382E-01 1.5801041E-02
outer loop
vertex 3.2360680E-02 -2.3511410E-02 0.0000000E+00
vertex 3.8042261E-02 -1.2360680E-02 0.0000000E+00
vertex 3.0433809E-02 -9.8885438E-03 5.0000000E-01
endloop
endfacet
facet normal 8.9089529E-01 -4.5393382E-01 1.5801041E-02
outer loop
vertex 3.0433809E-02 -9.8885438E-03 5.0000000E-01
vertex 2.5888544E-02 -1.8809128E-02 5.0000000E-01
vertex 3.2360680E-02 -2.3511410E-02 0.0000000E+00
endloop
endfacet
facet normal 9.8756503E-01 -1.5641494E-01 1.5801041E-02
outer loop
vertex 3.8042261E-02 -1.2360680E-02 0.0000000E+00
vertex 4.0000000E-02 0.0000000E+00 0.0000000E+00
vertex 3.2000000E-02 0.0000000E+00 5.0000000E-01
endloop
endfacet
facet normal 9.8756503E-01 -1.5641494E-01 1.5801041E-02
outer loop
vertex 3.2000000E-02 0.0000000E+00 5.0000000E-01
vertex 3.0433809E-02 -9.8885438E-03 5.0000000E-01
vertex 3.8042261E-02 -1.2360680E-02 0.0000000E+00
endloop
endfacet
endsolid Created by surf2stl.m 02-Feb-2012 17:06:26
solid Created by surf2stl.m 02-Feb-2012 17:07:40
facet normal 8.0894923E-01 5.8773602E-01 1.2943188E-02
outer loop
vertex 4.0000000E-02 0.0000000E+00 0.0000000E+00
vertex 1.2360680E-02 3.8042261E-02 0.0000000E+00
vertex 9.8885438E-03 3.0433809E-02 5.0000000E-01
endloop
endfacet
facet normal 8.0894923E-01 5.8773602E-01 1.2943188E-02
outer loop
vertex 9.8885438E-03 3.0433809E-02 5.0000000E-01
vertex 3.2000000E-02 0.0000000E+00 5.0000000E-01
vertex 4.0000000E-02 0.0000000E+00 0.0000000E+00
endloop
endfacet
facet normal -3.0899111E-01 9.5097685E-01 1.2943188E-02
outer loop
vertex 1.2360680E-02 3.8042261E-02 0.0000000E+00
vertex -3.2360680E-02 2.3511410E-02 0.0000000E+00
vertex -2.5888544E-02 1.8809128E-02 5.0000000E-01
endloop
endfacet
facet normal -3.0899111E-01 9.5097685E-01 1.2943188E-02
outer loop
vertex -2.5888544E-02 1.8809128E-02 5.0000000E-01
vertex 9.8885438E-03 3.0433809E-02 5.0000000E-01
vertex 1.2360680E-02 3.8042261E-02 0.0000000E+00
endloop
endfacet
facet normal -9.9991623E-01 0.0000000E+00 1.2943188E-02
outer loop
vertex -3.2360680E-02 2.3511410E-02 0.0000000E+00
vertex -3.2360680E-02 -2.3511410E-02 0.0000000E+00
vertex -2.5888544E-02 -1.8809128E-02 5.0000000E-01
endloop
endfacet
facet normal -9.9991623E-01 9.2220020E-17 1.2943188E-02
outer loop
vertex -2.5888544E-02 -1.8809128E-02 5.0000000E-01
vertex -2.5888544E-02 1.8809128E-02 5.0000000E-01
vertex -3.2360680E-02 2.3511410E-02 0.0000000E+00
endloop
endfacet
facet normal -3.0899111E-01 -9.5097685E-01 1.2943188E-02
outer loop
vertex -3.2360680E-02 -2.3511410E-02 0.0000000E+00
vertex 1.2360680E-02 -3.8042261E-02 0.0000000E+00
vertex 9.8885438E-03 -3.0433809E-02 5.0000000E-01
endloop
endfacet
facet normal -3.0899111E-01 -9.5097685E-01 1.2943188E-02
outer loop
vertex 9.8885438E-03 -3.0433809E-02 5.0000000E-01
vertex -2.5888544E-02 -1.8809128E-02 5.0000000E-01
vertex -3.2360680E-02 -2.3511410E-02 0.0000000E+00
endloop
endfacet
facet normal 8.0894923E-01 -5.8773602E-01 1.2943188E-02
outer loop
vertex 1.2360680E-02 -3.8042261E-02 0.0000000E+00
vertex 4.0000000E-02 0.0000000E+00 0.0000000E+00
vertex 3.2000000E-02 0.0000000E+00 5.0000000E-01
endloop
endfacet
facet normal 8.0894923E-01 -5.8773602E-01 1.2943188E-02
outer loop
vertex 3.2000000E-02 0.0000000E+00 5.0000000E-01
vertex 9.8885438E-03 -3.0433809E-02 5.0000000E-01
vertex 1.2360680E-02 -3.8042261E-02 0.0000000E+00
endloop
endfacet
endsolid Created by surf2stl.m 02-Feb-2012 17:07:40
solid Created by surf2stl.m 02-Feb-2012 17:08:28
facet normal 9.5094642E-01 3.0898122E-01 1.5215143E-02
outer loop
vertex 4.0000000E-02 0.0000000E+00 0.0000000E+00
vertex 3.2360680E-02 2.3511410E-02 0.0000000E+00
vertex 2.5888544E-02 1.8809128E-02 5.0000000E-01
endloop
endfacet
facet normal 9.5094642E-01 3.0898122E-01 1.5215143E-02
outer loop
vertex 2.5888544E-02 1.8809128E-02 5.0000000E-01
vertex 3.2000000E-02 0.0000000E+00 5.0000000E-01
vertex 4.0000000E-02 0.0000000E+00 0.0000000E+00
endloop
endfacet
facet normal 5.8771721E-01 8.0892335E-01 1.5215143E-02
outer loop
vertex 3.2360680E-02 2.3511410E-02 0.0000000E+00
vertex 1.2360680E-02 3.8042261E-02 0.0000000E+00
vertex 9.8885438E-03 3.0433809E-02 5.0000000E-01
endloop
endfacet
facet normal 5.8771721E-01 8.0892335E-01 1.5215143E-02
outer loop
vertex 9.8885438E-03 3.0433809E-02 5.0000000E-01
vertex 2.5888544E-02 1.8809128E-02 5.0000000E-01
vertex 3.2360680E-02 2.3511410E-02 0.0000000E+00
endloop
endfacet
facet normal 0.0000000E+00 9.9988424E-01 1.5215143E-02
outer loop
vertex 1.2360680E-02 3.8042261E-02 0.0000000E+00
vertex -1.2360680E-02 3.8042261E-02 0.0000000E+00
vertex -9.8885438E-03 3.0433809E-02 5.0000000E-01
endloop
endfacet
facet normal 1.7540729E-16 9.9988424E-01 1.5215143E-02
outer loop
vertex -9.8885438E-03 3.0433809E-02 5.0000000E-01
vertex 9.8885438E-03 3.0433809E-02 5.0000000E-01
vertex 1.2360680E-02 3.8042261E-02 0.0000000E+00
endloop
endfacet
facet normal -5.8771721E-01 8.0892335E-01 1.5215143E-02
outer loop
vertex -1.2360680E-02 3.8042261E-02 0.0000000E+00
vertex -3.2360680E-02 2.3511410E-02 0.0000000E+00
vertex -2.5888544E-02 1.8809128E-02 5.0000000E-01
endloop
endfacet
facet normal -5.8771721E-01 8.0892335E-01 1.5215143E-02
outer loop
vertex -2.5888544E-02 1.8809128E-02 5.0000000E-01
vertex -9.8885438E-03 3.0433809E-02 5.0000000E-01
vertex -1.2360680E-02 3.8042261E-02 0.0000000E+00
endloop
endfacet
facet normal -9.5094642E-01 3.0898122E-01 1.5215143E-02
outer loop
vertex -3.2360680E-02 2.3511410E-02 0.0000000E+00
vertex -4.0000000E-02 4.8985872E-18 0.0000000E+00
vertex -3.2000000E-02 3.9188698E-18 5.0000000E-01
endloop
endfacet
facet normal -9.5094642E-01 3.0898122E-01 1.5215143E-02
outer loop
vertex -3.2000000E-02 3.9188698E-18 5.0000000E-01
vertex -2.5888544E-02 1.8809128E-02 5.0000000E-01
vertex -3.2360680E-02 2.3511410E-02 0.0000000E+00
endloop
endfacet
facet normal -9.5094642E-01 -3.0898122E-01 1.5215143E-02
outer loop
vertex -4.0000000E-02 4.8985872E-18 0.0000000E+00
vertex -3.2360680E-02 -2.3511410E-02 0.0000000E+00
vertex -2.5888544E-02 -1.8809128E-02 5.0000000E-01
endloop
endfacet
facet normal -9.5094642E-01 -3.0898122E-01 1.5215143E-02
outer loop
vertex -2.5888544E-02 -1.8809128E-02 5.0000000E-01
vertex -3.2000000E-02 3.9188698E-18 5.0000000E-01
vertex -4.0000000E-02 4.8985872E-18 0.0000000E+00
endloop
endfacet
facet normal -5.8771721E-01 -8.0892335E-01 1.5215143E-02
outer loop
vertex -3.2360680E-02 -2.3511410E-02 0.0000000E+00
vertex -1.2360680E-02 -3.8042261E-02 0.0000000E+00
vertex -9.8885438E-03 -3.0433809E-02 5.0000000E-01
endloop
endfacet
facet normal -5.8771721E-01 -8.0892335E-01 1.5215143E-02
outer loop
vertex -9.8885438E-03 -3.0433809E-02 5.0000000E-01
vertex -2.5888544E-02 -1.8809128E-02 5.0000000E-01
vertex -3.2360680E-02 -2.3511410E-02 0.0000000E+00
endloop
endfacet
facet normal 0.0000000E+00 -9.9988424E-01 1.5215143E-02
outer loop
vertex -1.2360680E-02 -3.8042261E-02 0.0000000E+00
vertex 1.2360680E-02 -3.8042261E-02 0.0000000E+00
vertex 9.8885438E-03 -3.0433809E-02 5.0000000E-01
endloop
endfacet
facet normal -1.7540729E-16 -9.9988424E-01 1.5215143E-02
outer loop
vertex 9.8885438E-03 -3.0433809E-02 5.0000000E-01
vertex -9.8885438E-03 -3.0433809E-02 5.0000000E-01
vertex -1.2360680E-02 -3.8042261E-02 0.0000000E+00
endloop
endfacet
facet normal 5.8771721E-01 -8.0892335E-01 1.5215143E-02
outer loop
vertex 1.2360680E-02 -3.8042261E-02 0.0000000E+00
vertex 3.2360680E-02 -2.3511410E-02 0.0000000E+00
vertex 2.5888544E-02 -1.8809128E-02 5.0000000E-01
endloop
endfacet
facet normal 5.8771721E-01 -8.0892335E-01 1.5215143E-02
outer loop
vertex 2.5888544E-02 -1.8809128E-02 5.0000000E-01
vertex 9.8885438E-03 -3.0433809E-02 5.0000000E-01
vertex 1.2360680E-02 -3.8042261E-02 0.0000000E+00
endloop
endfacet
facet normal 9.5094642E-01 -3.0898122E-01 1.5215143E-02
outer loop
vertex 3.2360680E-02 -2.3511410E-02 0.0000000E+00
vertex 4.0000000E-02 0.0000000E+00 0.0000000E+00
vertex 3.2000000E-02 0.0000000E+00 5.0000000E-01
endloop
endfacet
facet normal 9.5094642E-01 -3.0898122E-01 1.5215143E-02
outer loop
vertex 3.2000000E-02 0.0000000E+00 5.0000000E-01
vertex 2.5888544E-02 -1.8809128E-02 5.0000000E-01
vertex 3.2360680E-02 -2.3511410E-02 0.0000000E+00
endloop
endfacet
endsolid Created by surf2stl.m 02-Feb-2012 17:08:28
solid Created by surf2stl.m 02-Feb-2012 17:09:29
facet normal 9.5094642E-01 3.0898122E-01 1.5215143E-02
outer loop
vertex 4.0000000E-02 0.0000000E+00 0.0000000E+00
vertex 3.2360680E-02 2.3511410E-02 0.0000000E+00
vertex 2.5888544E-02 1.8809128E-02 5.0000000E-01
endloop
endfacet
facet normal 9.5094642E-01 3.0898122E-01 1.5215143E-02
outer loop
vertex 2.5888544E-02 1.8809128E-02 5.0000000E-01
vertex 3.2000000E-02 0.0000000E+00 5.0000000E-01
vertex 4.0000000E-02 0.0000000E+00 0.0000000E+00
endloop
endfacet
facet normal 5.8771721E-01 8.0892335E-01 1.5215143E-02
outer loop
vertex 3.2360680E-02 2.3511410E-02 0.0000000E+00
vertex 1.2360680E-02 3.8042261E-02 0.0000000E+00
vertex 9.8885438E-03 3.0433809E-02 5.0000000E-01
endloop
endfacet
facet normal 5.8771721E-01 8.0892335E-01 1.5215143E-02
outer loop
vertex 9.8885438E-03 3.0433809E-02 5.0000000E-01
vertex 2.5888544E-02 1.8809128E-02 5.0000000E-01
vertex 3.2360680E-02 2.3511410E-02 0.0000000E+00
endloop
endfacet
facet normal 0.0000000E+00 9.9988424E-01 1.5215143E-02
outer loop
vertex 1.2360680E-02 3.8042261E-02 0.0000000E+00
vertex -1.2360680E-02 3.8042261E-02 0.0000000E+00
vertex -9.8885438E-03 3.0433809E-02 5.0000000E-01
endloop
endfacet
facet normal 1.7540729E-16 9.9988424E-01 1.5215143E-02
outer loop
vertex -9.8885438E-03 3.0433809E-02 5.0000000E-01
vertex 9.8885438E-03 3.0433809E-02 5.0000000E-01
vertex 1.2360680E-02 3.8042261E-02 0.0000000E+00
endloop
endfacet
facet normal -5.8771721E-01 8.0892335E-01 1.5215143E-02
outer loop
vertex -1.2360680E-02 3.8042261E-02 0.0000000E+00
vertex -3.2360680E-02 2.3511410E-02 0.0000000E+00
vertex -2.5888544E-02 1.8809128E-02 5.0000000E-01
endloop
endfacet
facet normal -5.8771721E-01 8.0892335E-01 1.5215143E-02
outer loop
vertex -2.5888544E-02 1.8809128E-02 5.0000000E-01
vertex -9.8885438E-03 3.0433809E-02 5.0000000E-01
vertex -1.2360680E-02 3.8042261E-02 0.0000000E+00
endloop
endfacet
facet normal -9.5094642E-01 3.0898122E-01 1.5215143E-02
outer loop
vertex -3.2360680E-02 2.3511410E-02 0.0000000E+00
vertex -4.0000000E-02 4.8985872E-18 0.0000000E+00
vertex -3.2000000E-02 3.9188698E-18 5.0000000E-01
endloop
endfacet
facet normal -9.5094642E-01 3.0898122E-01 1.5215143E-02
outer loop
vertex -3.2000000E-02 3.9188698E-18 5.0000000E-01
vertex -2.5888544E-02 1.8809128E-02 5.0000000E-01
vertex -3.2360680E-02 2.3511410E-02 0.0000000E+00
endloop
endfacet
facet normal -9.5094642E-01 -3.0898122E-01 1.5215143E-02
outer loop
vertex -4.0000000E-02 4.8985872E-18 0.0000000E+00
vertex -3.2360680E-02 -2.3511410E-02 0.0000000E+00
vertex -2.5888544E-02 -1.8809128E-02 5.0000000E-01
endloop
endfacet
facet normal -9.5094642E-01 -3.0898122E-01 1.5215143E-02
outer loop
vertex -2.5888544E-02 -1.8809128E-02 5.0000000E-01
vertex -3.2000000E-02 3.9188698E-18 5.0000000E-01
vertex -4.0000000E-02 4.8985872E-18 0.0000000E+00
endloop
endfacet
facet normal -5.8771721E-01 -8.0892335E-01 1.5215143E-02
outer loop
vertex -3.2360680E-02 -2.3511410E-02 0.0000000E+00
vertex -1.2360680E-02 -3.8042261E-02 0.0000000E+00
vertex -9.8885438E-03 -3.0433809E-02 5.0000000E-01
endloop
endfacet
facet normal -5.8771721E-01 -8.0892335E-01 1.5215143E-02
outer loop
vertex -9.8885438E-03 -3.0433809E-02 5.0000000E-01
vertex -2.5888544E-02 -1.8809128E-02 5.0000000E-01
vertex -3.2360680E-02 -2.3511410E-02 0.0000000E+00
endloop
endfacet
facet normal 0.0000000E+00 -9.9988424E-01 1.5215143E-02
outer loop
vertex -1.2360680E-02 -3.8042261E-02 0.0000000E+00
vertex 1.2360680E-02 -3.8042261E-02 0.0000000E+00
vertex 9.8885438E-03 -3.0433809E-02 5.0000000E-01
endloop
endfacet
facet normal -1.7540729E-16 -9.9988424E-01 1.5215143E-02
outer loop
vertex 9.8885438E-03 -3.0433809E-02 5.0000000E-01
vertex -9.8885438E-03 -3.0433809E-02 5.0000000E-01
vertex -1.2360680E-02 -3.8042261E-02 0.0000000E+00
endloop
endfacet
facet normal 5.8771721E-01 -8.0892335E-01 1.5215143E-02
outer loop
vertex 1.2360680E-02 -3.8042261E-02 0.0000000E+00
vertex 3.2360680E-02 -2.3511410E-02 0.0000000E+00
vertex 2.5888544E-02 -1.8809128E-02 5.0000000E-01
endloop
endfacet
facet normal 5.8771721E-01 -8.0892335E-01 1.5215143E-02
outer loop
vertex 2.5888544E-02 -1.8809128E-02 5.0000000E-01
vertex 9.8885438E-03 -3.0433809E-02 5.0000000E-01
vertex 1.2360680E-02 -3.8042261E-02 0.0000000E+00
endloop
endfacet
facet normal 9.5094642E-01 -3.0898122E-01 1.5215143E-02
outer loop
vertex 3.2360680E-02 -2.3511410E-02 0.0000000E+00
vertex 4.0000000E-02 0.0000000E+00 0.0000000E+00
vertex 3.2000000E-02 0.0000000E+00 5.0000000E-01
endloop
endfacet
facet normal 9.5094642E-01 -3.0898122E-01 1.5215143E-02
outer loop
vertex 3.2000000E-02 0.0000000E+00 5.0000000E-01
vertex 2.5888544E-02 -1.8809128E-02 5.0000000E-01
vertex 3.2360680E-02 -2.3511410E-02 0.0000000E+00
endloop
endfacet
endsolid Created by surf2stl.m 02-Feb-2012 17:09:29
