solid vcg
  facet normal 3.005707e-001 5.741124e-001 7.616116e-001
    outer loop
      vertex  1.504705e+003 3.849516e+001 2.079682e+003
      vertex  1.532885e+003 6.376341e+001 2.049513e+003
      vertex  1.504500e+003 8.031316e+001 2.048240e+003
    endloop
  endfacet
  facet normal 3.902878e-001 -3.028145e-001 8.694704e-001
    outer loop
      vertex  1.504503e+003 -5.037984e+001 2.072998e+003
      vertex  1.532172e+003 1.484873e-002 2.078129e+003
      vertex  1.504505e+003 -1.322844e+001 2.085936e+003
    endloop
  endfacet
  facet normal 3.504523e-001 -6.226274e-001 6.996558e-001
    outer loop
      vertex  1.504503e+003 -5.037984e+001 2.072998e+003
      vertex  1.533398e+003 -8.102779e+001 2.031251e+003
      vertex  1.532512e+003 -4.502604e+001 2.063733e+003
    endloop
  endfacet
  facet normal 3.035743e-001 -5.748406e-001 -7.598690e-001
    outer loop
      vertex  1.504621e+003 -3.890505e+001 1.888390e+003
      vertex  1.532885e+003 -6.376351e+001 1.918487e+003
      vertex  1.504633e+003 -7.937531e+001 1.919010e+003
    endloop
  endfacet
  facet normal 3.811789e-001 2.766169e-001 -8.821483e-001
    outer loop
      vertex  1.532415e+003 4.514318e+001 1.904130e+003
      vertex  1.532175e+003 -9.417124e-004 1.889870e+003
      vertex  1.504506e+003 1.323004e+001 1.882063e+003
    endloop
  endfacet
  facet normal 9.886679e-001 1.481595e-001 2.417699e-002
    outer loop
      vertex  1.804979e+003 -1.269826e+001 1.996939e+003
      vertex  1.800523e+003 2.598297e+001 1.942107e+003
      vertex  1.798554e+003 2.600187e+001 2.022514e+003
    endloop
  endfacet
  facet normal 2.851024e-001 1.622652e-001 9.446622e-001
    outer loop
      vertex  1.751871e+003 -3.496148e+000 2.041670e+003
      vertex  1.798554e+003 2.600187e+001 2.022514e+003
      vertex  1.739841e+003 2.638439e+001 2.040168e+003
    endloop
  endfacet
  facet normal -1.509795e-001 -1.111020e-002 9.884745e-001
    outer loop
      vertex  1.707891e+003 5.167763e+000 2.035050e+003
      vertex  1.751871e+003 -3.496148e+000 2.041670e+003
      vertex  1.739841e+003 2.638439e+001 2.040168e+003
    endloop
  endfacet
  facet normal 1.031653e-001 2.148926e-001 9.711736e-001
    outer loop
      vertex  1.532933e+003 -6.321161e+000 2.047983e+003
      vertex  1.627485e+003 8.576011e+000 2.034643e+003
      vertex  1.533159e+003 3.272575e+001 2.039319e+003
    endloop
  endfacet
  facet normal 1.298777e-001 7.031848e-001 6.990442e-001
    outer loop
      vertex  1.533159e+003 3.272575e+001 2.039319e+003
      vertex  1.618073e+003 4.574170e+001 2.010450e+003
      vertex  1.533762e+003 5.544074e+001 2.016358e+003
    endloop
  endfacet
  facet normal 1.296123e-001 9.463271e-001 2.960840e-001
    outer loop
      vertex  1.533762e+003 5.544074e+001 2.016358e+003
      vertex  1.618073e+003 4.574170e+001 2.010450e+003
      vertex  1.534651e+003 6.580066e+001 1.982857e+003
    endloop
  endfacet
  facet normal 1.607002e-001 -1.458011e-001 9.761750e-001
    outer loop
      vertex  1.627485e+003 8.576011e+000 2.034643e+003
      vertex  1.532933e+003 -6.321161e+000 2.047983e+003
      vertex  1.635134e+003 -2.347496e+001 2.028596e+003
    endloop
  endfacet
  facet normal 1.173352e-001 -3.508910e-001 9.290360e-001
    outer loop
      vertex  1.635134e+003 -2.347496e+001 2.028596e+003
      vertex  1.532933e+003 -6.321161e+000 2.047983e+003
      vertex  1.533219e+003 -3.509550e+001 2.037079e+003
    endloop
  endfacet
  facet normal 5.993798e-002 -9.889855e-001 1.353336e-001
    outer loop
      vertex  1.625452e+003 -5.461325e+001 1.990331e+003
      vertex  1.533870e+003 -5.721413e+001 2.011886e+003
      vertex  1.534528e+003 -6.279354e+001 1.970821e+003
    endloop
  endfacet
  facet normal 1.016937e-001 -7.462741e-001 6.578248e-001
    outer loop
      vertex  1.533219e+003 -3.509550e+001 2.037079e+003
      vertex  1.533870e+003 -5.721413e+001 2.011886e+003
      vertex  1.650432e+003 -4.325840e+001 2.009699e+003
    endloop
  endfacet
  facet normal 1.519499e-001 -9.840714e-001 9.227543e-002
    outer loop
      vertex  1.705969e+003 -4.122860e+001 2.000485e+003
      vertex  1.625452e+003 -5.461325e+001 1.990331e+003
      vertex  1.708811e+003 -4.345310e+001 1.972082e+003
    endloop
  endfacet
  facet normal 1.181668e-001 -8.417064e-001 5.268462e-001
    outer loop
      vertex  1.705969e+003 -4.122860e+001 2.000485e+003
      vertex  1.717466e+003 -2.258283e+001 2.027695e+003
      vertex  1.650432e+003 -4.325840e+001 2.009699e+003
    endloop
  endfacet
  facet normal 1.539423e-002 -6.844049e-001 7.289397e-001
    outer loop
      vertex  1.650432e+003 -4.325840e+001 2.009699e+003
      vertex  1.717466e+003 -2.258283e+001 2.027695e+003
      vertex  1.635134e+003 -2.347496e+001 2.028596e+003
    endloop
  endfacet
  facet normal 1.332020e-002 -2.518577e-001 9.676726e-001
    outer loop
      vertex  1.707891e+003 5.167763e+000 2.035050e+003
      vertex  1.635134e+003 -2.347496e+001 2.028596e+003
      vertex  1.717466e+003 -2.258283e+001 2.027695e+003
    endloop
  endfacet
  facet normal 1.640019e-002 4.909483e-001 8.710343e-001
    outer loop
      vertex  1.648087e+003 2.633377e+001 2.024246e+003
      vertex  1.627485e+003 8.576011e+000 2.034643e+003
      vertex  1.707891e+003 5.167763e+000 2.035050e+003
    endloop
  endfacet
  facet normal 1.630353e-001 9.644067e-001 2.081805e-001
    outer loop
      vertex  1.618073e+003 4.574170e+001 2.010450e+003
      vertex  1.657360e+003 4.472730e+001 1.984382e+003
      vertex  1.534651e+003 6.580066e+001 1.982857e+003
    endloop
  endfacet
  facet normal -1.295563e-002 -1.883447e-001 9.820175e-001
    outer loop
      vertex  1.627485e+003 8.576011e+000 2.034643e+003
      vertex  1.635134e+003 -2.347496e+001 2.028596e+003
      vertex  1.707891e+003 5.167763e+000 2.035050e+003
    endloop
  endfacet
  facet normal 1.353743e-001 -6.276432e-001 7.666407e-001
    outer loop
      vertex  1.533219e+003 -3.509550e+001 2.037079e+003
      vertex  1.650432e+003 -4.325840e+001 2.009699e+003
      vertex  1.635134e+003 -2.347496e+001 2.028596e+003
    endloop
  endfacet
  facet normal -2.017037e-001 -3.153471e-001 9.272927e-001
    outer loop
      vertex  1.751871e+003 -3.496148e+000 2.041670e+003
      vertex  1.707891e+003 5.167763e+000 2.035050e+003
      vertex  1.717466e+003 -2.258283e+001 2.027695e+003
    endloop
  endfacet
  facet normal -3.506407e-001 -9.357306e-001 3.819992e-002
    outer loop
      vertex  1.708811e+003 -4.345310e+001 1.972082e+003
      vertex  1.734131e+003 -5.120294e+001 2.014660e+003
      vertex  1.705969e+003 -4.122860e+001 2.000485e+003
    endloop
  endfacet
  facet normal -1.481826e-001 -4.800839e-001 8.646163e-001
    outer loop
      vertex  1.734131e+003 -5.120294e+001 2.014660e+003
      vertex  1.770624e+003 -4.613156e+001 2.023730e+003
      vertex  1.717466e+003 -2.258283e+001 2.027695e+003
    endloop
  endfacet
  facet normal -1.241330e-001 -4.307276e-001 8.939042e-001
    outer loop
      vertex  1.751871e+003 -3.496148e+000 2.041670e+003
      vertex  1.717466e+003 -2.258283e+001 2.027695e+003
      vertex  1.770624e+003 -4.613156e+001 2.023730e+003
    endloop
  endfacet
  facet normal 7.441555e-001 -2.778970e-001 6.074585e-001
    outer loop
      vertex  1.804979e+003 -1.269826e+001 1.996939e+003
      vertex  1.798554e+003 2.600187e+001 2.022514e+003
      vertex  1.770624e+003 -4.613156e+001 2.023730e+003
    endloop
  endfacet
  facet normal 4.613852e-001 -1.639505e-001 8.719197e-001
    outer loop
      vertex  1.798554e+003 2.600187e+001 2.022514e+003
      vertex  1.751871e+003 -3.496148e+000 2.041670e+003
      vertex  1.770624e+003 -4.613156e+001 2.023730e+003
    endloop
  endfacet
  facet normal -5.202498e-001 -5.859178e-001 6.213215e-001
    outer loop
      vertex  1.717466e+003 -2.258283e+001 2.027695e+003
      vertex  1.705969e+003 -4.122860e+001 2.000485e+003
      vertex  1.734131e+003 -5.120294e+001 2.014660e+003
    endloop
  endfacet
  facet normal 7.775596e-001 -4.356036e-001 4.534871e-001
    outer loop
      vertex  1.770624e+003 -4.613156e+001 2.023730e+003
      vertex  1.778461e+003 -5.947950e+001 1.997470e+003
      vertex  1.804979e+003 -1.269826e+001 1.996939e+003
    endloop
  endfacet
  facet normal 9.653713e-001 -2.288917e-001 1.251677e-001
    outer loop
      vertex  1.839269e+003 2.527896e+001 1.966594e+003
      vertex  1.841555e+003 4.450333e+001 1.984114e+003
      vertex  1.832671e+003 2.590598e+001 2.018623e+003
    endloop
  endfacet
  facet normal -2.194703e-001 1.840884e-001 9.580941e-001
    outer loop
      vertex  1.702289e+003 4.449543e+001 2.060079e+003
      vertex  1.711464e+003 2.713566e+001 2.065516e+003
      vertex  1.759256e+003 3.927747e+001 2.074131e+003
    endloop
  endfacet
  facet normal -3.417495e-001 1.328287e-001 9.303569e-001
    outer loop
      vertex  1.618073e+003 4.574170e+001 2.010450e+003
      vertex  1.648087e+003 2.633377e+001 2.024246e+003
      vertex  1.665212e+003 4.481422e+001 2.027898e+003
    endloop
  endfacet
  facet normal -5.190107e-001 3.246840e-001 7.907011e-001
    outer loop
      vertex  1.665212e+003 4.481422e+001 2.027898e+003
      vertex  1.648087e+003 2.633377e+001 2.024246e+003
      vertex  1.711464e+003 2.713566e+001 2.065516e+003
    endloop
  endfacet
  facet normal -6.520705e-001 -1.096420e-001 7.501884e-001
    outer loop
      vertex  1.702289e+003 4.449543e+001 2.060079e+003
      vertex  1.665212e+003 4.481422e+001 2.027898e+003
      vertex  1.711464e+003 2.713566e+001 2.065516e+003
    endloop
  endfacet
  facet normal 6.307544e-001 -3.159570e-001 -7.087454e-001
    outer loop
      vertex  1.800523e+003 2.598297e+001 1.942107e+003
      vertex  1.801662e+003 -8.301693e+000 1.958405e+003
      vertex  1.765390e+003 -1.076620e+001 1.927223e+003
    endloop
  endfacet
  facet normal 2.218459e-001 1.763323e-001 -9.590054e-001
    outer loop
      vertex  1.765390e+003 -1.076620e+001 1.927223e+003
      vertex  1.737480e+003 2.654004e+001 1.927626e+003
      vertex  1.800523e+003 2.598297e+001 1.942107e+003
    endloop
  endfacet
  facet normal -1.451761e-001 -9.796327e-002 -9.845441e-001
    outer loop
      vertex  1.765390e+003 -1.076620e+001 1.927223e+003
      vertex  1.715810e+003 -1.296457e+001 1.934752e+003
      vertex  1.737480e+003 2.654004e+001 1.927626e+003
    endloop
  endfacet
  facet normal -1.999629e-002 4.674008e-001 -8.838193e-001
    outer loop
      vertex  1.621876e+003 6.321158e+000 1.932785e+003
      vertex  1.643450e+003 2.648140e+001 1.942958e+003
      vertex  1.696309e+003 2.442036e+001 1.940672e+003
    endloop
  endfacet
  facet normal 1.116930e-001 3.498416e-001 -9.301266e-001
    outer loop
      vertex  1.621876e+003 6.321158e+000 1.932785e+003
      vertex  1.533417e+003 4.547003e+001 1.936887e+003
      vertex  1.643450e+003 2.648140e+001 1.942958e+003
    endloop
  endfacet
  facet normal -4.920873e-002 -3.356369e-001 -9.407052e-001
    outer loop
      vertex  1.621876e+003 6.321158e+000 1.932785e+003
      vertex  1.715810e+003 -1.296457e+001 1.934752e+003
      vertex  1.647539e+003 -3.166416e+001 1.944995e+003
    endloop
  endfacet
  facet normal 1.093368e-001 -9.884393e-001 -1.050397e-001
    outer loop
      vertex  1.708811e+003 -4.345310e+001 1.972082e+003
      vertex  1.625452e+003 -5.461325e+001 1.990331e+003
      vertex  1.612082e+003 -5.378468e+001 1.968617e+003
    endloop
  endfacet
  facet normal 1.066307e-001 -8.005874e-001 -5.896522e-001
    outer loop
      vertex  1.708811e+003 -4.345310e+001 1.972082e+003
      vertex  1.612082e+003 -5.378468e+001 1.968617e+003
      vertex  1.647539e+003 -3.166416e+001 1.944995e+003
    endloop
  endfacet
  facet normal 1.214491e-001 -7.798057e-001 -6.141281e-001
    outer loop
      vertex  1.715810e+003 -1.296457e+001 1.934752e+003
      vertex  1.708811e+003 -4.345310e+001 1.972082e+003
      vertex  1.647539e+003 -3.166416e+001 1.944995e+003
    endloop
  endfacet
  facet normal 1.117432e-001 -9.880132e-001 -1.065052e-001
    outer loop
      vertex  1.625452e+003 -5.461325e+001 1.990331e+003
      vertex  1.534528e+003 -6.279354e+001 1.970821e+003
      vertex  1.612082e+003 -5.378468e+001 1.968617e+003
    endloop
  endfacet
  facet normal 8.846042e-002 -8.770518e-001 -4.721811e-001
    outer loop
      vertex  1.534528e+003 -6.279354e+001 1.970821e+003
      vertex  1.533429e+003 -4.579437e+001 1.939040e+003
      vertex  1.612082e+003 -5.378468e+001 1.968617e+003
    endloop
  endfacet
  facet normal 1.303261e-001 -8.137519e-001 -5.664123e-001
    outer loop
      vertex  1.612082e+003 -5.378468e+001 1.968617e+003
      vertex  1.533429e+003 -4.579437e+001 1.939040e+003
      vertex  1.647539e+003 -3.166416e+001 1.944995e+003
    endloop
  endfacet
  facet normal 1.060642e-001 -4.924780e-001 -8.638378e-001
    outer loop
      vertex  1.647539e+003 -3.166416e+001 1.944995e+003
      vertex  1.533429e+003 -4.579437e+001 1.939040e+003
      vertex  1.533010e+003 -1.818973e+001 1.923251e+003
    endloop
  endfacet
  facet normal 1.318422e-001 -9.419201e-002 -9.867854e-001
    outer loop
      vertex  1.621876e+003 6.321158e+000 1.932785e+003
      vertex  1.533010e+003 -1.818973e+001 1.923251e+003
      vertex  1.532949e+003 6.240091e+000 1.920911e+003
    endloop
  endfacet
  facet normal 1.224571e-001 3.730697e-001 -9.196865e-001
    outer loop
      vertex  1.621876e+003 6.321158e+000 1.932785e+003
      vertex  1.532949e+003 6.240091e+000 1.920911e+003
      vertex  1.533417e+003 4.547003e+001 1.936887e+003
    endloop
  endfacet
  facet normal 9.786181e-002 9.091853e-001 -4.047285e-001
    outer loop
      vertex  1.534651e+003 6.580066e+001 1.982857e+003
      vertex  1.619343e+003 4.519342e+001 1.957042e+003
      vertex  1.533417e+003 4.547003e+001 1.936887e+003
    endloop
  endfacet
  facet normal 1.678432e-001 9.616338e-001 -2.170001e-001
    outer loop
      vertex  1.657360e+003 4.472730e+001 1.984382e+003
      vertex  1.619343e+003 4.519342e+001 1.957042e+003
      vertex  1.534651e+003 6.580066e+001 1.982857e+003
    endloop
  endfacet
  facet normal 1.612258e-001 7.176433e-001 -6.774912e-001
    outer loop
      vertex  1.533417e+003 4.547003e+001 1.936887e+003
      vertex  1.619343e+003 4.519342e+001 1.957042e+003
      vertex  1.643450e+003 2.648140e+001 1.942958e+003
    endloop
  endfacet
  facet normal 1.595722e-001 -2.027599e-001 -9.661393e-001
    outer loop
      vertex  1.621876e+003 6.321158e+000 1.932785e+003
      vertex  1.647539e+003 -3.166416e+001 1.944995e+003
      vertex  1.533010e+003 -1.818973e+001 1.923251e+003
    endloop
  endfacet
  facet normal -6.034761e-001 -5.584037e-001 -5.692115e-001
    outer loop
      vertex  1.708811e+003 -4.345310e+001 1.972082e+003
      vertex  1.715810e+003 -1.296457e+001 1.934752e+003
      vertex  1.730821e+003 -5.126907e+001 1.956415e+003
    endloop
  endfacet
  facet normal -1.139718e-001 -4.548171e-001 -8.832620e-001
    outer loop
      vertex  1.715810e+003 -1.296457e+001 1.934752e+003
      vertex  1.765390e+003 -1.076620e+001 1.927223e+003
      vertex  1.763270e+003 -5.048412e+001 1.947948e+003
    endloop
  endfacet
  facet normal 9.962037e-001 -8.108423e-003 -8.667450e-002
    outer loop
      vertex  1.801662e+003 -8.301693e+000 1.958405e+003
      vertex  1.800523e+003 2.598297e+001 1.942107e+003
      vertex  1.804979e+003 -1.269826e+001 1.996939e+003
    endloop
  endfacet
  facet normal 8.827955e-001 -4.521040e-001 -1.275702e-001
    outer loop
      vertex  1.801662e+003 -8.301693e+000 1.958405e+003
      vertex  1.804979e+003 -1.269826e+001 1.996939e+003
      vertex  1.776815e+003 -5.921505e+001 1.966897e+003
    endloop
  endfacet
  facet normal 6.364459e-001 -4.186571e-001 -6.478139e-001
    outer loop
      vertex  1.801662e+003 -8.301693e+000 1.958405e+003
      vertex  1.776815e+003 -5.921505e+001 1.966897e+003
      vertex  1.763270e+003 -5.048412e+001 1.947948e+003
    endloop
  endfacet
  facet normal 6.153150e-001 -3.902282e-001 -6.849157e-001
    outer loop
      vertex  1.765390e+003 -1.076620e+001 1.927223e+003
      vertex  1.801662e+003 -8.301693e+000 1.958405e+003
      vertex  1.763270e+003 -5.048412e+001 1.947948e+003
    endloop
  endfacet
  facet normal 8.685771e-001 -4.929183e-001 -5.104418e-002
    outer loop
      vertex  1.776815e+003 -5.921505e+001 1.966897e+003
      vertex  1.804979e+003 -1.269826e+001 1.996939e+003
      vertex  1.778461e+003 -5.947950e+001 1.997470e+003
    endloop
  endfacet
  facet normal -2.001343e-001 -5.405589e-001 -8.171551e-001
    outer loop
      vertex  1.763270e+003 -5.048412e+001 1.947948e+003
      vertex  1.730821e+003 -5.126907e+001 1.956415e+003
      vertex  1.715810e+003 -1.296457e+001 1.934752e+003
    endloop
  endfacet
  facet normal -6.481948e-001 -1.040295e-002 -7.614035e-001
    outer loop
      vertex  1.707983e+003 4.449826e+001 1.904667e+003
      vertex  1.705742e+003 2.702119e+001 1.906814e+003
      vertex  1.671816e+003 4.449397e+001 1.935457e+003
    endloop
  endfacet
  facet normal -3.633667e-001 1.926080e-001 -9.115189e-001
    outer loop
      vertex  1.643450e+003 2.648140e+001 1.942958e+003
      vertex  1.671816e+003 4.449397e+001 1.935457e+003
      vertex  1.674955e+003 2.640402e+001 1.930383e+003
    endloop
  endfacet
  facet normal -3.699895e-001 2.053082e-001 -9.060664e-001
    outer loop
      vertex  1.643450e+003 2.648140e+001 1.942958e+003
      vertex  1.619343e+003 4.519342e+001 1.957042e+003
      vertex  1.671816e+003 4.449397e+001 1.935457e+003
    endloop
  endfacet
  facet normal -6.052437e-001 1.158732e-001 -7.875618e-001
    outer loop
      vertex  1.674955e+003 2.640402e+001 1.930383e+003
      vertex  1.671816e+003 4.449397e+001 1.935457e+003
      vertex  1.705742e+003 2.702119e+001 1.906814e+003
    endloop
  endfacet
  facet normal 1.208066e-001 7.856831e-001 6.067189e-001
    outer loop
      vertex  1.790241e+003 3.450000e+001 1.943759e+003
      vertex  1.712351e+003 4.449716e+001 1.946322e+003
      vertex  1.697394e+003 3.449772e+001 1.962249e+003
    endloop
  endfacet
  facet normal -8.186770e-001 -5.605090e-001 1.248905e-001
    outer loop
      vertex  1.790241e+003 3.450000e+001 1.943759e+003
      vertex  1.794231e+003 4.449666e+001 2.014784e+003
      vertex  1.782977e+003 4.450000e+001 1.941023e+003
    endloop
  endfacet
  facet normal -8.011849e-002 -5.896723e-001 -8.036588e-001
    outer loop
      vertex  1.786024e+003 3.449998e+001 2.022937e+003
      vertex  1.710143e+003 4.449730e+001 2.023167e+003
      vertex  1.794231e+003 4.449666e+001 2.014784e+003
    endloop
  endfacet
  facet normal 5.676565e-001 -8.231038e-001 1.631225e-002
    outer loop
      vertex  1.697394e+003 3.449772e+001 1.962249e+003
      vertex  1.712351e+003 4.449716e+001 1.946322e+003
      vertex  1.710143e+003 4.449730e+001 2.023167e+003
    endloop
  endfacet
  facet normal -6.009596e-001 7.985876e-001 3.324825e-002
    outer loop
      vertex  1.719598e+003 -6.100861e+001 1.987502e+003
      vertex  1.734131e+003 -5.120294e+001 2.014660e+003
      vertex  1.730821e+003 -5.126907e+001 1.956415e+003
    endloop
  endfacet
  facet normal -9.342362e-001 3.520079e-001 -5.738554e-002
    outer loop
      vertex  1.504517e+003 9.819535e+001 2.012577e+003
      vertex  1.508004e+003 1.009651e+002 1.972799e+003
      vertex  1.504507e+003 8.367269e+001 1.923656e+003
    endloop
  endfacet
  facet normal 8.253693e-001 -9.054484e-002 5.572855e-001
    outer loop
      vertex  1.494500e+003 3.830155e+000 2.038376e+003
      vertex  1.504502e+003 -4.830570e+001 2.015091e+003
      vertex  1.504503e+003 3.287487e+001 2.028279e+003
    endloop
  endfacet
  facet normal 8.011278e-001 -5.594841e-001 -2.125365e-001
    outer loop
      vertex  1.494500e+003 -3.602495e+001 1.945063e+003
      vertex  1.504502e+003 -1.602668e+001 1.930119e+003
      vertex  1.504502e+003 -4.830570e+001 2.015091e+003
    endloop
  endfacet
  facet normal 7.350413e-001 2.904227e-001 -6.126736e-001
    outer loop
      vertex  1.494500e+003 2.828694e+001 1.939125e+003
      vertex  1.504502e+003 4.657857e+001 1.959796e+003
      vertex  1.504502e+003 -1.602668e+001 1.930119e+003
    endloop
  endfacet
  facet normal 7.422281e-001 6.571218e-001 1.314856e-001
    outer loop
      vertex  1.494500e+003 5.128382e+001 1.992744e+003
      vertex  1.504503e+003 3.287487e+001 2.028279e+003
      vertex  1.504502e+003 4.657857e+001 1.959796e+003
    endloop
  endfacet
  facet normal 3.706523e-001 9.237123e-001 9.681165e-002
    outer loop
      vertex  1.534577e+003 8.581055e+001 2.015657e+003
      vertex  1.508004e+003 1.009651e+002 1.972799e+003
      vertex  1.504517e+003 9.819535e+001 2.012577e+003
    endloop
  endfacet
  facet normal 3.067850e-001 8.507534e-001 4.267337e-001
    outer loop
      vertex  1.504517e+003 9.819535e+001 2.012577e+003
      vertex  1.504500e+003 8.031316e+001 2.048240e+003
      vertex  1.534577e+003 8.581055e+001 2.015657e+003
    endloop
  endfacet
  facet normal 4.158098e-001 7.524596e-001 5.107902e-001
    outer loop
      vertex  1.504500e+003 8.031316e+001 2.048240e+003
      vertex  1.532885e+003 6.376341e+001 2.049513e+003
      vertex  1.534577e+003 8.581055e+001 2.015657e+003
    endloop
  endfacet
  facet normal 3.026859e-001 5.723430e-001 7.621055e-001
    outer loop
      vertex  1.504705e+003 3.849516e+001 2.079682e+003
      vertex  1.532512e+003 4.502604e+001 2.063733e+003
      vertex  1.532885e+003 6.376341e+001 2.049513e+003
    endloop
  endfacet
  facet normal 2.177584e-001 1.163311e-001 9.690450e-001
    outer loop
      vertex  1.504705e+003 3.849516e+001 2.079682e+003
      vertex  1.504505e+003 -1.322844e+001 2.085936e+003
      vertex  1.532172e+003 1.484873e-002 2.078129e+003
    endloop
  endfacet
  facet normal 4.298711e-001 2.721047e-001 8.609123e-001
    outer loop
      vertex  1.504705e+003 3.849516e+001 2.079682e+003
      vertex  1.532172e+003 1.484873e-002 2.078129e+003
      vertex  1.532512e+003 4.502604e+001 2.063733e+003
    endloop
  endfacet
  facet normal 3.495301e-001 -2.828536e-001 8.932092e-001
    outer loop
      vertex  1.504503e+003 -5.037984e+001 2.072998e+003
      vertex  1.532512e+003 -4.502604e+001 2.063733e+003
      vertex  1.532172e+003 1.484873e-002 2.078129e+003
    endloop
  endfacet
  facet normal 3.887317e-001 -5.934768e-001 7.047503e-001
    outer loop
      vertex  1.504503e+003 -5.037984e+001 2.072998e+003
      vertex  1.504564e+003 -8.151300e+001 2.046747e+003
      vertex  1.533398e+003 -8.102779e+001 2.031251e+003
    endloop
  endfacet
  facet normal 1.913854e-001 -9.253905e-001 3.271454e-001
    outer loop
      vertex  1.504564e+003 -8.151300e+001 2.046747e+003
      vertex  1.504510e+003 -1.046610e+002 1.981300e+003
      vertex  1.533398e+003 -8.102779e+001 2.031251e+003
    endloop
  endfacet
  facet normal 5.047317e-001 -8.558463e-001 1.130174e-001
    outer loop
      vertex  1.504510e+003 -1.046610e+002 1.981300e+003
      vertex  1.534217e+003 -8.973788e+001 1.961634e+003
      vertex  1.533398e+003 -8.102779e+001 2.031251e+003
    endloop
  endfacet
  facet normal 2.118538e-001 -9.056822e-001 -3.672298e-001
    outer loop
      vertex  1.504510e+003 -1.046610e+002 1.981300e+003
      vertex  1.504633e+003 -7.937531e+001 1.919010e+003
      vertex  1.534217e+003 -8.973788e+001 1.961634e+003
    endloop
  endfacet
  facet normal 4.180347e-001 -7.725266e-001 -4.779641e-001
    outer loop
      vertex  1.504633e+003 -7.937531e+001 1.919010e+003
      vertex  1.532885e+003 -6.376351e+001 1.918487e+003
      vertex  1.534217e+003 -8.973788e+001 1.961634e+003
    endloop
  endfacet
  facet normal 3.077450e-001 -5.712997e-001 -7.608612e-001
    outer loop
      vertex  1.504621e+003 -3.890505e+001 1.888390e+003
      vertex  1.532512e+003 -4.502604e+001 1.904267e+003
      vertex  1.532885e+003 -6.376351e+001 1.918487e+003
    endloop
  endfacet
  facet normal 2.174179e-001 -1.171129e-001 -9.690273e-001
    outer loop
      vertex  1.504621e+003 -3.890505e+001 1.888390e+003
      vertex  1.504506e+003 1.323004e+001 1.882063e+003
      vertex  1.532175e+003 -9.417124e-004 1.889870e+003
    endloop
  endfacet
  facet normal 4.302838e-001 -2.720017e-001 -8.607386e-001
    outer loop
      vertex  1.504621e+003 -3.890505e+001 1.888390e+003
      vertex  1.532175e+003 -9.417124e-004 1.889870e+003
      vertex  1.532512e+003 -4.502604e+001 1.904267e+003
    endloop
  endfacet
  facet normal 3.693604e-001 6.188639e-001 -6.932390e-001
    outer loop
      vertex  1.532415e+003 4.514318e+001 1.904130e+003
      vertex  1.504507e+003 8.367269e+001 1.923656e+003
      vertex  1.533391e+003 8.079800e+001 1.936480e+003
    endloop
  endfacet
  facet normal 2.403639e-001 9.101671e-001 -3.373737e-001
    outer loop
      vertex  1.504507e+003 8.367269e+001 1.923656e+003
      vertex  1.508004e+003 1.009651e+002 1.972799e+003
      vertex  1.533391e+003 8.079800e+001 1.936480e+003
    endloop
  endfacet
  facet normal 9.989643e-001 -3.780898e-002 2.531460e-002
    outer loop
      vertex  1.534577e+003 8.581055e+001 2.015657e+003
      vertex  1.532885e+003 6.376341e+001 2.049513e+003
      vertex  1.534651e+003 6.580066e+001 1.982857e+003
    endloop
  endfacet
  facet normal 9.996511e-001 1.421945e-004 2.641223e-002
    outer loop
      vertex  1.532885e+003 6.376341e+001 2.049513e+003
      vertex  1.532512e+003 4.502604e+001 2.063733e+003
      vertex  1.533762e+003 5.544074e+001 2.016358e+003
    endloop
  endfacet
  facet normal 9.996492e-001 -1.436803e-004 2.648394e-002
    outer loop
      vertex  1.532885e+003 6.376341e+001 2.049513e+003
      vertex  1.533762e+003 5.544074e+001 2.016358e+003
      vertex  1.534651e+003 6.580066e+001 1.982857e+003
    endloop
  endfacet
  facet normal 9.996590e-001 8.078507e-004 2.609921e-002
    outer loop
      vertex  1.532512e+003 4.502604e+001 2.063733e+003
      vertex  1.532172e+003 1.484873e-002 2.078129e+003
      vertex  1.533159e+003 3.272575e+001 2.039319e+003
    endloop
  endfacet
  facet normal 9.996510e-001 1.727996e-004 2.641895e-002
    outer loop
      vertex  1.532512e+003 4.502604e+001 2.063733e+003
      vertex  1.533159e+003 3.272575e+001 2.039319e+003
      vertex  1.533762e+003 5.544074e+001 2.016358e+003
    endloop
  endfacet
  facet normal 9.996806e-001 -1.742180e-004 2.527202e-002
    outer loop
      vertex  1.533159e+003 3.272575e+001 2.039319e+003
      vertex  1.532172e+003 1.484873e-002 2.078129e+003
      vertex  1.532933e+003 -6.321161e+000 2.047983e+003
    endloop
  endfacet
  facet normal 9.996835e-001 3.830513e-004 2.515497e-002
    outer loop
      vertex  1.532933e+003 -6.321161e+000 2.047983e+003
      vertex  1.532172e+003 1.484873e-002 2.078129e+003
      vertex  1.533219e+003 -3.509550e+001 2.037079e+003
    endloop
  endfacet
  facet normal 9.996564e-001 -8.395452e-004 2.619998e-002
    outer loop
      vertex  1.533219e+003 -3.509550e+001 2.037079e+003
      vertex  1.532172e+003 1.484873e-002 2.078129e+003
      vertex  1.532512e+003 -4.502604e+001 2.063733e+003
    endloop
  endfacet
  facet normal 9.996538e-001 -5.525859e-004 2.630682e-002
    outer loop
      vertex  1.533219e+003 -3.509550e+001 2.037079e+003
      vertex  1.532512e+003 -4.502604e+001 2.063733e+003
      vertex  1.533870e+003 -5.721413e+001 2.011886e+003
    endloop
  endfacet
  facet normal 9.998395e-001 -6.079692e-003 1.685196e-002
    outer loop
      vertex  1.533870e+003 -5.721413e+001 2.011886e+003
      vertex  1.533398e+003 -8.102779e+001 2.031251e+003
      vertex  1.534528e+003 -6.279354e+001 1.970821e+003
    endloop
  endfacet
  facet normal 9.996642e-001 1.265064e-003 2.587981e-002
    outer loop
      vertex  1.533398e+003 -8.102779e+001 2.031251e+003
      vertex  1.533870e+003 -5.721413e+001 2.011886e+003
      vertex  1.532512e+003 -4.502604e+001 2.063733e+003
    endloop
  endfacet
  facet normal 9.997733e-001 -1.622044e-002 1.379081e-002
    outer loop
      vertex  1.534528e+003 -6.279354e+001 1.970821e+003
      vertex  1.533398e+003 -8.102779e+001 2.031251e+003
      vertex  1.534217e+003 -8.973788e+001 1.961634e+003
    endloop
  endfacet
  facet normal 1.410208e-001 3.732520e-001 9.169493e-001
    outer loop
      vertex  1.533159e+003 3.272575e+001 2.039319e+003
      vertex  1.627485e+003 8.576011e+000 2.034643e+003
      vertex  1.648087e+003 2.633377e+001 2.024246e+003
    endloop
  endfacet
  facet normal 1.309391e-001 7.009012e-001 7.011365e-001
    outer loop
      vertex  1.533159e+003 3.272575e+001 2.039319e+003
      vertex  1.648087e+003 2.633377e+001 2.024246e+003
      vertex  1.618073e+003 4.574170e+001 2.010450e+003
    endloop
  endfacet
  facet normal 1.168069e-001 -9.151262e-001 3.858759e-001
    outer loop
      vertex  1.625452e+003 -5.461325e+001 1.990331e+003
      vertex  1.650432e+003 -4.325840e+001 2.009699e+003
      vertex  1.533870e+003 -5.721413e+001 2.011886e+003
    endloop
  endfacet
  facet normal 1.002326e-001 -9.093184e-001 4.038482e-001
    outer loop
      vertex  1.705969e+003 -4.122860e+001 2.000485e+003
      vertex  1.650432e+003 -4.325840e+001 2.009699e+003
      vertex  1.625452e+003 -5.461325e+001 1.990331e+003
    endloop
  endfacet
  facet normal 8.908364e-001 2.625186e-001 3.708025e-001
    outer loop
      vertex  1.815853e+003 4.450001e+001 2.045866e+003
      vertex  1.832671e+003 2.590598e+001 2.018623e+003
      vertex  1.841555e+003 4.450333e+001 1.984114e+003
    endloop
  endfacet
  facet normal -1.453106e-004 1.000000e+000 -6.676409e-006
    outer loop
      vertex  1.815853e+003 4.450001e+001 2.045866e+003
      vertex  1.841555e+003 4.450333e+001 1.984114e+003
      vertex  1.794231e+003 4.449666e+001 2.014784e+003
    endloop
  endfacet
  facet normal 7.865713e-001 -1.616732e-001 5.959592e-001
    outer loop
      vertex  1.815853e+003 4.450001e+001 2.045866e+003
      vertex  1.805141e+003 2.686664e+001 2.055219e+003
      vertex  1.832671e+003 2.590598e+001 2.018623e+003
    endloop
  endfacet
  facet normal 4.208946e-001 2.121497e-001 8.819525e-001
    outer loop
      vertex  1.805141e+003 2.686664e+001 2.055219e+003
      vertex  1.815853e+003 4.450001e+001 2.045866e+003
      vertex  1.759256e+003 3.927747e+001 2.074131e+003
    endloop
  endfacet
  facet normal 2.186998e-002 9.997432e-001 -5.943300e-003
    outer loop
      vertex  1.665212e+003 4.481422e+001 2.027898e+003
      vertex  1.657360e+003 4.472730e+001 1.984382e+003
      vertex  1.618073e+003 4.574170e+001 2.010450e+003
    endloop
  endfacet
  facet normal 7.054151e-002 -7.468438e-001 6.612476e-001
    outer loop
      vertex  1.805141e+003 2.686664e+001 2.055219e+003
      vertex  1.759256e+003 3.927747e+001 2.074131e+003
      vertex  1.711464e+003 2.713566e+001 2.065516e+003
    endloop
  endfacet
  facet normal 4.400989e-004 -9.995463e-001 3.011755e-002
    outer loop
      vertex  1.739841e+003 2.638439e+001 2.040168e+003
      vertex  1.805141e+003 2.686664e+001 2.055219e+003
      vertex  1.711464e+003 2.713566e+001 2.065516e+003
    endloop
  endfacet
  facet normal 1.353109e-003 -9.996569e-001 2.615981e-002
    outer loop
      vertex  1.805141e+003 2.686664e+001 2.055219e+003
      vertex  1.739841e+003 2.638439e+001 2.040168e+003
      vertex  1.798554e+003 2.600187e+001 2.022514e+003
    endloop
  endfacet
  facet normal -3.843418e-003 -9.996719e-001 2.532588e-002
    outer loop
      vertex  1.648087e+003 2.633377e+001 2.024246e+003
      vertex  1.739841e+003 2.638439e+001 2.040168e+003
      vertex  1.711464e+003 2.713566e+001 2.065516e+003
    endloop
  endfacet
  facet normal -1.709558e-001 1.979036e-002 9.850799e-001
    outer loop
      vertex  1.648087e+003 2.633377e+001 2.024246e+003
      vertex  1.707891e+003 5.167763e+000 2.035050e+003
      vertex  1.739841e+003 2.638439e+001 2.040168e+003
    endloop
  endfacet
  facet normal 1.999945e-004 -9.996517e-001 2.639195e-002
    outer loop
      vertex  1.798554e+003 2.600187e+001 2.022514e+003
      vertex  1.832671e+003 2.590598e+001 2.018623e+003
      vertex  1.805141e+003 2.686664e+001 2.055219e+003
    endloop
  endfacet
  facet normal -1.803652e-002 -9.998373e-001 -2.066640e-004
    outer loop
      vertex  1.800523e+003 2.598297e+001 1.942107e+003
      vertex  1.839269e+003 2.527896e+001 1.966594e+003
      vertex  1.798554e+003 2.600187e+001 2.022514e+003
    endloop
  endfacet
  facet normal -1.457388e-003 -9.999285e-001 1.186572e-002
    outer loop
      vertex  1.832671e+003 2.590598e+001 2.018623e+003
      vertex  1.798554e+003 2.600187e+001 2.022514e+003
      vertex  1.839269e+003 2.527896e+001 1.966594e+003
    endloop
  endfacet
  facet normal -3.017734e-001 -6.434081e-003 -9.533580e-001
    outer loop
      vertex  1.715810e+003 -1.296457e+001 1.934752e+003
      vertex  1.696309e+003 2.442036e+001 1.940672e+003
      vertex  1.737480e+003 2.654004e+001 1.927626e+003
    endloop
  endfacet
  facet normal 9.993600e-001 3.149288e-002 -1.696209e-002
    outer loop
      vertex  1.534577e+003 8.581055e+001 2.015657e+003
      vertex  1.534651e+003 6.580066e+001 1.982857e+003
      vertex  1.533391e+003 8.079800e+001 1.936480e+003
    endloop
  endfacet
  facet normal 5.663550e-001 8.219365e-001 -6.051787e-002
    outer loop
      vertex  1.534577e+003 8.581055e+001 2.015657e+003
      vertex  1.533391e+003 8.079800e+001 1.936480e+003
      vertex  1.508004e+003 1.009651e+002 1.972799e+003
    endloop
  endfacet
  facet normal 9.996347e-001 4.066836e-004 -2.702218e-002
    outer loop
      vertex  1.533391e+003 8.079800e+001 1.936480e+003
      vertex  1.534651e+003 6.580066e+001 1.982857e+003
      vertex  1.533417e+003 4.547003e+001 1.936887e+003
    endloop
  endfacet
  facet normal 9.995326e-001 3.656885e-004 -3.056905e-002
    outer loop
      vertex  1.533391e+003 8.079800e+001 1.936480e+003
      vertex  1.533417e+003 4.547003e+001 1.936887e+003
      vertex  1.532415e+003 4.514318e+001 1.904130e+003
    endloop
  endfacet
  facet normal 9.995219e-001 4.360086e-003 -3.060858e-002
    outer loop
      vertex  1.532415e+003 4.514318e+001 1.904130e+003
      vertex  1.533417e+003 4.547003e+001 1.936887e+003
      vertex  1.532175e+003 -9.417124e-004 1.889870e+003
    endloop
  endfacet
  facet normal 9.996970e-001 -1.921079e-003 -2.453856e-002
    outer loop
      vertex  1.532949e+003 6.240091e+000 1.920911e+003
      vertex  1.532175e+003 -9.417124e-004 1.889870e+003
      vertex  1.533417e+003 4.547003e+001 1.936887e+003
    endloop
  endfacet
  facet normal 9.996889e-001 7.876429e-005 -2.494044e-002
    outer loop
      vertex  1.532175e+003 -9.417124e-004 1.889870e+003
      vertex  1.532949e+003 6.240091e+000 1.920911e+003
      vertex  1.533010e+003 -1.818973e+001 1.923251e+003
    endloop
  endfacet
  facet normal 9.996512e-001 -9.670539e-004 -2.639318e-002
    outer loop
      vertex  1.532175e+003 -9.417124e-004 1.889870e+003
      vertex  1.533429e+003 -4.579437e+001 1.939040e+003
      vertex  1.532512e+003 -4.502604e+001 1.904267e+003
    endloop
  endfacet
  facet normal 9.997047e-001 1.320100e-003 -2.426445e-002
    outer loop
      vertex  1.533010e+003 -1.818973e+001 1.923251e+003
      vertex  1.533429e+003 -4.579437e+001 1.939040e+003
      vertex  1.532175e+003 -9.417124e-004 1.889870e+003
    endloop
  endfacet
  facet normal 9.995342e-001 1.595253e-002 -2.601625e-002
    outer loop
      vertex  1.532512e+003 -4.502604e+001 1.904267e+003
      vertex  1.533429e+003 -4.579437e+001 1.939040e+003
      vertex  1.534528e+003 -6.279354e+001 1.970821e+003
    endloop
  endfacet
  facet normal 9.995025e-001 -3.857642e-003 -3.130386e-002
    outer loop
      vertex  1.532512e+003 -4.502604e+001 1.904267e+003
      vertex  1.534528e+003 -6.279354e+001 1.970821e+003
      vertex  1.532885e+003 -6.376351e+001 1.918487e+003
    endloop
  endfacet
  facet normal 9.995078e-001 -8.227575e-004 -3.136027e-002
    outer loop
      vertex  1.534217e+003 -8.973788e+001 1.961634e+003
      vertex  1.532885e+003 -6.376351e+001 1.918487e+003
      vertex  1.534528e+003 -6.279354e+001 1.970821e+003
    endloop
  endfacet
  facet normal 5.871870e-002 1.859486e-001 -9.808034e-001
    outer loop
      vertex  1.696309e+003 2.442036e+001 1.940672e+003
      vertex  1.715810e+003 -1.296457e+001 1.934752e+003
      vertex  1.621876e+003 6.321158e+000 1.932785e+003
    endloop
  endfacet
  facet normal -2.542342e-001 -8.573518e-002 -9.633350e-001
    outer loop
      vertex  1.707983e+003 4.449826e+001 1.904667e+003
      vertex  1.760903e+003 2.739618e+001 1.892223e+003
      vertex  1.705742e+003 2.702119e+001 1.906814e+003
    endloop
  endfacet
  facet normal -1.953583e-001 1.050031e-001 -9.750946e-001
    outer loop
      vertex  1.761134e+003 4.450365e+001 1.894019e+003
      vertex  1.760903e+003 2.739618e+001 1.892223e+003
      vertex  1.707983e+003 4.449826e+001 1.904667e+003
    endloop
  endfacet
  facet normal 4.773259e-001 -9.884961e-002 -8.731487e-001
    outer loop
      vertex  1.812693e+003 2.665974e+001 1.920618e+003
      vertex  1.760903e+003 2.739618e+001 1.892223e+003
      vertex  1.814160e+003 4.450033e+001 1.919401e+003
    endloop
  endfacet
  facet normal 4.300596e-001 8.852659e-002 -8.984497e-001
    outer loop
      vertex  1.761134e+003 4.450365e+001 1.894019e+003
      vertex  1.814160e+003 4.450033e+001 1.919401e+003
      vertex  1.760903e+003 2.739618e+001 1.892223e+003
    endloop
  endfacet
  facet normal 8.596254e-001 -1.048477e-001 -5.000511e-001
    outer loop
      vertex  1.814160e+003 4.450033e+001 1.919401e+003
      vertex  1.839269e+003 2.527896e+001 1.966594e+003
      vertex  1.812693e+003 2.665974e+001 1.920618e+003
    endloop
  endfacet
  facet normal 8.942729e-001 2.386408e-001 -3.785849e-001
    outer loop
      vertex  1.841555e+003 4.450333e+001 1.984114e+003
      vertex  1.839269e+003 2.527896e+001 1.966594e+003
      vertex  1.814160e+003 4.450033e+001 1.919401e+003
    endloop
  endfacet
  facet normal -3.303277e-005 1.000000e+000 -3.246741e-005
    outer loop
      vertex  1.841555e+003 4.450333e+001 1.984114e+003
      vertex  1.814160e+003 4.450033e+001 1.919401e+003
      vertex  1.782977e+003 4.450000e+001 1.941023e+003
    endloop
  endfacet
  facet normal 1.293976e-002 9.999158e-001 -9.452789e-004
    outer loop
      vertex  1.657360e+003 4.472730e+001 1.984382e+003
      vertex  1.671816e+003 4.449397e+001 1.935457e+003
      vertex  1.619343e+003 4.519342e+001 1.957042e+003
    endloop
  endfacet
  facet normal -5.053107e-002 -9.482353e-001 -3.135225e-001
    outer loop
      vertex  1.696309e+003 2.442036e+001 1.940672e+003
      vertex  1.643450e+003 2.648140e+001 1.942958e+003
      vertex  1.737480e+003 2.654004e+001 1.927626e+003
    endloop
  endfacet
  facet normal 1.611401e-007 -9.996573e-001 -2.617640e-002
    outer loop
      vertex  1.674955e+003 2.640402e+001 1.930383e+003
      vertex  1.705742e+003 2.702119e+001 1.906814e+003
      vertex  1.812693e+003 2.665974e+001 1.920618e+003
    endloop
  endfacet
  facet normal 2.699958e-003 -9.999256e-001 1.189873e-002
    outer loop
      vertex  1.674955e+003 2.640402e+001 1.930383e+003
      vertex  1.812693e+003 2.665974e+001 1.920618e+003
      vertex  1.737480e+003 2.654004e+001 1.927626e+003
    endloop
  endfacet
  facet normal 2.750386e-003 -9.999111e-001 1.304304e-002
    outer loop
      vertex  1.674955e+003 2.640402e+001 1.930383e+003
      vertex  1.737480e+003 2.654004e+001 1.927626e+003
      vertex  1.643450e+003 2.648140e+001 1.942958e+003
    endloop
  endfacet
  facet normal -1.416982e-003 -9.994779e-001 -3.227986e-002
    outer loop
      vertex  1.737480e+003 2.654004e+001 1.927626e+003
      vertex  1.812693e+003 2.665974e+001 1.920618e+003
      vertex  1.800523e+003 2.598297e+001 1.942107e+003
    endloop
  endfacet
  facet normal -4.198412e-005 -9.996659e-001 -2.585009e-002
    outer loop
      vertex  1.812693e+003 2.665974e+001 1.920618e+003
      vertex  1.705742e+003 2.702119e+001 1.906814e+003
      vertex  1.760903e+003 2.739618e+001 1.892223e+003
    endloop
  endfacet
  facet normal 1.276195e-003 -9.995261e-001 -3.075615e-002
    outer loop
      vertex  1.800523e+003 2.598297e+001 1.942107e+003
      vertex  1.812693e+003 2.665974e+001 1.920618e+003
      vertex  1.839269e+003 2.527896e+001 1.966594e+003
    endloop
  endfacet
  facet normal -3.490065e-005 1.000000e+000 4.321278e-005
    outer loop
      vertex  1.815853e+003 4.450001e+001 2.045866e+003
      vertex  1.710143e+003 4.449730e+001 2.023167e+003
      vertex  1.702289e+003 4.449543e+001 2.060079e+003
    endloop
  endfacet
  facet normal -2.918348e-006 1.000000e+000 -1.057289e-004
    outer loop
      vertex  1.710143e+003 4.449730e+001 2.023167e+003
      vertex  1.815853e+003 4.450001e+001 2.045866e+003
      vertex  1.794231e+003 4.449666e+001 2.014784e+003
    endloop
  endfacet
  facet normal -1.016077e-004 1.000000e+000 6.075594e-005
    outer loop
      vertex  1.794231e+003 4.449666e+001 2.014784e+003
      vertex  1.841555e+003 4.450333e+001 1.984114e+003
      vertex  1.782977e+003 4.450000e+001 1.941023e+003
    endloop
  endfacet
  facet normal -1.800986e-005 1.000000e+000 -1.080136e-005
    outer loop
      vertex  1.814160e+003 4.450033e+001 1.919401e+003
      vertex  1.707983e+003 4.449826e+001 1.904667e+003
      vertex  1.782977e+003 4.450000e+001 1.941023e+003
    endloop
  endfacet
  facet normal -8.829559e-005 1.000000e+000 3.554139e-005
    outer loop
      vertex  1.671816e+003 4.449397e+001 1.935457e+003
      vertex  1.712351e+003 4.449716e+001 1.946322e+003
      vertex  1.707983e+003 4.449826e+001 1.904667e+003
    endloop
  endfacet
  facet normal -3.791550e-005 1.000000e+000 3.025859e-005
    outer loop
      vertex  1.782977e+003 4.450000e+001 1.941023e+003
      vertex  1.707983e+003 4.449826e+001 1.904667e+003
      vertex  1.712351e+003 4.449716e+001 1.946322e+003
    endloop
  endfacet
  facet normal -5.305528e-005 9.999999e-001 2.417448e-004
    outer loop
      vertex  1.814160e+003 4.450033e+001 1.919401e+003
      vertex  1.761134e+003 4.450365e+001 1.894019e+003
      vertex  1.707983e+003 4.449826e+001 1.904667e+003
    endloop
  endfacet
  facet normal -1.364392e-004 1.000000e+000 2.160847e-005
    outer loop
      vertex  1.702289e+003 4.449543e+001 2.060079e+003
      vertex  1.710143e+003 4.449730e+001 2.023167e+003
      vertex  1.671816e+003 4.449397e+001 1.935457e+003
    endloop
  endfacet
  facet normal -7.767808e-005 1.000000e+000 -4.068706e-006
    outer loop
      vertex  1.712351e+003 4.449716e+001 1.946322e+003
      vertex  1.671816e+003 4.449397e+001 1.935457e+003
      vertex  1.710143e+003 4.449730e+001 2.023167e+003
    endloop
  endfacet
  facet normal 2.989693e-002 9.705146e-001 2.391812e-001
    outer loop
      vertex  1.815853e+003 4.450001e+001 2.045866e+003
      vertex  1.702289e+003 4.449543e+001 2.060079e+003
      vertex  1.759256e+003 3.927747e+001 2.074131e+003
    endloop
  endfacet
  facet normal -1.092662e-002 -9.999367e-001 2.683580e-003
    outer loop
      vertex  1.671816e+003 4.449397e+001 1.935457e+003
      vertex  1.702289e+003 4.449543e+001 2.060079e+003
      vertex  1.665212e+003 4.481422e+001 2.027898e+003
    endloop
  endfacet
  facet normal 1.047011e-002 -8.901363e-001 4.555741e-001
    outer loop
      vertex  1.770624e+003 -4.613156e+001 2.023730e+003
      vertex  1.734131e+003 -5.120294e+001 2.014660e+003
      vertex  1.778461e+003 -5.947950e+001 1.997470e+003
    endloop
  endfacet
  facet normal -3.222911e-001 -9.464420e-001 1.939152e-002
    outer loop
      vertex  1.734131e+003 -5.120294e+001 2.014660e+003
      vertex  1.708811e+003 -4.345310e+001 1.972082e+003
      vertex  1.730821e+003 -5.126907e+001 1.956415e+003
    endloop
  endfacet
  facet normal -7.486076e-002 -9.249414e-001 -3.726650e-001
    outer loop
      vertex  1.776815e+003 -5.921505e+001 1.966897e+003
      vertex  1.730821e+003 -5.126907e+001 1.956415e+003
      vertex  1.763270e+003 -5.048412e+001 1.947948e+003
    endloop
  endfacet
  facet normal -2.995307e-005 1.000000e+000 -2.703298e-005
    outer loop
      vertex  1.790241e+003 3.450000e+001 1.943759e+003
      vertex  1.697394e+003 3.449772e+001 1.962249e+003
      vertex  1.727478e+003 3.450048e+001 2.030941e+003
    endloop
  endfacet
  facet normal 8.565620e-006 1.000000e+000 6.970087e-007
    outer loop
      vertex  1.790241e+003 3.450000e+001 1.943759e+003
      vertex  1.727478e+003 3.450048e+001 2.030941e+003
      vertex  1.786024e+003 3.449998e+001 2.022937e+003
    endloop
  endfacet
  facet normal 7.109700e-002 3.109594e-001 9.477602e-001
    outer loop
      vertex  1.790241e+003 3.450000e+001 1.943759e+003
      vertex  1.782977e+003 4.450000e+001 1.941023e+003
      vertex  1.712351e+003 4.449716e+001 1.946322e+003
    endloop
  endfacet
  facet normal -7.887487e-001 6.132793e-001 -4.200031e-002
    outer loop
      vertex  1.790241e+003 3.450000e+001 1.943759e+003
      vertex  1.786024e+003 3.449998e+001 2.022937e+003
      vertex  1.794231e+003 4.449666e+001 2.014784e+003
    endloop
  endfacet
  facet normal -9.552299e-002 -7.090027e-001 -6.987064e-001
    outer loop
      vertex  1.786024e+003 3.449998e+001 2.022937e+003
      vertex  1.727478e+003 3.450048e+001 2.030941e+003
      vertex  1.710143e+003 4.449730e+001 2.023167e+003
    endloop
  endfacet
  facet normal 5.649354e-001 7.871594e-001 -2.474430e-001
    outer loop
      vertex  1.727478e+003 3.450048e+001 2.030941e+003
      vertex  1.697394e+003 3.449772e+001 1.962249e+003
      vertex  1.710143e+003 4.449730e+001 2.023167e+003
    endloop
  endfacet
  facet normal 2.768282e-002 -9.995654e-001 -1.013698e-002
    outer loop
      vertex  1.776815e+003 -5.921505e+001 1.966897e+003
      vertex  1.778461e+003 -5.947950e+001 1.997470e+003
      vertex  1.719598e+003 -6.100861e+001 1.987502e+003
    endloop
  endfacet
  facet normal -8.813005e-002 -9.410312e-001 -3.266396e-001
    outer loop
      vertex  1.776815e+003 -5.921505e+001 1.966897e+003
      vertex  1.719598e+003 -6.100861e+001 1.987502e+003
      vertex  1.730821e+003 -5.126907e+001 1.956415e+003
    endloop
  endfacet
  facet normal -3.610256e-002 -9.336306e-001 3.564133e-001
    outer loop
      vertex  1.719598e+003 -6.100861e+001 1.987502e+003
      vertex  1.778461e+003 -5.947950e+001 1.997470e+003
      vertex  1.734131e+003 -5.120294e+001 2.014660e+003
    endloop
  endfacet
  facet normal 9.896825e-002 5.059412e-001 -8.568715e-001
    outer loop
      vertex  1.504506e+003 1.323004e+001 1.882063e+003
      vertex  1.504507e+003 8.367269e+001 1.923656e+003
      vertex  1.532415e+003 4.514318e+001 1.904130e+003
    endloop
  endfacet
  facet normal -1.000000e+000 2.951691e-005 2.846209e-005
    outer loop
      vertex  1.504505e+003 -1.322844e+001 2.085936e+003
      vertex  1.504502e+003 -4.830570e+001 2.015091e+003
      vertex  1.504503e+003 -5.037984e+001 2.072998e+003
    endloop
  endfacet
  facet normal -9.999982e-001 -1.906378e-003 -4.087946e-005
    outer loop
      vertex  1.504503e+003 -5.037984e+001 2.072998e+003
      vertex  1.504502e+003 -4.830570e+001 2.015091e+003
      vertex  1.504564e+003 -8.151300e+001 2.046747e+003
    endloop
  endfacet
  facet normal -9.999990e-001 -8.048289e-004 1.114670e-003
    outer loop
      vertex  1.504564e+003 -8.151300e+001 2.046747e+003
      vertex  1.504502e+003 -4.830570e+001 2.015091e+003
      vertex  1.504510e+003 -1.046610e+002 1.981300e+003
    endloop
  endfacet
  facet normal -1.000000e+000 -1.125498e-004 -3.988173e-005
    outer loop
      vertex  1.504502e+003 -1.602668e+001 1.930119e+003
      vertex  1.504510e+003 -1.046610e+002 1.981300e+003
      vertex  1.504502e+003 -4.830570e+001 2.015091e+003
    endloop
  endfacet
  facet normal -9.999959e-001 -2.383760e-003 -1.545245e-003
    outer loop
      vertex  1.504502e+003 -1.602668e+001 1.930119e+003
      vertex  1.504506e+003 1.323004e+001 1.882063e+003
      vertex  1.504621e+003 -3.890505e+001 1.888390e+003
    endloop
  endfacet
  facet normal -9.999967e-001 -1.738474e-003 -1.899032e-003
    outer loop
      vertex  1.504502e+003 -1.602668e+001 1.930119e+003
      vertex  1.504621e+003 -3.890505e+001 1.888390e+003
      vertex  1.504633e+003 -7.937531e+001 1.919010e+003
    endloop
  endfacet
  facet normal -9.999952e-001 -1.609806e-003 -2.632778e-003
    outer loop
      vertex  1.504502e+003 -1.602668e+001 1.930119e+003
      vertex  1.504633e+003 -7.937531e+001 1.919010e+003
      vertex  1.504510e+003 -1.046610e+002 1.981300e+003
    endloop
  endfacet
  facet normal -9.999996e-001 8.850796e-004 -3.198311e-005
    outer loop
      vertex  1.504517e+003 9.819535e+001 2.012577e+003
      vertex  1.504507e+003 8.367269e+001 1.923656e+003
      vertex  1.504500e+003 8.031316e+001 2.048240e+003
    endloop
  endfacet
  facet normal -1.000000e+000 8.268256e-005 -5.362069e-005
    outer loop
      vertex  1.504502e+003 4.657857e+001 1.959796e+003
      vertex  1.504500e+003 8.031316e+001 2.048240e+003
      vertex  1.504507e+003 8.367269e+001 1.923656e+003
    endloop
  endfacet
  facet normal -1.000000e+000 -5.330047e-005 -1.753163e-006
    outer loop
      vertex  1.504500e+003 8.031316e+001 2.048240e+003
      vertex  1.504502e+003 4.657857e+001 1.959796e+003
      vertex  1.504503e+003 3.287487e+001 2.028279e+003
    endloop
  endfacet
  facet normal -1.000000e+000 6.278268e-005 -7.404599e-005
    outer loop
      vertex  1.504507e+003 8.367269e+001 1.923656e+003
      vertex  1.504506e+003 1.323004e+001 1.882063e+003
      vertex  1.504502e+003 4.657857e+001 1.959796e+003
    endloop
  endfacet
  facet normal -1.000000e+000 4.516733e-005 -6.648877e-005
    outer loop
      vertex  1.504506e+003 1.323004e+001 1.882063e+003
      vertex  1.504502e+003 -1.602668e+001 1.930119e+003
      vertex  1.504502e+003 4.657857e+001 1.959796e+003
    endloop
  endfacet
  facet normal -9.999899e-001 -1.785887e-003 4.116014e-003
    outer loop
      vertex  1.504500e+003 8.031316e+001 2.048240e+003
      vertex  1.504503e+003 3.287487e+001 2.028279e+003
      vertex  1.504705e+003 3.849516e+001 2.079682e+003
    endloop
  endfacet
  facet normal -1.000000e+000 8.742129e-006 3.874830e-005
    outer loop
      vertex  1.504503e+003 3.287487e+001 2.028279e+003
      vertex  1.504502e+003 -4.830570e+001 2.015091e+003
      vertex  1.504505e+003 -1.322844e+001 2.085936e+003
    endloop
  endfacet
  facet normal -9.999849e-001 4.278494e-003 3.452921e-003
    outer loop
      vertex  1.504503e+003 3.287487e+001 2.028279e+003
      vertex  1.504505e+003 -1.322844e+001 2.085936e+003
      vertex  1.504705e+003 3.849516e+001 2.079682e+003
    endloop
  endfacet
  facet normal -1.000000e+000 5.463798e-006 -2.343401e-006
    outer loop
      vertex  1.494500e+003 3.830155e+000 2.038376e+003
      vertex  1.494500e+003 5.128382e+001 1.992744e+003
      vertex  1.494500e+003 2.828694e+001 1.939125e+003
    endloop
  endfacet
  facet normal -1.000000e+000 -3.485818e-007 -3.775656e-006
    outer loop
      vertex  1.494500e+003 3.830155e+000 2.038376e+003
      vertex  1.494500e+003 2.828694e+001 1.939125e+003
      vertex  1.494500e+003 -3.602495e+001 1.945063e+003
    endloop
  endfacet
  facet normal -1.000000e+000 -6.028948e-006 -1.349506e-006
    outer loop
      vertex  1.494500e+003 3.830155e+000 2.038376e+003
      vertex  1.494500e+003 -3.602495e+001 1.945063e+003
      vertex  1.494500e+003 -4.878515e+001 2.002069e+003
    endloop
  endfacet
  facet normal -7.222857e-001 -3.927928e-001 5.692251e-001
    outer loop
      vertex  1.494500e+003 3.830155e+000 2.038376e+003
      vertex  1.494500e+003 -4.878515e+001 2.002069e+003
      vertex  1.504502e+003 -4.830570e+001 2.015091e+003
    endloop
  endfacet
  facet normal 3.143798e-001 -9.263737e-001 -2.073574e-001
    outer loop
      vertex  1.494500e+003 -4.878515e+001 2.002069e+003
      vertex  1.494500e+003 -3.602495e+001 1.945063e+003
      vertex  1.504502e+003 -4.830570e+001 2.015091e+003
    endloop
  endfacet
  facet normal -7.935336e-001 -5.594340e-002 -6.059496e-001
    outer loop
      vertex  1.494500e+003 -3.602495e+001 1.945063e+003
      vertex  1.494500e+003 2.828694e+001 1.939125e+003
      vertex  1.504502e+003 -1.602668e+001 1.930119e+003
    endloop
  endfacet
  facet normal -6.546727e-001 6.947114e-001 -2.979590e-001
    outer loop
      vertex  1.494500e+003 2.828694e+001 1.939125e+003
      vertex  1.494500e+003 5.128382e+001 1.992744e+003
      vertex  1.504502e+003 4.657857e+001 1.959796e+003
    endloop
  endfacet
  facet normal -7.891876e-001 4.256935e-001 4.426827e-001
    outer loop
      vertex  1.494500e+003 5.128382e+001 1.992744e+003
      vertex  1.494500e+003 3.830155e+000 2.038376e+003
      vertex  1.504503e+003 3.287487e+001 2.028279e+003
    endloop
  endfacet
endsolid vcg
