solid Created by stlwrite.m 18-Dec-2012 12:23:13
facet normal 7.6161039E-01 3.0057654E-01 5.7411093E-01
outer loop
vertex 9.5682003E-02 -2.4529500E-01 3.8495161E-02
vertex 6.5513000E-02 -2.1711500E-01 6.3763410E-02
vertex 6.4240001E-02 -2.4550000E-01 8.0313161E-02
endloop
endfacet
facet normal 8.6946893E-01 3.9029139E-01 -3.0281410E-01
outer loop
vertex 8.8997997E-02 -2.4549700E-01 -5.0379839E-02
vertex 9.4129004E-02 -2.1782801E-01 1.4848730E-05
vertex 1.0193600E-01 -2.4549501E-01 -1.3228440E-02
endloop
endfacet
facet normal 6.9965601E-01 3.5044950E-01 -6.2262881E-01
outer loop
vertex 8.8997997E-02 -2.4549700E-01 -5.0379839E-02
vertex 4.7251001E-02 -2.1660200E-01 -8.1027791E-02
vertex 7.9732999E-02 -2.1748801E-01 -4.5026042E-02
endloop
endfacet
facet normal -7.5987220E-01 3.0358085E-01 -5.7483304E-01
outer loop
vertex -9.5610000E-02 -2.4537900E-01 -3.8905051E-02
vertex -6.5513000E-02 -2.1711500E-01 -6.3763507E-02
vertex -6.4989999E-02 -2.4536701E-01 -7.9375312E-02
endloop
endfacet
facet normal -8.8214535E-01 3.8118142E-01 2.7662319E-01
outer loop
vertex -7.9870000E-02 -2.1758500E-01 4.5143180E-02
vertex -9.4130002E-02 -2.1782500E-01 -9.4171241E-07
vertex -1.0193700E-01 -2.4549399E-01 1.3230040E-02
endloop
endfacet
facet normal 2.4175618E-02 9.8866755E-01 1.4816225E-01
outer loop
vertex 1.2939000E-02 5.4979000E-02 -1.2698260E-02
vertex -4.1893002E-02 5.0523002E-02 2.5982970E-02
vertex 3.8513999E-02 4.8554000E-02 2.6001871E-02
endloop
endfacet
facet normal 9.4466221E-01 2.8510106E-01 1.6226776E-01
outer loop
vertex 5.7670001E-02 1.8710000E-03 -3.4961479E-03
vertex 3.8513999E-02 4.8554000E-02 2.6001871E-02
vertex 5.6168001E-02 -1.0159000E-02 2.6384391E-02
endloop
endfacet
facet normal 9.8847550E-01 -1.5097398E-01 -1.1095092E-02
outer loop
vertex 5.1050000E-02 -4.2109001E-02 5.1677632E-03
vertex 5.7670001E-02 1.8710000E-03 -3.4961479E-03
vertex 5.6168001E-02 -1.0159000E-02 2.6384391E-02
endloop
endfacet
facet normal 9.7117376E-01 1.0316174E-01 2.1489368E-01
outer loop
vertex 6.3983001E-02 -2.1706700E-01 -6.3211611E-03
vertex 5.0643001E-02 -1.2251500E-01 8.5760113E-03
vertex 5.5319000E-02 -2.1684100E-01 3.2725751E-02
endloop
endfacet
facet normal 6.9905287E-01 1.2987790E-01 7.0317626E-01
outer loop
vertex 5.5319000E-02 -2.1684100E-01 3.2725751E-02
vertex 2.6450001E-02 -1.3192700E-01 4.5741700E-02
vertex 3.2357998E-02 -2.1623801E-01 5.5440739E-02
endloop
endfacet
facet normal 2.9608369E-01 1.2961207E-01 9.4632709E-01
outer loop
vertex 3.2357998E-02 -2.1623801E-01 5.5440739E-02
vertex 2.6450001E-02 -1.3192700E-01 4.5741700E-02
vertex -1.1430000E-03 -2.1534900E-01 6.5800659E-02
endloop
endfacet
facet normal 9.7617197E-01 1.6069952E-01 -1.4582150E-01
outer loop
vertex 5.0643001E-02 -1.2251500E-01 8.5760113E-03
vertex 6.3983001E-02 -2.1706700E-01 -6.3211611E-03
vertex 4.4596002E-02 -1.1486600E-01 -2.3474960E-02
endloop
endfacet
facet normal 9.2903578E-01 1.1733846E-01 -3.5089061E-01
outer loop
vertex 4.4596002E-02 -1.1486600E-01 -2.3474960E-02
vertex 6.3983001E-02 -2.1706700E-01 -6.3211611E-03
vertex 5.3079002E-02 -2.1678101E-01 -3.5095502E-02
endloop
endfacet
facet normal 1.3533168E-01 5.9938695E-02 -9.8898572E-01
outer loop
vertex 6.3310000E-03 -1.2454800E-01 -5.4613251E-02
vertex 2.7886000E-02 -2.1613000E-01 -5.7214130E-02
vertex -1.3179000E-02 -2.1547200E-01 -6.2793538E-02
endloop
endfacet
facet normal 6.5782887E-01 1.0169200E-01 -7.4627072E-01
outer loop
vertex 5.3079002E-02 -2.1678101E-01 -3.5095502E-02
vertex 2.7886000E-02 -2.1613000E-01 -5.7214130E-02
vertex 2.5699001E-02 -9.9568002E-02 -4.3258399E-02
endloop
endfacet
facet normal 9.2275739E-02 1.5194909E-01 -9.8407143E-01
outer loop
vertex 1.6485000E-02 -4.4031002E-02 -4.1228600E-02
vertex 6.3310000E-03 -1.2454800E-01 -5.4613251E-02
vertex -1.1918000E-02 -4.1189000E-02 -4.3453101E-02
endloop
endfacet
facet normal 5.2685010E-01 1.1817142E-01 -8.4170341E-01
outer loop
vertex 1.6485000E-02 -4.4031002E-02 -4.1228600E-02
vertex 4.3694999E-02 -3.2534000E-02 -2.2582831E-02
vertex 2.5699001E-02 -9.9568002E-02 -4.3258399E-02
endloop
endfacet
facet normal 7.2895455E-01 1.5393206E-02 -6.8438905E-01
outer loop
vertex 2.5699001E-02 -9.9568002E-02 -4.3258399E-02
vertex 4.3694999E-02 -3.2534000E-02 -2.2582831E-02
vertex 4.4596002E-02 -1.1486600E-01 -2.3474960E-02
endloop
endfacet
facet normal 9.6766818E-01 1.3318948E-02 -2.5187466E-01
outer loop
vertex 5.1050000E-02 -4.2109001E-02 5.1677632E-03
vertex 4.4596002E-02 -1.1486600E-01 -2.3474960E-02
vertex 4.3694999E-02 -3.2534000E-02 -2.2582831E-02
endloop
endfacet
facet normal 8.7103188E-01 1.6401492E-02 4.9095252E-01
outer loop
vertex 4.0245999E-02 -1.0191300E-01 2.6333770E-02
vertex 5.0643001E-02 -1.2251500E-01 8.5760113E-03
vertex 5.1050000E-02 -4.2109001E-02 5.1677632E-03
endloop
endfacet
facet normal 2.0818043E-01 1.6303463E-01 9.6440685E-01
outer loop
vertex 2.6450001E-02 -1.3192700E-01 4.5741700E-02
vertex 3.8200000E-04 -9.2639998E-02 4.4727299E-02
vertex -1.1430000E-03 -2.1534900E-01 6.5800659E-02
endloop
endfacet
facet normal 9.8201340E-01 -1.2955233E-02 -1.8836647E-01
outer loop
vertex 5.0643001E-02 -1.2251500E-01 8.5760113E-03
vertex 4.4596002E-02 -1.1486600E-01 -2.3474960E-02
vertex 5.1050000E-02 -4.2109001E-02 5.1677632E-03
endloop
endfacet
facet normal 7.6665705E-01 1.3537620E-01 -6.2762260E-01
outer loop
vertex 5.3079002E-02 -2.1678101E-01 -3.5095502E-02
vertex 2.5699001E-02 -9.9568002E-02 -4.3258399E-02
vertex 4.4596002E-02 -1.1486600E-01 -2.3474960E-02
endloop
endfacet
facet normal 9.2728740E-01 -2.0170350E-01 -3.1536302E-01
outer loop
vertex 5.7670001E-02 1.8710000E-03 -3.4961479E-03
vertex 5.1050000E-02 -4.2109001E-02 5.1677632E-03
vertex 4.3694999E-02 -3.2534000E-02 -2.2582831E-02
endloop
endfacet
facet normal 3.8200449E-02 -3.5064211E-01 -9.3573010E-01
outer loop
vertex -1.1918000E-02 -4.1189000E-02 -4.3453101E-02
vertex 3.0660000E-02 -1.5869001E-02 -5.1202942E-02
vertex 1.6485000E-02 -4.4031002E-02 -4.1228600E-02
endloop
endfacet
facet normal 8.6462277E-01 -1.4817889E-01 -4.8007354E-01
outer loop
vertex 3.0660000E-02 -1.5869001E-02 -5.1202942E-02
vertex 3.9730001E-02 2.0624001E-02 -4.6131559E-02
vertex 4.3694999E-02 -3.2534000E-02 -2.2582831E-02
endloop
endfacet
facet normal 8.9390028E-01 -1.2413807E-01 -4.3073425E-01
outer loop
vertex 5.7670001E-02 1.8710000E-03 -3.4961479E-03
vertex 4.3694999E-02 -3.2534000E-02 -2.2582831E-02
vertex 3.9730001E-02 2.0624001E-02 -4.6131559E-02
endloop
endfacet
facet normal 6.0746014E-01 7.4415475E-01 -2.7789569E-01
outer loop
vertex 1.2939000E-02 5.4979000E-02 -1.2698260E-02
vertex 3.8513999E-02 4.8554000E-02 2.6001871E-02
vertex 3.9730001E-02 2.0624001E-02 -4.6131559E-02
endloop
endfacet
facet normal 8.7192202E-01 4.6138167E-01 -1.6394800E-01
outer loop
vertex 3.8513999E-02 4.8554000E-02 2.6001871E-02
vertex 5.7670001E-02 1.8710000E-03 -3.4961479E-03
vertex 3.9730001E-02 2.0624001E-02 -4.6131559E-02
endloop
endfacet
facet normal 6.2132215E-01 -5.2025265E-01 -5.8591467E-01
outer loop
vertex 4.3694999E-02 -3.2534000E-02 -2.2582831E-02
vertex 1.6485000E-02 -4.4031002E-02 -4.1228600E-02
vertex 3.0660000E-02 -1.5869001E-02 -5.1202942E-02
endloop
endfacet
facet normal 4.5347622E-01 7.7756035E-01 -4.3561366E-01
outer loop
vertex 3.9730001E-02 2.0624001E-02 -4.6131559E-02
vertex 1.3470000E-02 2.8461000E-02 -5.9479501E-02
vertex 1.2939000E-02 5.4979000E-02 -1.2698260E-02
endloop
endfacet
facet normal 1.2518090E-01 9.6537298E-01 -2.2887687E-01
outer loop
vertex -1.7406000E-02 8.9268997E-02 2.5278959E-02
vertex 1.1400000E-04 9.1554999E-02 4.4503331E-02
vertex 3.4623001E-02 8.2671002E-02 2.5905980E-02
endloop
endfacet
facet normal 9.5809609E-01 -2.1947205E-01 1.8407542E-01
outer loop
vertex 7.6079004E-02 -4.7711000E-02 4.4495430E-02
vertex 8.1515998E-02 -3.8536001E-02 2.7135661E-02
vertex 9.0131000E-02 9.2559997E-03 3.9277472E-02
endloop
endfacet
facet normal 9.3035698E-01 -3.4174827E-01 1.3283074E-01
outer loop
vertex 2.6450001E-02 -1.3192700E-01 4.5741700E-02
vertex 4.0245999E-02 -1.0191300E-01 2.6333770E-02
vertex 4.3898001E-02 -8.4788002E-02 4.4814222E-02
endloop
endfacet
facet normal 7.9070723E-01 -5.1900291E-01 3.2468137E-01
outer loop
vertex 4.3898001E-02 -8.4788002E-02 4.4814222E-02
vertex 4.0245999E-02 -1.0191300E-01 2.6333770E-02
vertex 8.1515998E-02 -3.8536001E-02 2.7135661E-02
endloop
endfacet
facet normal 7.5018609E-01 -6.5206742E-01 -1.0967658E-01
outer loop
vertex 7.6079004E-02 -4.7711000E-02 4.4495430E-02
vertex 4.3898001E-02 -8.4788002E-02 4.4814222E-02
vertex 8.1515998E-02 -3.8536001E-02 2.7135661E-02
endloop
endfacet
facet normal -7.0874304E-01 6.3075423E-01 -3.1596246E-01
outer loop
vertex -4.1893002E-02 5.0523002E-02 2.5982970E-02
vertex -2.5595000E-02 5.1662002E-02 -8.3016930E-03
vertex -5.6777000E-02 1.5390000E-02 -1.0766200E-02
endloop
endfacet
facet normal -9.5900708E-01 2.2184230E-01 1.7632711E-01
outer loop
vertex -5.6777000E-02 1.5390000E-02 -1.0766200E-02
vertex -5.6373999E-02 -1.2520000E-02 2.6540039E-02
vertex -4.1893002E-02 5.0523002E-02 2.5982970E-02
endloop
endfacet
facet normal -9.8454535E-01 -1.4516491E-01 -9.7966962E-02
outer loop
vertex -5.6777000E-02 1.5390000E-02 -1.0766200E-02
vertex -4.9247999E-02 -3.4189999E-02 -1.2964570E-02
vertex -5.6373999E-02 -1.2520000E-02 2.6540039E-02
endloop
endfacet
facet normal -8.8382685E-01 -1.9998949E-02 4.6738666E-01
outer loop
vertex -5.1215000E-02 -1.2812400E-01 6.3211578E-03
vertex -4.1042000E-02 -1.0655000E-01 2.6481399E-02
vertex -4.3327998E-02 -5.3691000E-02 2.4420360E-02
endloop
endfacet
facet normal -9.3013191E-01 1.1169012E-01 3.4982863E-01
outer loop
vertex -5.1215000E-02 -1.2812400E-01 6.3211578E-03
vertex -4.7113001E-02 -2.1658300E-01 4.5470029E-02
vertex -4.1042000E-02 -1.0655000E-01 2.6481399E-02
endloop
endfacet
facet normal -9.4070858E-01 -4.9209487E-02 -3.3562741E-01
outer loop
vertex -5.1215000E-02 -1.2812400E-01 6.3211578E-03
vertex -4.9247999E-02 -3.4189999E-02 -1.2964570E-02
vertex -3.9005000E-02 -1.0246100E-01 -3.1664159E-02
endloop
endfacet
facet normal -1.0503975E-01 1.0933743E-01 -9.8843914E-01
outer loop
vertex -1.1918000E-02 -4.1189000E-02 -4.3453101E-02
vertex 6.3310000E-03 -1.2454800E-01 -5.4613251E-02
vertex -1.5383000E-02 -1.3791800E-01 -5.3784680E-02
endloop
endfacet
facet normal -5.8964610E-01 1.0663296E-01 -8.0059165E-01
outer loop
vertex -1.1918000E-02 -4.1189000E-02 -4.3453101E-02
vertex -1.5383000E-02 -1.3791800E-01 -5.3784680E-02
vertex -3.9005000E-02 -1.0246100E-01 -3.1664159E-02
endloop
endfacet
facet normal -6.1412275E-01 1.2145212E-01 -7.7980942E-01
outer loop
vertex -4.9247999E-02 -3.4189999E-02 -1.2964570E-02
vertex -1.1918000E-02 -4.1189000E-02 -4.3453101E-02
vertex -3.9005000E-02 -1.0246100E-01 -3.1664159E-02
endloop
endfacet
facet normal -1.0650483E-01 1.1174323E-01 -9.8801327E-01
outer loop
vertex 6.3310000E-03 -1.2454800E-01 -5.4613251E-02
vertex -1.3179000E-02 -2.1547200E-01 -6.2793538E-02
vertex -1.5383000E-02 -1.3791800E-01 -5.3784680E-02
endloop
endfacet
facet normal -4.7218055E-01 8.8461585E-02 -8.7705189E-01
outer loop
vertex -1.3179000E-02 -2.1547200E-01 -6.2793538E-02
vertex -4.4960000E-02 -2.1657100E-01 -4.5794372E-02
vertex -1.5383000E-02 -1.3791800E-01 -5.3784680E-02
endloop
endfacet
facet normal -5.6640875E-01 1.3032590E-01 -8.1375450E-01
outer loop
vertex -1.5383000E-02 -1.3791800E-01 -5.3784680E-02
vertex -4.4960000E-02 -2.1657100E-01 -4.5794372E-02
vertex -3.9005000E-02 -1.0246100E-01 -3.1664159E-02
endloop
endfacet
facet normal -8.6383754E-01 1.0606413E-01 -4.9247849E-01
outer loop
vertex -3.9005000E-02 -1.0246100E-01 -3.1664159E-02
vertex -4.4960000E-02 -2.1657100E-01 -4.5794372E-02
vertex -6.0749002E-02 -2.1698999E-01 -1.8189730E-02
endloop
endfacet
facet normal -9.8678511E-01 1.3184658E-01 -9.4189405E-02
outer loop
vertex -5.1215000E-02 -1.2812400E-01 6.3211578E-03
vertex -6.0749002E-02 -2.1698999E-01 -1.8189730E-02
vertex -6.3088998E-02 -2.1705100E-01 6.2400908E-03
endloop
endfacet
facet normal -9.1968524E-01 1.2246108E-01 3.7307164E-01
outer loop
vertex -5.1215000E-02 -1.2812400E-01 6.3211578E-03
vertex -6.3088998E-02 -2.1705100E-01 6.2400908E-03
vertex -4.7113001E-02 -2.1658300E-01 4.5470029E-02
endloop
endfacet
facet normal -4.0472311E-01 9.7859614E-02 9.0918797E-01
outer loop
vertex -1.1430000E-03 -2.1534900E-01 6.5800659E-02
vertex -2.6958000E-02 -1.3065700E-01 4.5193419E-02
vertex -4.7113001E-02 -2.1658300E-01 4.5470029E-02
endloop
endfacet
facet normal -2.1699476E-01 1.6784261E-01 9.6163511E-01
outer loop
vertex 3.8200000E-04 -9.2639998E-02 4.4727299E-02
vertex -2.6958000E-02 -1.3065700E-01 4.5193419E-02
vertex -1.1430000E-03 -2.1534900E-01 6.5800659E-02
endloop
endfacet
facet normal -6.7749500E-01 1.6122501E-01 7.1763980E-01
outer loop
vertex -4.7113001E-02 -2.1658300E-01 4.5470029E-02
vertex -2.6958000E-02 -1.3065700E-01 4.5193419E-02
vertex -4.1042000E-02 -1.0655000E-01 2.6481399E-02
endloop
endfacet
facet normal -9.6614164E-01 1.5957421E-01 -2.0274772E-01
outer loop
vertex -5.1215000E-02 -1.2812400E-01 6.3211578E-03
vertex -3.9005000E-02 -1.0246100E-01 -3.1664159E-02
vertex -6.0749002E-02 -2.1698999E-01 -1.8189730E-02
endloop
endfacet
facet normal -5.6921363E-01 -6.0346991E-01 -5.5840856E-01
outer loop
vertex -1.1918000E-02 -4.1189000E-02 -4.3453101E-02
vertex -4.9247999E-02 -3.4189999E-02 -1.2964570E-02
vertex -2.7585000E-02 -1.9179000E-02 -5.1269069E-02
endloop
endfacet
facet normal -8.8326687E-01 -1.1396284E-01 -4.5480996E-01
outer loop
vertex -4.9247999E-02 -3.4189999E-02 -1.2964570E-02
vertex -5.6777000E-02 1.5390000E-02 -1.0766200E-02
vertex -3.6052000E-02 1.3270000E-02 -5.0484121E-02
endloop
endfacet
facet normal -8.6678140E-02 9.9620336E-01 -8.1087220E-03
outer loop
vertex -2.5595000E-02 5.1662002E-02 -8.3016930E-03
vertex -4.1893002E-02 5.0523002E-02 2.5982970E-02
vertex 1.2939000E-02 5.4979000E-02 -1.2698260E-02
endloop
endfacet
facet normal -1.2757400E-01 8.8279462E-01 -4.5210451E-01
outer loop
vertex -2.5595000E-02 5.1662002E-02 -8.3016930E-03
vertex 1.2939000E-02 5.4979000E-02 -1.2698260E-02
vertex -1.7103000E-02 2.6815001E-02 -5.9215050E-02
endloop
endfacet
facet normal -6.4782923E-01 6.3643509E-01 -4.1864988E-01
outer loop
vertex -2.5595000E-02 5.1662002E-02 -8.3016930E-03
vertex -1.7103000E-02 2.6815001E-02 -5.9215050E-02
vertex -3.6052000E-02 1.3270000E-02 -5.0484121E-02
endloop
endfacet
facet normal -6.8491280E-01 6.1531436E-01 -3.9023402E-01
outer loop
vertex -5.6777000E-02 1.5390000E-02 -1.0766200E-02
vertex -2.5595000E-02 5.1662002E-02 -8.3016930E-03
vertex -3.6052000E-02 1.3270000E-02 -5.0484121E-02
endloop
endfacet
facet normal -5.1026184E-02 8.6857152E-01 -4.9292994E-01
outer loop
vertex -1.7103000E-02 2.6815001E-02 -5.9215050E-02
vertex 1.2939000E-02 5.4979000E-02 -1.2698260E-02
vertex 1.3470000E-02 2.8461000E-02 -5.9479501E-02
endloop
endfacet
facet normal -8.1714648E-01 -2.0014365E-01 -5.4056835E-01
outer loop
vertex -3.6052000E-02 1.3270000E-02 -5.0484121E-02
vertex -2.7585000E-02 -1.9179000E-02 -5.1269069E-02
vertex -4.9247999E-02 -3.4189999E-02 -1.2964570E-02
endloop
endfacet
facet normal -7.6139915E-01 -6.4819962E-01 -1.0419828E-02
outer loop
vertex -7.9333000E-02 -4.2017002E-02 4.4498261E-02
vertex -7.7186003E-02 -4.4257998E-02 2.7021190E-02
vertex -4.8542999E-02 -7.8184001E-02 4.4493970E-02
endloop
endfacet
facet normal -9.1152138E-01 -3.6335427E-01 1.9262025E-01
outer loop
vertex -4.1042000E-02 -1.0655000E-01 2.6481399E-02
vertex -4.8542999E-02 -7.8184001E-02 4.4493970E-02
vertex -5.3617001E-02 -7.5044997E-02 2.6404019E-02
endloop
endfacet
facet normal -9.0606785E-01 -3.6997807E-01 2.0532241E-01
outer loop
vertex -4.1042000E-02 -1.0655000E-01 2.6481399E-02
vertex -2.6958000E-02 -1.3065700E-01 4.5193419E-02
vertex -4.8542999E-02 -7.8184001E-02 4.4493970E-02
endloop
endfacet
facet normal -7.8756243E-01 -6.0524172E-01 1.1587851E-01
outer loop
vertex -5.3617001E-02 -7.5044997E-02 2.6404019E-02
vertex -4.8542999E-02 -7.8184001E-02 4.4493970E-02
vertex -7.7186003E-02 -4.4257998E-02 2.7021190E-02
endloop
endfacet
facet normal 6.0672235E-01 1.2080632E-01 7.8568053E-01
outer loop
vertex -4.0240999E-02 4.0240999E-02 3.4499999E-02
vertex -3.7678000E-02 -3.7648998E-02 4.4497158E-02
vertex -2.1751000E-02 -5.2606001E-02 3.4497719E-02
endloop
endfacet
facet normal 1.2488275E-01 -8.1867331E-01 -5.6051618E-01
outer loop
vertex -4.0240999E-02 4.0240999E-02 3.4499999E-02
vertex 3.0784000E-02 4.4231001E-02 4.4496659E-02
vertex -4.2977002E-02 3.2977000E-02 4.4500001E-02
endloop
endfacet
facet normal -8.0366379E-01 -8.0124304E-02 -5.8966482E-01
outer loop
vertex 3.8936999E-02 3.6024000E-02 3.4499981E-02
vertex 3.9167002E-02 -3.9857000E-02 4.4497300E-02
vertex 3.0784000E-02 4.4231001E-02 4.4496659E-02
endloop
endfacet
facet normal 1.6312009E-02 5.6765372E-01 -8.2310581E-01
outer loop
vertex -2.1751000E-02 -5.2606001E-02 3.4497719E-02
vertex -3.7678000E-02 -3.7648998E-02 4.4497158E-02
vertex 3.9167002E-02 -3.9857000E-02 4.4497300E-02
endloop
endfacet
facet normal 3.3244669E-02 -6.0095054E-01 7.9859465E-01
outer loop
vertex 3.5019999E-03 -3.0401999E-02 -6.1008610E-02
vertex 3.0660000E-02 -1.5869001E-02 -5.1202942E-02
vertex -2.7585000E-02 -1.9179000E-02 -5.1269069E-02
endloop
endfacet
facet normal -5.7385709E-02 -9.3423510E-01 3.5201085E-01
outer loop
vertex 2.8577000E-02 -2.4548300E-01 9.8195352E-02
vertex -1.1201000E-02 -2.4199601E-01 1.0096510E-01
vertex -6.0343999E-02 -2.4549299E-01 8.3672687E-02
endloop
endfacet
facet normal 5.5726087E-01 8.2538664E-01 -9.0538666E-02
outer loop
vertex 5.4375999E-02 -2.5549999E-01 3.8301549E-03
vertex 3.1091001E-02 -2.4549800E-01 -4.8305701E-02
vertex 4.4279002E-02 -2.4549700E-01 3.2874871E-02
endloop
endfacet
facet normal -2.1254088E-01 8.0111748E-01 -5.5949724E-01
outer loop
vertex -3.8936999E-02 -2.5549999E-01 -3.6024950E-02
vertex -5.3881001E-02 -2.4549800E-01 -1.6026679E-02
vertex 3.1091001E-02 -2.4549800E-01 -4.8305701E-02
endloop
endfacet
facet normal -6.1265916E-01 7.3505396E-01 2.9042110E-01
outer loop
vertex -4.4875000E-02 -2.5549999E-01 2.8286939E-02
vertex -2.4204001E-02 -2.4549800E-01 4.6578571E-02
vertex -5.3881001E-02 -2.4549800E-01 -1.6026679E-02
endloop
endfacet
facet normal 1.3147953E-01 7.4223852E-01 6.5711117E-01
outer loop
vertex 8.7440005E-03 -2.5549999E-01 5.1283821E-02
vertex 4.4279002E-02 -2.4549700E-01 3.2874871E-02
vertex -2.4204001E-02 -2.4549800E-01 4.6578571E-02
endloop
endfacet
facet normal 9.6810080E-02 3.7065274E-01 9.2371225E-01
outer loop
vertex 3.1656999E-02 -2.1542300E-01 8.5810550E-02
vertex -1.1201000E-02 -2.4199601E-01 1.0096510E-01
vertex 2.8577000E-02 -2.4548300E-01 9.8195352E-02
endloop
endfacet
facet normal 4.2673194E-01 3.0678886E-01 8.5075283E-01
outer loop
vertex 2.8577000E-02 -2.4548300E-01 9.8195352E-02
vertex 6.4240001E-02 -2.4550000E-01 8.0313161E-02
vertex 3.1656999E-02 -2.1542300E-01 8.5810550E-02
endloop
endfacet
facet normal 5.1078606E-01 4.1581184E-01 7.5246137E-01
outer loop
vertex 6.4240001E-02 -2.4550000E-01 8.0313161E-02
vertex 6.5513000E-02 -2.1711500E-01 6.3763410E-02
vertex 3.1656999E-02 -2.1542300E-01 8.5810550E-02
endloop
endfacet
facet normal 7.6210374E-01 3.0268955E-01 5.7234335E-01
outer loop
vertex 9.5682003E-02 -2.4529500E-01 3.8495161E-02
vertex 7.9732999E-02 -2.1748801E-01 4.5026042E-02
vertex 6.5513000E-02 -2.1711500E-01 6.3763410E-02
endloop
endfacet
facet normal 9.6904510E-01 2.1776040E-01 1.1632697E-01
outer loop
vertex 9.5682003E-02 -2.4529500E-01 3.8495161E-02
vertex 1.0193600E-01 -2.4549501E-01 -1.3228440E-02
vertex 9.4129004E-02 -2.1782801E-01 1.4848730E-05
endloop
endfacet
facet normal 8.6091053E-01 4.2987803E-01 2.7209929E-01
outer loop
vertex 9.5682003E-02 -2.4529500E-01 3.8495161E-02
vertex 9.4129004E-02 -2.1782801E-01 1.4848730E-05
vertex 7.9732999E-02 -2.1748801E-01 4.5026042E-02
endloop
endfacet
facet normal 8.9321113E-01 3.4952778E-01 -2.8285033E-01
outer loop
vertex 8.8997997E-02 -2.4549700E-01 -5.0379839E-02
vertex 7.9732999E-02 -2.1748801E-01 -4.5026042E-02
vertex 9.4129004E-02 -2.1782801E-01 1.4848730E-05
endloop
endfacet
facet normal 7.0475125E-01 3.8873506E-01 -5.9347349E-01
outer loop
vertex 8.8997997E-02 -2.4549700E-01 -5.0379839E-02
vertex 6.2747002E-02 -2.4543600E-01 -8.1513003E-02
vertex 4.7251001E-02 -2.1660200E-01 -8.1027791E-02
endloop
endfacet
facet normal 3.2714421E-01 1.9138646E-01 -9.2539066E-01
outer loop
vertex 6.2747002E-02 -2.4543600E-01 -8.1513003E-02
vertex -2.7000001E-03 -2.4549000E-01 -1.0466100E-01
vertex 4.7251001E-02 -2.1660200E-01 -8.1027791E-02
endloop
endfacet
facet normal 1.1301586E-01 5.0474238E-01 -8.5584027E-01
outer loop
vertex -2.7000001E-03 -2.4549000E-01 -1.0466100E-01
vertex -2.2366000E-02 -2.1578300E-01 -8.9737877E-02
vertex 4.7251001E-02 -2.1660200E-01 -8.1027791E-02
endloop
endfacet
facet normal -3.6722943E-01 2.1185786E-01 -9.0568137E-01
outer loop
vertex -2.7000001E-03 -2.4549000E-01 -1.0466100E-01
vertex -6.4989999E-02 -2.4536701E-01 -7.9375312E-02
vertex -2.2366000E-02 -2.1578300E-01 -8.9737877E-02
endloop
endfacet
facet normal -4.7796258E-01 4.1804168E-01 -7.7252376E-01
outer loop
vertex -6.4989999E-02 -2.4536701E-01 -7.9375312E-02
vertex -6.5513000E-02 -2.1711500E-01 -6.3763507E-02
vertex -2.2366000E-02 -2.1578300E-01 -8.9737877E-02
endloop
endfacet
facet normal -7.6086259E-01 3.0774474E-01 -5.7129788E-01
outer loop
vertex -9.5610000E-02 -2.4537900E-01 -3.8905051E-02
vertex -7.9732999E-02 -2.1748801E-01 -4.5026042E-02
vertex -6.5513000E-02 -2.1711500E-01 -6.3763507E-02
endloop
endfacet
facet normal -9.6902764E-01 2.1741275E-01 -1.1711959E-01
outer loop
vertex -9.5610000E-02 -2.4537900E-01 -3.8905051E-02
vertex -1.0193700E-01 -2.4549399E-01 1.3230040E-02
vertex -9.4130002E-02 -2.1782500E-01 -9.4171241E-07
endloop
endfacet
facet normal -8.6073828E-01 4.3028232E-01 -2.7200496E-01
outer loop
vertex -9.5610000E-02 -2.4537900E-01 -3.8905051E-02
vertex -9.4130002E-02 -2.1782500E-01 -9.4171241E-07
vertex -7.9732999E-02 -2.1748801E-01 -4.5026042E-02
endloop
endfacet
facet normal -6.9323063E-01 3.6937523E-01 6.1886442E-01
outer loop
vertex -7.9870000E-02 -2.1758500E-01 4.5143180E-02
vertex -6.0343999E-02 -2.4549299E-01 8.3672687E-02
vertex -4.7520000E-02 -2.1660900E-01 8.0798000E-02
endloop
endfacet
facet normal -3.3737314E-01 2.4037232E-01 9.1016513E-01
outer loop
vertex -6.0343999E-02 -2.4549299E-01 8.3672687E-02
vertex -1.1201000E-02 -2.4199601E-01 1.0096510E-01
vertex -4.7520000E-02 -2.1660900E-01 8.0798000E-02
endloop
endfacet
facet normal 2.5311569E-02 9.9896491E-01 -3.7796155E-02
outer loop
vertex 3.1656999E-02 -2.1542300E-01 8.5810550E-02
vertex 6.5513000E-02 -2.1711500E-01 6.3763410E-02
vertex -1.1430000E-03 -2.1534900E-01 6.5800659E-02
endloop
endfacet
facet normal 2.6406847E-02 9.9965125E-01 1.4034005E-04
outer loop
vertex 6.5513000E-02 -2.1711500E-01 6.3763410E-02
vertex 7.9732999E-02 -2.1748801E-01 4.5026042E-02
vertex 3.2357998E-02 -2.1623801E-01 5.5440739E-02
endloop
endfacet
facet normal 2.6480239E-02 9.9964941E-01 -1.5222936E-04
outer loop
vertex 6.5513000E-02 -2.1711500E-01 6.3763410E-02
vertex 3.2357998E-02 -2.1623801E-01 5.5440739E-02
vertex -1.1430000E-03 -2.1534900E-01 6.5800659E-02
endloop
endfacet
facet normal 2.6092425E-02 9.9965918E-01 7.9408591E-04
outer loop
vertex 7.9732999E-02 -2.1748801E-01 4.5026042E-02
vertex 9.4129004E-02 -2.1782801E-01 1.4848730E-05
vertex 5.5319000E-02 -2.1684100E-01 3.2725751E-02
endloop
endfacet
facet normal 2.6411325E-02 9.9965119E-01 1.6070352E-04
outer loop
vertex 7.9732999E-02 -2.1748801E-01 4.5026042E-02
vertex 5.5319000E-02 -2.1684100E-01 3.2725751E-02
vertex 3.2357998E-02 -2.1623801E-01 5.5440739E-02
endloop
endfacet
facet normal 2.5273319E-02 9.9968064E-01 -1.7839244E-04
outer loop
vertex 5.5319000E-02 -2.1684100E-01 3.2725751E-02
vertex 9.4129004E-02 -2.1782801E-01 1.4848730E-05
vertex 6.3983001E-02 -2.1706700E-01 -6.3211611E-03
endloop
endfacet
facet normal 2.5150698E-02 9.9968356E-01 4.0537052E-04
outer loop
vertex 6.3983001E-02 -2.1706700E-01 -6.3211611E-03
vertex 9.4129004E-02 -2.1782801E-01 1.4848730E-05
vertex 5.3079002E-02 -2.1678101E-01 -3.5095502E-02
endloop
endfacet
facet normal 2.6206722E-02 9.9965620E-01 -8.3011761E-04
outer loop
vertex 5.3079002E-02 -2.1678101E-01 -3.5095502E-02
vertex 9.4129004E-02 -2.1782801E-01 1.4848730E-05
vertex 7.9732999E-02 -2.1748801E-01 -4.5026042E-02
endloop
endfacet
facet normal 2.6312064E-02 9.9965364E-01 -5.4720126E-04
outer loop
vertex 5.3079002E-02 -2.1678101E-01 -3.5095502E-02
vertex 7.9732999E-02 -2.1748801E-01 -4.5026042E-02
vertex 2.7886000E-02 -2.1613000E-01 -5.7214130E-02
endloop
endfacet
facet normal 1.6851578E-02 9.9983937E-01 -6.1136158E-03
outer loop
vertex 2.7886000E-02 -2.1613000E-01 -5.7214130E-02
vertex 4.7251001E-02 -2.1660200E-01 -8.1027791E-02
vertex -1.3179000E-02 -2.1547200E-01 -6.2793538E-02
endloop
endfacet
facet normal 2.5891889E-02 9.9966401E-01 1.2413345E-03
outer loop
vertex 4.7251001E-02 -2.1660200E-01 -8.1027791E-02
vertex 2.7886000E-02 -2.1613000E-01 -5.7214130E-02
vertex 7.9732999E-02 -2.1748801E-01 -4.5026042E-02
endloop
endfacet
facet normal 1.3793889E-02 9.9977297E-01 -1.6242968E-02
outer loop
vertex -1.3179000E-02 -2.1547200E-01 -6.2793538E-02
vertex 4.7251001E-02 -2.1660200E-01 -8.1027791E-02
vertex -2.2366000E-02 -2.1578300E-01 -8.9737877E-02
endloop
endfacet
facet normal 9.1694707E-01 1.4101876E-01 3.7325835E-01
outer loop
vertex 5.5319000E-02 -2.1684100E-01 3.2725751E-02
vertex 5.0643001E-02 -1.2251500E-01 8.5760113E-03
vertex 4.0245999E-02 -1.0191300E-01 2.6333770E-02
endloop
endfacet
facet normal 7.0114243E-01 1.3093790E-01 7.0089549E-01
outer loop
vertex 5.5319000E-02 -2.1684100E-01 3.2725751E-02
vertex 4.0245999E-02 -1.0191300E-01 2.6333770E-02
vertex 2.6450001E-02 -1.3192700E-01 4.5741700E-02
endloop
endfacet
facet normal 3.8586134E-01 1.1680668E-01 -9.1513240E-01
outer loop
vertex 6.3310000E-03 -1.2454800E-01 -5.4613251E-02
vertex 2.5699001E-02 -9.9568002E-02 -4.3258399E-02
vertex 2.7886000E-02 -2.1613000E-01 -5.7214130E-02
endloop
endfacet
facet normal 4.0383244E-01 1.0023335E-01 -9.0932548E-01
outer loop
vertex 1.6485000E-02 -4.4031002E-02 -4.1228600E-02
vertex 2.5699001E-02 -9.9568002E-02 -4.3258399E-02
vertex 6.3310000E-03 -1.2454800E-01 -5.4613251E-02
endloop
endfacet
facet normal 3.7079701E-01 8.9084834E-01 2.6248571E-01
outer loop
vertex 6.1866000E-02 6.5853000E-02 4.4500008E-02
vertex 3.4623001E-02 8.2671002E-02 2.5905980E-02
vertex 1.1400000E-04 9.1554999E-02 4.4503331E-02
endloop
endfacet
facet normal -6.6670259E-06 -1.4530624E-04 1.0000000E+00
outer loop
vertex 6.1866000E-02 6.5853000E-02 4.4500008E-02
vertex 1.1400000E-04 9.1554999E-02 4.4503331E-02
vertex 3.0784000E-02 4.4231001E-02 4.4496659E-02
endloop
endfacet
facet normal 5.9595335E-01 7.8656530E-01 -1.6172399E-01
outer loop
vertex 6.1866000E-02 6.5853000E-02 4.4500008E-02
vertex 7.1218997E-02 5.5140998E-02 2.6866641E-02
vertex 3.4623001E-02 8.2671002E-02 2.5905980E-02
endloop
endfacet
facet normal 8.8196295E-01 4.2088547E-01 2.1212460E-01
outer loop
vertex 7.1218997E-02 5.5140998E-02 2.6866641E-02
vertex 6.1866000E-02 6.5853000E-02 4.4500008E-02
vertex 9.0131000E-02 9.2559997E-03 3.9277472E-02
endloop
endfacet
facet normal -5.9431968E-03 2.1870146E-02 9.9974310E-01
outer loop
vertex 4.3898001E-02 -8.4788002E-02 4.4814222E-02
vertex 3.8200000E-04 -9.2639998E-02 4.4727299E-02
vertex 2.6450001E-02 -1.3192700E-01 4.5741700E-02
endloop
endfacet
facet normal 6.6125375E-01 7.0540413E-02 -7.4683833E-01
outer loop
vertex 7.1218997E-02 5.5140998E-02 2.6866641E-02
vertex 9.0131000E-02 9.2559997E-03 3.9277472E-02
vertex 8.1515998E-02 -3.8536001E-02 2.7135661E-02
endloop
endfacet
facet normal 3.0117407E-02 4.4003373E-04 -9.9954629E-01
outer loop
vertex 5.6168001E-02 -1.0159000E-02 2.6384391E-02
vertex 7.1218997E-02 5.5140998E-02 2.6866641E-02
vertex 8.1515998E-02 -3.8536001E-02 2.7135661E-02
endloop
endfacet
facet normal 2.6159951E-02 1.3530038E-03 -9.9965680E-01
outer loop
vertex 7.1218997E-02 5.5140998E-02 2.6866641E-02
vertex 5.6168001E-02 -1.0159000E-02 2.6384391E-02
vertex 3.8513999E-02 4.8554000E-02 2.6001871E-02
endloop
endfacet
facet normal 2.5325976E-02 -3.8432747E-03 -9.9967188E-01
outer loop
vertex 4.0245999E-02 -1.0191300E-01 2.6333770E-02
vertex 5.6168001E-02 -1.0159000E-02 2.6384391E-02
vertex 8.1515998E-02 -3.8536001E-02 2.7135661E-02
endloop
endfacet
facet normal 9.8508036E-01 -1.7095119E-01 1.9807499E-02
outer loop
vertex 4.0245999E-02 -1.0191300E-01 2.6333770E-02
vertex 5.1050000E-02 -4.2109001E-02 5.1677632E-03
vertex 5.6168001E-02 -1.0159000E-02 2.6384391E-02
endloop
endfacet
facet normal 2.6391979E-02 2.0030263E-04 -9.9965161E-01
outer loop
vertex 3.8513999E-02 4.8554000E-02 2.6001871E-02
vertex 3.4623001E-02 8.2671002E-02 2.5905980E-02
vertex 7.1218997E-02 5.5140998E-02 2.6866641E-02
endloop
endfacet
facet normal -2.0665380E-04 -1.8036341E-02 -9.9983728E-01
outer loop
vertex -4.1893002E-02 5.0523002E-02 2.5982970E-02
vertex -1.7406000E-02 8.9268997E-02 2.5278959E-02
vertex 3.8513999E-02 4.8554000E-02 2.6001871E-02
endloop
endfacet
facet normal 1.1865712E-02 -1.4571771E-03 -9.9992853E-01
outer loop
vertex 3.4623001E-02 8.2671002E-02 2.5905980E-02
vertex 3.8513999E-02 4.8554000E-02 2.6001871E-02
vertex -1.7406000E-02 8.9268997E-02 2.5278959E-02
endloop
endfacet
facet normal -9.5336109E-01 -3.0176330E-01 -6.4407857E-03
outer loop
vertex -4.9247999E-02 -3.4189999E-02 -1.2964570E-02
vertex -4.3327998E-02 -5.3691000E-02 2.4420360E-02
vertex -5.6373999E-02 -1.2520000E-02 2.6540039E-02
endloop
endfacet
facet normal -1.6963866E-02 9.9935973E-01 3.1502750E-02
outer loop
vertex 3.1656999E-02 -2.1542300E-01 8.5810550E-02
vertex -1.1430000E-03 -2.1534900E-01 6.5800659E-02
vertex -4.7520000E-02 -2.1660900E-01 8.0798000E-02
endloop
endfacet
facet normal -6.0518727E-02 5.6635594E-01 8.2193583E-01
outer loop
vertex 3.1656999E-02 -2.1542300E-01 8.5810550E-02
vertex -4.7520000E-02 -2.1660900E-01 8.0798000E-02
vertex -1.1201000E-02 -2.4199601E-01 1.0096510E-01
endloop
endfacet
facet normal -2.7021401E-02 9.9963474E-01 4.2446089E-04
outer loop
vertex -4.7520000E-02 -2.1660900E-01 8.0798000E-02
vertex -1.1430000E-03 -2.1534900E-01 6.5800659E-02
vertex -4.7113001E-02 -2.1658300E-01 4.5470029E-02
endloop
endfacet
facet normal -3.0578366E-02 9.9953228E-01 3.8340714E-04
outer loop
vertex -4.7520000E-02 -2.1660900E-01 8.0798000E-02
vertex -4.7113001E-02 -2.1658300E-01 4.5470029E-02
vertex -7.9870000E-02 -2.1758500E-01 4.5143180E-02
endloop
endfacet
facet normal -3.0617697E-02 9.9952167E-01 4.3577114E-03
outer loop
vertex -7.9870000E-02 -2.1758500E-01 4.5143180E-02
vertex -4.7113001E-02 -2.1658300E-01 4.5470029E-02
vertex -9.4130002E-02 -2.1782500E-01 -9.4171241E-07
endloop
endfacet
facet normal -2.4538428E-02 9.9969703E-01 -1.9330416E-03
outer loop
vertex -6.3088998E-02 -2.1705100E-01 6.2400908E-03
vertex -9.4130002E-02 -2.1782500E-01 -9.4171241E-07
vertex -4.7113001E-02 -2.1658300E-01 4.5470029E-02
endloop
endfacet
facet normal -2.4948332E-02 9.9968874E-01 1.0672968E-04
outer loop
vertex -9.4130002E-02 -2.1782500E-01 -9.4171241E-07
vertex -6.3088998E-02 -2.1705100E-01 6.2400908E-03
vertex -6.0749002E-02 -2.1698999E-01 -1.8189730E-02
endloop
endfacet
facet normal -2.6383003E-02 9.9965143E-01 -9.5422030E-04
outer loop
vertex -9.4130002E-02 -2.1782500E-01 -9.4171241E-07
vertex -4.4960000E-02 -2.1657100E-01 -4.5794372E-02
vertex -7.9732999E-02 -2.1748801E-01 -4.5026042E-02
endloop
endfacet
facet normal -2.4317676E-02 9.9970341E-01 1.2648134E-03
outer loop
vertex -6.0749002E-02 -2.1698999E-01 -1.8189730E-02
vertex -4.4960000E-02 -2.1657100E-01 -4.5794372E-02
vertex -9.4130002E-02 -2.1782500E-01 -9.4171241E-07
endloop
endfacet
facet normal -2.6005238E-02 9.9953371E-01 1.6001983E-02
outer loop
vertex -7.9732999E-02 -2.1748801E-01 -4.5026042E-02
vertex -4.4960000E-02 -2.1657100E-01 -4.5794372E-02
vertex -1.3179000E-02 -2.1547200E-01 -6.2793538E-02
endloop
endfacet
facet normal -3.1307332E-02 9.9950236E-01 -3.8623177E-03
outer loop
vertex -7.9732999E-02 -2.1748801E-01 -4.5026042E-02
vertex -1.3179000E-02 -2.1547200E-01 -6.2793538E-02
vertex -6.5513000E-02 -2.1711500E-01 -6.3763507E-02
endloop
endfacet
facet normal -3.1363465E-02 9.9950767E-01 -8.4295461E-04
outer loop
vertex -2.2366000E-02 -2.1578300E-01 -8.9737877E-02
vertex -6.5513000E-02 -2.1711500E-01 -6.3763507E-02
vertex -1.3179000E-02 -2.1547200E-01 -6.2793538E-02
endloop
endfacet
facet normal -9.8080534E-01 5.8713898E-02 1.8593983E-01
outer loop
vertex -4.3327998E-02 -5.3691000E-02 2.4420360E-02
vertex -4.9247999E-02 -3.4189999E-02 -1.2964570E-02
vertex -5.1215000E-02 -1.2812400E-01 6.3211578E-03
endloop
endfacet
facet normal -9.6333420E-01 -2.5423488E-01 -8.5742950E-02
outer loop
vertex -7.9333000E-02 -4.2017002E-02 4.4498261E-02
vertex -9.1776997E-02 1.0903000E-02 2.7396180E-02
vertex -7.7186003E-02 -4.4257998E-02 2.7021190E-02
endloop
endfacet
facet normal -9.7509468E-01 -1.9535607E-01 1.0500657E-01
outer loop
vertex -8.9980997E-02 1.1134000E-02 4.4503652E-02
vertex -9.1776997E-02 1.0903000E-02 2.7396180E-02
vertex -7.9333000E-02 -4.2017002E-02 4.4498261E-02
endloop
endfacet
facet normal -8.7315536E-01 4.7732145E-01 -9.8811723E-02
outer loop
vertex -6.3382000E-02 6.2693000E-02 2.6659740E-02
vertex -9.1776997E-02 1.0903000E-02 2.7396180E-02
vertex -6.4599000E-02 6.4159997E-02 4.4500329E-02
endloop
endfacet
facet normal -8.9844763E-01 4.3006620E-01 8.8514917E-02
outer loop
vertex -8.9980997E-02 1.1134000E-02 4.4503652E-02
vertex -6.4599000E-02 6.4159997E-02 4.4500329E-02
vertex -9.1776997E-02 1.0903000E-02 2.7396180E-02
endloop
endfacet
facet normal -5.0004983E-01 8.5963237E-01 -1.0479692E-01
outer loop
vertex -6.4599000E-02 6.4159997E-02 4.4500329E-02
vertex -1.7406000E-02 8.9268997E-02 2.5278959E-02
vertex -6.3382000E-02 6.2693000E-02 2.6659740E-02
endloop
endfacet
facet normal -3.7858078E-01 8.9426452E-01 2.3867850E-01
outer loop
vertex 1.1400000E-04 9.1554999E-02 4.4503331E-02
vertex -1.7406000E-02 8.9268997E-02 2.5278959E-02
vertex -6.4599000E-02 6.4159997E-02 4.4500329E-02
endloop
endfacet
facet normal -3.2429005E-05 -3.2998927E-05 1.0000000E+00
outer loop
vertex 1.1400000E-04 9.1554999E-02 4.4503331E-02
vertex -6.4599000E-02 6.4159997E-02 4.4500329E-02
vertex -4.2977002E-02 3.2977000E-02 4.4500001E-02
endloop
endfacet
facet normal -9.4541133E-04 1.2939679E-02 9.9991584E-01
outer loop
vertex 3.8200000E-04 -9.2639998E-02 4.4727299E-02
vertex -4.8542999E-02 -7.8184001E-02 4.4493970E-02
vertex -2.6958000E-02 -1.3065700E-01 4.5193419E-02
endloop
endfacet
facet normal -3.1353733E-01 -5.0532278E-02 -9.4823033E-01
outer loop
vertex -4.3327998E-02 -5.3691000E-02 2.4420360E-02
vertex -4.1042000E-02 -1.0655000E-01 2.6481399E-02
vertex -5.6373999E-02 -1.2520000E-02 2.6540039E-02
endloop
endfacet
facet normal -2.6176542E-02 1.3919949E-07 -9.9965733E-01
outer loop
vertex -5.3617001E-02 -7.5044997E-02 2.6404019E-02
vertex -7.7186003E-02 -4.4257998E-02 2.7021190E-02
vertex -6.3382000E-02 6.2693000E-02 2.6659740E-02
endloop
endfacet
facet normal 1.1896786E-02 2.6998636E-03 -9.9992555E-01
outer loop
vertex -5.3617001E-02 -7.5044997E-02 2.6404019E-02
vertex -6.3382000E-02 6.2693000E-02 2.6659740E-02
vertex -5.6373999E-02 -1.2520000E-02 2.6540039E-02
endloop
endfacet
facet normal 1.3043696E-02 2.7504042E-03 -9.9991113E-01
outer loop
vertex -5.3617001E-02 -7.5044997E-02 2.6404019E-02
vertex -5.6373999E-02 -1.2520000E-02 2.6540039E-02
vertex -4.1042000E-02 -1.0655000E-01 2.6481399E-02
endloop
endfacet
facet normal -3.2279845E-02 -1.4170248E-03 -9.9947786E-01
outer loop
vertex -5.6373999E-02 -1.2520000E-02 2.6540039E-02
vertex -6.3382000E-02 6.2693000E-02 2.6659740E-02
vertex -4.1893002E-02 5.0523002E-02 2.5982970E-02
endloop
endfacet
facet normal -2.5850266E-02 -4.2000804E-05 -9.9966586E-01
outer loop
vertex -6.3382000E-02 6.2693000E-02 2.6659740E-02
vertex -7.7186003E-02 -4.4257998E-02 2.7021190E-02
vertex -9.1776997E-02 1.0903000E-02 2.7396180E-02
endloop
endfacet
facet normal -3.0756099E-02 1.2761930E-03 -9.9952608E-01
outer loop
vertex -4.1893002E-02 5.0523002E-02 2.5982970E-02
vertex -6.3382000E-02 6.2693000E-02 2.6659740E-02
vertex -1.7406000E-02 8.9268997E-02 2.5278959E-02
endloop
endfacet
facet normal 4.3236840E-05 -3.4904162E-05 1.0000000E+00
outer loop
vertex 6.1866000E-02 6.5853000E-02 4.4500008E-02
vertex 3.9167002E-02 -3.9857000E-02 4.4497300E-02
vertex 7.6079004E-02 -4.7711000E-02 4.4495430E-02
endloop
endfacet
facet normal -1.0571759E-04 -2.9193325E-06 1.0000000E+00
outer loop
vertex 3.9167002E-02 -3.9857000E-02 4.4497300E-02
vertex 6.1866000E-02 6.5853000E-02 4.4500008E-02
vertex 3.0784000E-02 4.4231001E-02 4.4496659E-02
endloop
endfacet
facet normal 6.0801471E-05 -1.0158090E-04 1.0000000E+00
outer loop
vertex 3.0784000E-02 4.4231001E-02 4.4496659E-02
vertex 1.1400000E-04 9.1554999E-02 4.4503331E-02
vertex -4.2977002E-02 3.2977000E-02 4.4500001E-02
endloop
endfacet
facet normal -1.0766672E-05 -1.7978467E-05 1.0000000E+00
outer loop
vertex -6.4599000E-02 6.4159997E-02 4.4500329E-02
vertex -7.9333000E-02 -4.2017002E-02 4.4498261E-02
vertex -4.2977002E-02 3.2977000E-02 4.4500001E-02
endloop
endfacet
facet normal 3.5725352E-05 -8.8244822E-05 1.0000000E+00
outer loop
vertex -4.8542999E-02 -7.8184001E-02 4.4493970E-02
vertex -3.7678000E-02 -3.7648998E-02 4.4497158E-02
vertex -7.9333000E-02 -4.2017002E-02 4.4498261E-02
endloop
endfacet
facet normal 3.0452509E-05 -3.7960930E-05 1.0000000E+00
outer loop
vertex -4.2977002E-02 3.2977000E-02 4.4500001E-02
vertex -7.9333000E-02 -4.2017002E-02 4.4498261E-02
vertex -3.7678000E-02 -3.7648998E-02 4.4497158E-02
endloop
endfacet
facet normal 2.4165500E-04 -5.3006592E-05 1.0000000E+00
outer loop
vertex -6.4599000E-02 6.4159997E-02 4.4500329E-02
vertex -8.9980997E-02 1.1134000E-02 4.4503652E-02
vertex -7.9333000E-02 -4.2017002E-02 4.4498261E-02
endloop
endfacet
facet normal 2.1638196E-05 -1.3641285E-04 1.0000000E+00
outer loop
vertex 7.6079004E-02 -4.7711000E-02 4.4495430E-02
vertex 3.9167002E-02 -3.9857000E-02 4.4497300E-02
vertex -4.8542999E-02 -7.8184001E-02 4.4493970E-02
endloop
endfacet
facet normal -4.0712198E-06 -7.7577759E-05 1.0000000E+00
outer loop
vertex -3.7678000E-02 -3.7648998E-02 4.4497158E-02
vertex -4.8542999E-02 -7.8184001E-02 4.4493970E-02
vertex 3.9167002E-02 -3.9857000E-02 4.4497300E-02
endloop
endfacet
facet normal 2.3918477E-01 2.9895836E-02 9.7051364E-01
outer loop
vertex 6.1866000E-02 6.5853000E-02 4.4500008E-02
vertex 7.6079004E-02 -4.7711000E-02 4.4495430E-02
vertex 9.0131000E-02 9.2559997E-03 3.9277472E-02
endloop
endfacet
facet normal 2.6835655E-03 -1.0926756E-02 -9.9993670E-01
outer loop
vertex -4.8542999E-02 -7.8184001E-02 4.4493970E-02
vertex 7.6079004E-02 -4.7711000E-02 4.4495430E-02
vertex 4.3898001E-02 -8.4788002E-02 4.4814222E-02
endloop
endfacet
facet normal 4.5557922E-01 1.0470625E-02 -8.9013368E-01
outer loop
vertex 3.9730001E-02 2.0624001E-02 -4.6131559E-02
vertex 3.0660000E-02 -1.5869001E-02 -5.1202942E-02
vertex 1.3470000E-02 2.8461000E-02 -5.9479501E-02
endloop
endfacet
facet normal 1.9389864E-02 -3.2228917E-01 -9.4644272E-01
outer loop
vertex 3.0660000E-02 -1.5869001E-02 -5.1202942E-02
vertex -1.1918000E-02 -4.1189000E-02 -4.3453101E-02
vertex -2.7585000E-02 -1.9179000E-02 -5.1269069E-02
endloop
endfacet
facet normal -3.7266147E-01 -7.4864939E-02 -9.2494255E-01
outer loop
vertex -1.7103000E-02 2.6815001E-02 -5.9215050E-02
vertex -2.7585000E-02 -1.9179000E-02 -5.1269069E-02
vertex -3.6052000E-02 1.3270000E-02 -5.0484121E-02
endloop
endfacet
facet normal -2.7070671E-05 -2.9946194E-05 1.0000000E+00
outer loop
vertex -4.0240999E-02 4.0240999E-02 3.4499999E-02
vertex -2.1751000E-02 -5.2606001E-02 3.4497719E-02
vertex 4.6941001E-02 -2.2522001E-02 3.4500480E-02
endloop
endfacet
facet normal 6.9442001E-07 8.6213759E-06 1.0000000E+00
outer loop
vertex -4.0240999E-02 4.0240999E-02 3.4499999E-02
vertex 4.6941001E-02 -2.2522001E-02 3.4500480E-02
vertex 3.8936999E-02 3.6024000E-02 3.4499981E-02
endloop
endfacet
facet normal 9.4776237E-01 7.1097203E-02 3.1095296E-01
outer loop
vertex -4.0240999E-02 4.0240999E-02 3.4499999E-02
vertex -4.2977002E-02 3.2977000E-02 4.4500001E-02
vertex -3.7678000E-02 -3.7648998E-02 4.4497158E-02
endloop
endfacet
facet normal -4.2008359E-02 -7.8874791E-01 6.1327976E-01
outer loop
vertex -4.0240999E-02 4.0240999E-02 3.4499999E-02
vertex 3.8936999E-02 3.6024000E-02 3.4499981E-02
vertex 3.0784000E-02 4.4231001E-02 4.4496659E-02
endloop
endfacet
facet normal -6.9870830E-01 -9.5528588E-02 -7.0900005E-01
outer loop
vertex 3.8936999E-02 3.6024000E-02 3.4499981E-02
vertex 4.6941001E-02 -2.2522001E-02 3.4500480E-02
vertex 3.9167002E-02 -3.9857000E-02 4.4497300E-02
endloop
endfacet
facet normal -2.4743971E-01 5.6491673E-01 7.8717381E-01
outer loop
vertex 4.6941001E-02 -2.2522001E-02 3.4500480E-02
vertex -2.1751000E-02 -5.2606001E-02 3.4497719E-02
vertex 3.9167002E-02 -3.9857000E-02 4.4497300E-02
endloop
endfacet
facet normal -1.0136446E-02 2.7682655E-02 -9.9956530E-01
outer loop
vertex -1.7103000E-02 2.6815001E-02 -5.9215050E-02
vertex 1.3470000E-02 2.8461000E-02 -5.9479501E-02
vertex 3.5019999E-03 -3.0401999E-02 -6.1008610E-02
endloop
endfacet
facet normal -3.2664168E-01 -8.8132150E-02 -9.4103026E-01
outer loop
vertex -1.7103000E-02 2.6815001E-02 -5.9215050E-02
vertex 3.5019999E-03 -3.0401999E-02 -6.1008610E-02
vertex -2.7585000E-02 -1.9179000E-02 -5.1269069E-02
endloop
endfacet
facet normal 3.5641605E-01 -3.6103051E-02 -9.3362957E-01
outer loop
vertex 3.5019999E-03 -3.0401999E-02 -6.1008610E-02
vertex 1.3470000E-02 2.8461000E-02 -5.9479501E-02
vertex 3.0660000E-02 -1.5869001E-02 -5.1202942E-02
endloop
endfacet
facet normal -8.5687095E-01 9.8980509E-02 5.0593978E-01
outer loop
vertex -1.0193700E-01 -2.4549399E-01 1.3230040E-02
vertex -6.0343999E-02 -2.4549299E-01 8.3672687E-02
vertex -7.9870000E-02 -2.1758500E-01 4.5143180E-02
endloop
endfacet
facet normal 1.8930041E-05 -1.0000000E+00 4.7154037E-05
outer loop
vertex 1.0193600E-01 -2.4549501E-01 -1.3228440E-02
vertex 3.1091001E-02 -2.4549800E-01 -4.8305701E-02
vertex 8.8997997E-02 -2.4549700E-01 -5.0379839E-02
endloop
endfacet
facet normal -5.1392806E-05 -9.9999815E-01 -1.9161601E-03
outer loop
vertex 8.8997997E-02 -2.4549700E-01 -5.0379839E-02
vertex 3.1091001E-02 -2.4549800E-01 -4.8305701E-02
vertex 6.2747002E-02 -2.4543600E-01 -8.1513003E-02
endloop
endfacet
facet normal 1.1109471E-03 -9.9999917E-01 -8.0812158E-04
outer loop
vertex 6.2747002E-02 -2.4543600E-01 -8.1513003E-02
vertex 3.1091001E-02 -2.4549800E-01 -4.8305701E-02
vertex -2.7000001E-03 -2.4549000E-01 -1.0466100E-01
endloop
endfacet
facet normal -4.3932356E-05 -1.0000000E+00 -1.1564849E-04
outer loop
vertex -5.3881001E-02 -2.4549800E-01 -1.6026679E-02
vertex -2.7000001E-03 -2.4549000E-01 -1.0466100E-01
vertex 3.1091001E-02 -2.4549800E-01 -4.8305701E-02
endloop
endfacet
facet normal -1.5400018E-03 -9.9999601E-01 -2.3925421E-03
outer loop
vertex -5.3881001E-02 -2.4549800E-01 -1.6026679E-02
vertex -1.0193700E-01 -2.4549399E-01 1.3230040E-02
vertex -9.5610000E-02 -2.4537900E-01 -3.8905051E-02
endloop
endfacet
facet normal -1.9007662E-03 -9.9999672E-01 -1.7345293E-03
outer loop
vertex -5.3881001E-02 -2.4549800E-01 -1.6026679E-02
vertex -9.5610000E-02 -2.4537900E-01 -3.8905051E-02
vertex -6.4989999E-02 -2.4536701E-01 -7.9375312E-02
endloop
endfacet
facet normal -2.6269432E-03 -9.9999523E-01 -1.6071817E-03
outer loop
vertex -5.3881001E-02 -2.4549800E-01 -1.6026679E-02
vertex -6.4989999E-02 -2.4536701E-01 -7.9375312E-02
vertex -2.7000001E-03 -2.4549000E-01 -1.0466100E-01
endloop
endfacet
facet normal -3.2314285E-05 -9.9999952E-01 8.8634517E-04
outer loop
vertex 2.8577000E-02 -2.4548300E-01 9.8195352E-02
vertex -6.0343999E-02 -2.4549299E-01 8.3672687E-02
vertex 6.4240001E-02 -2.4550000E-01 8.0313161E-02
endloop
endfacet
facet normal -5.3994267E-05 -1.0000000E+00 8.2369865E-05
outer loop
vertex -2.4204001E-02 -2.4549800E-01 4.6578571E-02
vertex 6.4240001E-02 -2.4550000E-01 8.0313161E-02
vertex -6.0343999E-02 -2.4549299E-01 8.3672687E-02
endloop
endfacet
facet normal 1.7934309E-06 -9.9999994E-01 -6.3892097E-05
outer loop
vertex 6.4240001E-02 -2.4550000E-01 8.0313161E-02
vertex -2.4204001E-02 -2.4549800E-01 4.6578571E-02
vertex 4.4279002E-02 -2.4549700E-01 3.2874871E-02
endloop
endfacet
facet normal -7.7203324E-05 -1.0000000E+00 5.9757775E-05
outer loop
vertex -6.0343999E-02 -2.4549299E-01 8.3672687E-02
vertex -1.0193700E-01 -2.4549399E-01 1.3230040E-02
vertex -2.4204001E-02 -2.4549800E-01 4.6578571E-02
endloop
endfacet
facet normal -6.4730462E-05 -1.0000000E+00 3.0684419E-05
outer loop
vertex -1.0193700E-01 -2.4549399E-01 1.3230040E-02
vertex -5.3881001E-02 -2.4549800E-01 -1.6026679E-02
vertex -2.4204001E-02 -2.4549800E-01 4.6578571E-02
endloop
endfacet
facet normal 4.1264431E-03 -9.9998981E-01 -1.7994542E-03
outer loop
vertex 6.4240001E-02 -2.4550000E-01 8.0313161E-02
vertex 4.4279002E-02 -2.4549700E-01 3.2874871E-02
vertex 9.5682003E-02 -2.4529500E-01 3.8495161E-02
endloop
endfacet
facet normal 3.9353472E-05 -1.0000000E+00 5.9051586E-06
outer loop
vertex 4.4279002E-02 -2.4549700E-01 3.2874871E-02
vertex 3.1091001E-02 -2.4549800E-01 -4.8305701E-02
vertex 1.0193600E-01 -2.4549501E-01 -1.3228440E-02
endloop
endfacet
facet normal 3.4611393E-03 -9.9998474E-01 4.2852061E-03
outer loop
vertex 4.4279002E-02 -2.4549700E-01 3.2874871E-02
vertex 1.0193600E-01 -2.4549501E-01 -1.3228440E-02
vertex 9.5682003E-02 -2.4529500E-01 3.8495161E-02
endloop
endfacet
facet normal 0.0000000E+00 -9.9999994E-01 0.0000000E+00
outer loop
vertex 5.4375999E-02 -2.5549999E-01 3.8301549E-03
vertex 8.7440005E-03 -2.5549999E-01 5.1283821E-02
vertex -4.4875000E-02 -2.5549999E-01 2.8286939E-02
endloop
endfacet
facet normal -0.0000000E+00 -1.0000000E+00 0.0000000E+00
outer loop
vertex 5.4375999E-02 -2.5549999E-01 3.8301549E-03
vertex -4.4875000E-02 -2.5549999E-01 2.8286939E-02
vertex -3.8936999E-02 -2.5549999E-01 -3.6024950E-02
endloop
endfacet
facet normal 0.0000000E+00 -1.0000000E+00 0.0000000E+00
outer loop
vertex 5.4375999E-02 -2.5549999E-01 3.8301549E-03
vertex -3.8936999E-02 -2.5549999E-01 -3.6024950E-02
vertex 1.8069001E-02 -2.5549999E-01 -4.8785150E-02
endloop
endfacet
facet normal 5.6923217E-01 -7.2227806E-01 -3.9279658E-01
outer loop
vertex 5.4375999E-02 -2.5549999E-01 3.8301549E-03
vertex 1.8069001E-02 -2.5549999E-01 -4.8785150E-02
vertex 3.1091001E-02 -2.4549800E-01 -4.8305701E-02
endloop
endfacet
facet normal -2.0735930E-01 3.1437570E-01 -9.2637461E-01
outer loop
vertex 1.8069001E-02 -2.5549999E-01 -4.8785150E-02
vertex -3.8936999E-02 -2.5549999E-01 -3.6024950E-02
vertex 3.1091001E-02 -2.4549800E-01 -4.8305701E-02
endloop
endfacet
facet normal -6.0597181E-01 -7.9351610E-01 -5.5950169E-02
outer loop
vertex -3.8936999E-02 -2.5549999E-01 -3.6024950E-02
vertex -4.4875000E-02 -2.5549999E-01 2.8286939E-02
vertex -5.3881001E-02 -2.4549800E-01 -1.6026679E-02
endloop
endfacet
facet normal -2.9795212E-01 -6.5468979E-01 6.9469839E-01
outer loop
vertex -4.4875000E-02 -2.5549999E-01 2.8286939E-02
vertex 8.7440005E-03 -2.5549999E-01 5.1283821E-02
vertex -2.4204001E-02 -2.4549800E-01 4.6578571E-02
endloop
endfacet
facet normal 4.4268313E-01 -7.8918976E-01 4.2568925E-01
outer loop
vertex 8.7440005E-03 -2.5549999E-01 5.1283821E-02
vertex 5.4375999E-02 -2.5549999E-01 3.8301549E-03
vertex 4.4279002E-02 -2.4549700E-01 3.2874871E-02
endloop
endfacet
endsolid Created by stlwrite.m 18-Dec-2012 12:23:13
