solid Created by stlwrite.m 08-Jan-2017 18:58:43
facet normal 6.7029500E-01 -5.3620529E-01 5.1301891E-01
outer loop
vertex 4.9986411E-02 -5.7603478E-02 2.5052551E-02
vertex 6.3662648E-02 -3.7597992E-02 2.8093249E-02
vertex 5.2092232E-02 -3.7732512E-02 4.3070205E-02
endloop
endfacet
facet normal 6.4541799E-01 7.6144135E-01 -6.0355380E-02
outer loop
vertex 6.6053890E-02 1.9492509E-02 -7.9857269E-03
vertex 5.4012530E-02 2.9439308E-02 -1.1263087E-02
vertex 5.3192958E-02 3.0940520E-02 -1.0880406E-03
endloop
endfacet
facet normal 1.5709980E-01 9.8524767E-01 -6.7872979E-02
outer loop
vertex -3.5114251E-02 6.4359687E-02 2.8993940E-02
vertex -1.8539134E-02 6.2609755E-02 4.1956834E-02
vertex -2.3300096E-02 6.1655819E-02 1.7089671E-02
endloop
endfacet
facet normal 5.2270716E-01 -1.4871913E-01 -8.3944011E-01
outer loop
vertex 7.8631930E-02 -1.4423358E-02 1.4159316E-03
vertex 6.0337670E-02 -2.3249116E-02 -8.4120268E-03
vertex 7.0507899E-02 -1.6919550E-03 -5.8983397E-03
endloop
endfacet
facet normal -6.0466641E-01 -2.4616784E-01 7.5748271E-01
outer loop
vertex -4.5489382E-02 -1.0278362E-02 9.8082848E-02
vertex -5.8867332E-02 -2.6705099E-02 8.2065411E-02
vertex -4.4064648E-02 -2.7066980E-02 9.3764164E-02
endloop
endfacet
facet normal 3.4712175E-01 9.3768340E-01 1.6008183E-02
outer loop
vertex 1.6853478E-02 5.1292639E-02 2.7069252E-03
vertex -3.9390069E-03 5.8944046E-02 5.3884131E-03
vertex 1.0683428E-02 5.3231630E-02 2.2921503E-02
endloop
endfacet
facet normal 5.9035491E-02 5.5814207E-01 8.2764250E-01
outer loop
vertex 3.6018562E-02 3.5359677E-02 8.2410388E-02
vertex 4.4732569E-03 4.0968601E-02 8.0877982E-02
vertex 5.2779349E-03 2.3597235E-02 9.2535414E-02
endloop
endfacet
facet normal -3.7636462E-01 -8.8533849E-01 2.7299333E-01
outer loop
vertex 3.1143820E-02 -7.4593611E-02 3.3280388E-02
vertex 1.2285429E-02 -6.8224810E-02 2.7935617E-02
vertex 1.1234190E-02 -7.4967727E-02 4.6185185E-03
endloop
endfacet
facet normal 7.4472558E-01 -5.1653749E-01 4.2257878E-01
outer loop
vertex 3.1143820E-02 -7.4593611E-02 3.3280388E-02
vertex 3.2928400E-02 -5.8353592E-02 4.9986281E-02
vertex 2.6430929E-02 -7.0480801E-02 4.6613358E-02
endloop
endfacet
facet normal 3.8894871E-01 -7.6444447E-02 -9.1808242E-01
outer loop
vertex 6.0337670E-02 -2.3249116E-02 -8.4120268E-03
vertex 5.3217351E-02 5.9869038E-03 -1.3862921E-02
vertex 7.0507899E-02 -1.6919550E-03 -5.8983397E-03
endloop
endfacet
facet normal -9.4515347E-01 2.0484211E-01 -2.5441045E-01
outer loop
vertex -7.2393686E-02 4.2661283E-02 4.8996799E-02
vertex -6.4326480E-02 4.6109341E-02 2.1802790E-02
vertex -7.5764179E-02 1.7218553E-02 4.1032862E-02
endloop
endfacet
facet normal 1.0068197E-01 9.9490309E-01 5.5696056E-03
outer loop
vertex -3.1978816E-02 6.3921399E-02 5.0606273E-02
vertex -1.8539134E-02 6.2609755E-02 4.1956834E-02
vertex -3.5114251E-02 6.4359687E-02 2.8993940E-02
endloop
endfacet
facet normal -2.1977384E-01 1.5895318E-02 -9.7542131E-01
outer loop
vertex -3.3105735E-02 7.9656101E-04 -2.2260595E-02
vertex -3.9108790E-02 -1.3544719E-02 -2.1141740E-02
vertex -5.3794142E-02 -8.9977644E-03 -1.7758861E-02
endloop
endfacet
facet normal 6.9568157E-01 -3.9789611E-01 5.9808511E-01
outer loop
vertex 5.2092232E-02 -3.7732512E-02 4.3070205E-02
vertex 6.1950520E-02 -1.8630089E-02 4.4311751E-02
vertex 4.4339769E-02 -3.6918279E-02 5.2629422E-02
endloop
endfacet
facet normal -2.1388488E-01 4.0501031E-01 -8.8894314E-01
outer loop
vertex -5.5486532E-03 4.3635022E-02 -1.3295238E-02
vertex -2.4844814E-02 2.6152469E-02 -1.6617674E-02
vertex -2.1706115E-02 5.0183602E-02 -6.4240680E-03
endloop
endfacet
facet normal 6.8176776E-02 -1.5330306E-01 -9.8582458E-01
outer loop
vertex 1.2085538E-02 3.7757950E-03 -2.1223323E-02
vertex 2.8663089E-02 -4.2340262E-03 -1.8831281E-02
vertex 1.1455457E-02 -1.2478474E-02 -1.8739238E-02
endloop
endfacet
facet normal -2.8105161E-01 -2.8717595E-01 -9.1571832E-01
outer loop
vertex -4.3529056E-02 -2.5054200E-02 -1.5873998E-02
vertex -5.8520425E-02 -3.5329711E-02 -8.0503831E-03
vertex -5.3794142E-02 -8.9977644E-03 -1.7758861E-02
endloop
endfacet
facet normal 6.4734846E-01 7.5872499E-01 7.2638683E-02
outer loop
vertex 5.9847020E-02 2.7482523E-02 3.6909644E-02
vertex 6.3923731E-02 2.2071432E-02 5.7098284E-02
vertex 7.3070712E-02 1.5522857E-02 4.3982450E-02
endloop
endfacet
facet normal 4.8783392E-01 8.7043846E-01 6.5992065E-02
outer loop
vertex 5.9847020E-02 2.7482523E-02 3.6909644E-02
vertex 4.6604648E-02 3.6692981E-02 1.3315012E-02
vertex 3.8073462E-02 4.0172454E-02 3.0485779E-02
endloop
endfacet
facet normal 6.7199403E-01 -4.1526589E-01 6.1317074E-01
outer loop
vertex 4.2495102E-02 6.3077630E-03 8.1107095E-02
vertex 4.7772180E-02 -1.3929743E-02 6.1618052E-02
vertex 5.7196770E-02 -4.7167791E-03 5.7528753E-02
endloop
endfacet
facet normal 1.5405518E-01 -4.3530110E-01 8.8700622E-01
outer loop
vertex 4.4365930E-03 -3.8874511E-02 8.6067170E-02
vertex -2.0187646E-02 -2.6503891E-02 9.6414827E-02
vertex -9.3346061E-03 -4.5333199E-02 8.5289329E-02
endloop
endfacet
facet normal 2.0718348E-01 9.6838045E-01 -1.3897608E-01
outer loop
vertex 1.1489111E-02 5.3498127E-02 -9.5585519E-03
vertex -1.7217323E-02 6.0831018E-02 -1.2583538E-03
vertex -3.9390069E-03 5.8944046E-02 5.3884131E-03
endloop
endfacet
facet normal -9.6334928E-01 1.6203335E-01 -2.1378322E-01
outer loop
vertex -8.2202464E-02 -4.0934938E-03 5.3891938E-02
vertex -7.7040575E-02 2.9952336E-02 5.6435909E-02
vertex -7.5764179E-02 1.7218553E-02 4.1032862E-02
endloop
endfacet
facet normal -2.4138156E-01 6.8623596E-01 6.8615979E-01
outer loop
vertex -1.8197736E-02 5.3002801E-02 6.6374078E-02
vertex -4.8988061E-03 6.2107448E-02 6.1946802E-02
vertex -3.1978816E-02 6.3921399E-02 5.0606273E-02
endloop
endfacet
facet normal 6.4138383E-01 -3.1136399E-02 -7.6658803E-01
outer loop
vertex 7.8631930E-02 -1.4423358E-02 1.4159316E-03
vertex 7.0507899E-02 -1.6919550E-03 -5.8983397E-03
vertex 8.1161410E-02 -2.9154001E-03 3.0648629E-03
endloop
endfacet
facet normal 1.9062783E-01 9.7597116E-01 -1.0555239E-01
outer loop
vertex -4.8988061E-03 6.2107448E-02 6.1946802E-02
vertex 6.9642399E-04 5.9394442E-02 4.6966478E-02
vertex -1.8539134E-02 6.2609755E-02 4.1956834E-02
endloop
endfacet
facet normal 5.4534900E-01 8.3062428E-01 1.1250646E-01
outer loop
vertex 4.3815650E-02 3.6099635E-02 5.0998695E-02
vertex 6.3923731E-02 2.2071432E-02 5.7098284E-02
vertex 5.9847020E-02 2.7482523E-02 3.6909644E-02
endloop
endfacet
facet normal 7.9925954E-01 5.9693336E-01 -6.9675684E-02
outer loop
vertex 7.6573178E-02 6.1892690E-03 -1.2905149E-03
vertex 6.6053890E-02 1.9492509E-02 -7.9857269E-03
vertex 6.9320790E-02 1.8466122E-02 2.0695979E-02
endloop
endfacet
facet normal -7.1218930E-02 2.6153538E-01 -9.6256280E-01
outer loop
vertex -2.4844814E-02 2.6152469E-02 -1.6617674E-02
vertex -5.5486532E-03 4.3635022E-02 -1.3295238E-02
vertex 1.0576847E-02 2.6541496E-02 -1.9132782E-02
endloop
endfacet
facet normal 7.9185164E-01 -3.7445730E-01 4.8244452E-01
outer loop
vertex 7.3576018E-02 -2.1011749E-02 2.3381883E-02
vertex 7.3220663E-02 -4.7256080E-03 3.6605898E-02
vertex 6.1950520E-02 -1.8630089E-02 4.4311751E-02
endloop
endfacet
facet normal -6.2858474E-01 -2.0701173E-01 7.4968493E-01
outer loop
vertex -6.4914696E-02 -6.0028897E-04 8.4467821E-02
vertex -7.4200630E-02 -2.1206187E-02 7.0991948E-02
vertex -4.5489382E-02 -1.0278362E-02 9.8082848E-02
endloop
endfacet
facet normal -9.3209320E-01 8.6565264E-02 -3.5172239E-01
outer loop
vertex -5.3794142E-02 -8.9977644E-03 -1.7758861E-02
vertex -6.0853694E-02 1.5439571E-02 6.9640037E-03
vertex -5.2339301E-02 1.7026141E-02 -1.5209354E-02
endloop
endfacet
facet normal 9.7491479E-01 -2.1954025E-01 3.6649916E-02
outer loop
vertex 7.8631930E-02 -1.4423358E-02 1.4159316E-03
vertex 8.1161410E-02 -2.9154001E-03 3.0648629E-03
vertex 8.1932612E-02 2.9113709E-03 1.7453836E-02
endloop
endfacet
facet normal 1.1464433E-01 -2.2763011E-01 -9.6697527E-01
outer loop
vertex 1.5975904E-02 -4.8171248E-02 -1.2278519E-02
vertex 1.2591060E-03 -4.6750829E-02 -1.4357711E-02
vertex 1.8741544E-02 -3.0217970E-02 -1.6176904E-02
endloop
endfacet
facet normal -9.1044378E-01 9.2019692E-02 -4.0326741E-01
outer loop
vertex -7.5764179E-02 1.7218553E-02 4.1032862E-02
vertex -6.4326480E-02 4.6109341E-02 2.1802790E-02
vertex -6.0853694E-02 1.5439571E-02 6.9640037E-03
endloop
endfacet
facet normal -1.8657723E-01 4.9139366E-01 -8.5071802E-01
outer loop
vertex -2.1706115E-02 5.0183602E-02 -6.4240680E-03
vertex -4.0839083E-02 4.9494527E-02 -2.6259008E-03
vertex -1.7217323E-02 6.0831018E-02 -1.2583538E-03
endloop
endfacet
facet normal 4.8541474E-01 8.7190205E-01 6.4493559E-02
outer loop
vertex 3.8073462E-02 4.0172454E-02 3.0485779E-02
vertex 4.6604648E-02 3.6692981E-02 1.3315012E-02
vertex 2.7770311E-02 4.6692066E-02 1.9893067E-02
endloop
endfacet
facet normal 3.1712543E-02 9.3481667E-02 -9.9511582E-01
outer loop
vertex 1.0576847E-02 2.6541496E-02 -1.9132782E-02
vertex 1.2085538E-02 3.7757950E-03 -2.1223323E-02
vertex -1.2288269E-02 8.9919688E-03 -2.1510063E-02
endloop
endfacet
facet normal 6.3942868E-01 -4.1808057E-01 6.4524376E-01
outer loop
vertex 1.3410363E-02 -5.8713041E-02 6.9095515E-02
vertex 1.9650046E-02 -6.5027080E-02 5.8820933E-02
vertex 3.2928400E-02 -5.8353592E-02 4.9986281E-02
endloop
endfacet
facet normal 8.6055481E-01 -4.9016461E-01 1.3850668E-01
outer loop
vertex 5.6266520E-02 -5.6400601E-02 7.5050704E-03
vertex 7.1285032E-02 -3.2424141E-02 -9.5545483E-04
vertex 6.3662648E-02 -3.7597992E-02 2.8093249E-02
endloop
endfacet
facet normal 8.5019743E-01 -1.7463621E-01 4.9665526E-01
outer loop
vertex 7.3070712E-02 1.5522857E-02 4.3982450E-02
vertex 6.5017506E-02 6.6487240E-03 5.4647937E-02
vertex 7.3220663E-02 -4.7256080E-03 3.6605898E-02
endloop
endfacet
facet normal -2.7222139E-01 -9.2399716E-01 2.6856062E-01
outer loop
vertex -2.5384013E-02 -6.8634652E-02 -8.1629939E-03
vertex -4.4111599E-04 -7.6271571E-02 -9.1553302E-03
vertex -1.0672000E-02 -6.8051979E-02 8.7542739E-03
endloop
endfacet
facet normal -9.8864689E-02 5.5133832E-01 8.2840317E-01
outer loop
vertex -1.5622617E-02 2.6232790E-02 8.8286988E-02
vertex 5.2779349E-03 2.3597235E-02 9.2535414E-02
vertex 4.4732569E-03 4.0968601E-02 8.0877982E-02
endloop
endfacet
facet normal -1.0401479E-01 -2.5284597E-01 -9.6189904E-01
outer loop
vertex -3.0485401E-02 -5.6019548E-02 -9.8910034E-03
vertex -4.4449884E-02 -4.1636951E-02 -1.2161584E-02
vertex -2.7483946E-02 -3.0183280E-02 -1.7006919E-02
endloop
endfacet
facet normal 5.7150489E-01 3.9394710E-02 -8.1965256E-01
outer loop
vertex 7.0507899E-02 -1.6919550E-03 -5.8983397E-03
vertex 6.6053890E-02 1.9492509E-02 -7.9857269E-03
vertex 7.6573178E-02 6.1892690E-03 -1.2905149E-03
endloop
endfacet
facet normal 8.1140661E-01 -3.5149202E-02 5.8342433E-01
outer loop
vertex 6.3923731E-02 2.2071432E-02 5.7098284E-02
vertex 6.5017506E-02 6.6487240E-03 5.4647937E-02
vertex 7.3070712E-02 1.5522857E-02 4.3982450E-02
endloop
endfacet
facet normal -3.0624959E-01 -9.0456945E-01 2.9658958E-01
outer loop
vertex -3.8034059E-02 -5.8791000E-02 8.7461090E-03
vertex -1.0672000E-02 -6.8051979E-02 8.7542739E-03
vertex -3.6085557E-02 -5.2202638E-02 3.0851936E-02
endloop
endfacet
facet normal 7.8745939E-02 -1.1075924E-01 -9.9072272E-01
outer loop
vertex 1.8741544E-02 -3.0217970E-02 -1.6176904E-02
vertex 2.2470500E-04 -2.5390379E-02 -1.8188391E-02
vertex 1.1455457E-02 -1.2478474E-02 -1.8739238E-02
endloop
endfacet
facet normal -3.0815026E-01 -9.0462500E-01 2.9444355E-01
outer loop
vertex -3.6085557E-02 -5.2202638E-02 3.0851936E-02
vertex -1.0672000E-02 -6.8051979E-02 8.7542739E-03
vertex -1.5192927E-02 -5.4168120E-02 4.6678554E-02
endloop
endfacet
facet normal 1.7650883E-01 9.8312175E-01 -4.8127986E-02
outer loop
vertex -3.5114251E-02 6.4359687E-02 2.8993940E-02
vertex -2.3300096E-02 6.1655819E-02 1.7089671E-02
vertex -3.8811240E-02 6.3992351E-02 7.9316162E-03
endloop
endfacet
facet normal 5.6815857E-01 -4.5048735E-01 6.8866324E-01
outer loop
vertex 2.6723130E-02 -2.7321540E-02 7.8646936E-02
vertex 1.3410363E-02 -5.8713041E-02 6.9095515E-02
vertex 3.1967372E-02 -4.1848529E-02 6.4817555E-02
endloop
endfacet
facet normal -9.1207582E-01 -6.2872022E-02 -4.0517256E-01
outer loop
vertex -6.6187337E-02 -4.6966650E-02 1.1014194E-02
vertex -7.3910274E-02 -3.9556172E-02 2.7249232E-02
vertex -5.8520425E-02 -3.5329711E-02 -8.0503831E-03
endloop
endfacet
facet normal 6.7524642E-01 7.3742867E-01 -1.5531465E-02
outer loop
vertex 5.9847020E-02 2.7482523E-02 3.6909644E-02
vertex 7.3070712E-02 1.5522857E-02 4.3982450E-02
vertex 6.9320790E-02 1.8466122E-02 2.0695979E-02
endloop
endfacet
facet normal -1.6580912E-01 4.2095122E-01 -8.9180005E-01
outer loop
vertex -2.4844814E-02 2.6152469E-02 -1.6617674E-02
vertex -5.3959802E-02 3.6476128E-02 -6.3314144E-03
vertex -4.0839083E-02 4.9494527E-02 -2.6259008E-03
endloop
endfacet
facet normal -4.9909243E-01 7.8759885E-01 3.6137891E-01
outer loop
vertex -5.1188238E-02 6.3800462E-02 3.2211885E-02
vertex -6.1484743E-02 6.0358007E-02 2.5494188E-02
vertex -7.2393686E-02 4.2661283E-02 4.8996799E-02
endloop
endfacet
facet normal 6.0572189E-01 -5.1201600E-01 6.0904890E-01
outer loop
vertex 3.1967372E-02 -4.1848529E-02 6.4817555E-02
vertex 1.3410363E-02 -5.8713041E-02 6.9095515E-02
vertex 3.2928400E-02 -5.8353592E-02 4.9986281E-02
endloop
endfacet
facet normal -2.3973545E-02 -1.4449063E-01 -9.8921573E-01
outer loop
vertex -9.3330340E-03 -6.5083072E-02 -1.1423297E-02
vertex -1.4113233E-02 -3.9737761E-02 -1.5009534E-02
vertex 1.2591060E-03 -4.6750829E-02 -1.4357711E-02
endloop
endfacet
facet normal -3.0768263E-01 3.8878414E-01 8.6843443E-01
outer loop
vertex -4.7294259E-02 1.0773671E-02 8.8018730E-02
vertex -4.5489382E-02 -1.0278362E-02 9.8082848E-02
vertex -3.0012170E-02 6.7031098E-04 9.8664813E-02
endloop
endfacet
facet normal 6.0118955E-01 1.3271217E-01 7.8800923E-01
outer loop
vertex 3.6018562E-02 3.5359677E-02 8.2410388E-02
vertex 2.4128374E-02 1.9343341E-02 9.4179057E-02
vertex 4.9943838E-02 1.5670881E-02 7.5102367E-02
endloop
endfacet
facet normal 5.4563534E-01 -2.9307017E-01 7.8510642E-01
outer loop
vertex 1.5884021E-02 -1.9968094E-02 8.9693360E-02
vertex 3.3765439E-02 -5.8285552E-03 8.2544193E-02
vertex 1.7803509E-02 4.4272500E-04 9.5978446E-02
endloop
endfacet
facet normal -4.0501699E-01 3.6585248E-01 8.3792186E-01
outer loop
vertex -4.7294259E-02 1.0773671E-02 8.8018730E-02
vertex -6.4914696E-02 -6.0028897E-04 8.4467821E-02
vertex -4.5489382E-02 -1.0278362E-02 9.8082848E-02
endloop
endfacet
facet normal -5.7394080E-02 2.3465616E-01 -9.7038263E-01
outer loop
vertex -1.2288269E-02 8.9919688E-03 -2.1510063E-02
vertex -3.3105735E-02 7.9656101E-04 -2.2260595E-02
vertex -2.4844814E-02 2.6152469E-02 -1.6617674E-02
endloop
endfacet
facet normal -4.2237125E-02 -2.6073530E-01 -9.6448594E-01
outer loop
vertex -3.0485401E-02 -5.6019548E-02 -9.8910034E-03
vertex -2.7483946E-02 -3.0183280E-02 -1.7006919E-02
vertex -1.4113233E-02 -3.9737761E-02 -1.5009534E-02
endloop
endfacet
facet normal -4.3968466E-01 4.3601266E-01 7.8521985E-01
outer loop
vertex -7.0664234E-02 1.9787841E-02 6.9927350E-02
vertex -6.4914696E-02 -6.0028897E-04 8.4467821E-02
vertex -4.7294259E-02 1.0773671E-02 8.8018730E-02
endloop
endfacet
facet normal 3.7755078E-01 8.9370720E-02 -9.2166609E-01
outer loop
vertex 5.3217351E-02 5.9869038E-03 -1.3862921E-02
vertex 4.2881981E-02 2.1151997E-02 -1.6626190E-02
vertex 5.4012530E-02 2.9439308E-02 -1.1263087E-02
endloop
endfacet
facet normal 6.4017934E-01 -4.4269752E-02 -7.6694888E-01
outer loop
vertex 8.1161410E-02 -2.9154001E-03 3.0648629E-03
vertex 7.0507899E-02 -1.6919550E-03 -5.8983397E-03
vertex 7.6573178E-02 6.1892690E-03 -1.2905149E-03
endloop
endfacet
facet normal -3.4385777E-01 -8.4529728E-01 4.0894282E-01
outer loop
vertex -3.7436273E-02 -3.8205922E-02 7.6313071E-02
vertex -4.4064648E-02 -2.7066980E-02 9.3764164E-02
vertex -5.8867332E-02 -2.6705099E-02 8.2065411E-02
endloop
endfacet
facet normal -5.9283602E-01 -7.5646305E-01 2.7624083E-01
outer loop
vertex -7.3910274E-02 -3.9556172E-02 2.7249232E-02
vertex -7.4827112E-02 -2.9301500E-02 5.3363204E-02
vertex -8.2873128E-02 -2.2578040E-02 5.4507423E-02
endloop
endfacet
facet normal -2.4063002E-01 4.7833163E-01 8.4456855E-01
outer loop
vertex -4.7294259E-02 1.0773671E-02 8.8018730E-02
vertex -3.0012170E-02 6.7031098E-04 9.8664813E-02
vertex -1.5622617E-02 2.6232790E-02 8.8286988E-02
endloop
endfacet
facet normal 5.0579220E-01 -9.3460158E-02 -8.5757768E-01
outer loop
vertex 7.1285032E-02 -3.2424141E-02 -9.5545483E-04
vertex 6.0337670E-02 -2.3249116E-02 -8.4120268E-03
vertex 7.8631930E-02 -1.4423358E-02 1.4159316E-03
endloop
endfacet
facet normal 1.8019196E-01 -1.6371131E-01 9.6991217E-01
outer loop
vertex -1.6059099E-02 -4.2388099E-03 1.0285062E-01
vertex 9.7282499E-04 -1.2502591E-02 9.8291561E-02
vertex 1.2776729E-03 5.3583579E-03 1.0124967E-01
endloop
endfacet
facet normal -8.0969626E-01 -2.9635993E-01 -5.0652015E-01
outer loop
vertex -5.6864742E-02 -5.3540189E-02 -4.2299205E-05
vertex -6.6187337E-02 -4.6966650E-02 1.1014194E-02
vertex -5.8520425E-02 -3.5329711E-02 -8.0503831E-03
endloop
endfacet
facet normal 7.8367996E-01 -5.7240868E-01 2.4123451E-01
outer loop
vertex 5.6266520E-02 -5.6400601E-02 7.5050704E-03
vertex 6.3662648E-02 -3.7597992E-02 2.8093249E-02
vertex 4.9986411E-02 -5.7603478E-02 2.5052551E-02
endloop
endfacet
facet normal 9.1609770E-01 -2.4050598E-01 3.2081443E-01
outer loop
vertex 8.1932612E-02 2.9113709E-03 1.7453836E-02
vertex 7.3220663E-02 -4.7256080E-03 3.6605898E-02
vertex 7.3576018E-02 -2.1011749E-02 2.3381883E-02
endloop
endfacet
facet normal -3.4468707E-01 5.8299232E-01 7.3573822E-01
outer loop
vertex -4.1200519E-02 3.6687240E-02 7.0339918E-02
vertex -7.0664234E-02 1.9787841E-02 6.9927350E-02
vertex -4.7294259E-02 1.0773671E-02 8.8018730E-02
endloop
endfacet
facet normal 2.7972081E-01 -1.0970452E-01 -9.5379305E-01
outer loop
vertex 3.6832351E-02 -1.3545017E-02 -1.6421637E-02
vertex 5.3217351E-02 5.9869038E-03 -1.3862921E-02
vertex 6.0337670E-02 -2.3249116E-02 -8.4120268E-03
endloop
endfacet
facet normal -1.4131701E-01 -1.6477394E-01 -9.7615516E-01
outer loop
vertex -3.0485401E-02 -5.6019548E-02 -9.8910034E-03
vertex -1.4113233E-02 -3.9737761E-02 -1.5009534E-02
vertex -9.3330340E-03 -6.5083072E-02 -1.1423297E-02
endloop
endfacet
facet normal 6.9352674E-01 -3.1271634E-01 6.4902169E-01
outer loop
vertex 6.5017506E-02 6.6487240E-03 5.4647937E-02
vertex 4.9943838E-02 1.5670881E-02 7.5102367E-02
vertex 5.7196770E-02 -4.7167791E-03 5.7528753E-02
endloop
endfacet
facet normal -1.6742744E-01 4.8658231E-01 -8.5744137E-01
outer loop
vertex -5.5486532E-03 4.3635022E-02 -1.3295238E-02
vertex -2.1706115E-02 5.0183602E-02 -6.4240680E-03
vertex -1.7217323E-02 6.0831018E-02 -1.2583538E-03
endloop
endfacet
facet normal -3.9910269E-01 -8.7719965E-01 2.6690429E-01
outer loop
vertex -5.8867332E-02 -2.6705099E-02 8.2065411E-02
vertex -5.7830658E-02 -3.5000701E-02 5.6351479E-02
vertex -3.7436273E-02 -3.8205922E-02 7.6313071E-02
endloop
endfacet
facet normal 4.3957311E-01 8.9808285E-01 -1.4920849E-02
outer loop
vertex 1.5290174E-02 5.2651342E-02 7.1037367E-02
vertex 2.1649422E-02 4.9375713E-02 6.1223477E-02
vertex 6.9642399E-04 5.9394442E-02 4.6966478E-02
endloop
endfacet
facet normal 4.1629902E-01 9.0883160E-01 2.6837699E-02
outer loop
vertex 2.1649422E-02 4.9375713E-02 6.1223477E-02
vertex 1.9408250E-02 5.0950821E-02 4.2648450E-02
vertex 6.9642399E-04 5.9394442E-02 4.6966478E-02
endloop
endfacet
facet normal -3.3814073E-01 6.2127203E-01 7.0688188E-01
outer loop
vertex -5.0486524E-02 5.0311804E-02 5.2752234E-02
vertex -7.2393686E-02 4.2661283E-02 4.8996799E-02
vertex -7.0664234E-02 1.9787841E-02 6.9927350E-02
endloop
endfacet
facet normal 3.2733434E-01 9.4427282E-01 3.4657545E-02
outer loop
vertex -3.9390069E-03 5.8944046E-02 5.3884131E-03
vertex -6.3857259E-03 5.9185505E-02 2.1918509E-02
vertex 1.0683428E-02 5.3231630E-02 2.2921503E-02
endloop
endfacet
facet normal 3.4984550E-01 9.3565023E-01 -4.6550572E-02
outer loop
vertex 1.9408250E-02 5.0950821E-02 4.2648450E-02
vertex 2.7770311E-02 4.6692066E-02 1.9893067E-02
vertex 1.0683428E-02 5.3231630E-02 2.2921503E-02
endloop
endfacet
facet normal 1.6696385E-01 5.1512741E-02 -9.8461634E-01
outer loop
vertex 1.2085538E-02 3.7757950E-03 -2.1223323E-02
vertex 2.9439270E-02 1.7997621E-02 -1.7536556E-02
vertex 2.8663089E-02 -4.2340262E-03 -1.8831281E-02
endloop
endfacet
facet normal 8.3835155E-01 -5.4282027E-01 -5.0128695E-02
outer loop
vertex 5.7938252E-02 -5.2913159E-02 -2.3007935E-03
vertex 7.1285032E-02 -3.2424141E-02 -9.5545483E-04
vertex 5.6266520E-02 -5.6400601E-02 7.5050704E-03
endloop
endfacet
facet normal 7.0481175E-01 -5.9341538E-01 3.8871390E-01
outer loop
vertex 4.3893632E-02 -5.5138770E-02 3.9862566E-02
vertex 3.1143820E-02 -7.4593611E-02 3.3280388E-02
vertex 4.9986411E-02 -5.7603478E-02 2.5052551E-02
endloop
endfacet
facet normal -8.6579525E-01 8.7483816E-02 4.9269173E-01
outer loop
vertex -7.0664234E-02 1.9787841E-02 6.9927350E-02
vertex -8.2202464E-02 -4.0934938E-03 5.3891938E-02
vertex -7.4200630E-02 -2.1206187E-02 7.0991948E-02
endloop
endfacet
facet normal 5.9584141E-01 7.9391843E-01 1.2110599E-01
outer loop
vertex 2.1649422E-02 4.9375713E-02 6.1223477E-02
vertex 1.5290174E-02 5.2651342E-02 7.1037367E-02
vertex 3.6018562E-02 3.5359677E-02 8.2410388E-02
endloop
endfacet
facet normal -2.6424244E-01 3.2527611E-01 9.0794909E-01
outer loop
vertex -3.2982301E-02 -9.7111119E-03 1.0151959E-01
vertex -3.0012170E-02 6.7031098E-04 9.8664813E-02
vertex -4.5489382E-02 -1.0278362E-02 9.8082848E-02
endloop
endfacet
facet normal -3.6598209E-01 -8.9687997E-01 2.4832088E-01
outer loop
vertex -3.8034059E-02 -5.8791000E-02 8.7461090E-03
vertex -5.6864742E-02 -5.3540189E-02 -4.2299205E-05
vertex -2.5384013E-02 -6.8634652E-02 -8.1629939E-03
endloop
endfacet
facet normal 2.6923838E-01 -3.6033660E-01 -8.9312267E-01
outer loop
vertex 3.3004839E-02 -5.5280991E-02 -9.3803480E-03
vertex 3.0443899E-02 -7.8326359E-02 -8.5454626E-04
vertex 1.5045311E-02 -6.5647922E-02 -1.0611768E-02
endloop
endfacet
facet normal -5.9735435E-01 6.8111855E-01 -4.2337403E-01
outer loop
vertex -6.1484743E-02 6.0358007E-02 2.5494188E-02
vertex -4.9961295E-02 6.3999653E-02 1.5093954E-02
vertex -5.6677382E-02 5.3711139E-02 8.0179097E-03
endloop
endfacet
facet normal 6.9969034E-01 -6.9420433E-01 1.6886021E-01
outer loop
vertex 4.9986411E-02 -5.7603478E-02 2.5052551E-02
vertex 3.1143820E-02 -7.4593611E-02 3.3280388E-02
vertex 3.2882050E-02 -7.7387989E-02 1.4589828E-02
endloop
endfacet
facet normal 1.5128914E-02 -2.8024170E-01 9.5981026E-01
outer loop
vertex -1.6059099E-02 -4.2388099E-03 1.0285062E-01
vertex -3.2982301E-02 -9.7111119E-03 1.0151959E-01
vertex -2.0187646E-02 -2.6503891E-02 9.6414827E-02
endloop
endfacet
facet normal 3.6054698E-01 9.3251354E-01 2.0601818E-02
outer loop
vertex 2.7770311E-02 4.6692066E-02 1.9893067E-02
vertex 1.6853478E-02 5.1292639E-02 2.7069252E-03
vertex 1.0683428E-02 5.3231630E-02 2.2921503E-02
endloop
endfacet
facet normal 5.9823191E-01 -8.0001116E-01 -4.5833662E-02
outer loop
vertex 4.4359859E-02 -6.7857161E-02 -1.9564526E-03
vertex 3.2882050E-02 -7.7387989E-02 1.4589828E-02
vertex 3.0443899E-02 -7.8326359E-02 -8.5454626E-04
endloop
endfacet
facet normal 3.5627800E-01 -3.0542311E-01 8.8305312E-01
outer loop
vertex 1.5884021E-02 -1.9968094E-02 8.9693360E-02
vertex 1.7803509E-02 4.4272500E-04 9.5978446E-02
vertex 9.7282499E-04 -1.2502591E-02 9.8291561E-02
endloop
endfacet
facet normal -2.6015714E-01 1.0853875E-01 -9.5944649E-01
outer loop
vertex -3.3105735E-02 7.9656101E-04 -2.2260595E-02
vertex -5.3794142E-02 -8.9977644E-03 -1.7758861E-02
vertex -5.2339301E-02 1.7026141E-02 -1.5209354E-02
endloop
endfacet
facet normal 7.4927217E-01 -3.3520234E-01 5.7116604E-01
outer loop
vertex 3.9899722E-02 -2.1288404E-02 6.7626767E-02
vertex 4.4339769E-02 -3.6918279E-02 5.2629422E-02
vertex 4.7772180E-02 -1.3929743E-02 6.1618052E-02
endloop
endfacet
facet normal -2.4475671E-01 -2.6098052E-01 9.3380040E-01
outer loop
vertex -3.2982301E-02 -9.7111119E-03 1.0151959E-01
vertex -4.5489382E-02 -1.0278362E-02 9.8082848E-02
vertex -4.4064648E-02 -2.7066980E-02 9.3764164E-02
endloop
endfacet
facet normal 7.1201062E-01 -4.4592923E-01 5.4239112E-01
outer loop
vertex 3.2928400E-02 -5.8353592E-02 4.9986281E-02
vertex 4.4339769E-02 -3.6918279E-02 5.2629422E-02
vertex 3.1967372E-02 -4.1848529E-02 6.4817555E-02
endloop
endfacet
facet normal -3.2914478E-02 9.9941516E-01 9.2704315E-03
outer loop
vertex -4.9961295E-02 6.3999653E-02 1.5093954E-02
vertex -5.1188238E-02 6.3800462E-02 3.2211885E-02
vertex -3.5114251E-02 6.4359687E-02 2.8993940E-02
endloop
endfacet
facet normal -1.3414748E-01 3.9400914E-01 9.0926415E-01
outer loop
vertex -1.6059099E-02 -4.2388099E-03 1.0285062E-01
vertex 1.2776729E-03 5.3583579E-03 1.0124967E-01
vertex -3.0012170E-02 6.7031098E-04 9.8664813E-02
endloop
endfacet
facet normal 7.3804557E-01 -2.9343826E-01 6.0760421E-01
outer loop
vertex 3.9899722E-02 -2.1288404E-02 6.7626767E-02
vertex 4.7772180E-02 -1.3929743E-02 6.1618052E-02
vertex 3.3765439E-02 -5.8285552E-03 8.2544193E-02
endloop
endfacet
facet normal 1.1095708E-01 -2.9490423E-01 9.4906271E-01
outer loop
vertex -2.0187646E-02 -2.6503891E-02 9.6414827E-02
vertex 9.7282499E-04 -1.2502591E-02 9.8291561E-02
vertex -1.6059099E-02 -4.2388099E-03 1.0285062E-01
endloop
endfacet
facet normal 5.6415316E-02 -4.8358589E-01 8.7347692E-01
outer loop
vertex -9.3346061E-03 -4.5333199E-02 8.5289329E-02
vertex -2.0187646E-02 -2.6503891E-02 9.6414827E-02
vertex -2.8189516E-02 -3.5212189E-02 9.2110440E-02
endloop
endfacet
facet normal 5.1724082E-01 8.5577953E-01 1.0159886E-02
outer loop
vertex 2.1649422E-02 4.9375713E-02 6.1223477E-02
vertex 4.3815650E-02 3.6099635E-02 5.0998695E-02
vertex 1.9408250E-02 5.0950821E-02 4.2648450E-02
endloop
endfacet
facet normal 4.8626485E-01 8.4348446E-01 2.2821175E-01
outer loop
vertex 2.1649422E-02 4.9375713E-02 6.1223477E-02
vertex 3.6018562E-02 3.5359677E-02 8.2410388E-02
vertex 4.7434371E-02 3.1072374E-02 7.3932149E-02
endloop
endfacet
facet normal -9.2758411E-01 7.2313853E-02 -3.6654958E-01
outer loop
vertex -6.4326480E-02 4.6109341E-02 2.1802790E-02
vertex -5.3959802E-02 3.6476128E-02 -6.3314144E-03
vertex -6.0853694E-02 1.5439571E-02 6.9640037E-03
endloop
endfacet
facet normal 8.6691016E-01 -4.7769248E-01 1.4239575E-01
outer loop
vertex 7.1285032E-02 -3.2424141E-02 -9.5545483E-04
vertex 7.3576018E-02 -2.1011749E-02 2.3381883E-02
vertex 6.3662648E-02 -3.7597992E-02 2.8093249E-02
endloop
endfacet
facet normal 1.9143315E-02 -2.2851145E-01 -9.7335297E-01
outer loop
vertex -2.7483946E-02 -3.0183280E-02 -1.7006919E-02
vertex -3.9108790E-02 -1.3544719E-02 -2.1141740E-02
vertex -1.1673976E-02 -1.2746263E-02 -2.0789620E-02
endloop
endfacet
facet normal -3.1048411E-01 9.5051265E-01 -1.1193671E-02
outer loop
vertex -5.1188238E-02 6.3800462E-02 3.2211885E-02
vertex -4.9961295E-02 6.3999653E-02 1.5093954E-02
vertex -6.1484743E-02 6.0358007E-02 2.5494188E-02
endloop
endfacet
facet normal 3.2243052E-01 -3.6290583E-01 8.7426418E-01
outer loop
vertex 4.4365930E-03 -3.8874511E-02 8.6067170E-02
vertex 1.5884021E-02 -1.9968094E-02 8.9693360E-02
vertex 9.7282499E-04 -1.2502591E-02 9.8291561E-02
endloop
endfacet
facet normal -3.5397148E-01 5.9512854E-01 7.2147512E-01
outer loop
vertex -5.0486524E-02 5.0311804E-02 5.2752234E-02
vertex -1.8197736E-02 5.3002801E-02 6.6374078E-02
vertex -3.1978816E-02 6.3921399E-02 5.0606273E-02
endloop
endfacet
facet normal -3.3976677E-01 5.8424246E-01 -7.3703408E-01
outer loop
vertex -4.0839083E-02 4.9494527E-02 -2.6259008E-03
vertex -5.6677382E-02 5.3711139E-02 8.0179097E-03
vertex -3.8811240E-02 6.3992351E-02 7.9316162E-03
endloop
endfacet
facet normal -3.7052009E-01 6.2931573E-01 6.8313730E-01
outer loop
vertex -5.0486524E-02 5.0311804E-02 5.2752234E-02
vertex -7.0664234E-02 1.9787841E-02 6.9927350E-02
vertex -4.1200519E-02 3.6687240E-02 7.0339918E-02
endloop
endfacet
facet normal -3.0616847E-01 -9.0432900E-01 2.9740512E-01
outer loop
vertex -2.5384013E-02 -6.8634652E-02 -8.1629939E-03
vertex -1.0672000E-02 -6.8051979E-02 8.7542739E-03
vertex -3.8034059E-02 -5.8791000E-02 8.7461090E-03
endloop
endfacet
facet normal 5.2885808E-02 -1.2144791E-01 -9.9118799E-01
outer loop
vertex 1.8741544E-02 -3.0217970E-02 -1.6176904E-02
vertex 1.1455457E-02 -1.2478474E-02 -1.8739238E-02
vertex 2.8663089E-02 -4.2340262E-03 -1.8831281E-02
endloop
endfacet
facet normal -1.6671424E-01 6.1489731E-01 7.7078378E-01
outer loop
vertex -1.5622617E-02 2.6232790E-02 8.8286988E-02
vertex 4.4732569E-03 4.0968601E-02 8.0877982E-02
vertex -1.8197736E-02 5.3002801E-02 6.6374078E-02
endloop
endfacet
facet normal -3.5590768E-01 -9.2101616E-01 1.5830009E-01
outer loop
vertex 3.1143820E-02 -7.4593611E-02 3.3280388E-02
vertex 2.6430929E-02 -7.0480801E-02 4.6613358E-02
vertex 1.2285429E-02 -6.8224810E-02 2.7935617E-02
endloop
endfacet
facet normal -3.4148997E-01 6.4713651E-01 6.8161500E-01
outer loop
vertex -4.1200519E-02 3.6687240E-02 7.0339918E-02
vertex -1.8197736E-02 5.3002801E-02 6.6374078E-02
vertex -5.0486524E-02 5.0311804E-02 5.2752234E-02
endloop
endfacet
facet normal -3.2678410E-01 -8.8891834E-01 3.2099262E-01
outer loop
vertex -3.6085557E-02 -5.2202638E-02 3.0851936E-02
vertex -1.5192927E-02 -5.4168120E-02 4.6678554E-02
vertex -5.7830658E-02 -3.5000701E-02 5.6351479E-02
endloop
endfacet
facet normal 3.3296815E-01 9.3740892E-01 -1.0196394E-01
outer loop
vertex 1.0683428E-02 5.3231630E-02 2.2921503E-02
vertex -6.3857259E-03 5.9185505E-02 2.1918509E-02
vertex 6.9642399E-04 5.9394442E-02 4.6966478E-02
endloop
endfacet
facet normal 5.5390233E-01 -5.2793857E-02 8.3090603E-01
outer loop
vertex 4.2495102E-02 6.3077630E-03 8.1107095E-02
vertex 2.4128374E-02 1.9343341E-02 9.4179057E-02
vertex 2.8690711E-02 8.0187442E-03 9.0418153E-02
endloop
endfacet
facet normal 1.9816545E-01 -3.5938731E-01 -9.1190523E-01
outer loop
vertex 3.3004839E-02 -5.5280991E-02 -9.3803480E-03
vertex 4.4359859E-02 -6.7857161E-02 -1.9564526E-03
vertex 3.0443899E-02 -7.8326359E-02 -8.5454626E-04
endloop
endfacet
facet normal -1.7769590E-01 3.9633924E-01 -9.0074378E-01
outer loop
vertex -2.4844814E-02 2.6152469E-02 -1.6617674E-02
vertex -5.2339301E-02 1.7026141E-02 -1.5209354E-02
vertex -5.3959802E-02 3.6476128E-02 -6.3314144E-03
endloop
endfacet
facet normal -2.6110727E-01 -9.1610700E-01 3.0425501E-01
outer loop
vertex -1.0672000E-02 -6.8051979E-02 8.7542739E-03
vertex 1.2285429E-02 -6.8224810E-02 2.7935617E-02
vertex -1.5192927E-02 -5.4168120E-02 4.6678554E-02
endloop
endfacet
facet normal 4.2227787E-01 9.0610260E-01 -2.5680328E-02
outer loop
vertex 1.6853478E-02 5.1292639E-02 2.7069252E-03
vertex 2.7770311E-02 4.6692066E-02 1.9893067E-02
vertex 3.1664569E-02 4.4308022E-02 -1.8960467E-04
endloop
endfacet
facet normal -9.7512245E-01 2.8058259E-02 -2.1988402E-01
outer loop
vertex -8.2202464E-02 -4.0934938E-03 5.3891938E-02
vertex -7.9041302E-02 -1.3525355E-02 3.8669541E-02
vertex -8.2873128E-02 -2.2578040E-02 5.4507423E-02
endloop
endfacet
facet normal -6.2216699E-01 -2.2459626E-01 7.4997652E-01
outer loop
vertex -7.4200630E-02 -2.1206187E-02 7.0991948E-02
vertex -5.8867332E-02 -2.6705099E-02 8.2065411E-02
vertex -4.5489382E-02 -1.0278362E-02 9.8082848E-02
endloop
endfacet
facet normal -1.2311932E-01 4.4968173E-01 8.8466269E-01
outer loop
vertex 1.2776729E-03 5.3583579E-03 1.0124967E-01
vertex 5.2779349E-03 2.3597235E-02 9.2535414E-02
vertex -1.5622617E-02 2.6232790E-02 8.8286988E-02
endloop
endfacet
facet normal 1.7949517E-01 9.8199153E-01 -5.8942337E-02
outer loop
vertex -1.8539134E-02 6.2609755E-02 4.1956834E-02
vertex 6.9642399E-04 5.9394442E-02 4.6966478E-02
vertex -6.3857259E-03 5.9185505E-02 2.1918509E-02
endloop
endfacet
facet normal 1.3178497E-02 3.3426329E-01 -9.4238758E-01
outer loop
vertex -5.5486532E-03 4.3635022E-02 -1.3295238E-02
vertex 1.1489111E-02 5.3498127E-02 -9.5585519E-03
vertex 1.0576847E-02 2.6541496E-02 -1.9132782E-02
endloop
endfacet
facet normal -3.8892773E-01 -8.3642870E-01 3.8616332E-01
outer loop
vertex -2.8189516E-02 -3.5212189E-02 9.2110440E-02
vertex -4.4064648E-02 -2.7066980E-02 9.3764164E-02
vertex -3.7436273E-02 -3.8205922E-02 7.6313071E-02
endloop
endfacet
facet normal -3.5898408E-01 -2.6764807E-01 -8.9414471E-01
outer loop
vertex -5.6864742E-02 -5.3540189E-02 -4.2299205E-05
vertex -3.0485401E-02 -5.6019548E-02 -9.8910034E-03
vertex -2.5384013E-02 -6.8634652E-02 -8.1629939E-03
endloop
endfacet
facet normal -9.0819097E-01 1.3756193E-01 -3.9530483E-01
outer loop
vertex -7.9041302E-02 -1.3525355E-02 3.8669541E-02
vertex -6.0853694E-02 1.5439571E-02 6.9640037E-03
vertex -5.3794142E-02 -8.9977644E-03 -1.7758861E-02
endloop
endfacet
facet normal -3.9625686E-02 -1.7823927E-01 -9.8318899E-01
outer loop
vertex 1.2591060E-03 -4.6750829E-02 -1.4357711E-02
vertex -1.4113233E-02 -3.9737761E-02 -1.5009534E-02
vertex 2.2470500E-04 -2.5390379E-02 -1.8188391E-02
endloop
endfacet
facet normal 7.5901657E-01 -2.9299051E-01 5.8142102E-01
outer loop
vertex 7.3220663E-02 -4.7256080E-03 3.6605898E-02
vertex 5.7196770E-02 -4.7167791E-03 5.7528753E-02
vertex 6.1950520E-02 -1.8630089E-02 4.4311751E-02
endloop
endfacet
facet normal 1.6344239E-01 9.8413390E-01 -6.9044575E-02
outer loop
vertex -1.8539134E-02 6.2609755E-02 4.1956834E-02
vertex -6.3857259E-03 5.9185505E-02 2.1918509E-02
vertex -2.3300096E-02 6.1655819E-02 1.7089671E-02
endloop
endfacet
facet normal -3.6056545E-01 -9.0317506E-01 2.3295370E-01
outer loop
vertex -5.6864742E-02 -5.3540189E-02 -4.2299205E-05
vertex -3.8034059E-02 -5.8791000E-02 8.7461090E-03
vertex -6.6187337E-02 -4.6966650E-02 1.1014194E-02
endloop
endfacet
facet normal -1.3528563E-01 -2.0929632E-01 -9.6844876E-01
outer loop
vertex -4.4449884E-02 -4.1636951E-02 -1.2161584E-02
vertex -4.3529056E-02 -2.5054200E-02 -1.5873998E-02
vertex -2.7483946E-02 -3.0183280E-02 -1.7006919E-02
endloop
endfacet
facet normal -1.3907231E-01 4.3871412E-01 8.8780004E-01
outer loop
vertex 1.2776729E-03 5.3583579E-03 1.0124967E-01
vertex -1.5622617E-02 2.6232790E-02 8.8286988E-02
vertex -3.0012170E-02 6.7031098E-04 9.8664813E-02
endloop
endfacet
facet normal -7.1470186E-02 2.2475773E-01 -9.7179002E-01
outer loop
vertex 1.0576847E-02 2.6541496E-02 -1.9132782E-02
vertex -1.2288269E-02 8.9919688E-03 -2.1510063E-02
vertex -2.4844814E-02 2.6152469E-02 -1.6617674E-02
endloop
endfacet
facet normal 4.1775960E-01 -1.6900912E-03 -9.0855616E-01
outer loop
vertex 5.3217351E-02 5.9869038E-03 -1.3862921E-02
vertex 6.6053890E-02 1.9492509E-02 -7.9857269E-03
vertex 7.0507899E-02 -1.6919550E-03 -5.8983397E-03
endloop
endfacet
facet normal 3.5422409E-01 -3.4191060E-01 -8.7041509E-01
outer loop
vertex 4.8883900E-02 -4.7670860E-02 -8.0447970E-03
vertex 5.7938252E-02 -5.2913159E-02 -2.3007935E-03
vertex 4.4359859E-02 -6.7857161E-02 -1.9564526E-03
endloop
endfacet
facet normal 5.1429224E-01 -2.7368802E-01 8.1277198E-01
outer loop
vertex 3.3765439E-02 -5.8285552E-03 8.2544193E-02
vertex 4.2495102E-02 6.3077630E-03 8.1107095E-02
vertex 2.8690711E-02 8.0187442E-03 9.0418153E-02
endloop
endfacet
facet normal -2.9190946E-01 5.8491349E-01 7.5674635E-01
outer loop
vertex -4.7294259E-02 1.0773671E-02 8.8018730E-02
vertex -1.5622617E-02 2.6232790E-02 8.8286988E-02
vertex -4.1200519E-02 3.6687240E-02 7.0339918E-02
endloop
endfacet
facet normal 7.9718691E-01 -4.4971520E-01 4.0280178E-01
outer loop
vertex 4.9986411E-02 -5.7603478E-02 2.5052551E-02
vertex 5.2092232E-02 -3.7732512E-02 4.3070205E-02
vertex 4.3893632E-02 -5.5138770E-02 3.9862566E-02
endloop
endfacet
facet normal 8.0417025E-01 -3.4268531E-01 4.8567152E-01
outer loop
vertex 6.3662648E-02 -3.7597992E-02 2.8093249E-02
vertex 7.3576018E-02 -2.1011749E-02 2.3381883E-02
vertex 6.1950520E-02 -1.8630089E-02 4.4311751E-02
endloop
endfacet
facet normal -9.1730785E-01 1.7989412E-02 -3.9777198E-01
outer loop
vertex -5.8520425E-02 -3.5329711E-02 -8.0503831E-03
vertex -7.3910274E-02 -3.9556172E-02 2.7249232E-02
vertex -5.3794142E-02 -8.9977644E-03 -1.7758861E-02
endloop
endfacet
facet normal 5.1291859E-01 8.5801953E-01 2.6777405E-02
outer loop
vertex 4.3815650E-02 3.6099635E-02 5.0998695E-02
vertex 3.8073462E-02 4.0172454E-02 3.0485779E-02
vertex 1.9408250E-02 5.0950821E-02 4.2648450E-02
endloop
endfacet
facet normal 4.7968048E-01 -4.3643287E-01 7.6120508E-01
outer loop
vertex 4.4365930E-03 -3.8874511E-02 8.6067170E-02
vertex 2.6723130E-02 -2.7321540E-02 7.8646936E-02
vertex 1.5884021E-02 -1.9968094E-02 8.9693360E-02
endloop
endfacet
facet normal -5.6749427E-01 -7.4042076E-01 3.6017668E-01
outer loop
vertex -8.2873128E-02 -2.2578040E-02 5.4507423E-02
vertex -7.4827112E-02 -2.9301500E-02 5.3363204E-02
vertex -7.4200630E-02 -2.1206187E-02 7.0991948E-02
endloop
endfacet
facet normal 2.8885370E-01 -3.3839828E-01 -8.9557260E-01
outer loop
vertex 3.0443899E-02 -7.8326359E-02 -8.5454626E-04
vertex 1.6040990E-02 -7.8401402E-02 -5.4716361E-03
vertex 1.5045311E-02 -6.5647922E-02 -1.0611768E-02
endloop
endfacet
facet normal -3.5799965E-01 -9.0741986E-01 2.2005768E-01
outer loop
vertex -1.5192927E-02 -5.4168120E-02 4.6678554E-02
vertex -3.7436273E-02 -3.8205922E-02 7.6313071E-02
vertex -5.7830658E-02 -3.5000701E-02 5.6351479E-02
endloop
endfacet
facet normal -3.4955427E-01 -8.8900667E-01 2.9576838E-01
outer loop
vertex -3.8034059E-02 -5.8791000E-02 8.7461090E-03
vertex -3.6085557E-02 -5.2202638E-02 3.0851936E-02
vertex -6.6187337E-02 -4.6966650E-02 1.1014194E-02
endloop
endfacet
facet normal 1.4657226E-01 9.8919141E-01 4.1246559E-03
outer loop
vertex -3.8811240E-02 6.3992351E-02 7.9316162E-03
vertex -2.3300096E-02 6.1655819E-02 1.7089671E-02
vertex -1.7217323E-02 6.0831018E-02 -1.2583538E-03
endloop
endfacet
facet normal 7.1480997E-02 3.3168337E-01 -9.4067883E-01
outer loop
vertex 1.1489111E-02 5.3498127E-02 -9.5585519E-03
vertex 3.2216340E-02 4.2909235E-02 -1.1717159E-02
vertex 1.0576847E-02 2.6541496E-02 -1.9132782E-02
endloop
endfacet
facet normal 2.7507981E-02 -1.7502430E-01 -9.8417974E-01
outer loop
vertex -4.4111599E-04 -7.6271571E-02 -9.1553302E-03
vertex 1.2591060E-03 -4.6750829E-02 -1.4357711E-02
vertex 1.5045311E-02 -6.5647922E-02 -1.0611768E-02
endloop
endfacet
facet normal 7.8773014E-02 9.9647897E-01 -2.8711980E-02
outer loop
vertex -3.1978816E-02 6.3921399E-02 5.0606273E-02
vertex -4.8988061E-03 6.2107448E-02 6.1946802E-02
vertex -1.8539134E-02 6.2609755E-02 4.1956834E-02
endloop
endfacet
facet normal -9.0615296E-01 1.2758873E-01 -4.0324685E-01
outer loop
vertex -7.9041302E-02 -1.3525355E-02 3.8669541E-02
vertex -7.5764179E-02 1.7218553E-02 4.1032862E-02
vertex -6.0853694E-02 1.5439571E-02 6.9640037E-03
endloop
endfacet
facet normal 1.7456856E-01 2.0548972E-01 -9.6296400E-01
outer loop
vertex 1.0576847E-02 2.6541496E-02 -1.9132782E-02
vertex 3.2216340E-02 4.2909235E-02 -1.1717159E-02
vertex 2.9439270E-02 1.7997621E-02 -1.7536556E-02
endloop
endfacet
facet normal 6.2998819E-01 7.7629662E-01 -2.1874433E-02
outer loop
vertex 6.9320790E-02 1.8466122E-02 2.0695979E-02
vertex 5.3192958E-02 3.0940520E-02 -1.0880406E-03
vertex 4.6604648E-02 3.6692981E-02 1.3315012E-02
endloop
endfacet
facet normal 5.2528888E-01 8.4737092E-01 -7.7679254E-02
outer loop
vertex 3.2216340E-02 4.2909235E-02 -1.1717159E-02
vertex 3.1664569E-02 4.4308022E-02 -1.8960467E-04
vertex 5.4012530E-02 2.9439308E-02 -1.1263087E-02
endloop
endfacet
facet normal -4.7731400E-01 7.2694409E-01 4.9368379E-01
outer loop
vertex -5.0486524E-02 5.0311804E-02 5.2752234E-02
vertex -3.1978816E-02 6.3921399E-02 5.0606273E-02
vertex -5.1188238E-02 6.3800462E-02 3.2211885E-02
endloop
endfacet
facet normal 5.5000502E-01 8.2972926E-01 9.5099106E-02
outer loop
vertex 4.3815650E-02 3.6099635E-02 5.0998695E-02
vertex 4.7434371E-02 3.1072374E-02 7.3932149E-02
vertex 6.3923731E-02 2.2071432E-02 5.7098284E-02
endloop
endfacet
facet normal -1.7706047E-01 -9.5438176E-01 2.4042666E-01
outer loop
vertex -4.4111599E-04 -7.6271571E-02 -9.1553302E-03
vertex 1.6040990E-02 -7.8401402E-02 -5.4716361E-03
vertex 1.1234190E-02 -7.4967727E-02 4.6185185E-03
endloop
endfacet
facet normal -3.3508366E-01 -8.7211245E-01 3.5656515E-01
outer loop
vertex -9.3346061E-03 -4.5333199E-02 8.5289329E-02
vertex -3.7436273E-02 -3.8205922E-02 7.6313071E-02
vertex -1.3202873E-02 -5.2887730E-02 6.3176699E-02
endloop
endfacet
facet normal 6.3556087E-01 -5.8641785E-01 5.0217181E-01
outer loop
vertex 4.3893632E-02 -5.5138770E-02 3.9862566E-02
vertex 3.2928400E-02 -5.8353592E-02 4.9986281E-02
vertex 3.1143820E-02 -7.4593611E-02 3.3280388E-02
endloop
endfacet
facet normal 1.5608735E-01 -1.5447454E-01 -9.7558928E-01
outer loop
vertex 4.8883900E-02 -4.7670860E-02 -8.0447970E-03
vertex 3.3004839E-02 -5.5280991E-02 -9.3803480E-03
vertex 4.1083518E-02 -2.8129160E-02 -1.2387030E-02
endloop
endfacet
facet normal 7.2362351E-01 -3.5967022E-01 5.8907241E-01
outer loop
vertex 3.1967372E-02 -4.1848529E-02 6.4817555E-02
vertex 4.4339769E-02 -3.6918279E-02 5.2629422E-02
vertex 3.9899722E-02 -2.1288404E-02 6.7626767E-02
endloop
endfacet
facet normal -3.5143301E-01 -1.8590346E-01 -9.1756999E-01
outer loop
vertex -4.4449884E-02 -4.1636951E-02 -1.2161584E-02
vertex -5.8520425E-02 -3.5329711E-02 -8.0503831E-03
vertex -4.3529056E-02 -2.5054200E-02 -1.5873998E-02
endloop
endfacet
facet normal 3.4720168E-01 9.3764091E-01 1.6749298E-02
outer loop
vertex 1.1489111E-02 5.3498127E-02 -9.5585519E-03
vertex -3.9390069E-03 5.8944046E-02 5.3884131E-03
vertex 1.6853478E-02 5.1292639E-02 2.7069252E-03
endloop
endfacet
facet normal -1.1324006E-01 5.1704681E-01 -8.4843349E-01
outer loop
vertex -5.5486532E-03 4.3635022E-02 -1.3295238E-02
vertex -1.7217323E-02 6.0831018E-02 -1.2583538E-03
vertex 1.1489111E-02 5.3498127E-02 -9.5585519E-03
endloop
endfacet
facet normal 1.2908840E-02 2.2609375E-01 -9.7401994E-01
outer loop
vertex 2.9439270E-02 1.7997621E-02 -1.7536556E-02
vertex 3.2216340E-02 4.2909235E-02 -1.1717159E-02
vertex 4.2881981E-02 2.1151997E-02 -1.6626190E-02
endloop
endfacet
facet normal 9.1721535E-01 -3.8688046E-01 9.5076241E-02
outer loop
vertex 7.8631930E-02 -1.4423358E-02 1.4159316E-03
vertex 7.3576018E-02 -2.1011749E-02 2.3381883E-02
vertex 7.1285032E-02 -3.2424141E-02 -9.5545483E-04
endloop
endfacet
facet normal 5.4391921E-01 8.3352512E-01 9.6891463E-02
outer loop
vertex 4.3815650E-02 3.6099635E-02 5.0998695E-02
vertex 2.1649422E-02 4.9375713E-02 6.1223477E-02
vertex 4.7434371E-02 3.1072374E-02 7.3932149E-02
endloop
endfacet
facet normal 1.2961431E-01 -1.0097557E-01 -9.8640966E-01
outer loop
vertex 1.5975904E-02 -4.8171248E-02 -1.2278519E-02
vertex 1.5045311E-02 -6.5647922E-02 -1.0611768E-02
vertex 1.2591060E-03 -4.6750829E-02 -1.4357711E-02
endloop
endfacet
facet normal 6.7397416E-01 -3.5413560E-01 6.4834154E-01
outer loop
vertex 4.4339769E-02 -3.6918279E-02 5.2629422E-02
vertex 6.1950520E-02 -1.8630089E-02 4.4311751E-02
vertex 4.7772180E-02 -1.3929743E-02 6.1618052E-02
endloop
endfacet
facet normal -3.4758288E-01 -4.6593544E-01 -8.1368929E-01
outer loop
vertex -5.6864742E-02 -5.3540189E-02 -4.2299205E-05
vertex -4.4449884E-02 -4.1636951E-02 -1.2161584E-02
vertex -3.0485401E-02 -5.6019548E-02 -9.8910034E-03
endloop
endfacet
facet normal 6.3953030E-01 -5.0408047E-01 5.8043426E-01
outer loop
vertex 1.9650046E-02 -6.5027080E-02 5.8820933E-02
vertex 2.6430929E-02 -7.0480801E-02 4.6613358E-02
vertex 3.2928400E-02 -5.8353592E-02 4.9986281E-02
endloop
endfacet
facet normal 4.6477529E-01 8.8530207E-01 -1.4970335E-02
outer loop
vertex 2.7770311E-02 4.6692066E-02 1.9893067E-02
vertex 4.6604648E-02 3.6692981E-02 1.3315012E-02
vertex 3.1664569E-02 4.4308022E-02 -1.8960467E-04
endloop
endfacet
facet normal 7.6147908E-01 6.3948089E-01 -1.0589555E-01
outer loop
vertex 8.1932612E-02 2.9113709E-03 1.7453836E-02
vertex 7.6573178E-02 6.1892690E-03 -1.2905149E-03
vertex 6.9320790E-02 1.8466122E-02 2.0695979E-02
endloop
endfacet
facet normal -9.5973492E-01 -6.9801927E-02 -2.7209651E-01
outer loop
vertex -7.3910274E-02 -3.9556172E-02 2.7249232E-02
vertex -8.2873128E-02 -2.2578040E-02 5.4507423E-02
vertex -7.9041302E-02 -1.3525355E-02 3.8669541E-02
endloop
endfacet
facet normal -1.5365876E-01 -1.9483310E-01 -9.6872550E-01
outer loop
vertex -2.5384013E-02 -6.8634652E-02 -8.1629939E-03
vertex -3.0485401E-02 -5.6019548E-02 -9.8910034E-03
vertex -9.3330340E-03 -6.5083072E-02 -1.1423297E-02
endloop
endfacet
facet normal -8.6057723E-02 -9.5496154E-01 2.8397629E-01
outer loop
vertex 3.0443899E-02 -7.8326359E-02 -8.5454626E-04
vertex 1.1234190E-02 -7.4967727E-02 4.6185185E-03
vertex 1.6040990E-02 -7.8401402E-02 -5.4716361E-03
endloop
endfacet
facet normal 2.2110738E-01 -5.7949610E-02 -9.7352630E-01
outer loop
vertex 3.6832351E-02 -1.3545017E-02 -1.6421637E-02
vertex 2.8663089E-02 -4.2340262E-03 -1.8831281E-02
vertex 5.3217351E-02 5.9869038E-03 -1.3862921E-02
endloop
endfacet
facet normal -1.0489146E-01 -3.6154193E-01 9.2643690E-01
outer loop
vertex -2.0187646E-02 -2.6503891E-02 9.6414827E-02
vertex -3.2982301E-02 -9.7111119E-03 1.0151959E-01
vertex -2.8189516E-02 -3.5212189E-02 9.2110440E-02
endloop
endfacet
facet normal 6.5000397E-01 7.5848258E-01 -4.6894073E-02
outer loop
vertex 6.9320790E-02 1.8466122E-02 2.0695979E-02
vertex 6.6053890E-02 1.9492509E-02 -7.9857269E-03
vertex 5.3192958E-02 3.0940520E-02 -1.0880406E-03
endloop
endfacet
facet normal -9.1277903E-01 -7.2355836E-04 -4.0845308E-01
outer loop
vertex -7.3910274E-02 -3.9556172E-02 2.7249232E-02
vertex -7.9041302E-02 -1.3525355E-02 3.8669541E-02
vertex -5.3794142E-02 -8.9977644E-03 -1.7758861E-02
endloop
endfacet
facet normal -2.7437100E-01 -8.9428449E-01 3.5351923E-01
outer loop
vertex -9.3346061E-03 -4.5333199E-02 8.5289329E-02
vertex -1.3202873E-02 -5.2887730E-02 6.3176699E-02
vertex 1.3410363E-02 -5.8713041E-02 6.9095515E-02
endloop
endfacet
facet normal 6.8725657E-01 -6.9889402E-01 1.9805476E-01
outer loop
vertex 5.6266520E-02 -5.6400601E-02 7.5050704E-03
vertex 4.9986411E-02 -5.7603478E-02 2.5052551E-02
vertex 3.2882050E-02 -7.7387989E-02 1.4589828E-02
endloop
endfacet
facet normal 9.1933268E-01 -2.0216598E-01 3.3757421E-01
outer loop
vertex 7.8660063E-02 1.0441293E-02 3.0875640E-02
vertex 7.3220663E-02 -4.7256080E-03 3.6605898E-02
vertex 8.1932612E-02 2.9113709E-03 1.7453836E-02
endloop
endfacet
facet normal 5.4336015E-02 5.6162760E-02 -9.9694198E-01
outer loop
vertex 2.8663089E-02 -4.2340262E-03 -1.8831281E-02
vertex 2.9439270E-02 1.7997621E-02 -1.7536556E-02
vertex 4.2881981E-02 2.1151997E-02 -1.6626190E-02
endloop
endfacet
facet normal 6.2658000E-01 1.6004694E-01 7.6274663E-01
outer loop
vertex 4.7434371E-02 3.1072374E-02 7.3932149E-02
vertex 3.6018562E-02 3.5359677E-02 8.2410388E-02
vertex 4.9943838E-02 1.5670881E-02 7.5102367E-02
endloop
endfacet
facet normal -3.5987315E-01 -9.1890723E-01 1.6155802E-01
outer loop
vertex 2.6430929E-02 -7.0480801E-02 4.6613358E-02
vertex -1.5192927E-02 -5.4168120E-02 4.6678554E-02
vertex 1.2285429E-02 -6.8224810E-02 2.7935617E-02
endloop
endfacet
facet normal 2.1280727E-01 3.1315088E-01 -9.2555368E-01
outer loop
vertex 3.2216340E-02 4.2909235E-02 -1.1717159E-02
vertex 5.4012530E-02 2.9439308E-02 -1.1263087E-02
vertex 4.2881981E-02 2.1151997E-02 -1.6626190E-02
endloop
endfacet
facet normal 6.5850317E-01 7.5249851E-01 -1.0930499E-02
outer loop
vertex 6.9320790E-02 1.8466122E-02 2.0695979E-02
vertex 7.3070712E-02 1.5522857E-02 4.3982450E-02
vertex 7.8660063E-02 1.0441293E-02 3.0875640E-02
endloop
endfacet
facet normal -1.2752609E-01 -2.9340181E-01 -9.4744527E-01
outer loop
vertex -9.3330340E-03 -6.5083072E-02 -1.1423297E-02
vertex -4.4111599E-04 -7.6271571E-02 -9.1553302E-03
vertex -2.5384013E-02 -6.8634652E-02 -8.1629939E-03
endloop
endfacet
facet normal 8.9041904E-02 -1.1963338E-01 -9.8881721E-01
outer loop
vertex -1.1673976E-02 -1.2746263E-02 -2.0789620E-02
vertex 1.1455457E-02 -1.2478474E-02 -1.8739238E-02
vertex 2.2470500E-04 -2.5390379E-02 -1.8188391E-02
endloop
endfacet
facet normal -3.2836908E-01 -9.0849465E-01 2.5847834E-01
outer loop
vertex -6.6187337E-02 -4.6966650E-02 1.1014194E-02
vertex -3.6085557E-02 -5.2202638E-02 3.0851936E-02
vertex -7.3910274E-02 -3.9556172E-02 2.7249232E-02
endloop
endfacet
facet normal -8.7013006E-01 9.5803425E-02 4.8342055E-01
outer loop
vertex -7.7040575E-02 2.9952336E-02 5.6435909E-02
vertex -8.2202464E-02 -4.0934938E-03 5.3891938E-02
vertex -7.0664234E-02 1.9787841E-02 6.9927350E-02
endloop
endfacet
facet normal 1.3979565E-01 9.9017864E-01 1.8336698E-03
outer loop
vertex -1.7217323E-02 6.0831018E-02 -1.2583538E-03
vertex -2.3300096E-02 6.1655819E-02 1.7089671E-02
vertex -3.9390069E-03 5.8944046E-02 5.3884131E-03
endloop
endfacet
facet normal 5.2318466E-01 8.4816825E-01 -8.2996488E-02
outer loop
vertex 3.1664569E-02 4.4308022E-02 -1.8960467E-04
vertex 5.3192958E-02 3.0940520E-02 -1.0880406E-03
vertex 5.4012530E-02 2.9439308E-02 -1.1263087E-02
endloop
endfacet
facet normal -2.3802532E-01 -9.2710382E-01 2.8952092E-01
outer loop
vertex -4.4111599E-04 -7.6271571E-02 -9.1553302E-03
vertex 1.1234190E-02 -7.4967727E-02 4.6185185E-03
vertex -1.0672000E-02 -6.8051979E-02 8.7542739E-03
endloop
endfacet
facet normal -8.9911824E-01 1.8751432E-01 -3.9550555E-01
outer loop
vertex -5.6677382E-02 5.3711139E-02 8.0179097E-03
vertex -5.3959802E-02 3.6476128E-02 -6.3314144E-03
vertex -6.4326480E-02 4.6109341E-02 2.1802790E-02
endloop
endfacet
facet normal -3.5383517E-01 -8.4514040E-01 4.0067217E-01
outer loop
vertex -7.4200630E-02 -2.1206187E-02 7.0991948E-02
vertex -7.4827112E-02 -2.9301500E-02 5.3363204E-02
vertex -5.7830658E-02 -3.5000701E-02 5.6351479E-02
endloop
endfacet
facet normal 4.8478458E-02 -3.1716164E-02 -9.9832052E-01
outer loop
vertex -1.2288269E-02 8.9919688E-03 -2.1510063E-02
vertex -1.1673976E-02 -1.2746263E-02 -2.0789620E-02
vertex -3.3105735E-02 7.9656101E-04 -2.2260595E-02
endloop
endfacet
facet normal 4.9950427E-01 -8.5076608E-02 8.6212379E-01
outer loop
vertex 1.7803509E-02 4.4272500E-04 9.5978446E-02
vertex 2.8690711E-02 8.0187442E-03 9.0418153E-02
vertex 2.4128374E-02 1.9343341E-02 9.4179057E-02
endloop
endfacet
facet normal 6.9005883E-01 -3.5259372E-01 6.3205731E-01
outer loop
vertex 2.6723130E-02 -2.7321540E-02 7.8646936E-02
vertex 3.1967372E-02 -4.1848529E-02 6.4817555E-02
vertex 3.9899722E-02 -2.1288404E-02 6.7626767E-02
endloop
endfacet
facet normal 5.9739739E-01 3.8456041E-02 8.0102277E-01
outer loop
vertex 4.9943838E-02 1.5670881E-02 7.5102367E-02
vertex 2.4128374E-02 1.9343341E-02 9.4179057E-02
vertex 4.2495102E-02 6.3077630E-03 8.1107095E-02
endloop
endfacet
facet normal 5.6848848E-01 -2.3924828E-01 7.8713477E-01
outer loop
vertex 3.3765439E-02 -5.8285552E-03 8.2544193E-02
vertex 2.8690711E-02 8.0187442E-03 9.0418153E-02
vertex 1.7803509E-02 4.4272500E-04 9.5978446E-02
endloop
endfacet
facet normal -9.4786149E-01 2.0257260E-01 -2.4601381E-01
outer loop
vertex -7.7040575E-02 2.9952336E-02 5.6435909E-02
vertex -7.2393686E-02 4.2661283E-02 4.8996799E-02
vertex -7.5764179E-02 1.7218553E-02 4.1032862E-02
endloop
endfacet
facet normal 6.8278313E-01 -4.3039882E-01 5.9039307E-01
outer loop
vertex 5.2092232E-02 -3.7732512E-02 4.3070205E-02
vertex 4.4339769E-02 -3.6918279E-02 5.2629422E-02
vertex 4.3893632E-02 -5.5138770E-02 3.9862566E-02
endloop
endfacet
facet normal 2.4478051E-01 -1.9158719E-01 -9.5046139E-01
outer loop
vertex 4.1083518E-02 -2.8129160E-02 -1.2387030E-02
vertex 3.6832351E-02 -1.3545017E-02 -1.6421637E-02
vertex 6.0337670E-02 -2.3249116E-02 -8.4120268E-03
endloop
endfacet
facet normal -7.9818713E-03 -2.0870081E-01 -9.7794700E-01
outer loop
vertex -1.1673976E-02 -1.2746263E-02 -2.0789620E-02
vertex 2.2470500E-04 -2.5390379E-02 -1.8188391E-02
vertex -1.4113233E-02 -3.9737761E-02 -1.5009534E-02
endloop
endfacet
facet normal -8.8562155E-01 4.7514856E-02 4.6197066E-01
outer loop
vertex -8.2202464E-02 -4.0934938E-03 5.3891938E-02
vertex -8.2873128E-02 -2.2578040E-02 5.4507423E-02
vertex -7.4200630E-02 -2.1206187E-02 7.0991948E-02
endloop
endfacet
facet normal 1.8076290E-01 -3.9398336E-01 9.0116698E-01
outer loop
vertex 9.7282499E-04 -1.2502591E-02 9.8291561E-02
vertex -2.0187646E-02 -2.6503891E-02 9.6414827E-02
vertex 4.4365930E-03 -3.8874511E-02 8.6067170E-02
endloop
endfacet
facet normal -3.2768729E-01 -8.8887435E-01 3.2019269E-01
outer loop
vertex -3.6085557E-02 -5.2202638E-02 3.0851936E-02
vertex -5.7830658E-02 -3.5000701E-02 5.6351479E-02
vertex -7.3910274E-02 -3.9556172E-02 2.7249232E-02
endloop
endfacet
facet normal -4.9319413E-01 5.6667548E-01 6.6002917E-01
outer loop
vertex -7.0664234E-02 1.9787841E-02 6.9927350E-02
vertex -7.2393686E-02 4.2661283E-02 4.8996799E-02
vertex -7.7040575E-02 2.9952336E-02 5.6435909E-02
endloop
endfacet
facet normal -2.9841168E-02 9.9925208E-01 2.4593601E-02
outer loop
vertex -5.1188238E-02 6.3800462E-02 3.2211885E-02
vertex -3.1978816E-02 6.3921399E-02 5.0606273E-02
vertex -3.5114251E-02 6.4359687E-02 2.8993940E-02
endloop
endfacet
facet normal -3.3426885E-03 -2.0910722E-01 -9.7788697E-01
outer loop
vertex -2.7483946E-02 -3.0183280E-02 -1.7006919E-02
vertex -1.1673976E-02 -1.2746263E-02 -2.0789620E-02
vertex -1.4113233E-02 -3.9737761E-02 -1.5009534E-02
endloop
endfacet
facet normal 6.5869588E-01 -3.8757569E-01 6.4490694E-01
outer loop
vertex 6.1950520E-02 -1.8630089E-02 4.4311751E-02
vertex 5.7196770E-02 -4.7167791E-03 5.7528753E-02
vertex 4.7772180E-02 -1.3929743E-02 6.1618052E-02
endloop
endfacet
facet normal 5.5979782E-01 -3.2187510E-01 7.6355934E-01
outer loop
vertex 2.6723130E-02 -2.7321540E-02 7.8646936E-02
vertex 3.3765439E-02 -5.8285552E-03 8.2544193E-02
vertex 1.5884021E-02 -1.9968094E-02 8.9693360E-02
endloop
endfacet
facet normal -4.8239854E-01 -8.3914006E-01 2.5126773E-01
outer loop
vertex -7.4200630E-02 -2.1206187E-02 7.0991948E-02
vertex -5.7830658E-02 -3.5000701E-02 5.6351479E-02
vertex -5.8867332E-02 -2.6705099E-02 8.2065411E-02
endloop
endfacet
facet normal -3.3605316E-01 -8.6969674E-01 3.6151856E-01
outer loop
vertex -9.3346061E-03 -4.5333199E-02 8.5289329E-02
vertex -2.8189516E-02 -3.5212189E-02 9.2110440E-02
vertex -3.7436273E-02 -3.8205922E-02 7.6313071E-02
endloop
endfacet
facet normal 8.9017794E-02 -1.5384389E-01 -9.8407722E-01
outer loop
vertex 1.2085538E-02 3.7757950E-03 -2.1223323E-02
vertex 1.1455457E-02 -1.2478474E-02 -1.8739238E-02
vertex -1.1673976E-02 -1.2746263E-02 -2.0789620E-02
endloop
endfacet
facet normal 7.2654046E-02 -2.2231029E-01 -9.7226518E-01
outer loop
vertex 3.3004839E-02 -5.5280991E-02 -9.3803480E-03
vertex 1.5975904E-02 -4.8171248E-02 -1.2278519E-02
vertex 1.8741544E-02 -3.0217970E-02 -1.6176904E-02
endloop
endfacet
facet normal -9.5382720E-01 1.2274517E-01 -2.7413017E-01
outer loop
vertex -7.5764179E-02 1.7218553E-02 4.1032862E-02
vertex -7.9041302E-02 -1.3525355E-02 3.8669541E-02
vertex -8.2202464E-02 -4.0934938E-03 5.3891938E-02
endloop
endfacet
facet normal -4.1697600E-01 -3.9738393E-01 -8.1744540E-01
outer loop
vertex -5.6864742E-02 -5.3540189E-02 -4.2299205E-05
vertex -5.8520425E-02 -3.5329711E-02 -8.0503831E-03
vertex -4.4449884E-02 -4.1636951E-02 -1.2161584E-02
endloop
endfacet
facet normal -2.8825784E-01 5.8977139E-01 7.5437194E-01
outer loop
vertex -1.8197736E-02 5.3002801E-02 6.6374078E-02
vertex -4.1200519E-02 3.6687240E-02 7.0339918E-02
vertex -1.5622617E-02 2.6232790E-02 8.8286988E-02
endloop
endfacet
facet normal 7.7170616E-01 -2.3489884E-01 5.9100938E-01
outer loop
vertex 4.2495102E-02 6.3077630E-03 8.1107095E-02
vertex 5.7196770E-02 -4.7167791E-03 5.7528753E-02
vertex 4.9943838E-02 1.5670881E-02 7.5102367E-02
endloop
endfacet
facet normal -3.5076651E-01 5.6590104E-01 -7.4613595E-01
outer loop
vertex -5.6677382E-02 5.3711139E-02 8.0179097E-03
vertex -4.0839083E-02 4.9494527E-02 -2.6259008E-03
vertex -5.3959802E-02 3.6476128E-02 -6.3314144E-03
endloop
endfacet
facet normal 6.7483819E-01 -4.1299257E-01 6.1158025E-01
outer loop
vertex 4.7772180E-02 -1.3929743E-02 6.1618052E-02
vertex 4.2495102E-02 6.3077630E-03 8.1107095E-02
vertex 3.3765439E-02 -5.8285552E-03 8.2544193E-02
endloop
endfacet
facet normal 7.3905391E-01 -3.6504632E-01 5.6616288E-01
outer loop
vertex 6.5017506E-02 6.6487240E-03 5.4647937E-02
vertex 5.7196770E-02 -4.7167791E-03 5.7528753E-02
vertex 7.3220663E-02 -4.7256080E-03 3.6605898E-02
endloop
endfacet
facet normal -3.3121848E-01 -9.3680459E-01 1.1265615E-01
outer loop
vertex -1.3202873E-02 -5.2887730E-02 6.3176699E-02
vertex -1.5192927E-02 -5.4168120E-02 4.6678554E-02
vertex 1.9650046E-02 -6.5027080E-02 5.8820933E-02
endloop
endfacet
facet normal 7.2370565E-01 -4.0958557E-01 5.5541849E-01
outer loop
vertex 6.3662648E-02 -3.7597992E-02 2.8093249E-02
vertex 6.1950520E-02 -1.8630089E-02 4.4311751E-02
vertex 5.2092232E-02 -3.7732512E-02 4.3070205E-02
endloop
endfacet
facet normal -2.7707776E-01 -8.8452202E-01 3.7529796E-01
outer loop
vertex -1.3202873E-02 -5.2887730E-02 6.3176699E-02
vertex 1.9650046E-02 -6.5027080E-02 5.8820933E-02
vertex 1.3410363E-02 -5.8713041E-02 6.9095515E-02
endloop
endfacet
facet normal 6.3591987E-01 7.6968789E-01 -5.6449644E-02
outer loop
vertex 5.9847020E-02 2.7482523E-02 3.6909644E-02
vertex 6.9320790E-02 1.8466122E-02 2.0695979E-02
vertex 4.6604648E-02 3.6692981E-02 1.3315012E-02
endloop
endfacet
facet normal 5.5476684E-02 5.6414425E-01 8.2381046E-01
outer loop
vertex 2.4128374E-02 1.9343341E-02 9.4179057E-02
vertex 3.6018562E-02 3.5359677E-02 8.2410388E-02
vertex 5.2779349E-03 2.3597235E-02 9.2535414E-02
endloop
endfacet
facet normal 4.5155090E-01 8.9146996E-01 -3.7190482E-02
outer loop
vertex 1.1489111E-02 5.3498127E-02 -9.5585519E-03
vertex 1.6853478E-02 5.1292639E-02 2.7069252E-03
vertex 3.2216340E-02 4.2909235E-02 -1.1717159E-02
endloop
endfacet
facet normal -8.7799937E-01 8.7960564E-02 4.7051036E-01
outer loop
vertex -7.0664234E-02 1.9787841E-02 6.9927350E-02
vertex -7.4200630E-02 -2.1206187E-02 7.0991948E-02
vertex -6.4914696E-02 -6.0028897E-04 8.4467821E-02
endloop
endfacet
facet normal 7.4796575E-01 1.7060786E-01 6.4143604E-01
outer loop
vertex 4.7434371E-02 3.1072374E-02 7.3932149E-02
vertex 4.9943838E-02 1.5670881E-02 7.5102367E-02
vertex 6.3923731E-02 2.2071432E-02 5.7098284E-02
endloop
endfacet
facet normal -1.4854670E-01 -9.8538905E-01 8.3320923E-02
outer loop
vertex 3.2882050E-02 -7.7387989E-02 1.4589828E-02
vertex 1.1234190E-02 -7.4967727E-02 4.6185185E-03
vertex 3.0443899E-02 -7.8326359E-02 -8.5454626E-04
endloop
endfacet
facet normal -2.4063638E-01 -9.2946172E-01 2.7963385E-01
outer loop
vertex -1.0672000E-02 -6.8051979E-02 8.7542739E-03
vertex 1.1234190E-02 -7.4967727E-02 4.6185185E-03
vertex 1.2285429E-02 -6.8224810E-02 2.7935617E-02
endloop
endfacet
facet normal 1.2210558E-01 -1.4689748E-01 -9.8158610E-01
outer loop
vertex 3.6832351E-02 -1.3545017E-02 -1.6421637E-02
vertex 1.8741544E-02 -3.0217970E-02 -1.6176904E-02
vertex 2.8663089E-02 -4.2340262E-03 -1.8831281E-02
endloop
endfacet
facet normal 6.1597284E-02 -1.7329319E-01 -9.8294210E-01
outer loop
vertex 1.8741544E-02 -3.0217970E-02 -1.6176904E-02
vertex 1.2591060E-03 -4.6750829E-02 -1.4357711E-02
vertex 2.2470500E-04 -2.5390379E-02 -1.8188391E-02
endloop
endfacet
facet normal 1.7759781E-02 4.2786399E-01 9.0366864E-01
outer loop
vertex 2.4128374E-02 1.9343341E-02 9.4179057E-02
vertex 5.2779349E-03 2.3597235E-02 9.2535414E-02
vertex 1.2776729E-03 5.3583579E-03 1.0124967E-01
endloop
endfacet
facet normal -2.9203134E-02 6.5963632E-01 7.5101733E-01
outer loop
vertex 1.5290174E-02 5.2651342E-02 7.1037367E-02
vertex -4.8988061E-03 6.2107448E-02 6.1946802E-02
vertex 4.4732569E-03 4.0968601E-02 8.0877982E-02
endloop
endfacet
facet normal 2.3035912E-01 -1.2255424E-01 -9.6535754E-01
outer loop
vertex 4.8883900E-02 -4.7670860E-02 -8.0447970E-03
vertex 4.1083518E-02 -2.8129160E-02 -1.2387030E-02
vertex 6.0337670E-02 -2.3249116E-02 -8.4120268E-03
endloop
endfacet
facet normal 1.5235682E-02 -8.4108353E-02 -9.9634016E-01
outer loop
vertex -3.3105735E-02 7.9656101E-04 -2.2260595E-02
vertex -1.1673976E-02 -1.2746263E-02 -2.0789620E-02
vertex -3.9108790E-02 -1.3544719E-02 -2.1141740E-02
endloop
endfacet
facet normal 7.4581486E-01 6.4186180E-01 -1.7825128E-01
outer loop
vertex 8.1932612E-02 2.9113709E-03 1.7453836E-02
vertex 6.9320790E-02 1.8466122E-02 2.0695979E-02
vertex 7.8660063E-02 1.0441293E-02 3.0875640E-02
endloop
endfacet
facet normal 4.2788589E-01 -2.2118729E-01 -8.7635028E-01
outer loop
vertex 7.1285032E-02 -3.2424141E-02 -9.5545483E-04
vertex 5.7938252E-02 -5.2913159E-02 -2.3007935E-03
vertex 4.8883900E-02 -4.7670860E-02 -8.0447970E-03
endloop
endfacet
facet normal 6.8949364E-02 6.0458493E-01 7.9355091E-01
outer loop
vertex 1.5290174E-02 5.2651342E-02 7.1037367E-02
vertex 4.4732569E-03 4.0968601E-02 8.0877982E-02
vertex 3.6018562E-02 3.5359677E-02 8.2410388E-02
endloop
endfacet
facet normal -4.6411449E-01 -8.7704605E-01 1.2404871E-01
outer loop
vertex -1.3202873E-02 -5.2887730E-02 6.3176699E-02
vertex -3.7436273E-02 -3.8205922E-02 7.6313071E-02
vertex -1.5192927E-02 -5.4168120E-02 4.6678554E-02
endloop
endfacet
facet normal 2.1167417E-01 -3.3716626E-02 -9.7675854E-01
outer loop
vertex 2.8663089E-02 -4.2340262E-03 -1.8831281E-02
vertex 4.2881981E-02 2.1151997E-02 -1.6626190E-02
vertex 5.3217351E-02 5.9869038E-03 -1.3862921E-02
endloop
endfacet
facet normal -3.9517805E-01 6.8154985E-01 -6.1589283E-01
outer loop
vertex -5.6677382E-02 5.3711139E-02 8.0179097E-03
vertex -4.9961295E-02 6.3999653E-02 1.5093954E-02
vertex -3.8811240E-02 6.3992351E-02 7.9316162E-03
endloop
endfacet
facet normal 4.9586099E-01 8.6775607E-01 3.3485532E-02
outer loop
vertex 4.3815650E-02 3.6099635E-02 5.0998695E-02
vertex 5.9847020E-02 2.7482523E-02 3.6909644E-02
vertex 3.8073462E-02 4.0172454E-02 3.0485779E-02
endloop
endfacet
facet normal 9.1016662E-01 3.6469060E-01 -1.9646233E-01
outer loop
vertex 8.1161410E-02 -2.9154001E-03 3.0648629E-03
vertex 7.6573178E-02 6.1892690E-03 -1.2905149E-03
vertex 8.1932612E-02 2.9113709E-03 1.7453836E-02
endloop
endfacet
facet normal 3.3213222E-01 9.2794247E-02 -9.3865728E-01
outer loop
vertex 5.4012530E-02 2.9439308E-02 -1.1263087E-02
vertex 6.6053890E-02 1.9492509E-02 -7.9857269E-03
vertex 5.3217351E-02 5.9869038E-03 -1.3862921E-02
endloop
endfacet
facet normal 4.1025183E-01 9.0747285E-01 -9.0478539E-02
outer loop
vertex 1.6853478E-02 5.1292639E-02 2.7069252E-03
vertex 3.1664569E-02 4.4308022E-02 -1.8960467E-04
vertex 3.2216340E-02 4.2909235E-02 -1.1717159E-02
endloop
endfacet
facet normal 1.4265086E-01 9.8975068E-01 6.6571236E-03
outer loop
vertex -3.9390069E-03 5.8944046E-02 5.3884131E-03
vertex -2.3300096E-02 6.1655819E-02 1.7089671E-02
vertex -6.3857259E-03 5.9185505E-02 2.1918509E-02
endloop
endfacet
facet normal -1.9207376E-01 4.0438777E-01 -8.9419127E-01
outer loop
vertex -2.1706115E-02 5.0183602E-02 -6.4240680E-03
vertex -2.4844814E-02 2.6152469E-02 -1.6617674E-02
vertex -4.0839083E-02 4.9494527E-02 -2.6259008E-03
endloop
endfacet
facet normal -1.7282698E-01 3.0682051E-01 9.3594438E-01
outer loop
vertex -3.2982301E-02 -9.7111119E-03 1.0151959E-01
vertex -1.6059099E-02 -4.2388099E-03 1.0285062E-01
vertex -3.0012170E-02 6.7031098E-04 9.8664813E-02
endloop
endfacet
facet normal 3.9689535E-01 9.1521192E-01 -6.9722794E-02
outer loop
vertex 1.9408250E-02 5.0950821E-02 4.2648450E-02
vertex 1.0683428E-02 5.3231630E-02 2.2921503E-02
vertex 6.9642399E-04 5.9394442E-02 4.6966478E-02
endloop
endfacet
facet normal 5.1360834E-01 8.5755980E-01 2.8243273E-02
outer loop
vertex 3.8073462E-02 4.0172454E-02 3.0485779E-02
vertex 2.7770311E-02 4.6692066E-02 1.9893067E-02
vertex 1.9408250E-02 5.0950821E-02 4.2648450E-02
endloop
endfacet
facet normal -1.6552223E-01 6.1619908E-01 7.7000070E-01
outer loop
vertex -4.8988061E-03 6.2107448E-02 6.1946802E-02
vertex -1.8197736E-02 5.3002801E-02 6.6374078E-02
vertex 4.4732569E-03 4.0968601E-02 8.0877982E-02
endloop
endfacet
facet normal 6.7660260E-01 -4.3358579E-01 5.9515738E-01
outer loop
vertex 3.2928400E-02 -5.8353592E-02 4.9986281E-02
vertex 4.3893632E-02 -5.5138770E-02 3.9862566E-02
vertex 4.4339769E-02 -3.6918279E-02 5.2629422E-02
endloop
endfacet
facet normal 1.8269028E-01 -2.1231700E-01 -9.5997173E-01
outer loop
vertex 4.1083518E-02 -2.8129160E-02 -1.2387030E-02
vertex 1.8741544E-02 -3.0217970E-02 -1.6176904E-02
vertex 3.6832351E-02 -1.3545017E-02 -1.6421637E-02
endloop
endfacet
facet normal -8.7548077E-02 -3.5927141E-01 9.2911762E-01
outer loop
vertex -2.8189516E-02 -3.5212189E-02 9.2110440E-02
vertex -3.2982301E-02 -9.7111119E-03 1.0151959E-01
vertex -4.4064648E-02 -2.7066980E-02 9.3764164E-02
endloop
endfacet
facet normal 4.2285994E-01 -2.1157068E-01 -8.8115120E-01
outer loop
vertex 7.1285032E-02 -3.2424141E-02 -9.5545483E-04
vertex 4.8883900E-02 -4.7670860E-02 -8.0447970E-03
vertex 6.0337670E-02 -2.3249116E-02 -8.4120268E-03
endloop
endfacet
facet normal 9.4573712E-01 -2.9860890E-01 1.2811695E-01
outer loop
vertex 7.8631930E-02 -1.4423358E-02 1.4159316E-03
vertex 8.1932612E-02 2.9113709E-03 1.7453836E-02
vertex 7.3576018E-02 -2.1011749E-02 2.3381883E-02
endloop
endfacet
facet normal 4.6974737E-03 -3.2990608E-02 -9.9944460E-01
outer loop
vertex 1.2085538E-02 3.7757950E-03 -2.1223323E-02
vertex -1.1673976E-02 -1.2746263E-02 -2.0789620E-02
vertex -1.2288269E-02 8.9919688E-03 -2.1510063E-02
endloop
endfacet
facet normal -1.3424584E-01 2.5674087E-01 -9.5711148E-01
outer loop
vertex -2.4844814E-02 2.6152469E-02 -1.6617674E-02
vertex -3.3105735E-02 7.9656101E-04 -2.2260595E-02
vertex -5.2339301E-02 1.7026141E-02 -1.5209354E-02
endloop
endfacet
facet normal -8.9740318E-01 2.6948336E-01 -3.4935129E-01
outer loop
vertex -6.1484743E-02 6.0358007E-02 2.5494188E-02
vertex -5.6677382E-02 5.3711139E-02 8.0179097E-03
vertex -6.4326480E-02 4.6109341E-02 2.1802790E-02
endloop
endfacet
facet normal 3.0569337E-02 -1.7517982E-01 -9.8406178E-01
outer loop
vertex -9.3330340E-03 -6.5083072E-02 -1.1423297E-02
vertex 1.2591060E-03 -4.6750829E-02 -1.4357711E-02
vertex -4.4111599E-04 -7.6271571E-02 -9.1553302E-03
endloop
endfacet
facet normal 1.7966720E-01 -1.6092414E-01 -9.7047567E-01
outer loop
vertex 4.1083518E-02 -2.8129160E-02 -1.2387030E-02
vertex 3.3004839E-02 -5.5280991E-02 -9.3803480E-03
vertex 1.8741544E-02 -3.0217970E-02 -1.6176904E-02
endloop
endfacet
facet normal 8.8632137E-01 -1.5269822E-01 4.3717024E-01
outer loop
vertex 7.8660063E-02 1.0441293E-02 3.0875640E-02
vertex 7.3070712E-02 1.5522857E-02 4.3982450E-02
vertex 7.3220663E-02 -4.7256080E-03 3.6605898E-02
endloop
endfacet
facet normal 2.3438580E-01 -3.2848924E-01 -9.1496336E-01
outer loop
vertex 4.8883900E-02 -4.7670860E-02 -8.0447970E-03
vertex 4.4359859E-02 -6.7857161E-02 -1.9564526E-03
vertex 3.3004839E-02 -5.5280991E-02 -9.3803480E-03
endloop
endfacet
facet normal -3.0112249E-01 -2.9881480E-01 -9.0555787E-01
outer loop
vertex -4.3529056E-02 -2.5054200E-02 -1.5873998E-02
vertex -5.3794142E-02 -8.9977644E-03 -1.7758861E-02
vertex -3.9108790E-02 -1.3544719E-02 -2.1141740E-02
endloop
endfacet
facet normal 4.7933987E-01 -4.3517643E-01 7.6213825E-01
outer loop
vertex 2.6723130E-02 -2.7321540E-02 7.8646936E-02
vertex 4.4365930E-03 -3.8874511E-02 8.6067170E-02
vertex 1.3410363E-02 -5.8713041E-02 6.9095515E-02
endloop
endfacet
facet normal -3.5656187E-01 -9.1064686E-01 2.0877264E-01
outer loop
vertex -1.5192927E-02 -5.4168120E-02 4.6678554E-02
vertex 2.6430929E-02 -7.0480801E-02 4.6613358E-02
vertex 1.9650046E-02 -6.5027080E-02 5.8820933E-02
endloop
endfacet
facet normal -9.3634391E-01 2.5047728E-01 -2.4601074E-01
outer loop
vertex -6.1484743E-02 6.0358007E-02 2.5494188E-02
vertex -6.4326480E-02 4.6109341E-02 2.1802790E-02
vertex -7.2393686E-02 4.2661283E-02 4.8996799E-02
endloop
endfacet
facet normal 2.2419956E-01 -5.7297641E-01 7.8830999E-01
outer loop
vertex -9.3346061E-03 -4.5333199E-02 8.5289329E-02
vertex 1.3410363E-02 -5.8713041E-02 6.9095515E-02
vertex 4.4365930E-03 -3.8874511E-02 8.6067170E-02
endloop
endfacet
facet normal 6.9005543E-01 -3.4178242E-01 6.3797200E-01
outer loop
vertex 2.6723130E-02 -2.7321540E-02 7.8646936E-02
vertex 3.9899722E-02 -2.1288404E-02 6.7626767E-02
vertex 3.3765439E-02 -5.8285552E-03 8.2544193E-02
endloop
endfacet
facet normal -1.7752238E-01 -3.5237554E-01 -9.1886741E-01
outer loop
vertex -4.3529056E-02 -2.5054200E-02 -1.5873998E-02
vertex -3.9108790E-02 -1.3544719E-02 -2.1141740E-02
vertex -2.7483946E-02 -3.0183280E-02 -1.7006919E-02
endloop
endfacet
facet normal -9.4777588E-03 9.9983060E-01 -1.5773879E-02
outer loop
vertex -4.9961295E-02 6.3999653E-02 1.5093954E-02
vertex -3.5114251E-02 6.4359687E-02 2.8993940E-02
vertex -3.8811240E-02 6.3992351E-02 7.9316162E-03
endloop
endfacet
facet normal -3.5181755E-01 -8.7543380E-01 3.3142129E-01
outer loop
vertex -7.3910274E-02 -3.9556172E-02 2.7249232E-02
vertex -5.7830658E-02 -3.5000701E-02 5.6351479E-02
vertex -7.4827112E-02 -2.9301500E-02 5.3363204E-02
endloop
endfacet
facet normal -9.3229133E-01 8.3019033E-02 -3.5205218E-01
outer loop
vertex -5.2339301E-02 1.7026141E-02 -1.5209354E-02
vertex -6.0853694E-02 1.5439571E-02 6.9640037E-03
vertex -5.3959802E-02 3.6476128E-02 -6.3314144E-03
endloop
endfacet
facet normal 4.2591566E-01 9.0475029E-01 -4.7727437E-03
outer loop
vertex 1.5290174E-02 5.2651342E-02 7.1037367E-02
vertex 6.9642399E-04 5.9394442E-02 4.6966478E-02
vertex -4.8988061E-03 6.2107448E-02 6.1946802E-02
endloop
endfacet
facet normal 3.0116698E-01 -1.0004348E-02 9.5351893E-01
outer loop
vertex 1.7803509E-02 4.4272500E-04 9.5978446E-02
vertex 2.4128374E-02 1.9343341E-02 9.4179057E-02
vertex 1.2776729E-03 5.3583579E-03 1.0124967E-01
endloop
endfacet
facet normal -2.4018471E-01 5.9316695E-01 -7.6841676E-01
outer loop
vertex -4.0839083E-02 4.9494527E-02 -2.6259008E-03
vertex -3.8811240E-02 6.3992351E-02 7.9316162E-03
vertex -1.7217323E-02 6.0831018E-02 -1.2583538E-03
endloop
endfacet
facet normal 5.2187741E-01 8.4718132E-01 -9.9637717E-02
outer loop
vertex 4.6604648E-02 3.6692981E-02 1.3315012E-02
vertex 5.3192958E-02 3.0940520E-02 -1.0880406E-03
vertex 3.1664569E-02 4.4308022E-02 -1.8960467E-04
endloop
endfacet
facet normal 7.3407698E-01 -6.6959935E-01 -1.1299454E-01
outer loop
vertex 5.7938252E-02 -5.2913159E-02 -2.3007935E-03
vertex 5.6266520E-02 -5.6400601E-02 7.5050704E-03
vertex 4.4359859E-02 -6.7857161E-02 -1.9564526E-03
endloop
endfacet
facet normal -3.5965815E-01 7.7426058E-01 5.2073669E-01
outer loop
vertex -5.0486524E-02 5.0311804E-02 5.2752234E-02
vertex -5.1188238E-02 6.3800462E-02 3.2211885E-02
vertex -7.2393686E-02 4.2661283E-02 4.8996799E-02
endloop
endfacet
facet normal 1.5929377E-01 -3.5832140E-01 -9.1990829E-01
outer loop
vertex 1.5045311E-02 -6.5647922E-02 -1.0611768E-02
vertex 1.6040990E-02 -7.8401402E-02 -5.4716361E-03
vertex -4.4111599E-04 -7.6271571E-02 -9.1553302E-03
endloop
endfacet
facet normal 1.2840176E-01 9.9121645E-02 -9.8675627E-01
outer loop
vertex 1.0576847E-02 2.6541496E-02 -1.9132782E-02
vertex 2.9439270E-02 1.7997621E-02 -1.7536556E-02
vertex 1.2085538E-02 3.7757950E-03 -2.1223323E-02
endloop
endfacet
facet normal 2.5574151E-01 -1.6220646E-01 9.5304006E-01
outer loop
vertex 9.7282499E-04 -1.2502591E-02 9.8291561E-02
vertex 1.7803509E-02 4.4272500E-04 9.5978446E-02
vertex 1.2776729E-03 5.3583579E-03 1.0124967E-01
endloop
endfacet
facet normal 6.7456031E-01 -7.3694026E-01 4.3443255E-02
outer loop
vertex 4.4359859E-02 -6.7857161E-02 -1.9564526E-03
vertex 5.6266520E-02 -5.6400601E-02 7.5050704E-03
vertex 3.2882050E-02 -7.7387989E-02 1.4589828E-02
endloop
endfacet
facet normal 1.2586826E-01 -1.0082383E-01 -9.8691016E-01
outer loop
vertex 1.5045311E-02 -6.5647922E-02 -1.0611768E-02
vertex 1.5975904E-02 -4.8171248E-02 -1.2278519E-02
vertex 3.3004839E-02 -5.5280991E-02 -9.3803480E-03
endloop
endfacet
facet normal -1.6924681E-01 -9.7692013E-01 1.3031678E-01
outer loop
vertex 3.2882050E-02 -7.7387989E-02 1.4589828E-02
vertex 3.1143820E-02 -7.4593611E-02 3.3280388E-02
vertex 1.1234190E-02 -7.4967727E-02 4.6185185E-03
endloop
endfacet
facet normal 7.9598647E-01 -3.9515525E-02 6.0402334E-01
outer loop
vertex 6.3923731E-02 2.2071432E-02 5.7098284E-02
vertex 4.9943838E-02 1.5670881E-02 7.5102367E-02
vertex 6.5017506E-02 6.6487240E-03 5.4647937E-02
endloop
endfacet
endsolid Created by stlwrite.m 08-Jan-2017 18:58:43
