solid Created by stlwrite.m 09-Jan-2017 01:57:57
facet normal 1.0000000E+00 0.0000000E+00 0.0000000E+00
outer loop
vertex 8.0000001E-01 9.9999997E-10 9.9999997E-10
vertex 8.0000001E-01 1.2000000E+00 9.9999997E-10
vertex 8.0000001E-01 9.9999997E-10 5.0000001E-02
endloop
endfacet
facet normal 1.0000000E+00 -0.0000000E+00 0.0000000E+00
outer loop
vertex 8.0000001E-01 9.9999997E-10 5.0000001E-02
vertex 8.0000001E-01 1.2000000E+00 9.9999997E-10
vertex 8.0000001E-01 1.2000000E+00 5.0000001E-02
endloop
endfacet
facet normal 0.0000000E+00 -1.0000000E+00 0.0000000E+00
outer loop
vertex 9.9999997E-10 9.9999997E-10 9.9999997E-10
vertex 8.0000001E-01 9.9999997E-10 9.9999997E-10
vertex 9.9999997E-10 9.9999997E-10 5.0000001E-02
endloop
endfacet
facet normal 0.0000000E+00 -1.0000000E+00 0.0000000E+00
outer loop
vertex 9.9999997E-10 9.9999997E-10 5.0000001E-02
vertex 8.0000001E-01 9.9999997E-10 9.9999997E-10
vertex 8.0000001E-01 9.9999997E-10 5.0000001E-02
endloop
endfacet
facet normal -1.0000000E+00 0.0000000E+00 0.0000000E+00
outer loop
vertex 9.9999997E-10 1.2000000E+00 9.9999997E-10
vertex 9.9999997E-10 9.9999997E-10 9.9999997E-10
vertex 9.9999997E-10 1.2000000E+00 5.0000001E-02
endloop
endfacet
facet normal -1.0000000E+00 -0.0000000E+00 0.0000000E+00
outer loop
vertex 9.9999997E-10 1.2000000E+00 5.0000001E-02
vertex 9.9999997E-10 9.9999997E-10 9.9999997E-10
vertex 9.9999997E-10 9.9999997E-10 5.0000001E-02
endloop
endfacet
facet normal 0.0000000E+00 1.0000000E+00 -0.0000000E+00
outer loop
vertex 8.0000001E-01 1.2000000E+00 9.9999997E-10
vertex 9.9999997E-10 1.2000000E+00 9.9999997E-10
vertex 8.0000001E-01 1.2000000E+00 5.0000001E-02
endloop
endfacet
facet normal 0.0000000E+00 1.0000000E+00 0.0000000E+00
outer loop
vertex 8.0000001E-01 1.2000000E+00 5.0000001E-02
vertex 9.9999997E-10 1.2000000E+00 9.9999997E-10
vertex 9.9999997E-10 1.2000000E+00 5.0000001E-02
endloop
endfacet
facet normal 0.0000000E+00 0.0000000E+00 1.0000000E+00
outer loop
vertex 8.0000001E-01 1.2000000E+00 5.0000001E-02
vertex 9.9999997E-10 1.2000000E+00 5.0000001E-02
vertex 8.0000001E-01 9.9999997E-10 5.0000001E-02
endloop
endfacet
facet normal 0.0000000E+00 0.0000000E+00 1.0000000E+00
outer loop
vertex 8.0000001E-01 9.9999997E-10 5.0000001E-02
vertex 9.9999997E-10 1.2000000E+00 5.0000001E-02
vertex 9.9999997E-10 9.9999997E-10 5.0000001E-02
endloop
endfacet
facet normal 0.0000000E+00 0.0000000E+00 -1.0000000E+00
outer loop
vertex 9.9999997E-10 1.2000000E+00 9.9999997E-10
vertex 8.0000001E-01 1.2000000E+00 9.9999997E-10
vertex 9.9999997E-10 9.9999997E-10 9.9999997E-10
endloop
endfacet
facet normal 0.0000000E+00 0.0000000E+00 -1.0000000E+00
outer loop
vertex 9.9999997E-10 9.9999997E-10 9.9999997E-10
vertex 8.0000001E-01 1.2000000E+00 9.9999997E-10
vertex 8.0000001E-01 9.9999997E-10 9.9999997E-10
endloop
endfacet
endsolid Created by stlwrite.m 09-Jan-2017 01:57:57
