solid Created by stlwrite.m 08-Jan-2019 19:09:19
facet normal -1.9751491E-02 -3.8569205E-02 9.9906075E-01
outer loop
vertex 1.1742188E-02 -2.5924353E-02 2.8221192E-02
vertex 1.0502808E-02 -2.4821701E-02 2.8239258E-02
vertex 1.0470825E-02 -2.6778385E-02 2.8163087E-02
endloop
endfacet
facet normal 2.2492085E-01 -4.1572999E-02 9.7348970E-01
outer loop
vertex 1.0470825E-02 -2.6778385E-02 2.8163087E-02
vertex 1.0502808E-02 -2.4821701E-02 2.8239258E-02
vertex 9.1539305E-03 -2.6013836E-02 2.8500000E-02
endloop
endfacet
facet normal 9.3317598E-01 -3.5030073E-01 -8.0447927E-02
outer loop
vertex 1.1466675E-02 -2.2459432E-02 3.9850038E-02
vertex 9.8350830E-03 -2.6840314E-02 3.9999999E-02
vertex 9.1539305E-03 -2.6013836E-02 2.8500000E-02
endloop
endfacet
facet normal 6.6945356E-01 -7.3683935E-01 9.4338901E-02
outer loop
vertex 1.0502808E-02 -2.4821701E-02 2.8239258E-02
vertex 1.1466675E-02 -2.2459432E-02 3.9850038E-02
vertex 9.1539305E-03 -2.6013836E-02 2.8500000E-02
endloop
endfacet
facet normal -9.8607260E-01 -1.2677495E-01 1.0765159E-01
outer loop
vertex 1.1885498E-02 -2.5589755E-02 3.9999999E-02
vertex 1.1466675E-02 -2.2459432E-02 3.9850038E-02
vertex 1.0502808E-02 -2.4821701E-02 2.8239258E-02
endloop
endfacet
facet normal -6.6417038E-01 -7.4700677E-01 2.9300874E-02
outer loop
vertex 1.1742188E-02 -2.5924353E-02 2.8221192E-02
vertex 1.1885498E-02 -2.5589755E-02 3.9999999E-02
vertex 1.0502808E-02 -2.4821701E-02 2.8239258E-02
endloop
endfacet
facet normal 4.4596523E-01 -8.9406657E-01 -4.1952003E-02
outer loop
vertex -9.8640136E-03 -2.5108727E-02 3.9999999E-02
vertex -1.3055420E-02 -2.6697097E-02 3.9924987E-02
vertex -1.1363770E-02 -2.5301877E-02 2.8173400E-02
endloop
endfacet
facet normal 2.1348727E-01 -9.7688258E-01 -1.1118437E-02
outer loop
vertex -9.7813718E-03 -2.4959778E-02 2.8500000E-02
vertex -9.8640136E-03 -2.5108727E-02 3.9999999E-02
vertex -1.1363770E-02 -2.5301877E-02 2.8173400E-02
endloop
endfacet
facet normal 6.4728421E-01 -7.6181483E-01 2.5717366E-02
outer loop
vertex -2.6356934E-02 -9.4972877E-03 3.9999999E-02
vertex -2.8099243E-02 -1.0980192E-02 3.9924987E-02
vertex -2.6216310E-02 -9.7704232E-03 2.8369630E-02
endloop
endfacet
facet normal -6.4720941E-01 -7.6224571E-01 1.0075608E-02
outer loop
vertex -2.4356201E-02 -1.1196570E-02 3.9962523E-02
vertex -2.6356934E-02 -9.4972877E-03 3.9999999E-02
vertex -2.6216310E-02 -9.7704232E-03 2.8369630E-02
endloop
endfacet
facet normal -6.5428811E-01 -7.5615072E-01 1.1961205E-02
outer loop
vertex -2.4916748E-02 -1.0898247E-02 2.8159179E-02
vertex -2.4356201E-02 -1.1196570E-02 3.9962523E-02
vertex -2.6216310E-02 -9.7704232E-03 2.8369630E-02
endloop
endfacet
facet normal -6.2616535E-02 -6.4298791E-01 7.6331234E-01
outer loop
vertex -2.4574218E-02 1.1077723E-02 2.8500000E-02
vertex -2.6895385E-02 1.1149000E-02 2.8369630E-02
vertex -2.5784180E-02 1.0463016E-02 2.7882935E-02
endloop
endfacet
facet normal -6.8807554E-01 -7.1523005E-01 1.2246628E-01
outer loop
vertex -2.4676269E-02 1.1005562E-02 3.9999999E-02
vertex -2.6950927E-02 1.3174600E-02 3.9887514E-02
vertex -2.6895385E-02 1.1149000E-02 2.8369630E-02
endloop
endfacet
facet normal -3.0325202E-02 -9.9951875E-01 -6.5410137E-03
outer loop
vertex -2.4574218E-02 1.1077723E-02 2.8500000E-02
vertex -2.4676269E-02 1.1005562E-02 3.9999999E-02
vertex -2.6895385E-02 1.1149000E-02 2.8369630E-02
endloop
endfacet
facet normal 4.8635119E-01 -8.7265724E-01 4.3954562E-02
outer loop
vertex -1.2046630E-02 2.5441876E-02 2.8500000E-02
vertex -1.0694092E-02 2.6164856E-02 2.7888123E-02
vertex -9.8979492E-03 2.6639383E-02 2.8500000E-02
endloop
endfacet
facet normal 4.8666880E-01 -8.7322712E-01 2.5055561E-02
outer loop
vertex -9.8979492E-03 2.6639383E-02 2.8500000E-02
vertex -1.1718872E-02 2.5954513E-02 3.9999999E-02
vertex -1.2046630E-02 2.5441876E-02 2.8500000E-02
endloop
endfacet
facet normal 2.8411874E-01 -9.5871270E-01 -1.2107447E-02
outer loop
vertex -9.5592039E-03 2.6594540E-02 3.9999999E-02
vertex -1.1718872E-02 2.5954513E-02 3.9999999E-02
vertex -9.8979492E-03 2.6639383E-02 2.8500000E-02
endloop
endfacet
facet normal 1.3931555E-01 -6.9453537E-02 9.8780942E-01
outer loop
vertex 1.1598023E-02 2.5585661E-02 2.8159179E-02
vertex 1.0840210E-02 2.7058737E-02 2.8369630E-02
vertex 9.8923342E-03 2.5157411E-02 2.8369630E-02
endloop
endfacet
facet normal 8.9348114E-01 -4.4543067E-01 5.7297397E-02
outer loop
vertex 1.0840210E-02 2.7058737E-02 2.8369630E-02
vertex 1.0017822E-02 2.6905183E-02 3.9999999E-02
vertex 9.8923342E-03 2.5157411E-02 2.8369630E-02
endloop
endfacet
facet normal -4.9840817E-01 -8.6568522E-01 -4.6672184E-02
outer loop
vertex 1.2113038E-02 2.5698887E-02 3.9999999E-02
vertex 1.0017822E-02 2.6905183E-02 3.9999999E-02
vertex 1.0840210E-02 2.7058737E-02 2.8369630E-02
endloop
endfacet
facet normal -8.8590145E-01 -4.6188086E-01 4.2948849E-02
outer loop
vertex 1.1598023E-02 2.5585661E-02 2.8159179E-02
vertex 1.2113038E-02 2.5698887E-02 3.9999999E-02
vertex 1.0840210E-02 2.7058737E-02 2.8369630E-02
endloop
endfacet
facet normal -9.5895082E-02 -1.1911817E-01 9.8823833E-01
outer loop
vertex 2.6835449E-02 1.0374642E-02 2.8370911E-02
vertex 2.5242675E-02 1.1646260E-02 2.8369630E-02
vertex 2.5336914E-02 9.9424161E-03 2.8173400E-02
endloop
endfacet
facet normal -5.7139891E-01 -8.1986129E-01 3.6478933E-02
outer loop
vertex 2.8440919E-02 9.7698038E-03 3.9924987E-02
vertex 2.5377320E-02 1.1908304E-02 3.9999999E-02
vertex 2.6835449E-02 1.0374642E-02 2.8370911E-02
endloop
endfacet
facet normal -6.2373638E-01 -7.8124058E-01 2.4823172E-02
outer loop
vertex 2.6835449E-02 1.0374642E-02 2.8370911E-02
vertex 2.5377320E-02 1.1908304E-02 3.9999999E-02
vertex 2.5242675E-02 1.1646260E-02 2.8369630E-02
endloop
endfacet
facet normal -4.5287532E-01 -7.5775743E-01 4.6979541E-01
outer loop
vertex 2.4934815E-02 -9.6610785E-03 2.8500000E-02
vertex 2.5959350E-02 -1.0646730E-02 2.7897827E-02
vertex 2.7074952E-02 -1.0940135E-02 2.8500000E-02
endloop
endfacet
facet normal -5.1299083E-01 -8.5834360E-01 9.3082106E-03
outer loop
vertex 2.7074952E-02 -1.0940135E-02 2.8500000E-02
vertex 2.5195312E-02 -9.6920542E-03 3.9999999E-02
vertex 2.4934815E-02 -9.6610785E-03 2.8500000E-02
endloop
endfacet
facet normal -2.9021993E-01 -9.5530570E-01 5.6242634E-02
outer loop
vertex 2.8076049E-02 -1.0571633E-02 3.9924987E-02
vertex 2.5195312E-02 -9.6920542E-03 3.9999999E-02
vertex 2.7074952E-02 -1.0940135E-02 2.8500000E-02
endloop
endfacet
facet normal 9.5736110E-01 -1.1464440E-01 2.6517215E-01
outer loop
vertex 2.7244018E-02 1.1086144E-03 3.3674560E-02
vertex 2.5299195E-02 -6.7480427E-04 3.9924987E-02
vertex 2.6871704E-02 -1.2477303E-03 3.4000002E-02
endloop
endfacet
facet normal 5.1158947E-01 -8.5503674E-01 -8.4784172E-02
outer loop
vertex 2.8958131E-02 1.5069889E-03 3.9999999E-02
vertex 2.5299195E-02 -6.7480427E-04 3.9924987E-02
vertex 2.7244018E-02 1.1086144E-03 3.3674560E-02
endloop
endfacet
facet normal -4.7933049E-02 -9.9597669E-01 7.5715594E-02
outer loop
vertex 2.8947266E-02 1.0271160E-03 3.3680785E-02
vertex 2.8958131E-02 1.5069889E-03 3.9999999E-02
vertex 2.7244018E-02 1.1086144E-03 3.3674560E-02
endloop
endfacet
facet normal -9.1093516E-01 -4.0647209E-01 7.0552364E-02
outer loop
vertex 3.0115234E-02 -1.0991885E-03 3.9924987E-02
vertex 2.8958131E-02 1.5069889E-03 3.9999999E-02
vertex 2.9561767E-02 -8.8724203E-04 3.4000002E-02
endloop
endfacet
facet normal -9.5304579E-01 -3.0182883E-01 2.4559097E-02
outer loop
vertex 2.9561767E-02 -8.8724203E-04 3.4000002E-02
vertex 2.8958131E-02 1.5069889E-03 3.9999999E-02
vertex 2.8947266E-02 1.0271160E-03 3.3680785E-02
endloop
endfacet
facet normal -4.0419078E-01 2.2729918E-02 9.1439229E-01
outer loop
vertex 2.9561767E-02 -8.8724203E-04 3.4000002E-02
vertex 2.8947266E-02 1.0271160E-03 3.3680785E-02
vertex 2.7793579E-02 -4.7873170E-04 3.3208251E-02
endloop
endfacet
facet normal -1.7247399E-02 -2.8730679E-01 9.5768332E-01
outer loop
vertex 2.8947266E-02 1.0271160E-03 3.3680785E-02
vertex 2.7244018E-02 1.1086144E-03 3.3674560E-02
vertex 2.7793579E-02 -4.7873170E-04 3.3208251E-02
endloop
endfacet
facet normal 6.5052265E-01 2.1084675E-03 7.5948399E-01
outer loop
vertex 2.7793579E-02 -4.7873170E-04 3.3208251E-02
vertex 2.7244018E-02 1.1086144E-03 3.3674560E-02
vertex 2.6871704E-02 -1.2477303E-03 3.4000002E-02
endloop
endfacet
facet normal 2.2277569E-02 1.7669249E-02 9.9959576E-01
outer loop
vertex 2.3119751E-02 2.7795898E-02 3.1349976E-02
vertex 1.9758178E-02 2.3546902E-02 3.1500001E-02
vertex 3.2166503E-02 1.6389661E-02 3.1349976E-02
endloop
endfacet
facet normal 1.9515784E-02 1.2878470E-02 9.9972665E-01
outer loop
vertex 3.2166503E-02 1.6389661E-02 3.1349976E-02
vertex 1.9758178E-02 2.3546902E-02 3.1500001E-02
vertex 2.9221680E-02 9.2060948E-03 3.1500001E-02
endloop
endfacet
facet normal 1.3389101E-02 2.4701657E-02 9.9960524E-01
outer loop
vertex 2.3119751E-02 2.7795898E-02 3.1349976E-02
vertex 1.1148071E-02 3.4284938E-02 3.1349976E-02
vertex 1.9758178E-02 2.3546902E-02 3.1500001E-02
endloop
endfacet
facet normal 9.4910106E-03 2.1577673E-02 9.9972206E-01
outer loop
vertex 1.1148071E-02 3.4284938E-02 3.1349976E-02
vertex 5.2923583E-03 2.9909741E-02 3.1500001E-02
vertex 1.9758178E-02 2.3546902E-02 3.1500001E-02
endloop
endfacet
facet normal 2.8581345E-02 9.1584474E-03 9.9954963E-01
outer loop
vertex 3.2166503E-02 1.6389661E-02 3.1349976E-02
vertex 2.9221680E-02 9.2060948E-03 3.1500001E-02
vertex 3.5903078E-02 4.7286972E-03 3.1349976E-02
endloop
endfacet
facet normal 5.8014144E-04 3.3494160E-02 9.9943870E-01
outer loop
vertex 1.1148071E-02 3.4284938E-02 3.1349976E-02
vertex -4.9340818E-03 3.5681758E-02 3.1312499E-02
vertex 5.2923583E-03 2.9909741E-02 3.1500001E-02
endloop
endfacet
facet normal 2.3984456E-02 2.2933760E-03 9.9970973E-01
outer loop
vertex 3.5903078E-02 4.7286972E-03 3.1349976E-02
vertex 2.9221680E-02 9.2060948E-03 3.1500001E-02
vertex 3.0529786E-02 -4.4742660E-03 3.1500001E-02
endloop
endfacet
facet normal 3.2730862E-02 -2.8174140E-03 9.9946028E-01
outer loop
vertex 3.5903078E-02 4.7286972E-03 3.1349976E-02
vertex 3.0529786E-02 -4.4742660E-03 3.1500001E-02
vertex 3.4655273E-02 -9.7674765E-03 3.1349976E-02
endloop
endfacet
facet normal -5.1556900E-03 2.3340780E-02 9.9971426E-01
outer loop
vertex -4.9340818E-03 3.5681758E-02 3.1312499E-02
vertex -1.7431153E-02 2.4890399E-02 3.1500001E-02
vertex 5.2923583E-03 2.9909741E-02 3.1500001E-02
endloop
endfacet
facet normal -5.4629152E-03 2.3696393E-02 9.9970418E-01
outer loop
vertex -4.9340818E-03 3.5681758E-02 3.1312499E-02
vertex -1.8922973E-02 3.0875733E-02 3.1349976E-02
vertex -1.7431153E-02 2.4890399E-02 3.1500001E-02
endloop
endfacet
facet normal 2.2755682E-02 -1.0598361E-02 9.9968487E-01
outer loop
vertex 3.4655273E-02 -9.7674765E-03 3.1349976E-02
vertex 3.0529786E-02 -4.4742660E-03 3.1500001E-02
vertex 2.3834839E-02 -1.8848950E-02 3.1500001E-02
endloop
endfacet
facet normal 2.7667386E-02 -1.6453935E-02 9.9948180E-01
outer loop
vertex 3.4655273E-02 -9.7674765E-03 3.1349976E-02
vertex 2.3834839E-02 -1.8848950E-02 3.1500001E-02
vertex 2.5128663E-02 -2.5786527E-02 3.1349976E-02
endloop
endfacet
facet normal -1.8302606E-02 2.0494103E-02 9.9962252E-01
outer loop
vertex -1.8922973E-02 3.0875733E-02 3.1349976E-02
vertex -2.8056031E-02 2.2719301E-02 3.1349976E-02
vertex -1.7431153E-02 2.4890399E-02 3.1500001E-02
endloop
endfacet
facet normal -1.6679190E-02 1.2538424E-02 9.9978226E-01
outer loop
vertex -1.7431153E-02 2.4890399E-02 3.1500001E-02
vertex -2.8056031E-02 2.2719301E-02 3.1349976E-02
vertex -2.9221680E-02 9.2060948E-03 3.1500001E-02
endloop
endfacet
facet normal 1.4880856E-02 -1.8843530E-02 9.9971169E-01
outer loop
vertex 2.3834839E-02 -1.8848950E-02 3.1500001E-02
vertex 1.1390015E-02 -2.8676707E-02 3.1500001E-02
vertex 2.5128663E-02 -2.5786527E-02 3.1349976E-02
endloop
endfacet
facet normal 1.6255524E-02 -2.5386723E-02 9.9954551E-01
outer loop
vertex 1.1390015E-02 -2.8676707E-02 3.1500001E-02
vertex 1.2090088E-02 -3.4135334E-02 3.1349976E-02
vertex 2.5128663E-02 -2.5786527E-02 3.1349976E-02
endloop
endfacet
facet normal -2.2851324E-02 1.3069401E-02 9.9965346E-01
outer loop
vertex -2.8056031E-02 2.2719301E-02 3.1349976E-02
vertex -3.4135252E-02 1.2090026E-02 3.1349976E-02
vertex -2.9221680E-02 9.2060948E-03 3.1500001E-02
endloop
endfacet
facet normal 4.8599266E-03 -2.6850475E-02 9.9962765E-01
outer loop
vertex 1.1390015E-02 -2.8676707E-02 3.1500001E-02
vertex 0.0000000E+00 -3.0738296E-02 3.1500001E-02
vertex 1.2090088E-02 -3.4135334E-02 3.1349976E-02
endloop
endfacet
facet normal 4.9310517E-03 -2.6597625E-02 9.9963409E-01
outer loop
vertex 0.0000000E+00 -3.0738296E-02 3.1500001E-02
vertex 9.4995118E-04 -3.6200654E-02 3.1349976E-02
vertex 1.2090088E-02 -3.4135334E-02 3.1349976E-02
endloop
endfacet
facet normal -2.4874516E-02 1.7952973E-03 9.9968898E-01
outer loop
vertex -2.9221680E-02 9.2060948E-03 3.1500001E-02
vertex -3.6051881E-02 -1.8893976E-03 3.1349976E-02
vertex -3.0271363E-02 -5.3376490E-03 3.1500001E-02
endloop
endfacet
facet normal -2.8247274E-02 3.8728006E-03 9.9959356E-01
outer loop
vertex -2.9221680E-02 9.2060948E-03 3.1500001E-02
vertex -3.4135252E-02 1.2090026E-02 3.1349976E-02
vertex -3.6051881E-02 -1.8893976E-03 3.1349976E-02
endloop
endfacet
facet normal -5.7438891E-03 -2.2820113E-02 9.9972308E-01
outer loop
vertex 0.0000000E+00 -3.0738296E-02 3.1500001E-02
vertex -1.4140503E-02 -2.7179090E-02 3.1500001E-02
vertex -1.0283203E-02 -3.4722403E-02 3.1349976E-02
endloop
endfacet
facet normal -3.6975143E-03 -2.8097225E-02 9.9959838E-01
outer loop
vertex 0.0000000E+00 -3.0738296E-02 3.1500001E-02
vertex -1.0283203E-02 -3.4722403E-02 3.1349976E-02
vertex 9.4995118E-04 -3.6200654E-02 3.1349976E-02
endloop
endfacet
facet normal -3.1173147E-02 -8.7727755E-03 9.9947548E-01
outer loop
vertex -3.0271363E-02 -5.3376490E-03 3.1500001E-02
vertex -3.6051881E-02 -1.8893976E-03 3.1349976E-02
vertex -3.1867187E-02 -1.6759271E-02 3.1349976E-02
endloop
endfacet
facet normal -2.4140734E-02 -9.7577767E-03 9.9966091E-01
outer loop
vertex -3.0271363E-02 -5.3376490E-03 3.1500001E-02
vertex -3.1867187E-02 -1.6759271E-02 3.1349976E-02
vertex -2.5274415E-02 -1.7700097E-02 3.1500001E-02
endloop
endfacet
facet normal -1.3698156E-02 -2.6884006E-02 9.9954468E-01
outer loop
vertex -1.4140503E-02 -2.7179090E-02 3.1500001E-02
vertex -2.2046631E-02 -2.8728606E-02 3.1349976E-02
vertex -1.0283203E-02 -3.4722403E-02 3.1349976E-02
endloop
endfacet
facet normal -2.7314162E-02 -3.2082886E-02 9.9911189E-01
outer loop
vertex -2.5274415E-02 -1.7700097E-02 3.1500001E-02
vertex -3.1867187E-02 -1.6759271E-02 3.1349976E-02
vertex -1.4140503E-02 -2.7179090E-02 3.1500001E-02
endloop
endfacet
facet normal -1.6343433E-02 -1.3409402E-02 9.9977660E-01
outer loop
vertex -1.4140503E-02 -2.7179090E-02 3.1500001E-02
vertex -3.1867187E-02 -1.6759271E-02 3.1349976E-02
vertex -2.2046631E-02 -2.8728606E-02 3.1349976E-02
endloop
endfacet
facet normal 1.8210520E-01 -9.8225802E-01 4.4797465E-02
outer loop
vertex 1.2090088E-02 -3.4135334E-02 3.1349976E-02
vertex 9.4995118E-04 -3.6200654E-02 3.1349976E-02
vertex 1.8972168E-03 -3.6200620E-02 2.7500000E-02
endloop
endfacet
facet normal 2.1174365E-01 -9.7663635E-01 -3.6686528E-02
outer loop
vertex 1.2090088E-02 -3.4135334E-02 3.1349976E-02
vertex 1.8972168E-03 -3.6200620E-02 2.7500000E-02
vertex 1.3913575E-02 -3.3595365E-02 2.7500000E-02
endloop
endfacet
facet normal -1.3040505E-01 -9.9094123E-01 -3.2094084E-02
outer loop
vertex 9.4995118E-04 -3.6200654E-02 3.1349976E-02
vertex -1.0283203E-02 -3.4722403E-02 3.1349976E-02
vertex 1.8972168E-03 -3.6200620E-02 2.7500000E-02
endloop
endfacet
facet normal -1.0849122E-01 -9.9336445E-01 3.8166501E-02
outer loop
vertex -1.0283203E-02 -3.4722403E-02 3.1349976E-02
vertex -1.0325683E-02 -3.4865685E-02 2.7500000E-02
vertex 1.8972168E-03 -3.6200620E-02 2.7500000E-02
endloop
endfacet
facet normal -4.8323849E-01 -8.7466878E-01 3.7884019E-02
outer loop
vertex -1.0283203E-02 -3.4722403E-02 3.1349976E-02
vertex -2.3113525E-02 -2.7800636E-02 2.7500000E-02
vertex -1.0325683E-02 -3.4865685E-02 2.7500000E-02
endloop
endfacet
facet normal -4.5220676E-01 -8.8750130E-01 -8.8602543E-02
outer loop
vertex -1.0283203E-02 -3.4722403E-02 3.1349976E-02
vertex -2.2046631E-02 -2.8728606E-02 3.1349976E-02
vertex -2.3113525E-02 -2.7800636E-02 2.7500000E-02
endloop
endfacet
facet normal -7.7163643E-01 -6.3310939E-01 6.1233461E-02
outer loop
vertex -2.2046631E-02 -2.8728606E-02 3.1349976E-02
vertex -3.1867187E-02 -1.6759271E-02 3.1349976E-02
vertex -2.3113525E-02 -2.7800636E-02 2.7500000E-02
endloop
endfacet
facet normal 9.9523401E-01 -8.5667960E-02 -4.6586748E-02
outer loop
vertex 3.5903078E-02 4.7286972E-03 3.1349976E-02
vertex 3.4655273E-02 -9.7674765E-03 3.1349976E-02
vertex 3.5803955E-02 5.6707966E-03 2.7500000E-02
endloop
endfacet
facet normal 9.8506600E-01 -3.1060785E-02 1.6935243E-01
outer loop
vertex 3.4655273E-02 -9.7674765E-03 3.1349976E-02
vertex 3.5357423E-02 -8.4905764E-03 2.7500000E-02
vertex 3.5803955E-02 5.6707966E-03 2.7500000E-02
endloop
endfacet
facet normal -8.0053657E-01 -5.6596786E-01 -1.9703227E-01
outer loop
vertex -3.1867187E-02 -1.6759271E-02 3.1349976E-02
vertex -3.3917237E-02 -1.2519261E-02 2.7500000E-02
vertex -2.3113525E-02 -2.7800636E-02 2.7500000E-02
endloop
endfacet
facet normal 8.7897193E-01 -4.7686842E-01 2.1446834E-03
outer loop
vertex 3.4655273E-02 -9.7674765E-03 3.1349976E-02
vertex 2.7308594E-02 -2.3326313E-02 2.7500000E-02
vertex 3.5357423E-02 -8.4905764E-03 2.7500000E-02
endloop
endfacet
facet normal 8.4869552E-01 -5.0472355E-01 1.5801942E-01
outer loop
vertex 3.4655273E-02 -9.7674765E-03 3.1349976E-02
vertex 2.5128663E-02 -2.5786527E-02 3.1349976E-02
vertex 2.7308594E-02 -2.3326313E-02 2.7500000E-02
endloop
endfacet
facet normal -9.4125104E-01 -2.6488772E-01 2.0947787E-01
outer loop
vertex -3.1867187E-02 -1.6759271E-02 3.1349976E-02
vertex -3.6051881E-02 -1.8893976E-03 3.1349976E-02
vertex -3.3917237E-02 -1.2519261E-02 2.7500000E-02
endloop
endfacet
facet normal -9.6108395E-01 -9.9686012E-02 -2.5764391E-01
outer loop
vertex -3.6051881E-02 -1.8893976E-03 3.1349976E-02
vertex -3.5803955E-02 5.6707966E-03 2.7500000E-02
vertex -3.3917237E-02 -1.2519261E-02 2.7500000E-02
endloop
endfacet
facet normal 5.3423119E-01 -8.3432430E-01 1.3601486E-01
outer loop
vertex 2.5128663E-02 -2.5786527E-02 3.1349976E-02
vertex 1.2090088E-02 -3.4135334E-02 3.1349976E-02
vertex 1.3913575E-02 -3.3595365E-02 2.7500000E-02
endloop
endfacet
facet normal 6.0052329E-01 -7.8332669E-01 -1.6053371E-01
outer loop
vertex 2.5128663E-02 -2.5786527E-02 3.1349976E-02
vertex 1.3913575E-02 -3.3595365E-02 2.7500000E-02
vertex 2.7308594E-02 -2.3326313E-02 2.7500000E-02
endloop
endfacet
facet normal 0.0000000E+00 0.0000000E+00 -1.0000000E+00
outer loop
vertex -3.0064331E-02 2.0081021E-02 2.7500000E-02
vertex -1.6457275E-02 3.2299254E-02 2.7500000E-02
vertex -1.8652709E-02 1.6441442E-02 2.7500000E-02
endloop
endfacet
facet normal 0.0000000E+00 -0.0000000E+00 -1.0000000E+00
outer loop
vertex -1.6457275E-02 3.2299254E-02 2.7500000E-02
vertex -9.1125490E-03 2.3015615E-02 2.7500000E-02
vertex -1.8652709E-02 1.6441442E-02 2.7500000E-02
endloop
endfacet
facet normal 0.0000000E+00 0.0000000E+00 -1.0000000E+00
outer loop
vertex -3.0064331E-02 2.0081021E-02 2.7500000E-02
vertex -1.8652709E-02 1.6441442E-02 2.7500000E-02
vertex -2.4148438E-02 4.9935142E-03 2.7500000E-02
endloop
endfacet
facet normal 0.0000000E+00 -0.0000000E+00 -9.9999994E-01
outer loop
vertex -3.0064331E-02 2.0081021E-02 2.7500000E-02
vertex -2.4148438E-02 4.9935142E-03 2.7500000E-02
vertex -3.5803955E-02 5.6707966E-03 2.7500000E-02
endloop
endfacet
facet normal 0.0000000E+00 0.0000000E+00 -1.0000000E+00
outer loop
vertex -1.6457275E-02 3.2299254E-02 2.7500000E-02
vertex -1.8972168E-03 3.6200620E-02 2.7500000E-02
vertex -9.1125490E-03 2.3015615E-02 2.7500000E-02
endloop
endfacet
facet normal 0.0000000E+00 -0.0000000E+00 -1.0000000E+00
outer loop
vertex -1.8972168E-03 3.6200620E-02 2.7500000E-02
vertex 3.1025391E-03 2.4558734E-02 2.7500000E-02
vertex -9.1125490E-03 2.3015615E-02 2.7500000E-02
endloop
endfacet
facet normal 0.0000000E+00 0.0000000E+00 -9.9999994E-01
outer loop
vertex -3.5803955E-02 5.6707966E-03 2.7500000E-02
vertex -2.4148438E-02 4.9935142E-03 2.7500000E-02
vertex -3.3917237E-02 -1.2519261E-02 2.7500000E-02
endloop
endfacet
facet normal 0.0000000E+00 0.0000000E+00 -1.0000000E+00
outer loop
vertex -3.3917237E-02 -1.2519261E-02 2.7500000E-02
vertex -2.4148438E-02 4.9935142E-03 2.7500000E-02
vertex -2.3876587E-02 -6.9392012E-03 2.7500000E-02
endloop
endfacet
facet normal 0.0000000E+00 0.0000000E+00 -1.0000000E+00
outer loop
vertex -1.8972168E-03 3.6200620E-02 2.7500000E-02
vertex 1.4217529E-02 3.3105560E-02 2.7500000E-02
vertex 3.1025391E-03 2.4558734E-02 2.7500000E-02
endloop
endfacet
facet normal 0.0000000E+00 -0.0000000E+00 -1.0000000E+00
outer loop
vertex 1.4217529E-02 3.3105560E-02 2.7500000E-02
vertex 1.4549927E-02 2.0026347E-02 2.7500000E-02
vertex 3.1025391E-03 2.4558734E-02 2.7500000E-02
endloop
endfacet
facet normal 0.0000000E+00 0.0000000E+00 -1.0000000E+00
outer loop
vertex -3.3917237E-02 -1.2519261E-02 2.7500000E-02
vertex -2.3876587E-02 -6.9392012E-03 2.7500000E-02
vertex -1.5546631E-02 -1.8821592E-02 2.7500000E-02
endloop
endfacet
facet normal 0.0000000E+00 0.0000000E+00 -1.0000000E+00
outer loop
vertex -3.3917237E-02 -1.2519261E-02 2.7500000E-02
vertex -1.5546631E-02 -1.8821592E-02 2.7500000E-02
vertex -2.3113525E-02 -2.7800636E-02 2.7500000E-02
endloop
endfacet
facet normal 0.0000000E+00 0.0000000E+00 -9.9999994E-01
outer loop
vertex 1.4217529E-02 3.3105560E-02 2.7500000E-02
vertex 3.0064331E-02 2.0081021E-02 2.7500000E-02
vertex 1.4549927E-02 2.0026347E-02 2.7500000E-02
endloop
endfacet
facet normal 0.0000000E+00 0.0000000E+00 -9.9999994E-01
outer loop
vertex 1.4549927E-02 2.0026347E-02 2.7500000E-02
vertex 3.0064331E-02 2.0081021E-02 2.7500000E-02
vertex 2.1400757E-02 1.2659054E-02 2.7500000E-02
endloop
endfacet
facet normal 0.0000000E+00 0.0000000E+00 -1.0000000E+00
outer loop
vertex -1.5546631E-02 -1.8821592E-02 2.7500000E-02
vertex -3.1025391E-03 -2.4558734E-02 2.7500000E-02
vertex -1.0325683E-02 -3.4865685E-02 2.7500000E-02
endloop
endfacet
facet normal 0.0000000E+00 -0.0000000E+00 -1.0000000E+00
outer loop
vertex -1.5546631E-02 -1.8821592E-02 2.7500000E-02
vertex -1.0325683E-02 -3.4865685E-02 2.7500000E-02
vertex -2.3113525E-02 -2.7800636E-02 2.7500000E-02
endloop
endfacet
facet normal 0.0000000E+00 0.0000000E+00 -1.0000000E+00
outer loop
vertex 2.1400757E-02 1.2659054E-02 2.7500000E-02
vertex 3.5803955E-02 5.6707966E-03 2.7500000E-02
vertex 2.4705078E-02 1.5543117E-03 2.7500000E-02
endloop
endfacet
facet normal 0.0000000E+00 0.0000000E+00 -1.0000000E+00
outer loop
vertex 2.1400757E-02 1.2659054E-02 2.7500000E-02
vertex 3.0064331E-02 2.0081021E-02 2.7500000E-02
vertex 3.5803955E-02 5.6707966E-03 2.7500000E-02
endloop
endfacet
facet normal 0.0000000E+00 -0.0000000E+00 -1.0000000E+00
outer loop
vertex -3.1025391E-03 -2.4558734E-02 2.7500000E-02
vertex 1.8972168E-03 -3.6200620E-02 2.7500000E-02
vertex -1.0325683E-02 -3.4865685E-02 2.7500000E-02
endloop
endfacet
facet normal 0.0000000E+00 0.0000000E+00 -1.0000000E+00
outer loop
vertex 2.4705078E-02 1.5543117E-03 2.7500000E-02
vertex 3.5803955E-02 5.6707966E-03 2.7500000E-02
vertex 3.5357423E-02 -8.4905764E-03 2.7500000E-02
endloop
endfacet
facet normal 0.0000000E+00 0.0000000E+00 -1.0000000E+00
outer loop
vertex -3.1025391E-03 -2.4558734E-02 2.7500000E-02
vertex 9.1125490E-03 -2.3015615E-02 2.7500000E-02
vertex 1.8972168E-03 -3.6200620E-02 2.7500000E-02
endloop
endfacet
facet normal 0.0000000E+00 -0.0000000E+00 -1.0000000E+00
outer loop
vertex 2.4705078E-02 1.5543117E-03 2.7500000E-02
vertex 3.5357423E-02 -8.4905764E-03 2.7500000E-02
vertex 2.1024048E-02 -1.2430902E-02 2.7500000E-02
endloop
endfacet
facet normal 0.0000000E+00 -0.0000000E+00 -1.0000000E+00
outer loop
vertex 9.1125490E-03 -2.3015615E-02 2.7500000E-02
vertex 1.3913575E-02 -3.3595365E-02 2.7500000E-02
vertex 1.8972168E-03 -3.6200620E-02 2.7500000E-02
endloop
endfacet
facet normal 0.0000000E+00 0.0000000E+00 -1.0000000E+00
outer loop
vertex 2.1024048E-02 -1.2430902E-02 2.7500000E-02
vertex 3.5357423E-02 -8.4905764E-03 2.7500000E-02
vertex 2.7308594E-02 -2.3326313E-02 2.7500000E-02
endloop
endfacet
facet normal 0.0000000E+00 0.0000000E+00 -1.0000000E+00
outer loop
vertex 9.1125490E-03 -2.3015615E-02 2.7500000E-02
vertex 2.1024048E-02 -1.2430902E-02 2.7500000E-02
vertex 2.7308594E-02 -2.3326313E-02 2.7500000E-02
endloop
endfacet
facet normal 0.0000000E+00 0.0000000E+00 -1.0000000E+00
outer loop
vertex 9.1125490E-03 -2.3015615E-02 2.7500000E-02
vertex 2.7308594E-02 -2.3326313E-02 2.7500000E-02
vertex 1.3913575E-02 -3.3595365E-02 2.7500000E-02
endloop
endfacet
facet normal 5.6451935E-01 -8.1920648E-01 1.0108802E-01
outer loop
vertex -9.1125490E-03 2.3015615E-02 2.7500000E-02
vertex -1.1662110E-02 2.2789599E-02 3.9906248E-02
vertex -1.8652709E-02 1.6441442E-02 2.7500000E-02
endloop
endfacet
facet normal 2.3352359E-01 -9.7187936E-01 3.0284984E-02
outer loop
vertex -4.2969971E-03 2.4557540E-02 3.9850038E-02
vertex -1.1662110E-02 2.2789599E-02 3.9906248E-02
vertex -9.1125490E-03 2.3015615E-02 2.7500000E-02
endloop
endfacet
facet normal 1.2498184E-01 -9.8933631E-01 7.4787334E-02
outer loop
vertex 3.1025391E-03 2.4558734E-02 2.7500000E-02
vertex -4.2969971E-03 2.4557540E-02 3.9850038E-02
vertex -9.1125490E-03 2.3015615E-02 2.7500000E-02
endloop
endfacet
facet normal 7.0440141E-04 -9.9999970E-01 3.2536648E-04
outer loop
vertex 7.5650634E-03 2.4565920E-02 3.9924987E-02
vertex -4.2969971E-03 2.4557540E-02 3.9850038E-02
vertex 3.1025391E-03 2.4558734E-02 2.7500000E-02
endloop
endfacet
facet normal -5.6396490E-01 -8.2565552E-01 -1.5379816E-02
outer loop
vertex 1.6366212E-02 1.8555682E-02 3.9850038E-02
vertex 7.5650634E-03 2.4565920E-02 3.9924987E-02
vertex 1.4549927E-02 2.0026347E-02 2.7500000E-02
endloop
endfacet
facet normal -3.6492619E-01 -9.2168897E-01 1.3159896E-01
outer loop
vertex 1.4549927E-02 2.0026347E-02 2.7500000E-02
vertex 7.5650634E-03 2.4565920E-02 3.9924987E-02
vertex 3.1025391E-03 2.4558734E-02 2.7500000E-02
endloop
endfacet
facet normal -7.3204982E-01 -6.8073165E-01 2.6597736E-02
outer loop
vertex 2.1400757E-02 1.2659054E-02 2.7500000E-02
vertex 1.6366212E-02 1.8555682E-02 3.9850038E-02
vertex 1.4549927E-02 2.0026347E-02 2.7500000E-02
endloop
endfacet
facet normal -7.2852844E-01 -6.8436843E-01 2.9769639E-02
outer loop
vertex 2.4924438E-02 9.4492966E-03 3.9943725E-02
vertex 1.6366212E-02 1.8555682E-02 3.9850038E-02
vertex 2.1400757E-02 1.2659054E-02 2.7500000E-02
endloop
endfacet
facet normal 9.6086234E-01 -2.7042696E-01 -6.0106333E-02
outer loop
vertex -2.1025879E-02 1.3343399E-02 3.9850038E-02
vertex -2.4779297E-02 7.0128126E-06 3.9850038E-02
vertex -2.4148438E-02 4.9935142E-03 2.7500000E-02
endloop
endfacet
facet normal -9.4024283E-01 -2.7977815E-01 1.9408144E-01
outer loop
vertex 2.4705078E-02 1.5543117E-03 2.7500000E-02
vertex 2.4924438E-02 9.4492966E-03 3.9943725E-02
vertex 2.1400757E-02 1.2659054E-02 2.7500000E-02
endloop
endfacet
facet normal -9.9846846E-01 -3.7035678E-02 4.1098639E-02
outer loop
vertex 2.5299195E-02 -6.7480427E-04 3.9924987E-02
vertex 2.4924438E-02 9.4492966E-03 3.9943725E-02
vertex 2.4705078E-02 1.5543117E-03 2.7500000E-02
endloop
endfacet
facet normal 8.9962167E-01 -4.3187526E-01 6.4533181E-02
outer loop
vertex -1.8652709E-02 1.6441442E-02 2.7500000E-02
vertex -2.1025879E-02 1.3343399E-02 3.9850038E-02
vertex -2.4148438E-02 4.9935142E-03 2.7500000E-02
endloop
endfacet
facet normal 7.0974815E-01 -7.0331639E-01 -4.0044483E-02
outer loop
vertex -1.1662110E-02 2.2789599E-02 3.9906248E-02
vertex -2.1025879E-02 1.3343399E-02 3.9850038E-02
vertex -1.8652709E-02 1.6441442E-02 2.7500000E-02
endloop
endfacet
facet normal -9.8048653E-03 -2.6823003E-02 9.9959219E-01
outer loop
vertex 1.2113038E-02 2.5698887E-02 3.9999999E-02
vertex 7.5650634E-03 2.4565920E-02 3.9924987E-02
vertex 1.6366212E-02 1.8555682E-02 3.9850038E-02
endloop
endfacet
facet normal -1.0206183E-01 7.5205699E-02 9.9193120E-01
outer loop
vertex 1.0063477E-02 2.8945070E-02 3.9850038E-02
vertex 7.5650634E-03 2.4565920E-02 3.9924987E-02
vertex 1.0017822E-02 2.6905183E-02 3.9999999E-02
endloop
endfacet
facet normal 1.5955217E-03 1.6202440E-02 9.9986744E-01
outer loop
vertex 1.0063477E-02 2.8945070E-02 3.9850038E-02
vertex -3.7608643E-03 3.0306410E-02 3.9850038E-02
vertex 7.5650634E-03 2.4565920E-02 3.9924987E-02
endloop
endfacet
facet normal 5.0045967E-02 -1.4085031E-02 9.9864763E-01
outer loop
vertex -2.1025879E-02 1.3343399E-02 3.9850038E-02
vertex -2.4676269E-02 1.1005562E-02 3.9999999E-02
vertex -2.4779297E-02 7.0128126E-06 3.9850038E-02
endloop
endfacet
facet normal -6.3186781E-03 5.8927247E-04 9.9997985E-01
outer loop
vertex -3.7608643E-03 3.0306410E-02 3.9850038E-02
vertex -4.2969971E-03 2.4557540E-02 3.9850038E-02
vertex 7.5650634E-03 2.4565920E-02 3.9924987E-02
endloop
endfacet
facet normal 1.1437252E-02 -1.3739627E-02 9.9984020E-01
outer loop
vertex -2.4676269E-02 1.1005562E-02 3.9999999E-02
vertex -2.6523070E-02 9.4682323E-03 3.9999999E-02
vertex -2.4779297E-02 7.0128126E-06 3.9850038E-02
endloop
endfacet
facet normal 7.3684849E-02 -1.2081353E-01 9.8993665E-01
outer loop
vertex 7.0544435E-03 -2.9765015E-02 3.9850038E-02
vertex 1.1885498E-02 -2.5589755E-02 3.9999999E-02
vertex 9.8350830E-03 -2.6840314E-02 3.9999999E-02
endloop
endfacet
facet normal -8.4120668E-03 3.7338771E-02 9.9926734E-01
outer loop
vertex 1.1466675E-02 -2.2459432E-02 3.9850038E-02
vertex -7.6599122E-04 -2.4712164E-02 3.9831236E-02
vertex 9.8350830E-03 -2.6840314E-02 3.9999999E-02
endloop
endfacet
facet normal -8.1088312E-02 2.0881876E-02 9.9648821E-01
outer loop
vertex -2.6950927E-02 1.3174600E-02 3.9887514E-02
vertex -3.0293213E-02 1.9842505E-03 3.9850038E-02
vertex -2.6523070E-02 9.4682323E-03 3.9999999E-02
endloop
endfacet
facet normal -2.1996066E-02 -3.0325539E-02 9.9929798E-01
outer loop
vertex 9.8350830E-03 -2.6840314E-02 3.9999999E-02
vertex -7.6599122E-04 -2.4712164E-02 3.9831236E-02
vertex 7.0544435E-03 -2.9765015E-02 3.9850038E-02
endloop
endfacet
facet normal -6.0849423E-03 -1.6969053E-02 9.9983746E-01
outer loop
vertex -2.6523070E-02 9.4682323E-03 3.9999999E-02
vertex -3.0293213E-02 1.9842505E-03 3.9850038E-02
vertex -2.4779297E-02 7.0128126E-06 3.9850038E-02
endloop
endfacet
facet normal 2.3724923E-02 -5.1073940E-03 9.9970555E-01
outer loop
vertex 3.0115234E-02 -1.0991885E-03 3.9924987E-02
vertex 2.6904663E-02 -1.3302621E-03 3.9999999E-02
vertex 2.8076049E-02 -1.0571633E-02 3.9924987E-02
endloop
endfacet
facet normal -5.2688643E-02 -1.4783389E-02 9.9850154E-01
outer loop
vertex 2.6904663E-02 -1.3302621E-03 3.9999999E-02
vertex 2.5299195E-02 -6.7480427E-04 3.9924987E-02
vertex 2.8076049E-02 -1.0571633E-02 3.9924987E-02
endloop
endfacet
facet normal -5.9750504E-03 -5.5268933E-03 9.9996692E-01
outer loop
vertex -7.6599122E-04 -2.4712164E-02 3.9831236E-02
vertex -4.9085692E-03 -3.0403776E-02 3.9775025E-02
vertex 7.0544435E-03 -2.9765015E-02 3.9850038E-02
endloop
endfacet
facet normal 2.7494416E-02 -2.5640968E-03 9.9961865E-01
outer loop
vertex -3.7608643E-03 3.0306410E-02 3.9850038E-02
vertex -9.5592039E-03 2.6594540E-02 3.9999999E-02
vertex -4.2969971E-03 2.4557540E-02 3.9850038E-02
endloop
endfacet
facet normal 1.9592294E-02 -2.4131361E-02 9.9951679E-01
outer loop
vertex -7.6599122E-04 -2.4712164E-02 3.9831236E-02
vertex -9.8640136E-03 -2.5108727E-02 3.9999999E-02
vertex -4.9085692E-03 -3.0403776E-02 3.9775025E-02
endloop
endfacet
facet normal 2.8466677E-02 7.9871854E-03 9.9956286E-01
outer loop
vertex 2.8076049E-02 -1.0571633E-02 3.9924987E-02
vertex 2.5299195E-02 -6.7480427E-04 3.9924987E-02
vertex 2.5195312E-02 -9.6920542E-03 3.9999999E-02
endloop
endfacet
facet normal 5.3394162E-03 1.4890010E-02 9.9987489E-01
outer loop
vertex -2.4779297E-02 7.0128126E-06 3.9850038E-02
vertex -3.0293213E-02 1.9842505E-03 3.9850038E-02
vertex -2.6356934E-02 -9.4972877E-03 3.9999999E-02
endloop
endfacet
facet normal 2.8149096E-02 1.1098539E-02 9.9954212E-01
outer loop
vertex -2.4779297E-02 7.0128126E-06 3.9850038E-02
vertex -2.6356934E-02 -9.4972877E-03 3.9999999E-02
vertex -2.4356201E-02 -1.1196570E-02 3.9962523E-02
endloop
endfacet
facet normal 1.6808772E-02 3.9541475E-02 9.9907660E-01
outer loop
vertex -7.6599122E-04 -2.4712164E-02 3.9831236E-02
vertex -1.6366212E-02 -1.8555682E-02 3.9850038E-02
vertex -9.8640136E-03 -2.5108727E-02 3.9999999E-02
endloop
endfacet
facet normal -4.3649472E-02 8.8133859E-03 9.9900806E-01
outer loop
vertex 2.5299195E-02 -6.7480427E-04 3.9924987E-02
vertex 2.1025879E-02 -1.3343399E-02 3.9850038E-02
vertex 2.5195312E-02 -9.6920542E-03 3.9999999E-02
endloop
endfacet
facet normal -5.6190346E-04 -1.5893290E-02 9.9987352E-01
outer loop
vertex -2.4356201E-02 -1.1196570E-02 3.9962523E-02
vertex -2.4536621E-02 -1.8266819E-02 3.9850038E-02
vertex -1.6366212E-02 -1.8555682E-02 3.9850038E-02
endloop
endfacet
facet normal -2.2224970E-02 7.4994557E-02 9.9693626E-01
outer loop
vertex -9.5592039E-03 2.6594540E-02 3.9999999E-02
vertex -3.7608643E-03 3.0306410E-02 3.9850038E-02
vertex -1.1718872E-02 2.5954513E-02 3.9999999E-02
endloop
endfacet
facet normal 1.5608023E-02 -3.3248771E-02 9.9932522E-01
outer loop
vertex -9.5592039E-03 2.6594540E-02 3.9999999E-02
vertex -1.1662110E-02 2.2789599E-02 3.9906248E-02
vertex -4.2969971E-03 2.4557540E-02 3.9850038E-02
endloop
endfacet
facet normal -2.3352254E-02 -2.9304426E-04 9.9972719E-01
outer loop
vertex -1.6366212E-02 -1.8555682E-02 3.9850038E-02
vertex -1.3055420E-02 -2.6697097E-02 3.9924987E-02
vertex -9.8640136E-03 -2.5108727E-02 3.9999999E-02
endloop
endfacet
facet normal -5.1457841E-02 1.2822573E-01 9.9040908E-01
outer loop
vertex -3.7608643E-03 3.0306410E-02 3.9850038E-02
vertex -1.8229004E-02 2.4500249E-02 3.9850038E-02
vertex -1.1718872E-02 2.5954513E-02 3.9999999E-02
endloop
endfacet
facet normal 4.3525402E-02 -1.7134433E-03 9.9905086E-01
outer loop
vertex -9.8640136E-03 -2.5108727E-02 3.9999999E-02
vertex -9.9477535E-03 -2.7235912E-02 3.9999999E-02
vertex -4.9085692E-03 -3.0403776E-02 3.9775025E-02
endloop
endfacet
facet normal -4.9706776E-02 -1.4920342E-01 9.8755640E-01
outer loop
vertex -4.9085692E-03 -3.0403776E-02 3.9775025E-02
vertex -9.9477535E-03 -2.7235912E-02 3.9999999E-02
vertex -1.3055420E-02 -2.6697097E-02 3.9924987E-02
endloop
endfacet
facet normal 5.6345299E-02 -3.3112846E-02 9.9786210E-01
outer loop
vertex 2.8076049E-02 -1.0571633E-02 3.9924987E-02
vertex 2.5776368E-02 -1.2224289E-02 3.9999999E-02
vertex 2.5682984E-02 -1.6902313E-02 3.9850038E-02
endloop
endfacet
facet normal 3.3020580E-04 9.3397880E-03 9.9995637E-01
outer loop
vertex -1.6366212E-02 -1.8555682E-02 3.9850038E-02
vertex -2.4536621E-02 -1.8266819E-02 3.9850038E-02
vertex -1.3055420E-02 -2.6697097E-02 3.9924987E-02
endloop
endfacet
facet normal -3.6087453E-03 6.8962625E-03 9.9996972E-01
outer loop
vertex 2.1606445E-02 2.1297844E-02 3.9850038E-02
vertex 1.6366212E-02 1.8555682E-02 3.9850038E-02
vertex 2.4924438E-02 9.4492966E-03 3.9943725E-02
endloop
endfacet
facet normal -6.6183396E-02 -1.0644295E-02 9.9775064E-01
outer loop
vertex 2.1606445E-02 2.1297844E-02 3.9850038E-02
vertex 2.4924438E-02 9.4492966E-03 3.9943725E-02
vertex 2.5377320E-02 1.1908304E-02 3.9999999E-02
endloop
endfacet
facet normal 5.2374858E-02 7.9056293E-02 9.9549329E-01
outer loop
vertex 2.1606445E-02 2.1297844E-02 3.9850038E-02
vertex 1.0063477E-02 2.8945070E-02 3.9850038E-02
vertex 1.2113038E-02 2.5698887E-02 3.9999999E-02
endloop
endfacet
facet normal 8.3746240E-03 -1.6003791E-02 9.9983686E-01
outer loop
vertex 2.1606445E-02 2.1297844E-02 3.9850038E-02
vertex 1.2113038E-02 2.5698887E-02 3.9999999E-02
vertex 1.6366212E-02 1.8555682E-02 3.9850038E-02
endloop
endfacet
facet normal 4.9421631E-02 3.5789285E-02 9.9813658E-01
outer loop
vertex 2.1606445E-02 2.1297844E-02 3.9850038E-02
vertex 2.5377320E-02 1.1908304E-02 3.9999999E-02
vertex 2.8440919E-02 9.7698038E-03 3.9924987E-02
endloop
endfacet
facet normal -4.1897103E-02 -1.3141916E-03 9.9912107E-01
outer loop
vertex -2.6356934E-02 -9.4972877E-03 3.9999999E-02
vertex -3.0293213E-02 1.9842505E-03 3.9850038E-02
vertex -2.8099243E-02 -1.0980192E-02 3.9924987E-02
endloop
endfacet
facet normal 4.1640971E-02 7.2326213E-02 9.9651140E-01
outer loop
vertex 1.0063477E-02 2.8945070E-02 3.9850038E-02
vertex 1.0017822E-02 2.6905183E-02 3.9999999E-02
vertex 1.2113038E-02 2.5698887E-02 3.9999999E-02
endloop
endfacet
facet normal -1.6343022E-02 -2.9897779E-02 9.9941933E-01
outer loop
vertex -1.1718872E-02 2.5954513E-02 3.9999999E-02
vertex -1.8229004E-02 2.4500249E-02 3.9850038E-02
vertex -1.1662110E-02 2.2789599E-02 3.9906248E-02
endloop
endfacet
facet normal -2.9934557E-02 -6.8688942E-03 9.9952829E-01
outer loop
vertex 2.5776368E-02 -1.2224289E-02 3.9999999E-02
vertex 2.5195312E-02 -9.6920542E-03 3.9999999E-02
vertex 2.1025879E-02 -1.3343399E-02 3.9850038E-02
endloop
endfacet
facet normal -2.4110217E-02 -3.1550027E-02 9.9921125E-01
outer loop
vertex 2.5776368E-02 -1.2224289E-02 3.9999999E-02
vertex 2.1025879E-02 -1.3343399E-02 3.9850038E-02
vertex 2.5682984E-02 -1.6902313E-02 3.9850038E-02
endloop
endfacet
facet normal 0.0000000E+00 0.0000000E+00 9.9999994E-01
outer loop
vertex 2.5682984E-02 -1.6902313E-02 3.9850038E-02
vertex 2.1025879E-02 -1.3343399E-02 3.9850038E-02
vertex 1.8631713E-02 -2.4298012E-02 3.9850038E-02
endloop
endfacet
facet normal -1.0929807E-02 -1.5627841E-02 9.9981815E-01
outer loop
vertex -2.4356201E-02 -1.1196570E-02 3.9962523E-02
vertex -2.8099243E-02 -1.0980192E-02 3.9924987E-02
vertex -2.4536621E-02 -1.8266819E-02 3.9850038E-02
endloop
endfacet
facet normal -8.0347527E-03 2.0142067E-03 9.9996567E-01
outer loop
vertex -1.1662110E-02 2.2789599E-02 3.9906248E-02
vertex -1.8229004E-02 2.4500249E-02 3.9850038E-02
vertex -2.1025879E-02 1.3343399E-02 3.9850038E-02
endloop
endfacet
facet normal 0.0000000E+00 0.0000000E+00 9.9999994E-01
outer loop
vertex 2.1025879E-02 -1.3343399E-02 3.9850038E-02
vertex 1.1466675E-02 -2.2459432E-02 3.9850038E-02
vertex 1.8631713E-02 -2.4298012E-02 3.9850038E-02
endloop
endfacet
facet normal 6.3704434E-03 -1.5969863E-03 9.9997848E-01
outer loop
vertex -1.8229004E-02 2.4500249E-02 3.9850038E-02
vertex -2.6950927E-02 1.3174600E-02 3.9887514E-02
vertex -2.1025879E-02 1.3343399E-02 3.9850038E-02
endloop
endfacet
facet normal 9.8773845E-02 1.5215626E-02 9.9499357E-01
outer loop
vertex 2.8440919E-02 9.7698038E-03 3.9924987E-02
vertex 2.8958131E-02 1.5069889E-03 3.9999999E-02
vertex 3.0115234E-02 -1.0991885E-03 3.9924987E-02
endloop
endfacet
facet normal 1.2713301E-02 4.9544383E-02 9.9869096E-01
outer loop
vertex 1.1466675E-02 -2.2459432E-02 3.9850038E-02
vertex 1.1885498E-02 -2.5589755E-02 3.9999999E-02
vertex 1.8631713E-02 -2.4298012E-02 3.9850038E-02
endloop
endfacet
facet normal -2.4973543E-02 7.5120064E-03 9.9965990E-01
outer loop
vertex 2.8440919E-02 9.7698038E-03 3.9924987E-02
vertex 2.5299195E-02 -6.7480427E-04 3.9924987E-02
vertex 2.8958131E-02 1.5069889E-03 3.9999999E-02
endloop
endfacet
facet normal 5.4788035E-03 -1.6480164E-03 9.9998355E-01
outer loop
vertex 2.8440919E-02 9.7698038E-03 3.9924987E-02
vertex 2.4924438E-02 9.4492966E-03 3.9943725E-02
vertex 2.5299195E-02 -6.7480427E-04 3.9924987E-02
endloop
endfacet
facet normal 4.6993978E-03 5.6703672E-02 9.9838001E-01
outer loop
vertex -2.6950927E-02 1.3174600E-02 3.9887514E-02
vertex -2.4676269E-02 1.1005562E-02 3.9999999E-02
vertex -2.1025879E-02 1.3343399E-02 3.9850038E-02
endloop
endfacet
facet normal 3.7247475E-02 -7.8877598E-02 9.9618828E-01
outer loop
vertex 1.8631713E-02 -2.4298012E-02 3.9850038E-02
vertex 1.1885498E-02 -2.5589755E-02 3.9999999E-02
vertex 7.0544435E-03 -2.9765015E-02 3.9850038E-02
endloop
endfacet
facet normal 4.2471924E-01 -8.9941227E-01 1.0330049E-01
outer loop
vertex 1.8631713E-02 -2.4298012E-02 3.9850038E-02
vertex 7.0544435E-03 -2.9765015E-02 3.9850038E-02
vertex 1.1390015E-02 -2.8676707E-02 3.1500001E-02
endloop
endfacet
facet normal 6.1489844E-01 -7.7864194E-01 -1.2496641E-01
outer loop
vertex 1.8631713E-02 -2.4298012E-02 3.9850038E-02
vertex 1.1390015E-02 -2.8676707E-02 3.1500001E-02
vertex 2.3834839E-02 -1.8848950E-02 3.1500001E-02
endloop
endfacet
facet normal 1.7799185E-01 -9.8338228E-01 -3.5751536E-02
outer loop
vertex 7.0544435E-03 -2.9765015E-02 3.9850038E-02
vertex 0.0000000E+00 -3.0738296E-02 3.1500001E-02
vertex 1.1390015E-02 -2.8676707E-02 3.1500001E-02
endloop
endfacet
facet normal 5.2734684E-02 -9.9604225E-01 7.1546353E-02
outer loop
vertex 7.0544435E-03 -2.9765015E-02 3.9850038E-02
vertex -4.9085692E-03 -3.0403776E-02 3.9775025E-02
vertex 0.0000000E+00 -3.0738296E-02 3.1500001E-02
endloop
endfacet
facet normal -2.4274023E-01 -9.6439189E-01 -1.0500258E-01
outer loop
vertex -4.9085692E-03 -3.0403776E-02 3.9775025E-02
vertex -1.4140503E-02 -2.7179090E-02 3.1500001E-02
vertex 0.0000000E+00 -3.0738296E-02 3.1500001E-02
endloop
endfacet
facet normal -4.1026142E-01 -9.0594155E-01 1.0466784E-01
outer loop
vertex -4.9085692E-03 -3.0403776E-02 3.9775025E-02
vertex -1.3055420E-02 -2.6697097E-02 3.9924987E-02
vertex -1.4140503E-02 -2.7179090E-02 3.1500001E-02
endloop
endfacet
facet normal -5.8798522E-01 -7.9969746E-01 1.2147928E-01
outer loop
vertex -1.3055420E-02 -2.6697097E-02 3.9924987E-02
vertex -2.4536621E-02 -1.8266819E-02 3.9850038E-02
vertex -1.4140503E-02 -2.7179090E-02 3.1500001E-02
endloop
endfacet
facet normal -6.4824027E-01 -7.6141524E-01 5.5995211E-03
outer loop
vertex -2.4536621E-02 -1.8266819E-02 3.9850038E-02
vertex -2.5274415E-02 -1.7700097E-02 3.1500001E-02
vertex -1.4140503E-02 -2.7179090E-02 3.1500001E-02
endloop
endfacet
facet normal -8.9707083E-01 -4.3910995E-01 4.9460802E-02
outer loop
vertex -2.4536621E-02 -1.8266819E-02 3.9850038E-02
vertex -2.8099243E-02 -1.0980192E-02 3.9924987E-02
vertex -2.5274415E-02 -1.7700097E-02 3.1500001E-02
endloop
endfacet
facet normal -9.7618252E-01 -1.6438070E-01 1.4158605E-01
outer loop
vertex -2.8099243E-02 -1.0980192E-02 3.9924987E-02
vertex -3.0293213E-02 1.9842505E-03 3.9850038E-02
vertex -3.0271363E-02 -5.3376490E-03 3.1500001E-02
endloop
endfacet
facet normal -9.2706037E-01 -3.7472129E-01 -1.1951905E-02
outer loop
vertex -2.8099243E-02 -1.0980192E-02 3.9924987E-02
vertex -3.0271363E-02 -5.3376490E-03 3.1500001E-02
vertex -2.5274415E-02 -1.7700097E-02 3.1500001E-02
endloop
endfacet
facet normal 9.6914476E-01 -2.0863310E-01 1.3126597E-01
outer loop
vertex 3.0115234E-02 -1.0991885E-03 3.9924987E-02
vertex 2.8076049E-02 -1.0571633E-02 3.9924987E-02
vertex 3.0529786E-02 -4.4742660E-03 3.1500001E-02
endloop
endfacet
facet normal 9.0572172E-01 -4.2183596E-01 -4.1505773E-02
outer loop
vertex 2.8076049E-02 -1.0571633E-02 3.9924987E-02
vertex 2.3834839E-02 -1.8848950E-02 3.1500001E-02
vertex 3.0529786E-02 -4.4742660E-03 3.1500001E-02
endloop
endfacet
facet normal 9.2866004E-01 -3.4957486E-01 -1.2404764E-01
outer loop
vertex 2.8076049E-02 -1.0571633E-02 3.9924987E-02
vertex 2.5682984E-02 -1.6902313E-02 3.9850038E-02
vertex 2.3834839E-02 -1.8848950E-02 3.1500001E-02
endloop
endfacet
facet normal 7.2375894E-01 -6.9005245E-01 6.7912188E-04
outer loop
vertex 2.5682984E-02 -1.6902313E-02 3.9850038E-02
vertex 1.8631713E-02 -2.4298012E-02 3.9850038E-02
vertex 2.3834839E-02 -1.8848950E-02 3.1500001E-02
endloop
endfacet
facet normal -7.9148382E-01 6.0936850E-01 -4.7154412E-02
outer loop
vertex -2.6950927E-02 1.3174600E-02 3.9887514E-02
vertex -1.8229004E-02 2.4500249E-02 3.9850038E-02
vertex -1.7431153E-02 2.4890399E-02 3.1500001E-02
endloop
endfacet
facet normal -3.7242457E-01 9.2802989E-01 7.7761561E-03
outer loop
vertex -1.8229004E-02 2.4500249E-02 3.9850038E-02
vertex -3.7608643E-03 3.0306410E-02 3.9850038E-02
vertex -1.7431153E-02 2.4890399E-02 3.1500001E-02
endloop
endfacet
facet normal -2.0768729E-01 9.4023955E-01 -2.6984349E-01
outer loop
vertex -3.7608643E-03 3.0306410E-02 3.9850038E-02
vertex 5.2923583E-03 2.9909741E-02 3.1500001E-02
vertex -1.7431153E-02 2.4890399E-02 3.1500001E-02
endloop
endfacet
facet normal 9.7830147E-02 9.9346012E-01 5.8874395E-02
outer loop
vertex -3.7608643E-03 3.0306410E-02 3.9850038E-02
vertex 1.0063477E-02 2.8945070E-02 3.9850038E-02
vertex 5.2923583E-03 2.9909741E-02 3.1500001E-02
endloop
endfacet
facet normal 5.4942656E-01 8.2932210E-01 1.0176087E-01
outer loop
vertex 1.0063477E-02 2.8945070E-02 3.9850038E-02
vertex 2.1606445E-02 2.1297844E-02 3.9850038E-02
vertex 1.9758178E-02 2.3546902E-02 3.1500001E-02
endloop
endfacet
facet normal 3.9955109E-01 9.0837348E-01 -1.2335560E-01
outer loop
vertex 1.0063477E-02 2.8945070E-02 3.9850038E-02
vertex 1.9758178E-02 2.3546902E-02 3.1500001E-02
vertex 5.2923583E-03 2.9909741E-02 3.1500001E-02
endloop
endfacet
facet normal 8.3409548E-01 5.5041975E-01 -3.6371723E-02
outer loop
vertex 2.1606445E-02 2.1297844E-02 3.9850038E-02
vertex 2.9221680E-02 9.2060948E-03 3.1500001E-02
vertex 1.9758178E-02 2.3546902E-02 3.1500001E-02
endloop
endfacet
facet normal -9.9525774E-01 7.1831889E-02 -6.5591678E-02
outer loop
vertex -3.0293213E-02 1.9842505E-03 3.9850038E-02
vertex -2.9221680E-02 9.2060948E-03 3.1500001E-02
vertex -3.0271363E-02 -5.3376490E-03 3.1500001E-02
endloop
endfacet
facet normal 8.5917044E-01 5.0966072E-01 4.5520168E-02
outer loop
vertex 2.1606445E-02 2.1297844E-02 3.9850038E-02
vertex 2.8440919E-02 9.7698038E-03 3.9924987E-02
vertex 2.9221680E-02 9.2060948E-03 3.1500001E-02
endloop
endfacet
facet normal -9.5098066E-01 2.8362203E-01 1.2326493E-01
outer loop
vertex -3.0293213E-02 1.9842505E-03 3.9850038E-02
vertex -2.6950927E-02 1.3174600E-02 3.9887514E-02
vertex -2.9221680E-02 9.2060948E-03 3.1500001E-02
endloop
endfacet
facet normal 9.8508358E-01 1.5174729E-01 8.1136487E-02
outer loop
vertex 2.8440919E-02 9.7698038E-03 3.9924987E-02
vertex 3.0115234E-02 -1.0991885E-03 3.9924987E-02
vertex 2.9221680E-02 9.2060948E-03 3.1500001E-02
endloop
endfacet
facet normal 9.9540102E-01 9.5179506E-02 1.0849566E-02
outer loop
vertex 3.0115234E-02 -1.0991885E-03 3.9924987E-02
vertex 3.0529786E-02 -4.4742660E-03 3.1500001E-02
vertex 2.9221680E-02 9.2060948E-03 3.1500001E-02
endloop
endfacet
facet normal -7.9749519E-01 5.9950948E-01 -6.7748584E-02
outer loop
vertex -2.6950927E-02 1.3174600E-02 3.9887514E-02
vertex -1.7431153E-02 2.4890399E-02 3.1500001E-02
vertex -2.9221680E-02 9.2060948E-03 3.1500001E-02
endloop
endfacet
facet normal -6.8914431E-01 7.2264671E-01 5.3495813E-02
outer loop
vertex 1.1466675E-02 -2.2459432E-02 3.9850038E-02
vertex 2.1025879E-02 -1.3343399E-02 3.9850038E-02
vertex 2.1024048E-02 -1.2430902E-02 2.7500000E-02
endloop
endfacet
facet normal -6.6139746E-01 7.4430317E-01 9.2553928E-02
outer loop
vertex 9.1125490E-03 -2.3015615E-02 2.7500000E-02
vertex 1.1466675E-02 -2.2459432E-02 3.9850038E-02
vertex 2.1024048E-02 -1.2430902E-02 2.7500000E-02
endloop
endfacet
facet normal -1.8108839E-01 9.8341829E-01 -9.7695952E-03
outer loop
vertex -7.6599122E-04 -2.4712164E-02 3.9831236E-02
vertex 1.1466675E-02 -2.2459432E-02 3.9850038E-02
vertex 9.1125490E-03 -2.3015615E-02 2.7500000E-02
endloop
endfacet
facet normal -1.2525128E-01 9.9146914E-01 3.6069095E-02
outer loop
vertex -3.1025391E-03 -2.4558734E-02 2.7500000E-02
vertex -7.6599122E-04 -2.4712164E-02 3.9831236E-02
vertex 9.1125490E-03 -2.3015615E-02 2.7500000E-02
endloop
endfacet
facet normal 3.6709020E-01 9.3017519E-01 4.3334076E-03
outer loop
vertex -1.6366212E-02 -1.8555682E-02 3.9850038E-02
vertex -7.6599122E-04 -2.4712164E-02 3.9831236E-02
vertex -1.5546631E-02 -1.8821592E-02 2.7500000E-02
endloop
endfacet
facet normal 4.1771451E-01 9.0603942E-01 -6.7876093E-02
outer loop
vertex -1.5546631E-02 -1.8821592E-02 2.7500000E-02
vertex -7.6599122E-04 -2.4712164E-02 3.9831236E-02
vertex -3.1025391E-03 -2.4558734E-02 2.7500000E-02
endloop
endfacet
facet normal 6.7740571E-01 7.3503268E-01 2.9128360E-02
outer loop
vertex -2.4356201E-02 -1.1196570E-02 3.9962523E-02
vertex -1.6366212E-02 -1.8555682E-02 3.9850038E-02
vertex -1.5546631E-02 -1.8821592E-02 2.7500000E-02
endloop
endfacet
facet normal 7.9841399E-01 5.5971509E-01 2.2193293E-01
outer loop
vertex -2.3876587E-02 -6.9392012E-03 2.7500000E-02
vertex -2.4356201E-02 -1.1196570E-02 3.9962523E-02
vertex -1.5546631E-02 -1.8821592E-02 2.7500000E-02
endloop
endfacet
facet normal -9.6300381E-01 2.5347102E-01 9.1521464E-02
outer loop
vertex 2.1024048E-02 -1.2430902E-02 2.7500000E-02
vertex 2.5299195E-02 -6.7480427E-04 3.9924987E-02
vertex 2.4705078E-02 1.5543117E-03 2.7500000E-02
endloop
endfacet
facet normal 9.9794424E-01 3.8203351E-02 5.1456206E-02
outer loop
vertex -2.4779297E-02 7.0128126E-06 3.9850038E-02
vertex -2.4356201E-02 -1.1196570E-02 3.9962523E-02
vertex -2.3876587E-02 -6.9392012E-03 2.7500000E-02
endloop
endfacet
facet normal -9.4732058E-01 3.1940565E-01 2.3740126E-02
outer loop
vertex 2.1025879E-02 -1.3343399E-02 3.9850038E-02
vertex 2.5299195E-02 -6.7480427E-04 3.9924987E-02
vertex 2.1024048E-02 -1.2430902E-02 2.7500000E-02
endloop
endfacet
facet normal 9.9793005E-01 2.2734849E-02 6.0155351E-02
outer loop
vertex -2.4148438E-02 4.9935142E-03 2.7500000E-02
vertex -2.4779297E-02 7.0128126E-06 3.9850038E-02
vertex -2.3876587E-02 -6.9392012E-03 2.7500000E-02
endloop
endfacet
facet normal -3.2136199E-01 9.3648320E-01 1.4044805E-01
outer loop
vertex -1.8922973E-02 3.0875733E-02 3.1349976E-02
vertex -4.9340818E-03 3.5681758E-02 3.1312499E-02
vertex -1.6457275E-02 3.2299254E-02 2.7500000E-02
endloop
endfacet
facet normal -2.5810045E-01 9.6324140E-01 -7.4498817E-02
outer loop
vertex -4.9340818E-03 3.5681758E-02 3.1312499E-02
vertex -1.8972168E-03 3.6200620E-02 2.7500000E-02
vertex -1.6457275E-02 3.2299254E-02 2.7500000E-02
endloop
endfacet
facet normal 8.4318385E-02 9.7615802E-01 2.0001444E-01
outer loop
vertex -4.9340818E-03 3.5681758E-02 3.1312499E-02
vertex 1.1148071E-02 3.4284938E-02 3.1349976E-02
vertex -1.8972168E-03 3.6200620E-02 2.7500000E-02
endloop
endfacet
facet normal 1.8651718E-01 9.7112048E-01 -1.4878324E-01
outer loop
vertex 1.1148071E-02 3.4284938E-02 3.1349976E-02
vertex 1.4217529E-02 3.3105560E-02 2.7500000E-02
vertex -1.8972168E-03 3.6200620E-02 2.7500000E-02
endloop
endfacet
facet normal 4.7364333E-01 8.7382829E-01 1.0993688E-01
outer loop
vertex 1.1148071E-02 3.4284938E-02 3.1349976E-02
vertex 2.3119751E-02 2.7795898E-02 3.1349976E-02
vertex 1.4217529E-02 3.3105560E-02 2.7500000E-02
endloop
endfacet
facet normal 5.8898371E-01 7.1660954E-01 -3.7358925E-01
outer loop
vertex 2.3119751E-02 2.7795898E-02 3.1349976E-02
vertex 3.0064331E-02 2.0081021E-02 2.7500000E-02
vertex 1.4217529E-02 3.3105560E-02 2.7500000E-02
endloop
endfacet
facet normal -9.7094059E-01 1.3311937E-01 1.9888110E-01
outer loop
vertex -3.6051881E-02 -1.8893976E-03 3.1349976E-02
vertex -3.4135252E-02 1.2090026E-02 3.1349976E-02
vertex -3.5803955E-02 5.6707966E-03 2.7500000E-02
endloop
endfacet
facet normal 7.7265406E-01 6.1282343E-01 1.6568939E-01
outer loop
vertex 2.3119751E-02 2.7795898E-02 3.1349976E-02
vertex 3.2166503E-02 1.6389661E-02 3.1349976E-02
vertex 3.0064331E-02 2.0081021E-02 2.7500000E-02
endloop
endfacet
facet normal -9.0839481E-01 3.6181563E-01 -2.0954332E-01
outer loop
vertex -3.4135252E-02 1.2090026E-02 3.1349976E-02
vertex -3.0064331E-02 2.0081021E-02 2.7500000E-02
vertex -3.5803955E-02 5.6707966E-03 2.7500000E-02
endloop
endfacet
facet normal -8.6260414E-01 4.9335080E-01 1.1188907E-01
outer loop
vertex -3.4135252E-02 1.2090026E-02 3.1349976E-02
vertex -2.8056031E-02 2.2719301E-02 3.1349976E-02
vertex -3.0064331E-02 2.0081021E-02 2.7500000E-02
endloop
endfacet
facet normal 9.5110852E-01 3.0476794E-01 5.0090075E-02
outer loop
vertex 3.2166503E-02 1.6389661E-02 3.1349976E-02
vertex 3.5903078E-02 4.7286972E-03 3.1349976E-02
vertex 3.5803955E-02 5.6707966E-03 2.7500000E-02
endloop
endfacet
facet normal 9.1840446E-01 3.6580250E-01 -1.5073739E-01
outer loop
vertex 3.2166503E-02 1.6389661E-02 3.1349976E-02
vertex 3.5803955E-02 5.6707966E-03 2.7500000E-02
vertex 3.0064331E-02 2.0081021E-02 2.7500000E-02
endloop
endfacet
facet normal -6.5865368E-01 7.3751879E-01 -1.4913547E-01
outer loop
vertex -2.8056031E-02 2.2719301E-02 3.1349976E-02
vertex -1.8922973E-02 3.0875733E-02 3.1349976E-02
vertex -1.6457275E-02 3.2299254E-02 2.7500000E-02
endloop
endfacet
facet normal -6.5958250E-01 7.3455596E-01 -1.5930618E-01
outer loop
vertex -2.8056031E-02 2.2719301E-02 3.1349976E-02
vertex -1.6457275E-02 3.2299254E-02 2.7500000E-02
vertex -3.0064331E-02 2.0081021E-02 2.7500000E-02
endloop
endfacet
facet normal -1.0331020E-01 7.7092940E-01 6.2848622E-01
outer loop
vertex 2.9561767E-02 -8.8724203E-04 3.4000002E-02
vertex 2.7793579E-02 -4.7873170E-04 3.3208251E-02
vertex 2.6871704E-02 -1.2477303E-03 3.4000002E-02
endloop
endfacet
facet normal -7.0740655E-02 9.9659920E-01 4.2258035E-02
outer loop
vertex 2.6904663E-02 -1.3302621E-03 3.9999999E-02
vertex 3.0115234E-02 -1.0991885E-03 3.9924987E-02
vertex 2.9561767E-02 -8.8724203E-04 3.4000002E-02
endloop
endfacet
facet normal -1.3280638E-01 9.9103796E-01 1.4361555E-02
outer loop
vertex 2.6871704E-02 -1.2477303E-03 3.4000002E-02
vertex 2.6904663E-02 -1.3302621E-03 3.9999999E-02
vertex 2.9561767E-02 -8.8724203E-04 3.4000002E-02
endloop
endfacet
facet normal 3.7752995E-01 9.2593598E-01 1.0662652E-02
outer loop
vertex 2.5299195E-02 -6.7480427E-04 3.9924987E-02
vertex 2.6904663E-02 -1.3302621E-03 3.9999999E-02
vertex 2.6871704E-02 -1.2477303E-03 3.4000002E-02
endloop
endfacet
facet normal -5.8286440E-01 8.1218857E-01 2.4876192E-02
outer loop
vertex 2.5776368E-02 -1.2224289E-02 3.9999999E-02
vertex 2.8076049E-02 -1.0571633E-02 3.9924987E-02
vertex 2.7074952E-02 -1.0940135E-02 2.8500000E-02
endloop
endfacet
facet normal -4.1917044E-01 9.0630800E-01 5.3870462E-02
outer loop
vertex 2.4986694E-02 -1.1905962E-02 2.8500000E-02
vertex 2.5776368E-02 -1.2224289E-02 3.9999999E-02
vertex 2.7074952E-02 -1.0940135E-02 2.8500000E-02
endloop
endfacet
facet normal 9.7287643E-01 2.2323982E-01 -6.0625393E-02
outer loop
vertex 2.5195312E-02 -9.6920542E-03 3.9999999E-02
vertex 2.5776368E-02 -1.2224289E-02 3.9999999E-02
vertex 2.4986694E-02 -1.1905962E-02 2.8500000E-02
endloop
endfacet
facet normal 9.9947828E-01 2.3097562E-02 -2.2577841E-02
outer loop
vertex 2.4934815E-02 -9.6610785E-03 2.8500000E-02
vertex 2.5195312E-02 -9.6920542E-03 3.9999999E-02
vertex 2.4986694E-02 -1.1905962E-02 2.8500000E-02
endloop
endfacet
facet normal -2.6611909E-01 5.7538855E-01 7.7337474E-01
outer loop
vertex 2.7074952E-02 -1.0940135E-02 2.8500000E-02
vertex 2.5959350E-02 -1.0646730E-02 2.7897827E-02
vertex 2.4986694E-02 -1.1905962E-02 2.8500000E-02
endloop
endfacet
facet normal 5.1516271E-01 1.1905213E-02 8.5700965E-01
outer loop
vertex 2.4986694E-02 -1.1905962E-02 2.8500000E-02
vertex 2.5959350E-02 -1.0646730E-02 2.7897827E-02
vertex 2.4934815E-02 -9.6610785E-03 2.8500000E-02
endloop
endfacet
facet normal -9.0237498E-02 9.9382532E-01 6.4563982E-02
outer loop
vertex 2.4924438E-02 9.4492966E-03 3.9943725E-02
vertex 2.8440919E-02 9.7698038E-03 3.9924987E-02
vertex 2.6835449E-02 1.0374642E-02 2.8370911E-02
endloop
endfacet
facet normal -2.8069836E-01 9.5931596E-01 3.0353980E-02
outer loop
vertex 2.5336914E-02 9.9424161E-03 2.8173400E-02
vertex 2.4924438E-02 9.4492966E-03 3.9943725E-02
vertex 2.6835449E-02 1.0374642E-02 2.8370911E-02
endloop
endfacet
facet normal 9.9801290E-01 5.0925922E-02 3.7107579E-02
outer loop
vertex 2.5242675E-02 1.1646260E-02 2.8369630E-02
vertex 2.4924438E-02 9.4492966E-03 3.9943725E-02
vertex 2.5336914E-02 9.9424161E-03 2.8173400E-02
endloop
endfacet
facet normal 9.8346335E-01 -1.8095973E-01 -7.3083639E-03
outer loop
vertex 2.5377320E-02 1.1908304E-02 3.9999999E-02
vertex 2.4924438E-02 9.4492966E-03 3.9943725E-02
vertex 2.5242675E-02 1.1646260E-02 2.8369630E-02
endloop
endfacet
facet normal -2.4174598E-01 9.7033882E-01 1.2359539E-03
outer loop
vertex 7.5650634E-03 2.4565920E-02 3.9924987E-02
vertex 1.2113038E-02 2.5698887E-02 3.9999999E-02
vertex 1.1598023E-02 2.5585661E-02 2.8159179E-02
endloop
endfacet
facet normal -2.4344201E-01 9.6991521E-01 6.1790401E-04
outer loop
vertex 9.8923342E-03 2.5157411E-02 2.8369630E-02
vertex 7.5650634E-03 2.4565920E-02 3.9924987E-02
vertex 1.1598023E-02 2.5585661E-02 2.8159179E-02
endloop
endfacet
facet normal 6.8501449E-01 -7.2148991E-01 1.0103192E-01
outer loop
vertex 1.0017822E-02 2.6905183E-02 3.9999999E-02
vertex 7.5650634E-03 2.4565920E-02 3.9924987E-02
vertex 9.8923342E-03 2.5157411E-02 2.8369630E-02
endloop
endfacet
facet normal -8.7517786E-01 4.8300973E-01 2.7662793E-02
outer loop
vertex -1.1662110E-02 2.2789599E-02 3.9906248E-02
vertex -9.5592039E-03 2.6594540E-02 3.9999999E-02
vertex -9.8979492E-03 2.6639383E-02 2.8500000E-02
endloop
endfacet
facet normal -9.4248456E-01 3.3256418E-01 -3.3524953E-02
outer loop
vertex -1.0518067E-02 2.4855690E-02 2.8239258E-02
vertex -1.1662110E-02 2.2789599E-02 3.9906248E-02
vertex -9.8979492E-03 2.6639383E-02 2.8500000E-02
endloop
endfacet
facet normal 9.9485737E-01 1.4874863E-02 1.0018802E-01
outer loop
vertex -1.1718872E-02 2.5954513E-02 3.9999999E-02
vertex -1.1662110E-02 2.2789599E-02 3.9906248E-02
vertex -1.0518067E-02 2.4855690E-02 2.8239258E-02
endloop
endfacet
facet normal 3.4988779E-01 9.3536568E-01 -5.1667999E-02
outer loop
vertex -1.2046630E-02 2.5441876E-02 2.8500000E-02
vertex -1.1718872E-02 2.5954513E-02 3.9999999E-02
vertex -1.0518067E-02 2.4855690E-02 2.8239258E-02
endloop
endfacet
facet normal 2.6570150E-01 2.8291237E-01 9.2160910E-01
outer loop
vertex -1.2046630E-02 2.5441876E-02 2.8500000E-02
vertex -1.0518067E-02 2.4855690E-02 2.8239258E-02
vertex -1.0694092E-02 2.6164856E-02 2.7888123E-02
endloop
endfacet
facet normal -6.4751130E-01 1.1499061E-01 7.5333011E-01
outer loop
vertex -9.8979492E-03 2.6639383E-02 2.8500000E-02
vertex -1.0694092E-02 2.6164856E-02 2.7888123E-02
vertex -1.0518067E-02 2.4855690E-02 2.8239258E-02
endloop
endfacet
facet normal -7.6830506E-01 6.4007771E-01 -2.8014698E-03
outer loop
vertex -2.6096191E-02 9.2508523E-03 2.8500000E-02
vertex -2.4676269E-02 1.1005562E-02 3.9999999E-02
vertex -2.4574218E-02 1.1077723E-02 2.8500000E-02
endloop
endfacet
facet normal -6.3930553E-01 7.6800090E-01 -3.8248200E-02
outer loop
vertex -2.6523070E-02 9.4682323E-03 3.9999999E-02
vertex -2.4676269E-02 1.1005562E-02 3.9999999E-02
vertex -2.6096191E-02 9.2508523E-03 2.8500000E-02
endloop
endfacet
facet normal 9.2064869E-01 3.8947037E-01 2.6812410E-02
outer loop
vertex -2.6895385E-02 1.1149000E-02 2.8369630E-02
vertex -2.6523070E-02 9.4682323E-03 3.9999999E-02
vertex -2.6096191E-02 9.2508523E-03 2.8500000E-02
endloop
endfacet
facet normal 9.9333942E-01 1.1420530E-01 -1.5294644E-02
outer loop
vertex -2.6950927E-02 1.3174600E-02 3.9887514E-02
vertex -2.6523070E-02 9.4682323E-03 3.9999999E-02
vertex -2.6895385E-02 1.1149000E-02 2.8369630E-02
endloop
endfacet
facet normal -5.7996351E-01 4.8316967E-01 6.5588832E-01
outer loop
vertex -2.4574218E-02 1.1077723E-02 2.8500000E-02
vertex -2.5784180E-02 1.0463016E-02 2.7882935E-02
vertex -2.6096191E-02 9.2508523E-03 2.8500000E-02
endloop
endfacet
facet normal 5.2335387E-01 2.7572936E-01 8.0627173E-01
outer loop
vertex -2.6096191E-02 9.2508523E-03 2.8500000E-02
vertex -2.5784180E-02 1.0463016E-02 2.7882935E-02
vertex -2.6895385E-02 1.1149000E-02 2.8369630E-02
endloop
endfacet
facet normal -6.8165028E-01 7.2991121E-01 5.0819941E-02
outer loop
vertex -2.6015747E-02 -1.1939235E-02 2.8369630E-02
vertex -2.4356201E-02 -1.1196570E-02 3.9962523E-02
vertex -2.4916748E-02 -1.0898247E-02 2.8159179E-02
endloop
endfacet
facet normal 5.8282282E-02 9.9569100E-01 -7.2129324E-02
outer loop
vertex -2.8099243E-02 -1.0980192E-02 3.9924987E-02
vertex -2.4356201E-02 -1.1196570E-02 3.9962523E-02
vertex -2.6015747E-02 -1.1939235E-02 2.8369630E-02
endloop
endfacet
facet normal 9.8135805E-01 9.0751670E-02 1.6941233E-01
outer loop
vertex -2.6216310E-02 -9.7704232E-03 2.8369630E-02
vertex -2.8099243E-02 -1.0980192E-02 3.9924987E-02
vertex -2.6015747E-02 -1.1939235E-02 2.8369630E-02
endloop
endfacet
facet normal 1.7338085E-01 1.6033499E-02 9.8472434E-01
outer loop
vertex -2.6216310E-02 -9.7704232E-03 2.8369630E-02
vertex -2.6015747E-02 -1.1939235E-02 2.8369630E-02
vertex -2.4916748E-02 -1.0898247E-02 2.8159179E-02
endloop
endfacet
facet normal -9.9920380E-01 3.9335169E-02 -6.6710552E-03
outer loop
vertex -9.9477535E-03 -2.7235912E-02 3.9999999E-02
vertex -9.8640136E-03 -2.5108727E-02 3.9999999E-02
vertex -9.7813718E-03 -2.4959778E-02 2.8500000E-02
endloop
endfacet
facet normal -8.6976337E-01 4.8632362E-01 8.3671734E-02
outer loop
vertex -1.0823974E-02 -2.6777109E-02 2.8225036E-02
vertex -9.9477535E-03 -2.7235912E-02 3.9999999E-02
vertex -9.7813718E-03 -2.4959778E-02 2.8500000E-02
endloop
endfacet
facet normal 1.7017448E-01 9.8507828E-01 2.5719523E-02
outer loop
vertex -1.3055420E-02 -2.6697097E-02 3.9924987E-02
vertex -9.9477535E-03 -2.7235912E-02 3.9999999E-02
vertex -1.0823974E-02 -2.6777109E-02 2.8225036E-02
endloop
endfacet
facet normal 9.2286098E-01 3.4375846E-01 1.7365964E-01
outer loop
vertex -1.1363770E-02 -2.5301877E-02 2.8173400E-02
vertex -1.3055420E-02 -2.6697097E-02 3.9924987E-02
vertex -1.0823974E-02 -2.6777109E-02 2.8225036E-02
endloop
endfacet
facet normal -1.9435978E-01 -3.6806855E-02 9.8023951E-01
outer loop
vertex -1.1363770E-02 -2.5301877E-02 2.8173400E-02
vertex -1.0823974E-02 -2.6777109E-02 2.8225036E-02
vertex -9.7813718E-03 -2.4959778E-02 2.8500000E-02
endloop
endfacet
facet normal -5.5700731E-01 8.3033746E-01 -1.6810242E-02
outer loop
vertex 1.0470825E-02 -2.6778385E-02 2.8163087E-02
vertex 1.1885498E-02 -2.5589755E-02 3.9999999E-02
vertex 1.1742188E-02 -2.5924353E-02 2.8221192E-02
endloop
endfacet
facet normal -5.2055675E-01 8.5350376E-01 -2.3492871E-02
outer loop
vertex 9.8350830E-03 -2.6840314E-02 3.9999999E-02
vertex 1.1885498E-02 -2.5589755E-02 3.9999999E-02
vertex 1.0470825E-02 -2.6778385E-02 2.8163087E-02
endloop
endfacet
facet normal 5.0790185E-01 8.6082846E-01 3.1782366E-02
outer loop
vertex 9.1539305E-03 -2.6013836E-02 2.8500000E-02
vertex 9.8350830E-03 -2.6840314E-02 3.9999999E-02
vertex 1.0470825E-02 -2.6778385E-02 2.8163087E-02
endloop
endfacet
endsolid Created by stlwrite.m 08-Jan-2019 19:09:19
