solid Created by stlwrite.m 28-Nov-2018 09:46:52
facet normal -9.1464680E-01 4.0376663E-01 1.9841548E-02
outer loop
vertex -9.6653337E-03 -2.7227519E-02 -9.5148440E-03
vertex -9.1159903E-03 -2.6450669E-02 0.0000000E+00
vertex -9.0651363E-03 -2.5868630E-02 -9.4999997E-03
endloop
endfacet
facet normal -9.6938109E-01 -2.4473004E-01 -2.0183090E-02
outer loop
vertex -9.0651363E-03 -2.5868630E-02 -9.4999997E-03
vertex -9.1159903E-03 -2.6450669E-02 0.0000000E+00
vertex -9.6250502E-03 -2.4437301E-02 3.6730238E-05
endloop
endfacet
facet normal -8.7916344E-01 -4.7610727E-01 1.9840168E-02
outer loop
vertex -9.0651363E-03 -2.5868630E-02 -9.4999997E-03
vertex -9.6250502E-03 -2.4437301E-02 3.6730238E-05
vertex -9.8636271E-03 -2.4395440E-02 -9.5306151E-03
endloop
endfacet
facet normal -2.6060179E-01 -9.6544367E-01 2.2743039E-03
outer loop
vertex -9.8636271E-03 -2.4395440E-02 -9.5306151E-03
vertex -9.6250502E-03 -2.4437301E-02 3.6730238E-05
vertex -1.0383320E-02 -2.4232700E-02 3.1668640E-06
endloop
endfacet
facet normal 2.3849505E-01 -9.7069341E-01 2.9570024E-02
outer loop
vertex -9.8636271E-03 -2.4395440E-02 -9.5306151E-03
vertex -1.0383320E-02 -2.4232700E-02 3.1668640E-06
vertex -1.1870660E-02 -2.4598230E-02 0.0000000E+00
endloop
endfacet
facet normal 2.3451401E-01 -9.7168869E-01 2.8710490E-02
outer loop
vertex -9.8636271E-03 -2.4395440E-02 -9.5306151E-03
vertex -1.1870660E-02 -2.4598230E-02 0.0000000E+00
vertex -1.2166400E-02 -2.4950741E-02 -9.5148431E-03
endloop
endfacet
facet normal 9.9062669E-01 -1.3413432E-01 -2.5821198E-02
outer loop
vertex -1.2166400E-02 -2.4950741E-02 -9.5148431E-03
vertex -1.1870660E-02 -2.4598230E-02 0.0000000E+00
vertex -1.2166890E-02 -2.6785990E-02 0.0000000E+00
endloop
endfacet
facet normal 9.8972523E-01 1.4038564E-01 2.7128929E-02
outer loop
vertex -1.2166400E-02 -2.4950741E-02 -9.5148431E-03
vertex -1.2166890E-02 -2.6785990E-02 0.0000000E+00
vertex -1.1838010E-02 -2.7123449E-02 -1.0252050E-02
endloop
endfacet
facet normal 3.7695259E-01 9.2605001E-01 -1.8389650E-02
outer loop
vertex -1.1838010E-02 -2.7123449E-02 -1.0252050E-02
vertex -1.2166890E-02 -2.6785990E-02 0.0000000E+00
vertex -1.0428620E-02 -2.7493561E-02 0.0000000E+00
endloop
endfacet
facet normal 3.7350208E-02 9.9882370E-01 3.0924054E-02
outer loop
vertex -1.1838010E-02 -2.7123449E-02 -1.0252050E-02
vertex -1.0428620E-02 -2.7493561E-02 0.0000000E+00
vertex -9.6653337E-03 -2.7227519E-02 -9.5148440E-03
endloop
endfacet
facet normal -6.2182444E-01 7.8265589E-01 -2.7999494E-02
outer loop
vertex -9.6653337E-03 -2.7227519E-02 -9.5148440E-03
vertex -1.0428620E-02 -2.7493561E-02 0.0000000E+00
vertex -9.1159903E-03 -2.6450669E-02 0.0000000E+00
endloop
endfacet
facet normal -2.1876845E-01 -9.8400816E-02 9.7080249E-01
outer loop
vertex -9.8636271E-03 -2.4395440E-02 -9.5306151E-03
vertex -1.1838010E-02 -2.7123449E-02 -1.0252050E-02
vertex -9.0651363E-03 -2.5868630E-02 -9.4999997E-03
endloop
endfacet
facet normal 8.1062391E-02 -3.0924493E-01 9.4752115E-01
outer loop
vertex -1.2166400E-02 -2.4950741E-02 -9.5148431E-03
vertex -1.1838010E-02 -2.7123449E-02 -1.0252050E-02
vertex -9.8636271E-03 -2.4395440E-02 -9.5306151E-03
endloop
endfacet
facet normal -3.1316513E-01 1.2803985E-01 9.4102782E-01
outer loop
vertex -9.0651363E-03 -2.5868630E-02 -9.4999997E-03
vertex -1.1838010E-02 -2.7123449E-02 -1.0252050E-02
vertex -9.6653337E-03 -2.7227519E-02 -9.5148440E-03
endloop
endfacet
facet normal -9.6460885E-01 -2.6342091E-01 -1.1797689E-02
outer loop
vertex -1.8138699E-02 -2.0152340E-02 -1.0105300E-02
vertex -1.8199841E-02 -2.0381030E-02 0.0000000E+00
vertex -1.8753359E-02 -1.8357400E-02 7.3104507E-05
endloop
endfacet
facet normal -8.8346523E-01 -4.6759161E-01 2.9107532E-02
outer loop
vertex -1.8138699E-02 -2.0152340E-02 -1.0105300E-02
vertex -1.8753359E-02 -1.8357400E-02 7.3104507E-05
vertex -1.9147061E-02 -1.8210391E-02 -9.5148431E-03
endloop
endfacet
facet normal 7.8136019E-02 -9.9677116E-01 -1.8491641E-02
outer loop
vertex -1.9147061E-02 -1.8210391E-02 -9.5148431E-03
vertex -1.8753359E-02 -1.8357400E-02 7.3104507E-05
vertex -2.0954510E-02 -1.8528590E-02 0.0000000E+00
endloop
endfacet
facet normal 3.0372417E-01 -9.5240945E-01 2.5844878E-02
outer loop
vertex -1.9147061E-02 -1.8210391E-02 -9.5148431E-03
vertex -2.0954510E-02 -1.8528590E-02 0.0000000E+00
vertex -2.1250250E-02 -1.8881099E-02 -9.5148422E-03
endloop
endfacet
facet normal 9.8001885E-01 -1.9755359E-01 -2.3141837E-02
outer loop
vertex -2.1250250E-02 -1.8881099E-02 -9.5148422E-03
vertex -2.0954510E-02 -1.8528590E-02 0.0000000E+00
vertex -2.1349121E-02 -2.0486491E-02 2.7841429E-06
endloop
endfacet
facet normal 9.7377437E-01 2.2247191E-01 4.7641359E-02
outer loop
vertex -2.1250250E-02 -1.8881099E-02 -9.5148422E-03
vertex -2.1349121E-02 -2.0486491E-02 2.7841429E-06
vertex -2.0683641E-02 -2.1349341E-02 -9.5701534E-03
endloop
endfacet
facet normal 6.1856896E-01 7.8523934E-01 -2.7776033E-02
outer loop
vertex -2.0683641E-02 -2.1349341E-02 -9.5701534E-03
vertex -2.1349121E-02 -2.0486491E-02 2.7841429E-06
vertex -2.0094501E-02 -2.1474911E-02 0.0000000E+00
endloop
endfacet
facet normal -4.9955603E-01 8.6525762E-01 4.2105794E-02
outer loop
vertex -2.0683641E-02 -2.1349341E-02 -9.5701534E-03
vertex -2.0094501E-02 -2.1474911E-02 0.0000000E+00
vertex -1.8199841E-02 -2.0381030E-02 0.0000000E+00
endloop
endfacet
facet normal -4.2245480E-01 9.0620613E-01 1.7952047E-02
outer loop
vertex -2.0683641E-02 -2.1349341E-02 -9.5701534E-03
vertex -1.8199841E-02 -2.0381030E-02 0.0000000E+00
vertex -1.8138699E-02 -2.0152340E-02 -1.0105300E-02
endloop
endfacet
facet normal 8.0235109E-02 -2.5159758E-01 9.6450043E-01
outer loop
vertex -2.1250250E-02 -1.8881099E-02 -9.5148422E-03
vertex -1.8138699E-02 -2.0152340E-02 -1.0105300E-02
vertex -1.9147061E-02 -1.8210391E-02 -9.5148431E-03
endloop
endfacet
facet normal 1.9540447E-01 2.2885824E-02 9.8045570E-01
outer loop
vertex -2.0683641E-02 -2.1349341E-02 -9.5701534E-03
vertex -1.8138699E-02 -2.0152340E-02 -1.0105300E-02
vertex -2.1250250E-02 -1.8881099E-02 -9.5148422E-03
endloop
endfacet
facet normal -9.1544724E-01 -3.9949960E-01 4.8544258E-02
outer loop
vertex -2.4269961E-02 -1.1297890E-02 -9.5306160E-03
vertex -2.4183379E-02 -1.0337550E-02 5.3419508E-06
vertex -2.5216701E-02 -9.1265338E-03 -9.5148431E-03
endloop
endfacet
facet normal -5.4751199E-01 -8.3548528E-01 -4.6851043E-02
outer loop
vertex -2.5216701E-02 -9.1265338E-03 -9.5148431E-03
vertex -2.4183379E-02 -1.0337550E-02 5.3419508E-06
vertex -2.6164141E-02 -9.0392139E-03 0.0000000E+00
endloop
endfacet
facet normal 3.0359831E-01 -9.5200300E-01 3.8967539E-02
outer loop
vertex -2.5216701E-02 -9.1265338E-03 -9.5148431E-03
vertex -2.6164141E-02 -9.0392139E-03 0.0000000E+00
vertex -2.7319890E-02 -9.7972509E-03 -9.5148431E-03
endloop
endfacet
facet normal 7.1641225E-01 -6.9696599E-01 -3.1494666E-02
outer loop
vertex -2.7319890E-02 -9.7972509E-03 -9.5148431E-03
vertex -2.6164141E-02 -9.0392139E-03 0.0000000E+00
vertex -2.7570400E-02 -1.0484710E-02 0.0000000E+00
endloop
endfacet
facet normal 9.9822998E-01 -5.5134233E-02 2.2298308E-02
outer loop
vertex -2.7319890E-02 -9.7972509E-03 -9.5148431E-03
vertex -2.7570400E-02 -1.0484710E-02 0.0000000E+00
vertex -2.7387301E-02 -1.1291280E-02 -1.0191150E-02
endloop
endfacet
facet normal 8.8396978E-01 4.6706840E-01 -2.1083847E-02
outer loop
vertex -2.7387301E-02 -1.1291280E-02 -1.0191150E-02
vertex -2.7570400E-02 -1.0484710E-02 0.0000000E+00
vertex -2.6693629E-02 -1.2144080E-02 0.0000000E+00
endloop
endfacet
facet normal 6.1077541E-01 7.9142004E-01 2.4653308E-02
outer loop
vertex -2.7387301E-02 -1.1291280E-02 -1.0191150E-02
vertex -2.6693629E-02 -1.2144080E-02 0.0000000E+00
vertex -2.5937909E-02 -1.2430910E-02 -9.5148431E-03
endloop
endfacet
facet normal 2.6735565E-02 9.9925035E-01 -2.7999414E-02
outer loop
vertex -2.5937909E-02 -1.2430910E-02 -9.5148431E-03
vertex -2.6693629E-02 -1.2144080E-02 0.0000000E+00
vertex -2.5017740E-02 -1.2188920E-02 0.0000000E+00
endloop
endfacet
facet normal -5.6138200E-01 8.2688814E-01 3.3260401E-02
outer loop
vertex -2.5937909E-02 -1.2430910E-02 -9.5148431E-03
vertex -2.5017740E-02 -1.2188920E-02 0.0000000E+00
vertex -2.4269961E-02 -1.1297890E-02 -9.5306160E-03
endloop
endfacet
facet normal -9.1115701E-01 4.1072851E-01 -3.3090513E-02
outer loop
vertex -2.4269961E-02 -1.1297890E-02 -9.5306160E-03
vertex -2.5017740E-02 -1.2188920E-02 0.0000000E+00
vertex -2.4183379E-02 -1.0337550E-02 5.3419508E-06
endloop
endfacet
facet normal -2.0650536E-01 -9.7111434E-02 9.7361434E-01
outer loop
vertex -2.5216701E-02 -9.1265338E-03 -9.5148431E-03
vertex -2.7387301E-02 -1.1291280E-02 -1.0191150E-02
vertex -2.4269961E-02 -1.1297890E-02 -9.5306160E-03
endloop
endfacet
facet normal 1.3193673E-01 -4.1371822E-01 9.0079403E-01
outer loop
vertex -2.7319890E-02 -9.7972509E-03 -9.5148431E-03
vertex -2.7387301E-02 -1.1291280E-02 -1.0191150E-02
vertex -2.5216701E-02 -9.1265338E-03 -9.5148431E-03
endloop
endfacet
facet normal -1.9693577E-01 3.0289507E-01 9.3245417E-01
outer loop
vertex -2.4269961E-02 -1.1297890E-02 -9.5306160E-03
vertex -2.7387301E-02 -1.1291280E-02 -1.0191150E-02
vertex -2.5937909E-02 -1.2430910E-02 -9.5148431E-03
endloop
endfacet
facet normal -9.7359729E-01 -2.2710931E-01 -2.3013053E-02
outer loop
vertex -2.6322329E-02 -3.6617171E-04 -9.5148431E-03
vertex -2.6454400E-02 -7.7946723E-04 1.5128309E-04
vertex -2.6949560E-02 1.3585690E-03 0.0000000E+00
endloop
endfacet
facet normal -8.8519818E-01 -4.6449557E-01 2.5844965E-02
outer loop
vertex -2.6322329E-02 -3.6617171E-04 -9.5148431E-03
vertex -2.6949560E-02 1.3585690E-03 0.0000000E+00
vertex -2.7348069E-02 1.5886010E-03 -9.5148431E-03
endloop
endfacet
facet normal -3.7487485E-02 -9.9904191E-01 -2.2582874E-02
outer loop
vertex -2.7348069E-02 1.5886010E-03 -9.5148431E-03
vertex -2.6949560E-02 1.3585690E-03 0.0000000E+00
vertex -2.8825000E-02 1.4289420E-03 0.0000000E+00
endloop
endfacet
facet normal 3.0368084E-01 -9.5226425E-01 3.1159513E-02
outer loop
vertex -2.7348069E-02 1.5886010E-03 -9.5148431E-03
vertex -2.8825000E-02 1.4289420E-03 0.0000000E+00
vertex -2.9451260E-02 9.1788510E-04 -9.5148431E-03
endloop
endfacet
facet normal 8.0690426E-01 -5.9029424E-01 -2.1404274E-02
outer loop
vertex -2.9451260E-02 9.1788510E-04 -9.5148431E-03
vertex -2.8825000E-02 1.4289420E-03 0.0000000E+00
vertex -2.9701781E-02 2.3042440E-04 0.0000000E+00
endloop
endfacet
facet normal 9.9822956E-01 -5.5140544E-02 2.2298811E-02
outer loop
vertex -2.9451260E-02 9.1788510E-04 -9.5148431E-03
vertex -2.9701781E-02 2.3042440E-04 0.0000000E+00
vertex -2.9518681E-02 -5.7614758E-04 -1.0191150E-02
endloop
endfacet
facet normal 8.0430883E-01 5.9332150E-01 -3.2507382E-02
outer loop
vertex -2.9518681E-02 -5.7614758E-04 -1.0191150E-02
vertex -2.9701781E-02 2.3042440E-04 0.0000000E+00
vertex -2.8295510E-02 -1.6759220E-03 0.0000000E+00
endloop
endfacet
facet normal 6.1478531E-01 7.8861338E-01 1.1314635E-02
outer loop
vertex -2.9518681E-02 -5.7614758E-04 -1.0191150E-02
vertex -2.8295510E-02 -1.6759220E-03 0.0000000E+00
vertex -2.8069280E-02 -1.7157710E-03 -9.5148440E-03
endloop
endfacet
facet normal -4.3678957E-01 8.9945239E-01 -1.4152310E-02
outer loop
vertex -2.8069280E-02 -1.7157710E-03 -9.5148440E-03
vertex -2.8295510E-02 -1.6759220E-03 0.0000000E+00
vertex -2.6454400E-02 -7.7946723E-04 1.5128309E-04
endloop
endfacet
facet normal -6.1115915E-01 7.9109770E-01 2.5474617E-02
outer loop
vertex -2.8069280E-02 -1.7157710E-03 -9.5148440E-03
vertex -2.6454400E-02 -7.7946723E-04 1.5128309E-04
vertex -2.6322329E-02 -3.6617171E-04 -9.5148431E-03
endloop
endfacet
facet normal -1.9928916E-01 -1.0457425E-01 9.7434491E-01
outer loop
vertex -2.7348069E-02 1.5886010E-03 -9.5148431E-03
vertex -2.9518681E-02 -5.7614758E-04 -1.0191150E-02
vertex -2.6322329E-02 -3.6617171E-04 -9.5148431E-03
endloop
endfacet
facet normal 1.3193637E-01 -4.1371816E-01 9.0079415E-01
outer loop
vertex -2.9451260E-02 9.1788510E-04 -9.5148431E-03
vertex -2.9518681E-02 -5.7614758E-04 -1.0191150E-02
vertex -2.7348069E-02 1.5886010E-03 -9.5148431E-03
endloop
endfacet
facet normal -2.1629474E-01 2.7997595E-01 9.3532348E-01
outer loop
vertex -2.6322329E-02 -3.6617171E-04 -9.5148431E-03
vertex -2.9518681E-02 -5.7614758E-04 -1.0191150E-02
vertex -2.8069280E-02 -1.7157710E-03 -9.5148440E-03
endloop
endfacet
facet normal -9.4626242E-01 3.2094300E-01 3.9787069E-02
outer loop
vertex -2.5206471E-02 8.9874463E-03 -9.5575126E-03
vertex -2.4218630E-02 1.0715140E-02 0.0000000E+00
vertex -2.4348080E-02 1.1513020E-02 -9.5148431E-03
endloop
endfacet
facet normal -9.1466087E-01 -4.0365505E-01 -2.1405010E-02
outer loop
vertex -2.4348080E-02 1.1513020E-02 -9.5148431E-03
vertex -2.4218630E-02 1.0715140E-02 0.0000000E+00
vertex -2.4818189E-02 1.2073710E-02 0.0000000E+00
endloop
endfacet
facet normal -3.7941310E-01 -9.2453700E-01 3.5734978E-02
outer loop
vertex -2.4348080E-02 1.1513020E-02 -9.5148431E-03
vertex -2.4818189E-02 1.2073710E-02 0.0000000E+00
vertex -2.6390349E-02 1.2351130E-02 -9.5148422E-03
endloop
endfacet
facet normal 1.1160941E-01 -9.9262190E-01 -4.7382977E-02
outer loop
vertex -2.6390349E-02 1.2351130E-02 -9.5148422E-03
vertex -2.4818189E-02 1.2073710E-02 0.0000000E+00
vertex -2.7172260E-02 1.1809020E-02 0.0000000E+00
endloop
endfacet
facet normal 8.4397268E-01 -5.3497559E-01 3.8875636E-02
outer loop
vertex -2.6390349E-02 1.2351130E-02 -9.5148422E-03
vertex -2.7172260E-02 1.1809020E-02 0.0000000E+00
vertex -2.7549651E-02 1.0479320E-02 -1.0105300E-02
endloop
endfacet
facet normal 9.9930346E-01 0.0000000E+00 -3.7319791E-02
outer loop
vertex -2.7549651E-02 1.0479320E-02 -1.0105300E-02
vertex -2.7172260E-02 1.1809020E-02 0.0000000E+00
vertex -2.7172260E-02 9.6212551E-03 0.0000000E+00
endloop
endfacet
facet normal 5.2760810E-01 8.4787691E-01 5.2291274E-02
outer loop
vertex -2.7549651E-02 1.0479320E-02 -1.0105300E-02
vertex -2.7172260E-02 9.6212551E-03 0.0000000E+00
vertex -2.5206471E-02 8.9874463E-03 -9.5575126E-03
endloop
endfacet
facet normal 2.3647012E-01 9.7151047E-01 -1.5788784E-02
outer loop
vertex -2.5206471E-02 8.9874463E-03 -9.5575126E-03
vertex -2.7172260E-02 9.6212551E-03 0.0000000E+00
vertex -2.5161499E-02 9.1320165E-03 1.1676410E-05
endloop
endfacet
facet normal -8.5917169E-01 5.1167411E-01 -3.6925157E-03
outer loop
vertex -2.5206471E-02 8.9874463E-03 -9.5575126E-03
vertex -2.5161499E-02 9.1320165E-03 1.1676410E-05
vertex -2.4218630E-02 1.0715140E-02 0.0000000E+00
endloop
endfacet
facet normal -1.9683996E-01 5.0359309E-02 9.7914141E-01
outer loop
vertex -2.4348080E-02 1.1513020E-02 -9.5148431E-03
vertex -2.7549651E-02 1.0479320E-02 -1.0105300E-02
vertex -2.5206471E-02 8.9874463E-03 -9.5575126E-03
endloop
endfacet
facet normal -9.9602953E-02 -2.4270909E-01 9.6497232E-01
outer loop
vertex -2.6390349E-02 1.2351130E-02 -9.5148422E-03
vertex -2.7549651E-02 1.0479320E-02 -1.0105300E-02
vertex -2.4348080E-02 1.1513020E-02 -9.5148431E-03
endloop
endfacet
facet normal -9.6953732E-01 -2.4434471E-01 -1.7118029E-02
outer loop
vertex -1.8138690E-02 1.9445639E-02 -1.0105300E-02
vertex -1.8224191E-02 1.9071899E-02 7.2140712E-05
vertex -1.8748550E-02 2.1157561E-02 0.0000000E+00
endloop
endfacet
facet normal -8.8397074E-01 -4.6683326E-01 2.5737355E-02
outer loop
vertex -1.8138690E-02 1.9445639E-02 -1.0105300E-02
vertex -1.8748550E-02 2.1157561E-02 0.0000000E+00
vertex -1.9147061E-02 2.1387590E-02 -9.5148431E-03
endloop
endfacet
facet normal 6.1075062E-02 -9.9777651E-01 -2.6680086E-02
outer loop
vertex -1.9147061E-02 2.1387590E-02 -9.5148431E-03
vertex -1.8748550E-02 2.1157561E-02 0.0000000E+00
vertex -2.1094389E-02 2.1013901E-02 2.5679140E-06
endloop
endfacet
facet normal 3.0373335E-01 -9.5243555E-01 2.4749741E-02
outer loop
vertex -1.9147061E-02 2.1387590E-02 -9.5148431E-03
vertex -2.1094389E-02 2.1013901E-02 2.5679140E-06
vertex -2.1250250E-02 2.0716880E-02 -9.5148413E-03
endloop
endfacet
facet normal 9.9936992E-01 3.0975385E-02 -1.7332733E-02
outer loop
vertex -2.1250250E-02 2.0716880E-02 -9.5148413E-03
vertex -2.1094389E-02 2.1013901E-02 2.5679140E-06
vertex -2.1013480E-02 1.8402049E-02 0.0000000E+00
endloop
endfacet
facet normal 9.7435629E-01 2.2300084E-01 3.0006872E-02
outer loop
vertex -2.1250250E-02 2.0716880E-02 -9.5148413E-03
vertex -2.1013480E-02 1.8402049E-02 0.0000000E+00
vertex -2.0683641E-02 1.8248640E-02 -9.5701534E-03
endloop
endfacet
facet normal -2.3286912E-01 9.7222137E-01 -2.3610609E-02
outer loop
vertex -2.0683641E-02 1.8248640E-02 -9.5701534E-03
vertex -2.1013480E-02 1.8402049E-02 0.0000000E+00
vertex -1.8224191E-02 1.9071899E-02 7.2140712E-05
endloop
endfacet
facet normal -4.2029321E-01 9.0689975E-01 2.9772613E-02
outer loop
vertex -2.0683641E-02 1.8248640E-02 -9.5701534E-03
vertex -1.8224191E-02 1.9071899E-02 7.2140712E-05
vertex -1.8138690E-02 1.9445639E-02 -1.0105300E-02
endloop
endfacet
facet normal 8.0235504E-02 -2.5159681E-01 9.6450061E-01
outer loop
vertex -2.1250250E-02 2.0716880E-02 -9.5148413E-03
vertex -1.8138690E-02 1.9445639E-02 -1.0105300E-02
vertex -1.9147061E-02 2.1387590E-02 -9.5148431E-03
endloop
endfacet
facet normal 1.9540399E-01 2.2885362E-02 9.8045576E-01
outer loop
vertex -2.0683641E-02 1.8248640E-02 -9.5701534E-03
vertex -1.8138690E-02 1.9445639E-02 -1.0105300E-02
vertex -2.1250250E-02 2.0716880E-02 -9.5148413E-03
endloop
endfacet
facet normal -9.1218793E-01 -4.0753299E-01 4.2778943E-02
outer loop
vertex -9.0374621E-03 2.5502460E-02 -9.5148431E-03
vertex -9.1460487E-03 2.6744289E-02 0.0000000E+00
vertex -9.8829698E-03 2.7317209E-02 -1.0255670E-02
endloop
endfacet
facet normal -1.4323397E-01 -9.8866808E-01 -4.4938598E-02
outer loop
vertex -9.8829698E-03 2.7317209E-02 -1.0255670E-02
vertex -9.1460487E-03 2.6744289E-02 0.0000000E+00
vertex -1.1870660E-02 2.7139019E-02 0.0000000E+00
endloop
endfacet
facet normal 2.3510702E-01 -9.7154605E-01 2.8686587E-02
outer loop
vertex -9.8829698E-03 2.7317209E-02 -1.0255670E-02
vertex -1.1870660E-02 2.7139019E-02 0.0000000E+00
vertex -1.2166400E-02 2.6786510E-02 -9.5148431E-03
endloop
endfacet
facet normal 9.9062663E-01 -1.3413443E-01 -2.5821218E-02
outer loop
vertex -1.2166400E-02 2.6786510E-02 -9.5148431E-03
vertex -1.1870660E-02 2.7139019E-02 0.0000000E+00
vertex -1.2166890E-02 2.4951261E-02 0.0000000E+00
endloop
endfacet
facet normal 9.9723876E-01 7.2909988E-02 1.4114425E-02
outer loop
vertex -1.2166400E-02 2.6786510E-02 -9.5148431E-03
vertex -1.2166890E-02 2.4951261E-02 0.0000000E+00
vertex -1.2019150E-02 2.4775520E-02 -9.5306160E-03
endloop
endfacet
facet normal 3.7460083E-01 9.2711747E-01 -1.1288725E-02
outer loop
vertex -1.2019150E-02 2.4775520E-02 -9.5306160E-03
vertex -1.2166890E-02 2.4951261E-02 0.0000000E+00
vertex -1.0403940E-02 2.4238979E-02 3.0301610E-06
endloop
endfacet
facet normal 3.1712088E-01 9.4838512E-01 -3.5344445E-04
outer loop
vertex -1.2019150E-02 2.4775520E-02 -9.5306160E-03
vertex -1.0403940E-02 2.4238979E-02 3.0301610E-06
vertex -1.0428620E-02 2.4243690E-02 -9.4999997E-03
endloop
endfacet
facet normal -3.6136040E-01 9.3242520E-01 1.4006443E-03
outer loop
vertex -1.0428620E-02 2.4243690E-02 -9.4999997E-03
vertex -1.0403940E-02 2.4238979E-02 3.0301610E-06
vertex -9.6483920E-03 2.4531730E-02 4.4272590E-05
endloop
endfacet
facet normal -6.7040038E-01 7.4129033E-01 3.2432441E-02
outer loop
vertex -1.0428620E-02 2.4243690E-02 -9.4999997E-03
vertex -9.6483920E-03 2.4531730E-02 4.4272590E-05
vertex -9.0374621E-03 2.5502460E-02 -9.5148431E-03
endloop
endfacet
facet normal -9.7457719E-01 2.2047131E-01 -3.9897006E-02
outer loop
vertex -9.0374621E-03 2.5502460E-02 -9.5148431E-03
vertex -9.6483920E-03 2.4531730E-02 4.4272590E-05
vertex -9.1460487E-03 2.6744289E-02 0.0000000E+00
endloop
endfacet
facet normal 3.0543232E-01 1.4897013E-02 9.5209718E-01
outer loop
vertex -1.2019150E-02 2.4775520E-02 -9.5306160E-03
vertex -9.8829698E-03 2.7317209E-02 -1.0255670E-02
vertex -1.2166400E-02 2.6786510E-02 -9.5148431E-03
endloop
endfacet
facet normal 5.7756580E-02 2.2867493E-01 9.7178811E-01
outer loop
vertex -1.0428620E-02 2.4243690E-02 -9.4999997E-03
vertex -9.8829698E-03 2.7317209E-02 -1.0255670E-02
vertex -1.2019150E-02 2.4775520E-02 -9.5306160E-03
endloop
endfacet
facet normal -2.3548947E-01 2.7126130E-01 9.3325341E-01
outer loop
vertex -9.0374621E-03 2.5502460E-02 -9.5148431E-03
vertex -9.8829698E-03 2.7317209E-02 -1.0255670E-02
vertex -1.0428620E-02 2.4243690E-02 -9.4999997E-03
endloop
endfacet
facet normal -9.3788660E-01 3.4659162E-01 1.5590056E-02
outer loop
vertex 8.3842629E-04 2.6555030E-02 -1.0255670E-02
vertex 1.6779560E-03 2.8365510E-02 0.0000000E+00
vertex 1.5992370E-03 2.8581191E-02 -9.5306160E-03
endloop
endfacet
facet normal -6.7079109E-01 -7.4156117E-01 -1.1241335E-02
outer loop
vertex 1.5992370E-03 2.8581191E-02 -9.5306160E-03
vertex 1.6779560E-03 2.8365510E-02 0.0000000E+00
vertex 2.6775460E-04 2.9641731E-02 -3.9636529E-05
endloop
endfacet
facet normal -6.2235028E-01 -7.8273880E-01 1.5564956E-04
outer loop
vertex 1.5992370E-03 2.8581191E-02 -9.5306160E-03
vertex 2.6775460E-04 2.9641731E-02 -3.9636529E-05
vertex 2.8651950E-04 2.9624930E-02 -9.4999997E-03
endloop
endfacet
facet normal 1.9121203E-01 -9.8154640E-01 2.1224443E-03
outer loop
vertex 2.8651950E-04 2.9624930E-02 -9.4999997E-03
vertex 2.6775460E-04 2.9641731E-02 -3.9636529E-05
vertex -8.2500000E-04 2.9428940E-02 0.0000000E+00
endloop
endfacet
facet normal 3.7656483E-01 -9.2605418E-01 2.4953933E-02
outer loop
vertex 2.8651950E-04 2.9624930E-02 -9.4999997E-03
vertex -8.2500000E-04 2.9428940E-02 0.0000000E+00
vertex -1.4512599E-03 2.8917890E-02 -9.5148431E-03
endloop
endfacet
facet normal 8.7456453E-01 -4.8388010E-01 -3.1573582E-02
outer loop
vertex -1.4512599E-03 2.8917890E-02 -9.5148431E-03
vertex -8.2500000E-04 2.9428940E-02 0.0000000E+00
vertex -1.7739550E-03 2.7713800E-02 0.0000000E+00
endloop
endfacet
facet normal 9.9643278E-01 7.2621979E-02 4.2984135E-02
outer loop
vertex -1.4512599E-03 2.8917890E-02 -9.5148431E-03
vertex -1.7739550E-03 2.7713800E-02 0.0000000E+00
vertex -1.3040140E-03 2.6906891E-02 -9.5306151E-03
endloop
endfacet
facet normal 4.1896898E-01 9.0626776E-01 -5.6070350E-02
outer loop
vertex -1.3040140E-03 2.6906891E-02 -9.5306151E-03
vertex -1.7739550E-03 2.7713800E-02 0.0000000E+00
vertex 8.3466881E-04 2.6508249E-02 6.7938790E-06
endloop
endfacet
facet normal 1.6356246E-01 9.8652244E-01 4.5568412E-03
outer loop
vertex -1.3040140E-03 2.6906891E-02 -9.5306151E-03
vertex 8.3466881E-04 2.6508249E-02 6.7938790E-06
vertex 8.3842629E-04 2.6555030E-02 -1.0255670E-02
endloop
endfacet
facet normal -9.1053349E-01 4.1343248E-01 1.5512063E-03
outer loop
vertex 8.3842629E-04 2.6555030E-02 -1.0255670E-02
vertex 8.3466881E-04 2.6508249E-02 6.7938790E-06
vertex 1.6779560E-03 2.8365510E-02 0.0000000E+00
endloop
endfacet
facet normal 8.2892634E-02 -2.2412112E-01 9.7102958E-01
outer loop
vertex -1.4512599E-03 2.8917890E-02 -9.5148431E-03
vertex 8.3842629E-04 2.6555030E-02 -1.0255670E-02
vertex 2.8651950E-04 2.9624930E-02 -9.4999997E-03
endloop
endfacet
facet normal 3.2291225E-01 1.6222125E-02 9.4628984E-01
outer loop
vertex -1.3040140E-03 2.6906891E-02 -9.5306151E-03
vertex 8.3842629E-04 2.6555030E-02 -1.0255670E-02
vertex -1.4512599E-03 2.8917890E-02 -9.5148431E-03
endloop
endfacet
facet normal -1.9005199E-01 -2.6674500E-01 9.4484258E-01
outer loop
vertex 2.8651950E-04 2.9624930E-02 -9.4999997E-03
vertex 8.3842629E-04 2.6555030E-02 -1.0255670E-02
vertex 1.5992370E-03 2.8581191E-02 -9.5306160E-03
endloop
endfacet
facet normal -9.5688719E-01 -2.8960261E-01 2.2298303E-02
outer loop
vertex 1.2392810E-02 2.5502460E-02 -9.5148431E-03
vertex 1.2393090E-02 2.6234141E-02 0.0000000E+00
vertex 1.1945170E-02 2.6929449E-02 -1.0191150E-02
endloop
endfacet
facet normal -5.5287856E-01 -8.3262748E-01 -3.2507420E-02
outer loop
vertex 1.1945170E-02 2.6929449E-02 -1.0191150E-02
vertex 1.2393090E-02 2.6234141E-02 0.0000000E+00
vertex 1.0419630E-02 2.7544551E-02 0.0000000E+00
endloop
endfacet
facet normal -3.0798736E-01 -9.5132309E-01 1.1315013E-02
outer loop
vertex 1.1945170E-02 2.6929449E-02 -1.0191150E-02
vertex 1.0419630E-02 2.7544551E-02 0.0000000E+00
vertex 1.0193410E-02 2.7504619E-02 -9.5148431E-03
endloop
endfacet
facet normal 6.6299266E-01 -7.4851954E-01 -1.2621633E-02
outer loop
vertex 1.0193410E-02 2.7504619E-02 -9.5148431E-03
vertex 1.0419630E-02 2.7544551E-02 0.0000000E+00
vertex 9.1646425E-03 2.6432959E-02 0.0000000E+00
endloop
endfacet
facet normal 8.4473634E-01 -5.3427482E-01 3.1159386E-02
outer loop
vertex 1.0193410E-02 2.7504619E-02 -9.5148431E-03
vertex 9.1646425E-03 2.6432959E-02 0.0000000E+00
vertex 9.0134013E-03 2.5638919E-02 -9.5148431E-03
endloop
endfacet
facet normal 9.8871189E-01 1.4718939E-01 -2.7999228E-02
outer loop
vertex 9.0134013E-03 2.5638919E-02 -9.5148431E-03
vertex 9.1646425E-03 2.6432959E-02 0.0000000E+00
vertex 9.4114998E-03 2.4774751E-02 0.0000000E+00
endloop
endfacet
facet normal 6.7266124E-01 7.3892379E-01 3.8967475E-02
outer loop
vertex 9.0134013E-03 2.5638919E-02 -9.5148431E-03
vertex 9.4114998E-03 2.4774751E-02 0.0000000E+00
vertex 1.0645850E-02 2.4152860E-02 -9.5148431E-03
endloop
endfacet
facet normal 1.7350115E-01 9.8394608E-01 -4.1802663E-02
outer loop
vertex 1.0645850E-02 2.4152860E-02 -9.5148431E-03
vertex 9.4114998E-03 2.4774751E-02 0.0000000E+00
vertex 1.1566020E-02 2.4394840E-02 0.0000000E+00
endloop
endfacet
facet normal -6.1089134E-01 7.9075485E-01 3.8968280E-02
outer loop
vertex 1.0645850E-02 2.4152860E-02 -9.5148431E-03
vertex 1.1566020E-02 2.4394840E-02 0.0000000E+00
vertex 1.2392810E-02 2.5502460E-02 -9.5148431E-03
endloop
endfacet
facet normal -9.1158313E-01 4.0990764E-01 -3.1494569E-02
outer loop
vertex 1.2392810E-02 2.5502460E-02 -9.5148431E-03
vertex 1.1566020E-02 2.4394840E-02 0.0000000E+00
vertex 1.2393090E-02 2.6234141E-02 0.0000000E+00
endloop
endfacet
facet normal -2.6547864E-01 3.4364298E-01 9.0079439E-01
outer loop
vertex 1.2392810E-02 2.5502460E-02 -9.5148431E-03
vertex 1.1945170E-02 2.6929449E-02 -1.0191150E-02
vertex 1.0645850E-02 2.4152860E-02 -9.5148431E-03
endloop
endfacet
facet normal 2.9900882E-01 -1.8911569E-01 9.3532294E-01
outer loop
vertex 9.0134013E-03 2.5638919E-02 -9.5148431E-03
vertex 1.1945170E-02 2.6929449E-02 -1.0191150E-02
vertex 1.0193410E-02 2.7504619E-02 -9.5148431E-03
endloop
endfacet
facet normal 1.5150414E-01 1.6642855E-01 9.7434497E-01
outer loop
vertex 1.0645850E-02 2.4152860E-02 -9.5148431E-03
vertex 1.1945170E-02 2.6929449E-02 -1.0191150E-02
vertex 9.0134013E-03 2.5638919E-02 -9.5148431E-03
endloop
endfacet
facet normal -9.1942346E-01 3.9270669E-01 2.1020060E-02
outer loop
vertex 2.0848790E-02 1.8440099E-02 -9.5148431E-03
vertex 2.1398131E-02 1.9216949E-02 0.0000000E+00
vertex 2.1423129E-02 1.9820970E-02 -1.0191150E-02
endloop
endfacet
facet normal -9.6211016E-01 -2.7203354E-01 -1.8483210E-02
outer loop
vertex 2.1423129E-02 1.9820970E-02 -1.0191150E-02
vertex 2.1398131E-02 1.9216949E-02 0.0000000E+00
vertex 2.0849429E-02 2.1157561E-02 0.0000000E+00
endloop
endfacet
facet normal -8.4509099E-01 -5.3414959E-01 2.2481350E-02
outer loop
vertex 2.1423129E-02 1.9820970E-02 -1.0191150E-02
vertex 2.0849429E-02 2.1157561E-02 0.0000000E+00
vertex 2.0450920E-02 2.1387590E-02 -9.5148431E-03
endloop
endfacet
facet normal 1.1168924E-01 -9.9332881E-01 -2.8692419E-02
outer loop
vertex 2.0450920E-02 2.1387590E-02 -9.5148431E-03
vertex 2.0849429E-02 2.1157561E-02 0.0000000E+00
vertex 1.8495349E-02 2.0892870E-02 0.0000000E+00
endloop
endfacet
facet normal 3.0380109E-01 -9.5264804E-01 1.2907205E-02
outer loop
vertex 2.0450920E-02 2.1387590E-02 -9.5148431E-03
vertex 1.8495349E-02 2.0892870E-02 0.0000000E+00
vertex 1.8347731E-02 2.0716880E-02 -9.5148422E-03
endloop
endfacet
facet normal 9.9274600E-01 -1.1950534E-01 -1.3191576E-02
outer loop
vertex 1.8347731E-02 2.0716880E-02 -9.5148422E-03
vertex 1.8495349E-02 2.0892870E-02 0.0000000E+00
vertex 1.8267060E-02 1.8993380E-02 2.7723110E-05
endloop
endfacet
facet normal 9.9711037E-01 7.2835661E-02 2.1584375E-02
outer loop
vertex 1.8347731E-02 2.0716880E-02 -9.5148422E-03
vertex 1.8267060E-02 1.8993380E-02 2.7723110E-05
vertex 1.8494969E-02 1.8705880E-02 -9.5306151E-03
endloop
endfacet
facet normal 6.4848518E-01 7.6119101E-01 -7.4328729E-03
outer loop
vertex 1.8494969E-02 1.8705880E-02 -9.5306151E-03
vertex 1.8267060E-02 1.8993380E-02 2.7723110E-05
vertex 1.9242389E-02 1.8162251E-02 6.0259172E-06
endloop
endfacet
facet normal 1.1175684E-01 9.9258411E-01 4.7822814E-02
outer loop
vertex 1.8494969E-02 1.8705880E-02 -9.5306151E-03
vertex 1.9242389E-02 1.8162251E-02 6.0259172E-06
vertex 2.0848790E-02 1.8440099E-02 -9.5148431E-03
endloop
endfacet
facet normal -4.3907613E-01 8.9717209E-01 -4.7900472E-02
outer loop
vertex 2.0848790E-02 1.8440099E-02 -9.5148431E-03
vertex 1.9242389E-02 1.8162251E-02 6.0259172E-06
vertex 2.1398131E-02 1.9216949E-02 0.0000000E+00
endloop
endfacet
facet normal 1.0749250E-01 -3.3706966E-01 9.3532318E-01
outer loop
vertex 1.8347731E-02 2.0716880E-02 -9.5148422E-03
vertex 2.1423129E-02 1.9820970E-02 -1.0191150E-02
vertex 2.0450920E-02 2.1387590E-02 -9.5148431E-03
endloop
endfacet
facet normal 2.1705779E-01 8.2361791E-03 9.7612405E-01
outer loop
vertex 1.8494969E-02 1.8705880E-02 -9.5306151E-03
vertex 2.1423129E-02 1.9820970E-02 -1.0191150E-02
vertex 1.8347731E-02 2.0716880E-02 -9.5148422E-03
endloop
endfacet
facet normal 4.1967943E-02 4.2532754E-01 9.0406585E-01
outer loop
vertex 2.0848790E-02 1.8440099E-02 -9.5148431E-03
vertex 2.1423129E-02 1.9820970E-02 -1.0191150E-02
vertex 1.8494969E-02 1.8705880E-02 -9.5306151E-03
endloop
endfacet
facet normal -8.2764584E-01 -5.5925077E-01 4.7340725E-02
outer loop
vertex 2.7439710E-02 1.0147160E-02 -1.0255670E-02
vertex 2.7556390E-02 1.0841870E-02 -8.9618234E-06
vertex 2.6507750E-02 1.2394530E-02 0.0000000E+00
endloop
endfacet
facet normal -9.1961640E-01 -3.9280954E-01 2.5101288E-03
outer loop
vertex 2.7439710E-02 1.0147160E-02 -1.0255670E-02
vertex 2.6507750E-02 1.2394530E-02 0.0000000E+00
vertex 2.6520560E-02 1.2303740E-02 -9.5148431E-03
endloop
endfacet
facet normal 3.0381650E-01 -9.5268315E-01 9.4994511E-03
outer loop
vertex 2.6520560E-02 1.2303740E-02 -9.5148431E-03
vertex 2.6507750E-02 1.2394530E-02 0.0000000E+00
vertex 2.4417371E-02 1.1633020E-02 -9.5148431E-03
endloop
endfacet
facet normal 5.5921125E-01 -8.2708645E-01 -5.6661930E-02
outer loop
vertex 2.4417371E-02 1.1633020E-02 -9.5148431E-03
vertex 2.6507750E-02 1.2394530E-02 0.0000000E+00
vertex 2.4110621E-02 1.0765670E-02 1.1835460E-04
endloop
endfacet
facet normal 9.9745184E-01 -6.6524863E-02 2.5772098E-02
outer loop
vertex 2.4417371E-02 1.1633020E-02 -9.5148431E-03
vertex 2.4110621E-02 1.0765670E-02 1.1835460E-04
vertex 2.4318131E-02 1.0150800E-02 -9.4999997E-03
endloop
endfacet
facet normal 8.4516716E-01 5.3426498E-01 -1.5919844E-02
outer loop
vertex 2.4318131E-02 1.0150800E-02 -9.4999997E-03
vertex 2.4110621E-02 1.0765670E-02 1.1835460E-04
vertex 2.5043629E-02 9.2861941E-03 0.0000000E+00
endloop
endfacet
facet normal 6.1369777E-01 7.8914666E-01 2.4954148E-02
outer loop
vertex 2.4318131E-02 1.0150800E-02 -9.4999997E-03
vertex 2.5043629E-02 9.2861941E-03 0.0000000E+00
vertex 2.5799351E-02 8.9993654E-03 -9.5148431E-03
endloop
endfacet
facet normal 1.0775609E-01 9.9394685E-01 -2.1404337E-02
outer loop
vertex 2.5799351E-02 8.9993654E-03 -9.5148431E-03
vertex 2.5043629E-02 9.2861941E-03 0.0000000E+00
vertex 2.6519960E-02 9.1261417E-03 0.0000000E+00
endloop
endfacet
facet normal -5.6338120E-01 8.2558990E-01 3.1667605E-02
outer loop
vertex 2.5799351E-02 8.9993654E-03 -9.5148431E-03
vertex 2.6519960E-02 9.1261417E-03 0.0000000E+00
vertex 2.7439710E-02 1.0147160E-02 -1.0255670E-02
endloop
endfacet
facet normal -8.5573459E-01 5.1679647E-01 -2.5293648E-02
outer loop
vertex 2.7439710E-02 1.0147160E-02 -1.0255670E-02
vertex 2.6519960E-02 9.1261417E-03 0.0000000E+00
vertex 2.7556390E-02 1.0841870E-02 -8.9618234E-06
endloop
endfacet
facet normal 9.1922283E-02 -2.8824246E-01 9.5313513E-01
outer loop
vertex 2.4417371E-02 1.1633020E-02 -9.5148431E-03
vertex 2.7439710E-02 1.0147160E-02 -1.0255670E-02
vertex 2.6520560E-02 1.2303740E-02 -9.5148431E-03
endloop
endfacet
facet normal 2.3527271E-01 -6.0193213E-03 9.7191077E-01
outer loop
vertex 2.4318131E-02 1.0150800E-02 -9.4999997E-03
vertex 2.7439710E-02 1.0147160E-02 -1.0255670E-02
vertex 2.4417371E-02 1.1633020E-02 -9.5148431E-03
endloop
endfacet
facet normal 2.2624701E-01 2.7901611E-01 9.3325359E-01
outer loop
vertex 2.5799351E-02 8.9993654E-03 -9.5148431E-03
vertex 2.7439710E-02 1.0147160E-02 -1.0255670E-02
vertex 2.4318131E-02 1.0150800E-02 -9.4999997E-03
endloop
endfacet
facet normal -9.3178773E-01 -3.6296564E-01 5.2553131E-03
outer loop
vertex 2.7528919E-02 -1.1068480E-02 -1.0105300E-02
vertex 2.7565749E-02 -1.1016840E-02 -8.5922220E-06
vertex 2.6919059E-02 -9.3565648E-03 0.0000000E+00
endloop
endfacet
facet normal -9.1262311E-01 -4.0855756E-01 1.4135538E-02
outer loop
vertex 2.7528919E-02 -1.1068480E-02 -1.0105300E-02
vertex 2.6919059E-02 -9.3565648E-03 0.0000000E+00
vertex 2.6720131E-02 -9.2419507E-03 -9.5306151E-03
endloop
endfacet
facet normal -4.4559622E-03 -9.9991888E-01 -1.1931908E-02
outer loop
vertex 2.6720131E-02 -9.2419507E-03 -9.5306151E-03
vertex 2.6919059E-02 -9.3565648E-03 0.0000000E+00
vertex 2.4824800E-02 -9.3494458E-03 1.8550961E-04
endloop
endfacet
facet normal 2.6272368E-02 -9.9963725E-01 -5.9345970E-03
outer loop
vertex 2.6720131E-02 -9.2419507E-03 -9.5306151E-03
vertex 2.4824800E-02 -9.3494458E-03 1.8550961E-04
vertex 2.5043629E-02 -9.2861941E-03 -9.4999997E-03
endloop
endfacet
facet normal 8.6393076E-01 -5.0334889E-01 1.6232040E-02
outer loop
vertex 2.5043629E-02 -9.2861941E-03 -9.4999997E-03
vertex 2.4824800E-02 -9.3494458E-03 1.8550961E-04
vertex 2.4166850E-02 -1.0484710E-02 0.0000000E+00
endloop
endfacet
facet normal 8.8378066E-01 -4.6735501E-01 2.2605008E-02
outer loop
vertex 2.5043629E-02 -9.2861941E-03 -9.4999997E-03
vertex 2.4166850E-02 -1.0484710E-02 0.0000000E+00
vertex 2.4166889E-02 -1.0944850E-02 -9.5148431E-03
endloop
endfacet
facet normal 8.8393921E-01 4.6705619E-01 -2.2583287E-02
outer loop
vertex 2.4166889E-02 -1.0944850E-02 -9.5148431E-03
vertex 2.4166850E-02 -1.0484710E-02 0.0000000E+00
vertex 2.5043629E-02 -1.2144080E-02 0.0000000E+00
endloop
endfacet
facet normal 6.7284542E-01 7.3912662E-01 3.1158999E-02
outer loop
vertex 2.4166889E-02 -1.0944850E-02 -9.5148431E-03
vertex 2.5043629E-02 -1.2144080E-02 0.0000000E+00
vertex 2.5799340E-02 -1.2430910E-02 -9.5148431E-03
endloop
endfacet
facet normal 2.6735682E-02 9.9925029E-01 -2.7999431E-02
outer loop
vertex 2.5799340E-02 -1.2430910E-02 -9.5148431E-03
vertex 2.5043629E-02 -1.2144080E-02 0.0000000E+00
vertex 2.6719511E-02 -1.2188920E-02 0.0000000E+00
endloop
endfacet
facet normal -6.1010545E-01 7.9136586E-01 3.8875945E-02
outer loop
vertex 2.5799340E-02 -1.2430910E-02 -9.5148431E-03
vertex 2.6719511E-02 -1.2188920E-02 0.0000000E+00
vertex 2.7528919E-02 -1.1068480E-02 -1.0105300E-02
endloop
endfacet
facet normal -8.1076574E-01 5.8537072E-01 -3.6443489E-05
outer loop
vertex 2.7528919E-02 -1.1068480E-02 -1.0105300E-02
vertex 2.6719511E-02 -1.2188920E-02 0.0000000E+00
vertex 2.7565749E-02 -1.1016840E-02 -8.5922220E-06
endloop
endfacet
facet normal 2.5121657E-02 -2.8989372E-01 9.5672905E-01
outer loop
vertex 2.5043629E-02 -9.2861941E-03 -9.4999997E-03
vertex 2.7528919E-02 -1.1068480E-02 -1.0105300E-02
vertex 2.6720131E-02 -9.2419507E-03 -9.5306151E-03
endloop
endfacet
facet normal 1.6865200E-01 -9.7924076E-02 9.8079932E-01
outer loop
vertex 2.4166889E-02 -1.0944850E-02 -9.5148431E-03
vertex 2.7528919E-02 -1.1068480E-02 -1.0105300E-02
vertex 2.5043629E-02 -9.2861941E-03 -9.4999997E-03
endloop
endfacet
facet normal 1.7660739E-01 1.9400476E-01 9.6497256E-01
outer loop
vertex 2.5799340E-02 -1.2430910E-02 -9.5148431E-03
vertex 2.7528919E-02 -1.1068480E-02 -1.0105300E-02
vertex 2.4166889E-02 -1.0944850E-02 -9.5148431E-03
endloop
endfacet
facet normal -9.6171445E-01 -2.7192193E-01 3.4114808E-02
outer loop
vertex 2.1220149E-02 -2.0954311E-02 -9.5868902E-03
vertex 2.1398131E-02 -2.0381030E-02 0.0000000E+00
vertex 2.0849429E-02 -1.8440420E-02 0.0000000E+00
endloop
endfacet
facet normal -9.7707760E-01 -2.1213433E-01 1.7843120E-02
outer loop
vertex 2.1220149E-02 -2.0954311E-02 -9.5868902E-03
vertex 2.0849429E-02 -1.8440420E-02 0.0000000E+00
vertex 2.0650500E-02 -1.8325809E-02 -9.5306160E-03
endloop
endfacet
facet normal -3.3365488E-02 -9.9937904E-01 -1.1321609E-02
outer loop
vertex 2.0650500E-02 -1.8325809E-02 -9.5306160E-03
vertex 2.0849429E-02 -1.8440420E-02 0.0000000E+00
vertex 1.8934039E-02 -1.8376529E-02 5.0339322E-06
endloop
endfacet
facet normal 1.7642869E-01 -9.8395604E-01 2.6524346E-02
outer loop
vertex 2.0650500E-02 -1.8325809E-02 -9.5306160E-03
vertex 1.8934039E-02 -1.8376529E-02 5.0339322E-06
vertex 1.8516909E-02 -1.8727919E-02 -1.0255670E-02
endloop
endfacet
facet normal 7.2379738E-01 -6.8998814E-01 -5.7951962E-03
outer loop
vertex 1.8516909E-02 -1.8727919E-02 -1.0255670E-02
vertex 1.8934039E-02 -1.8376529E-02 5.0339322E-06
vertex 1.8296830E-02 -1.9045191E-02 3.2366661E-05
endloop
endfacet
facet normal 9.9930984E-01 2.9711358E-02 2.2293240E-02
outer loop
vertex 1.8516909E-02 -1.8727919E-02 -1.0255670E-02
vertex 1.8296830E-02 -1.9045191E-02 3.2366661E-05
vertex 1.8347239E-02 -2.0716351E-02 0.0000000E+00
endloop
endfacet
facet normal 9.9761176E-01 6.2831432E-02 2.8686667E-02
outer loop
vertex 1.8516909E-02 -1.8727919E-02 -1.0255670E-02
vertex 1.8347239E-02 -2.0716351E-02 0.0000000E+00
vertex 1.8643040E-02 -2.1068810E-02 -9.5148431E-03
endloop
endfacet
facet normal 3.7691933E-01 9.2597073E-01 -2.2582989E-02
outer loop
vertex 1.8643040E-02 -2.1068810E-02 -9.5148431E-03
vertex 1.8347239E-02 -2.0716351E-02 0.0000000E+00
vertex 2.0085510E-02 -2.1423919E-02 0.0000000E+00
endloop
endfacet
facet normal -4.3120950E-02 9.9810976E-01 4.3788321E-02
outer loop
vertex 1.8643040E-02 -2.1068810E-02 -9.5148431E-03
vertex 2.0085510E-02 -2.1423919E-02 0.0000000E+00
vertex 2.1220149E-02 -2.0954311E-02 -9.5868902E-03
endloop
endfacet
facet normal -6.2168354E-01 7.8247499E-01 -3.5249189E-02
outer loop
vertex 2.1220149E-02 -2.0954311E-02 -9.5868902E-03
vertex 2.0085510E-02 -2.1423919E-02 0.0000000E+00
vertex 2.1398131E-02 -2.0381030E-02 0.0000000E+00
endloop
endfacet
facet normal -3.0588016E-01 -8.6588986E-02 9.4812423E-01
outer loop
vertex 2.0650500E-02 -1.8325809E-02 -9.5306160E-03
vertex 1.8516909E-02 -1.8727919E-02 -1.0255670E-02
vertex 2.1220149E-02 -2.0954311E-02 -9.5868902E-03
endloop
endfacet
facet normal 1.3212729E-02 3.0234399E-01 9.5310736E-01
outer loop
vertex 2.1220149E-02 -2.0954311E-02 -9.5868902E-03
vertex 1.8516909E-02 -1.8727919E-02 -1.0255670E-02
vertex 1.8643040E-02 -2.1068810E-02 -9.5148431E-03
endloop
endfacet
facet normal -9.6217859E-01 -2.7205357E-01 -1.4113260E-02
outer loop
vertex 1.2392810E-02 -2.6234800E-02 -9.5148422E-03
vertex 1.2314280E-02 -2.6450660E-02 0.0000000E+00
vertex 1.1765580E-02 -2.4510060E-02 0.0000000E+00
endloop
endfacet
facet normal -8.8519901E-01 -4.6449405E-01 2.5844712E-02
outer loop
vertex 1.2392810E-02 -2.6234800E-02 -9.5148422E-03
vertex 1.1765580E-02 -2.4510060E-02 0.0000000E+00
vertex 1.1367070E-02 -2.4280019E-02 -9.5148431E-03
endloop
endfacet
facet normal 3.9923742E-02 -9.9886900E-01 -2.5821786E-02
outer loop
vertex 1.1367070E-02 -2.4280019E-02 -9.5148431E-03
vertex 1.1765580E-02 -2.4510060E-02 0.0000000E+00
vertex 9.5596127E-03 -2.4598230E-02 0.0000000E+00
endloop
endfacet
facet normal 3.0372891E-01 -9.5240784E-01 2.5844947E-02
outer loop
vertex 1.1367070E-02 -2.4280019E-02 -9.5148431E-03
vertex 9.5596127E-03 -2.4598230E-02 0.0000000E+00
vertex 9.2638759E-03 -2.4950741E-02 -9.5148431E-03
endloop
endfacet
facet normal 9.7735465E-01 -2.1039936E-01 -2.2582784E-02
outer loop
vertex 9.2638759E-03 -2.4950741E-02 -9.5148431E-03
vertex 9.5596127E-03 -2.4598230E-02 0.0000000E+00
vertex 9.1646425E-03 -2.6432959E-02 0.0000000E+00
endloop
endfacet
facet normal 9.9053067E-01 1.3370831E-01 3.1159593E-02
outer loop
vertex 9.2638759E-03 -2.4950741E-02 -9.5148431E-03
vertex 9.1646425E-03 -2.6432959E-02 0.0000000E+00
vertex 9.5591871E-03 -2.7138449E-02 -9.5148440E-03
endloop
endfacet
facet normal 7.2144383E-01 6.9214219E-01 -2.1404194E-02
outer loop
vertex 9.5591871E-03 -2.7138449E-02 -9.5148440E-03
vertex 9.1646425E-03 -2.6432959E-02 0.0000000E+00
vertex 1.0192700E-02 -2.7504539E-02 0.0000000E+00
endloop
endfacet
facet normal 2.2764337E-01 9.7348922E-01 2.2298798E-02
outer loop
vertex 9.5591871E-03 -2.7138449E-02 -9.5148440E-03
vertex 1.0192700E-02 -2.7504539E-02 0.0000000E+00
vertex 1.1018810E-02 -2.7464280E-02 -1.0191150E-02
endloop
endfacet
facet normal -4.4464314E-01 8.9511782E-01 -3.2507367E-02
outer loop
vertex 1.1018810E-02 -2.7464280E-02 -1.0191150E-02
vertex 1.0192700E-02 -2.7504539E-02 0.0000000E+00
vertex 1.2314280E-02 -2.6450660E-02 0.0000000E+00
endloop
endfacet
facet normal -6.6987258E-01 7.4238980E-01 1.1313604E-02
outer loop
vertex 1.1018810E-02 -2.7464280E-02 -1.0191150E-02
vertex 1.2314280E-02 -2.6450660E-02 0.0000000E+00
vertex 1.2392810E-02 -2.6234800E-02 -9.5148422E-03
endloop
endfacet
facet normal -3.1328377E-01 -1.6439021E-01 9.3532300E-01
outer loop
vertex 1.1367070E-02 -2.4280019E-02 -9.5148431E-03
vertex 1.1018810E-02 -2.7464280E-02 -1.0191150E-02
vertex 1.2392810E-02 -2.6234800E-02 -9.5148422E-03
endloop
endfacet
facet normal 6.8379998E-02 -2.1442032E-01 9.7434497E-01
outer loop
vertex 9.2638759E-03 -2.4950741E-02 -9.5148431E-03
vertex 1.1018810E-02 -2.7464280E-02 -1.0191150E-02
vertex 1.1367070E-02 -2.4280019E-02 -9.5148431E-03
endloop
endfacet
facet normal 4.3034396E-01 5.8090262E-02 9.0079385E-01
outer loop
vertex 9.5591871E-03 -2.7138449E-02 -9.5148440E-03
vertex 1.1018810E-02 -2.7464280E-02 -1.0191150E-02
vertex 9.2638759E-03 -2.4950741E-02 -9.5148431E-03
endloop
endfacet
facet normal -9.5876360E-01 2.8275108E-01 2.8710295E-02
outer loop
vertex 8.5006072E-04 -2.9474020E-02 -9.5306151E-03
vertex 1.6779560E-03 -2.7634490E-02 0.0000000E+00
vertex 1.5205441E-03 -2.7202120E-02 -9.5148431E-03
endloop
endfacet
facet normal -6.6950542E-01 -7.4246132E-01 -2.2662491E-02
outer loop
vertex 1.5205441E-03 -2.7202120E-02 -9.5148431E-03
vertex 1.6779560E-03 -2.7634490E-02 0.0000000E+00
vertex 2.6251399E-04 -2.6358310E-02 5.8065530E-06
endloop
endfacet
facet normal -5.5673319E-01 -8.3069140E-01 5.8683810E-05
outer loop
vertex 1.5205441E-03 -2.7202120E-02 -9.5148431E-03
vertex 2.6251399E-04 -2.6358310E-02 5.8065530E-06
vertex 2.8651950E-04 -2.6375070E-02 -9.4999997E-03
endloop
endfacet
facet normal 1.9197799E-01 -9.8139673E-01 2.2151533E-03
outer loop
vertex 2.8651950E-04 -2.6375070E-02 -9.4999997E-03
vertex 2.6251399E-04 -2.6358310E-02 5.8065530E-06
vertex -8.2500000E-04 -2.6571060E-02 0.0000000E+00
endloop
endfacet
facet normal 3.7962776E-01 -9.2479229E-01 2.5338339E-02
outer loop
vertex 2.8651950E-04 -2.6375070E-02 -9.4999997E-03
vertex -8.2500000E-04 -2.6571060E-02 0.0000000E+00
vertex -1.4393140E-03 -2.7100110E-02 -1.0105300E-02
endloop
endfacet
facet normal 8.0695879E-01 -5.9032875E-01 -1.8150100E-02
outer loop
vertex -1.4393140E-03 -2.7100110E-02 -1.0105300E-02
vertex -8.2500000E-04 -2.6571060E-02 0.0000000E+00
vertex -1.7017750E-03 -2.7769580E-02 0.0000000E+00
endloop
endfacet
facet normal 9.9658263E-01 7.6582260E-02 3.0957382E-02
outer loop
vertex -1.4393140E-03 -2.7100110E-02 -1.0105300E-02
vertex -1.7017750E-03 -2.7769580E-02 0.0000000E+00
vertex -1.3040140E-03 -2.9093109E-02 -9.5306151E-03
endloop
endfacet
facet normal 8.8381851E-01 4.6699336E-01 -2.7965721E-02
outer loop
vertex -1.3040140E-03 -2.9093109E-02 -9.5306151E-03
vertex -1.7017750E-03 -2.7769580E-02 0.0000000E+00
vertex -8.2500000E-04 -2.9428940E-02 0.0000000E+00
endloop
endfacet
facet normal 1.8310837E-01 9.8276389E-01 2.5426615E-02
outer loop
vertex -1.3040140E-03 -2.9093109E-02 -9.5306151E-03
vertex -8.2500000E-04 -2.9428940E-02 0.0000000E+00
vertex 2.8898439E-04 -2.9635470E-02 -3.9703820E-05
endloop
endfacet
facet normal 1.7406754E-01 9.8436254E-01 2.7035428E-02
outer loop
vertex -1.3040140E-03 -2.9093109E-02 -9.5306151E-03
vertex 2.8898439E-04 -2.9635470E-02 -3.9703820E-05
vertex 8.5006072E-04 -2.9474020E-02 -9.5306151E-03
endloop
endfacet
facet normal -5.0738090E-01 8.6158532E-01 -1.5338481E-02
outer loop
vertex 8.5006072E-04 -2.9474020E-02 -9.5306151E-03
vertex 2.8898439E-04 -2.9635470E-02 -3.9703820E-05
vertex 1.2639730E-03 -2.9060600E-02 0.0000000E+00
endloop
endfacet
facet normal -9.5993418E-01 2.7865764E-01 2.9602071E-02
outer loop
vertex 8.5006072E-04 -2.9474020E-02 -9.5306151E-03
vertex 1.2639730E-03 -2.9060600E-02 0.0000000E+00
vertex 1.6779560E-03 -2.7634490E-02 0.0000000E+00
endloop
endfacet
facet normal 4.9482014E-02 2.7982381E-01 9.5877540E-01
outer loop
vertex 8.5006072E-04 -2.9474020E-02 -9.5306151E-03
vertex -1.4393140E-03 -2.7100110E-02 -1.0105300E-02
vertex -1.3040140E-03 -2.9093109E-02 -9.5306151E-03
endloop
endfacet
facet normal -1.9371542E-01 5.0367612E-02 9.7976398E-01
outer loop
vertex 1.5205441E-03 -2.7202120E-02 -9.5148431E-03
vertex -1.4393140E-03 -2.7100110E-02 -1.0105300E-02
vertex 8.5006072E-04 -2.9474020E-02 -9.5306151E-03
endloop
endfacet
facet normal -1.9627336E-01 -3.0955392E-01 9.3040490E-01
outer loop
vertex 2.8651950E-04 -2.6375070E-02 -9.4999997E-03
vertex -1.4393140E-03 -2.7100110E-02 -1.0105300E-02
vertex 1.5205441E-03 -2.7202120E-02 -9.5148431E-03
endloop
endfacet
facet normal -9.7447628E-01 2.1377900E-01 6.8516977E-02
outer loop
vertex 2.9270461E-02 -1.6481470E-03 -6.0182288E-03
vertex 2.9842829E-02 -9.6796470E-04 0.0000000E+00
vertex 2.9843720E-02 9.6495863E-04 -6.0182288E-03
endloop
endfacet
facet normal -9.7480220E-01 -2.1234326E-01 -6.8344221E-02
outer loop
vertex 2.9843720E-02 9.6495863E-04 -6.0182288E-03
vertex 2.9842829E-02 -9.6796470E-04 0.0000000E+00
vertex 2.9273260E-02 1.6467500E-03 0.0000000E+00
endloop
endfacet
facet normal -2.9524332E-01 -9.5207757E-01 7.9873003E-02
outer loop
vertex 2.9843720E-02 9.6495863E-04 -6.0182288E-03
vertex 2.9273260E-02 1.6467500E-03 0.0000000E+00
vertex 2.6939210E-02 1.8142631E-03 -6.6308710E-03
endloop
endfacet
facet normal 4.2860553E-02 -9.9826771E-01 -4.0305648E-02
outer loop
vertex 2.6939210E-02 1.8142631E-03 -6.6308710E-03
vertex 2.9273260E-02 1.6467500E-03 0.0000000E+00
vertex 2.6582500E-02 1.5309521E-03 6.6962521E-06
endloop
endfacet
facet normal 9.7043556E-01 -2.3767683E-01 4.2007435E-02
outer loop
vertex 2.6939210E-02 1.8142631E-03 -6.6308710E-03
vertex 2.6582500E-02 1.5309521E-03 6.6962521E-06
vertex 2.6062259E-02 -5.9371529E-04 3.7368959E-06
endloop
endfacet
facet normal 9.9144435E-01 -8.2607634E-02 1.0106547E-01
outer loop
vertex 2.6939210E-02 1.8142631E-03 -6.6308710E-03
vertex 2.6062259E-02 -5.9371529E-04 3.7368959E-06
vertex 2.6597500E-02 -1.5373530E-03 -6.0182279E-03
endloop
endfacet
facet normal 7.2827023E-01 6.8397421E-01 -4.2448640E-02
outer loop
vertex 2.6597500E-02 -1.5373530E-03 -6.0182279E-03
vertex 2.6062259E-02 -5.9371529E-04 3.7368959E-06
vertex 2.7366750E-02 -1.9829201E-03 0.0000000E+00
endloop
endfacet
facet normal 4.1317038E-02 9.9679399E-01 6.8517759E-02
outer loop
vertex 2.6597500E-02 -1.5373530E-03 -6.0182279E-03
vertex 2.7366750E-02 -1.9829201E-03 0.0000000E+00
vertex 2.9270461E-02 -1.6481470E-03 -6.0182288E-03
endloop
endfacet
facet normal -3.7839058E-01 9.2311949E-01 -6.8344146E-02
outer loop
vertex 2.9270461E-02 -1.6481470E-03 -6.0182288E-03
vertex 2.7366750E-02 -1.9829201E-03 0.0000000E+00
vertex 2.9842829E-02 -9.6796470E-04 0.0000000E+00
endloop
endfacet
facet normal 7.4229320E-03 1.7907372E-01 9.8380762E-01
outer loop
vertex 2.9270461E-02 -1.6481470E-03 -6.0182288E-03
vertex 2.6939210E-02 1.8142631E-03 -6.6308710E-03
vertex 2.6597500E-02 -1.5373530E-03 -6.0182279E-03
endloop
endfacet
facet normal -1.9425362E-01 4.2615045E-02 9.8002529E-01
outer loop
vertex 2.9843720E-02 9.6495863E-04 -6.0182288E-03
vertex 2.6939210E-02 1.8142631E-03 -6.6308710E-03
vertex 2.9270461E-02 -1.6481470E-03 -6.0182288E-03
endloop
endfacet
facet normal -1.4852791E-01 5.4059748E-02 9.8742956E-01
outer loop
vertex 1.9151110E-02 -1.6069690E-02 -3.0000001E-04
vertex 2.4824800E-02 -9.3494458E-03 1.8550961E-04
vertex 2.5000000E-02 0.0000000E+00 -3.0000001E-04
endloop
endfacet
facet normal -2.4603726E-01 5.4862786E-02 9.6770650E-01
outer loop
vertex 2.5000000E-02 0.0000000E+00 -3.0000001E-04
vertex 2.4824800E-02 -9.3494458E-03 1.8550961E-04
vertex 2.6062259E-02 -5.9371529E-04 3.7368959E-06
endloop
endfacet
facet normal -7.6396920E-02 1.3232340E-01 9.8825806E-01
outer loop
vertex 4.3412042E-03 -2.4620190E-02 -3.0000001E-04
vertex 1.8296830E-02 -1.9045191E-02 3.2366661E-05
vertex 1.9151110E-02 -1.6069690E-02 -3.0000001E-04
endloop
endfacet
facet normal -1.0472662E-01 1.4004733E-01 9.8459083E-01
outer loop
vertex 1.9151110E-02 -1.6069690E-02 -3.0000001E-04
vertex 1.8296830E-02 -1.9045191E-02 3.2366661E-05
vertex 1.8934039E-02 -1.8376529E-02 5.0339322E-06
endloop
endfacet
facet normal 2.5756409E-02 1.4607228E-01 9.8893851E-01
outer loop
vertex -1.2500000E-02 -2.1650640E-02 -3.0000001E-04
vertex -9.6250502E-03 -2.4437301E-02 3.6730238E-05
vertex 4.3412042E-03 -2.4620190E-02 -3.0000001E-04
endloop
endfacet
facet normal 2.5448380E-02 1.1499896E-01 9.9303955E-01
outer loop
vertex 4.3412042E-03 -2.4620190E-02 -3.0000001E-04
vertex -9.6250502E-03 -2.4437301E-02 3.6730238E-05
vertex 2.6251399E-04 -2.6358310E-02 5.8065530E-06
endloop
endfacet
facet normal 1.0588052E-01 8.8844240E-02 9.9040192E-01
outer loop
vertex -2.3492310E-02 -8.5505042E-03 -3.0000001E-04
vertex -1.8753359E-02 -1.8357400E-02 7.3104507E-05
vertex -1.2500000E-02 -2.1650640E-02 -3.0000001E-04
endloop
endfacet
facet normal 2.0100340E-01 2.7516112E-01 9.4015104E-01
outer loop
vertex -1.2500000E-02 -2.1650640E-02 -3.0000001E-04
vertex -1.8753359E-02 -1.8357400E-02 7.3104507E-05
vertex -1.0383320E-02 -2.4232700E-02 3.1668640E-06
endloop
endfacet
facet normal 1.5061498E-01 0.0000000E+00 9.8859257E-01
outer loop
vertex -2.3492310E-02 8.5505042E-03 -3.0000001E-04
vertex -2.6454400E-02 -7.7946723E-04 1.5128309E-04
vertex -2.3492310E-02 -8.5505042E-03 -3.0000001E-04
endloop
endfacet
facet normal 2.8530848E-01 5.3178214E-02 9.5695931E-01
outer loop
vertex -2.3492310E-02 -8.5505042E-03 -3.0000001E-04
vertex -2.6454400E-02 -7.7946723E-04 1.5128309E-04
vertex -2.4183379E-02 -1.0337550E-02 5.3419508E-06
endloop
endfacet
facet normal 1.0356340E-01 -8.6899944E-02 9.9081939E-01
outer loop
vertex -1.2500000E-02 2.1650640E-02 -3.0000001E-04
vertex -1.8224191E-02 1.9071899E-02 7.2140712E-05
vertex -2.3492310E-02 8.5505042E-03 -3.0000001E-04
endloop
endfacet
facet normal 1.4602949E-01 -1.0789974E-01 9.8337835E-01
outer loop
vertex -2.3492310E-02 8.5505042E-03 -3.0000001E-04
vertex -1.8224191E-02 1.9071899E-02 7.2140712E-05
vertex -2.5161499E-02 9.1320165E-03 1.1676410E-05
endloop
endfacet
facet normal 2.5253180E-02 -1.4321834E-01 9.8936886E-01
outer loop
vertex 4.3412042E-03 2.4620190E-02 -3.0000001E-04
vertex -9.6483920E-03 2.4531730E-02 4.4272590E-05
vertex -1.2500000E-02 2.1650640E-02 -3.0000001E-04
endloop
endfacet
facet normal -1.3364349E-02 -1.0558765E-01 9.9432015E-01
outer loop
vertex -1.2500000E-02 2.1650640E-02 -3.0000001E-04
vertex -9.6483920E-03 2.4531730E-02 4.4272590E-05
vertex -1.0403940E-02 2.4238979E-02 3.0301610E-06
endloop
endfacet
facet normal -7.7457458E-02 -1.3416030E-01 9.8792779E-01
outer loop
vertex 1.9151110E-02 1.6069690E-02 -3.0000001E-04
vertex 1.8267060E-02 1.8993380E-02 2.7723110E-05
vertex 4.3412042E-03 2.4620190E-02 -3.0000001E-04
endloop
endfacet
facet normal -2.6559901E-01 -6.1404532E-01 7.4323988E-01
outer loop
vertex 4.3412042E-03 2.4620190E-02 -3.0000001E-04
vertex 1.8267060E-02 1.8993380E-02 2.7723110E-05
vertex 8.3466881E-04 2.6508249E-02 6.7938790E-06
endloop
endfacet
facet normal -1.3664806E-01 -4.9735840E-02 9.8937029E-01
outer loop
vertex 2.5000000E-02 0.0000000E+00 -3.0000001E-04
vertex 2.4110621E-02 1.0765670E-02 1.1835460E-04
vertex 1.9151110E-02 1.6069690E-02 -3.0000001E-04
endloop
endfacet
facet normal -2.2222298E-01 -1.3158986E-01 9.6607512E-01
outer loop
vertex 1.9151110E-02 1.6069690E-02 -3.0000001E-04
vertex 2.4110621E-02 1.0765670E-02 1.1835460E-04
vertex 1.9242389E-02 1.8162251E-02 6.0259172E-06
endloop
endfacet
facet normal -2.4412388E-01 5.8427274E-02 9.6798229E-01
outer loop
vertex 2.6062259E-02 -5.9371529E-04 3.7368959E-06
vertex 2.6582500E-02 1.5309521E-03 6.6962521E-06
vertex 2.5000000E-02 0.0000000E+00 -3.0000001E-04
endloop
endfacet
facet normal -1.4297941E-01 -5.0223149E-02 9.8845059E-01
outer loop
vertex 2.5000000E-02 0.0000000E+00 -3.0000001E-04
vertex 2.6582500E-02 1.5309521E-03 6.6962521E-06
vertex 2.4110621E-02 1.0765670E-02 1.1835460E-04
endloop
endfacet
facet normal -9.7264700E-02 -1.3986413E-01 9.8538190E-01
outer loop
vertex 1.9242389E-02 1.8162251E-02 6.0259172E-06
vertex 1.8267060E-02 1.8993380E-02 2.7723110E-05
vertex 1.9151110E-02 1.6069690E-02 -3.0000001E-04
endloop
endfacet
facet normal 2.5163982E-02 -1.1463374E-01 9.9308908E-01
outer loop
vertex 8.3466881E-04 2.6508249E-02 6.7938790E-06
vertex -9.6483920E-03 2.4531730E-02 4.4272590E-05
vertex 4.3412042E-03 2.4620190E-02 -3.0000001E-04
endloop
endfacet
facet normal 1.7629762E-01 -2.5410274E-01 9.5097375E-01
outer loop
vertex -1.0403940E-02 2.4238979E-02 3.0301610E-06
vertex -1.8224191E-02 1.9071899E-02 7.2140712E-05
vertex -1.2500000E-02 2.1650640E-02 -3.0000001E-04
endloop
endfacet
facet normal 1.8028808E-01 -9.6637597E-03 9.8356634E-01
outer loop
vertex -2.5161499E-02 9.1320165E-03 1.1676410E-05
vertex -2.6454400E-02 -7.7946723E-04 1.5128309E-04
vertex -2.3492310E-02 8.5505042E-03 -3.0000001E-04
endloop
endfacet
facet normal 1.5001385E-01 1.0987226E-01 9.8255986E-01
outer loop
vertex -2.4183379E-02 -1.0337550E-02 5.3419508E-06
vertex -1.8753359E-02 -1.8357400E-02 7.3104507E-05
vertex -2.3492310E-02 -8.5505042E-03 -3.0000001E-04
endloop
endfacet
facet normal -1.6066665E-02 1.0359496E-01 9.9448979E-01
outer loop
vertex -1.0383320E-02 -2.4232700E-02 3.1668640E-06
vertex -9.6250502E-03 -2.4437301E-02 3.6730238E-05
vertex -1.2500000E-02 -2.1650640E-02 -3.0000001E-04
endloop
endfacet
facet normal -3.6486730E-01 8.9888978E-01 2.4262910E-01
outer loop
vertex 2.6251399E-04 -2.6358310E-02 5.8065530E-06
vertex 1.8296830E-02 -1.9045191E-02 3.2366661E-05
vertex 4.3412042E-03 -2.4620190E-02 -3.0000001E-04
endloop
endfacet
facet normal -2.5998023E-01 1.5058503E-01 9.5379996E-01
outer loop
vertex 1.9151110E-02 -1.6069690E-02 -3.0000001E-04
vertex 1.8934039E-02 -1.8376529E-02 5.0339322E-06
vertex 2.4824800E-02 -9.3494458E-03 1.8550961E-04
endloop
endfacet
facet normal -3.2559565E-01 -2.1579864E-02 9.4526285E-01
outer loop
vertex -2.9532600E-02 -8.6553600E-03 7.8480771E-06
vertex -3.0492671E-02 6.5018600E-03 2.3183409E-05
vertex -3.0999999E-02 0.0000000E+00 -3.0000001E-04
endloop
endfacet
facet normal -1.7093349E-01 6.2214658E-02 -9.8331630E-01
outer loop
vertex -3.0999999E-02 0.0000000E+00 -3.0000001E-04
vertex -3.0492671E-02 6.5018600E-03 2.3183409E-05
vertex -2.3747381E-02 1.9926419E-02 -3.0000001E-04
endloop
endfacet
facet normal -1.5340713E-01 1.0074590E-01 9.8301393E-01
outer loop
vertex -2.3747381E-02 1.9926419E-02 -3.0000001E-04
vertex -3.0492671E-02 6.5018600E-03 2.3183409E-05
vertex -2.1094389E-02 2.1013901E-02 2.5679140E-06
endloop
endfacet
facet normal -2.1882558E-01 2.7321586E-01 9.3673283E-01
outer loop
vertex -2.3747381E-02 1.9926419E-02 -3.0000001E-04
vertex -2.1094389E-02 2.1013901E-02 2.5679140E-06
vertex -1.0985980E-02 2.9114161E-02 1.3498030E-06
endloop
endfacet
facet normal -9.3897708E-02 1.6263567E-01 -9.8220813E-01
outer loop
vertex -2.3747381E-02 1.9926419E-02 -3.0000001E-04
vertex -1.0985980E-02 2.9114161E-02 1.3498030E-06
vertex -5.3830929E-03 3.0529041E-02 -3.0000001E-04
endloop
endfacet
facet normal -7.5666490E-03 2.3688163E-01 9.7150892E-01
outer loop
vertex -1.0985980E-02 2.9114161E-02 1.3498030E-06
vertex 2.6775460E-04 2.9641731E-02 -3.9636529E-05
vertex -5.3830929E-03 3.0529041E-02 -3.0000001E-04
endloop
endfacet
facet normal 5.1499400E-03 3.1161326E-01 9.5019501E-01
outer loop
vertex -5.3830929E-03 3.0529041E-02 -3.0000001E-04
vertex 2.6775460E-04 2.9641731E-02 -3.9636529E-05
vertex 9.5391236E-03 2.9373100E-02 -1.7896580E-06
endloop
endfacet
facet normal 3.4915250E-02 1.9801436E-01 -9.7957712E-01
outer loop
vertex -5.3830929E-03 3.0529041E-02 -3.0000001E-04
vertex 9.5391236E-03 2.9373100E-02 -1.7896580E-06
vertex 1.5500000E-02 2.6846791E-02 -3.0000001E-04
endloop
endfacet
facet normal 1.7677788E-01 3.0671316E-01 9.3524140E-01
outer loop
vertex 1.5500000E-02 2.6846791E-02 -3.0000001E-04
vertex 9.5391236E-03 2.9373100E-02 -1.7896580E-06
vertex 2.0758931E-02 2.2905501E-02 -1.4857220E-06
endloop
endfacet
facet normal 1.4998323E-01 1.2585081E-01 -9.8064595E-01
outer loop
vertex 1.5500000E-02 2.6846791E-02 -3.0000001E-04
vertex 2.0758931E-02 2.2905501E-02 -1.4857220E-06
vertex 2.9130470E-02 1.0602620E-02 -3.0000001E-04
endloop
endfacet
facet normal 1.9689395E-01 1.1033953E-01 9.7419608E-01
outer loop
vertex 2.9130470E-02 1.0602620E-02 -3.0000001E-04
vertex 2.0758931E-02 2.2905501E-02 -1.4857220E-06
vertex 2.7556390E-02 1.0841870E-02 -8.9618234E-06
endloop
endfacet
facet normal 1.9102226E-01 6.5369949E-02 9.7940654E-01
outer loop
vertex 2.7556390E-02 1.0841870E-02 -8.9618234E-06
vertex 3.0871050E-02 8.3815790E-04 1.2242990E-05
vertex 2.9130470E-02 1.0602620E-02 -3.0000001E-04
endloop
endfacet
facet normal 1.7657156E-01 0.0000000E+00 -9.8428786E-01
outer loop
vertex 2.9130470E-02 1.0602620E-02 -3.0000001E-04
vertex 3.0871050E-02 8.3815790E-04 1.2242990E-05
vertex 2.9130470E-02 -1.0602620E-02 -3.0000001E-04
endloop
endfacet
facet normal 1.9728677E-01 -5.6725748E-02 9.7870332E-01
outer loop
vertex 2.9130470E-02 -1.0602620E-02 -3.0000001E-04
vertex 3.0871050E-02 8.3815790E-04 1.2242990E-05
vertex 2.7565749E-02 -1.1016840E-02 -8.5922220E-06
endloop
endfacet
facet normal 2.1193121E-01 -1.1808035E-01 9.7012478E-01
outer loop
vertex 2.9130470E-02 -1.0602620E-02 -3.0000001E-04
vertex 2.7565749E-02 -1.1016840E-02 -8.5922220E-06
vertex 2.1151450E-02 -2.2472059E-02 -1.6301590E-06
endloop
endfacet
facet normal 1.4781383E-01 -1.2403047E-01 -9.8120713E-01
outer loop
vertex 2.9130470E-02 -1.0602620E-02 -3.0000001E-04
vertex 2.1151450E-02 -2.2472059E-02 -1.6301590E-06
vertex 1.5500000E-02 -2.6846791E-02 -3.0000001E-04
endloop
endfacet
facet normal 1.8746056E-01 -3.0583286E-01 9.3344778E-01
outer loop
vertex 1.5500000E-02 -2.6846791E-02 -3.0000001E-04
vertex 2.1151450E-02 -2.2472059E-02 -1.6301590E-06
vertex 1.0131760E-02 -2.9233189E-02 -3.7925699E-06
endloop
endfacet
facet normal 3.5508081E-02 -2.0137645E-01 -9.7887015E-01
outer loop
vertex 1.5500000E-02 -2.6846791E-02 -3.0000001E-04
vertex 1.0131760E-02 -2.9233189E-02 -3.7925699E-06
vertex -5.3830929E-03 -3.0529041E-02 -3.0000001E-04
endloop
endfacet
facet normal 1.0483095E-02 -3.4042618E-01 9.4021279E-01
outer loop
vertex -5.3830929E-03 -3.0529041E-02 -3.0000001E-04
vertex 1.0131760E-02 -2.9233189E-02 -3.7925699E-06
vertex 2.8898439E-04 -2.9635470E-02 -3.9703820E-05
endloop
endfacet
facet normal -7.3823980E-03 -2.3618828E-01 9.7167927E-01
outer loop
vertex -5.3830929E-03 -3.0529041E-02 -3.0000001E-04
vertex 2.8898439E-04 -2.9635470E-02 -3.9703820E-05
vertex -1.0985980E-02 -2.9114161E-02 1.3498020E-06
endloop
endfacet
facet normal -9.3897715E-02 -1.6263568E-01 -9.8220813E-01
outer loop
vertex -5.3830929E-03 -3.0529041E-02 -3.0000001E-04
vertex -1.0985980E-02 -2.9114161E-02 1.3498020E-06
vertex -2.3747381E-02 -1.9926419E-02 -3.0000001E-04
endloop
endfacet
facet normal -1.6926736E-01 -2.0347612E-01 9.6433711E-01
outer loop
vertex -2.3747381E-02 -1.9926419E-02 -3.0000001E-04
vertex -1.0985980E-02 -2.9114161E-02 1.3498020E-06
vertex -2.1349121E-02 -2.0486491E-02 2.7841429E-06
endloop
endfacet
facet normal -1.4821930E-01 -1.0294285E-01 9.8358208E-01
outer loop
vertex -2.1349121E-02 -2.0486491E-02 2.7841429E-06
vertex -2.9532600E-02 -8.6553600E-03 7.8480771E-06
vertex -2.3747381E-02 -1.9926419E-02 -3.0000001E-04
endloop
endfacet
facet normal -1.7955746E-01 -6.5353528E-02 -9.8157430E-01
outer loop
vertex -2.3747381E-02 -1.9926419E-02 -3.0000001E-04
vertex -2.9532600E-02 -8.6553600E-03 7.8480771E-06
vertex -3.0999999E-02 0.0000000E+00 -3.0000001E-04
endloop
endfacet
facet normal 9.3859243E-01 3.4161946E-01 -4.8376575E-02
outer loop
vertex 2.3747381E-02 1.9926419E-02 -3.8899999E-02
vertex 2.9130470E-02 1.0602620E-02 -3.0000001E-04
vertex 3.0999999E-02 0.0000000E+00 -3.8899999E-02
endloop
endfacet
facet normal 9.9882925E-01 0.0000000E+00 4.8376705E-02
outer loop
vertex 3.0999999E-02 0.0000000E+00 -3.8899999E-02
vertex 2.9130470E-02 1.0602620E-02 -3.0000001E-04
vertex 2.9130470E-02 -1.0602620E-02 -3.0000001E-04
endloop
endfacet
facet normal 9.3859243E-01 -3.4161946E-01 -4.8376571E-02
outer loop
vertex 3.0999999E-02 0.0000000E+00 -3.8899999E-02
vertex 2.9130470E-02 -1.0602620E-02 -3.0000001E-04
vertex 2.3747381E-02 -1.9926419E-02 -3.8899999E-02
endloop
endfacet
facet normal 7.6514769E-01 -6.4203483E-01 4.8376828E-02
outer loop
vertex 2.3747381E-02 -1.9926419E-02 -3.8899999E-02
vertex 2.9130470E-02 -1.0602620E-02 -3.0000001E-04
vertex 1.5500000E-02 -2.6846791E-02 -3.0000001E-04
endloop
endfacet
facet normal 4.9941441E-01 -8.6501157E-01 -4.8376702E-02
outer loop
vertex 2.3747381E-02 -1.9926419E-02 -3.8899999E-02
vertex 1.5500000E-02 -2.6846791E-02 -3.0000001E-04
vertex 5.3830929E-03 -3.0529041E-02 -3.8899999E-02
endloop
endfacet
facet normal 1.7344475E-01 -9.8365474E-01 4.8376646E-02
outer loop
vertex 5.3830929E-03 -3.0529041E-02 -3.8899999E-02
vertex 1.5500000E-02 -2.6846791E-02 -3.0000001E-04
vertex -5.3830929E-03 -3.0529041E-02 -3.0000001E-04
endloop
endfacet
facet normal -1.7344475E-01 -9.8365474E-01 -4.8376646E-02
outer loop
vertex 5.3830929E-03 -3.0529041E-02 -3.8899999E-02
vertex -5.3830929E-03 -3.0529041E-02 -3.0000001E-04
vertex -1.5500000E-02 -2.6846791E-02 -3.8899999E-02
endloop
endfacet
facet normal -4.9941435E-01 -8.6501151E-01 4.8376687E-02
outer loop
vertex -1.5500000E-02 -2.6846791E-02 -3.8899999E-02
vertex -5.3830929E-03 -3.0529041E-02 -3.0000001E-04
vertex -2.3747381E-02 -1.9926419E-02 -3.0000001E-04
endloop
endfacet
facet normal -7.6514769E-01 -6.4203483E-01 -4.8376817E-02
outer loop
vertex -1.5500000E-02 -2.6846791E-02 -3.8899999E-02
vertex -2.3747381E-02 -1.9926419E-02 -3.0000001E-04
vertex -2.9130470E-02 -1.0602620E-02 -3.8899999E-02
endloop
endfacet
facet normal -9.3859243E-01 -3.4161949E-01 4.8376571E-02
outer loop
vertex -2.9130470E-02 -1.0602620E-02 -3.8899999E-02
vertex -2.3747381E-02 -1.9926419E-02 -3.0000001E-04
vertex -3.0999999E-02 0.0000000E+00 -3.0000001E-04
endloop
endfacet
facet normal -9.9882925E-01 0.0000000E+00 -4.8376705E-02
outer loop
vertex -2.9130470E-02 -1.0602620E-02 -3.8899999E-02
vertex -3.0999999E-02 0.0000000E+00 -3.0000001E-04
vertex -2.9130470E-02 1.0602620E-02 -3.8899999E-02
endloop
endfacet
facet normal -9.3859243E-01 3.4161949E-01 4.8376571E-02
outer loop
vertex -2.9130470E-02 1.0602620E-02 -3.8899999E-02
vertex -3.0999999E-02 0.0000000E+00 -3.0000001E-04
vertex -2.3747381E-02 1.9926419E-02 -3.0000001E-04
endloop
endfacet
facet normal -7.6514769E-01 6.4203483E-01 -4.8376836E-02
outer loop
vertex -2.9130470E-02 1.0602620E-02 -3.8899999E-02
vertex -2.3747381E-02 1.9926419E-02 -3.0000001E-04
vertex -1.5500000E-02 2.6846791E-02 -3.8899999E-02
endloop
endfacet
facet normal -4.9941435E-01 8.6501151E-01 4.8376687E-02
outer loop
vertex -1.5500000E-02 2.6846791E-02 -3.8899999E-02
vertex -2.3747381E-02 1.9926419E-02 -3.0000001E-04
vertex -5.3830929E-03 3.0529041E-02 -3.0000001E-04
endloop
endfacet
facet normal -1.7344475E-01 9.8365474E-01 -4.8376646E-02
outer loop
vertex -1.5500000E-02 2.6846791E-02 -3.8899999E-02
vertex -5.3830929E-03 3.0529041E-02 -3.0000001E-04
vertex 5.3830929E-03 3.0529041E-02 -3.8899999E-02
endloop
endfacet
facet normal 1.7344475E-01 9.8365474E-01 4.8376646E-02
outer loop
vertex 5.3830929E-03 3.0529041E-02 -3.8899999E-02
vertex -5.3830929E-03 3.0529041E-02 -3.0000001E-04
vertex 1.5500000E-02 2.6846791E-02 -3.0000001E-04
endloop
endfacet
facet normal 4.9941441E-01 8.6501157E-01 -4.8376694E-02
outer loop
vertex 5.3830929E-03 3.0529041E-02 -3.8899999E-02
vertex 1.5500000E-02 2.6846791E-02 -3.0000001E-04
vertex 2.3747381E-02 1.9926419E-02 -3.8899999E-02
endloop
endfacet
facet normal 7.6514769E-01 6.4203483E-01 4.8376828E-02
outer loop
vertex 2.3747381E-02 1.9926419E-02 -3.8899999E-02
vertex 1.5500000E-02 2.6846791E-02 -3.0000001E-04
vertex 2.9130470E-02 1.0602620E-02 -3.0000001E-04
endloop
endfacet
facet normal -9.3969256E-01 3.4202018E-01 0.0000000E+00
outer loop
vertex 1.9151110E-02 -1.6069690E-02 -3.8899999E-02
vertex 2.5000000E-02 0.0000000E+00 -3.0000001E-04
vertex 2.5000000E-02 0.0000000E+00 -3.8899999E-02
endloop
endfacet
facet normal -9.3969256E-01 -3.4202018E-01 0.0000000E+00
outer loop
vertex 2.5000000E-02 0.0000000E+00 -3.8899999E-02
vertex 2.5000000E-02 0.0000000E+00 -3.0000001E-04
vertex 1.9151110E-02 1.6069690E-02 -3.0000001E-04
endloop
endfacet
facet normal -9.3969256E-01 -3.4202018E-01 0.0000000E+00
outer loop
vertex 2.5000000E-02 0.0000000E+00 -3.8899999E-02
vertex 1.9151110E-02 1.6069690E-02 -3.0000001E-04
vertex 1.9151110E-02 1.6069690E-02 -3.8899999E-02
endloop
endfacet
facet normal -4.9999985E-01 -8.6602545E-01 0.0000000E+00
outer loop
vertex 1.9151110E-02 1.6069690E-02 -3.8899999E-02
vertex 1.9151110E-02 1.6069690E-02 -3.0000001E-04
vertex 4.3412042E-03 2.4620190E-02 -3.0000001E-04
endloop
endfacet
facet normal -4.9999985E-01 -8.6602545E-01 0.0000000E+00
outer loop
vertex 1.9151110E-02 1.6069690E-02 -3.8899999E-02
vertex 4.3412042E-03 2.4620190E-02 -3.0000001E-04
vertex 4.3412042E-03 2.4620190E-02 -3.8899999E-02
endloop
endfacet
facet normal 1.7364766E-01 -9.8480773E-01 0.0000000E+00
outer loop
vertex 4.3412042E-03 2.4620190E-02 -3.8899999E-02
vertex 4.3412042E-03 2.4620190E-02 -3.0000001E-04
vertex -1.2500000E-02 2.1650640E-02 -3.0000001E-04
endloop
endfacet
facet normal 1.7364766E-01 -9.8480773E-01 0.0000000E+00
outer loop
vertex 4.3412042E-03 2.4620190E-02 -3.8899999E-02
vertex -1.2500000E-02 2.1650640E-02 -3.0000001E-04
vertex -1.2500000E-02 2.1650640E-02 -3.8899999E-02
endloop
endfacet
facet normal 7.6604468E-01 -6.4278728E-01 0.0000000E+00
outer loop
vertex -1.2500000E-02 2.1650640E-02 -3.8899999E-02
vertex -1.2500000E-02 2.1650640E-02 -3.0000001E-04
vertex -2.3492310E-02 8.5505042E-03 -3.0000001E-04
endloop
endfacet
facet normal 7.6604468E-01 -6.4278728E-01 0.0000000E+00
outer loop
vertex -1.2500000E-02 2.1650640E-02 -3.8899999E-02
vertex -2.3492310E-02 8.5505042E-03 -3.0000001E-04
vertex -2.3492310E-02 8.5505042E-03 -3.8899999E-02
endloop
endfacet
facet normal 1.0000000E+00 0.0000000E+00 -0.0000000E+00
outer loop
vertex -2.3492310E-02 8.5505042E-03 -3.8899999E-02
vertex -2.3492310E-02 8.5505042E-03 -3.0000001E-04
vertex -2.3492310E-02 -8.5505042E-03 -3.0000001E-04
endloop
endfacet
facet normal 1.0000000E+00 0.0000000E+00 0.0000000E+00
outer loop
vertex -2.3492310E-02 8.5505042E-03 -3.8899999E-02
vertex -2.3492310E-02 -8.5505042E-03 -3.0000001E-04
vertex -2.3492310E-02 -8.5505042E-03 -3.8899999E-02
endloop
endfacet
facet normal 7.6604468E-01 6.4278728E-01 -0.0000000E+00
outer loop
vertex -2.3492310E-02 -8.5505042E-03 -3.8899999E-02
vertex -2.3492310E-02 -8.5505042E-03 -3.0000001E-04
vertex -1.2500000E-02 -2.1650640E-02 -3.0000001E-04
endloop
endfacet
facet normal 7.6604468E-01 6.4278728E-01 0.0000000E+00
outer loop
vertex -2.3492310E-02 -8.5505042E-03 -3.8899999E-02
vertex -1.2500000E-02 -2.1650640E-02 -3.0000001E-04
vertex -1.2500000E-02 -2.1650640E-02 -3.8899999E-02
endloop
endfacet
facet normal 1.7364766E-01 9.8480773E-01 -0.0000000E+00
outer loop
vertex -1.2500000E-02 -2.1650640E-02 -3.8899999E-02
vertex -1.2500000E-02 -2.1650640E-02 -3.0000001E-04
vertex 4.3412042E-03 -2.4620190E-02 -3.0000001E-04
endloop
endfacet
facet normal 1.7364766E-01 9.8480773E-01 0.0000000E+00
outer loop
vertex -1.2500000E-02 -2.1650640E-02 -3.8899999E-02
vertex 4.3412042E-03 -2.4620190E-02 -3.0000001E-04
vertex 4.3412042E-03 -2.4620190E-02 -3.8899999E-02
endloop
endfacet
facet normal -4.9999985E-01 8.6602545E-01 0.0000000E+00
outer loop
vertex 4.3412042E-03 -2.4620190E-02 -3.8899999E-02
vertex 4.3412042E-03 -2.4620190E-02 -3.0000001E-04
vertex 1.9151110E-02 -1.6069690E-02 -3.0000001E-04
endloop
endfacet
facet normal -4.9999985E-01 8.6602545E-01 0.0000000E+00
outer loop
vertex 4.3412042E-03 -2.4620190E-02 -3.8899999E-02
vertex 1.9151110E-02 -1.6069690E-02 -3.0000001E-04
vertex 1.9151110E-02 -1.6069690E-02 -3.8899999E-02
endloop
endfacet
facet normal -9.3969256E-01 3.4202018E-01 0.0000000E+00
outer loop
vertex 1.9151110E-02 -1.6069690E-02 -3.8899999E-02
vertex 1.9151110E-02 -1.6069690E-02 -3.0000001E-04
vertex 2.5000000E-02 0.0000000E+00 -3.0000001E-04
endloop
endfacet
facet normal 4.2735342E-02 1.6960659E-03 9.9908507E-01
outer loop
vertex -2.9532600E-02 -8.6553600E-03 7.8480771E-06
vertex -2.9701781E-02 2.3042440E-04 0.0000000E+00
vertex -3.0492671E-02 6.5018600E-03 2.3183409E-05
endloop
endfacet
facet normal 4.3100966E-03 -3.1530682E-03 9.9998581E-01
outer loop
vertex -3.0492671E-02 6.5018600E-03 2.3183409E-05
vertex -2.9701781E-02 2.3042440E-04 0.0000000E+00
vertex -2.8825000E-02 1.4289420E-03 0.0000000E+00
endloop
endfacet
facet normal -1.7362399E-04 -4.6270625E-03 9.9998927E-01
outer loop
vertex -3.0492671E-02 6.5018600E-03 2.3183409E-05
vertex -2.8825000E-02 1.4289420E-03 0.0000000E+00
vertex -2.6949560E-02 1.3585690E-03 0.0000000E+00
endloop
endfacet
facet normal 2.0973447E-03 -2.0404146E-03 9.9999565E-01
outer loop
vertex -2.9532600E-02 -8.6553600E-03 7.8480771E-06
vertex -2.7570400E-02 -1.0484710E-02 0.0000000E+00
vertex -2.6164141E-02 -9.0392139E-03 0.0000000E+00
endloop
endfacet
facet normal -3.3875271E-03 -9.2823189E-03 -9.9995112E-01
outer loop
vertex -2.9532600E-02 -8.6553600E-03 7.8480771E-06
vertex -2.6164141E-02 -9.0392139E-03 0.0000000E+00
vertex -2.4183379E-02 -1.0337550E-02 5.3419508E-06
endloop
endfacet
facet normal 1.4920096E-02 9.8921368E-03 9.9983978E-01
outer loop
vertex -2.1349121E-02 -2.0486491E-02 2.7841429E-06
vertex -2.6693629E-02 -1.2144080E-02 0.0000000E+00
vertex -2.9532600E-02 -8.6553600E-03 7.8480771E-06
endloop
endfacet
facet normal 7.8823287E-03 4.1648331E-03 9.9996030E-01
outer loop
vertex -2.9532600E-02 -8.6553600E-03 7.8480771E-06
vertex -2.6693629E-02 -1.2144080E-02 0.0000000E+00
vertex -2.7570400E-02 -1.0484710E-02 0.0000000E+00
endloop
endfacet
facet normal 3.8811278E-02 4.6452291E-02 9.9816626E-01
outer loop
vertex -1.0985980E-02 -2.9114161E-02 1.3498020E-06
vertex -2.0094501E-02 -2.1474911E-02 0.0000000E+00
vertex -2.1349121E-02 -2.0486491E-02 2.7841429E-06
endloop
endfacet
facet normal 9.0218155E-04 -1.2215854E-04 -9.9999958E-01
outer loop
vertex -1.0985980E-02 -2.9114161E-02 1.3498020E-06
vertex -1.2166890E-02 -2.6785990E-02 0.0000000E+00
vertex -1.1870660E-02 -2.4598230E-02 0.0000000E+00
endloop
endfacet
facet normal -9.1055158E-04 1.1460605E-03 9.9999893E-01
outer loop
vertex -1.0985980E-02 -2.9114161E-02 1.3498020E-06
vertex -9.1159903E-03 -2.6450669E-02 0.0000000E+00
vertex -1.0428620E-02 -2.7493561E-02 0.0000000E+00
endloop
endfacet
facet normal 2.9740171E-04 7.3061942E-04 9.9999970E-01
outer loop
vertex -1.0985980E-02 -2.9114161E-02 1.3498020E-06
vertex -1.0428620E-02 -2.7493561E-02 0.0000000E+00
vertex -1.2166890E-02 -2.6785990E-02 0.0000000E+00
endloop
endfacet
facet normal -6.8128579E-03 -2.2409572E-01 9.7454333E-01
outer loop
vertex 2.8898439E-04 -2.9635470E-02 -3.9703820E-05
vertex -8.2500000E-04 -2.9428940E-02 0.0000000E+00
vertex -1.0985980E-02 -2.9114161E-02 1.3498020E-06
endloop
endfacet
facet normal 1.3505237E-04 7.1359129E-05 9.9999994E-01
outer loop
vertex -1.0985980E-02 -2.9114161E-02 1.3498020E-06
vertex -8.2500000E-04 -2.9428940E-02 0.0000000E+00
vertex -1.7017750E-03 -2.7769580E-02 0.0000000E+00
endloop
endfacet
facet normal -2.9199005E-03 -1.7812118E-02 9.9983710E-01
outer loop
vertex 1.0131760E-02 -2.9233189E-02 -3.7925699E-06
vertex 1.6779560E-03 -2.7634490E-02 0.0000000E+00
vertex 2.8898439E-04 -2.9635470E-02 -3.9703820E-05
endloop
endfacet
facet normal 4.9067494E-02 -1.4243719E-02 -9.9869388E-01
outer loop
vertex 2.8898439E-04 -2.9635470E-02 -3.9703820E-05
vertex 1.6779560E-03 -2.7634490E-02 0.0000000E+00
vertex 1.2639730E-03 -2.9060600E-02 0.0000000E+00
endloop
endfacet
facet normal -2.2057663E-03 -2.1161786E-03 9.9999529E-01
outer loop
vertex 1.0131760E-02 -2.9233189E-02 -3.7925699E-06
vertex 1.0192700E-02 -2.7504539E-02 0.0000000E+00
vertex 9.1646425E-03 -2.6432959E-02 0.0000000E+00
endloop
endfacet
facet normal 1.2337883E-03 -2.3307300E-03 9.9999654E-01
outer loop
vertex 2.1151450E-02 -2.2472059E-02 -1.6301590E-06
vertex 1.2314280E-02 -2.6450660E-02 0.0000000E+00
vertex 1.0131760E-02 -2.9233189E-02 -3.7925699E-06
endloop
endfacet
facet normal 1.1092491E-03 -2.2330463E-03 9.9999690E-01
outer loop
vertex 1.0131760E-02 -2.9233189E-02 -3.7925699E-06
vertex 1.2314280E-02 -2.6450660E-02 0.0000000E+00
vertex 1.0192700E-02 -2.7504539E-02 0.0000000E+00
endloop
endfacet
facet normal -1.0802813E-03 -2.6539071E-03 9.9999595E-01
outer loop
vertex 2.1151450E-02 -2.2472059E-02 -1.6301590E-06
vertex 2.0085510E-02 -2.1423919E-02 0.0000000E+00
vertex 1.8347239E-02 -2.0716351E-02 0.0000000E+00
endloop
endfacet
facet normal 1.1763920E-02 1.9717528E-02 -9.9973637E-01
outer loop
vertex 2.1151450E-02 -2.2472059E-02 -1.6301590E-06
vertex 1.8347239E-02 -2.0716351E-02 0.0000000E+00
vertex 1.8296830E-02 -1.9045191E-02 3.2366661E-05
endloop
endfacet
facet normal 3.1389862E-03 -1.1499015E-03 9.9999440E-01
outer loop
vertex 2.7565749E-02 -1.1016840E-02 -8.5922220E-06
vertex 2.1398131E-02 -2.0381030E-02 0.0000000E+00
vertex 2.1151450E-02 -2.2472059E-02 -1.6301590E-06
endloop
endfacet
facet normal 6.8345584E-04 -8.6022390E-04 9.9999934E-01
outer loop
vertex 2.1151450E-02 -2.2472059E-02 -1.6301590E-06
vertex 2.1398131E-02 -2.0381030E-02 0.0000000E+00
vertex 2.0085510E-02 -2.1423919E-02 0.0000000E+00
endloop
endfacet
facet normal -1.9241749E-04 -7.1916343E-03 -9.9997407E-01
outer loop
vertex 2.7565749E-02 -1.1016840E-02 -8.5922220E-06
vertex 2.6719511E-02 -1.2188920E-02 0.0000000E+00
vertex 2.5043629E-02 -1.2144080E-02 0.0000000E+00
endloop
endfacet
facet normal 5.1137488E-03 -3.1832408E-03 9.9998194E-01
outer loop
vertex 3.0871050E-02 8.3815790E-04 1.2242990E-05
vertex 2.6919059E-02 -9.3565648E-03 0.0000000E+00
vertex 2.7565749E-02 -1.1016840E-02 -8.5922220E-06
endloop
endfacet
facet normal -3.6241815E-03 8.8415314E-03 -9.9995428E-01
outer loop
vertex 3.0871050E-02 8.3815790E-04 1.2242990E-05
vertex 2.9842829E-02 -9.6796470E-04 0.0000000E+00
vertex 2.7366750E-02 -1.9829201E-03 0.0000000E+00
endloop
endfacet
facet normal 7.5640052E-04 3.4002115E-03 -9.9999398E-01
outer loop
vertex 3.0871050E-02 8.3815790E-04 1.2242990E-05
vertex 2.7366750E-02 -1.9829201E-03 0.0000000E+00
vertex 2.6062259E-02 -5.9371529E-04 3.7368959E-06
endloop
endfacet
facet normal -8.6114658E-03 -1.8758543E-03 9.9996114E-01
outer loop
vertex 3.0871050E-02 8.3815790E-04 1.2242990E-05
vertex 2.9273260E-02 1.6467500E-03 0.0000000E+00
vertex 2.9842829E-02 -9.6796470E-04 0.0000000E+00
endloop
endfacet
facet normal 3.3178804E-03 3.2190287E-03 9.9998933E-01
outer loop
vertex 2.7556390E-02 1.0841870E-02 -8.9618234E-06
vertex 2.6519960E-02 9.1261417E-03 0.0000000E+00
vertex 3.0871050E-02 8.3815790E-04 1.2242990E-05
endloop
endfacet
facet normal 7.7684887E-02 4.2255025E-02 9.9608213E-01
outer loop
vertex 3.0871050E-02 8.3815790E-04 1.2242990E-05
vertex 2.6519960E-02 9.1261417E-03 0.0000000E+00
vertex 2.4110621E-02 1.0765670E-02 1.1835460E-04
endloop
endfacet
facet normal 9.2746569E-03 8.5549839E-02 -9.9629068E-01
outer loop
vertex 2.4110621E-02 1.0765670E-02 1.1835460E-04
vertex 2.6519960E-02 9.1261417E-03 0.0000000E+00
vertex 2.5043629E-02 9.2861941E-03 0.0000000E+00
endloop
endfacet
facet normal 2.6206542E-03 8.5693225E-04 9.9999613E-01
outer loop
vertex 2.0758931E-02 2.2905501E-02 -1.4857220E-06
vertex 2.1398131E-02 1.9216949E-02 0.0000000E+00
vertex 2.7556390E-02 1.0841870E-02 -8.9618234E-06
endloop
endfacet
facet normal 2.4407457E-03 7.2464370E-04 9.9999672E-01
outer loop
vertex 2.7556390E-02 1.0841870E-02 -8.9618234E-06
vertex 2.1398131E-02 1.9216949E-02 0.0000000E+00
vertex 1.9242389E-02 1.8162251E-02 6.0259172E-06
endloop
endfacet
facet normal 3.6800001E-03 1.0405082E-03 9.9999267E-01
outer loop
vertex 2.0758931E-02 2.2905501E-02 -1.4857220E-06
vertex 2.0849429E-02 2.1157561E-02 0.0000000E+00
vertex 2.1398131E-02 1.9216949E-02 0.0000000E+00
endloop
endfacet
facet normal 6.3368783E-04 1.1462970E-03 9.9999917E-01
outer loop
vertex 9.5391236E-03 2.9373100E-02 -1.7896580E-06
vertex 1.2393090E-02 2.6234141E-02 0.0000000E+00
vertex 2.0758931E-02 2.2905501E-02 -1.4857220E-06
endloop
endfacet
facet normal 1.5064179E-04 -6.7738438E-05 1.0000000E+00
outer loop
vertex 2.0758931E-02 2.2905501E-02 -1.4857220E-06
vertex 1.2393090E-02 2.6234141E-02 0.0000000E+00
vertex 1.1566020E-02 2.4394840E-02 0.0000000E+00
endloop
endfacet
facet normal 1.2429244E-03 6.6743717E-03 9.9997693E-01
outer loop
vertex 2.0758931E-02 2.2905501E-02 -1.4857220E-06
vertex 1.1566020E-02 2.4394840E-02 0.0000000E+00
vertex 1.8267060E-02 1.8993380E-02 2.7723110E-05
endloop
endfacet
facet normal 1.1584196E-03 6.5695397E-03 9.9997771E-01
outer loop
vertex 1.8267060E-02 1.8993380E-02 2.7723110E-05
vertex 1.1566020E-02 2.4394840E-02 0.0000000E+00
vertex 9.4114998E-03 2.4774751E-02 0.0000000E+00
endloop
endfacet
facet normal 9.5536764E-04 1.4387707E-03 9.9999851E-01
outer loop
vertex 9.5391236E-03 2.9373100E-02 -1.7896580E-06
vertex 1.0419630E-02 2.7544551E-02 0.0000000E+00
vertex 1.2393090E-02 2.6234141E-02 0.0000000E+00
endloop
endfacet
facet normal -3.2862492E-03 2.7414640E-02 9.9961871E-01
outer loop
vertex 2.6775460E-04 2.9641731E-02 -3.9636529E-05
vertex 1.6779560E-03 2.8365510E-02 0.0000000E+00
vertex 9.5391236E-03 2.9373100E-02 -1.7896580E-06
endloop
endfacet
facet normal -2.5610346E-04 3.7742690E-03 9.9999285E-01
outer loop
vertex 9.5391236E-03 2.9373100E-02 -1.7896580E-06
vertex 1.6779560E-03 2.8365510E-02 0.0000000E+00
vertex 8.3466881E-04 2.6508249E-02 6.7938790E-06
endloop
endfacet
facet normal 8.2015153E-04 5.0423638E-04 9.9999952E-01
outer loop
vertex 9.5391236E-03 2.9373100E-02 -1.7896580E-06
vertex 8.3466881E-04 2.6508249E-02 6.7938790E-06
vertex 9.1646425E-03 2.6432959E-02 0.0000000E+00
endloop
endfacet
facet normal 8.1669289E-04 1.2158095E-04 9.9999964E-01
outer loop
vertex 9.1646425E-03 2.6432959E-02 0.0000000E+00
vertex 8.3466881E-04 2.6508249E-02 6.7938790E-06
vertex 9.4114998E-03 2.4774751E-02 0.0000000E+00
endloop
endfacet
facet normal 2.5509852E-03 8.7024989E-03 9.9995887E-01
outer loop
vertex 9.4114998E-03 2.4774751E-02 0.0000000E+00
vertex 8.3466881E-04 2.6508249E-02 6.7938790E-06
vertex 1.8267060E-02 1.8993380E-02 2.7723110E-05
endloop
endfacet
facet normal -6.5465639E-03 2.1550813E-01 9.7648013E-01
outer loop
vertex -1.0985980E-02 2.9114161E-02 1.3498030E-06
vertex -8.2500000E-04 2.9428940E-02 0.0000000E+00
vertex 2.6775460E-04 2.9641731E-02 -3.9636529E-05
endloop
endfacet
facet normal -2.0502245E-02 -1.5348242E-02 -9.9967206E-01
outer loop
vertex -1.0985980E-02 2.9114161E-02 1.3498030E-06
vertex -9.1460487E-03 2.6744289E-02 0.0000000E+00
vertex -9.6483920E-03 2.4531730E-02 4.4272590E-05
endloop
endfacet
facet normal -9.2974238E-05 -6.4175169E-04 9.9999976E-01
outer loop
vertex -1.0985980E-02 2.9114161E-02 1.3498030E-06
vertex -1.1870660E-02 2.7139019E-02 0.0000000E+00
vertex -9.1460487E-03 2.6744289E-02 0.0000000E+00
endloop
endfacet
facet normal 1.1752738E-03 -1.3162590E-03 9.9999845E-01
outer loop
vertex -2.1094389E-02 2.1013901E-02 2.5679140E-06
vertex -1.8748550E-02 2.1157561E-02 0.0000000E+00
vertex -1.0985980E-02 2.9114161E-02 1.3498030E-06
endloop
endfacet
facet normal -4.6969918E-04 2.8859940E-04 9.9999988E-01
outer loop
vertex -1.0985980E-02 2.9114161E-02 1.3498030E-06
vertex -1.8748550E-02 2.1157561E-02 0.0000000E+00
vertex -1.0403940E-02 2.4238979E-02 3.0301610E-06
endloop
endfacet
facet normal -1.2013025E-02 3.1548966E-02 9.9942994E-01
outer loop
vertex -1.0403940E-02 2.4238979E-02 3.0301610E-06
vertex -1.8748550E-02 2.1157561E-02 0.0000000E+00
vertex -1.8224191E-02 1.9071899E-02 7.2140712E-05
endloop
endfacet
facet normal 1.3246042E-01 -8.7186560E-02 -9.8734623E-01
outer loop
vertex -3.0492671E-02 6.5018600E-03 2.3183409E-05
vertex -2.7172260E-02 1.1809020E-02 0.0000000E+00
vertex -2.1094389E-02 2.1013901E-02 2.5679140E-06
endloop
endfacet
facet normal 3.3883021E-05 -3.0134563E-04 1.0000000E+00
outer loop
vertex -2.1094389E-02 2.1013901E-02 2.5679140E-06
vertex -2.7172260E-02 1.1809020E-02 0.0000000E+00
vertex -2.4818189E-02 1.2073710E-02 0.0000000E+00
endloop
endfacet
facet normal -1.9057935E-02 7.6509076E-03 9.9978912E-01
outer loop
vertex -2.1094389E-02 2.1013901E-02 2.5679140E-06
vertex -2.4818189E-02 1.2073710E-02 0.0000000E+00
vertex -1.8224191E-02 1.9071899E-02 7.2140712E-05
endloop
endfacet
facet normal -1.7292190E-02 5.9866989E-03 9.9983251E-01
outer loop
vertex -1.8224191E-02 1.9071899E-02 7.2140712E-05
vertex -2.4818189E-02 1.2073710E-02 0.0000000E+00
vertex -2.5161499E-02 9.1320165E-03 1.1676410E-05
endloop
endfacet
facet normal -7.1129198E-03 -3.1390502E-03 -9.9996966E-01
outer loop
vertex -2.5161499E-02 9.1320165E-03 1.1676410E-05
vertex -2.4818189E-02 1.2073710E-02 0.0000000E+00
vertex -2.4218630E-02 1.0715140E-02 0.0000000E+00
endloop
endfacet
facet normal 6.9819200E-03 0.0000000E+00 9.9997562E-01
outer loop
vertex -2.7172260E-02 1.1809020E-02 0.0000000E+00
vertex -3.0492671E-02 6.5018600E-03 2.3183409E-05
vertex -2.7172260E-02 9.6212551E-03 0.0000000E+00
endloop
endfacet
facet normal -3.1758978E-03 1.0812104E-02 9.9993652E-01
outer loop
vertex -2.7172260E-02 9.6212551E-03 0.0000000E+00
vertex -3.0492671E-02 6.5018600E-03 2.3183409E-05
vertex -2.5161499E-02 9.1320165E-03 1.1676410E-05
endloop
endfacet
facet normal 3.2706351E-03 -2.2543941E-03 9.9999201E-01
outer loop
vertex -2.5161499E-02 9.1320165E-03 1.1676410E-05
vertex -3.0492671E-02 6.5018600E-03 2.3183409E-05
vertex -2.6949560E-02 1.3585690E-03 0.0000000E+00
endloop
endfacet
facet normal -1.6927405E-03 -1.8483391E-02 -9.9982768E-01
outer loop
vertex 2.6582500E-02 1.5309521E-03 6.6962521E-06
vertex 2.9273260E-02 1.6467500E-03 0.0000000E+00
vertex 3.0871050E-02 8.3815790E-04 1.2242990E-05
endloop
endfacet
facet normal 8.8259257E-02 8.2049044E-03 9.9606365E-01
outer loop
vertex 2.6062259E-02 -5.9371529E-04 3.7368959E-06
vertex 2.4824800E-02 -9.3494458E-03 1.8550961E-04
vertex 2.6919059E-02 -9.3565648E-03 0.0000000E+00
endloop
endfacet
facet normal -1.5954318E-03 -5.8244256E-04 9.9999863E-01
outer loop
vertex 2.6062259E-02 -5.9371529E-04 3.7368959E-06
vertex 2.6919059E-02 -9.3565648E-03 0.0000000E+00
vertex 3.0871050E-02 8.3815790E-04 1.2242990E-05
endloop
endfacet
facet normal 7.6732856E-01 -5.0854170E-01 3.9063072E-01
outer loop
vertex 1.8934039E-02 -1.8376529E-02 5.0339322E-06
vertex 2.4166850E-02 -1.0484710E-02 0.0000000E+00
vertex 2.4824800E-02 -9.3494458E-03 1.8550961E-04
endloop
endfacet
facet normal 2.5886260E-03 -1.1845843E-03 9.9999595E-01
outer loop
vertex 1.8934039E-02 -1.8376529E-02 5.0339322E-06
vertex 2.0849429E-02 -1.8440420E-02 0.0000000E+00
vertex 2.7565749E-02 -1.1016840E-02 -8.5922220E-06
endloop
endfacet
facet normal 9.7469188E-04 2.7559113E-04 9.9999946E-01
outer loop
vertex 2.7565749E-02 -1.1016840E-02 -8.5922220E-06
vertex 2.0849429E-02 -1.8440420E-02 0.0000000E+00
vertex 2.1398131E-02 -2.0381030E-02 0.0000000E+00
endloop
endfacet
facet normal 1.9711822E-03 -8.2782917E-03 9.9996382E-01
outer loop
vertex 2.1151450E-02 -2.2472059E-02 -1.6301590E-06
vertex 1.8296830E-02 -1.9045191E-02 3.2366661E-05
vertex 1.1765580E-02 -2.4510060E-02 0.0000000E+00
endloop
endfacet
facet normal 2.4859351E-04 -6.2196665E-03 9.9998063E-01
outer loop
vertex 1.1765580E-02 -2.4510060E-02 0.0000000E+00
vertex 1.8296830E-02 -1.9045191E-02 3.2366661E-05
vertex 9.5596127E-03 -2.4598230E-02 0.0000000E+00
endloop
endfacet
facet normal 2.4609673E-03 -9.7004632E-03 9.9994993E-01
outer loop
vertex 9.5596127E-03 -2.4598230E-02 0.0000000E+00
vertex 1.8296830E-02 -1.9045191E-02 3.2366661E-05
vertex 2.6251399E-04 -2.6358310E-02 5.8065530E-06
endloop
endfacet
facet normal 6.5109017E-04 -1.4016299E-04 9.9999976E-01
outer loop
vertex 9.5596127E-03 -2.4598230E-02 0.0000000E+00
vertex 2.6251399E-04 -2.6358310E-02 5.8065530E-06
vertex 9.1646425E-03 -2.6432959E-02 0.0000000E+00
endloop
endfacet
facet normal 6.4276939E-04 -1.1323831E-03 9.9999911E-01
outer loop
vertex 9.1646425E-03 -2.6432959E-02 0.0000000E+00
vertex 2.6251399E-04 -2.6358310E-02 5.8065530E-06
vertex 1.0131760E-02 -2.9233189E-02 -3.7925699E-06
endloop
endfacet
facet normal -5.2111415E-04 -5.1278672E-03 9.9998665E-01
outer loop
vertex 2.6251399E-04 -2.6358310E-02 5.8065530E-06
vertex 1.6779560E-03 -2.7634490E-02 0.0000000E+00
vertex 1.0131760E-02 -2.9233189E-02 -3.7925699E-06
endloop
endfacet
facet normal -1.0910301E-03 -2.1709427E-02 9.9976373E-01
outer loop
vertex -9.6250502E-03 -2.4437301E-02 3.6730238E-05
vertex -8.2500000E-04 -2.6571060E-02 0.0000000E+00
vertex 2.6251399E-04 -2.6358310E-02 5.8065530E-06
endloop
endfacet
facet normal -1.9629551E-02 1.3274918E-02 -9.9971920E-01
outer loop
vertex -9.6250502E-03 -2.4437301E-02 3.6730238E-05
vertex -9.1159903E-03 -2.6450669E-02 0.0000000E+00
vertex -1.0985980E-02 -2.9114161E-02 1.3498020E-06
endloop
endfacet
facet normal 1.2955414E-03 -7.9417452E-03 9.9996763E-01
outer loop
vertex -9.6250502E-03 -2.4437301E-02 3.6730238E-05
vertex -1.0985980E-02 -2.9114161E-02 1.3498020E-06
vertex -1.7017750E-03 -2.7769580E-02 0.0000000E+00
endloop
endfacet
facet normal -2.1019438E-02 -4.1835219E-02 9.9890345E-01
outer loop
vertex -1.8753359E-02 -1.8357400E-02 7.3104507E-05
vertex -1.8199841E-02 -2.0381030E-02 0.0000000E+00
vertex -1.0383320E-02 -2.4232700E-02 3.1668640E-06
endloop
endfacet
facet normal -5.5482087E-04 -3.0373971E-04 9.9999982E-01
outer loop
vertex -1.0383320E-02 -2.4232700E-02 3.1668640E-06
vertex -1.8199841E-02 -2.0381030E-02 0.0000000E+00
vertex -1.0985980E-02 -2.9114161E-02 1.3498020E-06
endloop
endfacet
facet normal -6.0420603E-05 1.0465165E-04 9.9999994E-01
outer loop
vertex -1.0985980E-02 -2.9114161E-02 1.3498020E-06
vertex -1.8199841E-02 -2.0381030E-02 0.0000000E+00
vertex -2.0094501E-02 -2.1474911E-02 0.0000000E+00
endloop
endfacet
facet normal -1.0050299E-02 1.6441346E-03 9.9994814E-01
outer loop
vertex -2.4183379E-02 -1.0337550E-02 5.3419508E-06
vertex -2.5017740E-02 -1.2188920E-02 0.0000000E+00
vertex -1.8753359E-02 -1.8357400E-02 7.3104507E-05
endloop
endfacet
facet normal -2.0077983E-02 -8.5416557E-03 9.9976200E-01
outer loop
vertex -1.8753359E-02 -1.8357400E-02 7.3104507E-05
vertex -2.5017740E-02 -1.2188920E-02 0.0000000E+00
vertex -2.1349121E-02 -2.0486491E-02 2.7841429E-06
endloop
endfacet
facet normal 9.0849289E-06 3.3955384E-04 9.9999994E-01
outer loop
vertex -2.1349121E-02 -2.0486491E-02 2.7841429E-06
vertex -2.5017740E-02 -1.2188920E-02 0.0000000E+00
vertex -2.6693629E-02 -1.2144080E-02 0.0000000E+00
endloop
endfacet
facet normal -6.6803254E-02 -3.1099958E-02 9.9728137E-01
outer loop
vertex -2.4183379E-02 -1.0337550E-02 5.3419508E-06
vertex -2.6454400E-02 -7.7946723E-04 1.5128309E-04
vertex -2.8295510E-02 -1.6759220E-03 0.0000000E+00
endloop
endfacet
facet normal 7.7870960E-04 9.8643149E-04 9.9999928E-01
outer loop
vertex -2.4183379E-02 -1.0337550E-02 5.3419508E-06
vertex -2.8295510E-02 -1.6759220E-03 0.0000000E+00
vertex -2.9532600E-02 -8.6553600E-03 7.8480771E-06
endloop
endfacet
facet normal 1.2290115E-03 9.0661587E-04 9.9999875E-01
outer loop
vertex -2.9532600E-02 -8.6553600E-03 7.8480771E-06
vertex -2.8295510E-02 -1.6759220E-03 0.0000000E+00
vertex -2.9701781E-02 2.3042440E-04 0.0000000E+00
endloop
endfacet
facet normal -1.5456358E-01 3.4069810E-02 9.8739523E-01
outer loop
vertex -2.5161499E-02 9.1320165E-03 1.1676410E-05
vertex -2.6949560E-02 1.3585690E-03 0.0000000E+00
vertex -2.6454400E-02 -7.7946723E-04 1.5128309E-04
endloop
endfacet
facet normal 2.5429862E-02 1.7706201E-03 -9.9967510E-01
outer loop
vertex -1.8224191E-02 1.9071899E-02 7.2140712E-05
vertex -2.1013480E-02 1.8402049E-02 0.0000000E+00
vertex -2.1094389E-02 2.1013901E-02 2.5679140E-06
endloop
endfacet
facet normal 1.7844791E-03 9.4965715E-03 9.9995333E-01
outer loop
vertex 8.3466881E-04 2.6508249E-02 6.7938790E-06
vertex -1.7739550E-03 2.7713800E-02 0.0000000E+00
vertex -9.6483920E-03 2.4531730E-02 4.4272590E-05
endloop
endfacet
facet normal 1.6432541E-03 9.8460056E-03 9.9995011E-01
outer loop
vertex -9.6483920E-03 2.4531730E-02 4.4272590E-05
vertex -1.7739550E-03 2.7713800E-02 0.0000000E+00
vertex -1.0985980E-02 2.9114161E-02 1.3498030E-06
endloop
endfacet
facet normal 1.3515847E-04 -7.4780655E-05 1.0000000E+00
outer loop
vertex -1.0985980E-02 2.9114161E-02 1.3498030E-06
vertex -1.7739550E-03 2.7713800E-02 0.0000000E+00
vertex -8.2500000E-04 2.9428940E-02 0.0000000E+00
endloop
endfacet
facet normal 2.6960963E-02 3.2917801E-02 9.9909437E-01
outer loop
vertex 1.9242389E-02 1.8162251E-02 6.0259172E-06
vertex 2.4110621E-02 1.0765670E-02 1.1835460E-04
vertex 2.6507750E-02 1.2394530E-02 0.0000000E+00
endloop
endfacet
facet normal 8.0898292E-03 1.1235091E-02 -9.9990416E-01
outer loop
vertex 1.9242389E-02 1.8162251E-02 6.0259172E-06
vertex 2.6507750E-02 1.2394530E-02 0.0000000E+00
vertex 2.7556390E-02 1.0841870E-02 -8.9618234E-06
endloop
endfacet
facet normal -3.3930747E-03 -1.2998288E-02 9.9990970E-01
outer loop
vertex 2.4110621E-02 1.0765670E-02 1.1835460E-04
vertex 2.6582500E-02 1.5309521E-03 6.6962521E-06
vertex 3.0871050E-02 8.3815790E-04 1.2242990E-05
endloop
endfacet
facet normal 2.1014898E-03 1.1278895E-04 -9.9999785E-01
outer loop
vertex -1.0985980E-02 -2.9114161E-02 1.3498020E-06
vertex -1.1870660E-02 -2.4598230E-02 0.0000000E+00
vertex -1.0383320E-02 -2.4232700E-02 3.1668640E-06
endloop
endfacet
facet normal 3.3832651E-02 -8.2400404E-03 -9.9939352E-01
outer loop
vertex -2.1349121E-02 -2.0486491E-02 2.7841429E-06
vertex -2.0954510E-02 -1.8528590E-02 0.0000000E+00
vertex -1.8753359E-02 -1.8357400E-02 7.3104507E-05
endloop
endfacet
facet normal 1.6595930E-03 -1.4653959E-04 -9.9999857E-01
outer loop
vertex -1.0403940E-02 2.4238979E-02 3.0301610E-06
vertex -1.2166890E-02 2.4951261E-02 0.0000000E+00
vertex -1.0985980E-02 2.9114161E-02 1.3498030E-06
endloop
endfacet
facet normal 2.1868357E-03 -2.9610543E-04 -9.9999762E-01
outer loop
vertex -1.0985980E-02 2.9114161E-02 1.3498030E-06
vertex -1.2166890E-02 2.4951261E-02 0.0000000E+00
vertex -1.1870660E-02 2.7139019E-02 0.0000000E+00
endloop
endfacet
facet normal -6.0770556E-04 6.8610033E-04 9.9999958E-01
outer loop
vertex 9.1646425E-03 2.6432959E-02 0.0000000E+00
vertex 1.0419630E-02 2.7544551E-02 0.0000000E+00
vertex 9.5391236E-03 2.9373100E-02 -1.7896580E-06
endloop
endfacet
facet normal 1.3791574E-02 -1.6249247E-02 -9.9977285E-01
outer loop
vertex 1.8267060E-02 1.8993380E-02 2.7723110E-05
vertex 1.8495349E-02 2.0892870E-02 0.0000000E+00
vertex 2.0758931E-02 2.2905501E-02 -1.4857220E-06
endloop
endfacet
facet normal -9.5018571E-05 8.4506487E-04 9.9999964E-01
outer loop
vertex 2.0758931E-02 2.2905501E-02 -1.4857220E-06
vertex 1.8495349E-02 2.0892870E-02 0.0000000E+00
vertex 2.0849429E-02 2.1157561E-02 0.0000000E+00
endloop
endfacet
facet normal 5.4206159E-03 -4.5060841E-03 9.9997509E-01
outer loop
vertex 2.7565749E-02 -1.1016840E-02 -8.5922220E-06
vertex 2.5043629E-02 -1.2144080E-02 0.0000000E+00
vertex 1.8934039E-02 -1.8376529E-02 5.0339322E-06
endloop
endfacet
facet normal 5.3537119E-04 2.8287974E-04 9.9999988E-01
outer loop
vertex 1.8934039E-02 -1.8376529E-02 5.0339322E-06
vertex 2.5043629E-02 -1.2144080E-02 0.0000000E+00
vertex 2.4166850E-02 -1.0484710E-02 0.0000000E+00
endloop
endfacet
facet normal 1.6363592E-04 4.6267640E-05 1.0000000E+00
outer loop
vertex 1.1765580E-02 -2.4510060E-02 0.0000000E+00
vertex 1.2314280E-02 -2.6450660E-02 0.0000000E+00
vertex 2.1151450E-02 -2.2472059E-02 -1.6301590E-06
endloop
endfacet
facet normal 3.5450149E-03 -2.5933471E-03 9.9999034E-01
outer loop
vertex -1.7017750E-03 -2.7769580E-02 0.0000000E+00
vertex -8.2500000E-04 -2.6571060E-02 0.0000000E+00
vertex -9.6250502E-03 -2.4437301E-02 3.6730238E-05
endloop
endfacet
facet normal 0.0000000E+00 0.0000000E+00 -1.0000000E+00
outer loop
vertex 2.3747381E-02 1.9926419E-02 -3.8899999E-02
vertex 3.0999999E-02 0.0000000E+00 -3.8899999E-02
vertex 2.5000000E-02 0.0000000E+00 -3.8899999E-02
endloop
endfacet
facet normal 0.0000000E+00 -0.0000000E+00 -1.0000000E+00
outer loop
vertex 2.5000000E-02 0.0000000E+00 -3.8899999E-02
vertex 3.0999999E-02 0.0000000E+00 -3.8899999E-02
vertex 2.3747381E-02 -1.9926419E-02 -3.8899999E-02
endloop
endfacet
facet normal 0.0000000E+00 0.0000000E+00 -1.0000000E+00
outer loop
vertex 2.5000000E-02 0.0000000E+00 -3.8899999E-02
vertex 2.3747381E-02 -1.9926419E-02 -3.8899999E-02
vertex 1.9151110E-02 -1.6069690E-02 -3.8899999E-02
endloop
endfacet
facet normal 0.0000000E+00 -0.0000000E+00 -1.0000000E+00
outer loop
vertex 1.9151110E-02 -1.6069690E-02 -3.8899999E-02
vertex 2.3747381E-02 -1.9926419E-02 -3.8899999E-02
vertex 5.3830929E-03 -3.0529041E-02 -3.8899999E-02
endloop
endfacet
facet normal 0.0000000E+00 0.0000000E+00 -1.0000000E+00
outer loop
vertex 1.9151110E-02 -1.6069690E-02 -3.8899999E-02
vertex 5.3830929E-03 -3.0529041E-02 -3.8899999E-02
vertex 4.3412042E-03 -2.4620190E-02 -3.8899999E-02
endloop
endfacet
facet normal -0.0000000E+00 -0.0000000E+00 -1.0000000E+00
outer loop
vertex 4.3412042E-03 -2.4620190E-02 -3.8899999E-02
vertex 5.3830929E-03 -3.0529041E-02 -3.8899999E-02
vertex -1.2500000E-02 -2.1650640E-02 -3.8899999E-02
endloop
endfacet
facet normal 0.0000000E+00 -0.0000000E+00 -1.0000000E+00
outer loop
vertex -1.2500000E-02 -2.1650640E-02 -3.8899999E-02
vertex 5.3830929E-03 -3.0529041E-02 -3.8899999E-02
vertex -1.5500000E-02 -2.6846791E-02 -3.8899999E-02
endloop
endfacet
facet normal -0.0000000E+00 0.0000000E+00 -1.0000000E+00
outer loop
vertex -1.2500000E-02 -2.1650640E-02 -3.8899999E-02
vertex -1.5500000E-02 -2.6846791E-02 -3.8899999E-02
vertex -2.3492310E-02 -8.5505042E-03 -3.8899999E-02
endloop
endfacet
facet normal 0.0000000E+00 -0.0000000E+00 -9.9999994E-01
outer loop
vertex -2.3492310E-02 -8.5505042E-03 -3.8899999E-02
vertex -1.5500000E-02 -2.6846791E-02 -3.8899999E-02
vertex -2.9130470E-02 -1.0602620E-02 -3.8899999E-02
endloop
endfacet
facet normal -0.0000000E+00 0.0000000E+00 -1.0000000E+00
outer loop
vertex -2.3492310E-02 -8.5505042E-03 -3.8899999E-02
vertex -2.9130470E-02 -1.0602620E-02 -3.8899999E-02
vertex -2.3492310E-02 8.5505042E-03 -3.8899999E-02
endloop
endfacet
facet normal -0.0000000E+00 0.0000000E+00 -9.9999994E-01
outer loop
vertex -2.3492310E-02 8.5505042E-03 -3.8899999E-02
vertex -2.9130470E-02 -1.0602620E-02 -3.8899999E-02
vertex -2.9130470E-02 1.0602620E-02 -3.8899999E-02
endloop
endfacet
facet normal 0.0000000E+00 0.0000000E+00 -9.9999994E-01
outer loop
vertex -2.3492310E-02 8.5505042E-03 -3.8899999E-02
vertex -2.9130470E-02 1.0602620E-02 -3.8899999E-02
vertex -1.5500000E-02 2.6846791E-02 -3.8899999E-02
endloop
endfacet
facet normal 0.0000000E+00 0.0000000E+00 -9.9999994E-01
outer loop
vertex -2.3492310E-02 8.5505042E-03 -3.8899999E-02
vertex -1.5500000E-02 2.6846791E-02 -3.8899999E-02
vertex -1.2500000E-02 2.1650640E-02 -3.8899999E-02
endloop
endfacet
facet normal 0.0000000E+00 0.0000000E+00 -1.0000000E+00
outer loop
vertex -1.2500000E-02 2.1650640E-02 -3.8899999E-02
vertex -1.5500000E-02 2.6846791E-02 -3.8899999E-02
vertex 5.3830929E-03 3.0529041E-02 -3.8899999E-02
endloop
endfacet
facet normal 0.0000000E+00 0.0000000E+00 -1.0000000E+00
outer loop
vertex -1.2500000E-02 2.1650640E-02 -3.8899999E-02
vertex 5.3830929E-03 3.0529041E-02 -3.8899999E-02
vertex 4.3412042E-03 2.4620190E-02 -3.8899999E-02
endloop
endfacet
facet normal 0.0000000E+00 0.0000000E+00 -1.0000000E+00
outer loop
vertex 4.3412042E-03 2.4620190E-02 -3.8899999E-02
vertex 5.3830929E-03 3.0529041E-02 -3.8899999E-02
vertex 1.9151110E-02 1.6069690E-02 -3.8899999E-02
endloop
endfacet
facet normal 0.0000000E+00 0.0000000E+00 -1.0000000E+00
outer loop
vertex 1.9151110E-02 1.6069690E-02 -3.8899999E-02
vertex 5.3830929E-03 3.0529041E-02 -3.8899999E-02
vertex 2.3747381E-02 1.9926419E-02 -3.8899999E-02
endloop
endfacet
facet normal 0.0000000E+00 0.0000000E+00 -1.0000000E+00
outer loop
vertex 1.9151110E-02 1.6069690E-02 -3.8899999E-02
vertex 2.3747381E-02 1.9926419E-02 -3.8899999E-02
vertex 2.5000000E-02 0.0000000E+00 -3.8899999E-02
endloop
endfacet
endsolid Created by stlwrite.m 28-Nov-2018 09:46:52
