solid Created by stlwrite.m 07-Nov-2013 10:51:32
facet normal 0.0000000E+00 0.0000000E+00 -1.0000000E+00
outer loop
vertex 0.0000000E+00 0.0000000E+00 0.0000000E+00
vertex 0.0000000E+00 5.0000000E-01 0.0000000E+00
vertex 2.0000000E+00 5.0000000E-01 0.0000000E+00
endloop
endfacet
facet normal 0.0000000E+00 0.0000000E+00 1.0000000E+00
outer loop
vertex 0.0000000E+00 0.0000000E+00 0.0000000E+00
vertex 2.0000000E+00 0.0000000E+00 0.0000000E+00
vertex 2.0000000E+00 5.0000000E-01 0.0000000E+00
endloop
endfacet
facet normal 1.0000000E+00 0.0000000E+00 0.0000000E+00
outer loop
vertex 0.0000000E+00 0.0000000E+00 0.0000000E+00
vertex 0.0000000E+00 5.0000000E-01 0.0000000E+00
vertex 0.0000000E+00 5.0000000E-01 2.0000000E-01
endloop
endfacet
facet normal -1.0000000E+00 0.0000000E+00 0.0000000E+00
outer loop
vertex 0.0000000E+00 0.0000000E+00 0.0000000E+00
vertex 0.0000000E+00 0.0000000E+00 2.0000000E-01
vertex 0.0000000E+00 5.0000000E-01 2.0000000E-01
endloop
endfacet
facet normal 0.0000000E+00 1.0000000E+00 0.0000000E+00
outer loop
vertex 0.0000000E+00 0.0000000E+00 0.0000000E+00
vertex 0.0000000E+00 0.0000000E+00 2.0000000E-01
vertex 2.0000000E+00 0.0000000E+00 2.0000000E-01
endloop
endfacet
facet normal 0.0000000E+00 -1.0000000E+00 0.0000000E+00
outer loop
vertex 0.0000000E+00 0.0000000E+00 0.0000000E+00
vertex 2.0000000E+00 0.0000000E+00 0.0000000E+00
vertex 2.0000000E+00 0.0000000E+00 2.0000000E-01
endloop
endfacet
facet normal 1.0000000E+00 0.0000000E+00 0.0000000E+00
outer loop
vertex 2.0000000E+00 0.0000000E+00 2.0000000E-01
vertex 2.0000000E+00 0.0000000E+00 0.0000000E+00
vertex 2.0000000E+00 5.0000000E-01 0.0000000E+00
endloop
endfacet
facet normal 1.0000000E+00 0.0000000E+00 -0.0000000E+00
outer loop
vertex 2.0000000E+00 5.0000000E-01 0.0000000E+00
vertex 2.0000000E+00 5.0000000E-01 2.0000000E-01
vertex 2.0000000E+00 0.0000000E+00 2.0000000E-01
endloop
endfacet
facet normal 0.0000000E+00 -1.0000000E+00 -0.0000000E+00
outer loop
vertex 2.0000000E+00 5.0000000E-01 2.0000000E-01
vertex 0.0000000E+00 5.0000000E-01 0.0000000E+00
vertex 2.0000000E+00 5.0000000E-01 0.0000000E+00
endloop
endfacet
facet normal -0.0000000E+00 -1.0000000E+00 0.0000000E+00
outer loop
vertex 2.0000000E+00 5.0000000E-01 2.0000000E-01
vertex 0.0000000E+00 5.0000000E-01 2.0000000E-01
vertex 0.0000000E+00 5.0000000E-01 0.0000000E+00
endloop
endfacet
facet normal 0.0000000E+00 0.0000000E+00 1.0000000E+00
outer loop
vertex 0.0000000E+00 0.0000000E+00 2.0000000E-01
vertex 2.0000000E+00 0.0000000E+00 2.0000000E-01
vertex 2.0000000E+00 5.0000000E-01 2.0000000E-01
endloop
endfacet
facet normal 0.0000000E+00 0.0000000E+00 1.0000000E+00
outer loop
vertex 0.0000000E+00 0.0000000E+00 2.0000000E-01
vertex 2.0000000E+00 5.0000000E-01 2.0000000E-01
vertex 0.0000000E+00 5.0000000E-01 2.0000000E-01
endloop
endfacet
endsolid Created by stlwrite.m 07-Nov-2013 10:51:32
solid Created by surf2stl.m 12-Nov-2013 18:17:48
facet normal 9.8768834E-01 1.5643447E-01 0.0000000E+00
outer loop
vertex 5.0000000E-01 2.0000000E-01 2.0000000E-01
vertex 4.9510565E-01 2.3090170E-01 2.0000000E-01
vertex 4.9510565E-01 2.3090170E-01 2.5000000E-01
endloop
endfacet
facet normal 9.8768834E-01 1.5643447E-01 0.0000000E+00
outer loop
vertex 4.9510565E-01 2.3090170E-01 2.5000000E-01
vertex 5.0000000E-01 2.0000000E-01 2.5000000E-01
vertex 5.0000000E-01 2.0000000E-01 2.0000000E-01
endloop
endfacet
facet normal 8.9100652E-01 4.5399050E-01 0.0000000E+00
outer loop
vertex 4.9510565E-01 2.3090170E-01 2.0000000E-01
vertex 4.8090170E-01 2.5877853E-01 2.0000000E-01
vertex 4.8090170E-01 2.5877853E-01 2.5000000E-01
endloop
endfacet
facet normal 8.9100652E-01 4.5399050E-01 0.0000000E+00
outer loop
vertex 4.8090170E-01 2.5877853E-01 2.5000000E-01
vertex 4.9510565E-01 2.3090170E-01 2.5000000E-01
vertex 4.9510565E-01 2.3090170E-01 2.0000000E-01
endloop
endfacet
facet normal 7.0710678E-01 7.0710678E-01 0.0000000E+00
outer loop
vertex 4.8090170E-01 2.5877853E-01 2.0000000E-01
vertex 4.5877853E-01 2.8090170E-01 2.0000000E-01
vertex 4.5877853E-01 2.8090170E-01 2.5000000E-01
endloop
endfacet
facet normal 7.0710678E-01 7.0710678E-01 0.0000000E+00
outer loop
vertex 4.5877853E-01 2.8090170E-01 2.5000000E-01
vertex 4.8090170E-01 2.5877853E-01 2.5000000E-01
vertex 4.8090170E-01 2.5877853E-01 2.0000000E-01
endloop
endfacet
facet normal 4.5399050E-01 8.9100652E-01 0.0000000E+00
outer loop
vertex 4.5877853E-01 2.8090170E-01 2.0000000E-01
vertex 4.3090170E-01 2.9510565E-01 2.0000000E-01
vertex 4.3090170E-01 2.9510565E-01 2.5000000E-01
endloop
endfacet
facet normal 4.5399050E-01 8.9100652E-01 0.0000000E+00
outer loop
vertex 4.3090170E-01 2.9510565E-01 2.5000000E-01
vertex 4.5877853E-01 2.8090170E-01 2.5000000E-01
vertex 4.5877853E-01 2.8090170E-01 2.0000000E-01
endloop
endfacet
facet normal 1.5643447E-01 9.8768834E-01 0.0000000E+00
outer loop
vertex 4.3090170E-01 2.9510565E-01 2.0000000E-01
vertex 4.0000000E-01 3.0000000E-01 2.0000000E-01
vertex 4.0000000E-01 3.0000000E-01 2.5000000E-01
endloop
endfacet
facet normal 1.5643447E-01 9.8768834E-01 0.0000000E+00
outer loop
vertex 4.0000000E-01 3.0000000E-01 2.5000000E-01
vertex 4.3090170E-01 2.9510565E-01 2.5000000E-01
vertex 4.3090170E-01 2.9510565E-01 2.0000000E-01
endloop
endfacet
facet normal -1.5643447E-01 9.8768834E-01 0.0000000E+00
outer loop
vertex 4.0000000E-01 3.0000000E-01 2.0000000E-01
vertex 3.6909830E-01 2.9510565E-01 2.0000000E-01
vertex 3.6909830E-01 2.9510565E-01 2.5000000E-01
endloop
endfacet
facet normal -1.5643447E-01 9.8768834E-01 0.0000000E+00
outer loop
vertex 3.6909830E-01 2.9510565E-01 2.5000000E-01
vertex 4.0000000E-01 3.0000000E-01 2.5000000E-01
vertex 4.0000000E-01 3.0000000E-01 2.0000000E-01
endloop
endfacet
facet normal -4.5399050E-01 8.9100652E-01 0.0000000E+00
outer loop
vertex 3.6909830E-01 2.9510565E-01 2.0000000E-01
vertex 3.4122147E-01 2.8090170E-01 2.0000000E-01
vertex 3.4122147E-01 2.8090170E-01 2.5000000E-01
endloop
endfacet
facet normal -4.5399050E-01 8.9100652E-01 0.0000000E+00
outer loop
vertex 3.4122147E-01 2.8090170E-01 2.5000000E-01
vertex 3.6909830E-01 2.9510565E-01 2.5000000E-01
vertex 3.6909830E-01 2.9510565E-01 2.0000000E-01
endloop
endfacet
facet normal -7.0710678E-01 7.0710678E-01 0.0000000E+00
outer loop
vertex 3.4122147E-01 2.8090170E-01 2.0000000E-01
vertex 3.1909830E-01 2.5877853E-01 2.0000000E-01
vertex 3.1909830E-01 2.5877853E-01 2.5000000E-01
endloop
endfacet
facet normal -7.0710678E-01 7.0710678E-01 0.0000000E+00
outer loop
vertex 3.1909830E-01 2.5877853E-01 2.5000000E-01
vertex 3.4122147E-01 2.8090170E-01 2.5000000E-01
vertex 3.4122147E-01 2.8090170E-01 2.0000000E-01
endloop
endfacet
facet normal -8.9100652E-01 4.5399050E-01 0.0000000E+00
outer loop
vertex 3.1909830E-01 2.5877853E-01 2.0000000E-01
vertex 3.0489435E-01 2.3090170E-01 2.0000000E-01
vertex 3.0489435E-01 2.3090170E-01 2.5000000E-01
endloop
endfacet
facet normal -8.9100652E-01 4.5399050E-01 0.0000000E+00
outer loop
vertex 3.0489435E-01 2.3090170E-01 2.5000000E-01
vertex 3.1909830E-01 2.5877853E-01 2.5000000E-01
vertex 3.1909830E-01 2.5877853E-01 2.0000000E-01
endloop
endfacet
facet normal -9.8768834E-01 1.5643447E-01 0.0000000E+00
outer loop
vertex 3.0489435E-01 2.3090170E-01 2.0000000E-01
vertex 3.0000000E-01 2.0000000E-01 2.0000000E-01
vertex 3.0000000E-01 2.0000000E-01 2.5000000E-01
endloop
endfacet
facet normal -9.8768834E-01 1.5643447E-01 0.0000000E+00
outer loop
vertex 3.0000000E-01 2.0000000E-01 2.5000000E-01
vertex 3.0489435E-01 2.3090170E-01 2.5000000E-01
vertex 3.0489435E-01 2.3090170E-01 2.0000000E-01
endloop
endfacet
facet normal -9.8768834E-01 -1.5643447E-01 0.0000000E+00
outer loop
vertex 3.0000000E-01 2.0000000E-01 2.0000000E-01
vertex 3.0489435E-01 1.6909830E-01 2.0000000E-01
vertex 3.0489435E-01 1.6909830E-01 2.5000000E-01
endloop
endfacet
facet normal -9.8768834E-01 -1.5643447E-01 0.0000000E+00
outer loop
vertex 3.0489435E-01 1.6909830E-01 2.5000000E-01
vertex 3.0000000E-01 2.0000000E-01 2.5000000E-01
vertex 3.0000000E-01 2.0000000E-01 2.0000000E-01
endloop
endfacet
facet normal -8.9100652E-01 -4.5399050E-01 0.0000000E+00
outer loop
vertex 3.0489435E-01 1.6909830E-01 2.0000000E-01
vertex 3.1909830E-01 1.4122147E-01 2.0000000E-01
vertex 3.1909830E-01 1.4122147E-01 2.5000000E-01
endloop
endfacet
facet normal -8.9100652E-01 -4.5399050E-01 0.0000000E+00
outer loop
vertex 3.1909830E-01 1.4122147E-01 2.5000000E-01
vertex 3.0489435E-01 1.6909830E-01 2.5000000E-01
vertex 3.0489435E-01 1.6909830E-01 2.0000000E-01
endloop
endfacet
facet normal -7.0710678E-01 -7.0710678E-01 0.0000000E+00
outer loop
vertex 3.1909830E-01 1.4122147E-01 2.0000000E-01
vertex 3.4122147E-01 1.1909830E-01 2.0000000E-01
vertex 3.4122147E-01 1.1909830E-01 2.5000000E-01
endloop
endfacet
facet normal -7.0710678E-01 -7.0710678E-01 0.0000000E+00
outer loop
vertex 3.4122147E-01 1.1909830E-01 2.5000000E-01
vertex 3.1909830E-01 1.4122147E-01 2.5000000E-01
vertex 3.1909830E-01 1.4122147E-01 2.0000000E-01
endloop
endfacet
facet normal -4.5399050E-01 -8.9100652E-01 0.0000000E+00
outer loop
vertex 3.4122147E-01 1.1909830E-01 2.0000000E-01
vertex 3.6909830E-01 1.0489435E-01 2.0000000E-01
vertex 3.6909830E-01 1.0489435E-01 2.5000000E-01
endloop
endfacet
facet normal -4.5399050E-01 -8.9100652E-01 0.0000000E+00
outer loop
vertex 3.6909830E-01 1.0489435E-01 2.5000000E-01
vertex 3.4122147E-01 1.1909830E-01 2.5000000E-01
vertex 3.4122147E-01 1.1909830E-01 2.0000000E-01
endloop
endfacet
facet normal -1.5643447E-01 -9.8768834E-01 0.0000000E+00
outer loop
vertex 3.6909830E-01 1.0489435E-01 2.0000000E-01
vertex 4.0000000E-01 1.0000000E-01 2.0000000E-01
vertex 4.0000000E-01 1.0000000E-01 2.5000000E-01
endloop
endfacet
facet normal -1.5643447E-01 -9.8768834E-01 0.0000000E+00
outer loop
vertex 4.0000000E-01 1.0000000E-01 2.5000000E-01
vertex 3.6909830E-01 1.0489435E-01 2.5000000E-01
vertex 3.6909830E-01 1.0489435E-01 2.0000000E-01
endloop
endfacet
facet normal 1.5643447E-01 -9.8768834E-01 0.0000000E+00
outer loop
vertex 4.0000000E-01 1.0000000E-01 2.0000000E-01
vertex 4.3090170E-01 1.0489435E-01 2.0000000E-01
vertex 4.3090170E-01 1.0489435E-01 2.5000000E-01
endloop
endfacet
facet normal 1.5643447E-01 -9.8768834E-01 0.0000000E+00
outer loop
vertex 4.3090170E-01 1.0489435E-01 2.5000000E-01
vertex 4.0000000E-01 1.0000000E-01 2.5000000E-01
vertex 4.0000000E-01 1.0000000E-01 2.0000000E-01
endloop
endfacet
facet normal 4.5399050E-01 -8.9100652E-01 0.0000000E+00
outer loop
vertex 4.3090170E-01 1.0489435E-01 2.0000000E-01
vertex 4.5877853E-01 1.1909830E-01 2.0000000E-01
vertex 4.5877853E-01 1.1909830E-01 2.5000000E-01
endloop
endfacet
facet normal 4.5399050E-01 -8.9100652E-01 0.0000000E+00
outer loop
vertex 4.5877853E-01 1.1909830E-01 2.5000000E-01
vertex 4.3090170E-01 1.0489435E-01 2.5000000E-01
vertex 4.3090170E-01 1.0489435E-01 2.0000000E-01
endloop
endfacet
facet normal 7.0710678E-01 -7.0710678E-01 0.0000000E+00
outer loop
vertex 4.5877853E-01 1.1909830E-01 2.0000000E-01
vertex 4.8090170E-01 1.4122147E-01 2.0000000E-01
vertex 4.8090170E-01 1.4122147E-01 2.5000000E-01
endloop
endfacet
facet normal 7.0710678E-01 -7.0710678E-01 0.0000000E+00
outer loop
vertex 4.8090170E-01 1.4122147E-01 2.5000000E-01
vertex 4.5877853E-01 1.1909830E-01 2.5000000E-01
vertex 4.5877853E-01 1.1909830E-01 2.0000000E-01
endloop
endfacet
facet normal 8.9100652E-01 -4.5399050E-01 0.0000000E+00
outer loop
vertex 4.8090170E-01 1.4122147E-01 2.0000000E-01
vertex 4.9510565E-01 1.6909830E-01 2.0000000E-01
vertex 4.9510565E-01 1.6909830E-01 2.5000000E-01
endloop
endfacet
facet normal 8.9100652E-01 -4.5399050E-01 0.0000000E+00
outer loop
vertex 4.9510565E-01 1.6909830E-01 2.5000000E-01
vertex 4.8090170E-01 1.4122147E-01 2.5000000E-01
vertex 4.8090170E-01 1.4122147E-01 2.0000000E-01
endloop
endfacet
facet normal 9.8768834E-01 -1.5643447E-01 0.0000000E+00
outer loop
vertex 4.9510565E-01 1.6909830E-01 2.0000000E-01
vertex 5.0000000E-01 2.0000000E-01 2.0000000E-01
vertex 5.0000000E-01 2.0000000E-01 2.5000000E-01
endloop
endfacet
facet normal 9.8768834E-01 -1.5643447E-01 0.0000000E+00
outer loop
vertex 5.0000000E-01 2.0000000E-01 2.5000000E-01
vertex 4.9510565E-01 1.6909830E-01 2.5000000E-01
vertex 4.9510565E-01 1.6909830E-01 2.0000000E-01
endloop
endfacet
endsolid Created by surf2stl.m 12-Nov-2013 18:17:48
solid Created by surf2stl.m 12-Nov-2013 18:17:48
facet normal 7.0710678E-01 7.0710678E-01 0.0000000E+00
outer loop
vertex 1.1500000E+00 2.0000000E-01 2.0000000E-01
vertex 1.0000000E+00 3.5000000E-01 2.0000000E-01
vertex 1.0000000E+00 3.5000000E-01 3.0000000E-01
endloop
endfacet
facet normal 7.0710678E-01 7.0710678E-01 0.0000000E+00
outer loop
vertex 1.0000000E+00 3.5000000E-01 3.0000000E-01
vertex 1.1500000E+00 2.0000000E-01 3.0000000E-01
vertex 1.1500000E+00 2.0000000E-01 2.0000000E-01
endloop
endfacet
facet normal -7.0710678E-01 7.0710678E-01 0.0000000E+00
outer loop
vertex 1.0000000E+00 3.5000000E-01 2.0000000E-01
vertex 8.5000000E-01 2.0000000E-01 2.0000000E-01
vertex 8.5000000E-01 2.0000000E-01 3.0000000E-01
endloop
endfacet
facet normal -7.0710678E-01 7.0710678E-01 0.0000000E+00
outer loop
vertex 8.5000000E-01 2.0000000E-01 3.0000000E-01
vertex 1.0000000E+00 3.5000000E-01 3.0000000E-01
vertex 1.0000000E+00 3.5000000E-01 2.0000000E-01
endloop
endfacet
facet normal -7.0710678E-01 -7.0710678E-01 0.0000000E+00
outer loop
vertex 8.5000000E-01 2.0000000E-01 2.0000000E-01
vertex 1.0000000E+00 5.0000000E-02 2.0000000E-01
vertex 1.0000000E+00 5.0000000E-02 3.0000000E-01
endloop
endfacet
facet normal -7.0710678E-01 -7.0710678E-01 0.0000000E+00
outer loop
vertex 1.0000000E+00 5.0000000E-02 3.0000000E-01
vertex 8.5000000E-01 2.0000000E-01 3.0000000E-01
vertex 8.5000000E-01 2.0000000E-01 2.0000000E-01
endloop
endfacet
facet normal 7.0710678E-01 -7.0710678E-01 0.0000000E+00
outer loop
vertex 1.0000000E+00 5.0000000E-02 2.0000000E-01
vertex 1.1500000E+00 2.0000000E-01 2.0000000E-01
vertex 1.1500000E+00 2.0000000E-01 3.0000000E-01
endloop
endfacet
facet normal 7.0710678E-01 -7.0710678E-01 0.0000000E+00
outer loop
vertex 1.1500000E+00 2.0000000E-01 3.0000000E-01
vertex 1.0000000E+00 5.0000000E-02 3.0000000E-01
vertex 1.0000000E+00 5.0000000E-02 2.0000000E-01
endloop
endfacet
endsolid Created by surf2stl.m 12-Nov-2013 18:17:48
