solid Created by stlwrite.m 07-Nov-2013 10:51:32
facet normal 0.0000000E+00 0.0000000E+00 -1.0000000E+00
outer loop
vertex 0.0000000E+00 0.0000000E+00 0.0000000E+00
vertex 0.0000000E+00 5.0000000E-01 0.0000000E+00
vertex 2.0000000E+00 5.0000000E-01 0.0000000E+00
endloop
endfacet
facet normal 0.0000000E+00 0.0000000E+00 1.0000000E+00
outer loop
vertex 0.0000000E+00 0.0000000E+00 0.0000000E+00
vertex 2.0000000E+00 0.0000000E+00 0.0000000E+00
vertex 2.0000000E+00 5.0000000E-01 0.0000000E+00
endloop
endfacet
facet normal 1.0000000E+00 0.0000000E+00 0.0000000E+00
outer loop
vertex 0.0000000E+00 0.0000000E+00 0.0000000E+00
vertex 0.0000000E+00 5.0000000E-01 0.0000000E+00
vertex 0.0000000E+00 5.0000000E-01 2.0000000E-01
endloop
endfacet
facet normal -1.0000000E+00 0.0000000E+00 0.0000000E+00
outer loop
vertex 0.0000000E+00 0.0000000E+00 0.0000000E+00
vertex 0.0000000E+00 0.0000000E+00 2.0000000E-01
vertex 0.0000000E+00 5.0000000E-01 2.0000000E-01
endloop
endfacet
facet normal 0.0000000E+00 1.0000000E+00 0.0000000E+00
outer loop
vertex 0.0000000E+00 0.0000000E+00 0.0000000E+00
vertex 0.0000000E+00 0.0000000E+00 2.0000000E-01
vertex 2.0000000E+00 0.0000000E+00 2.0000000E-01
endloop
endfacet
facet normal 0.0000000E+00 -1.0000000E+00 0.0000000E+00
outer loop
vertex 0.0000000E+00 0.0000000E+00 0.0000000E+00
vertex 2.0000000E+00 0.0000000E+00 0.0000000E+00
vertex 2.0000000E+00 0.0000000E+00 2.0000000E-01
endloop
endfacet
facet normal 1.0000000E+00 0.0000000E+00 0.0000000E+00
outer loop
vertex 2.0000000E+00 0.0000000E+00 2.0000000E-01
vertex 2.0000000E+00 0.0000000E+00 0.0000000E+00
vertex 2.0000000E+00 5.0000000E-01 0.0000000E+00
endloop
endfacet
facet normal 1.0000000E+00 0.0000000E+00 -0.0000000E+00
outer loop
vertex 2.0000000E+00 5.0000000E-01 0.0000000E+00
vertex 2.0000000E+00 5.0000000E-01 2.0000000E-01
vertex 2.0000000E+00 0.0000000E+00 2.0000000E-01
endloop
endfacet
facet normal 0.0000000E+00 -1.0000000E+00 -0.0000000E+00
outer loop
vertex 2.0000000E+00 5.0000000E-01 2.0000000E-01
vertex 0.0000000E+00 5.0000000E-01 0.0000000E+00
vertex 2.0000000E+00 5.0000000E-01 0.0000000E+00
endloop
endfacet
facet normal -0.0000000E+00 -1.0000000E+00 0.0000000E+00
outer loop
vertex 2.0000000E+00 5.0000000E-01 2.0000000E-01
vertex 0.0000000E+00 5.0000000E-01 2.0000000E-01
vertex 0.0000000E+00 5.0000000E-01 0.0000000E+00
endloop
endfacet
facet normal 0.0000000E+00 0.0000000E+00 1.0000000E+00
outer loop
vertex 0.0000000E+00 0.0000000E+00 2.0000000E-01
vertex 2.0000000E+00 0.0000000E+00 2.0000000E-01
vertex 2.0000000E+00 5.0000000E-01 2.0000000E-01
endloop
endfacet
facet normal 0.0000000E+00 0.0000000E+00 1.0000000E+00
outer loop
vertex 0.0000000E+00 0.0000000E+00 2.0000000E-01
vertex 2.0000000E+00 5.0000000E-01 2.0000000E-01
vertex 0.0000000E+00 5.0000000E-01 2.0000000E-01
endloop
endfacet
endsolid Created by stlwrite.m 07-Nov-2013 10:51:32
