solid Created by surf2stl.m 13-Nov-2013 11:46:31
facet normal 0.0000000E+000 1.5643447E-001 9.8768834E-001
outer loop
vertex -0.0000000E+000 0.0000000E+000 5.0000000E-002
vertex -0.0000000E+000 1.5450850E-002 4.7552826E-002
vertex -7.0000000E-001 1.5450850E-002 4.7552826E-002
endloop
endfacet
facet normal 0.0000000E+000 1.5643447E-001 9.8768834E-001
outer loop
vertex -7.0000000E-001 1.5450850E-002 4.7552826E-002
vertex -7.0000000E-001 0.0000000E+000 5.0000000E-002
vertex -0.0000000E+000 0.0000000E+000 5.0000000E-002
endloop
endfacet
facet normal 0.0000000E+000 4.5399050E-001 8.9100652E-001
outer loop
vertex -0.0000000E+000 1.5450850E-002 4.7552826E-002
vertex -0.0000000E+000 2.9389263E-002 4.0450850E-002
vertex -7.0000000E-001 2.9389263E-002 4.0450850E-002
endloop
endfacet
facet normal 0.0000000E+000 4.5399050E-001 8.9100652E-001
outer loop
vertex -7.0000000E-001 2.9389263E-002 4.0450850E-002
vertex -7.0000000E-001 1.5450850E-002 4.7552826E-002
vertex -0.0000000E+000 1.5450850E-002 4.7552826E-002
endloop
endfacet
facet normal 0.0000000E+000 7.0710678E-001 7.0710678E-001
outer loop
vertex -0.0000000E+000 2.9389263E-002 4.0450850E-002
vertex -0.0000000E+000 4.0450850E-002 2.9389263E-002
vertex -7.0000000E-001 4.0450850E-002 2.9389263E-002
endloop
endfacet
facet normal 0.0000000E+000 7.0710678E-001 7.0710678E-001
outer loop
vertex -7.0000000E-001 4.0450850E-002 2.9389263E-002
vertex -7.0000000E-001 2.9389263E-002 4.0450850E-002
vertex -0.0000000E+000 2.9389263E-002 4.0450850E-002
endloop
endfacet
facet normal 0.0000000E+000 8.9100652E-001 4.5399050E-001
outer loop
vertex -0.0000000E+000 4.0450850E-002 2.9389263E-002
vertex -0.0000000E+000 4.7552826E-002 1.5450850E-002
vertex -7.0000000E-001 4.7552826E-002 1.5450850E-002
endloop
endfacet
facet normal 0.0000000E+000 8.9100652E-001 4.5399050E-001
outer loop
vertex -7.0000000E-001 4.7552826E-002 1.5450850E-002
vertex -7.0000000E-001 4.0450850E-002 2.9389263E-002
vertex -0.0000000E+000 4.0450850E-002 2.9389263E-002
endloop
endfacet
facet normal 0.0000000E+000 9.8768834E-001 1.5643447E-001
outer loop
vertex -0.0000000E+000 4.7552826E-002 1.5450850E-002
vertex -0.0000000E+000 5.0000000E-002 3.0616170E-018
vertex -7.0000000E-001 5.0000000E-002 3.0616170E-018
endloop
endfacet
facet normal 0.0000000E+000 9.8768834E-001 1.5643447E-001
outer loop
vertex -7.0000000E-001 5.0000000E-002 3.0616170E-018
vertex -7.0000000E-001 4.7552826E-002 1.5450850E-002
vertex -0.0000000E+000 4.7552826E-002 1.5450850E-002
endloop
endfacet
facet normal 0.0000000E+000 9.8768834E-001 -1.5643447E-001
outer loop
vertex -0.0000000E+000 5.0000000E-002 3.0616170E-018
vertex -0.0000000E+000 4.7552826E-002 -1.5450850E-002
vertex -7.0000000E-001 4.7552826E-002 -1.5450850E-002
endloop
endfacet
facet normal 0.0000000E+000 9.8768834E-001 -1.5643447E-001
outer loop
vertex -7.0000000E-001 4.7552826E-002 -1.5450850E-002
vertex -7.0000000E-001 5.0000000E-002 3.0616170E-018
vertex -0.0000000E+000 5.0000000E-002 3.0616170E-018
endloop
endfacet
facet normal 0.0000000E+000 8.9100652E-001 -4.5399050E-001
outer loop
vertex -0.0000000E+000 4.7552826E-002 -1.5450850E-002
vertex -0.0000000E+000 4.0450850E-002 -2.9389263E-002
vertex -7.0000000E-001 4.0450850E-002 -2.9389263E-002
endloop
endfacet
facet normal 0.0000000E+000 8.9100652E-001 -4.5399050E-001
outer loop
vertex -7.0000000E-001 4.0450850E-002 -2.9389263E-002
vertex -7.0000000E-001 4.7552826E-002 -1.5450850E-002
vertex -0.0000000E+000 4.7552826E-002 -1.5450850E-002
endloop
endfacet
facet normal 0.0000000E+000 7.0710678E-001 -7.0710678E-001
outer loop
vertex -0.0000000E+000 4.0450850E-002 -2.9389263E-002
vertex -0.0000000E+000 2.9389263E-002 -4.0450850E-002
vertex -7.0000000E-001 2.9389263E-002 -4.0450850E-002
endloop
endfacet
facet normal 0.0000000E+000 7.0710678E-001 -7.0710678E-001
outer loop
vertex -7.0000000E-001 2.9389263E-002 -4.0450850E-002
vertex -7.0000000E-001 4.0450850E-002 -2.9389263E-002
vertex -0.0000000E+000 4.0450850E-002 -2.9389263E-002
endloop
endfacet
facet normal 0.0000000E+000 4.5399050E-001 -8.9100652E-001
outer loop
vertex -0.0000000E+000 2.9389263E-002 -4.0450850E-002
vertex -0.0000000E+000 1.5450850E-002 -4.7552826E-002
vertex -7.0000000E-001 1.5450850E-002 -4.7552826E-002
endloop
endfacet
facet normal 0.0000000E+000 4.5399050E-001 -8.9100652E-001
outer loop
vertex -7.0000000E-001 1.5450850E-002 -4.7552826E-002
vertex -7.0000000E-001 2.9389263E-002 -4.0450850E-002
vertex -0.0000000E+000 2.9389263E-002 -4.0450850E-002
endloop
endfacet
facet normal 0.0000000E+000 1.5643447E-001 -9.8768834E-001
outer loop
vertex -0.0000000E+000 1.5450850E-002 -4.7552826E-002
vertex -0.0000000E+000 6.1232340E-018 -5.0000000E-002
vertex -7.0000000E-001 6.1232340E-018 -5.0000000E-002
endloop
endfacet
facet normal 0.0000000E+000 1.5643447E-001 -9.8768834E-001
outer loop
vertex -7.0000000E-001 6.1232340E-018 -5.0000000E-002
vertex -7.0000000E-001 1.5450850E-002 -4.7552826E-002
vertex -0.0000000E+000 1.5450850E-002 -4.7552826E-002
endloop
endfacet
facet normal 0.0000000E+000 -1.5643447E-001 -9.8768834E-001
outer loop
vertex -0.0000000E+000 6.1232340E-018 -5.0000000E-002
vertex -0.0000000E+000 -1.5450850E-002 -4.7552826E-002
vertex -7.0000000E-001 -1.5450850E-002 -4.7552826E-002
endloop
endfacet
facet normal 0.0000000E+000 -1.5643447E-001 -9.8768834E-001
outer loop
vertex -7.0000000E-001 -1.5450850E-002 -4.7552826E-002
vertex -7.0000000E-001 6.1232340E-018 -5.0000000E-002
vertex -0.0000000E+000 6.1232340E-018 -5.0000000E-002
endloop
endfacet
facet normal 0.0000000E+000 -4.5399050E-001 -8.9100652E-001
outer loop
vertex -0.0000000E+000 -1.5450850E-002 -4.7552826E-002
vertex -0.0000000E+000 -2.9389263E-002 -4.0450850E-002
vertex -7.0000000E-001 -2.9389263E-002 -4.0450850E-002
endloop
endfacet
facet normal 0.0000000E+000 -4.5399050E-001 -8.9100652E-001
outer loop
vertex -7.0000000E-001 -2.9389263E-002 -4.0450850E-002
vertex -7.0000000E-001 -1.5450850E-002 -4.7552826E-002
vertex -0.0000000E+000 -1.5450850E-002 -4.7552826E-002
endloop
endfacet
facet normal 0.0000000E+000 -7.0710678E-001 -7.0710678E-001
outer loop
vertex -0.0000000E+000 -2.9389263E-002 -4.0450850E-002
vertex -0.0000000E+000 -4.0450850E-002 -2.9389263E-002
vertex -7.0000000E-001 -4.0450850E-002 -2.9389263E-002
endloop
endfacet
facet normal 0.0000000E+000 -7.0710678E-001 -7.0710678E-001
outer loop
vertex -7.0000000E-001 -4.0450850E-002 -2.9389263E-002
vertex -7.0000000E-001 -2.9389263E-002 -4.0450850E-002
vertex -0.0000000E+000 -2.9389263E-002 -4.0450850E-002
endloop
endfacet
facet normal 0.0000000E+000 -8.9100652E-001 -4.5399050E-001
outer loop
vertex -0.0000000E+000 -4.0450850E-002 -2.9389263E-002
vertex -0.0000000E+000 -4.7552826E-002 -1.5450850E-002
vertex -7.0000000E-001 -4.7552826E-002 -1.5450850E-002
endloop
endfacet
facet normal 0.0000000E+000 -8.9100652E-001 -4.5399050E-001
outer loop
vertex -7.0000000E-001 -4.7552826E-002 -1.5450850E-002
vertex -7.0000000E-001 -4.0450850E-002 -2.9389263E-002
vertex -0.0000000E+000 -4.0450850E-002 -2.9389263E-002
endloop
endfacet
facet normal 0.0000000E+000 -9.8768834E-001 -1.5643447E-001
outer loop
vertex -0.0000000E+000 -4.7552826E-002 -1.5450850E-002
vertex -0.0000000E+000 -5.0000000E-002 -9.1848510E-018
vertex -7.0000000E-001 -5.0000000E-002 -9.1848510E-018
endloop
endfacet
facet normal 0.0000000E+000 -9.8768834E-001 -1.5643447E-001
outer loop
vertex -7.0000000E-001 -5.0000000E-002 -9.1848510E-018
vertex -7.0000000E-001 -4.7552826E-002 -1.5450850E-002
vertex -0.0000000E+000 -4.7552826E-002 -1.5450850E-002
endloop
endfacet
facet normal 0.0000000E+000 -9.8768834E-001 1.5643447E-001
outer loop
vertex -0.0000000E+000 -5.0000000E-002 -9.1848510E-018
vertex -0.0000000E+000 -4.7552826E-002 1.5450850E-002
vertex -7.0000000E-001 -4.7552826E-002 1.5450850E-002
endloop
endfacet
facet normal 0.0000000E+000 -9.8768834E-001 1.5643447E-001
outer loop
vertex -7.0000000E-001 -4.7552826E-002 1.5450850E-002
vertex -7.0000000E-001 -5.0000000E-002 -9.1848510E-018
vertex -0.0000000E+000 -5.0000000E-002 -9.1848510E-018
endloop
endfacet
facet normal 0.0000000E+000 -8.9100652E-001 4.5399050E-001
outer loop
vertex -0.0000000E+000 -4.7552826E-002 1.5450850E-002
vertex -0.0000000E+000 -4.0450850E-002 2.9389263E-002
vertex -7.0000000E-001 -4.0450850E-002 2.9389263E-002
endloop
endfacet
facet normal 0.0000000E+000 -8.9100652E-001 4.5399050E-001
outer loop
vertex -7.0000000E-001 -4.0450850E-002 2.9389263E-002
vertex -7.0000000E-001 -4.7552826E-002 1.5450850E-002
vertex -0.0000000E+000 -4.7552826E-002 1.5450850E-002
endloop
endfacet
facet normal 0.0000000E+000 -7.0710678E-001 7.0710678E-001
outer loop
vertex -0.0000000E+000 -4.0450850E-002 2.9389263E-002
vertex -0.0000000E+000 -2.9389263E-002 4.0450850E-002
vertex -7.0000000E-001 -2.9389263E-002 4.0450850E-002
endloop
endfacet
facet normal 0.0000000E+000 -7.0710678E-001 7.0710678E-001
outer loop
vertex -7.0000000E-001 -2.9389263E-002 4.0450850E-002
vertex -7.0000000E-001 -4.0450850E-002 2.9389263E-002
vertex -0.0000000E+000 -4.0450850E-002 2.9389263E-002
endloop
endfacet
facet normal 0.0000000E+000 -4.5399050E-001 8.9100652E-001
outer loop
vertex -0.0000000E+000 -2.9389263E-002 4.0450850E-002
vertex -0.0000000E+000 -1.5450850E-002 4.7552826E-002
vertex -7.0000000E-001 -1.5450850E-002 4.7552826E-002
endloop
endfacet
facet normal 0.0000000E+000 -4.5399050E-001 8.9100652E-001
outer loop
vertex -7.0000000E-001 -1.5450850E-002 4.7552826E-002
vertex -7.0000000E-001 -2.9389263E-002 4.0450850E-002
vertex -0.0000000E+000 -2.9389263E-002 4.0450850E-002
endloop
endfacet
facet normal 0.0000000E+000 -1.5643447E-001 9.8768834E-001
outer loop
vertex -0.0000000E+000 -1.5450850E-002 4.7552826E-002
vertex -0.0000000E+000 0.0000000E+000 5.0000000E-002
vertex -7.0000000E-001 0.0000000E+000 5.0000000E-002
endloop
endfacet
facet normal 0.0000000E+000 -1.5643447E-001 9.8768834E-001
outer loop
vertex -7.0000000E-001 0.0000000E+000 5.0000000E-002
vertex -7.0000000E-001 -1.5450850E-002 4.7552826E-002
vertex -0.0000000E+000 -1.5450850E-002 4.7552826E-002
endloop
endfacet
endsolid Created by surf2stl.m 13-Nov-2013 11:46:31
